<svg width="1671" height="1174" viewBox="0 0 1671 1174" fill="none" xmlns="http://www.w3.org/2000/svg">
<g clip-path="url(#clip0_106_4743)">
<mask id="mask0_106_4743" style="mask-type:luminance" maskUnits="userSpaceOnUse" x="66" y="41" width="1656" height="947">
<path d="M75.7737 725.776C117.416 885.141 280.365 980.576 439.754 938.927C457.291 934.345 474.088 928.287 489.963 920.928C530.45 973.604 599.929 999.844 668.252 981.991C730.043 965.845 774.973 917.775 790.089 860.101C859.629 892.671 940.528 902.047 1020.64 881.114C1040.99 875.796 1060.41 868.75 1078.8 860.177C1135.29 895.905 1205.9 909.057 1275.66 890.827C1401.56 857.929 1479.82 734.71 1459.19 608.814C1467.95 607.914 1476.75 606.349 1485.53 604.055C1578.11 579.864 1633.56 485.18 1609.37 392.599C1608.11 387.772 1606.6 383.083 1604.99 378.472C1689.7 349.209 1738.94 259.183 1715.9 171.004C1691.7 78.4234 1597.02 22.9706 1504.44 47.1619C1411.86 71.3533 1356.41 166.037 1380.6 258.617C1381.86 263.445 1383.34 268.14 1384.97 272.745C1324.36 293.69 1281.96 345.726 1271.15 405.964C1261.03 403.502 1250.69 401.678 1240.23 400.519C1170.19 258.179 1007.67 179.851 848.279 221.5C722.519 254.361 631.604 353.33 603.02 471.406C532.49 377.383 409.69 330.238 288.947 361.788C129.559 403.436 34.1251 566.386 75.7737 725.776Z" fill="white"/>
</mask>
<g mask="url(#mask0_106_4743)">
<path d="M-156.15 1469.84C-156.15 1469.84 -152.528 1374.47 -121.457 1364.51C-90.3919 1354.52 -68.8363 1415.63 -29.3493 1408.17C10.1613 1400.7 29.3579 1389.31 29.111 1305.64C28.894 1221.99 18.722 1220.02 24.1696 1076.97C29.6171 933.921 25.6431 903.813 101.995 868.794C178.353 833.799 250.27 915.325 327.484 1037.05C404.692 1158.76 437.706 1231.9 479.857 1244.5C522.013 1257.12 513.456 1212.76 531.938 1175.42C550.42 1138.08 548.166 1107.39 587.66 1099.95C627.17 1092.49 630.307 1054.86 642.561 956.722C654.816 858.587 618.559 781.269 668.013 781.089C717.461 780.885 692.986 752.139 795.271 886.709C897.564 1021.3 903.656 1040.26 973.536 1085.84" stroke="#3B95A3" stroke-width="0.64" stroke-miterlimit="10"/>
<path d="M-156.092 1466.39C-156.092 1466.39 -152.701 1371.58 -122.038 1361.22C-91.4448 1350.87 -70.1489 1410.99 -31.1097 1403.27C5.28191 1395.96 24.1958 1385.33 26.9476 1317C27.1493 1311.97 27.2768 1306.65 27.3116 1300.98C28.0457 1218.07 18.5914 1217.2 24.5203 1075.9C30.3719 934.584 26.6561 904.205 102.347 869.461C116.162 863.12 129.817 860.614 143.43 861.532C196.265 865.095 247.732 919.351 301.205 997.631C309.593 1009.9 318.042 1022.79 326.567 1036.16C403.091 1156.6 436.118 1229.2 478.302 1241.64C520.361 1254.09 512.163 1210.04 530.622 1172.7C547.855 1137.84 547.059 1108.67 579.192 1098.7C581.297 1098.05 583.575 1097.48 585.979 1097.01C625.199 1089.01 628.326 1050.95 640.636 953.61C642.873 936.34 643.647 919.755 643.731 904.21C643.832 831.549 626.808 779.847 667.714 780.333C706.675 780.821 699.56 763.946 744.877 820.012C757.537 835.665 773.662 855.772 796.031 884.968C897.987 1018.08 904.249 1037.4 973.439 1082.86" stroke="#3B95A3" stroke-width="0.64" stroke-miterlimit="10"/>
<path d="M-155.185 1460.19C-155.185 1460.19 -152.026 1365.94 -121.787 1355.21C-91.6607 1344.53 -70.5761 1403.75 -32.0392 1395.65C3.95817 1388.09 22.6012 1377.1 25.8175 1309.49C26.0552 1304.5 26.2424 1299.21 26.3492 1293.62C27.8328 1211.45 19.2917 1211.66 25.7018 1072.1C31.9339 932.532 28.4999 901.878 103.499 867.39C117.196 861.08 130.78 858.593 144.269 859.517C196.849 863.172 248.097 916.879 301.175 994.327C309.509 1006.48 317.927 1019.25 326.397 1032.51C402.261 1151.69 435.277 1223.76 477.488 1236.01C519.475 1248.28 511.642 1204.56 530.041 1167.19C547.163 1132.48 546.468 1103.31 578.313 1093.02C580.412 1092.34 582.636 1091.76 585.034 1091.26C623.981 1082.7 626.818 1044.22 639.469 947.696C641.737 930.443 642.73 913.927 642.976 898.517C643.999 826.576 627.149 775.637 668.175 776.774C707.302 777.902 699.829 761.879 745.767 816.745C758.813 832.323 774.864 851.085 797.518 880.408C899.097 1012.08 905.571 1031.72 974.078 1077.08" stroke="#3B95A3" stroke-width="0.64" stroke-miterlimit="10"/>
<path d="M-153.48 1451.42C-153.48 1451.42 -150.558 1357.72 -120.739 1346.65C-91.1084 1335.62 -70.2475 1393.88 -32.1707 1385.47C3.44993 1377.63 21.7985 1366.28 25.509 1299.41C25.7828 1294.45 26.0122 1289.24 26.1787 1283.68C28.5064 1202.22 20.7901 1203.56 27.6753 1065.72C34.3114 927.891 31.1418 896.991 105.473 862.753C119.076 856.468 132.541 854.011 145.959 854.955C198.309 858.695 249.284 911.841 301.997 988.474C310.3 1000.51 318.664 1013.17 327.109 1026.33C402.283 1144.22 435.293 1215.79 477.533 1227.86C519.422 1239.95 511.949 1196.54 530.3 1159.19C547.335 1124.62 546.741 1095.45 578.28 1084.86C580.349 1084.17 582.574 1083.59 584.929 1083.02C623.603 1073.9 626.282 1035 639.119 939.292C641.44 922.051 642.63 905.61 643.008 890.317C644.821 819.08 628.259 768.951 669.445 770.703C708.74 772.47 700.925 757.269 747.468 810.966C760.898 826.469 776.9 843.878 799.823 873.359C901.048 1003.58 907.709 1023.56 975.55 1068.78" stroke="#3B95A3" stroke-width="0.64" stroke-miterlimit="10"/>
<path d="M-150.964 1440.25C-150.964 1440.25 -148.298 1347.12 -118.886 1335.64C-89.7217 1324.28 -69.1143 1381.57 -31.4915 1372.88C3.7226 1364.74 21.7891 1353.09 26.0175 1286.94C26.3273 1282.03 26.6164 1276.84 26.8252 1271.35C30.0032 1190.63 23.1054 1193.07 30.4718 1056.97C37.5121 920.886 34.6006 889.716 108.264 855.729C121.778 849.492 135.143 847.037 148.46 847.981C200.555 851.813 251.305 904.386 303.63 980.21C311.873 992.113 320.235 1004.67 328.632 1017.74C403.381 1134.2 436.144 1205.4 478.411 1217.29C520.204 1229.2 513.09 1186.11 531.412 1148.73C548.335 1114.33 547.848 1085.18 579.093 1074.23C581.156 1073.52 583.369 1072.99 585.676 1072.33C623.756 1061.42 626.621 1023.33 639.639 928.412C642.013 911.182 643.376 894.822 643.939 879.658C646.549 809.148 630.262 759.781 671.592 762.178C711.053 764.584 702.927 750.224 750.075 802.751C763.913 818.173 779.812 834.218 803.027 863.85C903.845 992.61 910.741 1012.9 977.905 1058.05" stroke="#3B95A3" stroke-width="0.64" stroke-miterlimit="10"/>
<path d="M-147.653 1426.89C-147.653 1426.89 -145.241 1334.34 -116.231 1322.49C-87.5567 1310.8 -67.1556 1367.1 -30.0165 1358.11C4.8146 1349.66 22.6165 1337.68 27.2918 1272.27C27.6376 1267.4 27.9865 1262.25 28.2611 1256.82C32.2894 1176.84 26.2101 1180.37 34.0517 1046C41.4786 911.684 38.8253 880.244 111.845 846.501C125.24 840.295 138.51 837.864 151.757 838.827C203.622 842.745 254.128 894.774 306.059 969.766C314.27 981.551 322.595 993.963 330.944 1006.95C405.098 1122.1 437.813 1192.73 480.086 1204.54C521.834 1216.18 515.051 1173.49 533.325 1136.12C550.137 1101.87 549.774 1072.72 580.707 1061.45C582.74 1060.71 584.954 1060.19 587.225 1059.49C624.91 1047.75 627.738 1009.52 640.943 915.405C643.37 898.186 644.906 881.908 645.631 866.878C649.038 797.095 633.049 748.485 674.522 751.528C714.174 754.566 705.754 741.015 753.436 792.393C767.659 807.738 783.507 822.432 806.985 852.197C907.432 979.537 914.533 1000.13 981.007 1045.16" stroke="#3B95A3" stroke-width="0.64" stroke-miterlimit="10"/>
<path d="M-143.574 1411.54C-143.574 1411.54 -141.423 1319.54 -112.808 1307.33C-84.6304 1295.29 -64.2252 1351.42 -27.774 1341.34C6.46501 1331.89 24.1878 1320.28 29.3574 1255.6C29.7392 1250.77 30.1303 1245.69 30.4708 1240.31C35.3494 1161.07 30.065 1165.71 38.4115 1033.08C46.2425 900.503 43.8474 868.794 116.175 835.307C129.453 829.132 142.652 826.72 155.797 827.684C207.402 831.669 257.665 883.156 309.231 957.333C317.388 969.005 325.688 981.323 334.006 994.192C407.541 1108.04 440.198 1178.15 482.504 1189.8C524.179 1201.26 517.738 1158.9 535.982 1121.52C552.707 1087.42 552.421 1058.27 583.066 1046.67C585.069 1045.92 587.283 1045.39 589.517 1044.66C626.826 1032.05 629.629 993.726 642.99 900.409C645.448 883.207 647.174 866.98 648.084 852.079C652.264 783.03 636.579 735.098 678.197 738.887C718.021 742.487 709.355 729.835 757.547 780.068C772.202 795.326 787.923 808.663 811.693 838.579C911.716 964.487 919.051 985.4 984.866 1030.32" stroke="#3B95A3" stroke-width="0.64" stroke-miterlimit="10"/>
<path d="M-138.755 1394.38C-138.755 1394.38 -136.859 1302.95 -108.645 1290.37C-80.9574 1278 -60.7275 1333.27 -24.791 1322.76C9.03413 1312.89 26.5058 1301.09 32.1397 1237.12C32.5577 1232.34 33.0084 1227.29 33.4148 1221.97C39.1375 1143.45 34.9804 1149.21 43.4994 1018.3C52.0196 887.49 49.5739 855.491 121.24 822.278C134.429 816.152 147.504 813.747 160.578 814.729C211.952 818.8 261.973 869.743 313.144 943.088C321.27 954.642 329.539 966.841 337.809 979.622C410.719 1092.14 443.329 1161.79 485.663 1173.25C527.235 1184.51 521.159 1142.49 539.373 1105.09C555.993 1071.17 555.832 1042.01 586.165 1030.09C588.162 1029.31 590.297 1028.68 592.544 1027.99C630.174 1016.62 632.248 976.078 645.796 883.571C648.307 866.381 650.207 850.235 651.302 835.463C656.272 767.117 640.892 719.965 682.653 724.399C722.644 728.638 713.755 716.778 762.433 765.872C777.503 781.073 793.121 793.045 817.177 823.089C916.775 947.566 924.369 968.791 989.494 1013.59" stroke="#3B95A3" stroke-width="0.64" stroke-miterlimit="10"/>
<path d="M-133.199 1375.59C-133.199 1375.59 -131.559 1284.73 -103.753 1271.75C-76.5548 1259.05 -56.7835 1312.46 -21.0783 1302.53C12.5804 1293.18 29.571 1280.22 35.6755 1216.99C36.1294 1212.24 36.6461 1207.25 37.0885 1201.98C43.679 1124.16 40.3528 1131.07 49.3232 1001.89C58.2711 872.812 56.0662 840.572 127.059 807.586C140.129 801.491 153.126 799.08 166.083 800.094C217.226 804.25 266.826 854.747 317.757 927.169C325.805 938.617 334.067 950.692 342.311 963.378C414.602 1074.59 447.154 1143.72 489.521 1155.03C531.02 1166.1 525.304 1124.39 543.471 1087C559.98 1053.24 559.943 1024.07 589.964 1011.83C591.931 1011.03 594.06 1010.38 596.277 1009.67C633.658 997.73 635.573 956.779 649.284 865.089C651.849 847.91 653.921 831.846 655.171 817.184C660.915 749.572 645.834 703.176 687.762 708.249C727.943 713.121 718.855 702.046 768.002 750.032C783.487 765.174 799.019 775.754 823.35 805.979C922.506 929.055 930.375 950.561 994.841 995.252" stroke="#3B95A3" stroke-width="0.64" stroke-miterlimit="10"/>
<path d="M-126.912 1355.34C-126.912 1355.34 -125.55 1265.05 -98.1215 1251.69C-71.4136 1238.67 -51.8485 1291.1 -16.6271 1280.86C16.6486 1271.21 33.351 1257.92 39.9497 1195.42C40.4397 1190.71 40.9924 1185.76 41.5069 1180.57C48.9477 1103.49 46.4873 1111.49 55.8856 984.042C65.2911 856.718 63.2908 824.198 133.622 791.485C146.598 785.415 159.476 783.036 172.362 784.068C223.251 788.316 272.602 838.245 323.168 909.853C331.161 921.189 339.392 933.145 347.606 945.713C419.278 1055.62 451.777 1124.26 494.172 1135.38C535.598 1146.27 530.217 1104.88 548.354 1067.47C564.776 1033.86 564.804 1004.65 594.549 992.123C596.51 991.307 598.609 990.632 600.796 989.909C637.928 977.4 639.684 936.035 653.582 845.157C656.2 827.989 658.469 811.999 659.881 797.473C666.421 730.587 651.639 684.948 693.686 690.673C734.029 696.16 724.795 685.881 774.357 732.747C790.274 747.802 805.685 757.048 830.302 787.401C929.016 909.075 937.155 930.839 1000.94 975.43" stroke="#3B95A3" stroke-width="0.64" stroke-miterlimit="10"/>
<path d="M-119.937 1333.85C-119.937 1333.85 -118.83 1244.14 -91.8034 1230.4C-65.6029 1217.08 -46.2502 1268.5 -11.4827 1257.98C21.4039 1247.99 37.8478 1234.39 44.8935 1172.63C45.4195 1167.97 46.0381 1163.08 46.5886 1157.93C54.8971 1081.56 53.2616 1090.68 63.1113 964.963C72.9507 839.396 71.1787 806.588 140.818 774.133C153.682 768.117 166.477 765.709 179.268 766.766C229.92 770.975 278.988 820.498 329.206 891.26C337.162 902.454 345.369 914.316 353.534 926.795C424.611 1035.39 457.027 1103.52 499.439 1114.51C540.785 1125.2 535.752 1084.17 553.86 1046.75C570.17 1013.28 570.299 984.074 599.762 971.243C601.693 970.41 603.792 969.735 605.967 968.964C642.843 955.865 644.453 914.134 658.508 824.049C661.179 806.892 663.621 790.984 665.195 776.592C672.508 710.44 658.019 665.534 700.239 671.921C740.772 678.04 731.41 668.529 781.346 714.311C797.702 729.302 812.979 737.167 837.888 767.67C936.16 887.943 944.576 909.99 1007.67 954.481" stroke="#3B95A3" stroke-width="0.64" stroke-miterlimit="10"/>
<path d="M-112.274 1311.31C-112.274 1311.31 -111.445 1222.18 -84.8026 1208.04C-59.0921 1194.4 -39.9457 1244.83 -5.66192 1234.01C26.8243 1223.75 43.0211 1209.78 50.5435 1148.78C51.1056 1144.16 51.7838 1139.31 52.4002 1134.22C61.5529 1058.56 60.7719 1068.82 71.073 944.831C81.334 820.975 79.773 787.91 148.775 755.722C161.544 749.73 174.221 747.353 186.94 748.429C237.362 752.723 286.163 801.709 336.011 871.633C343.912 882.715 352.088 894.459 360.228 906.843C430.68 1014.11 463.049 1081.77 505.489 1092.58C546.739 1103.09 542.088 1062.36 560.148 1024.95C576.348 991.645 576.601 962.429 605.752 949.275C607.677 948.418 609.746 947.726 611.886 946.914C648.536 933.242 649.964 891.103 664.181 801.835C666.906 784.69 669.521 768.863 671.274 754.576C679.367 689.181 665.193 645.001 707.533 652.039C748.233 658.798 738.784 650.017 789.07 694.722C805.894 709.666 821.015 716.156 846.21 746.787C943.993 865.671 952.731 887.987 1015.14 932.355" stroke="#3B95A3" stroke-width="0.64" stroke-miterlimit="10"/>
<path d="M-103.938 1287.87C-103.938 1287.87 -103.382 1199.34 -77.123 1184.8C-51.9199 1170.85 -32.9622 1220.28 0.837786 1209.15C32.9349 1198.56 48.8733 1184.29 56.8426 1124.03C57.4582 1119.42 58.1786 1114.63 58.8373 1109.6C68.8577 1034.65 68.9251 1046.04 79.6539 923.779C90.3788 801.698 89.0285 768.375 157.356 736.414C170.007 730.454 182.613 728.095 195.208 729.178C245.393 733.534 293.927 781.983 343.41 851.093C351.257 862.062 359.402 873.687 367.512 885.954C437.344 991.915 469.655 1059.06 512.128 1069.71C553.299 1080.01 548.99 1039.62 567.02 1002.2C583.138 969.064 583.463 939.829 612.326 926.346C614.221 925.472 616.26 924.762 618.369 923.933C654.788 909.664 656.063 867.135 670.444 778.684C673.222 761.55 676.004 745.781 677.948 731.646C686.814 666.984 672.939 623.561 715.453 631.261C756.343 638.653 746.807 630.603 797.45 674.253C814.712 689.134 829.699 694.243 855.187 725.025C952.504 842.514 961.542 865.105 1023.27 909.374" stroke="#3B95A3" stroke-width="0.64" stroke-miterlimit="10"/>
<path d="M-94.9613 1263.79C-94.9613 1263.79 -94.7077 1175.84 -68.8032 1160.91C-44.1137 1146.64 -25.3385 1195.08 7.97766 1183.65C39.7155 1172.75 55.3656 1158.14 63.8055 1098.62C64.4571 1094.05 65.2198 1089.33 65.9618 1084.33C76.85 1010.09 77.7483 1022.62 88.9286 902.091C100.057 781.75 98.9418 748.164 166.602 716.453C179.164 710.541 191.639 708.166 204.17 709.291C254.094 713.715 302.391 761.645 351.504 829.915C359.32 840.767 367.433 852.274 375.471 864.458C444.685 969.115 476.943 1035.77 519.444 1046.23C560.541 1056.35 556.568 1016.28 574.575 978.861C590.582 945.883 591.031 916.641 619.582 902.835C621.447 901.943 623.48 901.209 625.583 900.356C661.77 885.49 662.875 842.602 677.406 754.92C680.238 737.798 683.193 722.109 685.299 708.109C694.914 644.188 681.385 601.508 724.018 609.86C765.076 617.89 755.499 610.558 806.445 653.144C824.17 667.954 839.006 671.712 864.81 702.64C961.644 818.763 970.975 841.606 1032.04 885.769" stroke="#3B95A3" stroke-width="0.64" stroke-miterlimit="10"/>
<path d="M-85.3386 1239.18C-85.3386 1239.18 -85.3574 1151.83 -59.8431 1136.47C-35.661 1121.91 -17.0746 1169.33 15.7578 1157.59C47.1127 1146.39 62.5219 1131.45 71.385 1072.68C72.0727 1068.15 72.895 1063.46 73.6854 1058.55C85.4352 984.993 87.1881 998.667 98.7962 879.869C110.389 761.302 109.478 727.435 176.446 695.981C188.89 690.1 201.295 687.744 213.724 688.869C263.418 693.379 311.425 740.778 360.19 808.204C367.952 818.943 376.034 830.332 384.047 842.421C452.618 945.78 484.847 1011.94 527.382 1022.24C568.406 1032.17 564.709 992.386 582.746 954.984C598.582 922.126 599.192 892.918 627.46 878.806C629.319 877.891 631.329 877.163 633.396 876.269C669.351 860.806 670.304 817.528 684.998 730.663C687.883 713.552 691.011 697.945 693.296 684.05C703.69 620.885 690.454 578.938 733.254 587.929C774.502 596.592 764.886 589.978 816.118 631.529C834.31 646.292 848.984 648.652 875.08 679.731C971.406 794.495 981.079 817.578 1041.48 861.612" stroke="#3B95A3" stroke-width="0.64" stroke-miterlimit="10"/>
<path d="M-75.1073 1214.28C-75.1073 1214.28 -75.4223 1127.54 -50.2683 1111.77C-26.5937 1096.91 -8.19596 1143.33 24.1527 1131.28C55.1246 1119.78 70.2692 1104.49 79.6029 1046.46C80.3266 1041.97 81.2087 1037.32 82.0413 1032.47C94.6589 959.627 97.2427 974.449 109.302 857.379C121.323 740.546 120.646 706.415 186.953 675.235C199.302 669.379 211.588 667.053 223.941 668.174C273.398 672.746 321.144 719.631 369.539 786.218C377.246 796.846 385.297 808.116 393.279 820.087C461.231 922.141 493.401 987.785 535.97 997.923C576.891 1007.66 573.56 968.205 591.549 930.815C607.274 898.112 607.985 868.903 635.965 854.462C637.794 853.529 639.798 852.778 641.835 851.867C677.582 835.801 678.365 792.163 693.191 706.097C696.131 688.997 699.437 673.495 701.901 659.705C713.045 597.28 700.155 556.076 743.075 565.719C784.484 574.998 774.899 569.083 826.369 609.611C845.023 624.304 859.546 625.313 885.928 656.519C981.748 769.924 991.761 793.246 1051.47 837.157" stroke="#3B95A3" stroke-width="0.64" stroke-miterlimit="10"/>
<path d="M-64.2547 1189.25C-64.2547 1189.25 -64.8658 1103.12 -40.0721 1086.93C-16.8988 1071.8 1.32769 1117.17 33.175 1104.86C63.7579 1093.02 78.6677 1077.42 88.4483 1020.13C89.208 1015.68 90.156 1011.09 91.0483 1006.28C104.534 934.141 107.942 950.088 120.429 834.751C132.884 719.676 132.436 685.258 198.075 654.328C210.312 648.527 222.521 646.196 234.778 647.342C283.975 651.981 331.479 698.323 379.509 764.096C387.178 774.581 395.205 785.756 403.139 797.639C470.466 898.365 502.566 963.547 545.162 973.501C586.01 983.053 583.014 943.916 600.974 906.509C616.611 873.955 617.423 844.745 645.091 829.981C646.914 829.025 648.888 828.256 650.889 827.304C686.398 810.617 687.034 766.613 702.024 681.365C705.017 664.276 708.466 648.837 711.116 635.176C723.016 573.514 710.442 533.037 753.528 543.318C795.104 553.236 785.544 547.998 837.282 587.52C856.422 602.137 870.764 601.777 897.439 633.134C992.728 745.186 1003.1 768.718 1062.13 812.553" stroke="#3B95A3" stroke-width="0.64" stroke-miterlimit="10"/>
<path d="M-52.8495 1164.3C-52.8495 1164.3 -53.7568 1078.78 -29.3296 1062.16C-6.66373 1046.73 11.374 1091.09 42.7612 1078.46C72.9611 1066.32 87.6239 1050.36 97.8339 993.838C98.6297 989.433 99.6136 984.878 100.578 980.151C114.949 908.691 119.194 925.81 132.103 812.184C144.991 698.866 144.778 664.184 209.725 633.511C221.868 627.734 233.952 625.411 246.115 626.581C295.082 631.306 342.318 677.111 389.977 742.045C397.593 752.418 405.589 763.475 413.498 775.263C480.205 874.684 512.246 939.351 554.877 949.145C595.652 958.513 592.998 919.717 610.927 882.292C626.454 849.894 627.366 820.683 654.752 805.614C656.546 804.639 658.513 803.847 660.484 802.877C695.785 785.588 696.252 741.223 711.374 656.775C714.444 639.691 718.043 624.34 720.878 610.807C733.527 549.884 721.299 510.151 764.505 521.084C806.272 531.635 796.754 527.043 848.69 565.578C868.322 580.142 882.483 578.414 909.443 609.898C1004.2 720.597 1014.94 744.363 1073.28 788.075" stroke="#3B95A3" stroke-width="0.64" stroke-miterlimit="10"/>
<path d="M-40.8482 1139.6C-40.8482 1139.6 -42.0516 1054.69 -17.9848 1037.65C4.17985 1021.95 22.0165 1065.25 52.9025 1052.35C82.7431 1039.9 97.1412 1023.6 107.798 967.823C108.624 963.436 109.674 958.939 110.68 954.277C125.912 883.503 130.989 901.77 144.355 789.894C157.701 678.328 157.669 643.372 221.972 612.942C233.997 607.196 246.01 604.891 258.078 606.087C306.808 610.874 353.784 656.165 401.072 720.261C408.633 730.521 416.598 741.46 424.476 753.13C490.541 851.253 522.553 915.421 565.217 925.054C605.889 934.222 603.624 895.754 621.5 858.318C636.916 826.075 637.953 796.857 665.027 781.465C666.79 780.473 668.751 779.657 670.693 778.67C705.78 760.754 706.106 716.046 721.338 632.403C724.462 615.331 728.24 600.085 731.23 586.663C744.635 526.504 732.729 487.521 776.102 499.093C818.036 510.282 808.584 506.33 860.717 543.878C880.835 558.366 894.821 555.293 922.074 586.929C1016.3 696.275 1027.4 720.274 1085.06 763.886" stroke="#3B95A3" stroke-width="0.64" stroke-miterlimit="10"/>
<path d="M-28.2963 1115.36C-28.2963 1115.36 -29.7896 1031.08 -6.08931 1013.61C15.5741 997.635 33.2395 1039.89 63.618 1026.69C93.0695 1013.92 107.233 997.298 118.313 942.271C119.198 937.919 120.29 933.488 121.357 928.86C137.48 858.788 143.364 878.21 157.176 768.038C170.956 658.229 171.151 622.986 234.77 592.836C246.699 587.115 258.594 584.841 270.585 586.031C319.085 590.904 365.764 635.641 412.712 698.915C420.241 709.058 428.175 719.878 436.005 731.459C501.451 828.277 533.41 891.954 576.102 901.403C616.701 910.388 614.772 872.236 632.624 834.807C647.929 802.719 649.073 773.524 675.852 757.778C677.604 756.739 679.517 755.936 681.452 754.925C716.325 736.383 716.481 691.315 731.877 608.489C735.054 591.428 739.004 576.263 742.173 562.946C756.334 503.55 744.768 465.287 788.261 477.51C830.385 489.333 821.017 485.991 873.312 522.612C893.922 537.047 907.698 532.588 935.267 564.368C1028.95 672.391 1040.43 696.594 1097.4 740.083" stroke="#3B95A3" stroke-width="0.64" stroke-miterlimit="10"/>
<path d="M-15.2279 1091.74C-15.2279 1091.74 -17.0111 1008.1 6.31646 990.169C27.4611 973.949 44.9429 1015.12 74.8675 1001.63C103.954 988.522 117.882 971.584 129.392 917.331C130.313 913.02 131.465 908.623 132.573 904.061C149.582 834.668 156.303 855.26 170.543 746.823C184.757 638.771 185.187 603.264 248.131 573.342C259.949 567.675 271.766 565.396 283.663 566.611C331.902 571.551 378.344 615.769 424.921 678.205C432.396 688.235 440.299 698.937 448.104 710.423C512.931 805.937 544.832 869.098 587.558 878.387C628.083 887.188 626.489 849.354 644.318 811.93C659.512 779.998 660.756 750.801 687.248 734.727C688.969 733.671 690.877 732.843 692.782 731.815C727.434 712.622 727.433 667.242 742.961 585.215C746.192 568.166 750.315 553.082 753.67 539.893C768.562 481.267 757.336 443.724 800.996 456.586C843.287 469.048 834.027 466.31 886.501 501.974C907.62 516.327 921.198 510.529 949.053 542.437C1042.18 649.113 1054.05 673.543 1110.36 716.926" stroke="#3B95A3" stroke-width="0.64" stroke-miterlimit="10"/>
<path d="M-1.64023 1068.95C-1.64023 1068.95 -3.73707 985.944 19.2477 967.576C39.891 951.083 57.1717 991.19 86.5951 977.434C115.298 964.018 129.003 946.709 140.942 893.228C141.9 888.958 143.117 884.62 144.268 880.122C162.162 811.408 169.69 833.155 184.381 726.445C199.023 620.127 199.725 584.499 261.947 554.714C273.676 549.096 285.363 546.801 297.188 548.034C345.197 553.06 391.373 596.74 437.578 658.338C444.999 668.256 452.871 678.84 460.651 690.231C524.836 784.447 556.707 847.11 599.461 856.214C639.89 864.839 638.655 827.315 656.454 789.874C671.56 758.091 672.906 728.893 699.091 712.519C700.806 711.439 702.684 710.595 704.553 709.525C738.991 689.706 738.85 643.983 754.511 562.756C757.795 545.717 762.068 530.721 765.608 517.661C781.232 459.804 770.37 422.975 814.173 436.483C856.631 449.583 847.501 447.443 900.115 482.186C921.743 496.456 935.117 489.296 963.264 521.355C1055.82 626.714 1068.06 651.324 1123.72 694.601" stroke="#3B95A3" stroke-width="0.64" stroke-miterlimit="10"/>
<path d="M12.4625 1047.17C12.4625 1047.17 10.0757 964.79 32.694 945.986C52.8186 929.249 69.9455 968.284 98.8912 954.248C127.229 940.498 140.676 922.877 153.038 870.145C154.031 865.916 155.285 861.619 156.525 857.174C175.305 789.139 183.646 812.064 198.789 707.082C213.864 602.521 214.794 566.606 276.349 537.071C287.965 531.508 299.552 529.214 311.282 530.471C359.054 535.559 404.963 578.703 450.805 639.485C458.188 649.261 466.036 659.75 473.761 671.03C537.326 763.941 569.145 826.112 611.927 835.032C652.282 843.474 651.383 806.266 669.159 768.831C684.153 737.204 685.6 708.005 711.497 691.302C713.183 690.205 715.054 689.337 716.894 688.249C751.111 667.78 750.836 621.738 766.607 541.317C769.944 524.289 774.39 509.375 778.109 496.419C794.459 439.308 783.943 403.223 827.889 417.376C870.538 431.109 861.533 429.543 914.261 463.371C936.405 477.582 949.55 469.066 978.008 501.246C1069.99 605.288 1082.64 630.096 1137.61 673.274" stroke="#3B95A3" stroke-width="0.64" stroke-miterlimit="10"/>
<path d="M27.0587 1026.59C27.0587 1026.59 24.3645 944.876 46.6275 925.583C66.2571 908.597 83.1767 946.548 111.621 932.239C139.593 918.154 152.829 900.209 165.591 848.232C166.614 844.021 167.934 839.783 169.216 835.403C188.905 768.04 198.036 792.149 213.624 688.871C229.133 586.068 230.298 549.888 291.184 520.605C302.706 515.066 314.198 512.796 325.828 514.055C373.369 519.229 419.012 561.835 464.458 621.785C471.787 631.449 479.604 641.82 487.281 653.011C550.198 744.6 581.987 806.273 624.785 815.062C665.038 823.303 664.528 786.424 682.25 748.978C697.134 717.506 698.704 688.3 724.29 671.274C725.945 670.159 727.817 669.29 729.62 668.162C763.641 647.036 763.202 600.658 779.082 521.042C782.473 504.026 787.092 489.193 790.972 476.372C808.054 420.03 797.902 384.66 841.991 399.457C884.807 413.829 875.974 412.825 928.8 445.768C951.453 459.897 964.394 450.018 993.15 482.373C1084.54 585.128 1097.62 610.103 1151.9 653.182" stroke="#3B95A3" stroke-width="0.64" stroke-miterlimit="10"/>
<path d="M42.0965 1007.42C42.0965 1007.42 39.0949 926.363 61.0088 906.606C80.1196 889.376 96.8793 926.231 124.846 911.642C152.436 897.253 165.448 878.936 178.615 827.739C179.698 823.562 181.06 819.389 182.379 815.05C202.952 748.366 212.915 773.623 228.93 672.078C244.873 571.033 246.272 534.59 306.461 505.539C317.865 500.031 329.262 497.786 340.821 499.064C388.102 504.305 433.508 546.392 478.577 605.48C485.875 615.026 493.637 625.284 501.29 636.381C563.564 726.671 595.301 787.852 638.15 796.451C678.33 804.509 678.155 767.947 695.853 730.507C710.626 699.19 712.298 669.983 737.595 652.628C739.244 651.489 741.086 650.604 742.859 649.458C776.659 627.681 776.087 580.984 792.1 502.168C795.544 485.164 800.312 470.417 804.396 457.695C822.21 402.123 812.403 367.496 856.636 382.939C899.642 397.944 890.952 397.484 943.898 429.536C967.084 443.576 979.78 432.371 1008.87 464.841C1099.69 566.279 1113.17 591.452 1166.77 634.407" stroke="#3B95A3" stroke-width="0.64" stroke-miterlimit="10"/>
<path d="M57.5962 989.815C57.5962 989.815 54.3047 909.394 75.8521 889.201C94.474 871.745 111.044 907.487 138.51 892.625C165.733 877.901 178.535 859.261 192.102 808.818C193.221 804.683 194.642 800.544 196.033 796.288C217.515 730.276 228.267 756.718 244.734 656.901C261.111 557.613 262.715 520.889 322.266 492.106C333.582 486.646 344.878 484.402 356.336 485.681C403.386 491.008 448.525 532.558 493.224 590.807C500.467 600.241 508.222 610.375 515.82 621.359C577.475 710.345 609.159 771.034 652.036 779.449C692.143 787.323 692.31 751.102 709.949 713.626C724.64 682.483 726.413 653.275 751.398 635.597C753.017 634.441 754.853 633.531 756.591 632.344C790.164 609.894 789.463 562.901 805.586 484.891C809.108 467.892 814.025 453.233 818.293 440.639C836.816 385.843 827.396 351.924 871.773 368.012C914.952 383.679 906.445 383.728 959.471 414.924C983.167 428.882 995.665 416.338 1025.04 448.936C1115.24 549.069 1129.18 574.427 1182.11 617.252" stroke="#3B95A3" stroke-width="0.64" stroke-miterlimit="10"/>
<path d="M73.5538 973.965C73.5538 973.965 69.961 894.23 91.1769 873.542C109.286 855.866 125.666 890.494 152.654 875.352C179.513 860.295 192.073 841.313 206.076 791.666C207.231 787.572 208.712 783.469 210.145 779.277C232.536 713.938 244.078 741.564 260.99 643.45C277.801 545.92 279.64 508.933 338.493 480.382C349.69 474.954 360.885 472.711 372.255 474.038C419.069 479.427 463.941 520.439 508.275 577.874C515.464 587.195 523.188 597.211 530.761 608.101C591.773 695.788 623.422 755.956 666.333 764.21C706.343 771.908 706.87 735.996 724.484 698.527C739.065 667.54 740.938 638.33 765.635 620.323C767.249 619.143 769.054 618.216 770.762 617.011C804.132 593.881 803.28 546.599 819.536 469.389C823.111 452.401 828.184 437.853 832.631 425.364C851.862 371.343 842.806 338.138 887.326 354.871C930.696 371.172 922.372 371.729 975.455 402.076C999.683 415.945 1011.93 402.051 1041.62 434.794C1131.23 533.64 1145.59 559.165 1197.84 601.891" stroke="#3B95A3" stroke-width="0.64" stroke-miterlimit="10"/>
<path d="M89.9061 960.11C89.9061 960.11 86.0058 881.037 106.867 859.861C124.487 841.958 140.677 875.473 167.14 860.064C193.633 844.672 205.982 825.366 220.361 776.481C221.546 772.404 223.099 768.383 224.568 764.232C247.869 699.566 260.194 728.352 277.563 631.99C294.809 536.217 296.875 498.943 355.067 470.667C366.17 465.263 377.27 463.045 388.539 464.373C435.099 469.853 479.728 510.323 523.691 566.919C530.849 576.122 538.518 586.025 546.067 596.82C606.436 683.209 638.056 742.879 681.001 750.972C720.938 758.487 721.8 722.892 739.391 685.43C753.86 654.597 755.835 625.387 780.244 607.05C781.827 605.853 783.626 604.902 785.304 603.68C818.448 579.876 817.492 532.293 833.833 455.894C837.462 438.917 842.707 424.451 847.334 412.067C867.273 358.822 858.605 326.325 903.268 343.703C946.805 360.642 938.711 361.695 991.833 391.223C1016.59 404.98 1028.6 389.783 1058.6 422.647C1147.6 520.213 1162.39 545.875 1213.96 588.502" stroke="#3B95A3" stroke-width="0.64" stroke-miterlimit="10"/>
<path d="M106.66 948.375C106.66 948.375 102.459 869.987 122.964 848.323C140.102 830.218 156.096 862.596 182.088 846.93C208.21 831.18 220.377 811.568 235.132 763.444C236.377 759.402 237.942 755.428 239.501 751.33C263.734 687.33 276.825 717.307 294.64 622.649C312.319 528.633 314.62 491.095 372.138 463.046C383.128 457.696 394.128 455.479 405.32 456.802C451.643 462.345 496.011 502.301 539.604 558.058C546.701 567.125 554.369 576.928 561.863 587.611C621.59 672.701 653.157 731.879 696.154 739.782C735.993 747.12 737.239 711.83 754.776 674.356C769.158 643.673 771.233 614.461 795.336 595.825C796.89 594.611 798.683 593.636 800.331 592.397C833.272 567.912 832.164 520.04 848.615 444.447C852.297 427.481 857.692 413.102 862.504 400.847C883.128 348.384 874.853 316.618 919.653 334.618C963.357 352.196 955.464 353.727 1008.65 382.43C1033.96 396.092 1045.72 379.545 1076.02 412.584C1164.4 508.869 1179.62 534.699 1230.53 577.22" stroke="#3B95A3" stroke-width="0.64" stroke-miterlimit="10"/>
<path d="M123.795 938.968C123.795 938.968 119.316 861.259 139.443 839.112C156.068 820.787 171.866 852.028 197.363 836.113C223.119 820.028 235.069 800.068 250.206 752.73C251.487 748.729 253.112 744.79 254.719 740.78C279.861 677.453 293.742 708.614 312.002 615.66C330.115 523.401 332.645 485.576 389.477 457.807C400.373 452.482 411.278 450.29 422.375 451.638C468.467 457.266 512.563 496.661 555.791 551.604C562.833 560.559 570.471 570.243 577.94 580.831C637.024 664.623 668.563 723.303 711.586 731.022C751.353 738.177 752.934 703.203 770.448 665.735C784.719 635.208 786.901 606.019 810.71 587.03C812.257 585.792 814.014 584.776 815.638 583.543C848.346 558.361 847.141 510.211 863.701 435.423C867.461 418.463 872.981 404.177 878.002 392.045C899.328 340.333 891.446 309.299 936.389 327.944C980.284 346.155 972.616 348.159 1025.84 376.066C1051.68 389.615 1063.2 371.766 1093.81 404.926C1181.56 499.936 1197.25 525.921 1247.47 568.343" stroke="#3B95A3" stroke-width="0.64" stroke-miterlimit="10"/>
<path d="M141.313 932.09C141.313 932.09 136.539 855.09 156.298 832.407C172.441 813.88 188.043 843.984 213.038 827.795C238.429 811.376 250.192 791.086 265.705 744.508C267.021 740.549 268.712 736.669 270.379 732.694C296.454 670.033 311.101 702.384 329.812 611.158C348.359 520.657 351.1 482.574 407.282 455.025C418.059 449.732 428.87 447.564 439.889 448.907C485.722 454.603 529.58 493.478 572.438 547.582C579.449 556.419 587.032 565.992 594.476 576.485C652.918 658.979 684.427 717.16 727.455 724.701C767.125 731.679 769.065 697.016 786.549 659.531C800.709 629.159 803.016 599.962 826.512 580.651C828.03 579.395 829.757 578.362 831.369 577.081C863.844 551.202 862.541 502.774 879.187 428.798C883 411.849 888.693 397.645 893.87 385.623C915.88 334.693 908.385 304.367 953.478 323.681C997.54 342.531 990.097 345.007 1043.36 372.095C1069.75 385.526 1081.01 366.38 1111.93 399.661C1199.04 493.396 1215.2 519.537 1264.76 561.829" stroke="#3B95A3" stroke-width="0.64" stroke-miterlimit="10"/>
<path d="M159.39 928.706C159.39 928.706 154.315 852.392 173.719 829.22C189.379 810.49 204.779 839.434 229.303 822.989C254.322 806.212 265.904 785.615 281.768 739.805C283.139 735.857 284.872 732.042 286.581 728.132C313.588 666.138 329.001 699.679 348.134 610.162C367.098 521.449 370.084 483.049 425.581 455.781C436.27 450.535 446.973 448.345 457.881 449.742C503.483 455.524 547.075 493.862 589.561 547.128C596.518 555.853 604.094 565.3 611.49 575.705C669.288 656.901 700.763 714.56 743.831 721.965C783.421 728.735 785.703 694.413 803.163 656.934C817.212 626.717 819.62 597.52 842.828 577.879C844.339 576.6 846.037 575.549 847.619 574.251C879.884 547.668 878.466 498.992 895.215 425.798C899.082 408.86 904.924 394.744 910.31 382.844C932.981 332.703 925.904 303.102 971.157 323.031C1015.39 342.52 1008.21 345.432 1061.47 371.737C1088.41 385.049 1099.4 364.606 1130.63 398.009C1217.11 490.47 1233.74 516.766 1282.61 558.958" stroke="#3B95A3" stroke-width="0.64" stroke-miterlimit="10"/>
<path d="M177.869 928.504C177.869 928.504 172.522 852.893 191.541 829.215C206.724 810.306 221.916 838.065 245.945 821.37C270.598 804.26 282.01 783.302 298.234 738.284C299.64 734.377 301.433 730.596 303.184 726.751C331.147 665.417 347.303 700.155 366.888 612.366C386.285 525.41 389.506 486.747 444.329 459.705C454.9 454.491 465.508 452.325 476.339 453.717C521.704 459.561 565.029 497.362 607.151 549.813C614.077 558.419 621.598 567.755 628.963 578.041C686.119 657.938 717.541 715.106 760.66 722.32C800.154 728.914 802.801 694.926 820.225 657.406C834.187 627.338 836.671 598.146 859.598 578.2C861.079 576.902 862.77 575.828 864.323 574.513C896.355 547.232 894.839 498.278 911.674 425.897C915.594 408.97 921.586 394.941 927.174 383.14C950.524 333.756 943.863 304.881 989.237 325.461C1033.66 345.583 1026.69 348.92 1079.99 374.483C1107.48 387.677 1118.18 365.92 1149.75 399.462C1235.57 490.677 1252.69 517.098 1300.87 559.168" stroke="#3B95A3" stroke-width="0.64" stroke-miterlimit="10"/>
<path d="M199.609 931.495C199.609 931.495 193.967 856.593 212.619 832.379C227.319 813.268 242.285 839.872 265.843 822.921C290.124 805.453 301.355 784.189 317.954 739.932C319.397 736.066 321.256 732.344 323.072 728.557C351.968 667.89 368.89 703.818 388.92 617.733C408.751 532.535 412.2 493.584 466.339 466.822C476.814 461.633 487.305 459.498 498.064 460.909C543.199 466.838 586.257 504.102 628.008 555.714C634.879 564.208 642.37 573.426 649.71 583.618C706.2 662.222 737.616 718.886 780.763 725.916C820.184 732.326 823.19 698.649 840.567 661.141C854.424 631.253 857.033 602.053 879.641 581.76C881.093 580.446 882.778 579.348 884.3 578.015C916.094 550.013 914.486 500.805 931.401 429.211C935.398 412.29 941.521 398.378 947.288 386.682C971.299 338.087 965.05 309.912 1010.59 331.132C1055.18 351.916 1048.49 355.636 1101.8 380.44C1129.85 393.485 1140.27 370.462 1172.16 404.149C1257.33 494.119 1274.93 520.666 1322.43 562.611" stroke="#3B95A3" stroke-width="0.64" stroke-miterlimit="10"/>
<path d="M222.085 936.24C222.085 936.24 216.178 862.065 234.438 837.321C248.662 818.031 263.42 843.451 286.465 826.28C310.375 808.454 321.448 786.877 338.382 743.417C339.884 739.586 341.779 735.906 343.638 732.184C373.49 672.177 391.155 709.301 411.636 624.944C431.901 541.503 435.561 502.295 489.049 475.754C499.412 470.619 509.826 468.479 520.484 469.891C565.358 475.888 608.18 512.633 649.56 563.406C656.371 571.764 663.836 580.887 671.128 590.991C726.975 668.297 758.363 724.462 801.537 731.308C840.861 737.542 844.227 704.175 861.574 666.65C875.319 636.917 878.029 607.716 900.349 587.094C901.795 585.756 903.45 584.64 904.943 583.29C936.497 554.566 934.798 505.104 951.822 434.317C955.873 417.407 962.145 403.582 968.121 392.009C992.787 344.177 986.961 316.752 1032.64 338.593C1077.4 360.016 1070.97 364.149 1124.28 388.216C1152.89 401.143 1163.04 376.824 1195.24 410.632C1279.75 499.333 1297.84 526.005 1344.66 567.875" stroke="#3B95A3" stroke-width="0.64" stroke-miterlimit="10"/>
<path d="M243.994 942.297C243.994 942.297 237.816 868.825 255.691 843.575C269.468 824.123 283.988 848.341 306.561 830.914C330.1 812.73 341.015 790.84 358.301 748.148C359.833 744.335 361.794 740.713 363.695 737.055C394.51 677.732 412.911 716.03 433.837 633.376C454.513 551.699 458.425 512.198 511.251 485.93C521.52 480.82 531.808 478.688 542.402 480.142C587.046 486.224 629.594 522.408 670.61 572.367C677.39 580.607 684.824 589.611 692.062 599.603C747.242 675.617 778.624 731.278 821.833 737.963C861.084 744.013 864.785 710.964 882.108 673.444C895.766 643.861 898.577 614.659 920.592 593.738C922.007 592.382 923.656 591.243 925.113 589.851C956.428 560.406 954.667 510.708 971.747 440.715C975.875 423.81 982.273 410.078 988.452 398.604C1013.77 351.537 1008.39 324.831 1054.21 347.317C1099.13 369.379 1092.98 373.894 1146.28 397.232C1175.46 410.011 1185.33 384.424 1217.86 418.348C1301.69 505.811 1320.27 532.608 1366.43 574.372" stroke="#3B95A3" stroke-width="0.64" stroke-miterlimit="10"/>
<path d="M265.346 949.51C265.346 949.51 258.902 876.765 276.38 850.961C289.681 831.331 303.992 854.364 326.07 836.688C349.237 818.145 360.019 795.937 377.61 754.024C379.201 750.246 381.204 746.689 383.165 743.067C414.936 684.404 434.079 723.897 455.457 642.972C476.573 563.076 480.713 523.287 532.842 497.253C542.992 492.173 553.21 490.06 563.679 491.521C608.093 497.689 650.374 533.336 691.019 582.456C697.744 590.584 705.148 599.47 712.36 609.366C766.899 684.082 798.228 739.252 841.464 745.752C880.618 751.626 884.679 718.887 901.955 681.38C915.502 651.951 918.42 622.772 940.14 601.498C941.549 600.119 943.168 598.962 944.595 597.553C975.665 567.363 973.819 517.434 991.008 448.247C995.195 431.377 1001.74 417.709 1008.1 406.363C1034.08 360.061 1029.11 334.08 1075.1 357.229C1120.22 379.924 1114.32 384.828 1167.61 407.46C1197.35 420.066 1206.93 393.243 1239.79 427.281C1322.97 513.523 1342.04 540.422 1387.52 582.057" stroke="#3B95A3" stroke-width="0.64" stroke-miterlimit="10"/>
<path d="M286.168 957.696C286.168 957.696 279.46 885.677 296.546 859.344C309.394 839.528 323.443 861.367 345.056 843.457C367.851 824.557 378.505 802.053 396.419 760.891C398.046 757.154 400.109 753.631 402.119 750.098C434.846 692.095 454.731 732.785 476.554 653.564C498.08 575.431 502.449 535.356 553.94 509.589C564.002 504.558 574.095 502.451 584.493 503.931C628.646 510.167 670.691 545.294 710.965 593.576C717.636 601.592 725.008 610.359 732.196 620.161C786.074 693.608 817.392 748.25 860.656 754.567C899.737 760.257 904.163 727.852 921.379 690.31C934.815 661.037 937.834 631.857 959.265 610.254C960.645 608.857 962.252 607.653 963.655 606.25C994.462 575.345 992.578 525.173 1009.82 456.78C1014.09 439.915 1020.75 426.341 1027.32 415.094C1053.93 369.562 1049.41 344.324 1095.54 368.094C1140.82 391.429 1135.2 396.715 1188.5 418.612C1218.81 431.069 1228.1 402.98 1261.27 437.139C1343.76 522.148 1363.36 549.161 1408.16 590.696" stroke="#3B95A3" stroke-width="0.64" stroke-miterlimit="10"/>
<path d="M306.512 966.665C306.512 966.665 299.568 895.39 316.233 868.509C328.635 848.532 342.446 869.168 363.564 851.009C385.987 831.751 396.507 808.928 414.75 768.54C416.437 764.837 418.542 761.38 420.587 757.888C454.301 700.563 474.875 742.438 497.167 664.914C519.127 588.539 523.73 548.2 574.523 522.666C584.467 517.666 594.489 515.578 604.786 517.059C648.709 523.38 690.481 557.947 730.39 605.414C737.03 613.311 744.348 621.967 751.505 631.65C804.74 703.799 836.029 757.943 879.321 764.075C918.311 769.612 923.09 737.494 940.283 699.958C953.631 670.835 956.751 641.654 977.871 619.727C979.244 618.306 980.797 617.092 982.194 615.665C1012.76 584.015 1010.81 533.606 1028.12 466.031C1032.44 449.178 1039.25 435.691 1046 424.573C1073.24 379.811 1069.18 355.286 1115.46 379.701C1160.91 403.698 1155.58 409.314 1208.86 430.534C1239.73 442.82 1248.72 413.493 1282.23 447.792C1364.04 531.562 1384.15 558.694 1428.27 600.106" stroke="#3B95A3" stroke-width="0.64" stroke-miterlimit="10"/>
<path d="M326.341 976.273C326.341 976.273 319.155 905.719 335.405 878.315C347.336 858.182 360.926 877.587 381.562 859.225C403.607 839.585 414 816.467 432.547 776.859C434.264 773.174 436.435 769.775 438.546 766.341C473.246 709.694 494.533 752.748 517.276 676.952C539.646 602.341 544.501 561.708 594.633 536.448C604.488 531.497 614.386 529.416 624.612 530.915C668.304 537.322 709.833 571.346 749.348 617.98C755.933 625.765 763.244 634.296 770.352 643.892C822.922 714.748 854.181 768.394 897.524 774.335C936.441 779.689 941.556 747.888 958.719 710.335C971.956 681.367 975.183 652.208 996.014 629.953C997.358 628.515 998.905 627.276 1000.27 625.808C1030.55 593.396 1028.58 542.792 1045.97 476.005C1050.36 459.157 1057.3 445.764 1064.27 434.767C1092.16 390.77 1088.52 366.97 1134.94 392.031C1180.58 416.661 1175.5 422.641 1228.77 443.156C1260.22 455.264 1268.92 424.7 1302.74 459.12C1383.85 541.681 1404.48 568.878 1447.92 610.191" stroke="#3B95A3" stroke-width="0.64" stroke-miterlimit="10"/>
<path d="M345.735 986.349C345.735 986.349 338.291 916.545 354.137 888.564C365.621 868.27 378.944 886.455 399.114 867.861C420.788 847.863 431.076 824.444 449.922 785.591C451.699 781.942 453.929 778.578 456.059 775.215C491.745 719.245 513.721 763.485 536.933 689.387C559.743 616.556 564.821 575.613 614.261 550.61C623.998 545.689 633.824 543.627 643.95 545.127C687.382 551.602 728.674 585.106 767.794 630.908C774.342 638.551 781.605 646.994 788.688 656.494C840.591 726.058 871.845 779.2 915.222 784.981C954.043 790.158 959.517 758.668 976.656 721.121C989.782 692.308 993.133 663.142 1013.65 640.563C1014.97 639.108 1016.51 637.846 1017.84 636.36C1047.86 603.209 1045.85 552.386 1063.29 486.394C1067.74 469.556 1074.81 456.257 1082 445.353C1110.49 402.109 1107.33 379.07 1153.91 404.746C1199.72 430.014 1194.92 436.324 1248.17 456.186C1280.19 468.122 1288.59 436.321 1322.75 470.856C1403.18 552.179 1424.32 579.495 1467.07 620.708" stroke="#3B95A3" stroke-width="0.64" stroke-miterlimit="10"/>
<path d="M364.67 996.697C364.67 996.697 356.99 927.637 372.416 899.108C383.477 878.647 396.531 895.613 416.212 876.793C437.509 856.413 447.693 832.692 466.826 794.649C468.639 791.041 470.936 787.736 473.108 784.438C509.779 729.146 532.468 774.565 556.131 702.194C579.352 631.127 584.687 589.914 633.46 565.161C643.102 560.265 652.81 558.234 662.835 559.735C706.036 566.296 747.056 599.239 785.812 644.226C792.305 651.757 799.536 660.081 806.589 669.463C857.826 737.735 889.075 790.372 932.479 795.97C971.203 800.97 977.06 769.784 994.145 732.225C1007.19 703.586 1010.62 674.425 1030.84 651.493C1032.15 650.014 1033.66 648.734 1034.99 647.225C1064.73 613.312 1062.69 562.269 1080.2 497.095C1084.72 480.263 1091.92 467.057 1099.29 456.282C1128.42 413.808 1125.72 391.482 1172.41 417.809C1218.4 443.74 1213.89 450.356 1267.13 469.536C1299.74 481.293 1307.82 448.262 1342.3 482.912C1422.02 563.032 1443.71 590.432 1485.81 631.539" stroke="#3B95A3" stroke-width="0.64" stroke-miterlimit="10"/>
<path d="M383.185 1007.18C383.185 1007.18 375.293 938.857 390.274 909.788C400.888 889.165 413.698 904.906 432.891 885.859C453.809 865.098 463.896 841.099 483.328 803.813C485.2 800.239 487.533 796.975 489.77 793.736C527.452 739.116 550.812 785.749 574.938 715.053C598.569 645.749 604.133 604.249 652.261 579.74C661.785 574.875 671.393 572.845 681.352 574.389C724.3 581.041 765.076 613.441 803.461 657.589C809.9 665.008 817.1 673.214 824.128 682.502C874.705 749.505 905.918 801.621 949.351 807.033C988.001 811.85 994.2 781.005 1011.26 743.429C1024.19 714.945 1027.74 685.777 1047.66 662.522C1048.93 661.025 1050.43 659.698 1051.71 658.202C1081.18 623.526 1079.14 572.282 1096.69 507.878C1101.27 491.057 1108.61 477.915 1116.19 467.263C1145.92 425.542 1143.69 403.976 1190.56 430.942C1236.71 457.512 1232.48 464.433 1285.72 482.984C1318.9 494.54 1326.66 460.302 1361.48 495.067C1440.5 573.978 1462.73 601.467 1504.13 642.451" stroke="#3B95A3" stroke-width="0.64" stroke-miterlimit="10"/>
<path d="M401.302 1017.59C401.302 1017.59 393.204 950.029 407.728 920.371C417.926 899.604 430.438 914.108 449.165 894.829C469.705 873.686 479.694 849.41 499.425 812.879C501.333 809.347 503.732 806.142 506.006 802.943C544.697 748.995 568.746 796.814 593.317 727.821C617.365 660.305 623.18 618.511 670.617 594.259C680.053 589.442 689.559 587.413 699.418 588.958C742.129 595.672 782.662 627.529 820.659 670.869C827.066 678.169 834.212 686.263 841.216 695.456C891.126 761.167 922.334 812.778 965.794 818.007C1004.35 822.647 1010.91 792.112 1027.93 754.519C1040.75 726.19 1044.41 697.021 1064.04 673.461C1065.29 671.946 1066.78 670.596 1068.05 669.075C1097.24 633.637 1095.18 582.197 1112.8 518.612C1117.45 501.796 1124.89 488.754 1132.68 478.224C1163.01 437.256 1161.26 416.427 1208.27 444.038C1254.59 471.247 1250.67 478.491 1303.85 496.372C1337.61 507.726 1345.06 472.281 1380.22 507.161C1458.52 584.87 1481.27 612.448 1522.01 653.326" stroke="#3B95A3" stroke-width="0.64" stroke-miterlimit="10"/>
<path d="M419.03 1027.77C419.03 1027.77 410.721 960.949 424.8 930.75C434.551 909.822 446.795 923.107 465.057 903.596C485.196 882.077 495.134 857.511 515.116 821.749C517.078 818.228 519.518 815.087 521.865 811.971C561.548 758.724 586.28 807.704 611.326 740.433C635.784 674.681 641.852 632.594 688.621 608.592C697.938 603.806 707.35 601.802 717.138 603.365C759.618 610.165 799.884 641.484 837.51 683.986C843.864 691.174 851.002 699.143 857.934 708.254C907.177 772.673 938.38 823.78 981.868 828.824C1020.35 833.281 1027.27 803.057 1044.24 765.476C1056.98 737.296 1060.74 708.15 1080.05 684.243C1081.29 682.705 1082.73 681.343 1083.99 679.775C1112.89 643.581 1110.84 591.933 1128.51 529.119C1133.23 512.338 1140.81 499.359 1148.81 488.951C1179.73 448.713 1178.49 428.661 1225.63 456.894C1272.14 484.736 1268.48 492.292 1321.65 509.521C1355.98 520.648 1363.12 484.02 1398.62 519.039C1476.2 595.569 1499.5 623.206 1539.56 663.961" stroke="#3B95A3" stroke-width="0.64" stroke-miterlimit="10"/>
<path d="M436.381 1037.57C436.381 1037.57 427.867 971.512 441.494 940.748C450.829 919.676 462.798 931.718 480.578 912.004C500.339 890.104 510.209 865.277 530.46 830.254C532.481 826.768 534.964 823.692 537.346 820.617C578.046 768.065 603.443 818.237 628.952 752.64C653.826 688.675 660.122 646.301 706.224 622.549C715.446 617.788 724.764 615.808 734.427 617.379C776.653 624.27 816.7 655.04 853.931 696.709C860.254 703.78 867.338 711.637 874.238 720.629C922.792 783.762 953.99 834.364 997.535 839.242C1035.92 843.546 1043.2 813.608 1060.15 776.034C1072.77 748.009 1076.64 718.862 1095.66 694.626C1096.87 693.071 1098.31 691.685 1099.53 690.1C1128.13 653.149 1126.09 601.3 1143.81 539.279C1148.6 522.504 1156.28 509.602 1164.51 499.31C1196.03 459.824 1195.26 440.509 1242.55 469.387C1289.23 497.892 1285.86 505.7 1339.03 522.323C1373.94 533.249 1380.77 495.438 1416.59 530.548C1493.46 605.875 1517.31 633.572 1556.68 674.251" stroke="#3B95A3" stroke-width="0.64" stroke-miterlimit="10"/>
<path d="M453.411 1046.83C453.411 1046.83 444.691 981.526 457.862 950.174C466.797 928.928 478.445 939.739 495.765 919.817C515.119 897.517 524.944 872.424 545.447 838.17C547.505 834.725 550.047 831.684 552.471 828.674C594.21 776.811 620.243 828.157 646.227 764.281C671.512 702.079 678.06 659.412 723.493 635.911C732.604 631.204 741.82 629.226 751.413 630.815C793.408 637.791 833.182 668.001 870.049 708.855C876.311 715.789 883.37 723.552 890.245 732.449C938.139 794.314 969.325 844.388 1012.9 849.082C1051.19 853.208 1058.83 823.606 1075.75 785.99C1088.27 758.144 1092.25 728.99 1110.96 704.431C1112.17 702.852 1113.57 701.449 1114.77 699.846C1143.06 662.115 1141.05 610.082 1158.8 548.862C1163.67 532.092 1171.47 519.283 1179.89 509.12C1212.01 470.364 1211.71 451.809 1259.17 481.326C1306.02 510.469 1302.93 518.559 1356.08 534.554C1391.55 545.231 1398.08 506.26 1434.24 541.485C1510.39 615.609 1534.79 643.389 1573.5 683.939" stroke="#3B95A3" stroke-width="0.64" stroke-miterlimit="10"/>
<path d="M470.113 1055.3C470.113 1055.3 461.211 990.76 473.907 958.849C482.426 937.46 493.776 947.034 510.631 926.879C529.607 904.198 539.364 878.845 560.135 845.329C562.253 841.919 564.838 838.943 567.322 835.968C610.077 784.8 636.768 837.314 663.198 775.142C688.899 714.728 695.693 671.743 740.465 648.516C749.48 643.834 758.602 641.88 768.094 643.471C809.852 650.509 849.366 680.205 885.862 720.221C892.093 727.037 899.097 734.687 905.948 743.49C953.152 804.068 984.333 853.639 1027.96 858.142C1066.18 862.085 1074.17 832.793 1091.04 795.19C1103.48 767.494 1107.54 738.344 1125.96 713.456C1127.14 711.859 1128.53 710.409 1129.71 708.812C1157.69 670.302 1155.7 618.084 1173.51 557.659C1178.44 540.9 1186.36 528.185 1195.01 518.137C1227.73 480.111 1227.91 462.34 1275.51 492.502C1322.53 522.285 1319.74 530.65 1372.86 546.046C1408.93 556.491 1415.11 516.372 1451.64 551.677C1527.05 624.629 1552.02 652.462 1590.05 692.912" stroke="#3B95A3" stroke-width="0.64" stroke-miterlimit="10"/>
<path d="M486.509 1062.9C486.509 1062.9 477.426 999.114 489.647 966.644C497.766 945.081 508.794 953.425 525.19 933.061C543.759 909.981 553.502 884.378 574.494 851.614C576.672 848.239 579.316 845.298 581.825 842.417C625.602 791.969 652.952 845.65 679.851 785.176C705.939 726.531 713.014 683.271 757.089 660.276C765.986 655.626 775.007 653.673 784.434 655.305C825.939 662.435 865.226 691.558 901.334 730.765C907.51 737.469 914.484 745.001 921.31 753.71C967.854 813.019 999.023 862.062 1042.68 866.381C1080.8 870.147 1089.15 841.165 1105.97 803.551C1118.29 776.01 1122.49 746.877 1140.59 721.642C1141.76 720.022 1143.1 718.56 1144.27 716.94C1171.93 677.656 1169.99 625.248 1187.83 565.623C1192.84 548.893 1200.88 536.224 1209.74 526.299C1243.02 489.008 1243.71 471.991 1291.47 502.792C1338.66 533.214 1336.17 541.855 1389.25 556.628C1425.89 566.824 1431.74 525.552 1468.63 560.966C1543.31 632.744 1568.85 660.631 1606.18 700.958" stroke="#3B95A3" stroke-width="0.64" stroke-miterlimit="10"/>
<path d="M502.621 1069.41C502.621 1069.41 493.379 1006.37 505.096 973.327C512.798 951.62 523.523 958.703 539.459 938.131C557.62 914.652 567.349 888.8 588.593 856.804C590.806 853.47 593.516 850.587 596.061 847.748C640.884 798.012 668.84 852.85 696.231 794.067C722.735 737.21 730.033 693.639 773.47 670.912C782.278 666.31 791.199 664.358 800.525 665.992C841.799 673.207 880.843 701.787 916.557 740.162C922.678 746.754 929.621 754.167 936.416 762.757C982.27 820.781 1013.44 869.343 1057.12 873.477C1095.15 877.067 1103.86 848.396 1120.65 810.787C1132.89 783.396 1137.16 754.268 1154.98 728.704C1156.12 727.066 1157.45 725.581 1158.58 723.92C1185.91 683.862 1184.03 631.287 1201.92 572.433C1207.01 555.708 1215.14 543.115 1224.22 533.336C1258.1 496.774 1259.29 480.535 1307.17 511.964C1354.53 543.048 1352.3 551.924 1405.38 566.116C1442.61 576.056 1448.14 533.655 1485.36 569.183C1559.33 639.783 1585.42 667.729 1622.07 707.956" stroke="#3B95A3" stroke-width="0.64" stroke-miterlimit="10"/>
<path d="M518.475 1074.65C518.475 1074.65 509.076 1012.36 520.294 978.761C527.603 956.903 538 962.732 553.478 941.951C571.26 918.09 580.944 891.972 602.434 860.721C604.701 857.398 607.453 854.581 610.064 851.8C655.933 802.777 684.518 858.765 712.378 801.68C739.268 746.593 746.842 702.722 789.587 680.252C798.278 675.68 807.103 673.753 816.334 675.412C857.354 682.719 896.156 710.755 931.499 748.292C937.589 754.765 944.478 762.066 951.248 770.562C996.418 827.323 1027.6 875.351 1071.31 879.301C1109.27 882.731 1118.34 854.371 1135.07 816.727C1147.2 789.492 1151.6 760.38 1169.1 734.493C1170.21 732.838 1171.54 731.329 1172.64 729.65C1199.64 688.818 1197.81 636.053 1215.74 578C1220.9 561.279 1229.14 548.786 1238.45 539.124C1272.89 503.274 1274.59 487.813 1322.64 519.881C1370.16 551.604 1368.22 560.731 1421.3 574.318C1459.13 584.003 1464.31 540.454 1501.88 576.092C1575.09 645.525 1601.75 673.524 1637.73 713.622" stroke="#3B95A3" stroke-width="0.64" stroke-miterlimit="10"/>
<path d="M534.066 1078.49C534.066 1078.49 524.508 1016.95 535.228 982.797C542.138 960.766 552.213 965.364 567.238 944.398C584.613 920.138 594.289 893.794 615.994 863.271C618.32 859.983 621.115 857.23 623.762 854.491C670.682 806.204 699.873 863.348 728.226 807.955C755.509 754.661 763.359 710.491 805.436 688.271C814.032 683.724 822.739 681.828 831.893 683.482C872.683 690.874 911.235 718.344 946.189 755.071C952.225 761.433 959.106 768.61 965.828 777.016C1010.31 832.491 1041.51 880.009 1085.24 883.775C1123.11 887.028 1132.54 858.979 1149.25 821.341C1161.27 794.285 1165.76 765.148 1182.98 738.932C1184.09 737.253 1185.37 735.703 1186.45 734.03C1213.12 692.401 1211.37 639.463 1229.33 582.21C1234.57 565.495 1242.93 553.072 1252.42 543.538C1287.43 508.4 1289.64 493.741 1337.85 526.424C1385.56 558.78 1383.9 568.165 1436.95 581.177C1475.36 590.582 1480.2 545.934 1518.13 581.657C1590.6 649.917 1617.82 677.946 1653.13 717.968" stroke="#3B95A3" stroke-width="0.64" stroke-miterlimit="10"/>
<path d="M549.444 1080.74C549.444 1080.74 539.728 1019.95 549.967 985.215C556.484 963.034 566.231 966.378 580.797 945.203C597.741 920.55 607.456 893.969 629.376 864.173C631.762 860.92 634.593 858.209 637.288 855.558C685.231 807.99 715.051 866.284 743.896 812.582C771.566 761.059 779.691 716.589 821.077 694.625C829.561 690.133 838.191 688.232 847.244 689.886C887.803 697.365 926.089 724.297 960.672 760.186C966.671 766.405 973.51 773.518 980.195 781.782C1023.99 835.995 1055.18 882.985 1098.97 886.561C1136.74 889.66 1146.52 861.898 1163.21 824.266C1175.14 797.359 1179.74 768.221 1196.64 741.682C1197.72 739.986 1198.98 738.418 1200.05 736.722C1226.36 694.325 1224.7 641.214 1242.68 584.738C1248 568.052 1256.45 555.682 1266.18 546.287C1301.78 511.855 1304.48 497.979 1352.83 531.308C1400.72 564.326 1399.3 573.923 1452.36 586.353C1491.35 595.48 1495.85 549.731 1534.13 585.539C1605.84 652.633 1633.66 680.708 1668.28 720.608" stroke="#3B95A3" stroke-width="0.64" stroke-miterlimit="10"/>
<path d="M564.638 1081.22C564.638 1081.22 554.793 1021.19 564.504 985.892C570.651 963.554 580.024 965.656 594.154 944.267C610.69 919.215 620.42 892.402 642.532 863.339C644.978 860.122 647.875 857.468 650.606 854.859C699.624 808.021 730.02 867.454 759.364 815.468C787.421 765.714 795.798 720.951 836.546 699.255C844.935 694.788 853.446 692.917 862.429 694.59C902.727 702.137 940.793 728.52 974.989 763.6C980.933 769.707 987.741 776.701 994.401 784.871C1037.51 837.798 1068.72 884.301 1112.54 887.692C1150.23 890.609 1160.38 863.157 1177.01 825.514C1188.83 798.762 1193.54 769.647 1210.15 742.779C1211.22 741.059 1212.45 739.474 1213.49 737.736C1239.44 694.548 1237.89 641.282 1255.87 585.589C1261.25 568.914 1269.81 556.614 1279.75 547.342C1315.92 513.622 1319.13 500.547 1367.64 534.491C1415.7 568.148 1414.57 577.973 1467.61 589.852C1507.18 598.699 1511.35 551.851 1549.98 587.744C1620.94 653.695 1649.34 681.794 1683.3 721.587" stroke="#3B95A3" stroke-width="0.64" stroke-miterlimit="10"/>
<path d="M579.626 1079.76C579.626 1079.76 569.647 1020.47 578.836 984.624C584.583 962.113 593.634 962.984 607.306 941.386C623.428 915.911 633.186 888.914 655.507 860.556C657.989 857.379 660.945 854.761 663.719 852.216C713.795 806.138 744.79 866.704 774.621 816.386C803.07 768.425 811.723 723.363 851.797 701.894C860.068 697.457 868.508 695.606 877.366 697.286C917.434 704.917 955.251 730.734 989.058 765.005C994.971 770.994 1001.72 777.876 1008.34 785.957C1050.74 837.628 1081.96 883.597 1125.83 886.798C1163.43 889.537 1173.94 862.42 1190.54 824.76C1202.27 798.157 1207.08 769.041 1223.39 741.85C1224.42 740.112 1225.65 738.503 1226.65 736.748C1252.25 692.769 1250.8 639.324 1268.81 584.408C1274.26 567.738 1282.95 555.507 1293.1 546.382C1329.83 513.35 1333.57 501.07 1382.21 535.689C1430.43 569.985 1429.6 580.039 1482.63 591.336C1522.79 599.88 1526.62 551.956 1565.61 587.958C1635.81 652.766 1664.8 680.888 1698.07 720.559" stroke="#3B95A3" stroke-width="0.64" stroke-miterlimit="10"/>
<path d="M594.474 1076.2C594.474 1076.2 584.384 1017.66 593.028 981.27C598.406 958.603 607.081 958.232 620.318 936.419C636.008 910.551 645.812 883.34 668.342 855.685C670.89 852.567 673.882 849.99 676.691 847.486C727.826 802.169 759.414 863.844 789.744 815.241C818.556 769.056 827.508 723.688 866.897 702.499C875.079 698.111 883.395 696.266 892.182 697.965C931.996 705.688 969.594 730.955 1002.98 764.401C1008.84 770.277 1015.56 777.041 1022.17 784.998C1063.88 835.406 1095.12 880.841 1139.01 883.858C1176.53 886.444 1187.39 859.613 1203.96 821.936C1215.58 795.488 1220.52 766.389 1236.51 738.851C1237.54 737.09 1238.73 735.44 1239.71 733.691C1264.95 688.921 1263.61 635.32 1281.62 581.187C1287.16 564.546 1295.93 552.368 1306.33 543.382C1343.61 511.038 1347.87 499.584 1396.67 534.818C1445.07 569.777 1444.48 580.017 1497.52 590.757C1538.26 598.999 1541.74 550.004 1581.1 586.085C1650.54 649.726 1680.12 677.896 1712.71 717.467" stroke="#3B95A3" stroke-width="0.64" stroke-miterlimit="10"/>
<path d="M609.155 1070.37C609.155 1070.37 598.937 1012.59 607.046 975.61C612.055 952.786 620.373 951.143 633.162 929.169C648.446 902.902 658.264 875.459 680.992 848.562C683.6 845.479 686.634 842.967 689.51 840.522C741.703 795.964 773.884 858.748 804.706 811.837C833.905 767.422 843.109 721.76 881.853 700.815C889.917 696.458 898.156 694.609 906.848 696.332C946.432 704.141 983.78 728.841 1016.78 761.478C1022.61 767.236 1029.28 773.887 1035.83 781.756C1076.84 830.908 1108.1 875.832 1152.01 878.641C1189.45 881.044 1200.67 854.524 1217.2 816.859C1228.71 790.591 1233.74 761.466 1249.44 733.599C1250.45 731.821 1251.6 730.153 1252.58 728.381C1277.44 682.826 1276.23 629.063 1294.27 575.707C1299.88 559.071 1308.76 546.969 1319.36 538.106C1357.22 506.444 1361.98 495.797 1410.92 531.676C1459.48 567.274 1459.15 577.726 1512.21 587.931C1553.52 595.87 1556.64 545.805 1596.38 581.966C1665.07 644.464 1695.24 672.657 1727.14 712.104" stroke="#3B95A3" stroke-width="0.64" stroke-miterlimit="10"/>
<path d="M623.727 1062.09C623.727 1062.09 613.398 1005.05 620.962 967.524C625.595 944.52 633.544 941.66 645.898 919.47C660.744 892.787 670.62 865.177 693.551 838.96C696.218 835.912 699.289 833.441 702.206 831.061C755.457 787.263 788.208 851.163 819.546 805.936C849.108 763.298 858.611 717.33 896.671 696.665C904.64 692.333 912.761 690.514 921.382 692.256C960.711 700.157 997.817 724.314 1030.45 756.112C1036.21 761.734 1042.86 768.291 1049.39 776.065C1089.69 823.961 1120.98 868.345 1164.93 870.993C1202.27 873.219 1213.86 847.033 1230.35 809.327C1241.78 783.208 1246.91 754.106 1262.3 725.916C1263.27 724.12 1264.42 722.429 1265.37 720.615C1289.84 674.275 1288.76 620.327 1306.81 567.778C1312.51 551.171 1321.49 539.115 1332.31 530.398C1370.74 499.424 1376.01 489.603 1425.11 526.097C1473.84 562.334 1473.8 573.014 1526.83 582.644C1568.71 590.257 1571.52 539.163 1611.6 575.385C1679.51 636.746 1710.28 664.933 1741.51 704.305" stroke="#3B95A3" stroke-width="0.64" stroke-miterlimit="10"/>
<path d="M638.194 1051.18C638.194 1051.18 627.754 994.874 634.773 956.811C639.036 933.651 646.61 929.549 658.529 907.144C672.943 880.068 682.87 852.268 705.981 826.737C708.708 823.724 711.844 821.312 714.774 818.979C769.09 775.965 802.404 840.956 834.264 797.439C864.189 756.576 873.992 710.302 911.384 689.888C919.241 685.61 927.26 683.793 935.804 685.53C974.904 693.516 1011.76 717.106 1044 748.095C1049.74 753.599 1056.33 760.044 1062.83 767.699C1102.41 814.315 1133.73 858.213 1177.72 860.647C1214.97 862.72 1226.94 836.815 1243.36 799.127C1254.68 773.164 1259.91 744.061 1275.01 715.541C1275.98 713.722 1277.09 711.989 1278.01 710.182C1302.1 663.057 1301.16 608.947 1319.21 557.181C1325.01 540.573 1334.07 528.6 1345.12 520.022C1384.11 489.737 1389.89 480.717 1439.14 517.856C1488.04 554.756 1488.24 565.599 1541.32 574.713C1583.79 581.993 1586.23 529.858 1626.7 566.153C1693.86 626.372 1725.2 654.588 1755.78 693.824" stroke="#3B95A3" stroke-width="0.64" stroke-miterlimit="10"/>
<path d="M654.505 1036.2C654.505 1036.2 643.978 980.623 650.421 942.003C654.308 918.663 661.507 913.318 672.997 890.723C686.974 863.23 696.976 835.233 720.272 810.412C723.059 807.434 726.237 805.087 729.227 802.789C784.607 760.559 818.485 826.641 850.861 784.809C881.125 745.729 891.233 699.173 927.957 679.01C935.72 674.757 943.645 672.964 952.071 674.731C990.916 682.809 1027.55 705.85 1059.4 736.007C1065.08 741.399 1071.64 747.725 1078.11 755.286C1117 800.669 1148.34 844.003 1192.37 846.253C1229.54 848.143 1241.84 822.554 1258.23 784.849C1269.46 759.035 1274.81 729.955 1289.59 701.089C1290.53 699.251 1291.61 697.502 1292.52 695.67C1316.21 647.766 1315.43 593.489 1333.5 542.5C1339.38 525.921 1348.53 514 1359.8 505.544C1399.33 475.923 1405.64 467.729 1455.05 505.507C1504.12 543.046 1504.58 554.1 1557.66 562.656C1600.71 569.609 1602.8 516.452 1643.65 552.827C1710.04 611.932 1741.98 640.142 1771.88 679.278" stroke="#3B95A3" stroke-width="0.64" stroke-miterlimit="10"/>
<path d="M672.3 1019.06C672.3 1019.06 661.685 964.214 667.559 925.061C671.094 901.535 677.901 894.978 688.955 872.168C702.477 844.288 712.561 816.119 736.053 791.954C738.906 789.035 742.115 786.704 745.152 784.495C801.597 743.048 836.008 810.205 868.937 770.1C899.558 732.772 909.971 685.934 946.027 666.021C953.672 661.799 961.502 660.031 969.85 661.793C1008.46 669.956 1044.85 692.43 1076.31 721.778C1081.96 727.052 1088.46 733.266 1094.92 740.732C1133.09 784.859 1164.45 827.659 1208.52 829.719C1245.61 831.455 1258.27 806.177 1274.63 768.455C1285.76 742.82 1291.22 713.708 1305.69 684.543C1306.62 682.682 1307.68 680.915 1308.56 679.066C1331.87 630.377 1331.22 575.962 1349.3 525.733C1355.25 509.158 1364.51 497.283 1376 488.998C1416.11 460.035 1422.92 452.695 1472.47 491.119C1521.71 529.297 1522.42 540.538 1575.52 548.583C1619.14 555.187 1620.86 501.037 1662.11 537.46C1727.72 595.429 1760.28 623.656 1789.48 662.669" stroke="#3B95A3" stroke-width="0.64" stroke-miterlimit="10"/>
<path d="M690.352 1001.07C690.352 1001.07 679.651 946.955 684.955 907.267C688.115 883.562 694.523 875.769 705.172 852.761C718.256 824.465 728.421 796.123 752.069 772.651C754.981 769.766 758.232 767.501 761.33 765.326C818.838 724.664 853.807 792.888 887.258 754.492C918.218 718.946 928.955 671.797 964.349 652.157C971.875 647.966 979.635 646.216 987.888 648.004C1026.25 656.259 1062.41 678.159 1093.48 706.699C1099.07 711.837 1105.55 717.956 1111.97 725.304C1149.44 768.175 1180.84 810.458 1224.93 812.31C1261.95 813.863 1274.97 788.896 1291.28 751.186C1302.32 725.7 1307.86 696.617 1322.04 667.099C1322.94 665.221 1323.99 663.43 1324.85 661.564C1347.74 612.096 1347.28 557.507 1365.36 508.06C1371.4 491.515 1380.75 479.692 1392.45 471.529C1433.11 443.231 1440.46 436.71 1490.16 475.779C1539.57 514.619 1540.53 526.024 1593.63 533.535C1637.84 539.782 1639.21 484.64 1680.82 521.119C1745.66 577.974 1778.82 606.195 1807.34 645.108" stroke="#3B95A3" stroke-width="0.64" stroke-miterlimit="10"/>
<path d="M708.522 982.365C708.522 982.365 697.733 928.982 702.462 888.737C705.27 864.845 711.285 855.841 721.499 832.618C734.128 803.935 744.374 775.42 768.219 752.604C771.191 749.755 774.484 747.554 777.618 745.421C836.197 705.565 871.699 774.864 905.696 738.171C936.989 704.384 948.055 656.946 982.758 637.563C990.196 633.42 997.831 631.678 1006.01 633.46C1044.14 641.8 1080.07 663.128 1110.73 690.865C1116.29 695.884 1122.72 701.915 1129.11 709.145C1165.85 750.766 1197.31 792.526 1241.44 794.194C1278.36 795.594 1291.73 770.913 1308.01 733.186C1318.94 707.855 1324.61 678.766 1338.48 648.924C1339.35 647.029 1340.37 645.22 1341.22 643.33C1363.69 593.09 1363.41 538.327 1381.48 489.663C1387.63 473.14 1397.04 461.353 1408.98 453.353C1450.22 425.69 1458.07 420.048 1507.93 459.732C1557.51 499.211 1558.7 510.809 1611.85 517.804C1656.62 523.701 1657.63 467.565 1699.63 504.093C1763.69 559.812 1797.46 588.05 1825.3 626.84" stroke="#3B95A3" stroke-width="0.64" stroke-miterlimit="10"/>
<path d="M726.746 963.192C726.746 963.192 715.87 910.54 720.03 869.761C722.485 845.683 728.085 835.473 737.892 812.053C750.06 782.959 760.418 754.289 784.419 732.166C787.456 729.375 790.785 727.215 793.955 725.123C853.605 686.075 889.628 756.401 924.177 721.434C955.804 689.405 967.175 641.685 1001.24 622.57C1008.56 618.458 1016.12 616.735 1024.2 618.518C1062.07 626.95 1097.79 647.704 1128.06 674.633C1133.58 679.534 1139.96 685.453 1146.32 692.588C1182.35 732.952 1213.83 774.178 1257.98 775.662C1294.81 776.885 1308.57 752.533 1324.8 714.794C1335.61 689.619 1341.39 660.552 1354.97 630.358C1355.83 628.438 1356.81 626.589 1357.63 624.681C1379.69 573.662 1379.6 518.725 1397.65 470.827C1403.87 454.309 1413.4 442.592 1425.53 434.744C1467.35 407.739 1475.7 402.928 1525.7 443.258C1575.44 483.376 1576.87 495.138 1630.07 501.616C1675.4 507.139 1676.05 450.034 1718.45 486.611C1781.71 541.223 1816.11 569.425 1843.29 608.133" stroke="#3B95A3" stroke-width="0.64" stroke-miterlimit="10"/>
<path d="M744.871 943.641C744.871 943.641 733.932 891.714 737.498 850.407C739.579 826.149 744.779 814.703 754.181 791.085C765.888 761.582 776.339 732.785 800.53 711.295C803.628 708.539 807.017 706.415 810.235 704.411C870.961 666.194 907.505 737.547 942.577 704.289C974.531 673.995 986.237 626.01 1019.61 607.152C1026.84 603.064 1034.28 601.372 1042.26 603.18C1079.91 611.697 1115.37 631.908 1145.25 658.004C1150.72 662.794 1157.04 668.6 1163.41 675.634C1198.71 714.773 1230.25 755.452 1274.42 756.728C1311.16 757.798 1325.27 733.732 1341.47 695.976C1352.2 670.95 1358.08 641.882 1371.35 611.389C1372.18 609.452 1373.16 607.578 1373.95 605.654C1395.6 553.832 1395.7 498.768 1413.74 451.63C1420.05 435.141 1429.66 423.452 1442.03 415.744C1484.39 389.38 1493.2 385.537 1543.41 426.392C1593.26 467.269 1594.98 479.105 1648.22 485.066C1694.13 490.21 1694.41 432.142 1737.2 468.768C1799.69 522.266 1834.69 550.462 1861.18 589.047" stroke="#3B95A3" stroke-width="0.64" stroke-miterlimit="10"/>
<path d="M762.781 923.944C762.781 923.944 751.772 872.717 754.746 830.883C756.474 806.439 761.258 793.787 770.248 769.948C781.5 740.058 792.062 711.106 816.397 690.261C819.56 687.564 822.985 685.48 826.239 683.518C888.042 646.132 925.101 718.488 960.732 686.98C993.018 658.444 1005.06 610.195 1037.77 591.587C1044.88 587.554 1052.22 585.863 1060.13 587.666C1097.52 596.275 1132.78 615.907 1162.24 641.177C1167.68 645.847 1173.95 651.542 1180.26 658.464C1214.83 696.352 1246.41 736.491 1290.63 737.577C1327.3 738.487 1341.77 714.709 1357.92 676.965C1368.54 652.118 1374.55 623.042 1387.5 592.203C1388.32 590.242 1389.25 588.357 1390.03 586.409C1411.25 533.815 1411.56 478.594 1429.58 432.222C1435.99 415.755 1445.69 404.095 1458.28 396.557C1501.21 370.828 1510.52 367.84 1560.91 409.358C1610.94 450.867 1612.87 462.879 1666.14 468.323C1712.61 473.069 1712.54 414.08 1755.72 450.755C1817.42 503.147 1853.03 531.336 1878.86 569.815" stroke="#3B95A3" stroke-width="0.64" stroke-miterlimit="10"/>
<path d="M780.388 904.25C780.388 904.25 769.316 853.748 771.696 811.386C773.073 786.756 777.464 772.892 786.019 748.838C796.81 718.537 807.465 689.46 831.991 669.248C835.214 666.585 838.681 664.567 841.971 662.645C904.827 626.097 942.425 699.449 978.608 669.668C1011.2 642.874 1023.57 594.36 1055.64 575.996C1062.65 571.988 1069.9 570.321 1077.71 572.148C1114.88 580.867 1149.89 599.908 1178.96 624.37C1184.34 628.904 1190.58 634.504 1196.87 641.331C1230.72 677.993 1262.35 717.586 1306.6 718.487C1343.17 719.221 1358.01 695.777 1374.12 657.992C1384.66 633.294 1390.76 604.218 1403.4 573.055C1404.2 571.076 1405.11 569.145 1405.87 567.202C1426.66 513.835 1427.15 458.441 1445.19 412.845C1451.69 396.408 1461.47 384.776 1474.28 377.385C1517.78 352.29 1527.59 350.157 1578.15 392.314C1628.35 434.462 1630.49 446.643 1683.81 451.571C1730.84 455.944 1730.42 396.008 1773.99 432.71C1834.9 484.018 1871.13 512.17 1896.27 550.527" stroke="#3B95A3" stroke-width="0.64" stroke-miterlimit="10"/>
<path d="M797.565 884.744C797.565 884.744 786.423 834.943 788.216 792.077C789.264 767.255 793.192 752.197 801.359 727.916C811.671 697.235 822.438 668.002 847.154 648.422C850.443 645.819 853.946 643.841 857.296 641.955C921.229 606.237 959.311 680.575 996.083 652.562C1028.99 627.479 1041.71 578.7 1073.09 560.64C1079.99 556.663 1087.14 555.021 1094.88 556.843C1131.79 565.654 1166.57 584.122 1195.26 607.798C1200.61 612.215 1206.8 617.702 1213.06 624.435C1246.15 659.853 1277.84 698.899 1322.15 699.61C1358.63 700.19 1373.84 677.027 1389.91 639.254C1400.33 614.712 1406.54 585.658 1418.89 554.142C1419.68 552.141 1420.54 550.197 1421.28 548.208C1441.62 494.074 1442.37 438.511 1460.36 393.687C1466.96 377.249 1476.81 365.7 1489.86 358.448C1533.93 333.988 1544.25 332.733 1594.94 375.511C1645.31 418.299 1647.67 430.626 1701.06 435.079C1748.67 439.047 1747.86 378.179 1791.84 414.923C1851.96 465.124 1888.82 493.265 1913.27 531.521" stroke="#3B95A3" stroke-width="0.64" stroke-miterlimit="10"/>
<path d="M814.199 865.582C814.199 865.582 803.017 816.5 804.188 773.089C804.878 748.056 808.39 731.793 816.157 707.338C826.008 676.246 836.898 646.906 861.751 627.948C865.106 625.402 868.639 623.443 872.037 621.645C937.023 586.764 975.638 662.076 1012.97 635.812C1046.18 612.447 1059.24 563.451 1089.97 545.611C1096.77 541.659 1103.81 540.048 1111.47 541.889C1148.13 550.791 1182.71 568.679 1210.99 591.553C1216.31 595.852 1222.42 601.257 1228.67 607.841C1261.04 642.033 1292.79 680.533 1337.11 681.036C1373.52 681.433 1389.07 658.586 1405.11 620.82C1415.46 596.451 1421.76 567.372 1433.8 535.557C1434.56 533.537 1435.41 531.571 1436.13 529.564C1456.04 474.657 1457 418.938 1474.97 374.88C1481.65 358.47 1491.61 346.943 1504.88 339.861C1549.53 316.006 1560.36 315.63 1611.19 359.053C1661.73 402.48 1664.31 414.977 1717.75 418.913C1765.9 422.46 1764.74 360.723 1809.12 397.464C1868.45 446.581 1905.93 474.685 1929.7 512.819" stroke="#3B95A3" stroke-width="0.64" stroke-miterlimit="10"/>
<path d="M830.168 846.974C830.168 846.974 818.917 798.592 819.501 754.677C819.832 729.435 822.934 711.989 830.29 687.313C839.662 655.841 850.669 626.368 875.707 608.019C879.128 605.533 882.697 603.614 886.131 601.857C952.176 567.838 991.288 644.082 1029.21 619.61C1062.74 597.955 1076.14 548.695 1106.19 531.159C1112.88 527.238 1119.84 525.621 1127.38 527.493C1163.81 536.481 1198.13 553.779 1226 575.85C1231.26 580.012 1237.35 585.323 1243.57 591.813C1275.19 624.784 1307 662.738 1351.35 663.033C1387.66 663.276 1403.59 640.735 1419.55 602.939C1429.78 578.725 1436.22 549.663 1447.94 517.501C1448.67 515.465 1449.52 513.474 1450.23 511.444C1469.68 455.747 1470.88 399.888 1488.85 356.59C1495.64 340.202 1505.65 328.711 1519.14 321.775C1564.37 298.554 1575.69 299.033 1626.67 343.102C1677.37 387.167 1680.15 399.816 1733.66 403.277C1782.37 406.427 1780.84 343.775 1825.63 380.534C1884.17 428.545 1922.27 456.612 1945.38 494.664" stroke="#3B95A3" stroke-width="0.64" stroke-miterlimit="10"/>
<path d="M845.35 829.026C845.35 829.026 834.052 781.339 834.026 736.926C834.006 711.498 836.691 692.846 843.635 667.949C852.523 636.073 863.636 606.522 888.858 588.782C892.338 586.33 895.95 584.477 899.444 582.755C966.548 549.596 1006.18 626.766 1044.67 604.068C1078.49 584.107 1092.26 534.647 1121.64 517.338C1128.24 513.465 1135.07 511.856 1142.55 513.746C1178.73 522.849 1212.84 539.544 1240.3 560.813C1245.52 564.857 1251.56 570.055 1257.76 576.451C1288.63 608.202 1320.52 645.603 1364.89 645.69C1401.12 645.78 1417.4 623.525 1433.34 585.736C1443.48 561.672 1450.02 532.608 1461.43 500.124C1462.15 498.063 1462.94 496.038 1463.62 494.013C1482.62 437.55 1484.06 381.529 1502 338.996C1508.89 322.631 1518.99 311.168 1532.7 304.402C1578.52 281.786 1590.33 283.174 1641.47 327.858C1692.34 372.562 1695.31 385.387 1748.89 388.325C1798.17 391.048 1796.24 327.539 1841.49 364.306C1899.24 411.233 1937.96 439.265 1960.39 477.193" stroke="#3B95A3" stroke-width="0.64" stroke-miterlimit="10"/>
<path d="M859.627 811.972C859.627 811.972 848.284 764.979 847.647 720.069C847.292 694.425 849.52 674.603 856.076 649.479C864.485 617.222 875.715 587.539 901.122 570.408C904.668 568.016 908.339 566.197 911.845 564.522C980.009 532.224 1020.15 610.296 1059.21 589.396C1093.35 571.122 1107.44 521.428 1136.16 504.416C1142.64 500.574 1149.41 498.983 1156.78 500.875C1192.73 510.063 1226.62 526.185 1253.66 546.652C1258.86 550.578 1264.82 555.694 1271.01 561.964C1301.13 592.496 1333.08 629.326 1377.51 629.247C1413.64 629.16 1430.39 607.262 1446.19 569.409C1456.28 545.535 1462.92 516.471 1473.98 483.622C1474.67 481.544 1475.45 479.495 1476.11 477.453C1494.65 420.223 1496.33 364.039 1514.26 322.266C1521.27 305.947 1531.45 294.489 1545.35 287.899C1591.75 265.888 1604.08 268.154 1655.34 313.513C1706.41 358.874 1709.54 371.834 1763.22 374.29C1813.04 376.568 1810.74 312.197 1856.42 348.977C1913.38 394.821 1952.72 422.816 1974.47 460.645" stroke="#3B95A3" stroke-width="0.64" stroke-miterlimit="10"/>
<path d="M872.937 795.954C872.937 795.954 861.547 749.656 860.294 704.224C859.581 678.37 861.399 657.366 867.543 632.021C875.467 599.36 886.827 569.593 912.412 553.048C916.001 550.72 919.708 548.942 923.28 547.326C992.479 515.895 1033.16 594.863 1072.8 575.784C1107.25 559.198 1121.69 509.286 1149.74 492.525C1156.13 488.708 1162.77 487.148 1170.07 489.058C1205.77 498.338 1239.46 513.881 1266.09 533.545C1271.22 537.335 1277.16 542.356 1283.32 548.508C1312.7 577.843 1344.73 614.097 1389.17 613.81C1425.24 613.564 1442.32 591.959 1458.09 554.112C1468.07 530.394 1474.84 501.346 1485.59 468.174C1486.28 466.072 1487.01 464.012 1487.67 461.916C1505.76 403.921 1507.71 347.591 1525.58 306.566C1532.67 290.276 1542.94 278.847 1557.08 272.396C1604.07 251.014 1616.87 254.142 1668.31 300.139C1719.54 346.139 1722.86 359.251 1776.62 361.208C1826.99 363.065 1824.31 297.856 1870.41 334.601C1926.56 379.392 1966.55 407.321 1987.6 445.027" stroke="#3B95A3" stroke-width="0.64" stroke-miterlimit="10"/>
<path d="M885.102 781.171C885.102 781.171 873.66 735.544 871.803 689.638C870.755 663.568 872.116 641.394 877.872 615.822C885.318 582.78 896.777 552.911 922.54 536.951C926.195 534.682 929.961 532.939 933.57 531.364C1003.83 500.818 1045.02 580.665 1085.23 563.383C1119.99 548.461 1134.78 498.355 1162.15 481.874C1168.42 478.088 1174.97 476.553 1182.17 478.464C1217.61 487.836 1251.09 502.776 1277.32 521.661C1282.42 525.332 1288.29 530.272 1294.44 536.299C1323.07 564.414 1355.16 600.122 1399.65 599.62C1435.62 599.221 1453.06 577.903 1468.8 540.039C1478.69 516.469 1485.56 487.42 1496 453.925C1496.66 451.806 1497.38 449.722 1498.02 447.609C1515.63 388.853 1517.83 332.355 1535.67 292.072C1542.87 275.804 1553.22 264.404 1567.56 258.13C1615.14 237.329 1628.43 241.364 1680 288.007C1731.4 334.646 1734.91 347.887 1788.75 349.392C1839.66 350.804 1836.61 284.756 1883.14 321.491C1938.5 365.199 1979.09 393.098 1999.48 430.698" stroke="#3B95A3" stroke-width="0.64" stroke-miterlimit="10"/>
<path d="M896.031 767.748C896.031 767.748 884.543 722.816 882.075 676.411C880.669 650.132 881.596 626.782 886.971 601.006C893.913 567.59 905.503 537.636 931.462 522.232C935.182 520.021 938.985 518.32 942.629 516.786C1013.93 487.107 1055.67 567.796 1096.44 552.389C1131.53 539.125 1146.63 488.838 1173.36 472.601C1179.54 468.863 1185.99 467.329 1193.09 469.265C1228.28 478.752 1261.53 493.095 1287.37 511.172C1292.44 514.725 1298.23 519.558 1304.38 525.485C1332.25 552.41 1364.43 587.535 1408.95 586.825C1444.83 586.273 1462.62 565.242 1478.33 527.384C1488.12 503.97 1495.09 474.92 1505.24 441.096C1505.89 438.953 1506.58 436.851 1507.19 434.721C1524.35 375.198 1526.82 318.555 1544.62 279.013C1551.93 262.769 1562.35 251.374 1576.91 245.269C1625.08 225.073 1638.88 230.011 1690.6 277.275C1742.16 324.553 1745.84 337.952 1799.78 338.952C1851.22 339.919 1847.79 273.063 1894.77 309.757C1949.32 352.412 1990.55 380.244 2010.27 417.715" stroke="#3B95A3" stroke-width="0.64" stroke-miterlimit="10"/>
<path d="M905.629 755.911C905.629 755.911 894.119 711.667 891.011 664.747C889.27 638.252 889.74 613.732 894.726 587.729C901.185 553.908 912.856 523.883 939.017 509.058C942.803 506.906 946.636 505.222 950.322 503.753C1022.66 474.965 1064.95 556.496 1106.28 542.917C1141.67 531.293 1157.13 480.836 1183.19 464.873C1189.25 461.166 1195.61 459.657 1202.64 461.588C1237.6 471.16 1270.64 484.9 1296.05 502.204C1301.06 505.622 1306.83 510.384 1312.94 516.169C1340.07 541.897 1372.31 576.452 1416.85 575.558C1452.66 574.846 1470.81 554.126 1486.47 516.233C1496.17 492.968 1503.24 463.94 1513.08 429.793C1513.7 427.633 1514.36 425.49 1514.96 423.36C1531.65 363.077 1534.37 306.265 1552.15 267.489C1559.57 251.291 1570.05 239.907 1584.85 233.965C1633.61 214.374 1647.9 220.197 1699.76 268.107C1751.51 316.017 1755.35 329.551 1809.39 330.093C1861.38 330.592 1857.56 262.95 1904.99 299.628C1958.75 341.199 2000.6 368.972 2019.64 406.367" stroke="#3B95A3" stroke-width="0.64" stroke-miterlimit="10"/>
<path d="M913.733 745.804C913.733 745.804 902.171 702.231 898.458 654.838C896.359 628.132 896.425 602.454 900.994 576.206C906.95 542.011 918.751 511.901 945.107 497.632C948.959 495.539 952.828 493.896 956.58 492.485C1029.96 464.588 1072.8 546.939 1114.69 535.234C1150.43 525.237 1166.18 474.629 1191.57 458.917C1197.52 455.24 1203.78 453.756 1210.73 455.682C1245.44 465.37 1278.27 478.483 1303.27 495.008C1308.25 498.307 1313.94 502.963 1320.03 508.654C1346.39 533.191 1378.73 567.164 1423.29 566.062C1459.01 565.173 1477.52 544.764 1493.15 506.877C1502.74 483.768 1509.92 454.739 1519.46 420.263C1520.06 418.085 1520.71 415.919 1521.28 413.747C1537.49 352.728 1540.5 295.74 1558.24 257.706C1565.8 241.524 1576.33 230.176 1591.33 224.41C1640.7 205.417 1655.45 212.131 1707.47 260.68C1759.4 309.23 1763.4 322.922 1817.54 322.958C1870.06 322.989 1865.86 254.562 1913.73 291.2C1966.69 331.717 2009.17 359.424 2027.53 396.695" stroke="#3B95A3" stroke-width="0.64" stroke-miterlimit="10"/>
<path d="M920.285 737.595C920.285 737.595 908.694 694.687 904.353 646.825C901.914 619.88 901.528 593.056 905.709 566.581C911.162 532.011 923.076 501.847 949.622 488.11C953.546 486.098 957.444 484.473 961.233 483.104C1035.66 456.097 1079.06 539.26 1121.48 529.413C1157.57 521.044 1173.6 470.237 1198.37 454.84C1204.22 451.188 1210.37 449.759 1217.24 451.679C1251.69 461.512 1284.32 473.969 1308.91 489.715C1313.86 492.873 1319.49 497.47 1325.57 503.036C1351.16 526.383 1383.56 559.833 1428.18 558.464C1463.82 557.469 1482.69 537.293 1498.28 499.418C1507.76 476.488 1515.06 447.429 1524.3 412.629C1524.88 410.428 1525.48 408.25 1526.04 406.055C1541.78 344.275 1545.08 287.136 1562.76 249.851C1570.43 233.715 1581.04 222.372 1596.26 216.752C1646.21 198.34 1661.45 205.963 1713.62 255.18C1765.71 304.369 1769.88 318.196 1824.13 317.774C1877.18 317.36 1872.58 248.155 1920.91 284.722C1973.07 324.186 2016.19 351.827 2033.87 388.999" stroke="#3B95A3" stroke-width="0.64" stroke-miterlimit="10"/>
<path d="M925.126 731.451C925.126 731.451 913.506 689.207 908.555 640.848C905.781 613.687 904.938 585.693 908.731 558.99C913.706 524.04 925.702 493.804 952.467 480.616C956.457 478.663 960.391 477.079 964.24 475.745C1039.71 449.652 1083.66 533.581 1126.63 525.614C1163.07 518.85 1179.41 467.909 1203.49 452.768C1209.22 449.148 1215.3 447.737 1222.05 449.664C1256.24 459.589 1288.67 471.443 1312.85 486.41C1317.77 489.449 1323.32 493.965 1329.39 499.382C1354.2 521.569 1386.71 554.383 1431.37 552.853C1466.92 551.705 1486.14 531.816 1501.7 493.924C1511.09 471.143 1518.47 442.112 1527.41 406.96C1527.97 404.741 1528.56 402.54 1529.09 400.327C1544.35 337.787 1547.92 280.503 1565.57 243.959C1573.35 227.846 1584.03 216.508 1599.48 211.082C1650.04 193.269 1665.77 201.799 1718.08 251.638C1770.34 301.49 1774.64 315.434 1829.01 314.525C1882.6 313.618 1877.6 243.681 1926.4 280.179C1977.77 318.583 2021.51 346.164 2038.5 383.212" stroke="#3B95A3" stroke-width="0.64" stroke-miterlimit="10"/>
<path d="M928.182 727.568C928.182 727.568 916.51 685.995 910.955 637.162C907.84 609.761 906.552 580.644 909.95 553.691C914.423 518.367 926.501 488.058 953.516 475.437C957.548 473.549 961.542 472 965.426 470.707C1041.92 445.512 1086.48 530.241 1129.97 524.161C1166.78 519.018 1183.41 467.926 1206.83 453.059C1212.46 449.463 1218.42 448.059 1225.1 450.029C1259.07 460.04 1291.26 471.297 1315.04 485.485C1319.89 488.389 1325.4 492.839 1331.46 498.132C1355.51 519.129 1388.12 551.336 1432.8 549.623C1468.27 548.291 1487.84 528.742 1503.37 490.833C1512.65 468.207 1520.16 439.169 1528.79 403.718C1529.34 401.475 1529.87 399.239 1530.41 397.026C1545.17 333.756 1549.05 276.314 1566.66 240.489C1574.55 224.422 1585.32 213.089 1600.96 207.838C1652.13 190.624 1668.32 200.046 1720.8 250.524C1773.25 301.008 1777.67 315.099 1832.19 313.72C1886.29 312.351 1880.89 241.659 1930.17 278.08C1980.75 315.455 2025.12 342.946 2041.45 379.888" stroke="#3B95A3" stroke-width="0.64" stroke-miterlimit="10"/>
<path d="M929.324 726.132C929.324 726.132 867.636 510.468 952.621 472.688C1037.61 434.908 1085.16 529.525 1131.36 525.137C1177.57 520.749 1192.47 442.704 1226.2 452.8C1259.92 462.902 1291.92 473.55 1315.27 486.966C1338.63 500.382 1375.93 551.21 1432.28 548.797C1488.63 546.384 1505.78 499 1528.21 402.834C1550.63 306.668 1548.67 223.575 1600.47 206.93C1652.27 190.285 1668.9 200.627 1721.52 251.75C1774.14 302.873 1778.72 317.099 1833.35 315.238C1887.98 313.377 1882.19 241.977 1931.96 278.322C1981.73 314.667 2026.73 342.068 2042.37 378.888" stroke="#3B95A3" stroke-width="0.64" stroke-miterlimit="10"/>
</g>
</g>
<defs>
<clipPath id="clip0_106_4743">
<rect width="1727.05" height="761.283" fill="white" transform="translate(0.367188 437.194) rotate(-14.644)"/>
</clipPath>
</defs>
</svg>
