<svg width="19" height="25" viewBox="0 0 19 25" fill="none" xmlns="http://www.w3.org/2000/svg">
<path fill-rule="evenodd" clip-rule="evenodd" d="M9.6043 2.55188C5.74636 2.55188 2.61888 5.67796 2.61888 9.53416C2.61888 12.3577 3.87724 15.0955 5.4358 17.3885C6.95028 19.6167 8.68581 21.3335 9.6043 22.1731C10.5228 21.3335 12.2584 19.6167 13.7728 17.3885C15.3313 15.0955 16.5897 12.3577 16.5897 9.53416C16.5897 5.67796 13.4622 2.55188 9.6043 2.55188ZM0.623047 9.53416C0.623047 4.57618 4.64409 0.556946 9.6043 0.556946C14.5645 0.556946 18.5855 4.57618 18.5855 9.53416C18.5855 12.9273 17.0875 16.0618 15.4236 18.5097C13.7516 20.9696 11.8454 22.834 10.882 23.7082C10.1518 24.3708 9.05684 24.3708 8.32656 23.7082C7.36321 22.834 5.45696 20.9696 3.78493 18.5097C2.12116 16.0618 0.623047 12.9273 0.623047 9.53416ZM9.6043 7.53922C8.502 7.53922 7.60846 8.43239 7.60846 9.53416C7.60846 10.636 8.502 11.5291 9.6043 11.5291C10.7066 11.5291 11.6001 10.636 11.6001 9.53416C11.6001 8.43239 10.7066 7.53922 9.6043 7.53922ZM5.61263 9.53416C5.61263 7.33061 7.39976 5.54429 9.6043 5.54429C11.8088 5.54429 13.596 7.33061 13.596 9.53416C13.596 11.7377 11.8088 13.524 9.6043 13.524C7.39976 13.524 5.61263 11.7377 5.61263 9.53416Z" fill="#0D1B36"/>
</svg>
