<svg width="683" height="1109" viewBox="0 0 683 1109" fill="none" xmlns="http://www.w3.org/2000/svg">
<path d="M244.307 812.908C246.186 815.167 248.086 817.52 250 819.721C319.158 838.661 381.049 872.629 422.268 937.596C422.384 937.666 422.371 937.818 422.487 937.888C424.911 938.733 427.371 939.519 429.83 940.305C428.74 938.448 427.765 936.661 426.581 934.826C383.052 866.225 317.352 831.599 244.343 812.851L244.307 812.908Z" fill="#CFCFCF"/>
<path d="M217.13 776.219C218.371 778.089 219.649 779.902 220.89 781.772C325.756 792.716 424.258 822.022 476.937 913.768C484.867 927.587 490.596 941.889 494.834 956.552C496.727 956.834 498.55 957.232 500.443 957.514C496.064 941.652 489.891 926.125 481.295 911.184C426.791 816.18 324.881 786.86 217.072 776.183L217.13 776.219Z" fill="#CFCFCF"/>
<path d="M540.601 889.39C522.386 853.244 495.84 826.71 463.891 807.206C393.278 764.1 296.129 755.482 203.531 753.854C204.484 755.548 205.494 757.277 206.446 758.97C338.661 761.425 479.272 779.017 536.059 891.623C547.447 914.226 552.755 937.806 554.316 961.799C556.049 961.823 557.746 961.906 559.421 961.896C557.831 937.17 552.435 912.822 540.578 889.297L540.601 889.39Z" fill="#CFCFCF"/>
<path d="M581.192 837.342C499.163 729.903 339.725 730.136 193.602 735.239C194.403 736.92 195.204 738.601 196.041 740.224C340.268 735.234 497.073 735.54 577.156 840.439C605.816 877.956 609.879 918.413 604.109 959.62C605.889 959.436 607.612 959.217 609.335 958.998C615.063 917.208 610.669 875.993 581.157 837.399L581.192 837.342Z" fill="#CFCFCF"/>
<path d="M639.051 814.665C555.458 697.294 369.537 708.373 205.549 718.142C199.034 718.534 192.518 718.926 186.095 719.295C186.838 720.941 187.582 722.587 188.325 724.232C194.108 723.869 199.949 723.542 205.79 723.215C368.521 713.552 552.976 702.532 634.877 817.598C666.047 861.415 662.185 907.044 647.438 952.544C649.361 952.129 651.283 951.713 653.205 951.297C667.617 905.434 670.877 859.358 639.086 814.607L639.051 814.665Z" fill="#CFCFCF"/>
<path d="M688.398 788.618C607.214 667.952 410.694 682.729 237.295 695.811C217.14 697.331 197.265 698.784 178.042 700.078C178.692 701.747 179.285 703.379 179.935 705.047C198.691 703.865 218.02 702.397 237.686 700.896C409.735 687.944 604.639 673.212 684.166 791.517C718.686 842.86 703.65 894.301 678.69 944.689C680.939 943.996 683.131 943.269 685.417 942.519C709.795 892.173 723.436 840.675 688.398 788.618Z" fill="#CFCFCF"/>
<path d="M747.758 648.955C744.482 642.347 740.927 635.807 736.893 629.531C736.777 629.46 736.732 629.274 736.674 629.239C732.106 621.365 727.152 613.732 721.661 606.329C700.082 573.611 675.981 543.723 647.7 518.991C553.846 436.909 450.533 417.695 341.17 397.331C299.733 389.594 256.856 381.613 213.926 369.945C207.438 368.209 201.114 366.335 194.919 364.38C194.151 365.898 193.348 367.473 192.581 368.991C199.101 371.064 205.749 373.057 212.562 374.912C255.701 386.628 298.636 394.645 340.259 402.337C448.903 422.579 551.553 441.706 644.426 522.792C645.558 523.801 646.655 524.868 647.787 525.876C558.218 455.387 455.968 443.021 348.199 430.065C302.617 424.564 255.466 418.9 209.421 408.429C199.089 406.094 188.733 403.665 178.368 400.992C177.716 402.581 177.122 404.204 176.47 405.793C187.08 408.456 197.702 410.968 208.244 413.351C254.555 423.905 301.857 429.582 347.533 435.061C463.644 449.057 573.342 462.237 666.963 548.865C667.471 549.334 668.002 549.896 668.51 550.365C576.875 476.232 454.221 467.616 334.927 459.225C297.951 456.674 263.069 454.208 228.77 449.875C207.903 447.227 186.563 444.051 165.219 439.84C164.777 441.477 164.276 443.078 163.891 444.75C185.444 449.009 207.086 452.21 228.162 454.907C262.554 459.217 299.191 461.801 334.621 464.282C460.425 473.072 589.913 482.205 681.872 568.692C674.022 562.549 665.89 556.869 657.382 551.675C568.305 497.298 447.268 494.754 337.196 492.469C297.335 491.652 259.694 490.84 225.236 487.681C202.131 485.573 178.985 482.884 156.311 479.291C156.019 480.94 155.692 482.647 155.458 484.332C178.248 487.995 201.546 490.698 224.801 492.818C259.469 496.026 297.202 496.815 337.157 497.609C476.241 500.524 632.79 503.851 718.613 612.493C626.219 517.477 467.513 520.937 326.789 524.093C262.942 525.476 202.572 526.758 151.27 519.434C151.129 521.096 151.011 522.851 150.871 524.513C202.475 531.863 262.938 530.558 326.879 529.152C473 525.875 638.604 522.178 727.101 629.433C729.613 632.476 731.904 635.622 734.136 638.732C737.289 644.63 740.371 650.643 743.418 656.714C743.177 656.328 742.936 655.942 742.601 655.579C656.936 541.473 476.01 550.356 316.422 558.124C255.668 561.078 197.845 563.915 150.148 559.665C150.216 561.375 150.191 563.108 150.26 564.818C198.201 569.058 255.93 566.244 316.685 563.29C474.994 555.535 654.512 546.746 738.565 658.677C751.667 676.129 759.226 694.33 763.096 712.979C763.596 716.065 763.909 719.196 764.28 722.362C760.626 710.518 755.017 698.752 746.908 687.048C664.88 568.806 472.373 581.823 302.51 593.408C248.298 597.098 196.448 600.562 152.951 599.194C153.17 600.917 153.331 602.604 153.551 604.327C197.141 605.673 248.84 602.196 302.866 598.551C471.379 587.095 662.362 574.102 742.698 690.04C764.611 721.69 768.024 754.362 762.224 787.288C762.404 765.39 756.723 743.331 742.054 721.029C727.028 698.27 707.487 680.303 684.509 666.276C585.014 605.538 421.536 618.638 285.207 629.561C240.439 633.137 197.265 636.575 159.253 637.284C159.659 638.962 159.971 640.662 160.377 642.34C198.332 641.595 241.168 638.19 285.634 634.588C452.114 621.256 659.313 604.735 737.799 723.834C767.632 769.059 759.587 812.691 739.186 857.043C748.413 824.619 747.143 791.429 724.866 757.252C709.727 734.028 689.991 715.862 666.781 701.693C566.592 640.531 401.735 654.458 264.226 666.011C231.002 668.769 198.661 671.51 168.608 673.106C169.107 674.761 169.664 676.452 170.221 678.143C199.971 676.521 231.882 673.835 264.618 671.097C432.628 656.95 641.836 639.351 720.554 760.022C761.235 822.356 728.352 882.209 692.215 940.233C692.81 940.04 693.404 939.847 693.999 939.654C696.413 938.823 698.897 937.877 701.346 936.988C704.812 930.921 708.313 924.795 711.814 918.67C712.379 917.744 712.944 916.818 713.487 915.798C710.681 922.348 707.967 928.875 705.463 935.45C707.539 934.652 709.674 933.889 711.75 933.091C717.619 918.4 724.292 903.565 731.107 888.498C735.259 879.354 739.388 870.116 743.332 860.924C743.261 861.04 743.248 861.191 743.235 861.342C736.788 883.227 730.327 905.263 725.821 927.221C727.688 926.374 729.542 925.679 731.41 924.833C735.775 904.537 741.912 883.813 748.074 862.786C752.564 847.492 757.125 832.083 760.988 816.644C760.091 824.36 759.101 832.098 758.147 839.778C754.954 864.921 751.771 890.308 750.87 915.341C752.586 914.481 754.257 913.436 755.973 912.577C757.013 889.139 760.059 865.018 763.201 840.48C766.442 815.128 769.651 789.439 770.484 764.126C772.178 784.387 772.998 804.908 773.773 825.244C774.746 850.07 775.671 875.104 778.344 899.618C779.886 898.653 781.487 897.723 783.065 896.7C780.742 873.434 779.763 849.399 778.845 825.003C777.778 797.339 776.678 769.338 773.306 741.935C778.582 763.746 782.971 785.97 787.327 807.856C792.276 832.805 797.236 857.999 803.548 882.668C805.01 881.574 806.507 880.423 807.97 879.33C801.953 855.477 797.082 831.051 792.313 806.848C787.979 785.055 783.6 763.075 778.44 741.334C784.034 756.508 789.441 771.726 794.733 786.874C804.136 813.509 813.583 840.33 824.059 866.508C825.405 865.344 826.81 864.215 828.156 863.051C817.967 837.445 808.654 811.183 799.538 785.12C788.246 753.121 776.864 720.749 763.647 689.56C763.499 689.152 763.386 688.686 763.238 688.278C776.556 713.966 789.217 740.207 801.683 766.249C815.088 794.136 828.596 822.244 842.982 849.697C844.27 848.497 845.617 847.333 846.847 846.098C832.726 819.124 819.481 791.495 806.282 764.052C787.68 725.286 768.757 686.006 747.677 648.826L747.758 648.955Z" fill="#CFCFCF"/>
<path d="M331.345 369.566C448.229 401.037 558.626 430.771 658.549 528.158C713.544 581.752 759.36 660.012 807.84 742.759C825.313 772.572 842.888 802.608 861.087 831.752C862.259 830.482 863.41 829.118 864.618 827.79C846.718 799.067 829.406 769.51 812.256 740.211C763.592 657.114 717.616 578.597 662.113 524.534C561.231 426.244 450.207 396.365 332.638 364.715C294.221 354.372 254.622 343.626 214.334 330.233C213.415 331.738 212.381 333.172 211.462 334.677C252.284 348.236 292.417 359.15 331.309 369.624L331.345 369.566Z" fill="#CFCFCF"/>
<path d="M644.172 501.346C702.613 554.501 756.372 634.194 813.237 718.563C834.465 750.034 855.911 781.797 877.807 812.563C878.958 811.199 880.05 809.8 881.142 808.401C859.545 778.056 838.455 746.75 817.527 715.7C760.502 631.074 706.581 551.123 647.655 497.593C547.162 406.214 439.22 368.683 325.039 329.011C296.482 319.046 267.182 308.867 237.426 297.613C236.334 299.012 235.184 300.376 234.091 301.775C264.439 313.23 294.295 323.67 323.328 333.766C437.034 373.306 544.477 410.613 644.172 501.346Z" fill="#CFCFCF"/>
<path d="M634.469 472.859C713.796 541.386 781.312 624.313 846.652 704.56C865.732 727.966 885.227 751.864 905.027 775.392C905.945 773.887 906.98 772.453 907.898 770.948C888.433 747.784 869.295 724.342 850.607 701.334C785.188 620.958 717.475 537.832 637.836 469.036C538.857 383.506 432.774 338.767 320.523 291.376C301.894 283.5 282.882 275.469 263.71 267.181C262.444 268.474 261.178 269.767 259.97 271.095C279.757 279.678 299.382 288.005 318.603 296.083C430.471 343.321 536.172 387.905 634.585 472.93L634.469 472.859Z" fill="#CFCFCF"/>
<path d="M588.84 408.218C689.502 483.572 773.761 582.281 855.29 677.655C876.36 702.356 897.662 727.198 919.35 751.798C920.269 750.293 921.223 748.731 922.025 747.155C900.788 722.988 879.936 698.58 859.223 674.336C777.534 578.704 693.043 479.854 591.895 404.124C509.724 342.6 423.363 301.082 331.881 257.153C319.273 251.125 306.47 244.898 293.631 238.729C292.25 239.951 290.752 241.103 289.37 242.325C302.904 248.918 316.357 255.383 329.694 261.777C420.945 305.565 507.132 346.976 588.933 408.195L588.84 408.218Z" fill="#CFCFCF"/>
<path d="M592.748 374.616C696.433 451.656 785.62 550.753 871.855 646.616C893.166 670.272 914.673 694.127 936.473 717.763C937.254 716.095 938.034 714.426 938.756 712.722C917.429 689.612 896.453 666.32 875.673 643.226C789.299 547.199 699.916 447.903 595.826 370.616C516.507 311.707 428.859 265.272 344.094 220.359C338.94 217.61 333.727 214.825 328.538 212.134C326.925 213.215 325.347 214.238 323.791 215.354C329.791 218.54 335.791 221.726 341.734 224.876C426.324 269.683 513.857 316.048 592.771 374.709L592.748 374.616Z" fill="#CFCFCF"/>
<path d="M607.996 338.317C712.51 416.34 803.803 515.371 892.063 611.041C911.994 632.663 932.064 654.448 952.39 676.073C952.974 674.205 953.674 672.408 954.223 670.598C934.543 649.606 915.143 628.547 895.823 607.616C807.402 511.689 715.97 412.494 611.051 334.223C535.504 277.856 451.751 231.415 370.404 186.761C368.653 187.678 366.924 188.688 365.137 189.663C447.236 234.777 531.905 281.538 608.054 338.352L607.996 338.317Z" fill="#CFCFCF"/>
<path d="M638.698 304.941C741.441 381.963 829.876 480.599 915.358 576.003C931.514 594.049 947.785 612.165 964.243 630.236C964.666 628.111 964.996 626.009 965.326 623.906C949.792 606.796 934.408 589.698 919.118 572.578C833.404 477.033 744.866 378.174 641.718 300.905C569.515 246.738 490.674 205.918 413.303 167.505C411.133 168.325 408.999 169.088 406.852 170.002C488.082 210.294 565.28 250.032 638.721 305.034L638.698 304.941Z" fill="#CFCFCF"/>
<path d="M717.521 308.57C800.912 379.419 874.807 463.221 946.293 544.202C954.594 553.639 962.954 563.112 971.371 572.62C971.517 570.167 971.513 567.701 971.602 565.213C964.407 557.087 957.212 548.96 950.075 540.869C878.451 459.725 804.475 375.795 720.772 304.676C636.249 232.818 548.725 191.384 457.14 153.351C454.401 154.063 451.756 154.752 449.075 155.499C542.506 194.024 631.692 235.598 717.521 308.57Z" fill="#CFCFCF"/>
<path d="M758.024 280.224C835.525 348.748 902.283 430.576 966.898 509.666C968.004 510.977 969.133 512.382 970.205 513.751C969.891 510.62 969.543 507.547 969.136 504.439C904.971 425.782 838.522 344.619 761.391 276.4C678.346 202.902 598.596 169.948 511.705 142.964C507.678 143.445 503.615 143.984 499.61 144.558C590.056 171.965 672.345 204.403 758.059 280.166L758.024 280.224Z" fill="#CFCFCF"/>
<path d="M800.486 252.836C855.049 303.623 906.826 379.405 961.58 459.943C960.523 455.167 959.338 450.471 958.095 445.74C906.044 369.234 856.383 297.923 803.991 249.176C744.833 194.073 688.316 164.577 630.425 145.921C619.263 144.033 608.04 142.505 596.859 141.559C665.666 159.251 731.338 188.457 800.544 252.871L800.486 252.836Z" fill="#CFCFCF"/>
</svg>
