<svg width="27" height="27" viewBox="0 0 27 27" fill="none" xmlns="http://www.w3.org/2000/svg">
<path d="M23.76 0.540039H3.24004C1.75126 0.540039 0.540039 1.75126 0.540039 3.24004V23.76C0.540039 25.2488 1.75126 26.46 3.24004 26.46H14.58V16.2H11.34V12.96H14.58V10.8C14.58 7.52494 17.2449 4.86004 20.52 4.86004H22.14V8.10004H20.52C19.0313 8.10004 17.82 9.31126 17.82 10.8V12.96H22.0682L21.6632 16.2H17.82V26.46H23.76C25.2488 26.46 26.46 25.2488 26.46 23.76V3.24004C26.46 1.75126 25.2488 0.540039 23.76 0.540039ZM25.38 23.76C25.38 24.6532 24.6532 25.38 23.76 25.38H18.9V17.28H22.6169L23.2919 11.88H18.9V10.8C18.9 9.90688 19.6269 9.18004 20.52 9.18004H23.22V3.78004H20.52C16.6493 3.78004 13.5 6.92932 13.5 10.8V11.88H10.26V17.28H13.5V25.38H3.24004C2.34688 25.38 1.62004 24.6532 1.62004 23.76V3.24004C1.62004 2.34688 2.34688 1.62004 3.24004 1.62004H23.76C24.6532 1.62004 25.38 2.34688 25.38 3.24004V23.76Z" fill="white"/>
</svg>
