<svg width="27" height="27" viewBox="0 0 27 27" fill="none" xmlns="http://www.w3.org/2000/svg">
<path d="M23.76 0.540039H3.24004C1.75126 0.540039 0.540039 1.75126 0.540039 3.24004V23.76C0.540039 25.2488 1.75126 26.46 3.24004 26.46H23.76C25.2488 26.46 26.46 25.2488 26.46 23.76V3.24004C26.46 1.75126 25.2488 0.540039 23.76 0.540039ZM25.38 23.76C25.38 24.6532 24.6532 25.38 23.76 25.38H3.24004C2.34688 25.38 1.62004 24.6532 1.62004 23.76V3.24004C1.62004 2.34688 2.34688 1.62004 3.24004 1.62004H23.76C24.6532 1.62004 25.38 2.34688 25.38 3.24004V23.76Z" fill="white"/>
<path d="M4.32007 22.6798H8.64007V10.2598H4.32007V22.6798ZM5.40007 11.3398H7.56007V21.5998H5.40007V11.3398Z" fill="white"/>
<path d="M6.48003 3.78027C4.99125 3.78027 3.78003 4.99149 3.78003 6.48027C3.78003 7.96905 4.99125 9.18027 6.48003 9.18027C7.96881 9.18027 9.18003 7.96905 9.18003 6.48027C9.18003 4.99149 7.96881 3.78027 6.48003 3.78027ZM6.48003 8.10027C5.58687 8.10027 4.86003 7.37343 4.86003 6.48027C4.86003 5.58711 5.58687 4.86027 6.48003 4.86027C7.37319 4.86027 8.10003 5.58711 8.10003 6.48027C8.10003 7.37343 7.37319 8.10027 6.48003 8.10027Z" fill="white"/>
<path d="M16.74 10.2598C16.004 10.2598 15.2804 10.4261 14.58 10.7544V10.2598H10.26V22.6798H14.58V16.7398C14.58 15.5485 15.5488 14.5798 16.74 14.5798C17.9313 14.5798 18.9 15.5485 18.9 16.7398V22.6798H23.22V16.7398C23.22 13.1666 20.3132 10.2598 16.74 10.2598ZM22.14 21.5998H19.98V16.7398C19.98 14.9529 18.5269 13.4998 16.74 13.4998C14.9531 13.4998 13.5 14.9529 13.5 16.7398V21.5998H11.34V11.3398H13.5V12.7011L14.343 12.1303C15.1179 11.606 15.9241 11.3398 16.74 11.3398C19.7176 11.3398 22.14 13.7622 22.14 16.7398V21.5998Z" fill="white"/>
</svg>
