<svg width="289" height="66" viewBox="0 0 289 66" fill="none" xmlns="http://www.w3.org/2000/svg">
<path d="M87.024 44.384C83.632 44.384 80.8267 43.264 78.608 41.024C76.3893 38.784 75.28 36.0427 75.28 32.8C75.28 29.5573 76.3893 26.816 78.608 24.576C80.8267 22.336 83.632 21.216 87.024 21.216C89.0933 21.216 90.992 21.7173 92.72 22.72C94.448 23.7013 95.7813 25.0347 96.72 26.72L94.736 27.872C94.032 26.5067 92.9867 25.4187 91.6 24.608C90.2133 23.7973 88.688 23.392 87.024 23.392C84.2293 23.392 81.9467 24.2987 80.176 26.112C78.4053 27.9253 77.52 30.1547 77.52 32.8C77.52 35.4453 78.4053 37.6747 80.176 39.488C81.9467 41.3013 84.2293 42.208 87.024 42.208C88.688 42.208 90.2133 41.8027 91.6 40.992C92.9867 40.1813 94.032 39.0933 94.736 37.728L96.72 38.848C95.8027 40.5333 94.4693 41.8773 92.72 42.88C90.992 43.8827 89.0933 44.384 87.024 44.384ZM102.196 30.656C103.177 28.7147 104.862 27.744 107.252 27.744V29.792C105.801 29.792 104.596 30.2187 103.636 31.072C102.676 31.9253 102.196 33.2693 102.196 35.104V44H100.084V28H102.196V30.656ZM121.979 28H124.219L117.371 45.472C116.752 47.0507 115.867 48.288 114.715 49.184C113.584 50.1013 112.315 50.5067 110.907 50.4V48.416C112.827 48.6293 114.288 47.52 115.291 45.088L115.707 44.096L108.539 28H110.779L116.795 41.408L121.979 28ZM135.347 27.616C137.63 27.616 139.571 28.4267 141.171 30.048C142.793 31.6693 143.603 33.6533 143.603 36C143.603 38.3467 142.793 40.3307 141.171 41.952C139.571 43.5733 137.63 44.384 135.347 44.384C132.51 44.384 130.355 43.2107 128.883 40.864V50.4H126.771V28H128.883V31.136C130.355 28.7893 132.51 27.616 135.347 27.616ZM130.707 40.512C131.923 41.728 133.417 42.336 135.187 42.336C136.958 42.336 138.451 41.728 139.667 40.512C140.883 39.2747 141.491 37.7707 141.491 36C141.491 34.2293 140.883 32.736 139.667 31.52C138.451 30.2827 136.958 29.664 135.187 29.664C133.417 29.664 131.923 30.2827 130.707 31.52C129.491 32.736 128.883 34.2293 128.883 36C128.883 37.7707 129.491 39.2747 130.707 40.512ZM155.283 30.048H150.675V39.744C150.675 40.6187 150.845 41.248 151.187 41.632C151.528 41.9947 152.04 42.1867 152.723 42.208C153.405 42.208 154.259 42.1867 155.283 42.144V44C153.043 44.3413 151.357 44.1813 150.227 43.52C149.117 42.8587 148.562 41.6 148.562 39.744V30.048H145.203V28H148.562V24.16L150.675 23.52V28H155.283V30.048ZM171.242 41.984C169.62 43.584 167.636 44.384 165.29 44.384C162.943 44.384 160.948 43.584 159.306 41.984C157.684 40.3627 156.874 38.368 156.874 36C156.874 33.632 157.684 31.648 159.306 30.048C160.948 28.4267 162.943 27.616 165.29 27.616C167.636 27.616 169.62 28.4267 171.242 30.048C172.884 31.648 173.706 33.632 173.706 36C173.706 38.368 172.884 40.3627 171.242 41.984ZM160.81 40.512C162.026 41.728 163.519 42.336 165.29 42.336C167.06 42.336 168.554 41.728 169.77 40.512C170.986 39.2747 171.594 37.7707 171.594 36C171.594 34.2293 170.986 32.736 169.77 31.52C168.554 30.2827 167.06 29.664 165.29 29.664C163.519 29.664 162.026 30.2827 160.81 31.52C159.594 32.736 158.986 34.2293 158.986 36C158.986 37.7707 159.594 39.2747 160.81 40.512ZM191.32 44L186.072 35.04H179.8V44H177.56V21.6H186.52C188.376 21.6 189.955 22.2613 191.256 23.584C192.579 24.8853 193.24 26.464 193.24 28.32C193.24 29.8347 192.781 31.1893 191.864 32.384C190.968 33.5573 189.816 34.3467 188.408 34.752L193.88 44H191.32ZM179.8 23.712V32.928H186.52C187.757 32.928 188.813 32.48 189.688 31.584C190.563 30.6667 191 29.5787 191 28.32C191 27.04 190.563 25.952 189.688 25.056C188.813 24.16 187.757 23.712 186.52 23.712H179.8ZM203.351 27.616C205.719 27.616 207.628 28.4587 209.079 30.144C210.551 31.808 211.287 33.7813 211.287 36.064C211.287 36.2987 211.265 36.6293 211.223 37.056H197.175C197.388 38.6773 198.071 39.968 199.223 40.928C200.396 41.8667 201.836 42.336 203.543 42.336C204.759 42.336 205.804 42.0907 206.679 41.6C207.575 41.088 208.247 40.4267 208.695 39.616L210.551 40.704C209.847 41.8347 208.887 42.7307 207.671 43.392C206.455 44.0533 205.068 44.384 203.511 44.384C200.993 44.384 198.945 43.5947 197.367 42.016C195.788 40.4373 194.999 38.432 194.999 36C194.999 33.6107 195.777 31.616 197.335 30.016C198.892 28.416 200.897 27.616 203.351 27.616ZM203.351 29.664C201.687 29.664 200.289 30.1653 199.159 31.168C198.049 32.1493 197.388 33.4293 197.175 35.008H209.111C208.897 33.3227 208.247 32.0107 207.159 31.072C206.071 30.1333 204.801 29.664 203.351 29.664ZM225.541 28H227.781L221.221 44H218.661L212.101 28H214.341L219.941 41.792L225.541 28ZM237.101 27.616C239.469 27.616 241.378 28.4587 242.829 30.144C244.301 31.808 245.037 33.7813 245.037 36.064C245.037 36.2987 245.015 36.6293 244.973 37.056H230.925C231.138 38.6773 231.821 39.968 232.973 40.928C234.146 41.8667 235.586 42.336 237.293 42.336C238.509 42.336 239.554 42.0907 240.429 41.6C241.325 41.088 241.997 40.4267 242.445 39.616L244.301 40.704C243.597 41.8347 242.637 42.7307 241.421 43.392C240.205 44.0533 238.818 44.384 237.261 44.384C234.743 44.384 232.695 43.5947 231.117 42.016C229.538 40.4373 228.749 38.432 228.749 36C228.749 33.6107 229.527 31.616 231.085 30.016C232.642 28.416 234.647 27.616 237.101 27.616ZM237.101 29.664C235.437 29.664 234.039 30.1653 232.909 31.168C231.799 32.1493 231.138 33.4293 230.925 35.008H242.861C242.647 33.3227 241.997 32.0107 240.909 31.072C239.821 30.1333 238.551 29.664 237.101 29.664ZM250.508 30.656C251.49 28.7147 253.175 27.744 255.564 27.744V29.792C254.114 29.792 252.908 30.2187 251.948 31.072C250.988 31.9253 250.508 33.2693 250.508 35.104V44H248.396V28H250.508V30.656ZM259.498 32.192C259.498 32.9173 259.818 33.4933 260.458 33.92C261.098 34.3467 261.876 34.6773 262.794 34.912C263.711 35.1467 264.628 35.4133 265.546 35.712C266.463 35.9893 267.242 36.4693 267.882 37.152C268.522 37.8133 268.842 38.688 268.842 39.776C268.842 41.1413 268.298 42.2507 267.21 43.104C266.143 43.9573 264.756 44.384 263.05 44.384C261.514 44.384 260.202 44.0427 259.114 43.36C258.047 42.6773 257.3 41.792 256.874 40.704L258.666 39.648C258.964 40.48 259.498 41.1413 260.266 41.632C261.055 42.1013 261.983 42.336 263.05 42.336C264.095 42.336 264.97 42.1333 265.674 41.728C266.378 41.3013 266.73 40.6507 266.73 39.776C266.73 39.0507 266.41 38.4747 265.77 38.048C265.13 37.6213 264.351 37.2907 263.434 37.056C262.516 36.8213 261.599 36.5653 260.682 36.288C259.764 35.9893 258.986 35.5093 258.346 34.848C257.706 34.1653 257.386 33.28 257.386 32.192C257.386 30.8907 257.898 29.8027 258.922 28.928C259.967 28.0533 261.279 27.616 262.858 27.616C264.159 27.616 265.3 27.9147 266.282 28.512C267.263 29.088 267.988 29.8773 268.458 30.88L266.698 31.904C266.079 30.4107 264.799 29.664 262.858 29.664C261.94 29.664 261.151 29.888 260.49 30.336C259.828 30.7627 259.498 31.3813 259.498 32.192ZM279.288 27.616C281.656 27.616 283.566 28.4587 285.016 30.144C286.488 31.808 287.224 33.7813 287.224 36.064C287.224 36.2987 287.203 36.6293 287.16 37.056H273.112C273.326 38.6773 274.008 39.968 275.16 40.928C276.334 41.8667 277.774 42.336 279.48 42.336C280.696 42.336 281.742 42.0907 282.616 41.6C283.512 41.088 284.184 40.4267 284.632 39.616L286.488 40.704C285.784 41.8347 284.824 42.7307 283.608 43.392C282.392 44.0533 281.006 44.384 279.448 44.384C276.931 44.384 274.883 43.5947 273.304 42.016C271.726 40.4373 270.936 38.432 270.936 36C270.936 33.6107 271.715 31.616 273.272 30.016C274.83 28.416 276.835 27.616 279.288 27.616ZM279.288 29.664C277.624 29.664 276.227 30.1653 275.096 31.168C273.987 32.1493 273.326 33.4293 273.112 35.008H285.048C284.835 33.3227 284.184 32.0107 283.096 31.072C282.008 30.1333 280.739 29.664 279.288 29.664Z" fill="white"/>
<path fill-rule="evenodd" clip-rule="evenodd" d="M30.2843 45.7822C16.5256 45.7822 9.52918 29.0329 19.2995 19.263C29.0605 9.50193 45.8191 16.4415 45.8191 30.2477C45.8191 38.833 38.8691 45.7822 30.2843 45.7822ZM30.2843 16.2618C17.8984 16.2618 11.5973 31.3414 20.3943 40.138C29.1844 48.9277 44.2709 42.6758 44.2709 30.2481C44.2709 22.5192 38.0135 16.2618 30.2846 16.2618H30.2843Z" fill="white"/>
<path fill-rule="evenodd" clip-rule="evenodd" d="M55.8191 66.0001C55.4071 66.0001 52.6519 63.5445 52.6519 62.8333V57.7075H47.5265C47.0383 57.7075 45.9748 56.644 45.9748 56.1559V51.0301L40.8491 51.0305C40.6435 51.0305 40.4468 50.9488 40.3012 50.8032L34.3253 44.8273C33.918 44.42 34.0853 43.7216 34.6327 43.5431C38.8626 42.1645 42.2013 38.8254 43.5803 34.5955C43.76 34.045 44.4584 33.8836 44.8645 34.2885L65.8104 55.2345C65.9951 55.4191 66.0733 55.6832 66.021 55.9387L64.4067 63.7655C64.3443 64.0683 64.1078 64.3048 63.805 64.3671L55.8195 65.9993L55.8191 66.0001ZM54.2012 62.5127L56.0711 64.3834L62.9928 62.9548L64.4198 56.0358L44.6229 36.2382C43.0623 39.9907 40.0272 43.0255 36.275 44.5861L41.17 49.4811L46.7495 49.4815C47.1769 49.4815 47.5238 49.8288 47.5238 50.2558V55.8353L47.8474 56.159H53.4269C53.8543 56.159 54.2012 56.5062 54.2012 56.9332V62.5131V62.5127Z" fill="white"/>
<path fill-rule="evenodd" clip-rule="evenodd" d="M19.8473 20.5843C19.6491 20.5843 19.4508 20.5084 19.2999 20.3574L14.2194 15.277C13.4981 14.5565 14.5938 13.4613 15.3142 14.1821L20.3947 19.2626C20.8848 19.7523 20.5294 20.5843 19.8473 20.5843Z" fill="white"/>
<path fill-rule="evenodd" clip-rule="evenodd" d="M15.7428 28.4842C15.5446 28.4842 15.3464 28.4083 15.1954 28.2569L8.59542 21.6569L5.16921 25.0831C4.44874 25.8044 3.35313 24.7087 4.07437 23.9883L8.048 20.0146C8.33836 19.7243 8.85248 19.7243 9.14284 20.0146L16.2903 27.1624C16.78 27.6522 16.4254 28.4842 15.7428 28.4842Z" fill="white"/>
<path fill-rule="evenodd" clip-rule="evenodd" d="M28.3338 16.3902C28.1352 16.3902 27.9374 16.3143 27.7864 16.1633L20.3897 8.76735C20.0869 8.46499 20.0869 7.97487 20.3897 7.67251L24.3633 3.69889C25.0845 2.97764 26.179 4.07325 25.4581 4.79372L22.0327 8.21993L28.8812 15.0685C29.3714 15.5578 29.0163 16.3902 28.3342 16.3902H28.3338Z" fill="white"/>
<path fill-rule="evenodd" clip-rule="evenodd" d="M13.3282 16.1004C9.6356 16.1004 9.63521 10.4834 13.3282 10.4834C17.0219 10.4834 17.0219 16.1004 13.3282 16.1004ZM13.3282 12.0316C12.2136 12.0316 11.6441 13.3901 12.4373 14.1833C13.5891 15.3351 15.4075 13.5918 14.219 12.4013C13.9809 12.1624 13.665 12.0312 13.3282 12.0312V12.0316Z" fill="white"/>
<path fill-rule="evenodd" clip-rule="evenodd" d="M26.3494 5.61705C22.6495 5.61705 22.6498 0 26.3494 0C30.0485 0 30.0481 5.61705 26.3494 5.61705ZM26.3494 1.54779C25.2317 1.54779 24.6638 2.90473 25.4578 3.69914C26.6235 4.86522 28.4187 3.09559 27.2402 1.91752C27.0021 1.67942 26.6854 1.54818 26.349 1.54818L26.3494 1.54779Z" fill="white"/>
<path fill-rule="evenodd" clip-rule="evenodd" d="M3.18348 28.7829C-0.509859 28.7829 -0.510246 23.165 3.18348 23.165C6.88262 23.165 6.88262 28.7829 3.18348 28.7829ZM3.18348 24.7136C2.06812 24.7136 1.49864 26.0721 2.29189 26.865C3.45835 28.0306 5.25314 26.2602 4.07429 25.0826C3.8362 24.8449 3.5199 24.7136 3.18309 24.7136H3.18348Z" fill="white"/>
<path fill-rule="evenodd" clip-rule="evenodd" d="M40.7213 20.6548C40.0388 20.6548 39.683 19.8228 40.1735 19.3331L45.254 14.2526C45.9752 13.5314 47.0704 14.627 46.3492 15.3474L41.2687 20.4279C41.1181 20.5793 40.9195 20.6552 40.7213 20.6552V20.6548Z" fill="white"/>
<path fill-rule="evenodd" clip-rule="evenodd" d="M32.822 16.5499C32.1402 16.5499 31.7845 15.7179 32.275 15.2282L38.875 8.62818L35.4488 5.20197C34.7271 4.48112 35.8239 3.38589 36.544 4.10714L40.5176 8.08076C40.82 8.38312 40.8203 8.87286 40.5176 9.17522L33.369 16.323C33.218 16.4744 33.0198 16.5503 32.8216 16.5503L32.822 16.5499Z" fill="white"/>
<path fill-rule="evenodd" clip-rule="evenodd" d="M44.9159 29.141C44.2333 29.141 43.8776 28.3094 44.3681 27.8193L51.764 20.4233C52.0668 20.1206 52.5569 20.1206 52.8593 20.4233L56.8333 24.397C57.5549 25.1178 56.4581 26.2131 55.7377 25.4918L52.3115 22.0656L45.4637 28.9142C45.3119 29.0651 45.1137 29.141 44.9159 29.141Z" fill="white"/>
<path fill-rule="evenodd" clip-rule="evenodd" d="M47.2404 16.1706C43.5482 16.1706 43.5467 10.5527 47.2404 10.5527C50.933 10.5527 50.9338 16.1706 47.2404 16.1706ZM47.2404 12.1013C46.1251 12.1013 45.556 13.4594 46.3492 14.2527C47.5013 15.4044 49.3201 13.6611 48.1312 12.471C47.8935 12.2329 47.5768 12.1017 47.2404 12.1017V12.1013Z" fill="white"/>
<path fill-rule="evenodd" clip-rule="evenodd" d="M57.7233 29.1911C54.0312 29.1911 54.0296 23.5732 57.7233 23.5732C61.4155 23.5732 61.4174 29.1911 57.7233 29.1911ZM57.7233 25.1222C56.608 25.1222 56.0393 26.4803 56.8325 27.2735C57.9846 28.4253 59.8031 26.682 58.6145 25.4915C58.3768 25.2531 58.0601 25.1222 57.7233 25.1222Z" fill="white"/>
<path fill-rule="evenodd" clip-rule="evenodd" d="M34.558 6.02525C30.8655 6.02525 30.8651 0.408203 34.5588 0.408203C38.2518 0.408203 38.2525 6.02525 34.558 6.02525ZM34.558 1.956C33.4435 1.956 32.874 3.31448 33.6672 4.10735C34.8221 5.26142 36.6366 3.51154 35.4489 2.32494C35.2108 2.08724 34.8945 1.956 34.558 1.956Z" fill="white"/>
<path fill-rule="evenodd" clip-rule="evenodd" d="M14.6968 46.5393C14.0143 46.5393 13.6592 45.7062 14.1494 45.2168L19.2298 40.1368C19.9522 39.4144 21.0455 40.5119 20.3247 41.2324L15.2442 46.3124C15.0924 46.4634 14.8946 46.5393 14.6968 46.5393Z" fill="white"/>
<path fill-rule="evenodd" clip-rule="evenodd" d="M24.5019 56.6844C24.3037 56.6844 24.1055 56.6085 23.9549 56.4575L19.9821 52.4839C19.6793 52.1812 19.6793 51.6907 19.9821 51.3883L27.1295 44.2409C27.8515 43.5193 28.9448 44.6164 28.2243 45.3365L21.6247 51.9365L25.0501 55.3623C25.5403 55.8521 25.1856 56.6844 24.5019 56.6844Z" fill="white"/>
<path fill-rule="evenodd" clip-rule="evenodd" d="M8.1866 40.3689C7.98838 40.3689 7.79016 40.293 7.63918 40.1416L3.66555 36.168C2.94392 35.4463 4.0403 34.3519 4.76039 35.0728L8.1866 38.499L15.0351 31.6512C15.7568 30.9296 16.8508 32.0256 16.13 32.746L8.73401 40.1424C8.58264 40.2934 8.38481 40.3693 8.1866 40.3693V40.3689Z" fill="white"/>
<path fill-rule="evenodd" clip-rule="evenodd" d="M13.2581 50.0122C9.559 50.0122 9.55861 44.3955 13.2581 44.3955C16.9526 44.3955 16.9519 50.0122 13.2581 50.0122ZM13.2581 45.9429C12.1405 45.9429 11.5737 47.3006 12.3673 48.0943C13.521 49.2476 15.3363 47.5016 14.149 46.3126C13.9113 46.0738 13.5946 45.9433 13.2581 45.9433V45.9429Z" fill="white"/>
<path fill-rule="evenodd" clip-rule="evenodd" d="M2.77475 36.9911C-0.924399 36.9911 -0.925173 31.374 2.77397 31.374C6.47311 31.374 6.47273 36.9911 2.77475 36.9911ZM2.77475 32.9218C1.65784 32.9218 1.0899 34.2791 1.88393 35.0728C3.05039 36.2389 4.84363 34.4696 3.66556 33.2915C3.42824 33.0534 3.11117 32.9222 2.77475 32.9222V32.9218Z" fill="white"/>
<path fill-rule="evenodd" clip-rule="evenodd" d="M25.9409 60.1577C22.2429 60.1577 22.2398 54.541 25.9409 54.541C29.6404 54.541 29.6393 60.1577 25.9409 60.1577ZM25.9409 56.0884C24.8201 56.0884 24.2584 57.4485 25.0493 58.2394C26.215 59.4051 28.0094 57.637 26.8313 56.4578C26.5936 56.2193 26.2773 56.0884 25.9409 56.0884Z" fill="white"/>
<path fill-rule="evenodd" clip-rule="evenodd" d="M59.2557 57.0303C59.0579 57.0303 58.8597 56.9544 58.7079 56.8034L45.4584 43.5531C44.7364 42.831 45.8335 41.737 46.5536 42.4574L59.8032 55.7078C60.2929 56.1975 59.939 57.0303 59.2557 57.0303Z" fill="white"/>
<path fill-rule="evenodd" clip-rule="evenodd" d="M30.2843 40.7346C24.5016 40.7346 19.7966 36.03 19.7966 30.2477C19.7966 24.4649 24.5016 19.7607 30.2843 19.7607C36.0667 19.7607 40.7712 24.4657 40.7712 30.2477C40.7712 36.03 36.0667 40.7346 30.2843 40.7346ZM30.2843 21.3085C25.3556 21.3085 21.3452 25.3186 21.3452 30.2477C21.3452 35.1764 25.3552 39.1856 30.2843 39.1856C35.2126 39.1856 39.2223 35.176 39.2223 30.2477C39.2223 25.3186 35.2126 21.3085 30.2843 21.3085Z" fill="white"/>
<path fill-rule="evenodd" clip-rule="evenodd" d="M30.2328 31.0224H27.613C27.1856 31.0224 26.8387 30.6756 26.8387 30.2481V24.8026C26.8387 24.3752 27.1856 24.0283 27.613 24.0283H30.2328C34.8356 24.0283 34.834 31.0224 30.2328 31.0224ZM28.3873 29.4739C29.6959 29.4739 32.1813 29.8006 32.1813 27.5254C32.1813 25.2498 29.6966 25.5769 28.3873 25.5769V29.4739Z" fill="white"/>
<path fill-rule="evenodd" clip-rule="evenodd" d="M30.2328 36.4681H27.613C27.1856 36.4681 26.8387 36.1209 26.8387 35.6938V30.2479C26.8387 29.8205 27.1856 29.4736 27.613 29.4736H30.2328C34.8356 29.4736 34.834 36.4681 30.2328 36.4681ZM28.3873 34.9188C29.6966 34.9188 32.1813 35.2455 32.1813 32.9703C32.1813 30.6947 29.6966 31.0218 28.3873 31.0218V34.9192V34.9188Z" fill="white"/>
<path fill-rule="evenodd" clip-rule="evenodd" d="M29.7865 37.6693C28.8136 37.6693 29.0122 36.495 29.0122 35.6941C29.0122 34.6747 30.5607 34.6751 30.5607 35.6941C30.5607 36.4958 30.7593 37.6693 29.7865 37.6693Z" fill="white"/>
<path fill-rule="evenodd" clip-rule="evenodd" d="M29.7865 25.577C28.8136 25.577 29.0122 24.4032 29.0122 23.6014C29.0122 22.5821 30.5607 22.5821 30.5607 23.6014C30.5607 24.404 30.7593 25.577 29.7865 25.577Z" fill="white"/>
</svg>
