<svg width="1265" height="1017" viewBox="0 0 1265 1017" fill="none" xmlns="http://www.w3.org/2000/svg">
<g clip-path="url(#clip0_106_8585)">
<mask id="mask0_106_8585" style="mask-type:luminance" maskUnits="userSpaceOnUse" x="79" y="-149" width="1469" height="955">
<path d="M96.8571 619.4C150.345 760.539 308.123 831.595 449.283 778.099C464.813 772.214 479.527 765.056 493.273 756.802C535.3 800.846 601.164 817.976 661.673 795.045C716.398 774.306 752.645 726.125 760.791 672.102C827.328 694.993 901.952 695.644 972.899 668.757C990.924 661.926 1007.93 653.611 1023.85 644.007C1078.8 671.049 1144.42 676.144 1206.21 652.728C1317.71 610.471 1376.99 490.569 1345.91 377.875C1353.81 376.2 1361.67 373.916 1369.44 370.97C1451.43 339.897 1492.72 248.219 1461.65 166.226C1460.03 161.95 1458.2 157.825 1456.29 153.781C1530.61 118.855 1566.69 32.0271 1537.09 -46.0672C1506.02 -128.06 1414.34 -169.348 1332.35 -138.275C1250.36 -107.202 1209.07 -15.5237 1240.14 66.469C1241.76 70.7447 1243.57 74.8781 1245.51 78.914C1192.32 103.911 1158.77 155.458 1154.8 211.397C1145.33 210.142 1135.74 209.488 1126.09 209.453C1048.39 86.596 892.671 31.0842 751.511 84.5802C640.134 126.789 566.954 225.832 552.43 336.202C478.995 257.416 362.51 226.44 255.576 266.966C114.416 320.462 43.3609 478.239 96.8571 619.4Z" fill="white"/>
</mask>
<g mask="url(#mask0_106_8585)">
<path d="M-41.8673 1319.96C-41.8673 1319.96 -47.8716 1232.71 -20.5338 1220.6C6.7961 1208.47 32.3976 1262.05 67.6473 1251.4C102.918 1240.74 119.298 1228.49 110.91 1152.28C102.552 1076.09 93.0921 1075.29 84.1002 944.418C75.1083 813.549 68.5502 786.504 134.7 747.149C200.858 707.815 274.336 775.08 356.563 878.459C438.782 981.816 475.997 1045.23 515.63 1052.6C555.271 1059.99 543.148 1020.41 556.344 984.579C569.541 948.753 564.494 921.016 599.752 910.386C635.022 899.728 634.209 865.137 635.801 774.528C637.393 683.92 596.816 617.01 641.857 612.021C686.89 607.012 661.786 583.208 768.109 695.839C874.44 808.492 881.841 825.174 949.957 859.883" stroke="#0D1B36" stroke-width="0.64" stroke-miterlimit="10"/>
<path d="M-42.1506 1316.81C-42.1506 1316.81 -48.3104 1230.1 -21.3829 1217.66C5.48162 1205.25 30.7495 1257.95 65.5657 1247.11C98.0099 1236.9 114.206 1225.37 110.048 1162.85C109.741 1158.24 109.338 1153.38 108.816 1148.21C101.397 1072.6 92.6981 1072.73 84.315 943.402C75.861 814.079 69.5118 786.763 135.086 747.722C147.055 740.598 159.251 736.982 171.745 736.49C220.231 734.582 272.417 778.995 328.774 845.102C337.614 855.463 346.569 866.379 355.64 877.73C437.113 980.004 474.287 1042.93 513.936 1050.15C553.471 1057.38 541.705 1018.05 554.881 982.234C567.18 948.785 563.61 922.286 591.915 910.073C593.77 909.274 595.79 908.532 597.933 907.864C632.888 896.75 632.023 861.771 633.744 771.881C634.097 755.927 633.184 740.741 631.744 726.569C624.748 660.356 604.194 614.91 641.512 611.361C677.057 608.006 668.928 593.325 715.687 639.987C728.749 653.014 745.403 669.761 768.631 694.18C874.512 805.517 882.102 822.511 949.578 857.175" stroke="#0D1B36" stroke-width="0.64" stroke-miterlimit="10"/>
<path d="M-41.9297 1311.07C-41.9297 1311.07 -48.245 1224.9 -21.7409 1212.17C4.66626 1199.5 29.6533 1251.39 63.9753 1240.25C96.0358 1229.85 111.95 1218.02 108.285 1156.11C108.014 1151.54 107.67 1146.71 107.222 1141.6C100.557 1066.59 92.7953 1067.61 85.0209 939.827C77.0838 812.057 70.9646 784.463 135.934 745.723C147.798 738.638 159.932 735.046 172.312 734.573C220.576 732.774 272.508 776.707 328.424 842.094C337.204 852.358 346.119 863.169 355.13 874.424C435.877 975.607 472.99 1038.05 512.645 1045.1C552.096 1052.18 540.696 1013.11 553.814 977.269C566.027 943.973 562.548 917.463 590.559 904.978C592.406 904.158 594.376 903.411 596.511 902.722C631.162 891.124 629.993 855.781 632.104 766.606C632.486 750.665 631.78 735.52 630.501 721.455C624.415 655.808 604.093 611.04 641.584 608.074C677.343 605.284 668.971 591.415 716.179 636.924C729.585 649.844 746.04 665.372 769.542 689.879C874.938 799.938 882.752 817.207 949.595 851.847" stroke="#0D1B36" stroke-width="0.64" stroke-miterlimit="10"/>
<path d="M-41.2316 1302.92C-41.2316 1302.92 -47.7104 1217.26 -21.6218 1204.26C4.29914 1191.32 28.9894 1242.37 62.862 1230.99C94.5519 1220.37 110.163 1208.25 107.02 1146.95C106.786 1142.41 106.486 1137.64 106.096 1132.56C100.27 1058.11 93.3696 1060.08 86.1959 933.821C78.7969 807.597 72.8945 779.752 137.279 741.306C149.06 734.253 161.089 730.701 173.407 730.251C221.468 728.552 273.098 772.002 328.602 836.682C337.342 846.84 346.196 857.555 355.175 868.725C435.169 968.804 472.227 1030.79 511.89 1037.67C551.235 1044.59 540.192 1005.78 553.268 969.949C565.417 936.797 562.03 910.276 589.733 897.548C591.551 896.716 593.521 895.969 595.612 895.225C629.959 883.143 628.604 847.438 630.965 758.983C631.397 743.047 630.877 727.952 629.73 713.981C624.432 648.898 604.452 604.84 642.149 602.419C678.123 600.195 669.52 587.108 717.165 631.492C730.914 644.307 747.192 658.608 770.953 683.232C875.886 792.004 883.903 809.556 950.127 844.143" stroke="#0D1B36" stroke-width="0.64" stroke-miterlimit="10"/>
<path d="M-40.029 1292.49C-40.029 1292.49 -46.6842 1207.38 -21.006 1194.06C4.45757 1180.86 28.8222 1231.05 62.2533 1219.45C93.5436 1208.6 108.868 1196.23 106.267 1135.54C106.07 1131.04 105.828 1126.29 105.483 1121.26C100.504 1047.41 94.4564 1050.3 87.8915 925.58C81.0304 800.902 75.3369 772.787 139.138 734.633C150.843 727.633 162.78 724.092 175.006 723.653C222.845 722.062 274.213 765.012 329.284 828.993C337.955 839.034 346.799 849.657 355.726 860.751C435.192 959.567 471.99 1021.25 511.66 1027.95C550.9 1034.73 540.215 996.157 553.262 960.316C565.325 927.317 562.037 900.806 589.437 887.785C591.247 886.932 593.212 886.235 595.25 885.415C628.881 871.759 627.776 836.775 630.377 749.019C630.859 733.089 630.505 718.05 629.539 704.178C625.038 639.68 605.383 596.29 643.273 594.443C679.462 592.785 670.657 580.493 718.739 623.753C732.852 636.454 748.903 649.523 772.945 674.256C877.364 781.737 885.627 799.555 951.226 834.139" stroke="#0D1B36" stroke-width="0.64" stroke-miterlimit="10"/>
<path d="M-38.3153 1280C-38.3153 1280 -45.147 1195.44 -19.8712 1181.81C5.11402 1168.36 29.1949 1217.67 62.1556 1205.85C93.0673 1194.76 108.118 1182.11 105.997 1122.05C105.837 1117.58 105.652 1112.86 105.373 1107.88C101.24 1034.62 96.0463 1038.43 90.0823 915.234C83.746 792.131 78.2614 763.744 141.499 725.876C153.099 718.915 164.952 715.406 177.116 714.991C224.753 713.501 275.846 755.979 330.478 819.24C339.109 829.176 347.905 839.673 356.779 850.692C435.575 948.372 472.274 1009.54 511.941 1016.17C551.115 1022.71 540.769 984.466 553.774 948.64C565.751 915.793 562.576 889.264 589.661 875.979C591.441 875.113 593.407 874.416 595.408 873.562C628.598 859.186 627.445 824.076 630.295 737.041C630.828 721.116 630.639 706.134 629.833 692.37C626.129 628.456 606.82 585.726 644.904 584.452C681.328 583.352 672.334 571.828 720.79 613.987C735.247 626.582 751.12 638.423 775.415 663.253C879.357 769.476 887.836 787.548 952.795 822.087" stroke="#0D1B36" stroke-width="0.64" stroke-miterlimit="10"/>
<path d="M-36.0965 1265.62C-36.0965 1265.62 -43.1126 1181.58 -18.2313 1167.67C6.2677 1153.95 30.3349 1203.1 62.5631 1190.36C92.8369 1178.41 107.852 1166.1 106.252 1106.66C106.129 1102.23 105.99 1097.56 105.776 1092.63C102.49 1019.95 98.1284 1024.7 92.7941 903.036C86.9957 781.479 81.7201 752.821 144.353 715.255C155.848 708.334 167.639 704.848 179.71 704.444C227.117 703.041 277.936 745.048 332.155 807.602C340.726 817.442 349.49 827.855 358.324 838.769C436.43 935.32 473.024 996.021 512.707 1002.51C551.796 1008.88 541.795 970.917 554.771 935.079C566.683 902.377 563.579 875.844 590.368 862.288C592.12 861.409 594.085 860.712 596.05 859.824C628.813 844.699 627.628 809.505 630.698 723.178C631.259 707.265 631.249 692.312 630.625 678.647C627.697 615.326 608.73 573.185 647.019 572.577C683.654 571.972 674.525 561.29 723.333 602.357C738.175 614.829 753.8 625.447 778.376 650.385C881.792 755.346 890.515 773.684 954.863 808.191" stroke="#0D1B36" stroke-width="0.64" stroke-miterlimit="10"/>
<path d="M-33.3794 1249.51C-33.3794 1249.51 -40.5721 1166.02 -16.0932 1151.81C7.92748 1137.84 31.7506 1186.21 63.4687 1173.14C93.3243 1160.84 108.092 1148.39 106.985 1089.56C106.899 1085.16 106.817 1080.51 106.669 1075.63C104.222 1003.52 100.997 1009.18 95.9881 889.074C90.99 769.059 85.64 740.142 147.697 702.89C159.116 696.021 170.794 692.555 182.802 692.175C230.008 690.872 280.552 732.407 334.331 794.242C342.862 803.976 351.586 814.285 360.368 825.123C437.774 920.525 474.28 980.804 513.97 987.119C552.946 993.322 543.31 955.626 556.258 919.775C568.091 887.246 565.1 860.695 591.574 846.874C593.318 845.974 595.201 845.188 597.182 844.342C630.358 830.307 628.292 793.17 631.612 707.563C632.223 691.656 632.378 676.76 631.935 663.193C629.796 600.437 611.184 558.976 649.666 558.942C686.516 558.903 677.26 548.964 726.401 588.946C741.615 601.325 757.012 610.711 781.861 635.738C884.751 739.435 893.74 758.033 957.448 792.495" stroke="#0D1B36" stroke-width="0.64" stroke-miterlimit="10"/>
<path d="M-30.1515 1231.85C-30.1515 1231.85 -37.5206 1148.9 -13.4521 1134.36C10.0903 1120.14 33.3149 1166.88 64.8774 1154.34C94.6324 1142.54 108.849 1129.07 108.242 1070.86C108.193 1066.5 108.177 1061.9 108.065 1057.05C106.479 985.506 104.122 992.128 99.6931 873.552C95.2539 755.075 90.0999 725.916 151.565 688.936C162.879 682.107 174.486 678.643 186.39 678.303C233.393 677.101 283.512 718.27 336.981 779.288C345.43 788.933 354.136 799.129 362.885 809.883C439.6 904.157 476.003 963.971 515.708 970.137C554.599 976.18 545.321 938.732 558.227 902.897C569.974 870.52 567.096 843.951 593.254 829.867C594.969 828.953 596.844 828.146 598.796 827.287C631.689 812.76 629.439 775.261 632.987 690.383C633.648 674.481 633.969 659.642 633.678 646.161C632.315 583.998 614.048 543.197 652.745 543.729C689.83 544.248 680.469 535.044 729.929 573.97C745.515 586.256 760.699 594.38 785.816 619.546C888.166 722.01 897.434 740.837 960.53 775.267" stroke="#0D1B36" stroke-width="0.64" stroke-miterlimit="10"/>
<path d="M-26.3979 1212.78C-26.3979 1212.78 -33.9644 1130.39 -10.2774 1115.54C12.7866 1101.07 35.7275 1146.93 66.8196 1134.17C96.196 1122.12 110.118 1108.39 110.033 1050.79C110.02 1046.46 110.041 1041.9 110.003 1037.12C109.263 966.162 107.802 973.691 103.932 856.653C100.08 739.727 95.0853 710.292 155.974 673.626C167.205 666.829 178.707 663.405 190.548 663.089C237.329 661.995 287.164 702.672 340.222 762.983C348.61 772.531 357.276 782.622 365.986 793.271C442.01 886.417 478.317 945.789 518.029 951.784C556.836 957.667 547.894 920.475 560.771 884.627C572.453 852.395 569.63 825.78 595.509 811.466C597.216 810.532 599.063 809.712 600.985 808.84C633.597 793.82 631.162 755.961 634.958 671.803C635.669 655.906 636.176 641.116 636.046 627.742C635.48 566.164 617.559 526.023 656.428 527.136C693.72 528.2 684.304 519.736 734.033 557.602C750.005 569.766 764.948 576.687 790.338 601.94C892.149 703.171 901.688 722.207 964.151 756.613" stroke="#0D1B36" stroke-width="0.64" stroke-miterlimit="10"/>
<path d="M-22.1393 1192.52C-22.1393 1192.52 -29.8824 1110.67 -6.59776 1095.52C15.9749 1080.83 38.6241 1125.8 69.2748 1112.81C98.2646 1100.51 111.92 1086.51 112.315 1029.56C112.339 1025.26 112.426 1020.74 112.425 1016C112.545 945.6 111.945 954.073 108.654 838.564C105.37 723.198 100.555 693.478 160.839 657.114C171.972 650.377 183.396 646.935 195.153 646.65C241.713 645.544 291.251 685.879 343.91 745.453C352.251 754.876 360.885 764.883 369.542 775.457C444.896 867.466 481.078 926.382 520.792 932.257C559.506 937.959 550.918 901.065 563.765 865.203C575.362 833.124 572.63 806.499 598.223 791.934C599.901 790.986 601.747 790.167 603.654 789.252C635.975 773.72 633.371 735.54 637.388 652.09C638.148 636.198 638.821 621.466 638.851 608.199C639.061 547.213 621.478 507.711 660.57 509.412C698.097 511.034 688.639 503.28 738.603 540.122C754.968 552.185 769.655 557.861 795.326 583.223C896.597 683.22 906.415 702.486 968.247 736.868" stroke="#0D1B36" stroke-width="0.64" stroke-miterlimit="10"/>
<path d="M-17.3553 1171.24C-17.3553 1171.24 -25.2958 1089.95 -2.40062 1074.47C19.6937 1059.53 42.0591 1103.62 72.2394 1090.41C100.838 1077.89 114.233 1063.58 115.136 1007.27C115.197 1003.01 115.341 998.519 115.406 993.82C116.365 923.993 116.655 933.423 113.944 819.445C111.211 705.595 106.563 675.621 166.292 639.563C177.341 632.858 188.66 629.456 200.354 629.195C246.713 628.189 295.956 668.061 348.195 726.907C356.475 736.233 365.069 746.135 373.695 756.625C448.349 847.485 484.443 905.979 524.165 911.683C562.773 917.233 554.563 880.58 567.369 844.734C578.879 812.807 576.26 786.163 601.537 771.334C603.208 770.366 605.025 769.533 606.895 768.585C638.954 752.552 636.144 714.019 640.39 631.298C641.2 615.41 642.038 600.735 642.242 587.547C643.236 527.174 626.012 488.304 665.276 490.586C703.018 492.774 693.551 485.695 743.73 521.52C760.516 533.495 774.926 537.934 800.871 563.385C901.56 662.164 911.699 681.643 972.89 715.98" stroke="#0D1B36" stroke-width="0.64" stroke-miterlimit="10"/>
<path d="M-12.0465 1149.07C-12.0465 1149.07 -20.1765 1068.36 2.3293 1052.54C23.9323 1037.38 46.027 1080.56 75.7369 1067.12C103.949 1054.35 117.078 1039.78 118.461 984.106C118.572 979.845 118.761 975.411 118.871 970.767C120.689 901.501 121.861 911.868 119.709 799.427C117.571 687.149 113.09 656.92 172.227 621.134C183.172 614.469 194.428 611.091 206.009 610.848C252.159 609.922 301.106 649.33 352.933 707.47C361.153 716.699 369.708 726.497 378.293 736.881C452.256 826.613 488.246 884.643 527.983 890.197C566.499 895.567 558.634 859.19 571.411 823.332C582.864 791.57 580.308 764.902 605.29 749.802C606.931 748.82 608.72 747.974 610.561 747.013C642.351 730.459 639.364 691.586 643.838 609.593C644.698 593.711 645.694 579.072 646.086 566.003C647.856 506.224 630.978 468.013 670.464 470.882C708.442 473.628 698.968 467.223 749.368 502.054C766.548 513.928 780.701 517.121 806.927 542.681C907.056 640.234 917.495 659.936 978.054 694.249" stroke="#0D1B36" stroke-width="0.64" stroke-miterlimit="10"/>
<path d="M-6.21799 1126.25C-6.21799 1126.25 -14.5664 1046.1 7.57885 1029.96C28.6826 1014.56 50.5145 1056.86 79.7541 1043.19C107.608 1030.17 120.442 1015.33 122.326 960.277C122.474 956.051 122.708 951.671 122.896 947.046C125.574 878.341 127.615 889.672 126.044 778.762C124.444 668.03 120.151 637.538 178.704 602.045C189.573 595.433 200.708 592.052 212.234 591.854C258.153 591.015 306.834 629.973 358.241 687.385C366.421 696.51 374.936 706.202 383.448 716.519C456.72 805.123 492.614 862.71 532.358 868.093C570.79 873.304 563.261 837.183 576.017 801.332C587.384 769.723 584.941 743.036 609.607 727.672C611.22 726.677 613.001 725.81 614.833 724.828C646.354 707.753 643.177 668.569 647.863 587.262C648.773 571.385 649.934 556.803 650.487 543.842C653.012 484.663 636.522 447.096 676.181 450.547C714.373 453.858 704.932 448.112 755.505 481.943C773.099 493.708 786.983 495.685 813.511 521.346C913.067 617.702 923.797 637.605 983.745 671.886" stroke="#0D1B36" stroke-width="0.64" stroke-miterlimit="10"/>
<path d="M0.148433 1102.89C0.148433 1102.89 -8.38948 1023.31 13.3585 1006.82C33.9709 991.197 55.532 1032.59 84.3012 1018.7C111.777 1005.43 124.358 990.308 126.7 935.896C126.885 931.704 127.177 927.351 127.418 922.801C130.948 854.636 133.879 866.924 132.866 757.552C131.862 648.392 127.728 617.624 185.676 582.432C196.44 575.86 207.512 572.503 218.947 572.316C264.664 571.577 313.029 610.08 364.038 666.756C372.157 675.784 380.632 685.371 389.112 695.605C461.672 783.088 497.491 840.224 537.25 845.458C575.597 850.508 568.348 814.617 581.132 778.779C592.356 747.297 590.062 720.625 614.441 705.01C616.046 703.994 617.806 703.136 619.602 702.12C650.853 684.523 647.499 644.998 652.413 564.42C653.373 548.548 654.7 534.023 655.426 521.14C658.735 462.575 642.583 425.647 682.456 429.664C720.884 433.534 711.477 428.446 762.209 461.305C780.225 472.982 793.824 473.701 820.633 499.471C919.594 594.638 930.659 614.726 989.987 648.954" stroke="#0D1B36" stroke-width="0.64" stroke-miterlimit="10"/>
<path d="M7.04211 1079.21C7.04211 1079.21 -1.70629 1000.21 19.6732 983.384C39.7943 967.537 61.0847 1008.03 89.3835 993.903C116.48 980.398 128.788 964.995 131.631 911.209C131.852 907.05 132.202 902.723 132.488 898.228C136.878 830.625 140.678 843.878 140.245 736.036C139.799 628.414 135.853 597.383 193.225 562.505C203.906 555.964 214.873 552.647 226.237 552.463C271.745 551.804 319.821 589.864 370.411 645.813C378.469 654.743 386.905 664.226 395.345 674.355C467.214 760.71 502.929 817.381 542.703 822.466C580.937 827.344 574.053 791.721 586.796 755.9C597.933 724.57 595.731 697.887 619.816 682C621.392 680.972 623.143 680.092 624.911 679.063C655.913 660.938 652.37 621.101 657.483 541.239C658.492 525.372 659.993 510.925 660.892 498.12C664.956 440.155 649.192 403.871 689.238 408.47C727.872 412.884 718.562 408.431 769.411 440.335C787.841 451.903 801.171 451.405 828.253 477.264C926.62 571.242 938.018 591.516 996.706 625.698" stroke="#0D1B36" stroke-width="0.64" stroke-miterlimit="10"/>
<path d="M14.4877 1055.34C14.4877 1055.34 5.52881 976.928 26.5398 959.761C46.1775 943.713 67.2102 983.274 95.0256 968.946C121.736 955.18 133.799 939.51 137.121 886.357C137.38 882.232 137.795 877.952 138.139 873.484C143.388 806.441 148.049 820.638 148.175 714.334C148.297 608.271 144.531 576.956 201.319 542.371C211.902 535.891 222.799 532.577 234.079 532.425C279.356 531.853 327.158 569.442 377.336 624.684C385.347 633.489 393.751 642.888 402.138 652.94C473.308 738.146 508.913 794.403 548.695 799.318C586.845 804.036 580.297 768.669 593.011 732.834C604.083 701.649 601.973 674.956 625.742 658.805C627.31 657.755 629.033 656.863 630.763 655.799C661.489 637.132 657.776 596.976 663.117 517.842C664.177 501.98 665.813 487.578 666.895 474.871C671.721 417.529 656.316 381.876 696.577 387.04C735.425 392.021 726.203 388.181 777.199 419.143C796.064 430.594 809.096 428.867 836.459 454.835C934.211 547.632 945.956 568.061 1004.02 602.241" stroke="#0D1B36" stroke-width="0.64" stroke-miterlimit="10"/>
<path d="M22.4451 1031.49C22.4451 1031.49 13.2758 953.665 33.9104 936.138C53.0567 919.869 73.8187 958.526 101.185 943.96C127.516 929.954 139.318 913.976 143.107 861.485C143.403 857.395 143.855 853.148 144.272 848.748C150.395 782.237 155.933 797.42 156.61 692.633C157.298 588.129 153.72 556.551 209.903 522.267C220.403 515.819 231.187 512.524 242.383 512.403C287.458 511.932 334.965 549.058 384.723 603.571C392.673 612.279 401.037 621.574 409.393 631.542C479.871 715.62 515.373 771.413 555.17 776.178C593.235 780.736 587.032 745.647 599.717 709.799C610.704 678.766 608.685 652.062 632.167 635.66C633.706 634.598 635.421 633.684 637.123 632.608C667.6 613.411 663.697 572.944 669.237 494.525C670.368 478.661 672.149 464.323 673.412 451.716C678.993 394.974 663.976 359.965 704.409 365.711C743.492 371.25 734.373 367.994 785.452 398.038C804.76 409.393 817.494 406.437 845.13 432.493C942.266 524.109 954.366 544.716 1011.79 578.85" stroke="#0D1B36" stroke-width="0.64" stroke-miterlimit="10"/>
<path d="M30.9703 1007.82C30.9703 1007.82 21.5905 930.572 41.8567 912.705C60.5197 896.236 80.995 933.946 107.878 919.18C133.852 904.926 145.38 888.669 149.649 836.811C149.973 832.733 150.491 828.534 150.953 824.188C157.927 758.218 164.334 774.366 165.599 671.129C166.875 568.176 163.435 536.33 219.055 502.332C229.45 495.924 240.171 492.652 251.283 492.563C296.149 492.171 343.369 528.855 392.707 582.641C400.597 591.252 408.921 600.441 417.237 610.305C487.003 693.263 522.43 748.605 562.242 753.22C600.194 757.606 594.377 722.777 607.012 686.924C617.913 656.043 616.007 629.321 639.173 612.655C640.683 611.58 642.39 610.645 644.063 609.556C674.284 589.809 670.22 549.043 675.938 471.348C677.119 455.489 679.073 441.229 680.488 428.708C686.833 372.588 672.183 338.231 712.83 344.543C752.128 350.647 743.131 347.969 794.294 377.094C814.037 388.332 826.481 384.167 854.398 410.333C950.919 500.768 963.373 521.551 1020.16 555.662" stroke="#0D1B36" stroke-width="0.64" stroke-miterlimit="10"/>
<path d="M40.0418 984.51C40.0418 984.51 30.4595 907.867 50.3493 889.639C68.5289 872.97 88.7465 909.748 115.138 894.76C140.725 880.246 152.009 863.721 156.736 812.504C157.118 808.453 157.681 804.308 158.201 799.989C166.056 734.571 173.311 751.692 175.148 649.965C176.99 548.571 173.731 516.441 228.754 482.765C239.065 476.388 249.681 473.156 260.722 473.071C305.386 472.779 352.282 508.986 401.229 562.057C409.079 570.563 417.364 579.648 425.627 589.436C494.702 671.265 530.033 726.165 569.852 730.609C607.719 734.835 602.24 700.262 614.854 664.417C625.668 633.689 623.862 606.976 646.726 590.018C648.22 588.901 649.885 587.982 651.55 586.872C681.514 566.575 677.26 525.498 683.207 448.531C684.437 432.677 686.557 418.474 688.146 406.031C695.253 350.533 680.983 316.799 721.803 323.693C761.336 330.355 752.475 328.224 803.695 356.489C823.881 367.631 835.997 362.224 864.217 388.49C960.109 477.774 972.932 498.705 1029.08 532.771" stroke="#0D1B36" stroke-width="0.64" stroke-miterlimit="10"/>
<path d="M49.6456 961.719C49.6456 961.719 39.8608 885.68 59.3662 867.071C77.0494 850.23 96.9934 886.033 122.943 870.829C148.165 856.045 159.204 839.254 164.398 788.7C164.816 784.682 165.437 780.564 166.002 776.299C174.73 711.414 182.862 729.521 185.257 629.331C187.667 529.496 184.595 497.103 239.026 463.699C249.241 457.383 259.786 454.154 270.743 454.1C315.177 453.896 361.806 489.653 410.334 541.996C418.123 550.405 426.368 559.385 434.6 569.089C502.983 649.79 538.21 704.226 578.045 708.521C615.827 712.587 610.684 678.27 623.277 642.433C634.005 611.857 632.291 585.134 654.86 567.904C656.325 566.773 657.983 565.833 659.618 564.71C689.318 543.843 684.89 502.496 691.036 426.245C692.316 410.395 694.602 396.25 696.372 383.906C704.221 329.037 690.331 295.926 731.365 303.386C771.113 310.614 762.409 309.023 813.699 336.398C834.341 347.415 846.147 340.808 874.639 367.163C969.895 455.273 983.093 476.374 1038.63 510.408" stroke="#0D1B36" stroke-width="0.64" stroke-miterlimit="10"/>
<path d="M59.8016 939.629C59.8016 939.629 49.7933 864.202 68.9433 845.224C86.143 828.183 105.8 863.04 131.267 847.636C156.11 832.612 166.909 815.504 172.569 765.612C173.025 761.628 173.711 757.557 174.321 753.347C183.922 688.994 192.902 708.074 195.877 609.414C198.846 511.117 196.01 478.587 249.796 445.38C259.935 439.116 270.359 435.885 281.254 435.855C325.486 435.751 371.819 471.045 419.927 522.66C427.656 530.973 435.861 539.848 444.061 549.468C511.732 629.048 546.884 683.033 586.726 687.157C624.403 691.072 619.618 657.003 632.182 621.153C642.845 590.722 641.223 563.987 663.484 546.514C664.941 545.363 666.569 544.41 668.168 543.253C697.612 521.836 693.023 480.19 699.368 404.654C700.698 388.81 703.128 374.73 705.079 362.485C713.671 308.246 700.181 275.75 741.409 283.784C781.372 291.578 772.845 290.519 824.171 317.041C845.269 327.933 856.756 320.104 885.529 346.568C980.136 433.534 993.694 454.763 1048.62 488.765" stroke="#0D1B36" stroke-width="0.64" stroke-miterlimit="10"/>
<path d="M70.5263 918.402C70.5263 918.402 60.3155 843.58 79.0891 824.241C95.7924 807.029 115.205 840.923 140.209 825.311C164.687 810.019 175.22 792.652 181.339 743.401C181.831 739.451 182.555 735.414 183.251 731.243C193.724 667.422 203.561 687.496 207.116 590.366C210.651 493.628 207.995 460.814 261.198 427.9C271.239 421.697 281.572 418.477 292.383 418.478C336.405 418.454 382.443 453.284 430.14 504.192C437.82 512.38 445.994 521.171 454.133 530.694C521.113 609.146 556.169 662.688 596.018 666.642C633.611 670.396 629.162 636.583 641.705 600.741C652.282 570.463 650.752 543.717 672.718 525.973C674.147 524.808 675.767 523.835 677.337 522.664C706.516 500.676 701.774 458.753 708.298 383.941C709.678 368.101 712.273 354.078 714.398 341.912C723.723 288.281 710.622 256.429 752.043 265.037C792.241 273.389 783.883 272.841 835.225 298.518C856.787 309.306 867.934 300.264 897.001 326.809C990.959 412.631 1004.91 433.999 1059.2 467.977" stroke="#0D1B36" stroke-width="0.64" stroke-miterlimit="10"/>
<path d="M81.8177 898.232C81.8177 898.232 71.3914 824.042 89.7937 804.293C106.022 786.901 125.14 819.829 149.66 804.016C173.772 788.455 184.081 770.813 190.638 722.211C191.16 718.274 191.949 714.284 192.69 710.168C204.057 646.871 214.729 667.947 218.855 572.327C222.958 477.147 220.489 444.07 273.108 411.449C283.066 405.279 293.314 402.09 304.034 402.102C347.854 402.178 393.597 436.545 440.853 486.733C448.473 494.824 456.607 503.51 464.693 512.958C530.953 590.269 565.934 643.359 605.785 647.192C643.265 650.774 639.202 617.222 651.696 581.375C662.187 551.249 660.769 524.485 682.42 506.476C683.819 505.299 685.44 504.325 686.973 503.121C715.908 480.554 710.984 438.34 717.686 364.251C719.116 348.417 721.877 334.451 724.162 322.391C734.23 269.391 721.529 238.154 763.143 247.335C803.556 256.253 795.41 256.2 846.754 281.061C868.773 291.725 879.6 281.461 908.956 308.136C1002.25 392.843 1016.6 414.323 1070.26 448.276" stroke="#0D1B36" stroke-width="0.64" stroke-miterlimit="10"/>
<path d="M93.6487 879.294C93.6487 879.294 83.0068 805.738 101.046 785.599C116.777 768.036 135.643 799.98 159.701 783.96C183.434 768.158 193.503 750.2 200.506 702.268C201.085 698.357 201.919 694.422 202.697 690.34C214.937 627.575 226.478 649.616 231.163 555.534C235.833 461.913 233.552 428.573 285.558 396.232C295.411 390.101 305.576 386.944 316.232 386.981C359.822 387.144 405.298 421.061 452.127 470.5C459.707 478.486 467.78 487.075 475.835 496.439C541.382 572.629 576.267 625.277 616.147 628.932C653.542 632.354 649.816 599.058 662.289 563.219C672.694 533.245 671.367 506.47 692.723 488.19C694.115 486.991 695.707 486.004 697.211 484.787C725.882 461.649 720.805 419.158 727.706 345.785C729.186 329.955 732.091 316.055 734.57 304.065C745.38 251.694 733.067 221.101 774.875 230.856C815.523 240.332 807.56 240.761 858.928 264.799C881.423 275.33 891.897 263.881 921.569 290.628C1014.21 374.191 1028.95 395.811 1081.98 429.72" stroke="#0D1B36" stroke-width="0.64" stroke-miterlimit="10"/>
<path d="M106.053 861.745C106.053 861.745 95.209 788.793 112.872 768.293C128.136 750.572 146.72 781.521 170.294 765.3C193.662 749.229 203.507 730.996 210.948 683.713C211.564 679.836 212.455 675.927 213.307 671.913C226.441 609.673 238.817 632.715 244.082 540.163C249.318 448.102 247.197 414.485 298.647 382.451C308.424 376.373 318.498 373.226 329.062 373.274C372.451 373.537 417.631 406.991 464.04 455.702C471.56 463.591 479.614 472.068 487.608 481.335C552.464 556.397 587.253 608.602 627.14 612.086C664.451 615.348 661.07 582.329 673.484 546.464C683.832 516.655 682.598 489.87 703.638 471.325C705.001 470.114 706.584 469.106 708.052 467.855C736.451 444.125 731.228 401.377 738.308 328.727C739.858 312.895 742.908 299.059 745.569 287.169C757.099 235.436 745.208 205.45 787.21 215.779C828.08 225.842 820.334 226.716 871.691 249.967C894.642 260.372 904.806 247.724 934.75 274.559C1026.71 356.993 1041.87 378.738 1094.28 412.594" stroke="#0D1B36" stroke-width="0.64" stroke-miterlimit="10"/>
<path d="M119.047 845.748C119.047 845.748 107.995 773.449 125.307 752.531C140.082 734.659 158.385 764.612 181.497 748.183C204.499 731.843 214.092 713.323 222.007 666.723C222.66 662.88 223.609 658.997 224.505 655.037C238.533 593.321 251.744 617.366 257.581 526.323C263.384 435.82 261.451 401.941 312.288 370.186C321.961 364.148 331.942 361.012 342.43 361.112C385.609 361.455 430.495 394.445 476.492 442.45C483.951 450.242 491.965 458.614 499.928 467.797C564.072 541.739 598.778 593.472 638.68 596.806C675.885 599.917 672.861 567.146 685.255 531.289C695.517 501.633 694.374 474.836 715.12 456.02C716.474 454.788 718.029 453.767 719.468 452.503C747.616 428.173 742.227 385.176 749.506 313.242C751.106 297.415 754.308 283.665 757.142 271.853C769.394 220.757 757.904 191.387 800.099 202.289C841.205 212.91 833.675 214.23 885 236.701C908.429 246.974 918.231 233.12 948.478 260.057C1039.77 341.376 1055.34 363.232 1107.11 397.064" stroke="#0D1B36" stroke-width="0.64" stroke-miterlimit="10"/>
<path d="M132.594 831.529C132.594 831.529 121.326 759.864 138.267 738.535C152.575 720.504 170.596 749.461 193.204 732.84C215.841 716.231 225.209 697.436 233.541 651.493C234.223 647.663 235.246 643.848 236.179 639.923C251.1 578.731 265.138 603.756 271.564 514.264C277.933 425.321 276.18 391.157 326.441 359.717C336.03 353.711 345.927 350.607 356.324 350.718C399.281 351.169 443.891 383.688 489.469 430.965C496.888 438.652 504.842 446.927 512.772 456.026C576.204 528.848 610.835 580.13 650.753 583.314C687.873 586.265 685.186 553.75 697.559 517.901C707.735 488.397 706.684 461.59 727.135 442.502C728.461 441.257 730.007 440.215 731.417 438.938C759.292 414.016 753.78 370.755 761.216 299.552C762.866 283.73 766.234 270.037 769.241 258.303C782.214 207.845 771.146 179.081 813.534 190.558C854.854 201.745 847.583 203.494 898.864 225.215C922.761 235.334 932.219 220.317 962.759 247.333C1053.37 327.545 1069.35 349.484 1120.49 383.292" stroke="#0D1B36" stroke-width="0.64" stroke-miterlimit="10"/>
<path d="M146.715 819.203C146.715 819.203 135.239 748.191 151.809 726.452C165.657 708.284 183.389 736.224 205.542 719.415C227.806 702.517 236.979 683.46 245.727 638.174C246.467 634.37 247.506 630.597 248.526 626.711C264.362 566.035 279.214 592.07 286.211 504.087C293.148 416.702 291.582 382.276 341.252 351.108C350.744 345.162 360.549 342.069 370.875 342.183C413.622 342.714 457.945 374.79 503.103 421.34C510.454 428.909 518.397 437.092 526.267 446.094C588.986 517.796 623.521 568.634 663.467 571.641C700.482 574.44 698.174 542.165 710.497 506.31C720.607 476.951 719.648 450.133 739.791 430.803C741.088 429.544 742.627 428.481 744.008 427.191C771.632 401.67 765.953 358.16 773.567 287.68C775.267 271.863 778.78 258.236 781.969 246.601C795.641 196.788 785.003 168.653 827.577 180.682C869.112 192.435 862.07 194.6 913.327 215.563C937.723 225.542 946.819 209.319 977.649 236.466C1067.57 315.57 1083.96 337.62 1134.49 371.396" stroke="#0D1B36" stroke-width="0.64" stroke-miterlimit="10"/>
<path d="M161.409 808.96C161.409 808.96 149.747 738.595 165.924 716.452C179.284 698.134 196.726 725.057 218.404 708.069C240.302 690.902 249.243 671.549 258.416 626.941C259.193 623.172 260.289 619.424 261.362 615.614C278.092 555.462 293.779 582.499 301.348 496.025C308.851 410.199 307.466 375.489 356.539 344.644C365.947 338.729 375.669 335.668 385.911 335.814C428.456 336.445 472.475 368.037 517.222 413.879C524.512 421.352 532.415 429.43 540.253 438.349C602.261 508.93 636.721 559.318 676.674 562.153C713.604 564.793 711.633 532.774 723.935 496.927C733.959 467.72 733.1 440.913 752.94 421.289C754.229 420.01 755.731 418.913 757.091 417.631C784.435 391.496 778.64 347.743 786.432 277.987C788.203 262.167 791.839 248.613 795.23 237.069C809.616 187.872 799.407 160.365 842.175 172.969C883.945 185.279 877.154 187.853 928.375 208.087C953.239 217.911 961.99 200.525 993.114 227.752C1082.34 305.757 1099.17 327.903 1149.06 361.654" stroke="#0D1B36" stroke-width="0.64" stroke-miterlimit="10"/>
<path d="M176.699 800.984C176.699 800.984 164.838 731.294 180.628 708.699C193.528 690.243 210.681 716.15 231.875 698.961C253.407 681.525 262.146 661.89 271.736 617.939C272.549 614.203 273.711 610.503 274.842 606.718C292.486 547.083 308.988 575.13 317.137 490.186C325.207 405.919 323.988 370.954 372.49 340.372C381.793 334.498 391.431 331.468 401.603 331.617C443.917 332.335 487.67 363.477 531.997 408.592C539.247 415.959 547.09 423.941 554.896 432.776C616.191 502.236 650.576 552.173 690.516 554.846C727.341 557.334 725.727 525.563 738 489.703C747.938 460.649 747.192 433.822 766.716 413.935C767.976 412.643 769.449 411.533 770.793 410.209C797.857 383.461 791.946 339.465 799.896 270.44C801.716 254.625 805.518 241.128 809.061 229.67C824.147 181.119 814.36 154.219 857.33 167.417C899.314 180.294 892.774 183.276 943.95 202.76C969.304 212.423 977.689 193.88 1009.11 221.188C1097.62 298.093 1114.9 320.335 1164.17 354.033" stroke="#0D1B36" stroke-width="0.64" stroke-miterlimit="10"/>
<path d="M192.839 796.138C192.839 796.138 180.77 727.101 196.189 704.096C208.629 685.503 225.484 710.371 246.224 692.995C267.383 675.269 275.926 655.373 285.912 612.087C286.776 608.356 287.983 604.71 289.158 600.981C307.717 541.862 325.033 570.919 333.733 487.492C342.356 404.813 341.331 369.535 389.236 339.275C398.463 333.454 408.001 330.414 418.076 330.623C460.189 331.442 503.646 362.12 547.553 406.507C554.743 413.778 562.567 421.647 570.321 430.406C630.903 498.746 665.205 548.211 705.168 550.756C741.9 553.062 740.631 521.568 752.883 485.716C762.736 456.815 762.081 429.977 781.311 409.818C782.563 408.505 784.007 407.382 785.322 406.045C812.127 378.677 806.086 334.465 814.206 266.143C816.077 250.333 820.023 236.901 823.769 225.534C839.534 177.637 830.197 151.357 873.373 165.1C915.572 178.542 909.316 181.896 960.414 200.667C986.258 210.168 994.277 190.47 1025.99 217.858C1113.8 293.664 1131.52 316.001 1180.16 349.676" stroke="#0D1B36" stroke-width="0.64" stroke-miterlimit="10"/>
<path d="M209.656 794.151C209.656 794.151 197.408 725.781 212.426 702.352C224.416 683.643 240.965 707.453 261.23 689.898C282.023 671.902 290.376 651.694 300.766 609.094C301.666 605.397 302.931 601.778 304.151 598.104C323.646 539.493 341.755 569.567 351.034 487.67C360.225 406.55 359.388 371.009 406.701 341.022C415.823 335.24 425.277 332.232 435.281 332.444C477.184 333.342 520.347 363.558 563.842 407.238C570.992 414.403 578.755 422.176 586.469 430.829C646.34 498.05 680.546 547.071 720.537 549.438C757.163 551.593 756.26 520.367 768.475 484.482C778.263 455.724 777.679 428.884 796.622 408.474C797.845 407.148 799.281 406.004 800.567 404.654C827.091 376.673 820.934 332.218 829.212 264.627C831.132 248.822 835.223 235.455 839.163 224.158C855.62 176.886 846.735 151.226 890.083 165.551C932.517 179.551 926.497 183.271 977.552 201.363C1003.89 210.702 1011.51 189.836 1043.55 217.317C1130.64 292.052 1148.82 314.456 1196.82 348.086" stroke="#0D1B36" stroke-width="0.64" stroke-miterlimit="10"/>
<path d="M229.756 794.755C229.756 794.755 217.308 727.061 231.94 703.179C243.469 684.332 259.701 707.112 279.511 689.37C299.93 671.085 308.089 650.615 318.895 608.672C319.832 605.009 321.163 601.437 322.449 597.809C342.858 539.715 361.781 570.799 371.633 490.411C381.39 410.85 380.733 375.025 427.449 345.36C436.487 339.609 445.837 336.641 455.778 336.877C497.479 337.876 540.346 367.628 583.422 410.58C590.511 417.649 598.234 425.316 605.917 433.886C665.054 499.994 699.206 548.557 739.204 550.753C775.747 552.748 775.201 521.77 787.374 485.901C797.083 457.317 796.612 430.458 815.231 409.763C816.426 408.424 817.854 407.259 819.111 405.896C845.347 377.281 839.082 332.603 847.509 265.723C849.5 249.915 853.722 236.642 857.836 225.423C874.972 178.804 866.529 153.744 910.092 168.635C952.749 183.222 947.018 187.263 998.003 204.663C1024.84 213.811 1032.09 191.818 1064.42 219.4C1150.8 293.066 1169.43 315.536 1216.8 349.12" stroke="#0D1B36" stroke-width="0.64" stroke-miterlimit="10"/>
<path d="M250.697 796.886C250.697 796.886 238.079 729.879 252.302 705.553C263.381 686.59 279.306 708.311 298.628 690.418C318.674 671.843 326.658 651.104 337.848 609.855C338.842 606.218 340.21 602.679 341.541 599.107C362.886 541.521 382.602 573.622 393.033 494.765C403.357 416.762 402.867 380.682 449.012 351.282C457.954 345.592 467.233 342.627 477.082 342.873C518.553 343.96 561.153 373.261 603.809 415.485C610.83 422.437 618.521 430.02 626.151 438.514C684.576 503.502 718.653 551.614 758.658 553.639C795.095 555.482 794.907 524.753 807.052 488.87C816.675 460.439 816.295 433.569 834.62 412.602C835.806 411.242 837.206 410.064 838.434 408.688C864.382 379.439 858.008 334.539 866.613 268.382C868.655 252.58 873.021 239.371 877.337 228.244C895.144 182.257 887.16 157.838 930.909 173.282C973.78 188.435 968.326 192.827 1019.25 209.555C1046.58 218.542 1053.45 195.393 1086.09 223.056C1171.74 295.629 1190.83 318.166 1237.57 351.748" stroke="#0D1B36" stroke-width="0.64" stroke-miterlimit="10"/>
<path d="M271.25 800.267C271.25 800.267 258.453 733.927 272.276 709.178C282.932 690.111 298.523 710.76 317.39 692.68C337.063 673.815 344.873 652.806 356.458 612.222C357.482 608.598 358.915 605.107 360.291 601.589C382.579 544.532 403.081 577.631 414.084 500.282C424.954 423.846 424.665 387.475 470.234 358.388C479.091 352.73 488.258 349.784 498.052 350.075C539.321 351.262 581.618 380.079 623.862 421.596C630.843 428.443 638.495 435.921 646.064 444.319C703.756 508.194 737.779 555.847 777.8 557.722C814.152 559.406 814.3 528.933 826.424 493.058C835.982 464.771 835.694 437.89 853.711 416.681C854.869 415.307 856.26 414.109 857.451 412.699C883.111 382.816 876.658 337.706 885.392 272.267C887.504 256.462 891.994 243.327 896.504 232.27C914.983 186.916 907.471 163.109 951.412 179.126C994.498 194.845 989.333 199.559 1040.17 215.623C1068 224.42 1074.5 200.144 1107.45 227.879C1192.36 299.39 1211.91 321.994 1258.04 355.543" stroke="#0D1B36" stroke-width="0.64" stroke-miterlimit="10"/>
<path d="M291.407 804.756C291.407 804.756 278.44 739.104 291.847 713.889C302.05 694.706 317.336 714.296 335.728 696.037C355.027 676.882 362.684 655.596 374.623 615.692C375.705 612.094 377.183 608.658 378.616 605.167C401.84 548.618 423.135 582.734 434.718 506.915C446.163 432.06 446.054 395.404 491.01 366.598C499.763 360.98 508.866 358.057 518.547 358.367C559.615 359.654 601.617 388.008 643.441 428.798C650.361 435.547 657.974 442.921 665.511 451.235C722.491 513.989 756.418 561.199 796.445 562.904C832.692 564.436 833.198 534.211 845.28 498.352C854.752 470.217 854.564 443.347 872.278 421.845C873.428 420.45 874.79 419.239 875.953 417.816C901.317 387.278 894.763 341.966 903.675 277.251C905.845 261.472 910.471 248.381 915.163 237.423C934.313 192.701 927.251 169.514 971.416 186.119C1014.74 202.395 1009.84 207.439 1060.6 222.861C1088.93 231.446 1095.04 206.072 1128.3 233.88C1212.5 304.342 1232.5 326.99 1278.01 360.487" stroke="#0D1B36" stroke-width="0.64" stroke-miterlimit="10"/>
<path d="M311.178 810.183C311.178 810.183 298.039 745.22 311.038 719.56C320.811 700.252 335.742 718.779 353.687 700.353C372.613 680.908 380.125 659.365 392.43 620.114C393.549 616.55 395.085 613.139 396.571 609.724C420.731 553.683 442.819 588.817 454.974 514.508C466.964 441.219 467.035 404.279 511.436 375.779C520.113 370.214 529.104 367.31 538.722 367.644C579.559 369.018 621.294 396.922 662.699 436.984C669.559 443.636 677.131 450.906 684.637 459.135C740.891 520.798 774.756 567.529 814.791 569.063C850.954 570.435 851.825 540.479 863.849 504.594C873.235 476.612 873.139 449.731 890.559 427.956C891.679 426.549 893.026 425.296 894.167 423.88C919.222 392.717 912.61 347.188 921.65 283.191C923.891 267.409 928.641 254.391 933.527 243.503C953.327 199.422 946.745 176.868 991.095 194.025C1034.63 210.868 1030.02 216.233 1080.72 230.984C1109.55 239.378 1115.28 212.878 1148.84 240.765C1232.28 310.173 1252.78 332.872 1297.65 366.345" stroke="#0D1B36" stroke-width="0.64" stroke-miterlimit="10"/>
<path d="M330.588 816.37C330.588 816.37 317.308 752.107 329.87 725.99C339.22 706.578 353.817 724.033 371.286 705.428C389.838 685.694 397.197 663.873 409.878 625.294C411.054 621.757 412.634 618.401 414.157 615.02C439.282 559.501 462.113 595.647 474.861 522.839C487.419 451.109 487.677 413.906 531.465 385.686C540.037 380.161 548.965 377.281 558.492 377.625C599.127 379.1 640.559 406.52 681.552 445.874C688.372 452.422 695.884 459.594 703.35 467.719C758.892 528.262 792.682 574.542 832.724 575.905C868.789 577.147 870.011 547.417 882.014 511.54C891.335 483.703 891.33 456.811 908.434 434.773C909.546 433.344 910.843 432.086 911.977 430.65C936.735 398.831 930.044 353.093 939.221 289.835C941.511 274.058 946.406 261.105 951.473 250.316C971.923 206.876 965.834 184.926 1010.38 202.657C1054.14 220.087 1049.82 225.724 1100.44 239.861C1129.76 248.043 1135.1 220.445 1168.97 248.426C1251.68 316.771 1272.65 339.529 1316.89 372.957" stroke="#0D1B36" stroke-width="0.64" stroke-miterlimit="10"/>
<path d="M349.592 823.19C349.592 823.19 336.162 759.607 348.295 733.053C357.201 713.547 371.477 729.901 388.487 711.158C406.658 691.113 413.871 669.036 426.906 631.138C428.111 627.613 429.757 624.304 431.346 620.97C457.435 565.972 481.03 603.123 494.358 531.845C507.461 461.682 507.921 424.187 551.133 396.282C559.629 390.809 568.444 387.948 577.908 388.316C618.342 389.891 659.499 416.84 700.052 455.474C706.811 461.925 714.304 468.985 721.717 477.034C776.526 536.464 810.241 582.293 850.312 583.478C886.292 584.56 887.85 555.086 899.824 519.196C909.059 491.511 909.155 464.629 925.963 442.32C927.047 440.878 928.336 439.599 929.433 438.128C953.866 405.642 947.132 359.728 956.459 297.181C958.82 281.401 963.838 268.521 969.108 257.823C990.229 215.015 984.591 193.686 1029.33 211.991C1073.32 229.978 1069.27 235.924 1119.81 249.419C1149.65 257.382 1154.59 228.686 1188.76 256.747C1270.72 324.058 1292.17 346.825 1335.78 380.229" stroke="#0D1B36" stroke-width="0.64" stroke-miterlimit="10"/>
<path d="M368.246 830.479C368.246 830.479 354.654 767.605 366.362 740.564C374.846 720.954 388.758 736.223 405.322 717.314C423.119 696.979 430.208 674.637 443.589 637.399C444.852 633.901 446.556 630.618 448.168 627.347C475.222 572.87 499.561 611.034 513.481 541.257C527.159 472.674 527.791 434.874 570.398 407.27C578.79 401.837 587.542 398.999 596.914 399.378C637.117 401.041 678.008 427.539 718.12 465.454C724.831 471.779 732.272 478.763 739.653 486.728C793.729 545.046 827.39 590.415 867.476 591.451C903.351 592.381 905.266 563.155 917.219 527.274C926.368 499.741 926.576 472.84 943.069 450.267C944.124 448.812 945.405 447.512 946.473 446.029C970.59 412.896 963.805 366.785 973.26 304.956C975.671 289.181 980.812 276.374 986.298 265.738C1008.04 223.558 1002.91 202.875 1047.85 221.725C1092.06 240.278 1088.31 246.495 1138.76 259.397C1169.1 267.149 1173.65 237.355 1208.14 265.489C1289.35 331.738 1311.28 354.563 1354.25 387.943" stroke="#0D1B36" stroke-width="0.64" stroke-miterlimit="10"/>
<path d="M386.507 838.06C386.507 838.06 372.772 775.886 384.044 748.388C392.126 728.667 405.675 742.851 421.771 723.784C439.187 703.138 446.152 680.532 459.873 644.004C461.173 640.539 462.943 637.303 464.6 634.086C492.619 580.131 517.721 619.3 532.222 551.053C546.446 484.037 547.287 445.966 589.31 418.655C597.617 413.253 606.265 410.456 615.545 410.846C655.547 412.609 696.134 438.622 735.834 475.831C742.485 482.059 749.886 488.938 757.227 496.798C810.57 554.004 844.177 598.914 884.27 599.78C920.039 600.558 922.334 571.572 934.237 535.685C943.329 508.318 943.607 481.415 959.798 458.548C960.845 457.073 962.097 455.759 963.157 454.255C986.948 420.454 980.113 374.147 989.704 313.057C992.186 297.28 997.451 284.546 1003.12 274.009C1025.51 232.469 1020.87 212.39 1065.99 231.822C1110.42 250.962 1106.95 257.43 1157.34 269.711C1188.19 277.243 1192.33 246.359 1227.13 274.565C1307.58 339.788 1330.02 362.636 1372.38 395.984" stroke="#0D1B36" stroke-width="0.64" stroke-miterlimit="10"/>
<path d="M404.399 845.804C404.399 845.804 390.544 784.324 401.357 756.377C409.017 736.552 422.224 749.643 437.852 730.418C454.886 709.461 461.735 686.611 475.802 650.743C477.16 647.304 478.967 644.102 480.69 640.933C509.694 587.491 535.527 627.701 550.612 560.934C565.382 495.485 566.403 457.13 607.863 430.105C616.066 424.743 624.621 421.956 633.846 422.391C673.626 424.262 713.938 449.804 753.219 486.285C759.809 492.416 767.17 499.19 774.48 506.967C827.098 563.081 860.621 607.52 900.722 608.214C936.407 608.833 939.046 580.124 950.92 544.224C959.926 517.009 960.317 490.087 976.192 466.957C977.21 465.468 978.446 464.113 979.464 462.625C1002.93 428.156 996.074 381.665 1005.79 321.273C1008.32 305.5 1013.72 292.811 1019.59 282.365C1042.6 241.452 1038.47 222.02 1083.8 242.017C1128.45 261.724 1125.27 268.443 1175.58 280.151C1206.94 287.443 1210.67 255.49 1245.79 283.769C1325.49 347.958 1348.42 370.835 1390.14 404.138" stroke="#0D1B36" stroke-width="0.64" stroke-miterlimit="10"/>
<path d="M421.921 853.522C421.921 853.522 407.953 792.756 418.292 764.317C425.558 744.401 438.373 756.395 453.555 737.003C470.207 715.735 476.94 692.642 491.353 657.433C492.747 654.028 494.62 650.874 496.38 647.738C526.369 594.81 552.946 636.033 568.603 570.775C583.927 506.913 585.149 468.267 626.004 441.542C634.131 436.233 642.594 433.457 651.728 433.903C691.297 435.853 731.336 460.925 770.184 496.706C776.734 502.733 784.035 509.41 791.312 517.103C843.197 572.105 876.667 616.084 916.774 616.608C952.354 617.075 955.35 588.614 967.196 552.701C976.115 525.639 976.599 498.706 992.187 475.325C993.176 473.823 994.404 472.447 995.414 470.938C1018.56 435.801 1011.66 389.135 1021.5 329.482C1024.11 313.706 1029.61 301.098 1035.68 290.743C1059.32 250.458 1055.69 231.65 1101.21 252.222C1146.07 272.494 1143.21 279.477 1193.41 290.58C1225.28 297.631 1228.61 264.61 1264.04 292.96C1342.96 356.124 1366.39 379.031 1407.49 412.302" stroke="#0D1B36" stroke-width="0.64" stroke-miterlimit="10"/>
<path d="M439.067 861.07C439.067 861.07 424.978 800.997 434.859 772.108C441.702 752.089 454.154 762.998 468.889 743.44C485.139 721.869 491.798 698.516 506.515 663.983C507.959 660.584 509.877 657.484 511.71 654.416C542.672 602.03 569.984 644.245 586.242 580.509C602.112 518.214 603.534 479.276 643.805 452.845C651.828 447.575 660.208 444.831 669.278 445.301C708.646 447.351 748.389 471.959 786.817 507.013C793.307 512.943 800.589 519.507 807.793 527.132C858.944 581.022 892.36 624.542 932.475 624.896C967.97 625.203 971.324 596.99 983.127 561.093C991.982 534.175 992.565 507.252 1007.83 483.586C1008.81 482.064 1009.99 480.683 1010.98 479.131C1033.78 443.335 1026.88 396.477 1036.85 337.521C1039.51 321.772 1045.15 309.207 1051.42 298.944C1075.67 259.265 1072.58 241.117 1118.29 262.242C1163.38 283.072 1160.78 290.313 1210.91 300.824C1243.27 307.613 1246.21 273.544 1281.96 301.988C1360.12 364.147 1384.05 387.055 1424.52 420.281" stroke="#0D1B36" stroke-width="0.64" stroke-miterlimit="10"/>
<path d="M455.832 868.307C455.832 868.307 441.63 808.948 451.045 779.589C457.494 759.479 469.575 769.283 483.851 749.587C499.72 727.705 506.29 704.122 521.325 670.236C522.827 666.862 524.789 663.818 526.659 660.784C558.615 608.932 586.649 652.167 603.492 589.911C619.915 529.205 621.518 489.982 661.205 463.844C669.144 458.607 677.44 455.894 686.398 456.382C725.543 458.542 765.032 482.67 803.02 517.004C809.47 522.829 816.691 529.297 823.855 536.817C874.253 589.602 907.614 632.664 947.765 632.86C983.163 633.036 986.867 605.05 998.649 569.161C1007.42 542.396 1008.09 515.462 1023.06 491.524C1024.01 489.989 1025.18 488.586 1026.15 487.022C1048.6 450.566 1041.68 403.524 1051.77 345.287C1054.51 329.535 1060.24 317.03 1066.74 306.85C1091.61 267.799 1089.02 250.276 1134.92 271.974C1180.24 293.391 1177.93 300.834 1227.99 310.794C1260.86 317.343 1263.4 282.225 1299.46 310.721C1376.85 371.854 1401.28 394.763 1441.12 427.986" stroke="#0D1B36" stroke-width="0.64" stroke-miterlimit="10"/>
<path d="M472.252 875.076C472.252 875.076 457.937 816.431 466.878 786.58C472.946 766.351 484.614 775.065 498.451 755.223C513.909 733.018 520.414 709.196 535.752 675.986C537.291 672.646 539.311 669.628 541.226 666.649C574.196 615.323 602.924 659.566 620.368 598.832C637.337 539.693 639.141 500.178 678.243 474.334C686.085 469.157 694.289 466.455 703.184 466.967C742.128 469.227 781.314 492.871 818.89 526.498C825.272 532.205 832.461 538.589 839.593 546.025C889.265 597.719 922.565 640.301 962.723 640.326C998.015 640.351 1002.08 612.634 1013.83 576.711C1022.52 550.119 1023.31 523.166 1037.96 498.965C1038.91 497.408 1040.05 495.993 1040.98 494.416C1063.08 457.279 1056.17 410.066 1066.37 352.556C1069.17 336.8 1075.03 324.369 1081.71 314.288C1107.19 275.843 1105.11 258.966 1151.23 281.23C1196.76 303.213 1194.73 310.886 1244.72 320.274C1278.08 326.541 1280.23 290.396 1316.61 318.964C1393.22 379.072 1418.16 402.002 1457.39 435.172" stroke="#0D1B36" stroke-width="0.64" stroke-miterlimit="10"/>
<path d="M488.297 881.172C488.297 881.172 473.89 823.233 482.344 792.919C488.019 772.6 499.294 780.216 512.685 760.208C527.762 737.692 534.179 713.639 549.834 681.076C551.431 677.763 553.496 674.799 555.469 671.846C589.432 621.055 618.874 666.297 636.89 607.073C654.413 549.521 656.41 509.694 694.937 484.163C702.694 479.018 710.815 476.348 719.618 476.871C758.352 479.21 797.251 502.412 834.407 535.311C840.749 540.913 847.877 547.2 854.978 554.553C903.896 605.142 937.142 647.265 977.328 647.112C1012.54 646.977 1016.96 619.508 1028.67 583.6C1037.29 557.153 1038.15 530.198 1052.51 505.724C1053.42 504.155 1054.55 502.698 1055.47 501.128C1077.21 463.31 1070.3 415.928 1080.63 359.135C1083.48 343.385 1089.47 331.027 1096.37 321.029C1122.47 283.19 1120.9 266.981 1167.21 289.819C1212.96 312.367 1211.23 320.262 1261.13 329.107C1295.02 335.105 1296.73 297.949 1333.46 326.553C1409.29 385.663 1434.75 408.587 1473.35 441.733" stroke="#0D1B36" stroke-width="0.64" stroke-miterlimit="10"/>
<path d="M503.976 886.495C503.976 886.495 489.477 829.262 497.445 798.486C502.739 778.047 513.601 784.573 526.553 764.42C541.22 741.58 547.599 717.302 563.53 685.402C565.184 682.114 567.307 679.176 569.311 676.307C604.276 626.072 634.433 672.314 653.041 614.59C671.089 558.613 673.316 518.507 711.23 493.257C718.883 488.151 726.912 485.492 735.66 486.06C774.171 488.507 812.809 511.209 849.532 543.409C855.813 548.915 862.902 555.097 869.971 562.365C918.164 611.863 951.347 653.506 991.541 653.183C1026.64 652.896 1031.43 625.675 1043.08 589.762C1051.62 563.468 1052.6 536.514 1066.64 511.756C1067.54 510.166 1068.62 508.703 1069.53 507.113C1090.89 468.622 1084.01 421.061 1094.45 364.995C1097.39 349.263 1103.48 336.936 1110.58 327.029C1137.27 289.805 1136.23 274.233 1182.76 297.637C1228.72 320.752 1227.29 328.868 1277.1 337.15C1311.48 342.865 1312.78 304.691 1349.84 333.358C1424.89 391.472 1450.88 414.389 1488.83 447.49" stroke="#0D1B36" stroke-width="0.64" stroke-miterlimit="10"/>
<path d="M519.292 890.855C519.292 890.855 504.722 834.319 512.173 803.068C517.073 782.538 527.536 787.946 540.049 767.647C554.305 744.483 560.647 719.98 576.882 688.755C578.573 685.501 580.761 682.611 582.803 679.776C618.79 630.087 649.611 677.324 668.834 621.094C687.435 566.704 689.834 526.294 727.193 501.349C734.77 496.296 742.707 493.648 751.364 494.227C789.673 496.774 828.036 519.005 864.319 550.485C870.539 555.894 877.589 561.971 884.618 569.135C932.057 617.529 965.194 658.734 1005.4 658.24C1040.39 657.801 1045.53 630.828 1057.17 594.923C1065.64 568.773 1066.69 541.817 1080.43 516.787C1081.31 515.184 1082.38 513.7 1083.25 512.076C1104.24 472.912 1097.4 425.193 1107.96 369.825C1110.96 354.09 1117.15 341.823 1124.46 332.028C1151.76 295.41 1151.26 280.498 1197.95 304.463C1244.14 328.164 1242.97 336.469 1292.72 344.221C1327.61 349.645 1328.52 310.473 1365.89 339.213C1440.17 396.322 1466.67 419.24 1503.99 452.316" stroke="#0D1B36" stroke-width="0.64" stroke-miterlimit="10"/>
<path d="M534.248 894.079C534.248 894.079 519.607 838.242 526.551 806.536C531.078 785.908 541.119 790.204 553.194 769.76C567.069 746.285 573.344 721.544 589.875 690.974C591.616 687.725 593.849 684.89 595.957 682.101C632.966 632.96 664.473 681.184 684.288 626.454C703.415 573.64 706.036 532.929 742.789 508.286C750.262 503.273 758.115 500.657 766.687 501.267C804.775 503.923 842.863 525.683 878.726 556.435C884.907 561.739 891.895 567.719 898.893 574.799C945.585 622.109 978.682 662.827 1018.89 662.162C1053.81 661.584 1059.31 634.859 1070.89 598.929C1079.27 572.931 1080.44 545.977 1093.87 520.683C1094.72 519.067 1095.78 517.563 1096.62 515.925C1117.24 476.089 1110.42 428.191 1121.09 373.549C1124.16 357.811 1130.45 345.625 1137.99 335.913C1165.88 299.889 1165.91 285.636 1212.82 310.167C1259.22 334.434 1258.34 342.94 1308.03 350.141C1343.43 355.275 1343.9 315.091 1381.62 343.896C1455.09 400.017 1482.11 422.927 1518.81 455.951" stroke="#0D1B36" stroke-width="0.64" stroke-miterlimit="10"/>
<path d="M548.827 896.056C548.827 896.056 534.115 840.917 540.551 808.756C544.697 788.009 554.325 791.216 565.97 770.647C579.434 746.848 585.68 721.902 602.478 691.974C604.277 688.752 606.555 685.971 608.699 683.217C646.739 634.644 678.91 683.862 699.339 630.626C718.999 579.407 721.841 538.397 758.011 514.047C765.4 509.065 773.148 506.489 781.65 507.102C819.535 509.858 857.341 531.126 892.772 561.179C898.892 566.386 905.862 572.254 912.806 579.258C958.745 625.463 991.808 665.714 1032.02 664.879C1066.84 664.149 1072.7 637.672 1084.25 601.75C1092.56 575.925 1093.81 548.94 1106.94 523.374C1107.79 521.736 1108.81 520.198 1109.63 518.569C1129.86 478.038 1123.11 429.976 1133.88 376.06C1137.03 360.319 1143.43 348.185 1151.15 338.572C1179.62 303.142 1180.2 289.569 1227.31 314.644C1273.95 339.47 1273.34 348.184 1322.95 354.864C1358.86 359.686 1358.92 318.534 1396.96 347.382C1469.65 402.505 1497.18 425.388 1533.26 458.408" stroke="#0D1B36" stroke-width="0.64" stroke-miterlimit="10"/>
<path d="M563.058 896.608C563.058 896.608 548.275 842.167 554.216 809.522C557.989 788.676 567.197 790.772 578.403 770.058C591.435 745.944 597.694 720.777 614.759 691.491C616.616 688.294 618.93 685.547 621.127 682.869C660.169 634.852 693.025 685.056 714.068 633.313C734.253 583.669 737.317 542.359 772.882 518.31C780.174 513.39 787.851 510.816 796.261 511.44C833.945 514.297 871.456 535.101 906.467 564.426C912.539 569.507 919.464 575.32 926.361 582.198C971.553 627.321 1004.55 667.091 1044.8 666.078C1079.52 665.217 1085.72 638.967 1097.26 603.053C1105.5 577.373 1106.85 550.376 1119.66 524.547C1120.47 522.896 1121.47 521.345 1122.28 519.695C1142.12 478.499 1135.42 430.271 1146.29 377.06C1149.52 361.338 1156.01 349.243 1163.96 339.734C1193.03 304.889 1194.13 291.984 1241.44 317.633C1288.29 343.045 1287.94 351.927 1337.49 358.077C1373.91 362.588 1373.55 320.466 1411.92 349.357C1483.81 403.492 1511.89 426.36 1547.32 459.335" stroke="#0D1B36" stroke-width="0.64" stroke-miterlimit="10"/>
<path d="M576.948 895.562C576.948 895.562 562.123 841.832 567.527 808.72C570.949 787.768 579.693 788.769 590.481 767.902C603.104 743.463 609.353 718.084 626.665 689.448C628.58 686.277 630.96 683.577 633.194 680.933C673.287 633.476 706.779 684.662 728.443 634.433C749.153 586.364 752.418 544.762 787.428 521.02C794.636 516.131 802.209 513.597 810.556 514.244C848.009 517.189 885.266 537.513 919.844 566.14C925.856 571.124 932.741 576.833 939.607 583.627C984.045 627.644 1017.02 666.969 1057.27 665.785C1091.9 664.765 1098.47 638.763 1109.95 602.843C1118.11 577.316 1119.56 550.33 1132.08 524.228C1132.88 522.557 1133.85 520.993 1134.62 519.308C1154.06 477.427 1147.44 429.046 1158.4 376.549C1161.67 360.831 1168.28 348.788 1176.43 339.371C1206.09 305.119 1207.74 292.894 1255.25 319.088C1302.32 345.066 1302.25 354.128 1351.73 359.777C1388.65 363.977 1387.88 320.886 1426.58 349.821C1497.66 402.988 1526.28 425.819 1561.1 458.763" stroke="#0D1B36" stroke-width="0.64" stroke-miterlimit="10"/>
<path d="M590.462 892.766C590.462 892.766 575.586 839.726 580.462 806.167C583.502 785.096 591.834 785.007 602.183 763.994C614.387 739.211 620.644 713.661 638.215 685.646C640.166 682.509 642.605 679.835 644.883 677.246C686.014 630.378 720.163 682.538 742.434 633.781C763.676 587.308 767.163 545.406 801.581 521.936C808.684 517.087 816.194 514.576 824.429 515.243C861.68 518.287 898.655 538.12 932.8 566.048C938.772 570.927 945.597 576.539 952.41 583.257C996.08 626.199 1029.02 665.036 1069.29 663.674C1103.82 662.502 1110.75 636.768 1122.21 600.836C1130.3 575.453 1131.84 548.456 1144.04 522.09C1144.82 520.406 1145.78 518.821 1146.52 517.124C1165.55 474.556 1159.02 426.002 1170.07 374.21C1173.41 358.49 1180.13 346.499 1188.5 337.193C1218.73 303.514 1220.95 291.961 1268.64 318.758C1315.92 345.302 1316.14 354.544 1365.57 359.663C1402.99 363.531 1401.8 319.492 1440.84 348.491C1511.12 400.69 1540.28 423.485 1574.46 456.384" stroke="#0D1B36" stroke-width="0.64" stroke-miterlimit="10"/>
<path d="M603.644 888.082C603.644 888.082 588.739 835.725 593.065 801.726C595.753 780.549 603.622 779.365 613.554 758.199C625.327 733.1 631.604 707.351 649.434 679.956C651.451 676.866 653.926 674.227 656.242 671.671C698.411 625.393 733.208 678.505 756.101 631.263C777.847 586.372 781.577 544.162 815.398 521.014C822.425 516.218 829.822 513.726 837.994 514.416C875.023 517.57 911.744 536.923 945.428 564.139C951.339 568.921 958.124 574.428 964.918 581.033C1007.84 622.892 1040.74 661.241 1081.02 659.708C1115.45 658.405 1122.73 632.899 1134.16 596.954C1142.17 571.723 1143.83 544.728 1155.71 518.078C1156.47 516.373 1157.39 514.754 1158.12 513.064C1176.75 469.811 1170.3 421.105 1181.43 370.026C1184.85 354.324 1191.66 342.371 1200.25 333.17C1231.07 300.064 1233.83 289.212 1281.73 316.554C1329.24 343.685 1329.7 353.072 1379.08 357.683C1416.99 361.218 1415.38 316.239 1454.77 345.273C1524.25 396.484 1553.95 419.264 1587.5 452.139" stroke="#0D1B36" stroke-width="0.64" stroke-miterlimit="10"/>
<path d="M616.451 881.335C616.451 881.335 601.504 829.688 605.285 795.202C607.622 773.918 615.04 771.61 624.549 750.341C635.912 724.918 642.181 698.956 660.265 672.232C662.34 669.168 664.86 666.583 667.241 664.075C710.448 618.386 745.894 672.451 769.401 626.702C791.672 583.386 795.603 540.884 828.861 518.021C835.783 513.265 843.109 510.776 851.197 511.498C888.025 514.751 924.463 533.613 957.715 560.129C963.586 564.807 970.31 570.217 977.051 576.747C1019.21 617.53 1052.07 655.412 1092.36 653.688C1126.7 652.225 1134.34 626.967 1145.72 591.037C1153.65 565.98 1155.39 538.953 1166.98 512.031C1167.72 510.313 1168.61 508.681 1169.33 506.971C1187.53 463.04 1181.19 414.173 1192.42 363.799C1195.91 348.094 1202.81 336.202 1211.61 327.092C1243.02 294.55 1246.31 284.386 1294.4 312.302C1342.13 339.999 1342.85 349.553 1392.18 353.676C1430.59 356.879 1428.56 310.959 1468.29 340.029C1536.97 390.272 1567.21 413.016 1600.12 445.846" stroke="#0D1B36" stroke-width="0.64" stroke-miterlimit="10"/>
<path d="M628.92 872.367C628.92 872.367 613.945 821.403 617.176 786.477C619.153 765.066 626.116 761.684 635.208 740.261C646.131 714.501 652.436 688.382 670.771 662.258C672.904 659.221 675.461 656.67 677.887 654.216C722.133 609.116 758.206 664.142 782.347 619.878C805.122 578.145 809.296 535.335 841.957 512.795C848.796 508.07 856.017 505.621 864.042 506.367C900.647 509.728 936.811 528.118 969.643 553.907C975.446 558.467 982.138 563.793 988.848 570.239C1030.24 609.947 1063.08 647.333 1103.38 645.459C1137.62 643.845 1145.62 618.856 1156.97 582.892C1164.83 557.979 1166.68 530.963 1177.95 503.777C1178.66 502.046 1179.54 500.392 1180.22 498.648C1198 454.039 1191.76 404.991 1203.07 355.351C1206.64 339.664 1213.65 327.803 1222.66 318.805C1254.65 286.836 1258.49 277.373 1306.79 305.834C1354.73 334.097 1355.73 343.831 1404.99 347.432C1443.89 350.282 1441.46 303.456 1481.51 332.549C1549.37 381.831 1580.17 404.511 1612.45 437.337" stroke="#0D1B36" stroke-width="0.64" stroke-miterlimit="10"/>
<path d="M641.037 861.015C641.037 861.015 626.032 810.733 628.713 775.369C630.338 753.852 636.839 749.375 645.513 727.799C656.005 701.723 662.338 675.425 680.904 649.909C683.094 646.897 685.717 644.393 688.159 641.982C733.451 597.492 770.144 653.457 794.928 610.699C818.207 570.549 822.624 527.432 854.701 505.184C861.443 500.52 868.572 498.082 876.526 498.831C912.929 502.293 948.811 520.191 981.21 545.281C986.974 549.736 993.605 554.965 1000.27 561.306C1040.89 599.917 1073.71 636.858 1114.03 634.784C1148.17 633.039 1156.54 608.269 1167.83 572.329C1175.61 547.569 1177.54 520.542 1188.52 493.084C1189.22 491.332 1190.06 489.645 1190.72 487.908C1208.08 442.621 1201.94 393.413 1213.34 344.487C1217 328.789 1224.08 316.996 1233.32 308.102C1265.89 276.705 1270.28 267.922 1318.77 296.957C1366.92 325.807 1368.17 335.666 1417.41 338.792C1456.83 341.281 1453.95 293.543 1494.38 322.664C1561.44 370.979 1592.75 393.63 1624.44 426.396" stroke="#0D1B36" stroke-width="0.64" stroke-miterlimit="10"/>
<path d="M654.436 845.774C654.436 845.774 639.423 796.166 641.526 760.35C642.791 738.706 648.829 733.134 657.093 711.425C667.146 685.012 673.528 658.528 692.332 633.641C694.58 630.655 697.248 628.206 699.747 625.821C746.086 581.941 783.399 638.846 808.817 597.574C832.579 559.014 837.247 515.61 868.74 493.656C875.398 489.023 882.444 486.617 890.293 487.405C926.474 490.976 962.102 508.394 994.06 532.764C999.763 537.123 1006.35 542.247 1012.99 548.504C1052.85 586.061 1085.64 622.485 1125.97 620.241C1160.02 618.336 1168.73 593.822 1179.99 557.869C1187.7 533.253 1189.74 506.236 1200.39 478.494C1201.06 476.728 1201.88 475.028 1202.53 473.271C1219.44 427.314 1213.43 377.937 1224.92 329.716C1228.67 314.036 1235.84 302.282 1245.28 293.48C1278.41 262.634 1283.35 254.553 1332.06 284.153C1380.43 313.569 1381.93 323.595 1431.12 326.213C1471.03 328.349 1467.74 279.712 1508.52 308.868C1574.77 356.244 1606.63 378.831 1637.68 411.572" stroke="#0D1B36" stroke-width="0.64" stroke-miterlimit="10"/>
<path d="M668.978 828.423C668.978 828.423 653.957 779.489 655.488 743.242C656.415 721.462 661.977 714.824 669.823 692.962C679.423 666.242 685.863 639.592 704.91 615.283C707.224 612.345 709.921 609.909 712.473 607.599C759.858 564.33 797.762 622.161 823.852 582.408C848.11 545.41 853.028 501.72 883.937 480.059C890.49 475.466 897.452 473.091 905.231 473.882C941.21 477.553 976.555 494.48 1008.08 518.151C1013.74 522.405 1020.28 527.432 1026.88 533.605C1065.97 570.086 1098.72 606.023 1139.07 603.6C1173.03 601.564 1182.1 577.298 1193.33 541.332C1200.96 516.89 1203.1 489.833 1213.45 461.848C1214.11 460.061 1214.9 458.348 1215.52 456.578C1232.01 409.943 1226.11 360.426 1237.68 312.898C1241.49 297.215 1248.77 285.492 1258.43 276.823C1292.15 246.521 1297.63 239.17 1346.53 269.344C1395.12 299.325 1396.87 309.498 1446.03 311.649C1486.41 313.41 1482.7 263.904 1523.84 293.067C1589.27 339.483 1621.69 362.025 1652.1 394.722" stroke="#0D1B36" stroke-width="0.64" stroke-miterlimit="10"/>
<path d="M683.67 810.27C683.67 810.27 668.641 762.011 669.602 725.333C670.169 703.426 675.247 695.701 682.705 673.699C691.866 646.641 698.362 619.826 717.619 596.133C719.991 593.221 722.732 590.84 725.342 588.556C773.773 545.897 812.289 604.647 839.021 566.4C863.762 530.993 868.945 486.987 899.278 465.64C905.726 461.087 912.625 458.736 920.32 459.559C956.076 463.338 991.16 479.764 1022.25 502.737C1027.85 506.872 1034.35 511.816 1040.91 517.884C1079.24 553.29 1111.97 588.751 1152.33 586.137C1186.2 583.942 1195.63 559.924 1206.81 523.973C1214.38 499.676 1216.6 472.637 1226.64 444.359C1227.28 442.56 1228.06 440.826 1228.65 439.042C1244.69 391.737 1238.94 342.044 1250.59 295.229C1254.48 279.565 1261.85 267.881 1271.71 259.302C1306 229.552 1312.05 222.894 1361.15 253.642C1409.96 284.21 1411.94 294.508 1461.06 296.171C1501.95 297.55 1497.82 247.175 1539.29 276.352C1603.91 321.829 1636.88 344.307 1666.66 376.98" stroke="#0D1B36" stroke-width="0.64" stroke-miterlimit="10"/>
<path d="M698.401 791.457C698.401 791.457 683.364 743.872 683.746 706.742C683.974 684.699 688.576 675.908 695.616 653.753C704.325 626.387 710.879 599.407 730.379 576.293C732.809 573.407 735.594 571.081 738.241 568.831C787.726 526.803 826.833 586.48 854.229 549.731C879.445 515.894 884.9 471.592 914.628 450.547C921 446.046 927.787 443.714 935.41 444.54C970.965 448.42 1005.79 464.346 1036.43 486.627C1041.98 490.658 1048.43 495.526 1054.96 501.49C1092.49 535.827 1125.23 570.806 1165.6 568.021C1199.37 565.695 1209.15 541.904 1220.31 505.941C1227.79 481.796 1230.12 454.738 1239.84 426.196C1240.45 424.384 1241.2 422.637 1241.79 420.832C1257.36 372.865 1251.77 322.996 1263.49 276.894C1267.48 261.24 1274.9 249.582 1285 241.129C1319.87 211.901 1326.48 205.994 1375.78 237.287C1424.8 268.421 1427.01 278.873 1476.12 280.061C1517.49 281.066 1512.93 229.822 1554.77 259.005C1618.57 303.522 1652.1 325.956 1681.24 358.584" stroke="#0D1B36" stroke-width="0.64" stroke-miterlimit="10"/>
<path d="M713.135 772.21C713.135 772.21 698.089 725.299 697.901 687.739C697.79 665.561 701.895 655.712 708.546 633.416C716.795 605.722 723.435 578.589 743.144 556.091C745.64 553.251 748.462 550.959 751.146 548.744C801.685 507.347 841.367 567.908 869.435 532.679C895.126 500.411 900.831 455.823 930.004 435.083C936.272 430.623 942.995 428.314 950.527 429.151C985.859 433.139 1020.42 448.565 1050.63 470.147C1056.14 474.074 1062.53 478.844 1069.02 484.724C1105.79 517.987 1138.49 552.478 1178.86 549.522C1212.54 547.044 1222.7 523.514 1233.8 487.546C1241.2 463.553 1243.63 436.506 1253.05 407.671C1253.65 405.838 1254.37 404.057 1254.93 402.24C1270.05 353.602 1264.6 303.557 1276.38 258.155C1280.44 242.498 1287.98 230.892 1298.27 222.559C1333.73 193.875 1340.87 188.677 1390.36 220.544C1439.6 252.244 1442.05 262.821 1491.14 263.534C1532.99 264.144 1528.01 212.051 1570.21 241.241C1633.18 284.827 1667.27 307.167 1695.81 339.784" stroke="#0D1B36" stroke-width="0.64" stroke-miterlimit="10"/>
<path d="M727.742 752.629C727.742 752.629 712.709 706.384 711.929 668.4C711.458 646.096 715.08 635.159 721.342 612.723C729.13 584.7 735.843 557.443 755.788 535.503C758.341 532.69 761.222 530.424 763.958 528.284C815.56 487.539 855.816 548.985 884.527 515.262C910.685 484.543 916.67 439.681 945.238 419.243C951.422 414.814 958.041 412.546 965.489 413.414C1000.62 417.503 1034.91 432.457 1064.67 453.32C1070.13 457.149 1076.45 461.823 1082.94 467.611C1118.92 499.827 1151.63 533.814 1192 530.667C1225.57 528.058 1236.08 504.755 1247.16 468.774C1254.49 444.926 1257.01 417.867 1266.13 388.79C1266.7 386.944 1267.41 385.142 1267.94 383.311C1282.61 333.983 1277.32 283.803 1289.17 239.094C1293.31 223.455 1300.93 211.867 1311.45 203.638C1347.47 175.485 1355.12 171.124 1404.85 203.45C1454.25 235.831 1456.98 246.446 1506.07 246.685C1548.4 246.892 1542.99 193.958 1585.55 223.155C1647.71 265.802 1682.35 288.077 1710.25 320.649" stroke="#0D1B36" stroke-width="0.64" stroke-miterlimit="10"/>
<path d="M742.138 732.935C742.138 732.935 727.111 687.335 725.739 648.929C724.929 626.489 728.053 614.494 733.919 591.897C741.255 563.566 748.054 536.157 768.192 514.79C770.811 512.024 773.729 509.792 776.502 507.686C829.165 467.594 869.989 529.904 899.38 497.72C926.013 468.571 932.278 423.436 960.262 403.291C966.348 398.922 972.875 396.665 980.253 397.536C1015.16 401.733 1049.21 416.179 1078.51 436.33C1083.93 440.055 1090.19 444.631 1096.61 450.323C1131.81 481.471 1164.5 514.962 1204.89 511.637C1238.39 508.889 1249.25 485.813 1260.29 449.848C1267.54 426.173 1270.18 399.096 1278.97 369.734C1279.53 367.867 1280.19 366.059 1280.71 364.208C1294.91 314.218 1289.81 263.875 1301.7 219.866C1305.94 204.237 1313.64 192.667 1324.38 184.571C1360.98 156.94 1369.17 153.31 1419.13 186.222C1468.77 219.162 1471.69 229.918 1520.76 229.681C1563.57 229.472 1557.75 175.732 1600.67 204.935C1662 246.651 1697.19 268.862 1724.48 301.401" stroke="#0D1B36" stroke-width="0.64" stroke-miterlimit="10"/>
<path d="M756.26 713.274C756.26 713.274 741.245 668.34 739.282 629.511C738.133 606.936 740.781 593.875 746.23 571.125C753.105 542.464 759.977 514.932 780.351 494.123C783.028 491.383 785.99 489.206 788.8 487.134C842.505 447.702 883.917 510.867 913.978 480.203C941.058 452.611 947.602 407.201 975.023 387.342C981.026 383.005 987.469 380.779 994.763 381.683C1029.48 386.001 1063.23 399.934 1092.11 419.385C1097.45 422.992 1103.68 427.485 1110.08 433.093C1144.49 463.194 1177.18 496.182 1217.58 492.686C1250.98 489.787 1262.2 466.98 1273.2 430.98C1280.39 407.45 1283.12 380.362 1291.59 350.736C1292.13 348.856 1292.77 347.007 1293.27 345.163C1307.01 294.511 1302.05 243.992 1314.04 200.688C1318.36 185.077 1326.14 173.526 1337.09 165.541C1374.27 138.434 1383 135.533 1433.17 169.011C1483.02 202.517 1486.17 213.406 1535.23 212.695C1578.5 212.09 1572.28 157.522 1615.55 186.712C1676.06 227.517 1711.81 249.634 1738.46 282.129" stroke="#0D1B36" stroke-width="0.64" stroke-miterlimit="10"/>
<path d="M770.007 693.826C770.007 693.826 754.997 649.538 752.45 610.307C750.983 587.588 753.093 573.486 758.165 550.566C764.568 521.605 771.526 493.92 792.135 473.67C794.878 470.977 797.877 468.833 800.745 466.788C855.511 428.008 897.461 492.024 928.231 462.913C955.77 436.848 962.594 391.165 989.426 371.648C995.324 367.352 1001.68 365.158 1008.91 366.064C1043.4 370.49 1076.89 383.923 1105.34 402.697C1110.65 406.199 1116.82 410.595 1123.18 416.119C1156.79 445.161 1189.47 477.645 1229.91 473.971C1263.2 470.94 1274.8 448.352 1285.76 412.369C1292.86 388.991 1295.68 361.913 1303.86 331.994C1304.38 330.093 1304.97 328.239 1305.46 326.353C1318.71 275.047 1313.97 224.349 1325.99 181.753C1330.41 166.131 1338.25 154.648 1349.43 146.768C1387.2 120.182 1396.48 118.033 1446.84 152.064C1496.9 186.135 1500.26 197.136 1549.34 195.985C1593.1 194.956 1586.43 139.577 1630.09 168.764C1689.76 208.639 1726.08 230.683 1752.1 263.154" stroke="#0D1B36" stroke-width="0.64" stroke-miterlimit="10"/>
<path d="M783.293 674.745C783.293 674.745 768.317 631.115 765.149 591.448C763.335 568.573 764.948 553.412 769.64 530.373C775.582 501.084 782.642 473.288 803.437 453.591C806.245 450.944 809.273 448.814 812.194 446.844C868.001 408.724 910.531 473.576 941.981 446.005C969.958 421.476 977.078 375.561 1003.34 356.308C1009.15 352.044 1015.41 349.889 1022.57 350.819C1056.84 355.354 1090.09 368.279 1118.08 386.361C1123.35 389.759 1129.45 394.087 1135.78 399.477C1168.61 427.472 1201.3 459.453 1241.73 455.587C1274.94 452.397 1286.88 430.065 1297.81 394.089C1304.86 370.877 1307.77 343.767 1315.63 313.605C1316.13 311.691 1316.71 309.816 1317.17 307.918C1329.95 255.949 1325.39 205.087 1337.46 163.192C1341.95 147.589 1349.9 136.115 1361.3 128.368C1399.66 102.277 1409.49 100.878 1460.04 135.483C1510.32 170.12 1513.89 181.254 1562.96 179.628C1607.18 178.162 1600.1 122.026 1644.13 151.171C1702.97 190.135 1739.86 212.085 1765.24 244.511" stroke="#0D1B36" stroke-width="0.64" stroke-miterlimit="10"/>
<path d="M796.028 656.232C796.028 656.232 781.057 613.248 777.305 573.178C775.144 550.147 776.269 533.95 780.564 510.749C786.033 481.16 793.186 453.233 814.209 434.072C817.083 431.473 820.147 429.377 823.105 427.441C879.962 390.002 923.035 455.654 955.201 429.657C983.637 406.656 991.037 360.467 1016.71 341.558C1022.42 337.333 1028.6 335.181 1035.66 336.151C1069.72 340.786 1102.69 353.198 1130.23 370.589C1135.43 373.869 1141.49 378.113 1147.79 383.419C1179.82 410.376 1212.51 441.853 1252.94 437.796C1286.05 434.475 1298.37 412.382 1309.22 376.389C1316.18 353.329 1319.21 326.222 1326.76 295.775C1327.22 293.848 1327.8 291.952 1328.25 290.032C1340.54 237.389 1336.18 186.377 1348.33 145.174C1352.91 129.58 1360.92 118.133 1372.53 110.498C1411.47 84.9292 1421.84 84.2609 1472.59 119.439C1523.08 154.642 1526.84 165.897 1575.94 163.829C1620.62 161.948 1613.12 105.013 1657.52 134.135C1715.53 172.169 1752.99 194.025 1777.76 226.44" stroke="#0D1B36" stroke-width="0.64" stroke-miterlimit="10"/>
<path d="M808.11 638.398C808.11 638.398 793.164 596.051 788.807 555.588C786.308 532.422 786.935 515.166 790.834 491.804C795.821 461.894 803.064 433.885 824.314 415.262C827.246 412.688 830.355 410.647 833.371 408.737C891.277 371.979 934.914 438.424 967.768 413.989C996.634 392.503 1004.36 346.095 1029.44 327.458C1035.07 323.285 1041.14 321.152 1048.13 322.146C1081.99 326.91 1114.7 338.793 1141.79 355.494C1146.95 358.668 1152.95 362.816 1159.22 368.038C1190.45 393.956 1223.16 424.921 1263.59 420.673C1296.61 417.221 1309.27 395.356 1320.1 359.37C1327 336.455 1330.12 309.337 1337.35 278.626C1337.81 276.678 1338.33 274.756 1338.75 272.844C1350.55 219.546 1346.4 168.363 1358.59 127.861C1363.28 112.278 1371.36 100.848 1383.19 93.3462C1422.73 68.271 1433.63 68.3827 1484.58 104.106C1535.29 139.875 1539.25 151.27 1588.36 148.72C1633.52 146.394 1625.56 88.7178 1670.38 117.802C1727.57 154.926 1765.59 176.688 1789.72 209.058" stroke="#0D1B36" stroke-width="0.64" stroke-miterlimit="10"/>
<path d="M819.454 621.467C819.454 621.467 804.534 579.758 799.573 538.9C796.748 515.57 796.844 497.293 800.367 473.762C804.881 443.551 812.218 415.411 833.695 397.324C836.693 394.798 839.86 392.783 842.891 390.915C901.846 354.838 946.04 422.055 979.589 399.202C1008.91 379.223 1016.9 332.57 1041.41 314.268C1046.94 310.135 1052.95 308.026 1059.85 309.03C1093.5 313.895 1125.95 325.278 1152.58 341.287C1157.7 344.357 1163.63 348.437 1169.89 353.547C1200.31 378.426 1233.01 408.866 1273.48 404.46C1306.39 400.856 1319.52 379.27 1330.22 343.241C1337.09 320.504 1340.3 293.375 1347.17 262.366C1347.6 260.405 1348.11 258.462 1348.51 256.538C1359.82 202.586 1355.87 151.231 1368.13 111.421C1372.93 95.8689 1381.08 84.4368 1393.11 77.0758C1433.24 52.4944 1444.69 53.3569 1495.82 89.6832C1546.78 126.031 1550.89 137.533 1600.05 134.534C1645.66 131.75 1637.28 73.3251 1682.49 102.379C1738.86 138.593 1777.44 160.261 1800.94 192.607" stroke="#0D1B36" stroke-width="0.64" stroke-miterlimit="10"/>
<path d="M830.018 605.575C830.018 605.575 815.124 564.503 809.55 523.23C806.378 499.744 805.986 480.429 809.111 456.737C813.145 426.206 820.591 397.976 842.288 380.405C845.331 377.934 848.535 375.953 851.632 374.132C911.615 338.744 956.386 406.725 990.638 385.475C1020.41 367.002 1028.69 320.118 1052.62 302.109C1058.07 298.008 1063.97 295.939 1070.81 296.967C1104.24 301.94 1136.45 312.814 1162.63 328.133C1167.68 331.085 1173.58 335.081 1179.79 340.086C1209.42 363.947 1242.14 393.855 1282.6 389.257C1315.44 385.515 1328.9 364.164 1339.57 328.142C1346.35 305.557 1349.69 278.431 1356.25 247.158C1356.67 245.176 1357.13 243.228 1357.53 241.254C1368.36 186.648 1364.63 135.135 1376.91 96.0124C1381.79 80.4783 1390.02 69.0642 1402.28 61.8073C1443.01 37.7406 1454.98 39.3412 1506.33 76.2334C1557.5 113.147 1561.81 124.769 1610.97 121.309C1657.04 118.087 1648.24 58.9345 1693.84 87.9163C1749.37 123.249 1788.52 144.795 1811.38 177.095" stroke="#0D1B36" stroke-width="0.64" stroke-miterlimit="10"/>
<path d="M839.66 590.918C839.66 590.918 824.784 550.463 818.613 508.817C815.115 485.167 814.192 464.831 816.942 440.97C820.502 410.138 828.03 381.806 849.946 364.751C853.055 362.327 856.316 360.372 859.45 358.585C920.491 323.899 965.809 392.631 1000.76 372.963C1030.97 355.976 1039.56 308.881 1062.89 291.194C1068.23 287.133 1074.05 285.095 1080.8 286.134C1114 291.216 1145.97 301.561 1171.7 316.21C1176.71 319.057 1182.54 322.985 1188.73 327.877C1217.56 350.7 1250.28 380.104 1290.76 375.307C1323.5 371.434 1337.31 350.309 1347.96 314.275C1354.67 291.835 1358.1 264.697 1364.34 233.161C1364.73 231.166 1365.19 229.197 1365.56 227.21C1375.88 171.957 1372.37 120.266 1384.7 81.8219C1389.67 66.2979 1397.98 54.9019 1410.44 47.786C1451.76 24.1921 1464.26 26.5726 1515.8 64.0386C1567.18 101.518 1571.67 113.24 1620.87 109.359C1667.4 105.679 1658.17 45.799 1704.16 74.7296C1758.86 109.152 1798.56 130.612 1820.81 162.881" stroke="#0D1B36" stroke-width="0.64" stroke-miterlimit="10"/>
<path d="M848.308 577.622C848.308 577.622 833.458 537.804 826.683 495.764C822.838 471.958 821.405 450.593 823.787 426.583C826.853 395.459 834.49 367.038 856.639 350.47C859.813 348.093 863.112 346.172 866.283 344.419C928.351 310.422 974.252 379.868 1009.9 361.852C1040.57 346.344 1049.43 299.053 1072.19 281.652C1077.46 277.644 1083.19 275.617 1089.85 276.688C1122.84 281.898 1154.53 291.723 1179.84 305.672C1184.81 308.415 1190.55 312.254 1196.73 317.054C1224.75 338.867 1257.5 367.731 1297.99 362.742C1330.63 358.738 1344.78 337.841 1355.41 301.814C1362.04 279.526 1365.56 252.378 1371.51 220.57C1371.89 218.554 1372.32 216.572 1372.66 214.572C1382.49 158.665 1379.21 106.815 1391.58 69.051C1396.65 53.5371 1405.04 42.1383 1417.71 35.1554C1459.62 12.0552 1472.68 15.2077 1524.41 53.2265C1576.01 91.2721 1580.66 103.121 1629.9 98.7711C1676.87 94.6334 1667.22 34.0542 1713.6 62.9046C1767.47 96.4458 1807.75 117.783 1829.37 149.999" stroke="#0D1B36" stroke-width="0.64" stroke-miterlimit="10"/>
<path d="M855.899 565.901C855.899 565.901 841.096 526.712 833.687 484.265C829.516 460.294 827.552 437.908 829.559 413.73C832.143 382.285 839.849 353.789 862.238 337.73C865.478 335.4 868.805 333.491 872.021 331.793C935.125 298.506 981.609 368.667 1017.94 352.262C1049.05 338.219 1058.21 290.738 1080.4 273.651C1085.56 269.682 1091.21 267.687 1097.8 268.761C1130.59 274.072 1162.03 283.367 1186.87 296.655C1191.77 299.28 1197.49 303.056 1203.63 307.73C1230.85 328.525 1263.59 356.865 1304.09 351.705C1336.65 347.562 1351.17 326.913 1361.73 290.86C1368.3 268.717 1371.92 241.579 1377.55 209.507C1377.91 207.478 1378.29 205.462 1378.64 203.462C1387.96 146.909 1384.9 94.8802 1397.32 57.8161C1402.5 42.3334 1410.93 30.9397 1423.84 24.0819C1466.35 1.47544 1479.94 5.38687 1531.86 43.9796C1583.69 82.5831 1588.51 94.5394 1637.8 89.7613C1685.21 85.1446 1675.13 23.8874 1721.93 52.6787C1774.97 85.3098 1815.8 106.532 1836.81 138.745" stroke="#0D1B36" stroke-width="0.64" stroke-miterlimit="10"/>
<path d="M862.297 555.902C862.297 555.902 847.511 517.329 839.505 474.51C834.988 450.383 832.543 426.98 834.145 402.62C836.235 370.883 844.05 342.298 866.672 326.725C869.978 324.442 873.342 322.568 876.624 320.917C940.764 288.34 987.822 359.193 1024.85 344.442C1056.44 331.847 1065.85 284.2 1087.46 267.407C1092.51 263.478 1098.07 261.514 1104.59 262.591C1137.17 268.031 1168.36 276.777 1192.75 289.394C1197.61 291.914 1203.25 295.601 1209.35 300.192C1235.76 319.977 1268.54 347.776 1309.03 342.425C1341.49 338.13 1356.36 317.729 1366.91 281.684C1373.39 259.694 1377.1 232.545 1382.43 200.201C1382.76 198.159 1383.14 196.122 1383.45 194.088C1392.27 136.91 1389.45 84.6936 1401.91 48.3088C1407.21 32.8283 1415.7 21.4606 1428.81 14.7438C1471.94 -7.37684 1486.03 -2.69854 1538.17 36.4601C1590.21 75.6295 1595.2 87.7137 1644.53 82.4659C1692.38 77.3702 1681.88 15.4351 1729.07 44.1463C1781.28 75.8963 1822.69 96.9962 1843.05 129.164" stroke="#0D1B36" stroke-width="0.64" stroke-miterlimit="10"/>
<path d="M867.465 547.783C867.465 547.783 852.718 509.819 844.094 466.634C839.243 442.322 836.275 417.919 837.501 393.389C839.098 361.36 847.01 332.715 869.856 317.609C873.235 315.393 876.629 313.532 879.947 311.915C945.123 280.048 992.776 351.586 1030.47 338.475C1062.54 327.33 1072.18 279.475 1093.25 263.029C1098.22 259.132 1103.69 257.229 1110.14 258.309C1142.48 263.907 1173.43 272.074 1197.37 284.021C1202.19 286.415 1207.76 290.055 1213.84 294.533C1239.44 313.309 1272.23 340.625 1312.75 335.025C1345.12 330.641 1360.35 310.417 1370.86 274.388C1377.26 252.571 1381.07 225.382 1386.09 192.775C1386.41 190.712 1386.74 188.67 1387.04 186.614C1395.35 128.79 1392.78 76.408 1405.26 40.7104C1410.67 25.261 1419.23 13.8904 1432.55 7.28567C1476.26 -14.3622 1490.89 -8.90397 1543.23 30.8495C1595.49 70.5848 1600.64 82.776 1650.02 77.1004C1698.32 71.5467 1687.37 8.9415 1734.98 37.5437C1786.35 68.4126 1828.34 89.3898 1848.07 121.533" stroke="#0D1B36" stroke-width="0.64" stroke-miterlimit="10"/>
<path d="M871.277 541.712C871.277 541.712 856.569 504.357 847.34 460.778C842.163 436.302 838.664 410.878 839.515 386.179C840.638 353.85 848.618 325.13 871.718 310.503C875.163 308.335 878.593 306.508 881.969 304.917C948.19 273.78 996.422 345.962 1034.8 334.512C1067.33 324.794 1077.25 276.786 1097.72 260.642C1102.58 256.784 1107.98 254.906 1114.32 256.004C1146.44 261.711 1177.14 269.348 1200.64 280.626C1205.42 282.915 1210.92 286.487 1216.97 290.831C1241.74 308.626 1274.57 335.352 1315.1 329.602C1347.38 325.088 1362.96 305.091 1373.43 269.048C1379.77 247.376 1383.66 220.205 1388.38 187.305C1388.67 185.229 1388.99 183.166 1389.26 181.098C1397.07 122.627 1394.73 70.0868 1407.25 35.0685C1412.76 19.6292 1421.39 8.2558 1434.93 1.80507C1479.26 -19.357 1494.43 -13.1189 1546.95 27.1874C1599.43 67.5096 1604.71 79.7948 1654.16 73.6626C1702.9 67.6089 1691.52 4.37557 1739.54 32.8688C1790.09 62.8485 1832.63 83.7111 1851.72 115.81" stroke="#0D1B36" stroke-width="0.64" stroke-miterlimit="10"/>
<path d="M873.682 537.876C873.682 537.876 858.992 501.137 849.167 457.186C843.656 432.524 839.642 406.121 840.109 381.231C840.738 348.61 848.786 319.817 872.168 305.683C875.658 303.569 879.146 301.768 882.559 300.211C949.794 269.793 998.664 342.644 1037.69 332.862C1070.73 324.586 1080.9 276.412 1100.79 260.581C1105.57 256.756 1110.86 254.896 1117.14 256.039C1149.06 261.846 1179.49 268.962 1202.54 279.57C1207.25 281.741 1212.7 285.258 1218.74 289.49C1242.7 306.275 1275.55 332.439 1316.09 326.519C1348.28 321.845 1364.21 302.124 1374.65 266.069C1380.9 244.549 1384.91 217.36 1389.32 184.217C1389.6 182.12 1389.87 180.03 1390.14 177.962C1397.42 118.875 1395.35 66.1601 1407.9 31.8002C1413.52 16.392 1422.22 5.01568 1435.96 -1.29408C1480.91 -21.9703 1496.58 -14.9653 1549.32 25.9069C1602.03 66.787 1607.43 79.1951 1656.98 72.6191C1706.13 66.0944 1694.32 2.21201 1742.77 30.5883C1792.5 59.7078 1835.61 80.4267 1854.09 112.493" stroke="#0D1B36" stroke-width="0.64" stroke-miterlimit="10"/>
<path d="M874.582 536.457C874.582 536.457 797.338 345.978 871.084 303.265C944.83 260.552 997.387 342.121 1039.06 333.615C1080.73 325.11 1086.69 252.548 1118.41 258.455C1150.11 264.371 1180.31 270.95 1202.9 280.896C1225.48 290.841 1264.43 333.514 1315.54 325.817C1366.65 318.121 1377.65 273.276 1388.7 183.468C1399.75 93.6611 1389.85 18.1453 1435.43 -2.07408C1481 -22.2934 1497.16 -14.4927 1550.1 26.9534C1603.03 68.3994 1608.59 80.9145 1658.18 73.8898C1707.77 66.8651 1695.53 2.37559 1744.42 30.6349C1793.31 58.8943 1836.99 79.4696 1854.83 111.491" stroke="#0D1B36" stroke-width="0.64" stroke-miterlimit="10"/>
</g>
</g>
<defs>
<clipPath id="clip0_106_8585">
<rect width="1582.55" height="697.588" fill="white" transform="translate(0 363.822) rotate(-20.7554)"/>
</clipPath>
</defs>
</svg>
