<svg width="230" height="342" viewBox="0 0 230 342" fill="none" xmlns="http://www.w3.org/2000/svg">
<path d="M230 341.572L230 335.368L223.79 335.368L223.79 341.572L230 341.572ZM230 313.625L230 307.42L223.79 307.42L223.79 313.625L230 313.625ZM230 285.677L230 279.473L223.79 279.473L223.79 285.677L230 285.677ZM230 257.73L230 251.526L223.79 251.526L223.79 257.73L230 257.73ZM230 229.783L230 223.578L223.79 223.578L223.79 229.783L230 229.783ZM230 201.836L230 195.631L223.79 195.631L223.79 201.836L230 201.836ZM230 173.888L230 167.684L223.79 167.684L223.79 173.888L230 173.888ZM230 145.941L230 139.737L223.79 139.737L223.79 145.941L230 145.941ZM230 117.994L230 111.789L223.79 111.789L223.79 117.994L230 117.994ZM230 90.0464L230 83.8418L223.79 83.8418L223.79 90.0464L230 90.0464ZM230 62.0991L230 55.8945L223.79 55.8945L223.79 62.0991L230 62.0991ZM230 34.1518L230 27.9473L223.79 27.9473L223.79 34.1518L230 34.1518ZM230 6.20458L230 -1.00536e-05L223.79 -9.78215e-06L223.79 6.20458L230 6.20458ZM202.026 341.626L202.026 335.421L195.816 335.421L195.816 341.626L202.026 341.626ZM202.026 313.678L202.026 307.474L195.816 307.474L195.816 313.678L202.026 313.678ZM202.026 285.731L202.026 279.526L195.816 279.526L195.816 285.731L202.026 285.731ZM202.026 257.784L202.026 251.579L195.816 251.579L195.816 257.784L202.026 257.784ZM202.026 229.836L202.026 223.632L195.816 223.632L195.816 229.836L202.026 229.836ZM202.026 201.889L202.026 195.685L195.816 195.685L195.816 201.889L202.026 201.889ZM202.026 173.942L202.026 167.737L195.816 167.737L195.816 173.942L202.026 173.942ZM202.026 145.994L202.026 139.79L195.816 139.79L195.816 145.994L202.026 145.994ZM202.026 118.047L202.026 111.843L195.816 111.843L195.816 118.047L202.026 118.047ZM202.026 90.1L202.026 83.8954L195.816 83.8954L195.816 90.1L202.026 90.1ZM202.026 62.1526L202.026 55.9481L195.816 55.9481L195.816 62.1526L202.026 62.1526ZM202.026 34.2053L202.026 28.0007L195.816 28.0007L195.816 34.2053L202.026 34.2053ZM202.026 6.25796L202.026 0.0533664L195.816 0.0533667L195.816 6.25796L202.026 6.25796ZM174.053 341.679L174.053 335.474L167.842 335.474L167.842 341.679L174.053 341.679ZM174.053 313.732L174.053 307.527L167.842 307.527L167.842 313.732L174.053 313.732ZM174.053 285.784L174.053 279.58L167.842 279.58L167.842 285.784L174.053 285.784ZM174.053 257.837L174.053 251.633L167.842 251.633L167.842 257.837L174.053 257.837ZM174.053 229.89L174.053 223.685L167.842 223.685L167.842 229.89L174.053 229.89ZM174.053 201.943L174.053 195.738L167.842 195.738L167.842 201.943L174.053 201.943ZM174.053 173.995L174.053 167.791L167.842 167.791L167.842 173.995L174.053 173.995ZM174.053 146.048L174.053 139.843L167.842 139.843L167.842 146.048L174.053 146.048ZM174.053 118.101L174.053 111.896L167.842 111.896L167.842 118.101L174.053 118.101ZM174.053 90.1533L174.053 83.9488L167.842 83.9488L167.842 90.1533L174.053 90.1533ZM174.053 62.2062L174.053 56.0016L167.842 56.0016L167.842 62.2062L174.053 62.2062ZM174.053 34.2588L174.053 28.0543L167.842 28.0543L167.842 34.2588L174.053 34.2588ZM174.053 6.31152L174.053 0.106926L167.842 0.106926L167.842 6.31152L174.053 6.31152ZM146.079 341.733L146.079 335.528L139.868 335.528L139.868 341.733L146.079 341.733ZM146.079 313.785L146.079 307.581L139.868 307.581L139.868 313.785L146.079 313.785ZM146.079 285.838L146.079 279.633L139.868 279.633L139.868 285.838L146.079 285.838ZM146.079 257.891L146.079 251.686L139.868 251.686L139.868 257.891L146.079 257.891ZM146.079 229.943L146.079 223.739L139.868 223.739L139.868 229.943L146.079 229.943ZM146.079 201.996L146.079 195.791L139.868 195.791L139.868 201.996L146.079 201.996ZM146.079 174.049L146.079 167.844L139.868 167.844L139.868 174.049L146.079 174.049ZM146.079 146.102L146.079 139.897L139.868 139.897L139.868 146.102L146.079 146.102ZM146.079 118.154L146.079 111.95L139.868 111.95L139.868 118.154L146.079 118.154ZM146.079 90.2069L146.079 84.0023L139.868 84.0023L139.868 90.2069L146.079 90.2069ZM146.079 62.2595L146.079 56.055L139.868 56.055L139.868 62.2595L146.079 62.2595ZM146.079 34.3122L146.079 28.1078L139.868 28.1078L139.868 34.3122L146.079 34.3122ZM146.079 6.36504L146.079 0.160455L139.868 0.160455L139.868 6.36505L146.079 6.36504ZM118.105 341.786L118.105 335.581L111.895 335.581L111.895 341.786L118.105 341.786ZM118.105 313.839L118.105 307.634L111.895 307.634L111.895 313.839L118.105 313.839ZM118.105 285.891L118.105 279.687L111.895 279.687L111.895 285.891L118.105 285.891ZM118.105 257.944L118.105 251.74L111.895 251.74L111.895 257.944L118.105 257.944ZM118.105 229.997L118.105 223.792L111.895 223.792L111.895 229.997L118.105 229.997ZM118.105 202.05L118.105 195.845L111.895 195.845L111.895 202.05L118.105 202.05ZM118.105 174.102L118.105 167.898L111.895 167.898L111.895 174.102L118.105 174.102ZM118.105 146.155L118.105 139.95L111.895 139.95L111.895 146.155L118.105 146.155ZM118.105 118.208L118.105 112.003L111.895 112.003L111.895 118.208L118.105 118.208ZM118.105 90.2604L118.105 84.0558L111.895 84.0558L111.895 90.2604L118.105 90.2604ZM118.105 62.3131L118.105 56.1085L111.895 56.1085L111.895 62.3131L118.105 62.3131ZM118.105 34.3657L118.105 28.1612L111.895 28.1612L111.895 34.3657L118.105 34.3657ZM118.105 6.41842L118.105 0.213832L111.895 0.213832L111.895 6.41842L118.105 6.41842ZM90.1315 341.84L90.1315 335.635L83.9211 335.635L83.9211 341.84L90.1315 341.84ZM90.1315 313.892L90.1315 307.688L83.9211 307.688L83.9211 313.892L90.1315 313.892ZM90.1315 285.945L90.1315 279.74L83.9211 279.74L83.9211 285.945L90.1315 285.945ZM90.1315 257.998L90.1315 251.793L83.9211 251.793L83.9211 257.998L90.1315 257.998ZM90.1315 230.05L90.1315 223.846L83.9211 223.846L83.9211 230.05L90.1315 230.05ZM90.1315 202.103L90.1315 195.899L83.9211 195.899L83.9211 202.103L90.1315 202.103ZM90.1315 174.156L90.1315 167.951L83.9211 167.951L83.9211 174.156L90.1315 174.156ZM90.1315 146.208L90.1315 140.004L83.9211 140.004L83.9211 146.208L90.1315 146.208ZM90.1315 118.261L90.1315 112.057L83.9211 112.057L83.9211 118.261L90.1315 118.261ZM90.1315 90.3138L90.1315 84.1094L83.9211 84.1094L83.9211 90.3138L90.1315 90.3138ZM90.1315 62.3666L90.1315 56.162L83.9211 56.162L83.9211 62.3666L90.1315 62.3666ZM90.1315 34.4193L90.1315 28.2147L83.9211 28.2147L83.9211 34.4193L90.1315 34.4193ZM90.1315 6.47198L90.1315 0.267391L83.9211 0.267391L83.9211 6.47198L90.1315 6.47198ZM62.1578 341.893L62.1578 335.688L55.9474 335.688L55.9474 341.893L62.1578 341.893ZM62.1578 313.946L62.1578 307.741L55.9474 307.741L55.9474 313.946L62.1578 313.946ZM62.1578 285.998L62.1578 279.794L55.9474 279.794L55.9474 285.998L62.1578 285.998ZM62.1578 258.051L62.1578 251.847L55.9474 251.847L55.9474 258.051L62.1578 258.051ZM62.1578 230.104L62.1578 223.899L55.9474 223.899L55.9474 230.104L62.1578 230.104ZM62.1578 202.157L62.1578 195.952L55.9474 195.952L55.9474 202.157L62.1578 202.157ZM62.1578 174.209L62.1578 168.005L55.9474 168.005L55.9474 174.209L62.1578 174.209ZM62.1578 146.262L62.1578 140.057L55.9474 140.057L55.9474 146.262L62.1578 146.262ZM62.1578 118.315L62.1578 112.11L55.9474 112.11L55.9474 118.315L62.1578 118.315ZM62.1578 90.3673L62.1578 84.1627L55.9474 84.1627L55.9474 90.3673L62.1578 90.3673ZM62.1578 62.42L62.1578 56.2154L55.9474 56.2154L55.9474 62.42L62.1578 62.42ZM62.1578 34.4727L62.1578 28.2682L55.9474 28.2682L55.9474 34.4727L62.1578 34.4727ZM62.1578 6.52551L62.1578 0.32092L55.9474 0.32092L55.9474 6.52551L62.1578 6.52551ZM34.1842 341.947L34.1842 335.742L27.9737 335.742L27.9737 341.947L34.1842 341.947ZM34.1842 313.999L34.1842 307.795L27.9737 307.795L27.9737 313.999L34.1842 313.999ZM34.1842 286.052L34.1842 279.847L27.9737 279.847L27.9737 286.052L34.1842 286.052ZM34.1842 258.105L34.1842 251.9L27.9737 251.9L27.9737 258.105L34.1842 258.105ZM34.1842 230.157L34.1842 223.953L27.9737 223.953L27.9737 230.157L34.1842 230.157ZM34.1842 202.21L34.1842 196.005L27.9737 196.005L27.9737 202.21L34.1842 202.21ZM34.1842 174.263L34.1842 168.058L27.9737 168.058L27.9737 174.263L34.1842 174.263ZM34.1842 146.315L34.1842 140.111L27.9737 140.111L27.9737 146.315L34.1842 146.315ZM34.1842 118.368L34.1842 112.164L27.9737 112.164L27.9737 118.368L34.1842 118.368ZM34.1842 90.4209L34.1842 84.2163L27.9737 84.2163L27.9737 90.4209L34.1842 90.4209ZM34.1842 62.4735L34.1842 56.2689L27.9737 56.269L27.9737 62.4735L34.1842 62.4735ZM34.1842 34.5262L34.1842 28.3216L27.9737 28.3216L27.9737 34.5262L34.1842 34.5262ZM34.1842 6.57889L34.1842 0.374297L27.9737 0.374297L27.9737 6.57889L34.1842 6.57889ZM6.21045 342L6.21045 335.795L-2.71208e-07 335.795L0 342L6.21045 342ZM6.21045 314.053L6.21045 307.848L-1.49282e-06 307.848L-1.22161e-06 314.053L6.21045 314.053ZM6.21044 286.105L6.21044 279.901L-2.71444e-06 279.901L-2.44323e-06 286.105L6.21044 286.105ZM6.21044 258.158L6.21044 251.953L-3.93606e-06 251.953L-3.66485e-06 258.158L6.21044 258.158ZM6.21044 230.211L6.21044 224.006L-5.15767e-06 224.006L-4.88646e-06 230.211L6.21044 230.211ZM6.21044 202.264L6.21044 196.059L-6.37928e-06 196.059L-6.10807e-06 202.264L6.21044 202.264ZM6.21044 174.316L6.21044 168.112L-7.6009e-06 168.112L-7.32969e-06 174.316L6.21044 174.316ZM6.21044 146.369L6.21044 140.164L-8.82252e-06 140.164L-8.55131e-06 146.369L6.21044 146.369ZM6.21044 118.422L6.21044 112.217L-1.00441e-05 112.217L-9.77292e-06 118.422L6.21044 118.422ZM6.21044 90.4743L6.21044 84.2698L-1.12657e-05 84.2698L-1.09945e-05 90.4743L6.21044 90.4743ZM6.21043 62.5271L6.21043 56.3225L-1.24874e-05 56.3225L-1.22161e-05 62.5271L6.21043 62.5271ZM6.21043 34.5798L6.21043 28.3752L-1.3709e-05 28.3752L-1.34378e-05 34.5798L6.21043 34.5798ZM6.21043 6.63242L6.21043 0.427826L-1.49306e-05 0.427826L-1.46594e-05 6.63242L6.21043 6.63242Z" fill="#0D1B36"/>
</svg>
