<svg width="919" height="646" viewBox="0 0 919 646" fill="none" xmlns="http://www.w3.org/2000/svg">
<g clip-path="url(#clip0_106_3336)">
<mask id="mask0_106_3336" style="mask-type:luminance" maskUnits="userSpaceOnUse" x="70" y="97" width="824" height="507">
<path d="M79.958 509.23C51.5129 434.172 89.3001 350.266 164.369 321.817C172.628 318.687 181.01 316.352 189.394 314.794C190.606 282.441 210.798 252.406 242.976 240.211C272.079 229.182 303.495 235.593 325.78 254.235C344.209 221.668 373.697 195.107 411.426 180.809C421.012 177.176 430.715 174.493 440.44 172.707C452.792 142.57 477.127 117.414 509.985 104.961C569.283 82.4893 635.151 109.343 662.492 165.177C666.228 163.06 670.163 161.199 674.298 159.632C717.902 143.107 766.656 165.064 783.18 208.668C784.042 210.942 784.769 213.228 785.431 215.514C827.339 203.227 872.309 225.088 888.048 266.618C904.573 310.222 882.616 358.976 839.013 375.501C795.409 392.026 746.655 370.069 730.13 326.465C729.269 324.191 728.531 321.909 727.88 319.619C697.891 328.409 666.359 319.709 645.063 298.831C641.736 302.667 638.145 306.309 634.315 309.724C646.676 386.033 604.229 463.025 529.16 491.474C469.93 513.921 405.879 500.272 361.194 461.438C359.72 518.696 324.249 572.087 267.382 593.638C192.313 622.087 108.407 584.3 79.958 509.23Z" fill="white"/>
</mask>
<g mask="url(#mask0_106_3336)">
<path d="M-222.204 279.141C-222.204 279.141 -193.843 316.002 -178.688 311.19C-163.529 306.388 -172.217 276.029 -154.426 267.846C-136.624 259.659 -125.784 258.763 -102.264 292.068C-78.7371 325.357 -82.2219 329.01 -39.677 384.295C2.86785 439.58 9.78843 452.662 50.0021 445.019C90.2115 437.365 95.7648 384.681 92.0733 314.531C88.3861 244.392 80.8557 206.022 94.042 189.119C107.224 172.205 116.347 192.241 134.229 201.857C152.111 211.472 159.878 224.297 177.665 216.103C195.467 207.916 207.335 221.978 239.905 257.5C272.474 293.021 279.898 333.968 299.593 320.08C319.292 306.203 317.685 324.53 320.328 242.203C322.967 159.865 320.034 150.613 334.926 112.783" stroke="#0D1B36" stroke-width="0.64" stroke-miterlimit="10"/>
<path d="M-221.206 280.496C-221.206 280.496 -193.097 317.198 -177.991 312.659C-162.919 308.132 -171.43 278.241 -153.742 270.289C-137.224 262.92 -126.71 261.803 -106.33 288.166C-104.83 290.108 -103.278 292.184 -101.663 294.427C-77.9663 327.155 -81.4771 330.168 -39.2337 384.624C2.98055 439.104 10.0798 452.22 49.9533 444.655C57.231 443.274 63.3622 440.415 68.5108 436.207C88.4918 419.878 93.6202 383.798 92.7633 337.609C92.632 330.367 92.3506 322.864 91.9624 315.146C88.3599 245.702 80.9851 207.541 94.2302 190.693C107.424 173.876 116.601 193.687 134.472 203.307C151.16 212.292 159.078 224.103 174.654 218.99C175.674 218.655 176.74 218.238 177.829 217.749C195.666 209.854 207.651 224.089 240.018 259.279C245.782 265.508 250.771 271.877 255.192 278.028C275.744 306.862 283.576 332.205 299.688 320.465C315.025 309.273 316.963 317.984 319.137 282.922C319.748 273.13 320.477 260.591 321.12 242.68C324.043 161.024 321.077 151.581 335.73 113.995" stroke="#0D1B36" stroke-width="0.64" stroke-miterlimit="10"/>
<path d="M-219.094 282.704C-219.094 282.704 -191.237 319.247 -176.196 314.974C-161.215 310.712 -169.554 281.24 -151.961 273.578C-135.527 266.42 -125.02 265.523 -104.657 291.47C-103.154 293.386 -101.588 295.432 -99.968 297.622C-76.1824 329.844 -79.6341 332.172 -37.6921 385.799C4.18028 439.478 11.4694 452.624 50.9959 445.152C58.2177 443.792 64.3156 440.946 69.4127 436.771C89.2668 420.476 94.4632 384.677 93.6845 338.93C93.5632 331.748 93.3029 324.301 92.9247 316.643C89.4181 247.889 82.1877 209.941 95.4958 193.157C108.712 176.434 117.94 196.009 135.798 205.66C152.397 214.614 160.355 226.398 175.91 221.497C176.935 221.172 177.982 220.775 179.076 220.297C196.962 212.703 208.953 227.19 241.225 261.958C246.995 268.171 252.052 274.451 256.5 280.503C277.214 308.791 284.9 333.781 300.875 321.748C316.099 310.256 317.653 318.73 320.413 283.968C321.198 274.098 322.278 262.114 322.999 244.072C326.18 163.096 323.205 153.464 337.615 116.111" stroke="#0D1B36" stroke-width="0.64" stroke-miterlimit="10"/>
<path d="M-215.944 285.704C-215.944 285.704 -188.334 322.098 -173.361 318.081C-158.478 314.098 -166.637 285.068 -149.139 277.659C-132.777 270.718 -122.287 270.044 -101.934 295.562C-100.428 297.452 -98.8637 299.46 -97.2294 301.619C-73.3103 333.319 -76.7519 334.968 -35.1071 387.777C6.43464 440.65 13.8982 453.819 53.0888 446.437C60.2661 445.093 66.3082 442.268 71.3719 438.106C91.1103 421.843 96.3565 386.343 95.6631 341.023C95.5629 333.897 95.3126 326.509 94.9513 318.896C91.5336 250.848 84.4434 213.101 97.8145 196.383C111.042 179.758 120.326 199.108 138.161 208.767C154.683 217.687 162.682 229.442 178.2 224.747C179.217 224.437 180.265 224.04 181.36 223.6C199.296 216.305 211.341 231.001 243.458 265.395C249.246 271.588 254.36 277.783 258.827 283.751C279.656 311.536 287.228 336.124 303.093 323.801C318.203 312.007 319.39 320.251 322.72 285.783C323.679 275.834 325.12 264.402 325.904 246.221C329.354 165.921 326.36 156.106 340.542 118.991" stroke="#0D1B36" stroke-width="0.64" stroke-miterlimit="10"/>
<path d="M-211.79 289.432C-211.79 289.432 -184.443 325.671 -169.52 321.928C-154.728 318.209 -162.714 289.635 -145.315 282.468C-129.03 275.761 -118.566 275.288 -98.2118 300.372C-96.7028 302.235 -95.125 304.212 -93.4923 306.334C-69.444 337.501 -72.8711 338.481 -31.5278 390.461C9.68336 442.529 17.3256 455.733 56.1803 448.439C63.3088 447.102 69.3105 444.305 74.3338 440.17C93.9455 423.942 99.2638 388.734 98.6444 343.844C98.5584 336.79 98.3362 329.442 97.9806 321.878C94.7983 254.518 87.7131 216.986 101.147 200.334C114.386 183.806 123.725 202.931 141.553 212.606C157.987 221.495 166.022 233.211 181.523 228.739C182.544 228.441 183.573 228.026 184.673 227.634C202.879 221.219 214.769 235.54 246.735 269.57C252.542 275.744 257.702 281.858 262.206 287.722C283.146 314.994 290.612 339.201 306.352 326.582C321.348 314.487 322.174 322.485 326.074 288.311C327.218 278.279 329.004 267.417 329.861 249.094C333.561 169.489 330.571 159.481 344.506 122.588" stroke="#0D1B36" stroke-width="0.64" stroke-miterlimit="10"/>
<path d="M-206.705 293.802C-206.705 293.802 -179.62 329.886 -164.751 326.405C-150.061 322.954 -157.852 294.829 -140.56 287.919C-124.341 281.441 -113.887 281.176 -93.5651 305.839C-92.0534 307.675 -90.4618 309.622 -88.8195 311.702C-64.6418 342.335 -68.0545 342.647 -27.0084 393.809C13.8567 445.065 21.6776 458.303 60.2075 451.094C67.2803 449.778 73.2374 446.997 78.2273 442.876C97.7233 426.679 103.098 391.755 102.557 347.307C102.492 340.308 102.295 333.028 101.946 325.512C98.8969 258.841 91.9534 221.549 105.411 204.926C118.708 188.516 128.067 207.391 145.872 217.074C162.219 225.934 170.305 237.617 185.773 233.362C186.788 233.079 187.816 232.664 188.914 232.299C207.198 226.325 219.114 240.714 250.925 274.369C256.75 280.523 261.955 286.556 266.485 292.321C287.537 319.079 294.908 342.901 310.523 329.985C325.416 317.585 325.896 325.344 330.333 291.477C331.651 281.366 333.799 271.056 334.722 252.605C338.676 173.669 335.683 163.484 349.378 126.834" stroke="#0D1B36" stroke-width="0.64" stroke-miterlimit="10"/>
<path d="M-200.752 298.748C-200.752 298.748 -173.926 334.687 -159.114 331.458C-144.523 328.286 -152.261 300.231 -134.936 293.946C-118.668 288.036 -108.351 287.644 -88.0391 311.877C-86.5247 313.687 -84.9346 315.596 -83.2827 317.634C-58.9758 347.734 -62.3852 347.381 -21.6294 397.71C18.9051 448.161 26.9047 461.433 65.0876 454.318C72.1046 453.022 78.0283 450.255 82.9778 446.161C102.351 430.011 107.783 395.371 107.327 351.35C107.272 344.411 107.092 337.176 106.764 329.716C103.837 263.737 97.0159 226.667 110.533 210.098C123.852 193.781 133.25 212.425 151.049 222.123C167.319 230.948 175.434 242.608 190.881 238.564C191.888 238.297 192.916 237.882 194.012 237.543C212.39 232.019 224.322 246.452 255.971 279.747C261.803 285.886 267.07 291.845 271.637 297.507C292.789 323.755 300.089 347.221 315.551 333.969C330.353 321.297 330.483 328.769 335.445 295.212C336.96 285.014 339.44 275.279 340.437 256.685C344.626 178.438 341.637 168.06 355.099 131.639" stroke="#0D1B36" stroke-width="0.64" stroke-miterlimit="10"/>
<path d="M-193.993 304.205C-193.993 304.205 -167.43 339.989 -152.672 337.022C-138.182 334.118 -145.747 306.456 -128.507 300.483C-112.284 294.858 -102.014 294.611 -81.7188 318.431C-80.2017 320.214 -78.5978 322.092 -76.9362 324.088C-52.4958 353.666 -55.774 352.55 -15.4364 402.145C24.8731 451.7 32.9345 465.101 70.7772 458.063C77.7455 456.774 83.6177 454.039 88.5338 449.958C107.791 433.838 113.28 399.483 112.902 355.904C112.869 349.021 112.71 341.841 112.387 334.43C109.587 269.156 102.879 232.284 116.459 215.78C129.794 199.573 139.243 217.98 157.035 227.694C173.213 236.477 181.38 248.105 196.793 244.278C197.805 244.022 198.832 243.671 199.919 243.31C218.077 237.206 230.344 252.723 261.839 285.644C267.689 291.763 273.001 297.64 277.606 303.199C298.873 328.944 306.074 352.015 321.411 338.466C336.099 325.493 335.916 332.713 341.394 299.471C343.089 289.179 345.913 280.015 346.988 261.29C351.412 183.731 348.437 173.156 361.661 136.979" stroke="#0D1B36" stroke-width="0.64" stroke-miterlimit="10"/>
<path d="M-186.481 310.102C-186.481 310.102 -160.18 345.731 -145.472 343.037C-131.085 340.402 -138.308 313.605 -121.321 307.473C-105.311 301.686 -94.9038 302.038 -74.6297 325.432C-73.1099 327.188 -71.4963 329.024 -69.8321 330.994C-45.247 360.045 -48.5192 358.239 -8.49001 407.02C31.5 455.766 39.7248 469.194 77.2358 462.257C84.1483 460.988 89.9913 458.277 94.8516 454.217C113.994 438.129 119.442 404.07 119.229 360.925C119.194 354.106 119.067 346.978 118.761 339.611C116.084 275.03 109.498 238.38 123.137 221.93C136.494 205.816 145.998 223.999 163.768 233.721C179.857 242.474 188.076 254.069 203.457 250.458C204.462 250.218 205.493 249.878 206.573 249.532C224.792 243.724 237.113 259.45 268.442 292C274.31 298.1 279.667 303.896 284.303 309.367C305.67 334.603 312.776 357.289 327.999 343.439C342.584 330.161 342.101 337.126 348.077 304.191C349.954 293.805 353.137 285.219 354.269 266.344C358.914 189.466 355.969 178.702 368.961 142.753" stroke="#0D1B36" stroke-width="0.64" stroke-miterlimit="10"/>
<path d="M-178.267 316.371C-178.267 316.371 -152.241 351.849 -137.574 349.413C-123.289 347.046 -130.318 320.698 -113.436 314.823C-97.493 309.265 -87.1073 309.829 -66.8431 332.793C-65.3206 334.523 -63.7044 336.333 -62.0347 338.249C-37.3203 366.767 -40.5558 364.284 -0.846176 412.256C38.8312 460.177 47.2167 473.659 84.3875 466.8C91.2554 465.548 97.0427 462.858 101.87 458.811C120.885 442.758 126.394 408.994 126.266 366.276C126.241 359.517 126.135 352.444 125.851 345.134C123.296 281.245 116.828 244.805 130.529 228.421C143.91 212.401 153.458 230.363 171.221 240.1C187.233 248.818 195.489 260.412 210.84 256.991C211.849 256.762 212.874 256.437 213.947 256.107C232.227 250.594 244.601 266.529 275.775 298.705C281.661 304.785 287.076 310.496 291.738 315.868C313.216 340.59 320.227 362.891 335.314 348.748C349.789 335.181 349.023 341.87 355.48 309.263C357.553 298.79 361.065 290.767 362.275 271.762C367.14 195.565 364.229 184.622 376.977 148.905" stroke="#0D1B36" stroke-width="0.64" stroke-miterlimit="10"/>
<path d="M-169.43 322.939C-169.43 322.939 -143.666 358.261 -129.053 356.089C-114.886 353.983 -121.715 328.094 -104.933 322.461C-89.0517 317.143 -78.6807 317.904 -58.4487 340.447C-56.9235 342.15 -55.2976 343.918 -53.6253 345.808C-28.7662 373.799 -31.9915 370.637 7.40979 417.795C46.7635 464.895 55.3207 478.427 92.1445 471.661C98.9524 470.42 104.715 467.764 109.497 463.734C128.429 447.764 133.94 414.241 133.913 371.957C133.913 365.265 133.825 358.237 133.545 350.975C131.124 287.775 124.767 251.561 138.512 235.224C151.92 219.308 161.503 237.027 179.259 246.78C195.183 255.468 203.48 267.034 218.805 263.813C219.807 263.599 220.831 263.275 221.913 262.967C240.259 257.761 252.678 273.883 283.69 305.699C289.594 311.76 295.055 317.389 299.743 322.662C321.321 346.874 328.242 368.802 343.21 354.347C357.583 340.474 356.549 346.895 363.461 314.614C365.726 304.042 369.574 296.605 370.858 277.457C375.943 201.942 373.062 190.81 385.567 155.325" stroke="#0D1B36" stroke-width="0.64" stroke-miterlimit="10"/>
<path d="M-160.025 329.726C-160.025 329.726 -134.536 364.897 -119.961 362.993C-105.896 361.156 -112.529 335.716 -95.8543 330.34C-80.0544 325.244 -69.6784 326.219 -49.4716 348.326C-47.9437 350.003 -46.304 351.74 -44.622 353.588C-19.6295 381.057 -22.8377 377.2 16.2553 423.544C55.2937 469.846 64.0073 483.421 100.502 476.728C107.265 475.504 112.972 472.869 117.721 468.852C136.537 452.913 142.094 419.679 142.156 377.833C142.166 371.2 142.099 364.228 141.837 357.01C139.542 294.515 133.299 258.5 147.107 242.228C160.526 226.41 170.175 243.9 187.909 253.661C203.745 262.319 212.093 273.852 227.386 270.848C228.392 270.645 229.409 270.336 230.488 270.055C248.906 265.14 261.368 281.475 292.214 312.921C298.137 318.962 303.643 324.511 308.372 329.691C330.047 353.383 336.888 374.933 351.719 360.185C365.978 346.012 364.704 352.167 372.059 320.215C374.523 309.529 378.697 302.683 380.059 283.403C385.341 208.578 382.513 197.247 394.779 162.006" stroke="#0D1B36" stroke-width="0.64" stroke-miterlimit="10"/>
<path d="M-150.097 336.683C-150.097 336.683 -124.886 371.692 -110.349 370.058C-96.4024 368.482 -102.824 343.497 -86.2559 338.378C-70.518 333.523 -60.1567 334.695 -39.982 356.38C-38.436 358.038 -36.7979 359.737 -35.1174 361.547C-9.98022 388.49 -13.1671 383.949 25.6064 429.484C64.328 474.95 73.198 488.567 109.361 481.975C116.069 480.772 121.742 478.15 126.439 474.165C145.144 458.268 150.746 425.323 150.894 383.903C150.914 377.331 150.868 370.414 150.627 363.252C148.454 301.45 142.333 265.656 156.2 249.438C169.646 233.725 179.335 250.983 197.061 260.76C212.817 269.371 221.198 280.892 236.469 278.101C237.469 277.913 238.479 277.619 239.551 277.353C258.045 272.741 270.557 289.274 301.237 320.349C307.178 326.371 312.734 331.85 317.496 336.915C339.271 360.097 346.017 381.263 360.73 366.203C374.886 351.724 373.371 357.614 381.165 325.98C383.822 315.196 388.333 308.936 389.768 289.514C395.259 215.374 392.472 203.849 404.494 168.84" stroke="#0D1B36" stroke-width="0.64" stroke-miterlimit="10"/>
<path d="M-139.733 343.718C-139.733 343.718 -114.806 378.58 -100.301 377.2C-86.4672 375.896 -92.6827 351.355 -76.2207 346.494C-60.5378 341.863 -50.198 343.247 -30.0444 364.507C-28.4957 366.138 -26.8591 367.799 -25.1537 369.575C0.128206 395.991 -3.05269 390.76 35.4124 435.481C73.8033 480.142 82.8409 493.798 118.668 487.295C125.327 486.097 130.953 483.519 135.613 479.535C154.194 463.684 159.85 431.012 160.086 390.03C160.128 383.514 160.103 376.653 159.856 369.544C157.806 308.434 151.803 272.851 165.733 256.699C179.201 241.078 188.934 258.116 206.65 267.897C222.317 276.478 230.75 287.967 245.988 285.392C246.981 285.22 247.995 284.937 249.072 284.682C267.642 280.372 280.188 297.096 310.711 327.823C316.669 333.825 322.271 339.223 327.06 344.19C348.923 366.866 355.597 387.639 370.174 372.286C384.216 357.507 382.482 363.122 390.697 331.825C393.557 320.939 398.39 315.258 399.909 295.689C405.594 222.229 402.852 210.521 414.642 175.74" stroke="#0D1B36" stroke-width="0.64" stroke-miterlimit="10"/>
<path d="M-128.963 350.777C-128.963 350.777 -104.315 385.477 -89.843 384.377C-76.1273 383.335 -82.1319 359.25 -65.7764 354.645C-50.1597 350.244 -39.8193 351.831 -19.7089 372.674C-18.1575 374.279 -16.507 375.909 -14.8074 377.636C10.6234 403.537 7.45959 397.611 45.6052 441.523C83.6793 485.347 92.8775 499.057 128.358 492.647C134.961 491.471 140.553 488.905 145.173 484.949C163.639 469.13 169.328 436.751 169.666 396.202C169.717 389.746 169.713 382.94 169.483 375.876C167.545 315.464 161.671 280.086 175.659 263.989C189.15 248.462 198.913 265.31 216.636 275.075C232.201 283.657 240.688 295.087 255.901 292.712C256.898 292.551 257.901 292.273 258.975 292.044C277.621 288.037 290.217 304.959 320.574 335.316C326.55 341.298 332.198 346.615 337.028 351.489C358.987 373.645 365.571 394.044 380.034 378.391C393.973 363.306 392.02 368.647 400.641 337.681C403.7 326.681 408.862 321.602 410.455 301.89C416.322 229.112 413.648 217.213 425.211 182.672" stroke="#0D1B36" stroke-width="0.64" stroke-miterlimit="10"/>
<path d="M-117.871 357.778C-117.871 357.778 -93.5124 392.32 -79.0677 391.486C-65.4696 390.705 -71.2634 367.075 -55.0144 362.727C-39.4638 358.555 -29.1338 360.35 -9.04448 380.768C-7.49043 382.346 -5.82609 383.946 -4.12795 385.635C21.4474 411.009 18.2896 404.392 56.1268 447.491C93.8815 490.506 103.247 504.254 138.387 497.922C144.946 496.762 150.482 494.218 155.073 490.286C173.427 474.509 179.158 442.407 179.585 402.297C179.647 395.9 179.664 389.15 179.455 382.142C177.639 322.423 171.887 287.266 185.934 271.223C199.441 255.804 209.255 272.417 226.955 282.191C242.433 290.742 250.96 302.144 266.151 299.981C267.141 299.836 268.148 299.568 269.215 299.355C287.949 295.646 300.579 312.759 330.763 342.761C336.758 348.723 342.447 353.948 347.318 358.73C369.367 380.381 375.877 400.386 390.204 384.441C404.033 369.066 401.895 374.121 410.9 343.493C414.162 332.391 419.646 327.891 421.317 308.048C427.366 235.953 424.76 223.863 436.083 189.565" stroke="#0D1B36" stroke-width="0.64" stroke-miterlimit="10"/>
<path d="M-106.494 364.658C-106.494 364.658 -82.4245 399.042 -68.0068 398.473C-54.5305 397.942 -60.0981 374.775 -43.9711 370.677C-28.4824 366.745 -18.1559 368.733 1.90126 388.729C3.45802 390.281 5.13196 391.839 6.84394 393.497C32.564 418.345 29.4164 411.049 66.9341 453.338C104.365 495.532 113.902 509.33 148.707 503.087C155.205 501.937 160.713 499.417 165.258 495.502C183.49 479.771 189.278 447.954 189.79 408.27C189.877 401.94 189.911 395.235 189.708 388.275C188.018 329.26 182.369 294.307 196.479 278.329C210.009 263.004 219.866 279.396 237.56 289.185C252.96 297.702 261.528 309.075 276.686 307.13C277.68 306.995 278.681 306.743 279.745 306.557C298.56 303.161 311.235 320.461 341.253 350.092C347.266 356.035 352.994 361.194 357.903 365.872C380.036 387.007 386.467 406.634 400.68 390.388C414.395 374.712 412.076 379.491 421.471 349.188C424.948 337.979 430.746 334.073 432.49 314.088C438.711 242.68 436.187 230.405 447.263 196.329" stroke="#0D1B36" stroke-width="0.64" stroke-miterlimit="10"/>
<path d="M-94.9206 371.349C-94.9206 371.349 -71.1406 405.575 -56.7456 405.282C-43.387 405.013 -48.7438 382.301 -32.7121 378.456C-17.2896 374.753 -6.9582 376.956 13.0515 396.524C14.6109 398.049 16.2876 399.58 18.005 401.186C43.885 425.514 40.7391 417.516 77.9416 459.007C115.049 500.381 124.754 514.217 159.211 508.067C165.665 506.935 171.121 504.446 175.622 500.548C193.738 484.849 199.572 453.32 200.173 414.074C200.27 407.804 200.325 401.154 200.139 394.24C198.572 335.917 193.045 301.186 207.214 285.261C220.766 270.03 230.663 286.19 248.349 295.995C263.662 304.481 272.27 315.827 287.402 314.082C288.39 313.962 289.395 313.722 290.452 313.551C309.354 310.453 322.063 327.944 351.909 357.22C357.95 363.139 363.713 368.221 368.659 372.797C390.881 393.425 397.24 412.66 411.316 396.121C424.928 380.14 422.444 384.651 432.196 354.683C435.883 343.356 441.996 340.045 443.818 319.929C450.209 249.208 447.765 236.737 458.602 202.905" stroke="#0D1B36" stroke-width="0.64" stroke-miterlimit="10"/>
<path d="M-83.1808 377.774C-83.1808 377.774 -59.6902 411.841 -45.3221 411.814C-32.0855 411.794 -37.2229 389.56 -21.3131 385.965C-5.94567 382.487 4.3753 384.898 24.3528 404.045C25.9192 405.554 27.6055 407.044 29.3213 408.612C55.3503 432.425 52.2103 423.736 89.1002 464.402C125.895 504.951 135.749 518.845 169.882 512.781C176.28 511.669 181.702 509.193 186.159 505.312C204.164 489.655 210.039 458.404 210.729 419.595C210.836 413.385 210.912 406.791 210.748 399.932C209.291 342.307 203.894 307.782 218.121 291.912C231.689 276.789 241.648 292.709 259.317 302.533C274.541 310.989 283.201 322.302 298.3 320.774C299.281 320.67 300.29 320.44 301.34 320.285C320.334 317.497 333.084 335.163 362.746 364.088C368.806 369.988 374.61 374.977 379.587 379.465C401.893 399.577 408.168 418.423 422.13 401.583C435.629 385.301 432.99 389.539 443.099 359.908C447 348.474 453.423 345.747 455.319 325.487C461.882 255.454 459.516 242.788 470.109 209.187" stroke="#0D1B36" stroke-width="0.64" stroke-miterlimit="10"/>
<path d="M-71.3529 383.858C-71.3529 383.858 -48.1558 417.757 -33.8105 418.005C-20.6958 418.236 -25.607 396.464 -9.81487 393.131C5.49066 389.893 15.8081 392.496 35.7423 411.226C37.3225 412.705 39.0073 414.157 40.737 415.694C66.9217 438.976 63.7766 429.601 100.362 469.465C136.833 509.193 146.859 523.137 180.641 517.155C186.994 516.06 192.361 513.605 196.788 509.748C214.678 494.122 220.591 463.174 221.378 424.788C221.506 418.634 221.603 412.096 221.444 405.286C220.111 348.353 214.831 314.038 229.121 298.234C242.712 283.204 252.715 298.904 270.372 308.732C285.509 317.157 294.205 328.432 309.287 327.127C310.276 327.045 311.263 326.824 312.317 326.679C331.403 324.201 344.187 342.058 373.682 370.613C379.76 376.493 385.61 381.401 390.629 385.797C413.02 405.392 419.227 423.856 433.052 406.723C446.448 390.136 443.67 394.108 454.105 364.8C458.217 353.248 464.948 351.131 466.927 330.725C473.646 261.371 471.375 248.516 481.729 215.16" stroke="#0D1B36" stroke-width="0.64" stroke-miterlimit="10"/>
<path d="M-59.4957 389.55C-59.4957 389.55 -36.5921 423.279 -22.2654 423.815C-9.28789 424.289 -13.9644 403.002 1.72806 399.91C16.9828 396.908 27.2967 399.704 47.1834 418.006C48.7663 419.458 50.4649 420.879 52.1931 422.378C78.5379 445.141 75.3945 435.064 111.661 474.118C147.808 513.026 158.002 527.009 191.451 521.127C197.745 520.042 203.082 517.611 207.465 513.77C225.232 498.191 231.198 467.517 232.074 429.568C232.212 423.474 232.331 416.992 232.188 410.226C230.977 353.987 225.819 319.893 240.169 304.143C253.782 289.207 263.829 304.685 281.475 314.518C296.524 322.913 305.26 334.159 320.32 333.066C321.302 333 322.293 332.79 323.341 332.661C342.523 330.503 355.333 348.529 384.655 376.728C390.751 382.589 396.647 387.416 401.703 391.708C424.167 410.792 430.306 428.873 444.018 411.44C457.299 394.552 454.393 398.253 465.17 369.274C469.507 357.612 476.537 356.082 478.595 335.544C485.474 266.883 483.292 253.828 493.414 220.7" stroke="#0D1B36" stroke-width="0.64" stroke-miterlimit="10"/>
<path d="M-47.6651 394.767C-47.6651 394.767 -25.0663 428.331 -10.7511 429.139C2.10443 429.863 -2.3528 409.054 13.2178 406.212C28.4063 403.439 38.7364 406.446 58.5755 424.319C60.1611 425.745 61.8693 427.125 63.596 428.586C90.1008 450.83 86.9522 440.066 122.91 478.306C158.738 516.405 169.074 530.359 202.197 524.626C208.442 523.547 213.732 521.159 218.082 517.331C235.733 501.783 241.744 471.398 242.71 433.887C242.858 427.853 242.998 421.426 242.872 414.705C241.772 359.163 236.744 325.275 251.156 309.59C264.781 294.752 274.883 310.006 292.522 319.854C307.494 328.214 316.27 339.432 331.294 338.544C332.28 338.489 333.264 338.295 334.309 338.192C353.583 336.343 366.433 354.545 395.583 382.389C401.697 388.23 407.628 392.981 412.721 397.169C435.259 415.741 441.34 433.436 454.927 415.706C468.094 398.517 465.072 401.944 476.163 373.292C480.726 361.518 488.06 360.587 490.191 339.907C497.214 271.93 495.131 258.698 505.021 225.797" stroke="#0D1B36" stroke-width="0.64" stroke-miterlimit="10"/>
<path d="M-35.9133 399.44C-35.9133 399.44 -13.608 432.835 0.684383 433.919C13.4027 434.887 9.18705 414.547 24.6469 411.951C39.7846 409.414 50.1 412.617 69.8958 430.074C71.4842 431.473 73.1951 432.826 74.9425 434.242C101.607 455.965 98.4493 444.504 134.099 481.931C169.603 519.209 180.111 533.213 212.898 527.569C219.083 526.499 224.333 524.14 228.637 520.329C246.177 504.823 252.235 474.726 253.286 437.642C253.459 431.675 253.615 425.293 253.5 418.632C252.522 363.782 247.611 330.105 262.087 314.485C275.734 299.74 285.88 314.773 303.508 324.626C318.392 332.956 327.209 344.146 342.211 343.47C343.19 343.43 344.179 343.247 345.216 343.16C364.586 341.632 377.474 359.998 406.44 387.491C412.572 393.312 418.548 397.982 423.682 402.078C446.298 420.149 452.307 437.451 465.769 419.424C478.833 401.93 475.698 405.094 487.093 376.772C491.878 364.876 499.504 364.549 501.723 343.733C508.891 276.44 506.914 263.015 516.56 230.347" stroke="#0D1B36" stroke-width="0.64" stroke-miterlimit="10"/>
<path d="M-24.3074 403.493C-24.3074 403.493 -2.31101 436.712 11.9782 438.091C24.5704 439.297 20.5783 419.446 35.9162 417.1C51.0032 414.799 61.3262 418.191 81.0676 435.234C82.6628 436.618 84.3833 437.929 86.1292 439.307C112.965 460.507 109.787 448.353 145.132 484.977C180.312 521.435 190.988 535.477 223.439 529.922C229.58 528.869 234.785 526.527 239.049 522.744C256.473 507.269 262.576 477.461 263.706 440.819C263.889 434.911 264.066 428.585 263.957 421.973C263.094 367.832 258.313 334.36 272.832 318.788C286.495 304.152 296.702 318.945 314.312 328.817C329.108 337.116 337.977 348.274 352.946 347.815C353.918 347.79 354.907 347.607 355.942 347.546C375.419 346.335 388.336 364.881 417.118 392.023C423.268 397.825 429.29 402.413 434.451 406.41C457.14 423.968 463.092 440.884 476.428 422.56C489.378 404.766 486.153 407.658 497.837 379.661C502.847 367.654 510.776 367.925 513.065 346.955C520.363 280.34 518.506 266.729 527.909 234.294" stroke="#0D1B36" stroke-width="0.64" stroke-miterlimit="10"/>
<path d="M-12.9213 406.864C-12.9213 406.864 8.76613 439.907 23.048 441.569C35.5029 443.019 31.7566 423.648 46.9838 421.548C62.0046 419.476 72.3436 423.079 92.0263 439.698C93.6354 441.052 95.3544 442.325 97.103 443.676C124.099 464.357 120.926 451.512 155.952 487.327C190.809 522.963 201.652 537.044 233.76 531.593C239.845 530.562 245.006 528.237 249.237 524.466C266.538 509.038 272.694 479.503 273.917 443.31C274.121 437.458 274.308 431.192 274.216 424.624C273.465 371.18 268.801 337.919 283.394 322.408C297.08 307.865 307.331 322.437 324.93 332.314C339.638 340.583 348.547 351.713 363.494 351.465C364.471 351.452 365.452 351.284 366.481 351.239C386.053 350.348 399.008 369.058 427.617 395.845C433.785 401.627 439.842 406.139 445.055 410.04C467.818 427.085 473.697 443.608 486.908 424.988C499.756 406.888 496.433 409.523 508.417 381.846C513.664 369.724 521.87 370.591 524.259 349.482C531.701 283.551 529.95 269.747 539.113 237.555" stroke="#0D1B36" stroke-width="0.64" stroke-miterlimit="10"/>
<path d="M-1.7961 409.48C-1.7961 409.48 19.5978 442.354 33.8569 444.292C46.1814 445.97 42.674 427.095 57.7793 425.246C72.7493 423.409 83.096 427.2 102.724 443.407C104.336 444.734 106.069 445.976 107.823 447.275C134.99 467.432 131.797 453.893 166.514 488.894C201.047 523.71 212.051 537.845 243.831 532.468C249.866 531.443 254.987 529.145 259.177 525.403C276.363 510.005 282.564 480.759 283.877 445.004C284.091 439.212 284.31 432.997 284.228 426.489C283.599 373.738 279.053 340.688 293.71 325.242C307.418 310.792 317.709 325.133 335.294 335.04C349.921 343.263 358.87 354.365 373.785 354.334C374.754 354.336 375.74 354.179 376.766 354.161C396.439 353.601 409.426 372.465 437.851 398.901C444.048 404.66 450.14 409.094 455.39 412.892C478.216 429.429 484.049 445.562 497.135 426.645C509.864 408.232 506.471 410.614 518.728 383.254C524.2 371.021 532.705 372.476 535.172 351.235C542.736 285.998 541.113 271.992 550.049 240.04" stroke="#0D1B36" stroke-width="0.64" stroke-miterlimit="10"/>
<path d="M9.01661 411.272C9.01661 411.272 30.0973 443.958 44.3644 446.187C56.5475 448.096 53.279 429.717 68.2735 428.114C83.1927 426.513 93.5401 430.508 113.117 446.275C114.731 447.576 116.478 448.787 118.23 450.048C145.569 469.681 142.355 455.45 176.768 489.648C210.977 523.644 222.148 537.817 253.585 532.544C259.565 531.54 264.645 529.271 268.787 525.534C285.861 510.179 292.108 481.221 293.506 445.892C293.73 440.16 293.971 434.002 293.905 427.538C293.388 375.485 288.975 342.651 303.69 327.259C317.41 312.907 327.756 327.023 345.33 336.934C359.869 345.127 368.858 356.201 383.752 356.382C384.725 356.396 385.704 356.254 386.723 356.251C406.507 356.019 419.516 375.04 447.768 401.121C453.984 406.86 460.105 411.207 465.397 414.912C488.285 430.941 494.061 446.687 507.022 427.474C519.648 408.756 516.184 410.885 528.703 383.846C534.412 371.498 543.199 373.56 545.75 352.172C553.444 287.612 551.941 273.421 560.633 241.701" stroke="#0D1B36" stroke-width="0.64" stroke-miterlimit="10"/>
<path d="M19.4229 412.159C19.4229 412.159 40.1947 444.669 54.4586 447.192C66.5113 449.33 63.4817 431.446 78.3432 430.097C93.2116 428.733 103.567 432.916 123.078 448.275C124.699 449.56 126.451 450.718 128.206 451.953C155.716 471.062 152.486 456.148 186.587 489.522C220.472 522.697 231.815 536.92 262.911 531.725C268.847 530.737 273.882 528.485 277.984 524.777C294.931 509.457 301.235 480.783 302.722 445.892C302.967 440.216 303.218 434.117 303.169 427.699C302.763 376.342 298.479 343.714 313.253 328.377C326.996 314.118 337.386 328.014 354.948 337.929C369.399 346.092 378.429 357.137 393.301 357.531C394.268 357.56 395.251 357.429 396.262 357.441C416.147 357.541 429.199 376.711 457.256 402.446C463.49 408.165 469.657 412.43 474.991 416.043C497.941 431.565 503.671 446.92 516.507 427.41C529.019 408.392 525.507 410.258 538.272 383.534C544.222 371.081 553.282 373.728 555.922 352.205C563.734 288.327 562.367 273.956 570.816 242.469" stroke="#0D1B36" stroke-width="0.64" stroke-miterlimit="10"/>
<path d="M29.3907 412.091C29.3907 412.091 49.8494 444.414 64.1101 447.231C76.0283 449.585 73.2418 432.209 87.9883 431.095C102.81 429.977 113.18 434.333 132.625 449.284C134.26 450.538 136.004 451.674 137.78 452.862C165.472 471.444 162.21 455.841 196.007 488.412C229.568 520.767 241.079 535.028 271.844 529.933C277.719 528.956 282.714 526.731 286.786 523.047C303.622 507.769 309.967 479.373 311.544 444.92C311.803 439.315 312.082 433.256 312.043 426.898C311.749 376.238 307.583 343.821 322.431 328.544C336.185 314.384 346.641 328.05 364.186 337.985C378.56 346.113 387.63 357.131 402.465 357.729C403.425 357.773 404.412 357.654 405.417 357.681C425.413 358.108 438.486 377.437 466.359 402.82C472.611 408.519 478.813 412.708 484.184 416.218C507.186 431.236 512.865 446.19 525.58 426.393C537.978 407.074 534.411 408.694 547.434 382.28C553.632 369.708 562.972 372.962 565.681 351.285C573.612 288.089 572.365 273.532 580.583 242.273" stroke="#0D1B36" stroke-width="0.64" stroke-miterlimit="10"/>
<path d="M38.8526 410.991C38.8526 410.991 59.0092 443.122 73.2557 446.238C85.0323 448.824 82.489 431.955 97.1094 431.08C111.88 430.198 122.262 434.754 141.637 449.285C143.275 450.512 145.033 451.618 146.803 452.757C174.666 470.815 171.384 454.519 204.876 486.287C238.114 517.821 249.796 532.132 280.21 527.12C286.041 526.159 290.991 523.951 295.019 520.284C311.739 505.037 318.134 476.941 319.796 442.914C320.065 437.369 320.365 431.366 320.343 425.052C320.16 375.09 316.123 342.879 331.034 327.668C344.811 313.6 355.311 327.046 372.844 336.985C387.13 345.083 396.237 356.061 411.054 356.883C412.018 356.938 413.003 356.846 413.996 356.877C434.097 357.647 447.21 377.113 474.899 402.146C481.18 407.821 487.406 411.938 492.825 415.34C515.893 429.861 521.523 444.413 534.112 424.32C546.407 404.696 542.796 406.064 556.061 379.953C562.5 367.277 572.113 371.117 574.911 349.304C582.949 286.794 581.845 272.043 589.819 241.016" stroke="#0D1B36" stroke-width="0.64" stroke-miterlimit="10"/>
<path d="M47.7526 408.778C47.7526 408.778 67.5919 440.711 81.8436 444.144C93.4857 446.946 91.1854 430.584 105.684 429.959C120.404 429.314 130.804 434.053 150.114 448.175C151.755 449.376 153.522 450.44 155.306 451.549C183.351 469.078 180.037 452.093 213.222 483.048C246.136 513.761 257.974 528.115 288.068 523.199C293.843 522.259 298.749 520.068 302.747 516.424C319.345 501.224 325.792 473.402 327.543 439.813C327.834 434.323 328.144 428.38 328.139 422.111C328.066 372.846 324.159 340.84 339.122 325.699C352.91 311.729 363.465 324.95 380.991 334.905C395.189 342.972 404.347 353.918 419.132 354.956C420.089 355.027 421.067 354.95 422.069 355.003C442.274 356.116 455.427 375.72 482.921 400.406C489.22 406.062 495.491 410.097 500.94 413.411C524.06 427.428 529.644 441.59 542.103 421.189C554.284 401.264 550.629 402.382 564.141 376.585C570.832 363.801 580.707 368.23 583.594 346.282C591.738 284.457 590.778 269.512 598.524 238.724" stroke="#0D1B36" stroke-width="0.64" stroke-miterlimit="10"/>
<path d="M55.8883 405.019C55.8883 405.019 75.4144 436.765 89.663 440.492C101.171 443.511 99.1176 427.667 113.501 427.277C128.175 426.879 138.59 431.791 157.823 445.509C159.481 446.69 161.247 447.717 163.029 448.787C191.257 465.789 187.912 448.115 220.78 478.272C253.355 508.157 265.381 522.567 295.123 517.733C300.85 516.799 305.719 514.648 309.658 511.014C326.139 495.845 332.633 468.311 334.473 435.16C334.774 429.73 335.116 423.839 335.117 417.618C335.156 369.05 331.381 337.262 346.399 322.163C360.214 308.298 370.808 321.288 388.324 331.246C402.434 339.283 411.632 350.201 426.395 351.452C427.357 351.533 428.327 351.471 429.322 351.541C449.643 352.992 462.82 372.727 490.134 397.073C496.451 402.71 502.757 406.668 508.255 409.874C531.415 423.392 536.959 437.148 549.309 416.457C561.376 396.231 557.703 397.1 571.436 371.616C578.379 358.723 588.515 363.741 591.491 341.657C599.742 280.519 598.925 265.379 606.427 234.824" stroke="#0D1B36" stroke-width="0.64" stroke-miterlimit="10"/>
<path d="M63.2854 399.883C63.2854 399.883 82.5053 431.426 96.7437 435.463C108.112 438.688 106.311 423.373 120.569 423.222C135.191 423.06 145.64 428.163 164.792 441.465C166.454 442.62 168.233 443.616 170.014 444.649C198.435 461.118 195.047 442.759 227.607 472.102C259.859 501.168 272.052 515.616 301.462 510.882C307.133 509.969 311.958 507.835 315.867 504.225C332.238 489.098 338.777 461.852 340.702 429.128C341.024 423.754 341.376 417.923 341.398 411.758C341.548 363.887 337.892 332.309 352.983 317.272C366.81 303.504 377.455 316.257 394.968 326.243C409.001 334.245 418.229 345.139 432.966 346.591C433.921 346.688 434.896 346.637 435.884 346.721C456.308 348.516 469.525 368.389 496.644 392.388C502.979 398.005 509.32 401.886 514.87 404.996C538.086 418.021 543.591 431.371 555.805 410.388C567.769 389.857 564.06 390.498 578.015 365.298C585.211 352.297 595.601 357.92 598.673 335.685C607.016 275.226 606.357 259.899 613.62 229.587" stroke="#0D1B36" stroke-width="0.64" stroke-miterlimit="10"/>
<path d="M71.0766 392.558C71.0766 392.558 89.9791 423.903 104.223 428.257C115.457 431.698 113.892 416.906 128.034 416.989C142.611 417.074 153.074 422.35 172.161 435.244C173.825 436.373 175.614 437.326 177.404 438.317C206.008 454.259 202.588 435.211 234.844 463.751C266.772 491.996 279.137 506.494 308.196 501.842C313.822 500.946 318.591 498.833 322.467 495.235C338.722 480.14 345.306 453.183 347.321 420.896C347.653 415.582 348.026 409.807 348.065 403.686C348.315 356.517 344.799 325.141 359.954 310.169C373.803 296.494 384.503 309.023 401.994 319.017C415.935 326.977 425.214 337.84 439.922 339.518C440.87 339.631 441.849 339.591 442.83 339.691C463.364 341.839 476.616 361.839 503.544 385.503C509.909 391.096 516.268 394.894 521.86 397.911C545.116 410.437 550.586 423.392 562.686 402.108C574.532 381.265 570.825 381.675 584.996 356.776C592.459 343.674 603.096 349.879 606.252 327.497C614.686 267.717 614.186 252.202 621.21 222.134" stroke="#0D1B36" stroke-width="0.64" stroke-miterlimit="10"/>
<path d="M78.6652 384.329C78.6652 384.329 97.2573 415.46 111.495 420.134C122.591 423.781 121.277 409.518 135.278 409.834C149.808 410.165 160.297 415.61 179.291 428.093C180.969 429.191 182.761 430.118 184.55 431.072C213.347 446.481 209.884 426.748 241.832 454.475C273.436 481.899 285.957 496.439 314.696 491.884C320.262 490.998 325.002 488.908 328.837 485.339C344.969 470.289 351.607 443.606 353.711 411.757C354.057 406.514 354.447 400.783 354.492 394.711C354.853 348.239 351.466 317.069 366.684 302.162C380.544 288.586 391.3 300.89 408.783 310.899C422.636 318.829 431.956 329.663 446.643 331.554C447.595 331.678 448.567 331.653 449.541 331.769C470.183 334.271 483.471 354.398 510.215 377.71C516.597 383.284 522.991 387.005 528.632 389.915C551.932 401.952 557.359 414.49 569.338 392.921C581.069 371.776 577.349 371.95 591.732 347.34C599.447 334.13 610.346 340.923 613.59 318.406C622.121 259.316 621.779 243.614 628.556 213.768" stroke="#0D1B36" stroke-width="0.64" stroke-miterlimit="10"/>
<path d="M85.6583 375.738C85.6583 375.738 103.944 406.667 118.172 411.651C129.135 415.488 128.066 401.77 141.952 402.32C156.436 402.899 166.95 408.512 185.868 420.591C187.553 421.673 189.354 422.559 191.142 423.475C220.128 438.34 216.626 417.934 248.27 444.858C279.539 471.466 292.244 486.052 320.642 481.574C326.164 480.705 330.852 478.648 334.65 475.08C350.666 460.062 357.353 433.678 359.543 402.255C359.91 397.068 360.321 391.393 360.376 385.381C360.837 339.611 357.591 308.642 372.867 293.79C386.75 280.307 397.55 292.39 415.022 302.403C428.798 310.299 438.158 321.105 452.808 323.201C453.753 323.34 454.729 323.327 455.701 323.469C476.452 326.325 489.781 346.563 516.324 369.544C522.735 375.094 529.153 378.742 534.846 381.556C558.19 393.104 563.59 405.233 575.443 383.367C587.061 361.921 583.343 361.864 597.926 337.549C605.908 324.237 617.053 331.613 620.398 308.956C629.009 250.549 628.825 234.66 635.37 205.041" stroke="#0D1B36" stroke-width="0.64" stroke-miterlimit="10"/>
<path d="M92.1034 366.846C92.1034 366.846 110.079 397.561 124.305 402.877C135.13 406.92 134.312 393.731 148.072 394.52C162.509 395.346 173.06 401.124 191.879 412.806C193.578 413.858 195.378 414.706 197.179 415.591C226.359 429.924 222.814 408.833 254.15 434.944C285.091 460.719 297.967 475.355 326.022 470.982C331.488 470.134 336.143 468.089 339.89 464.554C355.79 449.567 362.523 423.471 364.802 392.487C365.179 387.36 365.612 381.74 365.683 375.773C366.256 330.699 363.127 299.941 378.466 285.154C392.361 271.769 403.215 283.627 420.665 293.649C434.353 301.514 443.749 312.281 458.382 314.6C459.331 314.751 460.301 314.753 461.266 314.91C482.129 318.131 495.49 338.485 521.848 361.116C528.274 366.635 534.73 370.217 540.461 372.927C563.849 383.987 569.209 395.71 580.945 373.532C592.459 351.781 588.732 351.498 603.512 327.465C611.766 314.063 623.141 322.014 626.586 299.218C635.284 241.479 635.263 225.413 641.58 196.034" stroke="#0D1B36" stroke-width="0.64" stroke-miterlimit="10"/>
<path d="M98.0635 357.716C98.0635 357.716 115.728 388.218 129.949 393.855C140.646 398.099 140.062 385.458 153.703 386.471C168.093 387.544 178.677 393.476 197.412 404.77C199.113 405.795 200.927 406.611 202.723 407.448C232.096 421.249 228.508 399.473 259.54 424.781C290.146 449.74 303.194 464.426 330.92 460.126C336.337 459.284 340.941 457.272 344.654 453.749C360.432 438.808 367.217 412.986 369.586 382.439C369.973 377.372 370.426 371.808 370.514 365.886C371.183 321.503 368.199 290.957 383.601 276.236C397.518 262.944 408.424 274.566 425.86 284.618C439.46 292.453 448.896 303.192 463.507 305.724C464.45 305.889 465.428 305.914 466.381 306.075C487.342 309.654 500.756 330.116 526.913 352.415C533.367 357.91 539.847 361.42 545.631 364.034C569.052 374.61 574.38 385.911 585.994 363.447C597.395 341.395 593.67 340.882 608.661 317.139C617.183 303.635 628.805 312.169 632.338 289.236C641.106 232.185 641.265 215.923 647.339 186.777" stroke="#0D1B36" stroke-width="0.64" stroke-miterlimit="10"/>
<path d="M103.613 348.411C103.613 348.411 120.974 378.683 135.182 384.657C145.747 389.091 145.408 376.995 158.922 378.247C173.266 379.567 183.887 385.663 202.534 396.557C204.249 397.551 206.062 398.33 207.86 399.14C237.433 412.394 233.785 389.953 264.523 414.454C294.806 438.593 308.021 453.317 335.405 449.121C340.766 448.3 345.337 446.301 349.009 442.806C364.671 427.896 371.507 402.374 373.96 372.254C374.368 367.242 374.832 361.739 374.941 355.872C375.721 312.186 372.866 281.846 388.331 267.19C402.256 253.984 413.22 265.393 430.645 275.45C444.169 283.25 453.645 293.961 468.224 296.709C469.17 296.886 470.13 296.93 471.088 297.102C492.162 301.047 505.618 321.619 531.568 343.576C538.041 349.052 544.555 352.485 550.376 354.995C573.831 365.087 579.142 375.974 590.631 353.213C601.914 330.849 598.21 330.124 613.382 306.656C622.176 293.062 634.028 302.172 637.657 279.088C646.506 222.72 646.835 206.267 652.669 177.364" stroke="#0D1B36" stroke-width="0.64" stroke-miterlimit="10"/>
<path d="M108.777 338.997C108.777 338.997 125.839 369.051 140.03 375.35C150.452 379.979 150.372 368.434 163.752 369.903C178.054 371.481 188.707 377.731 207.255 388.228C208.978 389.207 210.799 389.945 212.607 390.713C242.381 403.419 238.683 380.308 269.113 403.996C299.061 427.318 312.459 442.087 339.503 437.97C344.815 437.155 349.334 435.187 352.973 431.705C368.52 416.827 375.412 391.589 377.944 361.91C378.362 356.959 378.857 351.507 378.973 345.689C379.852 302.704 377.126 272.571 392.666 257.976C406.613 244.863 417.621 256.052 435.039 266.124C448.475 273.894 457.987 284.565 472.544 287.525C473.484 287.717 474.448 287.772 475.403 287.971C496.583 292.297 510.084 312.954 535.843 334.575C542.345 340.027 548.883 343.387 554.753 345.79C578.252 355.393 583.524 365.875 594.888 342.817C606.067 320.148 602.359 319.208 617.727 296.023C626.803 282.335 638.887 292.019 642.605 268.8C651.518 213.109 652.036 196.481 657.627 167.811" stroke="#0D1B36" stroke-width="0.64" stroke-miterlimit="10"/>
<path d="M113.636 329.52C113.636 329.52 130.384 359.349 144.577 365.991C154.867 370.81 155.026 359.826 168.286 361.518C182.541 363.343 193.239 369.742 211.692 379.855C213.428 380.803 215.264 381.51 217.059 382.244C247.033 394.403 243.274 370.627 273.411 393.508C303.031 415.998 316.605 430.828 343.302 426.804C348.558 426.01 353.044 424.055 356.642 420.601C372.066 405.769 379.011 380.805 381.621 351.568C382.065 346.684 382.566 341.28 382.698 335.507C383.678 293.224 381.092 263.292 396.69 248.751C410.649 235.737 421.713 246.7 439.12 256.776C452.467 264.516 462.031 275.155 476.555 278.331C477.488 278.539 478.456 278.605 479.404 278.82C500.686 283.514 514.237 304.268 539.794 325.558C546.314 330.99 552.875 334.278 558.808 336.58C582.333 345.714 587.58 355.759 598.834 332.411C609.9 309.442 606.213 308.29 621.758 285.368C631.106 271.59 643.42 281.85 647.238 258.491C656.232 203.483 656.92 186.664 662.267 158.226" stroke="#0D1B36" stroke-width="0.64" stroke-miterlimit="10"/>
<path d="M118.237 320.065C118.237 320.065 134.681 349.665 148.861 356.643C159.03 361.648 159.427 351.224 172.557 353.144C186.769 355.227 197.511 361.775 215.849 371.485C217.588 372.407 219.433 373.072 221.227 373.768C251.402 385.38 247.593 360.934 277.422 383.001C306.706 404.675 320.459 419.54 346.82 415.605C352.032 414.828 356.462 412.894 360.02 409.468C375.329 394.667 382.323 370.002 385.018 341.192C385.472 336.368 385.995 331.02 386.148 325.302C387.228 283.72 384.782 253.991 400.443 239.515C414.413 226.598 425.543 237.332 442.932 247.428C456.198 255.122 465.792 265.738 480.299 269.137C481.235 269.356 482.197 269.438 483.149 269.663C504.537 274.738 518.136 295.588 543.487 316.535C550.036 321.944 556.621 325.159 562.592 327.357C586.15 336.008 591.38 345.638 602.498 321.998C613.445 298.716 609.784 297.363 625.521 274.713C635.152 260.84 647.686 271.68 651.604 248.181C660.652 193.854 661.536 176.846 666.651 148.636" stroke="#0D1B36" stroke-width="0.64" stroke-miterlimit="10"/>
<path d="M122.632 310.675C122.632 310.675 138.784 340.041 152.94 347.359C162.978 352.555 163.623 342.686 176.623 344.834C190.793 347.176 201.574 353.862 219.818 363.187C221.57 364.078 223.418 364.716 225.221 365.371C255.608 376.431 251.723 351.313 281.263 372.584C310.212 393.442 324.137 408.356 350.173 404.506C355.329 403.75 359.719 401.845 363.239 398.42C378.421 383.654 385.472 359.274 388.257 330.902C388.72 326.137 389.264 320.845 389.434 315.172C390.61 274.28 388.298 244.768 404.022 230.358C418.015 217.534 429.184 228.037 446.566 238.148C459.744 245.811 469.389 256.395 483.863 260.011C484.793 260.245 485.763 260.349 486.693 260.583C508.187 266.038 521.842 286.969 546.995 307.596C553.563 312.984 560.186 316.134 566.205 318.225C589.79 326.406 594.995 335.6 605.999 311.66C616.832 288.077 613.196 286.523 629.106 264.126C639.024 250.17 651.773 261.578 655.791 237.939C664.904 184.288 665.973 167.095 670.849 139.129" stroke="#0D1B36" stroke-width="0.64" stroke-miterlimit="10"/>
<path d="M126.89 301.425C126.89 301.425 142.745 330.548 156.886 338.229C166.798 343.599 167.674 334.306 180.555 336.677C194.683 339.277 205.503 346.101 223.652 355.042C225.407 355.906 227.265 356.502 229.071 357.131C259.669 367.639 255.723 341.855 284.959 362.324C313.569 382.355 327.677 397.314 353.366 393.557C358.474 392.807 362.823 390.93 366.303 387.533C381.373 372.81 388.481 348.714 391.34 320.772C391.824 316.064 392.378 310.831 392.565 305.203C393.841 265.013 391.669 235.702 407.456 221.357C421.46 208.631 432.685 218.909 450.06 229.035C463.15 236.669 472.835 247.224 487.284 251.041C488.207 251.29 489.181 251.405 490.115 251.65C511.715 257.486 525.415 278.502 550.362 298.786C556.958 304.151 563.594 307.232 569.662 309.216C593.273 316.928 598.457 325.697 609.335 301.459C620.054 277.576 616.451 275.805 632.531 253.688C642.736 239.649 655.701 251.625 659.819 227.847C668.986 174.876 670.239 157.499 674.883 129.761" stroke="#0D1B36" stroke-width="0.64" stroke-miterlimit="10"/>
<path d="M131.058 292.376C131.058 292.376 146.62 321.265 160.737 329.287C170.518 334.847 171.632 326.114 184.393 328.709C198.467 331.572 209.349 338.525 227.382 347.089C229.155 347.934 231.011 348.493 232.822 349.068C263.616 359.017 259.614 332.58 288.552 352.231C316.828 371.445 331.119 386.45 356.472 382.782C361.524 382.053 365.828 380.192 369.275 376.808C384.229 362.116 391.383 338.309 394.331 310.805C394.825 306.156 395.412 300.976 395.593 295.4C396.969 255.911 394.937 226.803 410.787 212.523C424.814 199.89 436.094 209.943 453.447 220.078C466.46 227.677 476.181 238.193 490.601 242.237C491.528 242.498 492.485 242.633 493.427 242.9C515.122 249.121 528.889 270.213 553.638 290.177C560.249 295.511 566.924 298.527 573.039 300.403C596.681 307.657 601.846 315.974 612.604 291.451C623.22 267.262 619.632 265.295 635.888 243.442C646.385 229.331 659.56 241.865 663.774 217.935C672.991 165.634 674.445 148.078 678.85 120.584" stroke="#0D1B36" stroke-width="0.64" stroke-miterlimit="10"/>
<path d="M135.183 283.585C135.183 283.585 150.449 312.23 164.546 320.603C174.202 326.338 175.558 318.176 188.185 320.988C202.216 324.109 213.145 331.184 231.075 339.38C232.863 340.194 234.717 340.715 236.531 341.264C267.532 350.65 263.458 323.551 292.108 342.407C320.044 360.793 334.507 375.848 359.524 372.269C364.531 371.557 368.791 369.713 372.186 366.361C387.014 351.704 394.235 328.177 397.262 301.116C397.777 296.523 398.373 291.402 398.576 285.882C400.041 247.099 398.149 218.192 414.07 203.962C428.104 191.416 439.443 201.255 456.784 211.395C469.709 218.963 479.471 229.451 493.87 233.707C494.79 233.983 495.75 234.129 496.686 234.412C518.475 241.017 532.299 262.19 556.846 281.823C563.485 287.134 570.177 290.092 576.352 291.856C600.02 298.642 605.165 306.533 615.797 281.713C626.295 257.212 622.752 255.062 639.177 233.452C649.96 219.257 663.347 232.348 667.665 208.29C676.936 156.669 678.59 138.936 682.747 111.663" stroke="#0D1B36" stroke-width="0.64" stroke-miterlimit="10"/>
<path d="M139.336 275.103C139.336 275.103 154.305 303.502 168.387 312.238C177.933 318.155 179.509 310.573 192.012 313.597C205.995 316.992 216.981 324.186 234.794 332.005C236.584 332.792 238.452 333.283 240.265 333.794C271.485 342.612 267.331 314.869 295.684 332.906C323.286 350.476 337.931 365.576 362.612 362.087C367.559 361.384 371.779 359.569 375.14 356.23C389.853 341.604 397.124 318.376 400.236 291.741C400.765 287.219 401.378 282.143 401.598 276.668C403.159 238.575 401.411 209.881 417.395 195.717C431.44 183.268 442.83 192.872 460.169 203.037C473.002 210.564 482.815 221.02 497.181 225.493C498.105 225.78 499.059 225.941 499.988 226.239C521.876 233.24 535.763 254.478 560.096 273.784C566.765 279.071 573.48 281.956 579.693 283.617C603.391 289.945 608.51 297.4 619.028 272.279C629.412 247.477 625.9 245.137 642.497 223.78C653.576 209.524 667.17 223.162 671.587 198.964C680.912 148.024 682.763 130.101 686.692 103.067" stroke="#0D1B36" stroke-width="0.64" stroke-miterlimit="10"/>
<path d="M143.577 267.02C143.577 267.02 158.261 295.171 172.312 304.263C181.733 310.355 183.539 303.348 195.923 306.596C209.863 310.248 220.896 317.565 238.608 325.015C240.412 325.771 242.278 326.224 244.105 326.704C275.532 334.96 271.31 306.566 299.359 323.802C326.622 340.544 341.454 355.701 365.795 352.289C370.698 351.603 374.873 349.805 378.194 346.494C392.795 331.91 400.107 308.96 403.309 282.763C403.859 278.297 404.482 273.281 404.719 267.85C406.369 230.462 404.761 201.97 420.819 187.867C434.887 175.512 446.332 184.891 463.648 195.065C476.405 202.557 486.247 212.989 500.591 217.674C501.509 217.976 502.471 218.16 503.388 218.462C525.376 225.859 539.325 247.163 563.457 266.137C570.144 271.404 576.882 274.217 583.154 275.766C606.883 281.636 611.973 288.643 622.366 263.226C632.636 238.123 629.165 235.589 645.919 214.479C657.3 200.146 671.079 214.338 675.623 190.003C684.986 139.737 687.048 121.632 690.734 94.8306" stroke="#0D1B36" stroke-width="0.64" stroke-miterlimit="10"/>
<path d="M147.945 259.374C147.945 259.374 162.343 287.276 176.363 296.724C185.675 302.997 187.701 296.57 199.962 300.03C213.853 303.957 224.95 311.376 242.537 318.465C244.355 319.191 246.236 319.613 248.045 320.049C279.675 327.73 275.386 298.687 303.141 315.115C330.058 331.046 345.08 346.232 369.079 342.925C373.926 342.26 378.06 340.49 381.344 337.18C395.818 322.632 403.203 299.974 406.478 274.207C407.039 269.801 407.683 264.84 407.936 259.454C409.682 222.757 408.219 194.478 424.339 180.44C438.419 168.183 449.919 177.336 467.217 187.53C479.886 194.992 489.775 205.38 504.091 210.293C505.013 210.606 505.957 210.809 506.878 211.123C528.954 218.92 542.978 240.285 566.896 258.932C573.608 264.164 580.378 266.927 586.699 268.368C610.447 273.785 615.523 280.351 625.802 254.633C635.957 229.229 632.527 226.501 649.443 205.648C661.12 191.254 675.094 205.997 679.75 181.517C689.152 131.925 691.425 113.639 694.872 87.0805" stroke="#0D1B36" stroke-width="0.64" stroke-miterlimit="10"/>
<path d="M152.507 252.24C152.507 252.24 166.631 279.889 180.614 289.708C189.8 296.156 192.061 290.316 204.199 293.989C218.04 298.189 229.202 305.711 246.672 312.424C248.493 313.123 250.383 313.503 252.195 313.913C284.039 321.016 279.664 291.342 307.138 306.959C333.716 322.062 348.914 337.31 372.583 334.076C377.381 333.417 381.475 331.675 384.719 328.393C399.077 313.876 406.518 291.502 409.872 266.178C410.443 261.831 411.108 256.927 411.382 251.596C413.217 215.605 411.89 187.516 428.074 173.544C442.165 161.384 453.72 170.313 471.007 180.511C483.599 187.938 493.518 198.302 507.811 203.427C508.726 203.756 509.674 203.97 510.594 204.31C532.757 212.507 546.851 233.922 570.571 252.249C577.312 257.458 584.099 260.163 590.464 261.486C614.243 266.445 619.3 272.559 629.447 246.559C639.484 220.843 636.093 217.948 653.172 197.326C665.156 182.867 679.322 198.149 684.077 173.529C693.529 124.606 696.002 106.142 699.206 79.8164" stroke="#0D1B36" stroke-width="0.64" stroke-miterlimit="10"/>
<path d="M157.327 245.684C157.327 245.684 171.176 273.081 185.117 283.26C194.19 289.879 196.674 284.629 208.688 288.514C222.488 292.972 233.707 300.613 251.065 306.961C252.903 307.641 254.792 307.983 256.614 308.35C288.672 314.875 284.222 284.567 311.403 299.378C337.634 313.668 353.027 328.957 376.349 325.816C381.091 325.179 385.141 323.453 388.34 320.189C402.571 305.707 410.069 283.617 413.512 258.73C414.104 254.44 414.779 249.595 415.071 244.309C416.99 209.012 415.819 181.132 432.065 167.225C446.175 155.148 457.785 163.852 475.058 174.08C487.562 181.477 497.528 191.798 511.789 197.139C512.697 197.484 513.649 197.709 514.562 198.064C536.813 206.662 550.981 228.138 574.488 246.138C581.258 251.322 588.058 253.959 594.482 255.17C618.284 259.687 623.323 265.349 633.356 239.048C643.28 213.031 639.933 209.953 657.181 189.573C669.472 175.049 683.822 190.885 688.689 166.122C698.168 117.877 700.853 99.2305 703.828 73.1443" stroke="#0D1B36" stroke-width="0.64" stroke-miterlimit="10"/>
<path d="M162.436 239.758C162.436 239.758 176.011 266.902 189.91 277.441C198.873 284.241 201.577 279.571 213.464 283.658C227.214 288.39 238.493 296.122 255.731 302.12C257.583 302.769 259.471 303.074 261.295 303.415C293.564 309.35 289.028 278.412 315.927 292.411C341.808 305.879 357.394 321.209 380.381 318.157C385.078 317.537 389.072 315.832 392.242 312.591C406.357 298.14 413.917 276.346 417.434 251.891C418.036 247.66 418.743 242.867 419.04 237.63C421.049 203.038 420.029 175.356 436.338 161.514C450.46 149.534 462.124 158.013 479.387 168.246C491.798 175.602 501.809 185.906 516.048 191.459C516.961 191.814 517.91 192.066 518.811 192.426C541.154 201.435 555.403 222.956 578.698 240.629C585.497 245.79 592.324 248.365 598.786 249.473C622.611 253.547 627.628 258.746 637.551 232.156C647.372 205.834 644.059 202.576 661.46 182.432C674.062 167.854 688.589 184.222 693.57 159.326C703.088 111.755 705.989 92.9375 708.717 67.0725" stroke="#0D1B36" stroke-width="0.64" stroke-miterlimit="10"/>
<path d="M167.909 234.523C167.909 234.523 181.21 261.413 195.082 272.319C203.931 279.291 206.859 275.211 218.622 279.51C232.312 284.52 243.674 292.336 260.792 297.984C262.658 298.603 264.548 298.881 266.367 299.173C298.838 304.534 294.228 272.961 320.845 286.15C346.38 298.805 362.161 314.176 384.8 311.218C389.438 310.607 393.402 308.926 396.532 305.714C410.531 291.294 418.137 269.789 421.743 245.771C422.37 241.607 423.079 236.851 423.402 231.681C425.495 197.784 424.619 170.315 441.003 156.534C455.132 144.641 466.855 152.906 484.107 163.143C496.441 170.464 506.492 180.74 520.699 186.51C521.604 186.881 522.547 187.148 523.452 187.519C545.872 196.932 560.202 218.499 583.288 235.856C590.112 240.982 596.96 243.511 603.477 244.495C627.337 248.123 632.325 252.874 642.122 225.987C651.825 199.353 648.555 195.94 666.12 176.026C679.032 161.394 693.735 178.295 698.833 153.266C708.378 106.372 711.501 87.3686 713.99 61.7472" stroke="#0D1B36" stroke-width="0.64" stroke-miterlimit="10"/>
<path d="M173.808 230.044C173.808 230.044 186.842 256.666 200.665 267.947C209.412 275.085 212.541 271.604 224.192 276.112C237.832 281.395 249.266 289.299 266.253 294.601C268.133 295.189 270.033 295.425 271.854 295.691C304.547 300.459 299.844 268.271 326.174 280.637C351.364 292.481 367.327 307.897 389.637 305.012C394.231 304.419 398.14 302.759 401.235 299.559C415.113 285.186 422.786 263.961 426.466 240.373C427.103 236.269 427.833 231.57 428.173 226.444C430.355 193.253 429.627 165.97 446.073 152.254C460.224 140.454 472.003 148.495 489.236 158.752C501.483 166.042 511.57 176.279 525.755 182.261C526.665 182.643 527.601 182.925 528.503 183.323C551.004 193.151 565.422 214.749 588.287 231.794C595.13 236.9 602.005 239.368 608.571 240.245C632.455 243.431 637.42 247.719 647.108 220.542C656.696 193.607 653.476 190.021 671.189 170.332C684.413 155.646 699.292 173.079 704.504 147.917C714.073 101.69 717.423 82.5112 719.68 57.118" stroke="#0D1B36" stroke-width="0.64" stroke-miterlimit="10"/>
<path d="M180.175 226.394C180.175 226.394 192.946 252.759 206.716 264.405C215.353 271.724 218.702 268.823 230.23 273.543C243.825 279.111 255.322 287.081 272.193 292.045C274.076 292.606 275.989 292.811 277.809 293.039C310.708 297.206 305.923 264.399 331.976 275.966C356.815 286.986 372.972 302.443 394.951 299.659C399.488 299.087 403.364 297.439 406.408 294.272C420.17 279.93 427.904 259 431.658 235.843C432.317 231.795 433.057 227.155 433.402 222.079C435.658 189.586 435.085 162.512 451.605 148.858C465.768 137.155 477.598 144.96 494.824 155.232C506.994 162.488 517.121 172.697 531.274 178.895C532.177 179.292 533.117 179.586 534.012 179.999C556.594 190.242 571.104 211.882 593.761 228.611C600.632 233.693 607.535 236.099 614.145 236.858C638.057 239.612 643.01 243.433 652.558 215.952C662.032 188.716 658.862 184.959 676.739 165.501C690.277 150.772 705.329 168.726 710.652 143.42C720.244 97.86 723.821 78.5059 725.838 53.3563" stroke="#0D1B36" stroke-width="0.64" stroke-miterlimit="10"/>
<path d="M187.076 223.614C187.076 223.614 199.594 249.717 213.3 261.731C221.834 269.217 225.385 266.915 236.8 271.844C250.335 277.69 261.91 285.731 278.666 290.356C280.558 290.876 282.474 291.054 284.297 291.256C317.401 294.823 312.539 261.407 338.306 272.152C362.788 282.364 379.151 297.858 400.778 295.156C405.267 294.59 409.091 292.975 412.101 289.82C425.736 275.513 433.538 254.863 437.36 232.153C438.028 228.165 438.789 223.581 439.167 218.556C441.507 186.757 441.09 159.892 457.674 146.303C471.844 134.687 483.733 142.278 500.952 152.566C513.033 159.791 523.208 169.956 537.332 176.382C538.239 176.79 539.177 177.111 540.061 177.528C562.724 188.187 577.322 209.857 599.758 226.274C606.655 231.321 613.579 233.682 620.244 234.317C644.184 236.64 649.11 239.987 658.548 212.216C667.904 184.668 664.78 180.766 682.818 161.527C696.671 146.755 711.883 165.235 717.333 139.792C726.953 94.9098 730.752 75.3693 732.526 50.4521" stroke="#0D1B36" stroke-width="0.64" stroke-miterlimit="10"/>
<path d="M194.554 221.786C194.554 221.786 206.805 247.622 220.466 260.023C228.898 267.675 232.666 265.979 243.949 271.098C257.434 277.217 269.081 285.346 285.702 289.615C287.608 290.103 289.522 290.245 291.355 290.404C324.665 293.37 319.725 259.347 345.21 269.281C369.346 278.681 385.892 294.22 407.194 291.603C411.627 291.057 415.422 289.466 418.388 286.328C431.907 272.052 439.77 251.698 443.666 229.419C444.355 225.487 445.126 220.962 445.51 215.986C447.924 184.886 447.658 158.219 464.309 144.706C478.501 133.184 490.445 140.55 507.642 150.846C519.632 158.03 529.851 168.178 543.954 174.816C544.854 175.24 545.784 175.576 546.673 176.004C569.405 187.083 584.103 208.778 606.33 224.88C613.256 229.903 620.196 232.206 626.91 232.734C650.888 234.622 655.781 237.51 665.094 209.443C674.335 181.593 671.255 177.535 689.448 158.505C703.616 143.69 718.99 162.695 724.566 137.114C734.209 92.8993 738.235 73.1837 739.77 48.5101" stroke="#0D1B36" stroke-width="0.64" stroke-miterlimit="10"/>
<path d="M202.68 220.963C202.68 220.963 214.679 246.537 228.276 259.306C236.609 267.136 240.575 266.028 251.746 271.355C265.175 277.764 276.891 285.943 293.401 289.884C295.321 290.342 297.238 290.456 299.069 290.578C332.584 292.944 327.556 258.316 352.771 267.435C376.549 276.027 393.3 291.604 414.251 289.069C418.64 288.54 422.379 286.97 425.312 283.845C438.704 269.604 446.624 249.535 450.609 227.693C451.312 223.832 452.1 219.352 452.5 214.42C454.988 184.019 454.889 157.556 471.599 144.098C485.803 132.673 497.798 139.803 514.992 150.126C526.904 157.275 537.16 167.384 551.23 174.238C552.123 174.677 553.057 175.024 553.943 175.479C576.746 186.978 591.547 208.711 613.55 224.489C620.501 229.478 627.473 231.73 634.231 232.139C658.237 233.596 663.103 236.009 672.305 207.653C681.433 179.503 678.402 175.272 696.748 156.478C711.236 141.631 726.773 161.135 732.469 135.432C742.124 91.8883 746.392 72.0044 747.679 47.5521" stroke="#0D1B36" stroke-width="0.64" stroke-miterlimit="10"/>
<path d="M211.507 221.213C211.507 221.213 223.254 246.525 236.786 259.663C245.017 267.659 249.184 267.151 260.242 272.686C273.611 279.372 285.402 287.612 301.789 291.23C303.722 291.657 305.649 291.73 307.472 291.83C341.189 293.583 336.076 258.364 361.016 266.656C384.437 274.44 401.393 290.054 422.009 287.607C426.337 287.089 430.036 285.547 432.939 282.445C446.216 268.236 454.197 248.462 458.256 227.051C458.981 223.245 459.779 218.826 460.2 213.95C462.765 184.259 462.813 157.982 479.601 144.596C493.813 133.257 505.878 140.17 523.039 150.505C534.863 157.624 545.159 167.705 559.208 174.771C560.105 175.222 561.037 175.595 561.912 176.054C584.784 187.972 599.684 209.731 621.466 225.199C628.458 230.159 635.435 232.358 642.249 232.644C666.283 233.67 671.126 235.62 680.204 206.967C689.213 178.505 686.233 174.14 704.742 155.539C719.56 140.656 735.242 160.678 741.076 134.835C750.754 91.9573 755.238 71.9024 756.309 47.6853" stroke="#0D1B36" stroke-width="0.64" stroke-miterlimit="10"/>
<path d="M222.215 222.559C222.215 222.559 233.721 247.606 247.182 261.128C255.314 269.302 259.683 269.393 270.625 275.125C283.937 282.1 295.813 290.397 312.074 293.68C314.021 294.077 315.946 294.112 317.783 294.181C351.701 295.323 346.504 259.51 371.173 266.987C394.227 273.968 411.383 289.607 431.663 287.25C435.947 286.748 439.601 285.223 442.449 282.143C455.598 267.969 463.647 248.475 467.785 227.506C468.519 223.761 469.339 219.397 469.776 214.565C472.411 185.562 472.63 159.5 489.481 146.18C503.716 134.935 515.825 141.627 532.978 151.977C544.726 159.061 555.058 169.104 569.078 176.397C569.968 176.863 570.893 177.252 571.772 177.722C594.703 190.064 609.714 211.845 631.287 226.996C638.304 231.922 645.302 234.075 652.164 234.253C676.23 234.859 681.047 236.335 690.01 207.38C698.905 178.617 695.968 174.096 714.636 155.715C729.774 140.8 745.609 161.326 751.569 135.345C761.255 93.1276 765.981 72.9044 766.808 48.9197" stroke="#0D1B36" stroke-width="0.64" stroke-miterlimit="10"/>
<path d="M234.121 224.344C234.121 224.344 245.386 249.125 258.772 263.02C266.817 271.367 271.372 272.05 282.202 277.99C295.443 285.248 307.4 293.591 323.553 296.558C325.51 296.912 327.442 296.932 329.273 296.952C363.393 297.482 358.105 261.093 382.506 267.728C405.206 273.912 422.564 289.577 442.507 287.309C446.735 286.828 450.345 285.32 453.164 282.263C466.198 268.12 474.307 248.922 478.519 228.384C479.275 224.694 480.104 220.39 480.559 215.603C483.267 187.298 483.642 161.446 500.567 148.187C514.808 137.028 526.972 143.495 544.119 153.861C555.775 160.903 566.163 170.925 580.145 178.423C581.04 178.9 581.958 179.304 582.83 179.79C605.831 192.552 620.936 214.348 642.294 229.198C649.339 234.1 656.37 236.203 663.271 236.252C687.381 236.433 692.156 237.428 700.994 208.176C709.775 179.112 706.885 174.446 725.704 156.262C741.166 141.327 757.137 162.349 763.239 136.238C772.937 94.6913 777.901 74.2887 778.49 50.5476" stroke="#0D1B36" stroke-width="0.64" stroke-miterlimit="10"/>
<path d="M246.37 226.394C246.37 226.394 257.394 250.91 270.705 265.177C278.651 273.702 283.396 274.988 294.121 281.121C307.306 288.668 319.344 297.056 335.363 299.704C337.334 300.028 339.265 300.01 341.109 300C375.431 299.918 370.063 262.947 394.189 268.756C416.521 274.136 434.095 289.834 453.698 287.644C457.871 287.184 461.447 285.689 464.221 282.649C477.128 268.541 485.31 249.634 489.596 229.527C490.366 225.908 491.212 221.649 491.688 216.918C494.47 189.312 495.007 163.652 511.999 150.47C526.263 139.404 538.483 145.647 555.607 156.021C567.186 163.029 577.599 173.015 591.564 180.737C592.452 181.229 593.374 181.645 594.239 182.145C617.299 195.331 632.525 217.145 653.663 231.684C660.733 236.551 667.784 238.608 674.735 238.548C698.876 238.31 703.635 238.826 712.348 209.278C721.011 179.902 718.172 175.102 737.147 157.127C752.943 142.166 769.052 163.684 775.285 137.447C784.99 96.5606 790.196 75.9898 790.541 52.4811" stroke="#0D1B36" stroke-width="0.64" stroke-miterlimit="10"/>
<path d="M258.867 228.695C258.867 228.695 269.651 252.944 282.889 267.596C290.749 276.293 295.68 278.172 306.292 284.514C319.406 292.342 331.525 300.777 347.437 303.108C349.422 303.401 351.351 303.346 353.198 303.309C387.718 302.604 382.258 265.056 406.12 270.034C428.088 274.622 445.874 290.341 465.131 288.244C469.254 287.79 472.779 286.327 475.524 283.311C488.315 269.235 496.569 250.619 500.918 230.947C501.709 227.384 502.561 223.173 503.058 218.498C505.902 191.595 506.613 166.125 523.668 153.007C537.94 142.028 550.218 148.057 567.336 158.447C578.826 165.424 589.291 175.378 603.223 183.317C604.104 183.824 605.019 184.255 605.889 184.767C628.996 198.381 644.344 220.212 665.261 234.439C672.368 239.267 679.433 241.293 686.434 241.1C710.623 240.448 715.336 240.472 723.939 210.634C732.488 180.957 729.685 176.016 748.822 158.234C764.942 143.253 781.188 165.267 787.562 138.9C797.28 98.6845 802.724 77.9343 802.83 54.6692" stroke="#0D1B36" stroke-width="0.64" stroke-miterlimit="10"/>
<path d="M271.518 231.166C271.518 231.166 282.061 255.15 295.224 270.174C302.996 279.045 308.103 281.521 318.61 288.055C331.655 296.177 343.863 304.641 359.641 306.654C361.636 306.905 363.568 306.823 365.417 306.76C400.134 305.432 394.591 267.329 418.186 271.465C439.789 275.26 457.777 291.006 476.704 288.983C480.772 288.55 484.263 287.099 486.968 284.111C499.632 270.07 507.959 251.746 512.381 232.505C513.193 228.997 514.055 224.847 514.569 220.216C517.487 194.011 518.353 168.75 535.472 155.698C549.755 144.817 562.095 150.605 579.195 161.015C590.597 167.962 601.098 177.876 615.013 186.038C615.898 186.557 616.811 187.014 617.673 187.541C640.839 201.579 656.308 223.428 676.999 237.359C684.135 242.163 691.227 244.127 698.262 243.82C722.494 242.744 727.168 242.298 735.646 212.163C744.081 182.185 741.329 177.11 760.629 159.521C777.077 144.531 793.455 167.03 799.972 140.532C809.686 100.981 815.388 80.0695 815.257 57.0214" stroke="#0D1B36" stroke-width="0.64" stroke-miterlimit="10"/>
<path d="M284.237 233.816C284.237 233.816 294.549 257.53 307.626 272.931C315.3 281.98 320.597 285.058 330.998 291.786C343.977 300.2 356.257 308.689 371.933 310.396C373.941 310.617 375.887 310.504 377.731 310.391C412.64 308.43 407.015 269.772 430.334 273.082C451.578 276.095 469.773 291.851 488.354 289.921C492.377 289.506 495.812 288.076 498.472 285.105C511.021 271.095 519.404 253.055 523.905 234.256C524.727 230.808 525.599 226.718 526.141 222.127C529.117 196.615 530.162 171.553 547.347 158.578C561.637 147.783 574.037 153.358 591.13 163.783C602.455 170.695 612.996 180.582 626.875 188.949C627.753 189.483 628.669 189.951 629.525 190.494C652.754 204.967 668.336 226.811 688.811 240.442C695.972 245.21 703.089 247.14 710.179 246.709C734.447 245.224 739.029 244.265 747.444 213.862C755.703 183.555 753.048 178.366 772.511 160.971C789.297 145.967 805.798 168.956 812.456 142.328C822.178 103.436 828.122 82.3563 827.752 59.5519" stroke="#0D1B36" stroke-width="0.64" stroke-miterlimit="10"/>
<path d="M296.911 236.584C296.911 236.584 306.998 260.04 319.989 275.818C327.575 285.04 333.047 288.715 343.347 295.646C356.254 304.343 368.622 312.862 384.173 314.272C386.191 314.451 388.139 314.312 389.986 314.173C425.089 311.577 419.384 272.375 442.432 274.833C463.312 277.054 481.715 292.82 499.959 290.979C503.923 290.573 507.317 289.172 509.948 286.225C522.37 272.25 530.837 254.497 535.405 236.144C536.248 232.752 537.13 228.721 537.682 224.191C540.72 199.381 541.931 174.525 559.191 161.61C573.5 150.897 585.958 156.259 603.029 166.692C614.262 173.563 624.855 183.417 638.705 192.012C639.587 192.557 640.486 193.045 641.345 193.599C664.622 208.5 680.333 230.347 700.58 243.681C707.777 248.41 714.92 250.305 722.049 249.744C746.365 247.846 750.905 246.406 759.201 215.69C767.358 185.079 764.732 179.764 784.357 162.562C801.475 147.56 818.1 171.011 824.9 144.253C834.619 106.025 840.805 84.7774 840.203 62.2011" stroke="#0D1B36" stroke-width="0.64" stroke-miterlimit="10"/>
<path d="M309.464 239.437C309.464 239.437 319.322 262.623 332.226 278.778C339.725 288.173 345.383 292.44 355.571 299.58C368.411 308.57 380.851 317.112 396.299 318.218C398.331 318.365 400.278 318.188 402.127 318.023C437.412 314.797 431.64 275.047 454.419 276.663C474.928 278.107 493.539 293.884 511.459 292.128C515.378 291.739 518.728 290.354 521.314 287.424C533.616 273.469 542.148 256.023 546.79 238.101C547.647 234.78 548.546 230.794 549.115 226.308C552.212 202.19 553.601 177.534 570.924 164.684C585.244 154.07 597.753 159.195 614.821 169.655C625.978 176.491 636.61 186.317 650.427 195.128C651.303 195.689 652.21 196.199 653.059 196.757C676.382 212.086 692.215 233.951 712.253 246.969C719.475 251.663 726.643 253.523 733.817 252.844C758.18 250.532 762.678 248.611 770.859 217.595C778.902 186.682 776.316 181.237 796.104 164.229C813.55 149.217 830.303 173.142 837.25 146.265C846.961 108.69 853.405 87.281 852.564 64.9483" stroke="#0D1B36" stroke-width="0.64" stroke-miterlimit="10"/>
<path d="M321.793 242.336C321.793 242.336 331.425 265.263 344.238 281.784C351.661 291.348 357.472 296.221 367.57 303.56C380.327 312.836 392.856 321.409 408.2 322.209C410.242 322.315 412.191 322.112 414.055 321.916C449.532 318.056 443.675 277.778 466.189 278.525C486.342 279.199 505.161 294.986 522.725 293.301C526.588 292.933 529.894 291.565 532.451 288.659C544.627 274.739 553.23 257.585 557.942 240.082C558.821 236.817 559.729 232.891 560.315 228.45C563.463 205.039 565.03 180.583 582.427 167.795C596.754 157.266 609.334 162.174 626.38 172.642C637.448 179.448 648.117 189.235 661.917 198.269C662.797 198.841 663.686 199.371 664.543 199.951C687.903 215.712 703.886 237.571 723.686 250.297C730.949 254.963 738.121 256.77 745.351 255.968C769.761 253.243 774.213 250.83 782.274 219.528C790.202 188.314 787.661 182.751 807.613 165.909C825.403 150.895 842.263 175.302 849.362 148.29C859.07 111.38 865.767 89.7981 864.683 67.6978" stroke="#0D1B36" stroke-width="0.64" stroke-miterlimit="10"/>
<path d="M333.809 245.252C333.809 245.252 343.223 267.905 355.942 284.818C363.282 294.567 369.268 300.036 379.257 307.557C391.947 317.126 404.555 325.707 419.778 326.222C421.829 326.286 423.786 326.067 425.643 325.822C461.303 321.333 455.383 280.517 477.624 280.412C497.411 280.319 516.429 296.095 533.673 294.506C537.491 294.155 540.741 292.808 543.265 289.914C555.313 276.03 564.001 259.163 568.775 242.095C569.675 238.886 570.578 235.013 571.2 230.634C574.407 207.915 576.151 183.659 593.616 170.948C607.966 160.513 620.589 165.2 637.624 175.672C648.611 182.432 659.325 192.202 673.088 201.442C673.96 202.029 674.853 202.57 675.704 203.165C699.111 219.355 715.223 241.216 734.796 253.645C742.083 258.277 749.292 260.044 756.562 259.112C781.035 255.982 785.44 253.076 793.376 221.477C801.19 189.962 798.689 184.269 818.804 167.621C836.93 152.619 853.894 177.471 861.155 150.348C870.856 114.09 877.81 92.3468 876.487 70.4901" stroke="#0D1B36" stroke-width="0.64" stroke-miterlimit="10"/>
<path d="M345.406 248.136C345.406 248.136 354.594 270.53 367.222 287.809C374.479 297.742 380.636 303.796 390.524 311.522C403.131 321.377 415.822 329.977 430.947 330.198C433.008 330.22 434.967 329.975 436.827 329.703C472.665 324.573 466.679 283.247 488.651 282.263C508.081 281.4 527.308 297.186 544.196 295.667C547.959 295.338 551.18 294.015 553.647 291.142C565.58 277.289 574.333 260.728 579.17 244.096C580.084 240.958 581.004 237.129 581.643 232.795C584.897 210.772 586.819 186.717 604.351 174.081C618.708 163.733 631.398 168.191 648.407 178.698C659.307 185.428 670.068 195.155 683.802 204.622C684.668 205.224 685.565 205.776 686.42 206.383C709.868 223.016 726.114 244.864 745.472 256.993C752.795 261.585 760.018 263.322 767.332 262.271C791.852 258.727 796.216 255.34 804.026 223.445C811.726 191.629 809.258 185.822 829.538 169.34C847.996 154.34 865.074 179.659 872.492 152.412C882.189 116.819 889.401 94.914 887.841 73.2744" stroke="#0D1B36" stroke-width="0.64" stroke-miterlimit="10"/>
<path d="M356.503 250.979C356.503 250.979 365.476 273.111 378.003 290.76C385.173 300.866 391.504 307.517 401.291 315.446C413.819 325.6 426.575 334.201 441.601 334.127C443.676 334.119 445.634 333.836 447.508 333.533C483.523 327.762 477.482 285.922 499.177 284.073C518.246 282.455 537.678 298.214 554.235 296.796C557.949 296.472 561.118 295.182 563.552 292.322C575.354 278.493 584.194 262.23 589.095 246.033C590.03 242.95 590.96 239.182 591.616 234.892C594.916 213.565 597.028 189.706 614.626 177.147C628.991 166.885 641.74 171.129 658.738 181.641C669.561 188.336 680.362 198.035 694.064 207.718C694.934 208.332 695.817 208.914 696.661 209.525C720.145 226.591 736.531 248.437 755.662 260.269C763.021 264.822 770.269 266.524 777.623 265.344C802.206 261.394 806.508 257.507 814.208 225.322C821.795 193.205 819.355 187.272 839.809 170.98C858.614 155.989 875.775 181.761 883.372 154.382C893.062 119.441 900.531 97.3754 898.732 75.9793" stroke="#0D1B36" stroke-width="0.64" stroke-miterlimit="10"/>
<path d="M366.988 253.723C366.988 253.723 375.747 275.592 388.172 293.611C395.27 303.898 401.75 311.142 411.446 319.271C423.892 329.711 436.732 338.331 451.66 337.964C453.744 337.913 455.715 337.599 457.581 337.275C493.774 330.863 487.682 288.519 509.097 285.795C527.814 283.418 547.439 299.18 563.651 297.829C567.309 297.526 570.445 296.249 572.839 293.417C584.525 279.619 593.437 263.647 598.401 247.885C599.357 244.858 600.282 241.143 600.97 236.905C604.318 216.274 606.611 192.626 624.28 180.117C638.656 169.953 651.492 173.922 668.451 184.499C679.2 191.133 690.041 200.804 703.707 210.73C704.57 211.359 705.458 211.953 706.295 212.579C729.816 230.077 746.341 251.921 765.256 263.453C772.647 267.956 779.924 269.634 787.307 268.328C811.953 263.971 816.208 259.593 823.768 227.104C831.247 194.671 828.834 188.638 849.464 172.509C868.61 157.541 885.864 183.762 893.63 156.256C903.312 121.968 911.039 99.7411 908.997 78.5775" stroke="#0D1B36" stroke-width="0.64" stroke-miterlimit="10"/>
<path d="M376.796 256.329C376.796 256.329 385.341 277.934 397.668 296.335C404.683 306.806 411.334 314.636 420.929 322.969C433.296 333.706 446.212 342.323 461.045 341.673C463.127 341.585 465.102 341.244 466.977 340.878C503.336 333.829 497.205 290.977 518.335 287.367C536.701 284.231 556.525 299.982 572.401 298.72C576.015 298.434 579.095 297.177 581.456 294.358C593.015 280.595 602.011 264.911 607.037 249.583C608.007 246.628 608.949 242.957 609.658 238.775C613.049 218.828 615.535 195.388 633.271 182.956C647.666 172.873 660.55 176.633 677.498 187.214C688.159 193.818 699.048 203.445 712.681 213.588C713.548 214.228 714.418 214.842 715.274 215.486C738.831 233.416 755.503 255.243 774.184 266.494C781.6 270.962 788.903 272.605 796.34 271.176C821.045 266.402 825.247 261.547 832.693 228.757C840.058 196.023 837.677 189.876 858.477 173.924C877.959 158.97 895.303 185.628 903.245 158.017C912.905 124.375 920.905 101.993 918.623 81.0734" stroke="#0D1B36" stroke-width="0.64" stroke-miterlimit="10"/>
<path d="M385.802 258.767C385.802 258.767 394.136 280.121 406.357 298.88C413.3 309.531 420.1 317.955 429.605 326.488C441.889 337.511 454.873 346.141 469.612 345.208C471.704 345.078 473.692 344.706 475.57 344.314C512.103 336.612 505.925 293.269 526.775 288.783C544.793 284.899 564.813 300.627 580.338 299.447C583.896 299.182 586.931 297.942 589.252 295.151C600.684 281.424 609.767 266.038 614.852 251.134C615.843 248.235 616.78 244.617 617.521 240.486C620.959 221.235 623.623 197.995 641.438 185.635C655.839 175.639 668.783 179.185 685.724 189.782C696.308 196.351 707.237 205.951 720.838 216.309C721.698 216.965 722.572 217.59 723.421 218.249C747.004 236.616 763.827 258.437 782.284 269.403C789.737 273.831 797.064 275.439 804.531 273.884C829.302 268.716 833.442 263.361 840.763 230.274C848.014 197.24 845.671 190.989 866.632 175.194C886.454 160.263 903.887 187.359 912.002 159.631C921.654 126.642 929.9 104.104 927.387 83.4118" stroke="#0D1B36" stroke-width="0.64" stroke-miterlimit="10"/>
<path d="M393.932 261.014C393.932 261.014 402.052 282.105 414.171 301.234C421.031 312.07 427.99 321.083 437.401 329.805C449.592 341.118 462.651 349.745 477.31 348.536C479.412 348.364 481.403 347.966 483.283 347.547C519.983 339.209 513.786 295.376 534.331 289.986C552.013 285.35 572.206 301.063 587.406 299.968C590.915 299.708 593.91 298.497 596.186 295.722C607.487 282.019 616.647 266.936 621.805 252.463C622.818 249.619 623.753 246.065 624.523 241.975C627.992 223.414 630.861 200.376 648.743 188.093C663.152 178.184 676.154 181.516 693.085 192.117C703.58 198.656 714.55 208.227 728.129 218.798C728.993 219.464 729.86 220.105 730.703 220.78C754.322 239.579 771.291 261.383 789.526 272.063C797.014 276.452 804.371 278.037 811.877 276.352C836.712 270.777 840.801 264.919 848.001 231.547C855.138 198.211 852.817 191.85 873.958 176.228C894.121 161.321 911.628 188.849 919.931 161.011C929.56 128.668 938.079 105.975 935.338 85.5228" stroke="#0D1B36" stroke-width="0.64" stroke-miterlimit="10"/>
<path d="M401.086 263.006C401.086 263.006 409.003 283.83 421.013 303.345C427.801 314.361 434.909 323.968 444.23 332.889C456.342 344.5 469.454 353.132 484.03 351.636C486.142 351.422 488.139 351.009 490.018 350.552C526.881 341.567 520.663 297.243 540.912 290.972C558.251 285.599 578.635 301.277 593.495 300.26C596.949 300.022 599.899 298.828 602.145 296.077C613.331 282.405 622.578 267.62 627.785 253.575C628.811 250.802 629.759 247.282 630.554 243.259C634.066 225.382 637.117 202.556 655.062 190.338C669.489 180.511 682.547 183.618 699.463 194.25C709.882 200.754 720.888 210.286 734.434 221.074C735.292 221.756 736.156 222.422 736.999 223.097C760.643 242.333 777.762 264.131 795.77 274.515C803.291 278.854 810.665 280.419 818.223 278.6C843.12 272.619 847.152 266.272 854.227 232.603C861.261 198.962 858.966 192.503 880.28 177.032C900.787 162.16 918.364 190.107 926.851 162.149C936.472 130.459 945.253 107.616 942.264 87.3849" stroke="#0D1B36" stroke-width="0.64" stroke-miterlimit="10"/>
<path d="M407.158 264.733C407.158 264.733 414.865 285.305 426.768 305.179C433.473 316.379 440.748 326.561 449.972 335.697C461.99 347.599 475.178 356.228 489.675 354.456C491.796 354.2 493.796 353.761 495.685 353.261C532.709 343.628 526.476 298.826 546.421 291.65C563.439 285.532 583.981 301.189 598.505 300.261C601.903 300.044 604.809 298.866 607.026 296.14C618.08 282.492 627.419 268.016 632.684 254.395C633.732 251.678 634.679 248.222 635.491 244.243C639.034 227.056 642.29 204.433 660.302 192.291C674.741 182.562 687.853 185.444 704.759 196.08C715.09 202.554 726.136 212.058 739.66 223.058C740.511 223.755 741.38 224.433 742.219 225.134C765.884 244.796 783.166 266.583 800.951 276.681C808.519 280.977 815.907 282.511 823.494 280.567C848.465 274.175 852.428 267.345 859.389 233.375C866.309 199.433 864.036 192.863 885.53 177.566C906.382 162.73 924.029 191.096 932.703 163.029C942.302 131.985 951.356 108.987 948.128 88.9996" stroke="#0D1B36" stroke-width="0.64" stroke-miterlimit="10"/>
<path d="M412.077 266.145C412.077 266.145 419.585 286.461 431.372 306.698C438.009 318.089 445.428 328.853 454.562 338.19C466.487 350.382 479.734 359.001 494.156 356.964C496.283 356.655 498.29 356.2 500.181 355.675C537.368 345.393 531.131 300.109 550.764 292.044C567.462 285.181 588.169 300.838 602.356 299.962C605.709 299.762 608.555 298.594 610.743 295.891C621.651 282.26 631.097 268.101 636.42 254.904C637.494 252.254 638.431 248.84 639.275 244.912C642.85 228.414 646.28 205.98 664.389 193.929C678.827 184.263 692.019 186.951 708.902 197.595C719.14 204.027 730.242 213.51 743.734 224.726C744.589 225.434 745.44 226.132 746.283 226.845C769.974 246.942 787.413 268.708 804.964 278.526C812.564 282.771 819.981 284.281 827.612 282.218C852.65 275.432 856.552 268.102 863.383 233.824C870.189 199.582 867.942 192.912 889.608 177.767C910.801 162.954 928.506 191.745 937.384 163.575C946.96 133.177 956.287 110.025 952.816 90.2696" stroke="#0D1B36" stroke-width="0.64" stroke-miterlimit="10"/>
<path d="M415.735 267.219C415.735 267.219 423.044 287.279 434.729 307.886C441.294 319.458 448.861 330.815 457.905 340.351C469.747 352.83 483.047 361.454 497.402 359.137C499.538 358.787 501.548 358.305 503.453 357.749C540.798 346.808 534.565 301.064 553.882 292.099C570.263 284.501 591.135 300.122 604.975 299.339C608.272 299.16 611.085 298.005 613.221 295.334C624.003 281.739 633.536 267.877 638.919 255.105C640.013 252.51 640.944 249.149 641.825 245.284C645.417 229.468 649.07 207.255 667.239 195.258C681.684 185.679 694.935 188.153 711.811 198.813C721.972 205.21 733.099 214.658 746.574 226.097C747.422 226.821 748.277 227.53 749.113 228.258C772.829 248.792 790.415 270.541 807.743 280.073C815.379 284.279 822.826 285.766 830.492 283.561C855.604 276.364 859.444 268.536 866.154 233.972C872.842 199.418 870.614 192.665 892.468 177.678C914.01 162.911 931.765 192.103 940.846 163.83C950.411 134.074 959.999 110.772 956.289 91.2606" stroke="#0D1B36" stroke-width="0.64" stroke-miterlimit="10"/>
<path d="M418.045 267.899C418.045 267.899 425.144 287.707 436.722 308.673C443.22 320.436 450.927 332.365 459.886 342.112C471.633 354.881 484.987 363.511 499.28 360.898C501.415 360.51 503.439 359.998 505.347 359.415C542.843 347.831 536.627 301.595 555.618 291.734C571.69 283.387 592.719 298.986 606.218 298.281C609.471 298.119 612.232 296.996 614.331 294.327C624.997 280.763 634.607 267.204 640.048 254.855C641.156 252.332 642.089 249.008 643.002 245.195C646.626 230.068 650.488 208.069 668.719 196.137C683.187 186.652 696.477 188.894 713.346 199.569C723.42 205.936 734.599 215.352 748.036 226.996C748.888 227.731 749.729 228.47 750.566 229.198C774.292 250.163 792.046 271.885 809.156 281.144C816.824 285.3 824.299 286.762 831.995 284.432C857.181 276.825 860.952 268.512 867.548 233.648C874.133 198.788 871.909 191.944 893.957 177.1C915.833 162.373 933.643 191.978 942.938 163.598C952.476 134.477 962.341 111.032 958.399 91.7485" stroke="#0D1B36" stroke-width="0.64" stroke-miterlimit="10"/>
<path d="M418.904 268.147C418.904 268.147 455.278 371.226 499.701 362.243C544.123 353.26 536.303 302.253 555.895 290.953C575.488 279.653 603.437 306.448 613.987 292.915C624.526 279.386 634.235 266.121 639.723 254.201C645.212 242.28 645.68 211.561 668.746 196.612C691.812 181.662 711.999 195.644 748.053 227.512C784.108 259.381 806.782 292.942 832.057 284.931C857.332 276.921 861.019 268.117 867.49 232.956C873.961 197.795 871.763 190.852 893.988 176.171C916.212 161.49 934.068 191.485 943.578 162.999C953.088 134.513 963.231 110.924 959.049 91.8844" stroke="#0D1B36" stroke-width="0.64" stroke-miterlimit="10"/>
</g>
</g>
<defs>
<clipPath id="clip0_106_3336">
<rect width="841.599" height="370.977" fill="white" transform="matrix(0.935102 -0.354379 -0.354379 -0.935102 131.467 645.146)"/>
</clipPath>
</defs>
</svg>
