<svg width="27" height="27" viewBox="0 0 27 27" fill="none" xmlns="http://www.w3.org/2000/svg">
<g clip-path="url(#clip0_105_2736)">
<path d="M19.4062 26.1562H7.59375C3.88125 26.1562 0.84375 23.1188 0.84375 19.4062V7.59375C0.84375 3.88125 3.88125 0.84375 7.59375 0.84375H19.4062C23.1188 0.84375 26.1562 3.88125 26.1562 7.59375V19.4062C26.1562 23.1188 23.1188 26.1562 19.4062 26.1562Z" stroke="white" stroke-miterlimit="10" stroke-linecap="round" stroke-linejoin="round"/>
<path d="M13.5 19.4062C16.7619 19.4062 19.4062 16.7619 19.4062 13.5C19.4062 10.2381 16.7619 7.59375 13.5 7.59375C10.2381 7.59375 7.59375 10.2381 7.59375 13.5C7.59375 16.7619 10.2381 19.4062 13.5 19.4062Z" stroke="white" stroke-miterlimit="10" stroke-linecap="round" stroke-linejoin="round"/>
<path d="M20.25 6.75C20.716 6.75 21.0938 6.37224 21.0938 5.90625C21.0938 5.44026 20.716 5.0625 20.25 5.0625C19.784 5.0625 19.4062 5.44026 19.4062 5.90625C19.4062 6.37224 19.784 6.75 20.25 6.75Z" stroke="white" stroke-miterlimit="10" stroke-linecap="round" stroke-linejoin="round"/>
</g>
<defs>
<clipPath id="clip0_105_2736">
<rect width="27" height="27" fill="white"/>
</clipPath>
</defs>
</svg>
