<svg width="235" height="158" viewBox="0 0 235 158" fill="none" xmlns="http://www.w3.org/2000/svg">
<path d="M234.706 0H230.443V4.26631H234.706V0ZM215.502 0H211.239V4.26631H215.502V0ZM196.299 0H192.036V4.26631H196.299V0ZM177.095 0H172.832V4.26631H177.095V0ZM157.892 0H153.628V4.26631H157.892V0ZM138.688 0H134.425V4.26631H138.688V0ZM119.485 0H115.221V4.26631H119.485V0ZM100.281 0H96.0178V4.26631H100.281V0ZM81.0776 0H76.8142V4.26631H81.0776V0ZM61.874 0H57.6106V4.26631H61.874V0ZM42.6704 0H38.407V4.26631H42.6704V0ZM23.4669 0H19.2036V4.26631H23.4669V0ZM4.26338 0H0V4.26631H4.26338V0ZM234.743 19.2167H230.479V23.483H234.743V19.2167ZM215.539 19.2167H211.276V23.483H215.539V19.2167ZM196.336 19.2167H192.072V23.483H196.336V19.2167ZM177.132 19.2167H172.869V23.483H177.132V19.2167ZM157.929 19.2167H153.665V23.483H157.929V19.2167ZM138.725 19.2167H134.462V23.483H138.725V19.2167ZM119.521 19.2167H115.258V23.483H119.521V19.2167ZM100.318 19.2167H96.0544V23.483H100.318V19.2167ZM81.1143 19.2167H76.851V23.483H81.1143V19.2167ZM61.9108 19.2167H57.6474V23.483H61.9108V19.2167ZM42.7072 19.2167H38.4438V23.483H42.7072V19.2167ZM23.5036 19.2167H19.2402V23.483H23.5036V19.2167ZM4.30006 19.2167H0.0366821V23.483H4.30006V19.2167ZM234.779 38.4334H230.516V42.6997H234.779V38.4334ZM215.576 38.4334H211.313V42.6997H215.576V38.4334ZM196.372 38.4334H192.109V42.6997H196.372V38.4334ZM177.169 38.4334H172.905V42.6997H177.169V38.4334ZM157.965 38.4334H153.702V42.6997H157.965V38.4334ZM138.762 38.4334H134.498V42.6997H138.762V38.4334ZM119.558 38.4334H115.295V42.6997H119.558V38.4334ZM100.355 38.4334H96.0912V42.6997H100.355V38.4334ZM81.151 38.4334H76.8877V42.6997H81.151V38.4334ZM61.9475 38.4334H57.6841V42.6997H61.9475V38.4334ZM42.744 38.4334H38.4806V42.6997H42.744V38.4334ZM23.5404 38.4334H19.277V42.6997H23.5404V38.4334ZM4.33685 38.4334H0.0734711V42.6997H4.33685V38.4334ZM234.816 57.6501H230.553V61.9165H234.816V57.6501ZM215.613 57.6501H211.349V61.9165H215.613V57.6501ZM196.409 57.6501H192.146V61.9165H196.409V57.6501ZM177.206 57.6501H172.942V61.9165H177.206V57.6501ZM158.002 57.6501H153.739V61.9165H158.002V57.6501ZM138.798 57.6501H134.535V61.9165H138.798V57.6501ZM119.595 57.6501H115.332V61.9165H119.595V57.6501ZM100.391 57.6501H96.128V61.9165H100.391V57.6501ZM81.1878 57.6501H76.9245V61.9165H81.1878V57.6501ZM61.9843 57.6501H57.7209V61.9165H61.9843V57.6501ZM42.7807 57.6501H38.5173V61.9165H42.7807V57.6501ZM23.5771 57.6501H19.3138V61.9165H23.5771V57.6501ZM4.37364 57.6501H0.11026V61.9165H4.37364V57.6501ZM234.853 76.8668H230.59V81.1331H234.853V76.8668ZM215.649 76.8668H211.386V81.1331H215.649V76.8668ZM196.446 76.8668H192.182V81.1331H196.446V76.8668ZM177.242 76.8668H172.979V81.1331H177.242V76.8668ZM158.039 76.8668H153.775V81.1331H158.039V76.8668ZM138.835 76.8668H134.572V81.1331H138.835V76.8668ZM119.632 76.8668H115.368V81.1331H119.632V76.8668ZM100.428 76.8668H96.1647V81.1331H100.428V76.8668ZM81.2246 76.8668H76.9612V81.1331H81.2246V76.8668ZM62.021 76.8668H57.7577V81.1331H62.021V76.8668ZM42.8175 76.8668H38.5541V81.1331H42.8175V76.8668ZM23.6139 76.8668H19.3505V81.1331H23.6139V76.8668ZM4.41032 76.8668H0.146927V81.1331H4.41032V76.8668ZM234.89 96.0835H230.626V100.35H234.89V96.0835ZM215.686 96.0835H211.423V100.35H215.686V96.0835ZM196.483 96.0835H192.219V100.35H196.483V96.0835ZM177.279 96.0835H173.016V100.35H177.279V96.0835ZM158.075 96.0835H153.812V100.35H158.075V96.0835ZM138.872 96.0835H134.609V100.35H138.872V96.0835ZM119.668 96.0835H115.405V100.35H119.668V96.0835ZM100.465 96.0835H96.2015V100.35H100.465V96.0835ZM81.2613 96.0835H76.9979V100.35H81.2613V96.0835ZM62.0577 96.0835H57.7944V100.35H62.0577V96.0835ZM42.8543 96.0835H38.5909V100.35H42.8543V96.0835ZM23.6507 96.0835H19.3873V100.35H23.6507V96.0835ZM4.44711 96.0835H0.183716V100.35H4.44711V96.0835ZM234.927 115.3H230.663V119.567H234.927V115.3ZM215.723 115.3H211.46V119.567H215.723V115.3ZM196.519 115.3H192.256V119.567H196.519V115.3ZM177.316 115.3H173.052V119.567H177.316V115.3ZM158.112 115.3H153.849V119.567H158.112V115.3ZM138.909 115.3H134.645V119.567H138.909V115.3ZM119.705 115.3H115.442V119.567H119.705V115.3ZM100.502 115.3H96.2383V119.567H100.502V115.3ZM81.2981 115.3H77.0347V119.567H81.2981V115.3ZM62.0945 115.3H57.8311V119.567H62.0945V115.3ZM42.8909 115.3H38.6275V119.567H42.8909V115.3ZM23.6874 115.3H19.4241V119.567H23.6874V115.3ZM4.4839 115.3H0.220505V119.567H4.4839V115.3ZM234.963 134.517H230.7V138.783H234.963V134.517ZM215.76 134.517H211.496V138.783H215.76V134.517ZM196.556 134.517H192.293V138.783H196.556V134.517ZM177.353 134.517H173.089V138.783H177.353V134.517ZM158.149 134.517H153.886V138.783H158.149V134.517ZM138.945 134.517H134.682V138.783H138.945V134.517ZM119.742 134.517H115.479V138.783H119.742V134.517ZM100.538 134.517H96.275V138.783H100.538V134.517ZM81.3349 134.517H77.0715V138.783H81.3349V134.517ZM62.1313 134.517H57.8679V138.783H62.1313V134.517ZM42.9277 134.517H38.6643V138.783H42.9277V134.517ZM23.7242 134.517H19.4608V138.783H23.7242V134.517ZM4.52057 134.517H0.257187V138.783H4.52057V134.517ZM235 153.734H230.737V158H235V153.734ZM215.796 153.734H211.533V158H215.796V153.734ZM196.593 153.734H192.33V158H196.593V153.734ZM177.389 153.734H173.126V158H177.389V153.734ZM158.186 153.734H153.922V158H158.186V153.734ZM138.982 153.734H134.719V158H138.982V153.734ZM119.779 153.734H115.515V158H119.779V153.734ZM100.575 153.734H96.3118V158H100.575V153.734ZM81.3716 153.734H77.1082V158H81.3716V153.734ZM62.168 153.734H57.9047V158H62.168V153.734ZM42.9645 153.734H38.7011V158H42.9645V153.734ZM23.7609 153.734H19.4976V158H23.7609V153.734ZM4.55736 153.734H0.293976V158H4.55736V153.734Z" fill="#B0C9FF"/>
</svg>
