<svg width="1354" height="1214" viewBox="0 0 1354 1214" fill="none" xmlns="http://www.w3.org/2000/svg">
<g clip-path="url(#clip0_106_5141)">
<mask id="mask0_106_5141" style="mask-type:luminance" maskUnits="userSpaceOnUse" x="79" y="48" width="1469" height="955">
<path d="M96.8571 816.4C150.345 957.539 308.123 1028.6 449.283 975.099C464.813 969.214 479.527 962.056 493.273 953.802C535.3 997.846 601.164 1014.98 661.673 992.045C716.398 971.306 752.645 923.125 760.791 869.102C827.328 891.993 901.952 892.644 972.899 865.757C990.924 858.926 1007.93 850.611 1023.85 841.007C1078.8 868.049 1144.42 873.144 1206.21 849.728C1317.71 807.471 1376.99 687.569 1345.91 574.875C1353.81 573.2 1361.67 570.916 1369.44 567.97C1451.43 536.897 1492.72 445.219 1461.65 363.226C1460.03 358.95 1458.2 354.825 1456.29 350.781C1530.61 315.855 1566.69 229.027 1537.09 150.933C1506.02 68.9401 1414.34 27.6525 1332.35 58.7254C1250.36 89.7984 1209.07 181.476 1240.14 263.469C1241.76 267.745 1243.57 271.878 1245.51 275.914C1192.32 300.911 1158.77 352.458 1154.8 408.397C1145.33 407.142 1135.74 406.488 1126.09 406.453C1048.39 283.596 892.671 228.084 751.511 281.58C640.134 323.789 566.954 422.832 552.43 533.202C478.995 454.416 362.51 423.44 255.576 463.966C114.416 517.462 43.3609 675.239 96.8571 816.4Z" fill="white"/>
</mask>
<g mask="url(#mask0_106_5141)">
<path d="M-41.8673 1516.96C-41.8673 1516.96 -47.8716 1429.71 -20.5338 1417.6C6.7961 1405.47 32.3976 1459.05 67.6473 1448.4C102.918 1437.74 119.298 1425.49 110.91 1349.28C102.552 1273.09 93.0921 1272.29 84.1002 1141.42C75.1083 1010.55 68.5502 983.504 134.7 944.149C200.858 904.815 274.336 972.08 356.563 1075.46C438.782 1178.82 475.997 1242.23 515.63 1249.6C555.271 1256.99 543.148 1217.41 556.344 1181.58C569.541 1145.75 564.494 1118.02 599.752 1107.39C635.022 1096.73 634.209 1062.14 635.801 971.528C637.393 880.92 596.816 814.01 641.857 809.021C686.89 804.012 661.786 780.208 768.109 892.839C874.44 1005.49 881.841 1022.17 949.957 1056.88" stroke="#0D1B36" stroke-width="0.64" stroke-miterlimit="10"/>
<path d="M-42.1511 1513.81C-42.1511 1513.81 -48.3109 1427.1 -21.3834 1414.66C5.48113 1402.25 30.7491 1454.95 65.5652 1444.11C98.0094 1433.9 114.205 1422.37 110.047 1359.85C109.74 1355.24 109.338 1350.38 108.816 1345.21C101.396 1269.6 92.6976 1269.73 84.3145 1140.4C75.8605 1011.08 69.5114 983.763 135.085 944.722C147.054 937.598 159.251 933.982 171.744 933.49C220.23 931.582 272.417 975.995 328.773 1042.1C337.613 1052.46 346.568 1063.38 355.64 1074.73C437.113 1177 474.287 1239.93 513.935 1247.15C553.471 1254.38 541.704 1215.05 554.88 1179.23C567.18 1145.79 563.609 1119.29 591.915 1107.07C593.769 1106.27 595.789 1105.53 597.933 1104.86C632.887 1093.75 632.023 1058.77 633.743 968.881C634.097 952.927 633.184 937.741 631.744 923.569C624.748 857.356 604.193 811.91 641.511 808.361C677.056 805.006 668.928 790.325 715.686 836.987C728.749 850.014 745.402 866.761 768.631 891.18C874.511 1002.52 882.102 1019.51 949.577 1054.17" stroke="#0D1B36" stroke-width="0.64" stroke-miterlimit="10"/>
<path d="M-41.9297 1508.07C-41.9297 1508.07 -48.245 1421.9 -21.7409 1409.17C4.66626 1396.5 29.6533 1448.39 63.9753 1437.25C96.0358 1426.85 111.95 1415.02 108.285 1353.11C108.014 1348.54 107.67 1343.71 107.222 1338.6C100.557 1263.59 92.7953 1264.61 85.0209 1136.83C77.0838 1009.06 70.9646 981.463 135.934 942.723C147.798 935.638 159.932 932.046 172.312 931.573C220.576 929.774 272.508 973.707 328.424 1039.09C337.204 1049.36 346.119 1060.17 355.13 1071.42C435.877 1172.61 472.99 1235.05 512.645 1242.1C552.096 1249.18 540.696 1210.11 553.814 1174.27C566.027 1140.97 562.548 1114.46 590.559 1101.98C592.406 1101.16 594.376 1100.41 596.511 1099.72C631.162 1088.12 629.993 1052.78 632.104 963.606C632.486 947.665 631.78 932.52 630.501 918.455C624.415 852.808 604.093 808.04 641.584 805.074C677.343 802.284 668.971 788.415 716.179 833.924C729.585 846.844 746.04 862.372 769.542 886.879C874.938 996.938 882.752 1014.21 949.595 1048.85" stroke="#0D1B36" stroke-width="0.64" stroke-miterlimit="10"/>
<path d="M-41.2311 1499.92C-41.2311 1499.92 -47.7099 1414.26 -21.6213 1401.26C4.29963 1388.32 28.9899 1439.37 62.8625 1427.99C94.5523 1417.37 110.164 1405.25 107.02 1343.95C106.787 1339.41 106.487 1334.64 106.096 1329.56C100.271 1255.11 93.3701 1257.08 86.1964 1130.82C78.7973 1004.6 72.895 976.752 137.28 938.306C149.06 931.253 161.089 927.701 173.407 927.251C221.469 925.552 273.098 969.002 328.603 1033.68C337.342 1043.84 346.197 1054.55 355.176 1065.73C435.169 1165.8 472.227 1227.79 511.89 1234.67C551.236 1241.59 540.193 1202.78 553.269 1166.95C565.418 1133.8 562.03 1107.28 589.733 1094.55C591.551 1093.72 593.521 1092.97 595.612 1092.22C629.96 1080.14 628.605 1044.44 630.965 955.983C631.398 940.048 630.878 924.952 629.73 910.981C624.433 845.898 604.452 801.84 642.149 799.419C678.123 797.195 669.52 784.108 717.165 828.492C730.914 841.307 747.192 855.608 770.954 880.232C875.886 989.004 883.904 1006.56 950.128 1041.14" stroke="#0D1B36" stroke-width="0.64" stroke-miterlimit="10"/>
<path d="M-40.0295 1489.49C-40.0295 1489.49 -46.6847 1404.38 -21.0065 1391.06C4.45708 1377.86 28.8217 1428.05 62.2528 1416.45C93.5431 1405.6 108.868 1393.23 106.267 1332.54C106.07 1328.04 105.828 1323.29 105.482 1318.26C100.503 1244.41 94.4559 1247.3 87.8911 1122.58C81.0299 997.902 75.3364 969.786 139.137 931.633C150.842 924.633 162.779 921.092 175.005 920.653C222.844 919.062 274.212 962.012 329.284 1025.99C337.955 1036.03 346.799 1046.66 355.725 1057.75C435.192 1156.57 471.989 1218.25 511.659 1224.95C550.9 1231.73 540.214 1193.16 553.261 1157.32C565.324 1124.32 562.037 1097.81 589.437 1084.79C591.247 1083.93 593.212 1083.23 595.25 1082.41C628.881 1068.76 627.775 1033.77 630.377 946.019C630.859 930.088 630.505 915.05 629.538 901.178C625.038 836.68 605.382 793.29 643.273 791.443C679.461 789.785 670.657 777.493 718.739 820.753C732.852 833.454 748.902 846.523 772.945 871.256C877.364 978.737 885.626 996.555 951.226 1031.14" stroke="#0D1B36" stroke-width="0.64" stroke-miterlimit="10"/>
<path d="M-38.3153 1477C-38.3153 1477 -45.147 1392.44 -19.8712 1378.81C5.11402 1365.36 29.1949 1414.67 62.1556 1402.85C93.0673 1391.76 108.118 1379.11 105.997 1319.05C105.837 1314.58 105.652 1309.86 105.373 1304.88C101.24 1231.62 96.0463 1235.43 90.0823 1112.23C83.746 989.131 78.2614 960.744 141.499 922.876C153.099 915.916 164.952 912.406 177.116 911.991C224.753 910.501 275.846 952.979 330.478 1016.24C339.109 1026.18 347.905 1036.67 356.779 1047.69C435.575 1145.37 472.274 1206.54 511.941 1213.17C551.115 1219.71 540.769 1181.47 553.774 1145.64C565.751 1112.79 562.576 1086.26 589.661 1072.98C591.441 1072.11 593.407 1071.42 595.408 1070.56C628.598 1056.19 627.445 1021.08 630.295 934.041C630.828 918.116 630.639 903.134 629.833 889.37C626.129 825.456 606.82 782.726 644.904 781.452C681.328 780.352 672.334 768.828 720.79 810.987C735.247 823.582 751.12 835.423 775.415 860.253C879.357 966.476 887.836 984.548 952.795 1019.09" stroke="#0D1B36" stroke-width="0.64" stroke-miterlimit="10"/>
<path d="M-36.096 1462.62C-36.096 1462.62 -43.1121 1378.58 -18.2308 1364.67C6.26818 1350.95 30.3354 1400.1 62.5635 1387.36C92.8374 1375.4 107.853 1363.1 106.253 1303.66C106.13 1299.23 105.99 1294.56 105.776 1289.63C102.491 1216.95 98.1289 1221.7 92.7945 1100.04C86.9962 978.479 81.7206 949.821 144.354 912.255C155.849 905.334 167.639 901.848 179.71 901.444C227.117 900.041 277.936 942.048 332.156 1004.6C340.726 1014.44 349.491 1024.85 358.325 1035.77C436.43 1132.32 473.025 1193.02 512.707 1199.51C551.796 1205.88 541.795 1167.92 554.771 1132.08C566.683 1099.38 563.579 1072.84 590.369 1059.29C592.121 1058.41 594.086 1057.71 596.05 1056.82C628.813 1041.7 627.628 1006.5 630.699 920.178C631.26 904.265 631.25 889.312 630.625 875.646C627.697 812.326 608.731 770.185 647.019 769.577C683.655 768.972 674.525 758.29 723.334 799.357C738.176 811.829 753.801 822.446 778.376 847.385C881.792 952.346 890.516 970.684 954.864 1005.19" stroke="#0D1B36" stroke-width="0.64" stroke-miterlimit="10"/>
<path d="M-33.3789 1446.51C-33.3789 1446.51 -40.5716 1363.02 -16.0927 1348.81C7.92797 1334.84 31.7511 1383.21 63.4692 1370.14C93.3248 1357.84 108.093 1345.39 106.986 1286.56C106.9 1282.16 106.818 1277.51 106.67 1272.63C104.223 1200.52 100.998 1206.18 95.9886 1086.07C90.9905 966.059 85.6405 937.142 147.697 899.89C159.117 893.021 170.794 889.555 182.803 889.174C230.008 887.872 280.552 929.407 334.331 991.242C342.862 1000.98 351.587 1011.28 360.368 1022.12C437.774 1117.52 474.281 1177.8 513.971 1184.12C552.946 1190.32 543.311 1152.63 556.258 1116.77C568.092 1084.25 565.1 1057.69 591.574 1043.87C593.319 1042.97 595.202 1042.19 597.182 1041.34C630.358 1027.31 628.293 990.17 631.613 904.563C632.223 888.655 632.379 873.759 631.936 860.193C629.797 797.436 611.184 755.976 649.666 755.942C686.516 755.903 677.26 745.964 726.401 785.946C741.615 798.325 757.013 807.71 781.862 832.737C884.751 936.435 893.741 955.033 957.448 989.494" stroke="#0D1B36" stroke-width="0.64" stroke-miterlimit="10"/>
<path d="M-30.151 1428.85C-30.151 1428.85 -37.5201 1345.9 -13.4516 1331.36C10.0908 1317.14 33.3153 1363.88 64.8779 1351.34C94.6329 1339.54 108.849 1326.07 108.243 1267.86C108.193 1263.5 108.177 1258.9 108.066 1254.05C106.479 1182.51 104.123 1189.13 99.6936 1070.55C95.2544 952.075 90.1003 922.916 151.565 885.936C162.88 879.107 174.487 875.643 186.39 875.303C233.394 874.1 283.512 915.27 336.981 976.287C345.43 985.933 354.136 996.129 362.886 1006.88C439.601 1101.16 476.003 1160.97 515.708 1167.14C554.6 1173.18 545.322 1135.73 558.227 1099.9C569.975 1067.52 567.096 1040.95 593.254 1026.87C594.969 1025.95 596.845 1025.15 598.796 1024.29C631.69 1009.76 629.44 972.261 632.988 887.383C633.648 871.481 633.969 856.642 633.678 843.161C632.315 780.998 614.049 740.197 652.745 740.729C689.831 741.248 680.47 732.043 729.93 770.97C745.516 783.256 760.699 791.38 785.816 816.545C888.166 919.01 897.435 937.837 960.531 972.267" stroke="#0D1B36" stroke-width="0.64" stroke-miterlimit="10"/>
<path d="M-26.3979 1409.78C-26.3979 1409.78 -33.9644 1327.39 -10.2774 1312.54C12.7866 1298.07 35.7275 1343.93 66.8196 1331.17C96.196 1319.12 110.118 1305.39 110.033 1247.79C110.02 1243.46 110.041 1238.9 110.003 1234.12C109.263 1163.16 107.802 1170.69 103.932 1053.65C100.08 936.727 95.0853 907.292 155.974 870.626C167.205 863.829 178.707 860.405 190.548 860.088C237.329 858.994 287.164 899.672 340.222 959.982C348.61 969.531 357.276 979.622 365.986 990.271C442.01 1083.42 478.317 1142.79 518.029 1148.78C556.836 1154.67 547.894 1117.48 560.771 1081.63C572.453 1049.39 569.63 1022.78 595.509 1008.47C597.216 1007.53 599.063 1006.71 600.985 1005.84C633.597 990.82 631.162 952.96 634.958 868.803C635.669 852.905 636.176 838.116 636.046 824.742C635.48 763.163 617.559 723.023 656.428 724.136C693.72 725.2 684.304 716.736 734.033 754.602C750.005 766.766 764.948 773.687 790.338 798.94C892.149 900.17 901.688 919.207 964.151 953.612" stroke="#0D1B36" stroke-width="0.64" stroke-miterlimit="10"/>
<path d="M-22.1398 1389.52C-22.1398 1389.52 -29.8829 1307.67 -6.59825 1292.52C15.9744 1277.83 38.6236 1322.8 69.2743 1309.81C98.2641 1297.51 111.92 1283.51 112.314 1226.56C112.339 1222.26 112.425 1217.74 112.425 1213C112.544 1142.6 111.944 1151.07 108.654 1035.56C105.369 920.197 100.554 890.478 160.838 854.113C171.972 847.377 183.395 843.935 195.152 843.65C241.713 842.544 291.251 882.879 343.91 942.453C352.251 951.876 360.885 961.883 369.542 972.457C444.895 1064.47 481.077 1123.38 520.792 1129.26C559.506 1134.96 550.917 1098.06 563.765 1062.2C575.361 1030.12 572.629 1003.5 598.222 988.934C599.9 987.986 601.747 987.166 603.654 986.252C635.974 970.72 633.37 932.54 637.387 849.09C638.148 833.198 638.821 818.465 638.851 805.199C639.061 744.213 621.478 704.711 660.569 706.411C698.097 708.033 688.639 700.28 738.603 737.122C754.967 749.185 769.654 754.861 795.326 780.223C896.597 880.22 906.415 899.486 968.246 933.868" stroke="#0D1B36" stroke-width="0.64" stroke-miterlimit="10"/>
<path d="M-17.3553 1368.24C-17.3553 1368.24 -25.2958 1286.95 -2.40062 1271.47C19.6937 1256.53 42.0591 1300.62 72.2394 1287.4C100.838 1274.89 114.233 1260.58 115.136 1204.27C115.197 1200.01 115.341 1195.52 115.406 1190.82C116.365 1120.99 116.655 1130.42 113.944 1016.44C111.211 902.595 106.563 872.621 166.292 836.563C177.341 829.858 188.66 826.456 200.354 826.195C246.713 825.189 295.956 865.06 348.195 923.907C356.475 933.233 365.069 943.135 373.695 953.625C448.349 1044.49 484.443 1102.98 524.165 1108.68C562.773 1114.23 554.563 1077.58 567.369 1041.73C578.879 1009.81 576.26 983.163 601.537 968.334C603.208 967.365 605.025 966.533 606.895 965.584C638.954 949.552 636.144 911.019 640.39 828.298C641.2 812.41 642.038 797.735 642.242 784.547C643.236 724.174 626.012 685.303 665.276 687.586C703.018 689.773 693.551 682.694 743.73 718.52C760.516 730.495 774.926 734.934 800.871 760.385C901.56 859.163 911.699 878.643 972.89 912.98" stroke="#0D1B36" stroke-width="0.64" stroke-miterlimit="10"/>
<path d="M-12.0465 1346.07C-12.0465 1346.07 -20.1765 1265.36 2.3293 1249.54C23.9323 1234.38 46.027 1277.56 75.7369 1264.12C103.949 1251.35 117.078 1236.78 118.461 1181.11C118.572 1176.85 118.761 1172.41 118.871 1167.77C120.689 1098.5 121.861 1108.87 119.709 996.427C117.571 884.149 113.09 853.92 172.227 818.134C183.172 811.469 194.428 808.091 206.009 807.848C252.159 806.922 301.106 846.33 352.933 904.47C361.153 913.699 369.708 923.496 378.293 933.881C452.256 1023.61 488.246 1081.64 527.983 1087.2C566.499 1092.57 558.634 1056.19 571.411 1020.33C582.864 988.57 580.308 961.902 605.29 946.802C606.931 945.82 608.72 944.974 610.561 944.013C642.351 927.459 639.364 888.586 643.838 806.593C644.698 790.711 645.694 776.072 646.086 763.003C647.856 703.224 630.978 665.013 670.464 667.882C708.442 670.628 698.968 664.223 749.368 699.054C766.548 710.928 780.701 714.121 806.927 739.681C907.056 837.234 917.495 856.936 978.054 891.249" stroke="#0D1B36" stroke-width="0.64" stroke-miterlimit="10"/>
<path d="M-6.21848 1323.25C-6.21848 1323.25 -14.5669 1243.1 7.57836 1226.96C28.6821 1211.56 50.514 1253.86 79.7536 1240.19C107.608 1227.17 120.442 1212.33 122.325 1157.28C122.473 1153.05 122.707 1148.67 122.896 1144.05C125.574 1075.34 127.615 1086.67 126.043 975.762C124.443 865.03 120.15 834.538 178.703 799.045C189.572 792.433 200.707 789.052 212.233 788.854C258.152 788.015 306.833 826.973 358.241 884.385C366.421 893.51 374.936 903.202 383.448 913.519C456.72 1002.12 492.613 1059.71 532.358 1065.09C570.789 1070.3 563.261 1034.18 576.017 998.332C587.384 966.723 584.94 940.036 609.607 924.672C611.219 923.677 613 922.81 614.833 921.828C646.354 904.753 643.177 865.569 647.862 784.262C648.772 768.385 649.934 753.803 650.487 740.842C653.012 681.663 636.522 644.096 676.18 647.547C714.372 650.858 704.932 645.112 755.504 678.943C773.098 690.708 786.983 692.685 813.51 718.346C913.066 814.702 923.797 834.605 983.744 868.886" stroke="#0D1B36" stroke-width="0.64" stroke-miterlimit="10"/>
<path d="M0.148433 1299.89C0.148433 1299.89 -8.38948 1220.31 13.3585 1203.82C33.9709 1188.2 55.532 1229.59 84.3012 1215.7C111.777 1202.43 124.358 1187.31 126.7 1132.9C126.885 1128.7 127.177 1124.35 127.418 1119.8C130.948 1051.64 133.879 1063.92 132.866 954.552C131.862 845.392 127.728 814.624 185.676 779.432C196.44 772.86 207.512 769.503 218.947 769.316C264.664 768.577 313.029 807.08 364.038 863.756C372.157 872.784 380.632 882.371 389.112 892.605C461.672 980.088 497.491 1037.22 537.25 1042.46C575.597 1047.51 568.348 1011.62 581.132 975.779C592.356 944.297 590.062 917.625 614.441 902.01C616.046 900.994 617.806 900.136 619.602 899.119C650.853 881.523 647.499 841.998 652.413 761.42C653.373 745.548 654.7 731.023 655.426 718.14C658.735 659.575 642.583 622.647 682.456 626.664C720.884 630.534 711.477 625.445 762.209 658.305C780.225 669.982 793.824 670.701 820.633 696.471C919.594 791.638 930.659 811.726 989.987 845.954" stroke="#0D1B36" stroke-width="0.64" stroke-miterlimit="10"/>
<path d="M7.04163 1276.21C7.04163 1276.21 -1.70677 1197.21 19.6727 1180.38C39.7938 1164.54 61.0842 1205.03 89.383 1190.9C116.48 1177.4 128.787 1162 131.63 1108.21C131.852 1104.05 132.201 1099.72 132.488 1095.23C136.877 1027.62 140.677 1040.88 140.244 933.036C139.799 825.414 135.853 794.383 193.225 759.505C203.905 752.964 214.873 749.647 226.236 749.463C271.744 748.804 319.821 786.864 370.41 842.813C378.469 851.743 386.904 861.226 395.345 871.355C467.213 957.71 502.928 1014.38 542.703 1019.47C580.937 1024.34 574.052 988.721 586.795 952.9C597.933 921.569 595.731 894.887 619.815 879C621.391 877.972 623.143 877.092 624.91 876.063C655.913 857.938 652.369 818.101 657.482 738.239C658.492 722.372 659.992 707.925 660.892 695.12C664.956 637.155 649.192 600.871 689.237 605.47C727.871 609.884 718.561 605.431 769.411 637.335C787.84 648.903 801.171 648.405 828.252 674.264C926.619 768.242 938.018 788.515 996.706 822.698" stroke="#0D1B36" stroke-width="0.64" stroke-miterlimit="10"/>
<path d="M14.4877 1252.34C14.4877 1252.34 5.52881 1173.93 26.5398 1156.76C46.1775 1140.71 67.2102 1180.27 95.0256 1165.95C121.736 1152.18 133.799 1136.51 137.121 1083.36C137.38 1079.23 137.795 1074.95 138.139 1070.48C143.388 1003.44 148.049 1017.64 148.175 911.334C148.297 805.271 144.531 773.956 201.319 739.371C211.902 732.891 222.799 729.577 234.079 729.425C279.356 728.853 327.158 766.442 377.336 821.683C385.347 830.488 393.751 839.888 402.138 849.94C473.308 935.146 508.913 991.403 548.695 996.318C586.845 1001.04 580.297 965.669 593.011 929.834C604.083 898.649 601.973 871.955 625.742 855.805C627.31 854.755 629.033 853.862 630.763 852.799C661.489 834.132 657.776 793.976 663.117 714.842C664.177 698.98 665.813 684.577 666.895 671.871C671.721 614.529 656.316 578.876 696.577 584.04C735.425 589.021 726.203 585.181 777.199 616.143C796.064 627.594 809.096 625.867 836.459 651.835C934.211 744.632 945.956 765.061 1004.02 799.241" stroke="#0D1B36" stroke-width="0.64" stroke-miterlimit="10"/>
<path d="M22.4451 1228.49C22.4451 1228.49 13.2758 1150.67 33.9104 1133.14C53.0567 1116.87 73.8187 1155.53 101.185 1140.96C127.516 1126.95 139.318 1110.98 143.107 1058.49C143.403 1054.39 143.855 1050.15 144.272 1045.75C150.395 979.237 155.933 994.42 156.61 889.633C157.298 785.129 153.72 753.551 209.903 719.267C220.403 712.819 231.187 709.524 242.383 709.403C287.458 708.932 334.965 746.058 384.723 800.571C392.673 809.279 401.037 818.574 409.393 828.542C479.871 912.62 515.373 968.413 555.17 973.178C593.235 977.736 587.032 942.647 599.717 906.799C610.704 875.766 608.685 849.062 632.167 832.66C633.706 831.597 635.421 830.684 637.123 829.608C667.6 810.411 663.697 769.944 669.237 691.525C670.368 675.661 672.149 661.323 673.412 648.716C678.993 591.974 663.976 556.965 704.409 562.711C743.492 568.25 734.373 564.994 785.452 595.038C804.76 606.393 817.494 603.437 845.13 629.493C942.266 721.109 954.366 741.715 1011.79 775.85" stroke="#0D1B36" stroke-width="0.64" stroke-miterlimit="10"/>
<path d="M30.9698 1204.82C30.9698 1204.82 21.59 1127.57 41.8562 1109.7C60.5192 1093.24 80.9945 1130.95 107.877 1116.18C133.851 1101.93 145.379 1085.67 149.648 1033.81C149.972 1029.73 150.49 1025.53 150.953 1021.19C157.927 955.218 164.334 971.366 165.599 868.129C166.875 765.176 163.435 733.33 219.055 699.332C229.45 692.924 240.171 689.652 251.283 689.563C296.149 689.171 343.368 725.855 392.707 779.641C400.596 788.252 408.92 797.441 417.237 807.305C487.002 890.263 522.429 945.605 562.242 950.22C600.193 954.606 594.377 919.777 607.012 883.924C617.912 853.043 616.006 826.321 639.173 809.655C640.683 808.58 642.39 807.645 644.063 806.556C674.283 786.809 670.219 746.043 675.938 668.348C677.118 652.489 679.073 638.229 680.488 625.708C686.833 569.588 672.182 535.231 712.83 541.543C752.128 547.647 743.131 544.969 794.293 574.094C814.036 585.332 826.48 581.167 854.397 607.333C950.918 697.768 963.373 718.552 1020.16 752.662" stroke="#0D1B36" stroke-width="0.64" stroke-miterlimit="10"/>
<path d="M40.0418 1181.51C40.0418 1181.51 30.4595 1104.87 50.3493 1086.64C68.5289 1069.97 88.7465 1106.75 115.138 1091.76C140.725 1077.25 152.009 1060.72 156.736 1009.5C157.118 1005.45 157.681 1001.31 158.201 996.989C166.056 931.571 173.311 948.692 175.148 846.965C176.99 745.571 173.731 713.441 228.754 679.765C239.065 673.388 249.681 670.156 260.722 670.071C305.386 669.779 352.282 705.986 401.229 759.057C409.079 767.563 417.364 776.648 425.627 786.436C494.702 868.265 530.033 923.165 569.852 927.609C607.719 931.835 602.24 897.262 614.854 861.417C625.668 830.689 623.862 803.976 646.726 787.018C648.22 785.901 649.885 784.982 651.55 783.872C681.514 763.575 677.26 722.498 683.207 645.531C684.437 629.677 686.557 615.474 688.146 603.031C695.253 547.533 680.983 513.799 721.803 520.693C761.336 527.355 752.475 525.224 803.695 553.489C823.881 564.631 835.997 559.224 864.217 585.49C960.109 674.774 972.932 695.705 1029.08 729.771" stroke="#0D1B36" stroke-width="0.64" stroke-miterlimit="10"/>
<path d="M49.6451 1158.72C49.6451 1158.72 39.8603 1082.68 59.3657 1064.07C77.0489 1047.23 96.9929 1083.03 122.943 1067.83C148.165 1053.05 159.203 1036.25 164.397 985.7C164.816 981.682 165.436 977.563 166.001 973.299C174.729 908.413 182.862 926.52 185.257 826.331C187.666 726.496 184.595 694.103 239.026 660.699C249.24 654.383 259.785 651.154 270.743 651.1C315.176 650.896 361.805 686.653 410.333 738.996C418.122 747.405 426.367 756.385 434.599 766.089C502.982 846.79 538.209 901.226 578.044 905.521C615.827 909.587 610.683 875.27 623.277 839.433C634.005 808.857 632.291 782.134 654.86 764.904C656.325 763.773 657.982 762.833 659.618 761.71C689.318 740.843 684.89 699.496 691.036 623.245C692.316 607.395 694.602 593.25 696.371 580.906C704.221 526.037 690.33 492.926 731.365 500.386C771.113 507.614 762.408 506.023 813.698 533.398C834.34 544.415 846.146 537.808 874.638 564.163C969.895 652.273 983.093 673.374 1038.63 707.408" stroke="#0D1B36" stroke-width="0.64" stroke-miterlimit="10"/>
<path d="M59.8021 1136.63C59.8021 1136.63 49.7938 1061.2 68.9438 1042.22C86.1435 1025.18 105.801 1060.04 131.267 1044.64C156.111 1029.61 166.909 1012.5 172.57 962.612C173.026 958.628 173.712 954.557 174.322 950.347C183.922 885.994 192.903 905.074 195.878 806.414C198.846 708.117 196.01 675.587 249.797 642.38C259.935 636.116 270.359 632.885 281.254 632.855C325.486 632.751 371.819 668.045 419.928 719.66C427.656 727.973 435.862 736.848 444.062 746.468C511.732 826.048 546.884 880.033 586.727 884.157C624.404 888.072 619.618 854.003 632.183 818.153C642.846 787.722 641.223 760.987 663.484 743.514C664.942 742.363 666.57 741.41 668.169 740.253C697.612 718.836 693.023 677.19 699.369 601.654C700.699 585.81 703.129 571.73 705.08 559.485C713.671 505.246 700.182 472.75 741.41 480.784C781.372 488.578 772.845 487.519 824.171 514.041C845.27 524.933 856.756 517.104 885.53 543.568C980.137 630.534 993.695 651.763 1048.62 685.765" stroke="#0D1B36" stroke-width="0.64" stroke-miterlimit="10"/>
<path d="M70.5258 1115.4C70.5258 1115.4 60.315 1040.58 79.0886 1021.24C95.7919 1004.03 115.205 1037.92 140.209 1022.31C164.686 1007.02 175.219 989.652 181.338 940.401C181.831 936.451 182.554 932.413 183.251 928.243C193.724 864.422 203.56 884.496 207.115 787.366C210.651 690.628 207.995 657.814 261.197 624.9C271.239 618.697 281.571 615.476 292.382 615.478C336.405 615.454 382.442 650.284 430.139 701.192C437.82 709.379 445.993 718.171 454.133 727.694C521.112 806.146 556.168 859.688 596.018 863.642C633.61 867.396 629.162 833.583 641.705 797.741C652.282 767.462 650.751 740.717 672.718 722.972C674.146 721.808 675.767 720.834 677.337 719.664C706.516 697.676 701.774 655.753 708.297 580.941C709.677 565.101 712.273 551.078 714.397 538.911C723.723 485.281 710.621 453.429 752.042 462.037C792.24 470.389 783.883 469.841 835.225 495.518C856.787 506.306 867.934 497.264 897.001 523.809C990.959 609.63 1004.91 630.999 1059.2 664.977" stroke="#0D1B36" stroke-width="0.64" stroke-miterlimit="10"/>
<path d="M81.8172 1095.23C81.8172 1095.23 71.3909 1021.04 89.7932 1001.29C106.021 983.901 125.139 1016.83 149.66 1001.02C173.772 985.455 184.081 967.813 190.638 919.211C191.159 915.274 191.948 911.284 192.689 907.168C204.056 843.871 214.728 864.947 218.855 769.327C222.957 674.147 220.489 641.07 273.107 608.449C283.065 602.279 293.314 599.09 304.033 599.102C347.854 599.178 393.596 633.545 440.852 683.733C448.472 691.824 456.606 700.51 464.693 709.958C530.952 787.269 565.933 840.359 605.785 844.192C643.264 847.774 639.202 814.222 651.695 778.375C662.186 748.249 660.768 721.485 682.419 703.476C683.819 702.299 685.439 701.325 686.972 700.121C715.908 677.554 710.984 635.34 717.686 561.251C719.115 545.417 721.876 531.451 724.161 519.391C734.229 466.391 721.528 435.154 763.143 444.335C803.555 453.253 795.41 453.2 846.754 478.061C868.772 488.725 879.6 478.461 908.956 505.136C1002.25 589.843 1016.6 611.323 1070.26 645.276" stroke="#0D1B36" stroke-width="0.64" stroke-miterlimit="10"/>
<path d="M93.6482 1076.29C93.6482 1076.29 83.0063 1002.74 101.045 982.599C116.777 965.036 135.642 996.98 159.7 980.96C183.434 965.158 193.503 947.2 200.506 899.268C201.085 895.357 201.919 891.422 202.697 887.34C214.936 824.575 226.477 846.616 231.163 752.534C235.832 658.913 233.552 625.573 285.557 593.232C295.41 587.101 305.575 583.944 316.232 583.981C359.822 584.144 405.298 618.061 452.126 667.5C459.706 675.486 467.78 684.075 475.834 693.439C541.382 769.629 576.267 822.277 616.147 825.932C653.541 829.354 649.816 796.058 662.288 760.219C672.693 730.245 671.367 703.47 692.723 685.19C694.114 683.991 695.706 683.004 697.21 681.787C725.882 658.649 720.804 616.158 727.706 542.785C729.185 526.955 732.091 513.055 734.57 501.065C745.38 448.694 733.067 418.101 774.875 427.856C815.523 437.332 807.56 437.761 858.927 461.799C881.422 472.33 891.897 460.881 921.568 487.628C1014.21 571.191 1028.95 592.811 1081.97 626.72" stroke="#0D1B36" stroke-width="0.64" stroke-miterlimit="10"/>
<path d="M106.053 1058.75C106.053 1058.75 95.209 985.793 112.872 965.293C128.136 947.572 146.72 978.52 170.294 962.3C193.662 946.229 203.507 927.996 210.948 880.713C211.564 876.836 212.455 872.927 213.307 868.913C226.441 806.673 238.817 829.715 244.082 737.163C249.318 645.101 247.197 611.485 298.647 579.451C308.424 573.373 318.498 570.226 329.062 570.273C372.451 570.537 417.631 603.99 464.04 652.702C471.56 660.591 479.614 669.068 487.608 678.334C552.464 753.397 587.253 805.601 627.14 809.086C664.451 812.348 661.07 779.329 673.484 743.464C683.832 713.655 682.598 686.87 703.638 668.325C705.001 667.114 706.584 666.106 708.052 664.855C736.451 641.125 731.228 598.377 738.308 525.727C739.858 509.895 742.908 496.059 745.569 484.169C757.099 432.435 745.208 402.45 787.21 412.779C828.08 422.842 820.334 423.716 871.691 446.966C894.642 457.372 904.806 444.724 934.75 471.559C1026.71 553.993 1041.87 575.738 1094.28 609.594" stroke="#0D1B36" stroke-width="0.64" stroke-miterlimit="10"/>
<path d="M119.047 1042.75C119.047 1042.75 107.995 970.449 125.307 949.531C140.082 931.659 158.385 961.612 181.497 945.183C204.499 928.843 214.092 910.323 222.007 863.723C222.66 859.88 223.609 855.997 224.505 852.037C238.533 790.321 251.744 814.366 257.581 723.323C263.384 632.82 261.451 598.941 312.288 567.186C321.961 561.148 331.942 558.012 342.43 558.112C385.609 558.455 430.495 591.445 476.492 639.45C483.951 647.242 491.965 655.614 499.928 664.797C564.072 738.739 598.778 790.472 638.68 793.806C675.885 796.917 672.861 764.146 685.255 728.289C695.517 698.633 694.374 671.836 715.12 653.02C716.474 651.788 718.029 650.767 719.468 649.503C747.616 625.173 742.227 582.176 749.506 510.242C751.106 494.415 754.308 480.665 757.142 468.853C769.394 417.757 757.904 388.387 800.099 399.289C841.205 409.91 833.675 411.23 885 433.701C908.429 443.974 918.231 430.12 948.478 457.057C1039.77 538.376 1055.34 560.232 1107.11 594.064" stroke="#0D1B36" stroke-width="0.64" stroke-miterlimit="10"/>
<path d="M132.594 1028.53C132.594 1028.53 121.326 956.864 138.267 935.535C152.575 917.504 170.596 946.461 193.204 929.84C215.841 913.231 225.209 894.436 233.541 848.493C234.223 844.663 235.246 840.848 236.179 836.923C251.1 775.731 265.138 800.756 271.564 711.264C277.933 622.32 276.18 588.157 326.441 556.717C336.03 550.71 345.927 547.607 356.324 547.717C399.281 548.169 443.891 580.688 489.469 627.965C496.888 635.652 504.842 643.927 512.772 653.026C576.204 725.848 610.835 777.129 650.753 780.314C687.873 783.265 685.186 750.75 697.559 714.901C707.735 685.397 706.684 658.59 727.135 639.502C728.461 638.257 730.007 637.215 731.417 635.938C759.292 611.016 753.78 567.755 761.216 496.552C762.866 480.73 766.234 467.037 769.241 455.303C782.214 404.845 771.146 376.081 813.534 387.558C854.854 398.745 847.583 400.494 898.864 422.215C922.761 432.334 932.219 417.317 962.759 444.333C1053.37 524.545 1069.35 546.484 1120.49 580.291" stroke="#0D1B36" stroke-width="0.64" stroke-miterlimit="10"/>
<path d="M146.715 1016.2C146.715 1016.2 135.239 945.191 151.809 923.451C165.657 905.284 183.389 933.224 205.542 916.415C227.806 899.517 236.979 880.46 245.727 835.174C246.467 831.37 247.506 827.597 248.526 823.711C264.362 763.035 279.214 789.07 286.211 701.087C293.148 613.702 291.582 579.276 341.252 548.108C350.744 542.162 360.549 539.069 370.875 539.183C413.622 539.714 457.945 571.79 503.103 618.339C510.454 625.908 518.397 634.092 526.267 643.094C588.986 714.796 623.521 765.634 663.467 768.641C700.482 771.44 698.174 739.165 710.497 703.31C720.607 673.951 719.648 647.133 739.791 627.802C741.088 626.544 742.627 625.481 744.008 624.191C771.632 598.669 765.953 555.16 773.567 484.68C775.267 468.863 778.78 455.236 781.969 443.601C795.641 393.788 785.003 365.652 827.577 377.682C869.112 389.435 862.07 391.6 913.327 412.563C937.723 422.541 946.819 406.318 977.649 433.465C1067.57 512.57 1083.96 534.62 1134.49 568.396" stroke="#0D1B36" stroke-width="0.64" stroke-miterlimit="10"/>
<path d="M161.409 1005.96C161.409 1005.96 149.747 935.594 165.925 913.452C179.285 895.134 196.726 922.057 218.404 905.069C240.302 887.901 249.243 868.549 258.417 823.941C259.193 820.171 260.29 816.424 261.363 812.614C278.092 752.462 293.78 779.499 301.349 693.025C308.852 607.199 307.467 572.489 356.539 541.644C365.947 535.729 375.669 532.668 385.911 532.813C428.456 533.445 472.476 565.037 517.222 610.879C524.512 618.352 532.416 626.43 540.254 635.349C602.261 705.93 636.721 756.317 676.674 759.153C713.604 761.793 711.633 729.773 723.935 693.927C733.96 664.72 733.1 637.913 752.941 618.289C754.229 617.01 755.731 615.913 757.091 614.631C784.435 588.496 778.64 544.743 786.433 474.987C788.203 459.167 791.839 445.612 795.231 434.068C809.616 384.872 799.408 357.365 842.175 369.968C883.945 382.279 877.155 384.852 928.375 405.087C953.239 414.911 961.991 397.525 993.115 424.752C1082.34 502.757 1099.17 524.902 1149.06 558.654" stroke="#0D1B36" stroke-width="0.64" stroke-miterlimit="10"/>
<path d="M176.699 997.984C176.699 997.984 164.838 928.294 180.628 905.699C193.528 887.243 210.681 913.149 231.875 895.961C253.407 878.525 262.146 858.89 271.736 814.939C272.549 811.203 273.711 807.503 274.842 803.718C292.486 744.083 308.988 772.13 317.137 687.186C325.207 602.919 323.988 567.954 372.49 537.372C381.793 531.498 391.431 528.468 401.603 528.617C443.917 529.335 487.67 560.477 531.997 605.592C539.247 612.959 547.09 620.941 554.896 629.776C616.191 699.236 650.576 749.173 690.516 751.846C727.341 754.334 725.727 722.563 738 686.703C747.938 657.649 747.192 630.822 766.716 610.935C767.976 609.643 769.449 608.533 770.793 607.209C797.857 580.461 791.946 536.464 799.896 467.44C801.716 451.625 805.518 438.128 809.061 426.67C824.147 378.119 814.36 351.219 857.33 364.417C899.314 377.294 892.774 380.276 943.95 399.76C969.304 409.423 977.689 390.88 1009.11 418.188C1097.62 495.093 1114.9 517.334 1164.17 551.033" stroke="#0D1B36" stroke-width="0.64" stroke-miterlimit="10"/>
<path d="M192.839 993.138C192.839 993.138 180.77 924.101 196.189 901.096C208.63 882.503 225.485 907.371 246.225 889.995C267.384 872.269 275.927 852.373 285.913 809.087C286.776 805.356 287.983 801.71 289.159 797.981C307.718 738.862 325.033 767.919 333.733 684.492C342.357 601.813 341.332 566.534 389.236 536.275C398.463 530.453 408.002 527.414 418.076 527.623C460.189 528.442 503.647 559.12 547.554 603.507C554.743 610.778 562.567 618.647 570.321 627.405C630.904 695.746 665.206 745.211 705.169 747.755C741.901 750.062 740.632 718.568 752.884 682.716C762.736 653.815 762.082 626.977 781.311 606.818C782.563 605.505 784.008 604.382 785.322 603.045C812.127 575.677 806.086 531.465 814.207 463.143C816.077 447.333 820.023 433.901 823.769 422.534C839.534 374.637 830.198 348.357 873.374 362.1C915.572 375.542 909.317 378.896 960.414 397.667C986.259 407.168 994.278 387.47 1025.99 414.858C1113.8 490.664 1131.52 513.001 1180.16 546.675" stroke="#0D1B36" stroke-width="0.64" stroke-miterlimit="10"/>
<path d="M209.656 991.151C209.656 991.151 197.408 922.782 212.426 899.353C224.416 880.643 240.965 904.453 261.23 886.898C282.023 868.902 290.376 848.694 300.766 806.094C301.666 802.397 302.931 798.778 304.151 795.104C323.646 736.493 341.755 766.567 351.034 684.67C360.225 603.55 359.388 568.009 406.701 538.022C415.823 532.24 425.277 529.232 435.281 529.444C477.184 530.342 520.347 560.558 563.842 604.238C570.992 611.403 578.755 619.176 586.469 627.829C646.34 695.05 680.546 744.071 720.537 746.438C757.163 748.593 756.26 717.367 768.475 681.482C778.263 652.724 777.679 625.884 796.622 605.474C797.845 604.148 799.281 603.004 800.567 601.654C827.091 573.673 820.934 529.218 829.212 461.627C831.132 445.822 835.223 432.455 839.163 421.158C855.62 373.886 846.735 348.226 890.083 362.551C932.517 376.551 926.497 380.271 977.552 398.363C1003.89 407.702 1011.51 386.836 1043.55 414.317C1130.64 489.052 1148.82 511.456 1196.82 545.086" stroke="#0D1B36" stroke-width="0.64" stroke-miterlimit="10"/>
<path d="M229.755 991.755C229.755 991.755 217.308 924.061 231.939 900.179C243.469 881.332 259.7 904.112 279.51 886.37C299.93 868.085 308.088 847.615 318.895 805.672C319.832 802.009 321.162 798.437 322.448 794.809C342.858 736.715 361.781 767.799 371.632 687.411C381.39 607.85 380.732 572.025 427.448 542.36C436.487 536.609 445.836 533.641 455.777 533.877C497.479 534.876 540.346 564.628 583.421 607.58C590.51 614.649 598.234 622.316 605.916 630.886C665.054 696.994 699.206 745.557 739.204 747.753C775.746 749.748 775.2 718.77 787.374 682.901C797.083 654.317 796.612 627.458 815.231 606.763C816.425 605.424 817.853 604.259 819.111 602.896C845.347 574.281 839.082 529.603 847.508 462.723C849.5 446.915 853.722 433.642 857.835 422.423C874.971 375.804 866.529 350.744 910.092 365.635C952.748 380.222 947.017 384.263 998.002 401.663C1024.84 410.811 1032.08 388.818 1064.42 416.4C1150.8 490.066 1169.43 512.536 1216.79 546.12" stroke="#0D1B36" stroke-width="0.64" stroke-miterlimit="10"/>
<path d="M250.697 993.886C250.697 993.886 238.079 926.879 252.302 902.553C263.381 883.59 279.306 905.311 298.628 887.418C318.674 868.843 326.658 848.104 337.848 806.855C338.842 803.218 340.21 799.679 341.541 796.107C362.886 738.521 382.602 770.622 393.033 691.765C403.357 613.762 402.867 577.682 449.012 548.282C457.954 542.592 467.233 539.627 477.082 539.873C518.553 540.959 561.153 570.261 603.809 612.485C610.83 619.436 618.521 627.02 626.151 635.514C684.576 700.502 718.653 748.614 758.658 750.639C795.095 752.482 794.907 721.753 807.052 685.87C816.675 657.439 816.295 630.569 834.62 609.602C835.806 608.242 837.206 607.064 838.434 605.688C864.382 576.439 858.008 531.539 866.613 465.382C868.655 449.579 873.021 436.371 877.337 425.244C895.144 379.257 887.16 354.838 930.909 370.282C973.78 385.435 968.326 389.827 1019.25 406.555C1046.58 415.542 1053.45 392.393 1086.09 420.055C1171.74 492.629 1190.83 515.166 1237.57 548.748" stroke="#0D1B36" stroke-width="0.64" stroke-miterlimit="10"/>
<path d="M271.25 997.267C271.25 997.267 258.453 930.927 272.276 906.178C282.931 887.111 298.523 907.76 317.39 889.68C337.062 870.815 344.873 849.806 356.458 809.222C357.481 805.598 358.915 802.107 360.29 798.589C382.579 741.532 403.08 774.631 414.083 697.282C424.954 620.846 424.664 584.475 470.233 555.388C479.091 549.73 488.257 546.784 498.051 547.075C539.321 548.262 581.618 577.079 623.862 618.596C630.843 625.443 638.495 632.922 646.063 641.319C703.756 705.194 737.779 752.847 777.799 754.722C814.152 756.406 814.3 725.933 826.424 690.058C835.982 661.771 835.694 634.891 853.711 613.681C854.868 612.308 856.26 611.109 857.451 609.699C883.111 579.816 876.658 534.706 885.391 469.267C887.503 453.462 891.993 440.327 896.504 429.27C914.982 383.916 907.47 360.109 951.412 376.126C994.498 391.845 989.333 396.559 1040.17 412.623C1068 421.42 1074.5 397.144 1107.45 424.879C1192.36 496.39 1211.91 518.994 1258.03 552.543" stroke="#0D1B36" stroke-width="0.64" stroke-miterlimit="10"/>
<path d="M291.408 1001.76C291.408 1001.76 278.44 936.104 291.847 910.889C302.051 891.706 317.337 911.296 335.729 893.037C355.028 873.882 362.685 852.596 374.624 812.692C375.705 809.094 377.183 805.658 378.616 802.166C401.841 745.618 423.135 779.734 434.719 703.915C446.163 629.06 446.054 592.404 491.01 563.598C499.763 557.98 508.866 555.057 518.548 555.367C559.616 556.654 601.617 585.008 643.442 625.798C650.362 632.547 657.974 639.921 665.511 648.234C722.491 710.989 756.418 758.199 796.446 759.904C832.693 761.436 833.199 731.211 845.281 695.352C854.753 667.217 854.565 640.347 872.279 618.845C873.428 617.45 874.791 616.239 875.953 614.815C901.317 584.278 894.764 538.966 903.676 474.251C905.845 458.472 910.472 445.381 915.164 434.423C934.313 389.701 927.252 366.514 971.416 383.119C1014.74 399.395 1009.84 404.439 1060.6 419.861C1088.93 428.446 1095.04 403.072 1128.3 430.88C1212.5 501.341 1232.5 523.99 1278.01 557.487" stroke="#0D1B36" stroke-width="0.64" stroke-miterlimit="10"/>
<path d="M311.178 1007.18C311.178 1007.18 298.039 942.219 311.038 916.56C320.811 897.252 335.742 915.779 353.687 897.353C372.613 877.908 380.125 856.365 392.43 817.114C393.549 813.55 395.085 810.139 396.571 806.724C420.731 750.683 442.819 785.817 454.974 711.508C466.964 638.219 467.035 601.279 511.436 572.779C520.113 567.214 529.104 564.31 538.722 564.644C579.559 566.018 621.294 593.922 662.699 633.984C669.559 640.636 677.131 647.905 684.637 656.135C740.891 717.798 774.756 764.529 814.791 766.063C850.954 767.435 851.825 737.479 863.849 701.594C873.235 673.612 873.139 646.731 890.559 624.956C891.679 623.549 893.026 622.296 894.167 620.88C919.222 589.717 912.61 544.188 921.65 480.191C923.891 464.409 928.641 451.391 933.527 440.503C953.327 396.422 946.745 373.868 991.095 391.025C1034.63 407.868 1030.02 413.233 1080.72 427.983C1109.55 436.378 1115.28 409.878 1148.84 437.765C1232.28 507.173 1252.78 529.872 1297.65 563.345" stroke="#0D1B36" stroke-width="0.64" stroke-miterlimit="10"/>
<path d="M330.589 1013.37C330.589 1013.37 317.309 949.107 329.87 922.99C339.22 903.578 353.817 921.033 371.287 902.428C389.839 882.693 397.197 860.873 409.878 822.294C411.054 818.757 412.635 815.401 414.158 812.019C439.283 756.5 462.114 792.647 474.861 719.838C487.419 648.109 487.678 610.906 531.466 582.686C540.038 577.161 548.966 574.28 558.492 574.625C599.128 576.1 640.56 603.519 681.553 642.874C688.373 649.422 695.885 656.594 703.35 664.719C758.893 725.262 792.683 771.541 832.725 772.905C868.79 774.147 870.011 744.417 882.014 708.54C891.335 680.703 891.331 653.811 908.434 631.773C909.547 630.344 910.844 629.086 911.977 627.65C936.736 595.831 930.045 550.093 939.221 486.835C941.512 471.058 946.406 458.105 951.474 447.316C971.924 403.875 965.835 381.926 1010.38 399.657C1054.14 417.087 1049.82 422.724 1100.44 436.861C1129.76 445.043 1135.1 417.445 1168.97 445.426C1251.68 513.771 1272.65 536.529 1316.89 569.957" stroke="#0D1B36" stroke-width="0.64" stroke-miterlimit="10"/>
<path d="M349.592 1020.19C349.592 1020.19 336.162 956.607 348.295 930.053C357.201 910.547 371.477 926.901 388.487 908.158C406.658 888.113 413.871 866.036 426.906 828.138C428.111 824.613 429.757 821.305 431.346 817.97C457.435 762.972 481.03 800.124 494.358 728.845C507.461 658.682 507.921 621.188 551.133 593.282C559.629 587.809 568.444 584.948 577.908 585.316C618.342 586.891 659.499 613.84 700.052 652.474C706.811 658.925 714.304 665.985 721.717 674.034C776.526 733.465 810.241 779.293 850.312 780.478C886.292 781.56 887.85 752.086 899.824 716.196C909.059 688.511 909.155 661.629 925.963 639.32C927.047 637.878 928.336 636.599 929.433 635.129C953.866 602.642 947.132 556.728 956.459 494.181C958.82 478.401 963.838 465.521 969.108 454.823C990.229 412.015 984.591 390.686 1029.33 408.991C1073.32 426.978 1069.27 432.924 1119.81 446.419C1149.65 454.382 1154.59 425.686 1188.76 453.747C1270.72 521.058 1292.17 543.825 1335.78 577.229" stroke="#0D1B36" stroke-width="0.64" stroke-miterlimit="10"/>
<path d="M368.246 1027.48C368.246 1027.48 354.653 964.605 366.362 937.564C374.845 917.954 388.758 933.223 405.321 914.314C423.118 893.979 430.208 871.637 443.588 834.399C444.851 830.901 446.555 827.618 448.168 824.347C475.222 769.87 499.56 808.034 513.481 738.257C527.159 669.674 527.791 631.874 570.398 604.27C578.789 598.837 587.541 595.999 596.913 596.378C637.117 598.041 678.007 624.539 718.119 662.454C724.831 668.779 732.271 675.763 739.652 683.728C793.729 742.046 827.389 787.416 867.475 788.451C903.35 789.381 905.266 760.156 917.219 724.274C926.368 696.741 926.576 669.84 943.069 647.267C944.124 645.812 945.405 644.512 946.472 643.029C970.589 609.896 963.805 563.785 973.259 501.956C975.67 486.181 980.812 473.374 986.297 462.738C1008.04 420.558 1002.91 399.875 1047.85 418.725C1092.06 437.278 1088.3 443.495 1138.76 456.397C1169.09 464.149 1173.65 434.355 1208.14 462.489C1289.35 528.738 1311.28 551.563 1354.25 584.943" stroke="#0D1B36" stroke-width="0.64" stroke-miterlimit="10"/>
<path d="M386.508 1035.06C386.508 1035.06 372.773 972.886 384.044 945.388C392.126 925.667 405.676 939.851 421.772 920.784C439.187 900.138 446.152 877.532 459.874 841.003C461.173 837.539 462.943 834.303 464.601 831.086C492.619 777.131 517.722 816.3 532.222 748.053C546.446 681.036 547.287 642.966 589.31 615.655C597.618 610.253 606.265 607.456 615.545 607.846C655.547 609.609 696.134 635.622 735.835 672.83C742.485 679.059 749.886 685.938 757.228 693.798C810.571 751.004 844.177 795.914 884.27 796.78C920.04 797.558 922.334 768.572 934.237 732.685C943.329 705.318 943.608 678.414 959.798 655.548C960.845 654.073 962.097 652.759 963.157 651.255C986.949 617.454 980.114 571.147 989.705 510.057C992.186 494.279 997.452 481.546 1003.12 471.009C1025.51 429.469 1020.87 409.39 1065.99 428.822C1110.42 447.962 1106.95 454.43 1157.34 466.711C1188.19 474.243 1192.33 443.359 1227.13 471.565C1307.58 536.788 1330.02 559.636 1372.38 592.983" stroke="#0D1B36" stroke-width="0.64" stroke-miterlimit="10"/>
<path d="M404.399 1042.8C404.399 1042.8 390.544 981.324 401.357 953.377C409.017 933.552 422.224 946.643 437.852 927.418C454.886 906.461 461.735 883.611 475.802 847.743C477.16 844.304 478.967 841.102 480.69 837.933C509.694 784.491 535.527 824.701 550.612 757.934C565.382 692.485 566.403 654.13 607.863 627.104C616.066 621.743 624.621 618.956 633.846 619.391C673.626 621.262 713.938 646.804 753.219 683.285C759.809 689.416 767.17 696.19 774.48 703.967C827.098 760.081 860.621 804.52 900.722 805.214C936.407 805.833 939.046 777.124 950.92 741.224C959.926 714.009 960.317 687.087 976.192 663.957C977.21 662.468 978.446 661.113 979.464 659.625C1002.93 625.156 996.074 578.665 1005.79 518.273C1008.32 502.5 1013.72 489.811 1019.59 479.365C1042.6 438.452 1038.47 419.02 1083.8 439.017C1128.45 458.723 1125.27 465.442 1175.58 477.151C1206.94 484.443 1210.67 452.49 1245.79 480.769C1325.49 544.958 1348.42 567.835 1390.14 601.138" stroke="#0D1B36" stroke-width="0.64" stroke-miterlimit="10"/>
<path d="M421.921 1050.52C421.921 1050.52 407.953 989.756 418.292 961.317C425.558 941.401 438.373 953.395 453.555 934.003C470.207 912.735 476.94 889.642 491.353 854.433C492.747 851.028 494.62 847.874 496.38 844.738C526.369 791.81 552.946 833.033 568.603 767.775C583.927 703.913 585.149 665.267 626.004 638.542C634.131 633.233 642.594 630.457 651.728 630.903C691.297 632.853 731.336 657.925 770.184 693.706C776.734 699.733 784.035 706.41 791.312 714.103C843.197 769.105 876.667 813.084 916.774 813.608C952.354 814.075 955.35 785.614 967.196 749.701C976.115 722.639 976.599 695.706 992.187 672.325C993.176 670.823 994.404 669.447 995.414 667.938C1018.56 632.801 1011.66 586.135 1021.5 526.482C1024.11 510.706 1029.61 498.098 1035.68 487.743C1059.32 447.458 1055.69 428.651 1101.21 449.222C1146.07 469.494 1143.21 476.477 1193.41 487.58C1225.28 494.631 1228.61 461.61 1264.04 489.961C1342.96 553.124 1366.39 576.031 1407.49 609.302" stroke="#0D1B36" stroke-width="0.64" stroke-miterlimit="10"/>
<path d="M439.068 1058.07C439.068 1058.07 424.979 997.997 434.86 969.108C441.703 949.089 454.154 959.998 468.89 940.439C485.14 918.869 491.798 895.516 506.516 860.983C507.96 857.584 509.877 854.484 511.711 851.416C542.673 799.03 569.985 841.245 586.243 777.509C602.112 715.214 603.535 676.276 643.806 649.845C651.828 644.575 660.208 641.831 669.279 642.3C708.647 644.351 748.389 668.959 786.818 704.013C793.308 709.943 800.589 716.507 807.793 724.132C858.945 778.021 892.36 821.542 932.475 821.896C967.97 822.203 971.325 793.99 983.128 758.093C991.983 731.175 992.566 704.252 1007.83 680.586C1008.81 679.064 1009.99 677.682 1010.98 676.131C1033.78 640.335 1026.88 593.477 1036.85 534.521C1039.51 518.772 1045.15 506.207 1051.42 495.944C1075.67 456.265 1072.58 438.117 1118.29 459.241C1163.38 480.071 1160.78 487.313 1210.91 497.824C1243.27 504.613 1246.21 470.544 1281.96 498.988C1360.12 561.147 1384.05 584.055 1424.52 617.281" stroke="#0D1B36" stroke-width="0.64" stroke-miterlimit="10"/>
<path d="M455.833 1065.31C455.833 1065.31 441.631 1005.95 451.046 976.589C457.495 956.479 469.575 966.283 483.851 946.587C499.72 924.705 506.291 901.122 521.325 867.236C522.827 863.862 524.789 860.818 526.66 857.784C558.615 805.932 586.65 849.167 603.493 786.911C619.916 726.205 621.519 686.982 661.206 660.844C669.144 655.607 677.44 652.894 686.398 653.382C725.543 655.542 765.033 679.67 803.02 714.004C809.47 719.829 816.691 726.297 823.856 733.817C874.253 786.602 907.615 829.664 947.766 829.86C983.163 830.036 986.867 802.05 998.65 766.161C1007.42 739.396 1008.09 712.462 1023.06 688.524C1024.01 686.989 1025.19 685.586 1026.15 684.022C1048.6 647.566 1041.68 600.524 1051.78 542.287C1054.51 526.535 1060.24 514.03 1066.74 503.85C1091.61 464.799 1089.02 447.276 1134.92 468.974C1180.24 490.391 1177.93 497.834 1227.99 507.794C1260.86 514.343 1263.4 479.225 1299.46 507.721C1376.85 568.854 1401.28 591.763 1441.12 624.986" stroke="#0D1B36" stroke-width="0.64" stroke-miterlimit="10"/>
<path d="M472.252 1072.08C472.252 1072.08 457.937 1013.43 466.878 983.58C472.947 963.351 484.614 972.065 498.452 952.223C513.91 930.018 520.414 906.196 535.753 872.986C537.291 869.646 539.311 866.628 541.227 863.649C574.197 812.323 602.924 856.566 620.368 795.832C637.337 736.693 639.141 697.178 678.244 671.333C686.086 666.157 694.29 663.455 703.185 663.967C742.129 666.227 781.315 689.871 818.891 723.498C825.272 729.205 832.461 735.589 839.594 743.025C889.266 794.719 922.565 837.301 962.724 837.326C998.016 837.351 1002.09 809.634 1013.83 773.71C1022.52 747.119 1023.31 720.166 1037.96 695.965C1038.91 694.408 1040.05 692.993 1040.98 691.416C1063.08 654.279 1056.17 607.066 1066.37 549.556C1069.17 533.8 1075.03 521.369 1081.71 511.288C1107.19 472.843 1105.11 455.966 1151.23 478.23C1196.76 500.213 1194.73 507.886 1244.72 517.274C1278.08 523.54 1280.23 487.396 1316.61 515.964C1393.22 576.072 1418.16 599.002 1457.39 632.172" stroke="#0D1B36" stroke-width="0.64" stroke-miterlimit="10"/>
<path d="M488.297 1078.17C488.297 1078.17 473.889 1020.23 482.344 989.919C488.018 969.6 499.294 977.216 512.685 957.208C527.761 934.692 534.178 910.639 549.834 878.076C551.431 874.762 553.495 871.799 555.468 868.846C589.432 818.055 618.874 863.297 636.889 804.073C654.413 746.521 656.409 706.694 694.936 681.163C702.694 676.018 710.814 673.348 719.618 673.871C758.352 676.21 797.25 699.412 834.407 732.311C840.748 737.913 847.877 744.2 854.978 751.552C903.896 802.142 937.141 844.265 977.328 844.112C1012.54 843.976 1016.96 816.508 1028.67 780.6C1037.29 754.153 1038.15 727.198 1052.51 702.724C1053.42 701.155 1054.55 699.698 1055.47 698.128C1077.21 660.31 1070.3 612.928 1080.63 556.135C1083.48 540.385 1089.47 528.027 1096.37 518.029C1122.47 480.19 1120.9 463.981 1167.21 486.819C1212.96 509.367 1211.23 517.262 1261.13 526.107C1295.02 532.105 1296.73 494.949 1333.46 523.552C1409.29 582.663 1434.75 605.587 1473.35 638.733" stroke="#0D1B36" stroke-width="0.64" stroke-miterlimit="10"/>
<path d="M503.977 1083.5C503.977 1083.5 489.478 1026.26 497.445 995.486C502.739 975.047 513.601 981.573 526.554 961.42C541.22 938.58 547.599 914.302 563.53 882.402C565.185 879.114 567.307 876.176 569.312 873.307C604.277 823.072 634.433 869.314 653.042 811.59C671.09 755.613 673.317 715.507 711.231 690.257C718.883 685.151 726.912 682.492 735.66 683.06C774.172 685.507 812.809 708.209 849.533 740.409C855.814 745.915 862.903 752.097 869.972 759.365C918.164 808.863 951.348 850.506 991.542 850.183C1026.64 849.896 1031.43 822.675 1043.08 786.762C1051.62 760.468 1052.6 733.514 1066.64 708.756C1067.54 707.166 1068.62 705.703 1069.53 704.113C1090.89 665.622 1084.02 618.061 1094.46 561.995C1097.39 546.263 1103.48 533.936 1110.58 524.029C1137.27 486.805 1136.23 471.233 1182.76 494.637C1228.72 517.752 1227.29 525.868 1277.1 534.15C1311.48 539.865 1312.78 501.691 1349.84 530.358C1424.89 588.472 1450.88 611.389 1488.83 644.49" stroke="#0D1B36" stroke-width="0.64" stroke-miterlimit="10"/>
<path d="M519.291 1087.85C519.291 1087.85 504.721 1031.32 512.173 1000.07C517.073 979.539 527.535 984.946 540.049 964.647C554.305 941.483 560.647 916.98 576.881 885.755C578.573 882.502 580.761 879.611 582.803 876.776C618.79 827.087 649.611 874.324 668.833 818.094C687.435 763.704 689.834 723.294 727.193 698.349C734.77 693.297 742.707 690.648 751.363 691.227C789.673 693.775 828.036 716.005 864.319 747.485C870.539 752.894 877.588 758.972 884.617 766.135C932.056 814.529 965.193 855.734 1005.39 855.24C1040.39 854.801 1045.53 827.828 1057.17 791.923C1065.64 765.773 1066.69 738.817 1080.43 713.787C1081.31 712.184 1082.38 710.7 1083.25 709.076C1104.24 669.912 1097.4 622.194 1107.96 566.825C1110.96 551.09 1117.14 538.823 1124.46 529.028C1151.76 492.41 1151.26 477.498 1197.95 501.463C1244.14 525.164 1242.97 533.469 1292.72 541.221C1327.61 546.645 1328.51 507.473 1365.89 536.213C1440.17 593.322 1466.67 616.24 1503.99 649.316" stroke="#0D1B36" stroke-width="0.64" stroke-miterlimit="10"/>
<path d="M534.248 1091.08C534.248 1091.08 519.607 1035.24 526.55 1003.54C531.077 982.908 541.119 987.204 553.194 966.76C567.068 943.285 573.344 918.544 589.875 887.974C591.616 884.725 593.849 881.89 595.956 879.101C632.966 829.96 664.472 878.184 684.288 823.454C703.414 770.64 706.035 729.929 742.789 705.286C750.261 700.273 758.114 697.657 766.687 698.267C804.774 700.923 842.862 722.683 878.726 753.435C884.906 758.739 891.895 764.719 898.892 771.799C945.585 819.109 978.681 859.827 1018.89 859.162C1053.81 858.584 1059.31 831.859 1070.88 795.929C1079.27 769.931 1080.44 742.977 1093.87 717.683C1094.72 716.067 1095.78 714.563 1096.62 712.925C1117.24 673.089 1110.42 625.191 1121.09 570.549C1124.16 554.811 1130.45 542.625 1137.99 532.913C1165.87 496.889 1165.91 482.636 1212.82 507.167C1259.22 531.434 1258.34 539.94 1308.03 547.141C1343.43 552.275 1343.9 512.091 1381.62 540.896C1455.09 597.017 1482.11 619.927 1518.81 652.951" stroke="#0D1B36" stroke-width="0.64" stroke-miterlimit="10"/>
<path d="M548.827 1093.06C548.827 1093.06 534.115 1037.92 540.551 1005.76C544.697 985.009 554.325 988.215 565.97 967.647C579.434 943.848 585.68 918.902 602.478 888.974C604.277 885.752 606.555 882.971 608.699 880.217C646.739 831.644 678.91 880.862 699.339 827.626C718.999 776.407 721.841 735.397 758.011 711.047C765.4 706.065 773.148 703.489 781.65 704.102C819.535 706.858 857.341 728.126 892.772 758.179C898.892 763.386 905.862 769.254 912.806 776.258C958.745 822.463 991.808 862.714 1032.02 861.879C1066.84 861.149 1072.7 834.672 1084.25 798.75C1092.56 772.925 1093.81 745.939 1106.94 720.374C1107.79 718.736 1108.81 717.198 1109.63 715.569C1129.86 675.038 1123.11 626.976 1133.88 573.06C1137.03 557.319 1143.43 545.185 1151.15 535.572C1179.62 500.142 1180.2 486.569 1227.31 511.644C1273.95 536.47 1273.34 545.184 1322.95 551.864C1358.86 556.686 1358.92 515.534 1396.96 544.382C1469.65 599.505 1497.18 622.388 1533.26 655.408" stroke="#0D1B36" stroke-width="0.64" stroke-miterlimit="10"/>
<path d="M563.058 1093.61C563.058 1093.61 548.275 1039.17 554.216 1006.52C557.989 985.677 567.197 987.772 578.403 967.058C591.435 942.944 597.694 917.777 614.759 888.491C616.616 885.294 618.93 882.547 621.127 879.869C660.169 831.852 693.025 882.056 714.068 830.313C734.253 780.669 737.317 739.359 772.882 715.31C780.174 710.39 787.851 707.816 796.261 708.44C833.945 711.297 871.456 732.101 906.467 761.426C912.539 766.508 919.464 772.32 926.361 779.199C971.553 824.321 1004.55 864.091 1044.8 863.078C1079.52 862.217 1085.72 835.967 1097.26 800.053C1105.5 774.373 1106.85 747.376 1119.66 721.547C1120.47 719.897 1121.47 718.345 1122.28 716.695C1142.12 675.499 1135.42 627.271 1146.29 574.061C1149.52 558.338 1156.01 546.243 1163.96 536.734C1193.03 501.889 1194.13 488.984 1241.44 514.633C1288.29 540.045 1287.94 548.927 1337.49 555.077C1373.91 559.588 1373.55 517.466 1411.92 546.357C1483.81 600.492 1511.89 623.36 1547.32 656.335" stroke="#0D1B36" stroke-width="0.64" stroke-miterlimit="10"/>
<path d="M576.948 1092.56C576.948 1092.56 562.123 1038.83 567.527 1005.72C570.948 984.768 579.693 985.769 590.481 964.902C603.103 940.463 609.353 915.084 626.665 886.448C628.579 883.277 630.959 880.577 633.193 877.933C673.286 830.476 706.778 881.662 728.443 831.433C749.152 783.364 752.418 741.762 787.428 718.02C794.635 713.131 802.208 710.597 810.555 711.244C848.009 714.189 885.265 734.513 919.844 763.14C925.856 768.124 932.741 773.833 939.606 780.627C984.044 824.644 1017.02 863.969 1057.27 862.785C1091.9 861.765 1098.47 835.763 1109.95 799.843C1118.11 774.316 1119.56 747.33 1132.08 721.228C1132.88 719.557 1133.85 717.993 1134.62 716.308C1154.06 674.427 1147.44 626.046 1158.4 573.549C1161.67 557.831 1168.27 545.788 1176.43 536.371C1206.09 502.119 1207.73 489.894 1255.25 516.088C1302.32 542.066 1302.25 551.128 1351.73 556.777C1388.65 560.977 1387.88 517.886 1426.58 546.821C1497.66 599.988 1526.28 622.819 1561.1 655.763" stroke="#0D1B36" stroke-width="0.64" stroke-miterlimit="10"/>
<path d="M590.462 1089.77C590.462 1089.77 575.586 1036.73 580.462 1003.17C583.502 982.096 591.834 982.007 602.183 960.994C614.387 936.211 620.644 910.661 638.215 882.646C640.166 879.509 642.605 876.835 644.883 874.246C686.014 827.378 720.163 879.538 742.434 830.781C763.676 784.308 767.163 742.406 801.581 718.936C808.684 714.087 816.194 711.576 824.429 712.243C861.68 715.287 898.655 735.12 932.8 763.048C938.772 767.927 945.597 773.539 952.41 780.257C996.08 823.199 1029.02 862.036 1069.29 860.674C1103.82 859.502 1110.75 833.768 1122.21 797.836C1130.3 772.453 1131.84 745.456 1144.04 719.09C1144.82 717.406 1145.78 715.821 1146.52 714.124C1165.55 671.556 1159.02 623.002 1170.07 571.21C1173.41 555.49 1180.13 543.499 1188.5 534.193C1218.73 500.514 1220.95 488.961 1268.64 515.758C1315.92 542.302 1316.14 551.544 1365.57 556.663C1402.99 560.531 1401.8 516.491 1440.84 545.491C1511.12 597.69 1540.28 620.485 1574.46 653.384" stroke="#0D1B36" stroke-width="0.64" stroke-miterlimit="10"/>
<path d="M603.644 1085.08C603.644 1085.08 588.739 1032.72 593.065 998.726C595.753 977.549 603.622 976.365 613.554 955.199C625.327 930.1 631.604 904.351 649.434 876.956C651.451 873.866 653.926 871.227 656.242 868.671C698.411 822.393 733.208 875.505 756.101 828.263C777.847 783.372 781.577 741.162 815.398 718.014C822.425 713.218 829.822 710.726 837.994 711.416C875.023 714.57 911.744 733.923 945.428 761.139C951.339 765.921 958.124 771.428 964.918 778.033C1007.84 819.892 1040.74 858.241 1081.02 856.708C1115.45 855.405 1122.73 829.899 1134.16 793.954C1142.17 768.723 1143.83 741.728 1155.71 715.078C1156.47 713.373 1157.39 711.754 1158.12 710.064C1176.75 666.811 1170.3 618.105 1181.43 567.026C1184.85 551.324 1191.66 539.371 1200.25 530.17C1231.07 497.064 1233.83 486.212 1281.73 513.554C1329.24 540.685 1329.7 550.072 1379.08 554.683C1416.99 558.218 1415.38 513.239 1454.77 542.273C1524.25 593.484 1553.95 616.264 1587.5 649.139" stroke="#0D1B36" stroke-width="0.64" stroke-miterlimit="10"/>
<path d="M616.451 1078.33C616.451 1078.33 601.504 1026.69 605.285 992.202C607.622 970.918 615.04 968.61 624.549 947.341C635.912 921.917 642.181 895.956 660.265 869.232C662.34 866.168 664.86 863.583 667.241 861.075C710.448 815.386 745.894 869.451 769.401 823.701C791.672 780.386 795.603 737.884 828.861 715.021C835.783 710.265 843.109 707.776 851.197 708.498C888.025 711.751 924.463 730.613 957.715 757.129C963.586 761.807 970.31 767.217 977.051 773.747C1019.21 814.53 1052.07 852.412 1092.36 850.688C1126.7 849.225 1134.34 823.967 1145.72 788.037C1153.65 762.98 1155.39 735.953 1166.98 709.031C1167.72 707.313 1168.61 705.681 1169.33 703.971C1187.53 660.039 1181.19 611.173 1192.42 560.799C1195.91 545.094 1202.81 533.202 1211.61 524.092C1243.02 491.55 1246.31 481.386 1294.4 509.302C1342.13 536.999 1342.85 546.553 1392.18 550.676C1430.59 553.879 1428.56 507.959 1468.29 537.029C1536.97 587.272 1567.21 610.016 1600.12 642.846" stroke="#0D1B36" stroke-width="0.64" stroke-miterlimit="10"/>
<path d="M628.92 1069.37C628.92 1069.37 613.944 1018.4 617.175 983.477C619.152 962.066 626.116 958.684 635.207 937.261C646.13 911.501 652.435 885.382 670.771 859.258C672.903 856.22 675.46 853.67 677.886 851.216C722.132 806.116 758.206 861.142 782.347 816.878C805.122 775.145 809.296 732.335 841.957 709.795C848.795 705.07 856.017 702.621 864.042 703.367C900.646 706.728 936.81 725.118 969.642 750.907C975.445 755.467 982.138 760.793 988.847 767.239C1030.24 806.947 1063.08 844.333 1103.38 842.459C1137.62 840.845 1145.62 815.856 1156.97 779.892C1164.83 754.979 1166.68 727.963 1177.95 700.777C1178.66 699.046 1179.54 697.392 1180.22 695.648C1198 651.039 1191.76 601.991 1203.07 552.351C1206.64 536.664 1213.65 524.803 1222.66 515.805C1254.65 483.836 1258.49 474.373 1306.79 502.834C1354.73 531.097 1355.73 540.831 1404.99 544.432C1443.89 547.282 1441.46 500.456 1481.51 529.549C1549.37 578.831 1580.16 601.511 1612.45 634.337" stroke="#0D1B36" stroke-width="0.64" stroke-miterlimit="10"/>
<path d="M641.037 1058.02C641.037 1058.02 626.032 1007.73 628.713 972.369C630.338 950.851 636.839 946.374 645.513 924.799C656.005 898.723 662.338 872.425 680.904 846.908C683.094 843.897 685.717 841.393 688.159 838.982C733.451 794.492 770.144 850.457 794.928 807.699C818.207 767.549 822.624 724.432 854.701 702.184C861.443 697.52 868.572 695.082 876.526 695.831C912.929 699.293 948.811 717.191 981.21 742.281C986.974 746.736 993.605 751.965 1000.27 758.306C1040.89 796.917 1073.71 833.858 1114.03 831.784C1148.17 830.039 1156.54 805.269 1167.83 769.329C1175.61 744.569 1177.54 717.541 1188.52 690.084C1189.22 688.332 1190.06 686.645 1190.72 684.908C1208.08 639.621 1201.94 590.412 1213.34 541.486C1217 525.789 1224.08 513.996 1233.32 505.102C1265.89 473.705 1270.28 464.922 1318.77 493.957C1366.92 522.806 1368.17 532.666 1417.41 535.792C1456.83 538.281 1453.95 490.543 1494.38 519.664C1561.44 567.978 1592.75 590.63 1624.44 623.396" stroke="#0D1B36" stroke-width="0.64" stroke-miterlimit="10"/>
<path d="M654.437 1042.77C654.437 1042.77 639.424 993.166 641.526 957.35C642.791 935.706 648.829 930.134 657.094 908.425C667.146 882.013 673.528 855.528 692.333 830.641C694.581 827.655 697.248 825.206 699.748 822.821C746.086 778.941 783.399 835.846 808.818 794.574C832.58 756.014 837.248 712.61 868.741 690.656C875.398 686.023 882.444 683.617 890.294 684.405C926.474 687.976 962.102 705.394 994.061 729.765C999.763 734.123 1006.36 739.247 1012.99 745.504C1052.85 783.061 1085.64 819.485 1125.97 817.241C1160.02 815.336 1168.73 790.822 1179.99 754.869C1187.7 730.253 1189.74 703.236 1200.39 675.494C1201.06 673.728 1201.88 672.028 1202.53 670.271C1219.44 624.314 1213.43 574.937 1224.93 526.716C1228.67 511.036 1235.84 499.282 1245.28 490.48C1278.41 459.634 1283.35 451.553 1332.06 481.153C1380.43 510.569 1381.93 520.595 1431.12 523.213C1471.03 525.349 1467.74 476.712 1508.52 505.868C1574.77 553.244 1606.63 575.831 1637.68 608.572" stroke="#0D1B36" stroke-width="0.64" stroke-miterlimit="10"/>
<path d="M668.978 1025.42C668.978 1025.42 653.957 976.489 655.488 940.242C656.415 918.462 661.977 911.824 669.823 889.962C679.423 863.241 685.863 836.592 704.91 812.283C707.224 809.345 709.921 806.909 712.473 804.599C759.858 761.33 797.762 819.161 823.852 779.408C848.11 742.41 853.028 698.719 883.937 677.058C890.49 672.466 897.452 670.091 905.231 670.882C941.21 674.553 976.555 691.48 1008.08 715.151C1013.74 719.405 1020.28 724.432 1026.88 730.605C1065.97 767.086 1098.72 803.023 1139.07 800.6C1173.03 798.564 1182.1 774.298 1193.33 738.332C1200.96 713.89 1203.1 686.833 1213.45 658.847C1214.11 657.061 1214.9 655.348 1215.52 653.578C1232.01 606.943 1226.11 557.426 1237.68 509.898C1241.49 494.215 1248.77 482.492 1258.43 473.823C1292.15 443.521 1297.63 436.17 1346.53 466.344C1395.12 496.325 1396.87 506.498 1446.03 508.648C1486.41 510.41 1482.7 460.904 1523.84 490.067C1589.27 536.483 1621.69 559.025 1652.1 591.722" stroke="#0D1B36" stroke-width="0.64" stroke-miterlimit="10"/>
<path d="M683.671 1007.27C683.671 1007.27 668.642 959.011 669.603 922.333C670.169 900.426 675.247 892.701 682.705 870.699C691.866 843.641 698.363 816.826 717.62 793.133C719.991 790.221 722.732 787.84 725.343 785.556C773.773 742.897 812.289 801.647 839.022 763.4C863.763 727.993 868.946 683.986 899.279 662.64C905.727 658.087 912.626 655.736 920.32 656.559C956.077 660.338 991.161 676.764 1022.25 699.736C1027.85 703.872 1034.35 708.816 1040.91 714.884C1079.24 750.29 1111.97 785.751 1152.33 783.137C1186.2 780.942 1195.63 756.923 1206.81 720.973C1214.38 696.676 1216.6 669.637 1226.64 641.359C1227.28 639.56 1228.06 637.825 1228.65 636.042C1244.69 588.737 1238.95 539.044 1250.59 492.229C1254.48 476.565 1261.85 464.881 1271.71 456.302C1306 426.552 1312.06 419.894 1361.15 450.642C1409.96 481.21 1411.94 491.508 1461.06 493.171C1501.95 494.55 1497.82 444.175 1539.29 473.352C1603.91 518.829 1636.88 541.307 1666.66 573.979" stroke="#0D1B36" stroke-width="0.64" stroke-miterlimit="10"/>
<path d="M698.401 988.457C698.401 988.457 683.363 940.872 683.746 903.742C683.973 881.699 688.576 872.908 695.616 850.753C704.324 823.387 710.878 796.407 730.378 773.293C732.808 770.407 735.594 768.08 738.241 765.831C787.726 723.803 826.833 783.48 854.229 746.731C879.445 712.894 884.899 668.592 914.627 647.547C921 643.046 927.786 640.714 935.41 641.54C970.965 645.42 1005.79 661.346 1036.43 683.627C1041.98 687.658 1048.43 692.526 1054.95 698.489C1092.49 732.827 1125.23 767.806 1165.6 765.021C1199.37 762.695 1209.15 738.904 1220.3 702.941C1227.79 678.796 1230.12 651.738 1239.84 623.196C1240.45 621.384 1241.2 619.637 1241.79 617.832C1257.36 569.865 1251.76 519.996 1263.49 473.894C1267.48 458.24 1274.9 446.582 1285 438.129C1319.87 408.901 1326.48 402.994 1375.78 434.287C1424.8 465.421 1427.01 475.873 1476.12 477.061C1517.49 478.066 1512.93 426.822 1554.77 456.005C1618.57 500.522 1652.1 522.956 1681.24 555.584" stroke="#0D1B36" stroke-width="0.64" stroke-miterlimit="10"/>
<path d="M713.135 969.21C713.135 969.21 698.089 922.299 697.901 884.739C697.79 862.561 701.895 852.712 708.546 830.416C716.795 802.722 723.435 775.589 743.144 753.09C745.64 750.251 748.462 747.959 751.146 745.743C801.685 704.347 841.367 764.908 869.435 729.678C895.126 697.411 900.831 652.823 930.004 632.083C936.272 627.623 942.995 625.314 950.527 626.151C985.859 630.139 1020.42 645.565 1050.63 667.147C1056.14 671.074 1062.53 675.844 1069.02 681.724C1105.79 714.987 1138.49 749.478 1178.86 746.522C1212.54 744.044 1222.7 720.514 1233.8 684.546C1241.2 660.553 1243.63 633.506 1253.05 604.671C1253.65 602.838 1254.37 601.057 1254.93 599.239C1270.05 550.602 1264.6 500.557 1276.38 455.155C1280.44 439.498 1287.98 427.892 1298.27 419.559C1333.73 390.875 1340.87 385.677 1390.36 417.544C1439.6 449.244 1442.05 459.821 1491.14 460.534C1532.99 461.144 1528.01 409.051 1570.21 438.241C1633.18 481.827 1667.27 504.167 1695.81 536.784" stroke="#0D1B36" stroke-width="0.64" stroke-miterlimit="10"/>
<path d="M727.742 949.629C727.742 949.629 712.709 903.384 711.929 865.4C711.458 843.095 715.08 832.159 721.342 809.723C729.13 781.7 735.843 754.443 755.788 732.503C758.341 729.69 761.222 727.424 763.958 725.284C815.56 684.539 855.816 745.985 884.527 712.262C910.685 681.543 916.67 636.681 945.238 616.243C951.422 611.814 958.041 609.546 965.489 610.414C1000.62 614.503 1034.91 629.457 1064.67 650.32C1070.13 654.149 1076.45 658.823 1082.94 664.611C1118.92 696.827 1151.63 730.814 1192 727.667C1225.57 725.058 1236.08 701.755 1247.16 665.774C1254.49 641.926 1257.01 614.867 1266.13 585.79C1266.7 583.944 1267.41 582.142 1267.94 580.311C1282.61 530.983 1277.32 480.803 1289.17 436.094C1293.31 420.455 1300.93 408.867 1311.45 400.638C1347.47 372.485 1355.12 368.124 1404.85 400.449C1454.25 432.831 1456.98 443.446 1506.07 443.685C1548.4 443.892 1542.99 390.958 1585.55 420.155C1647.71 462.802 1682.35 485.077 1710.25 517.648" stroke="#0D1B36" stroke-width="0.64" stroke-miterlimit="10"/>
<path d="M742.138 929.935C742.138 929.935 727.111 884.335 725.739 845.929C724.929 823.489 728.053 811.494 733.919 788.897C741.255 760.566 748.054 733.157 768.192 711.79C770.811 709.024 773.729 706.792 776.502 704.686C829.165 664.594 869.989 726.904 899.38 694.72C926.013 665.571 932.278 620.436 960.262 600.291C966.348 595.922 972.875 593.665 980.253 594.536C1015.16 598.733 1049.21 613.179 1078.51 633.33C1083.93 637.054 1090.19 641.631 1096.61 647.323C1131.81 678.471 1164.5 711.962 1204.89 708.637C1238.39 705.889 1249.25 682.813 1260.29 646.848C1267.54 623.173 1270.18 596.096 1278.97 566.734C1279.53 564.866 1280.19 563.059 1280.71 561.208C1294.91 511.218 1289.81 460.875 1301.7 416.866C1305.94 401.237 1313.64 389.667 1324.38 381.571C1360.98 353.94 1369.17 350.31 1419.13 383.222C1468.77 416.162 1471.69 426.918 1520.76 426.681C1563.57 426.472 1557.75 372.732 1600.67 401.935C1662 443.651 1697.19 465.862 1724.48 498.401" stroke="#0D1B36" stroke-width="0.64" stroke-miterlimit="10"/>
<path d="M756.26 910.274C756.26 910.274 741.245 865.34 739.281 826.511C738.132 803.936 740.781 790.875 746.229 768.125C753.105 739.464 759.977 711.932 780.351 691.123C783.027 688.383 785.99 686.206 788.8 684.134C842.504 644.702 883.916 707.867 913.978 677.203C941.057 649.611 947.602 604.201 975.023 584.342C981.026 580.005 987.469 577.779 994.762 578.683C1029.48 583.001 1063.23 596.934 1092.1 616.385C1097.45 619.992 1103.68 624.485 1110.08 630.093C1144.49 660.194 1177.18 693.182 1217.58 689.687C1250.98 686.787 1262.2 663.98 1273.2 627.98C1280.39 604.45 1283.12 577.362 1291.59 547.736C1292.13 545.856 1292.77 544.007 1293.27 542.163C1307.01 491.511 1302.05 440.992 1314.04 397.688C1318.36 382.077 1326.14 370.526 1337.08 362.542C1374.27 335.434 1383 332.533 1433.17 366.011C1483.02 399.517 1486.17 410.406 1535.23 409.695C1578.5 409.09 1572.28 354.522 1615.55 383.712C1676.06 424.517 1711.81 446.634 1738.46 479.129" stroke="#0D1B36" stroke-width="0.64" stroke-miterlimit="10"/>
<path d="M770.007 890.826C770.007 890.826 754.997 846.538 752.449 807.307C750.982 784.588 753.092 770.485 758.165 747.566C764.567 718.605 771.525 690.92 792.135 670.67C794.877 667.977 797.876 665.833 800.744 663.788C855.511 625.007 897.461 689.024 928.231 659.913C955.769 633.848 962.594 588.165 989.426 568.648C995.324 564.352 1001.68 562.157 1008.91 563.064C1043.4 567.49 1076.89 580.923 1105.34 599.697C1110.65 603.199 1116.82 607.595 1123.18 613.119C1156.79 642.161 1189.47 674.645 1229.91 670.97C1263.2 667.94 1274.8 645.352 1285.75 609.369C1292.86 585.991 1295.68 558.913 1303.86 528.994C1304.38 527.093 1304.97 525.239 1305.46 523.353C1318.71 472.047 1313.97 421.348 1325.99 378.753C1330.4 363.131 1338.25 351.648 1349.43 343.768C1387.2 317.182 1396.48 315.033 1446.84 349.064C1496.9 383.135 1500.26 394.136 1549.34 392.985C1593.1 391.956 1586.43 336.577 1630.09 365.764C1689.76 405.639 1726.08 427.683 1752.1 460.154" stroke="#0D1B36" stroke-width="0.64" stroke-miterlimit="10"/>
<path d="M783.293 871.744C783.293 871.744 768.317 828.115 765.149 788.448C763.335 765.573 764.948 750.412 769.64 727.373C775.582 698.084 782.642 670.288 803.437 650.591C806.245 647.944 809.273 645.814 812.194 643.844C868.002 605.724 910.532 670.575 941.982 643.005C969.958 618.476 977.078 572.561 1003.34 553.308C1009.15 549.044 1015.41 546.889 1022.57 547.819C1056.84 552.354 1090.09 565.279 1118.08 583.361C1123.35 586.759 1129.45 591.087 1135.78 596.477C1168.61 624.472 1201.3 656.453 1241.73 652.587C1274.94 649.397 1286.88 627.064 1297.81 591.089C1304.86 567.877 1307.77 540.767 1315.63 510.605C1316.13 508.691 1316.71 506.816 1317.17 504.918C1329.95 452.949 1325.39 402.087 1337.46 360.192C1341.95 344.589 1349.9 333.115 1361.3 325.368C1399.66 299.277 1409.49 297.878 1460.04 332.483C1510.32 367.12 1513.89 378.254 1562.97 376.628C1607.18 375.162 1600.1 319.026 1644.13 348.17C1702.97 387.135 1739.86 409.085 1765.24 441.511" stroke="#0D1B36" stroke-width="0.64" stroke-miterlimit="10"/>
<path d="M796.028 853.232C796.028 853.232 781.057 810.248 777.305 770.178C775.144 747.147 776.269 730.949 780.564 707.749C786.033 678.16 793.186 650.233 814.209 631.072C817.083 628.473 820.147 626.377 823.105 624.441C879.962 587.002 923.035 652.654 955.201 626.657C983.637 603.656 991.037 557.467 1016.71 538.558C1022.42 534.333 1028.6 532.181 1035.66 533.151C1069.72 537.786 1102.69 550.198 1130.23 567.589C1135.43 570.869 1141.49 575.113 1147.79 580.419C1179.82 607.376 1212.51 638.853 1252.94 634.795C1286.05 631.475 1298.37 609.382 1309.22 573.389C1316.18 550.329 1319.21 523.222 1326.76 492.775C1327.22 490.848 1327.8 488.952 1328.25 487.032C1340.54 434.389 1336.18 383.377 1348.33 342.174C1352.91 326.58 1360.92 315.133 1372.53 307.498C1411.47 281.929 1421.84 281.261 1472.59 316.439C1523.08 351.642 1526.84 362.897 1575.94 360.829C1620.62 358.948 1613.12 302.013 1657.52 331.135C1715.53 369.169 1752.99 391.025 1777.76 423.44" stroke="#0D1B36" stroke-width="0.64" stroke-miterlimit="10"/>
<path d="M808.11 835.398C808.11 835.398 793.164 793.051 788.807 752.588C786.308 729.422 786.935 712.166 790.834 688.804C795.821 658.894 803.064 630.885 824.314 612.262C827.246 609.688 830.355 607.647 833.371 605.737C891.277 568.979 934.914 635.424 967.768 610.989C996.634 589.503 1004.36 543.095 1029.44 524.458C1035.07 520.285 1041.14 518.153 1048.13 519.146C1081.99 523.91 1114.7 535.793 1141.79 552.494C1146.95 555.669 1152.95 559.816 1159.22 565.038C1190.45 590.956 1223.16 621.921 1263.59 617.673C1296.61 614.221 1309.27 592.356 1320.1 556.37C1327 533.455 1330.12 506.337 1337.35 475.626C1337.81 473.678 1338.33 471.756 1338.75 469.844C1350.55 416.547 1346.4 365.363 1358.59 324.861C1363.28 309.278 1371.36 297.848 1383.19 290.346C1422.73 265.271 1433.63 265.383 1484.58 301.106C1535.29 336.875 1539.25 348.27 1588.36 345.72C1633.52 343.394 1625.56 285.718 1670.38 314.802C1727.57 351.926 1765.59 373.688 1789.72 406.058" stroke="#0D1B36" stroke-width="0.64" stroke-miterlimit="10"/>
<path d="M819.455 818.467C819.455 818.467 804.535 776.757 799.573 735.9C796.748 712.57 796.844 694.292 800.367 670.762C804.882 640.551 812.218 612.411 833.696 594.324C836.693 591.798 839.861 589.783 842.892 587.915C901.847 551.838 946.04 619.055 979.59 596.202C1008.91 576.222 1016.9 529.57 1041.41 511.268C1046.94 507.135 1052.95 505.026 1059.85 506.03C1093.5 510.895 1125.95 522.278 1152.58 538.287C1157.7 541.357 1163.64 545.437 1169.89 550.546C1200.31 575.426 1233.01 605.866 1273.48 601.46C1306.39 597.856 1319.52 576.27 1330.22 540.24C1337.09 517.503 1340.3 490.375 1347.17 459.366C1347.6 457.405 1348.11 455.462 1348.51 453.538C1359.82 399.586 1355.87 348.231 1368.13 308.421C1372.93 292.869 1381.08 281.437 1393.11 274.076C1433.24 249.494 1444.69 250.357 1495.82 286.683C1546.78 323.031 1550.9 334.533 1600.05 331.534C1645.66 328.75 1637.28 270.325 1682.49 299.379C1738.86 335.593 1777.44 357.261 1800.94 389.607" stroke="#0D1B36" stroke-width="0.64" stroke-miterlimit="10"/>
<path d="M830.019 802.574C830.019 802.574 815.125 761.502 809.551 720.23C806.379 696.744 805.986 677.429 809.112 653.737C813.145 623.206 820.592 594.976 842.289 577.405C845.331 574.934 848.535 572.953 851.632 571.132C911.615 535.744 956.386 603.725 990.639 582.474C1020.41 564.002 1028.69 517.117 1052.62 499.109C1058.07 495.008 1063.97 492.939 1070.81 493.967C1104.24 498.94 1136.45 509.814 1162.63 525.133C1167.68 528.085 1173.58 532.081 1179.79 537.086C1209.42 560.947 1242.14 590.855 1282.61 586.257C1315.44 582.515 1328.9 561.164 1339.57 525.142C1346.36 502.557 1349.69 475.431 1356.25 444.158C1356.67 442.176 1357.13 440.228 1357.53 438.254C1368.36 383.648 1364.63 332.135 1376.91 293.012C1381.79 277.478 1390.02 266.064 1402.28 258.807C1443.01 234.741 1454.98 236.341 1506.33 273.233C1557.5 310.147 1561.81 321.769 1610.97 318.309C1657.05 315.087 1648.24 255.934 1693.84 284.916C1749.37 320.249 1788.52 341.795 1811.38 374.095" stroke="#0D1B36" stroke-width="0.64" stroke-miterlimit="10"/>
<path d="M839.661 787.918C839.661 787.918 824.785 747.463 818.614 705.817C815.116 682.167 814.193 661.831 816.943 637.97C820.503 607.138 828.03 578.806 849.947 561.751C853.055 559.327 856.317 557.372 859.451 555.585C920.491 520.899 965.81 589.631 1000.76 569.963C1030.97 552.976 1039.56 505.881 1062.89 488.194C1068.23 484.133 1074.05 482.095 1080.8 483.134C1114 488.216 1145.97 498.561 1171.7 513.21C1176.71 516.057 1182.54 519.985 1188.73 524.877C1217.56 547.7 1250.28 577.104 1290.76 572.307C1323.5 568.434 1337.31 547.309 1347.96 511.275C1354.67 488.835 1358.1 461.697 1364.34 430.161C1364.74 428.166 1365.19 426.197 1365.56 424.21C1375.88 368.957 1372.37 317.265 1384.7 278.822C1389.67 263.298 1397.98 251.902 1410.44 244.786C1451.76 221.192 1464.26 223.573 1515.8 261.039C1567.18 298.518 1571.67 310.24 1620.88 306.359C1667.4 302.679 1658.17 242.799 1704.16 271.73C1758.86 306.152 1798.56 327.612 1820.81 359.881" stroke="#0D1B36" stroke-width="0.64" stroke-miterlimit="10"/>
<path d="M848.308 774.622C848.308 774.622 833.458 734.804 826.683 692.764C822.838 668.958 821.405 647.593 823.787 623.583C826.853 592.459 834.49 564.038 856.639 547.47C859.813 545.093 863.112 543.172 866.283 541.419C928.351 507.422 974.252 576.868 1009.9 558.852C1040.57 543.344 1049.43 496.053 1072.19 478.652C1077.46 474.644 1083.19 472.617 1089.85 473.688C1122.84 478.898 1154.53 488.723 1179.84 502.672C1184.81 505.415 1190.55 509.254 1196.73 514.054C1224.75 535.867 1257.5 564.731 1297.99 559.742C1330.63 555.738 1344.78 534.841 1355.41 498.814C1362.04 476.526 1365.56 449.378 1371.51 417.57C1371.89 415.554 1372.32 413.572 1372.66 411.572C1382.49 355.665 1379.21 303.815 1391.58 266.051C1396.65 250.537 1405.04 239.138 1417.71 232.155C1459.62 209.055 1472.68 212.208 1524.41 250.227C1576.01 288.272 1580.66 300.121 1629.9 295.771C1676.87 291.633 1667.22 231.054 1713.6 259.905C1767.47 293.446 1807.75 314.783 1829.37 346.999" stroke="#0D1B36" stroke-width="0.64" stroke-miterlimit="10"/>
<path d="M855.899 762.901C855.899 762.901 841.095 723.712 833.686 681.265C829.515 657.294 827.551 634.908 829.558 610.73C832.143 579.285 839.848 550.789 862.238 534.73C865.477 532.4 868.805 530.491 872.02 528.793C935.125 495.506 981.608 565.667 1017.94 549.262C1049.05 535.219 1058.21 487.738 1080.4 470.651C1085.56 466.682 1091.21 464.687 1097.8 465.761C1130.59 471.072 1162.03 480.367 1186.87 493.655C1191.77 496.28 1197.49 500.056 1203.63 504.73C1230.85 525.525 1263.59 553.864 1304.09 548.705C1336.65 544.562 1351.16 523.913 1361.73 487.86C1368.3 465.717 1371.92 438.579 1377.55 406.507C1377.91 404.478 1378.29 402.462 1378.64 400.462C1387.96 343.909 1384.9 291.88 1397.31 254.816C1402.5 239.333 1410.93 227.94 1423.84 221.082C1466.35 198.475 1479.94 202.387 1531.86 240.98C1583.69 279.583 1588.51 291.539 1637.8 286.761C1685.21 282.145 1675.13 220.887 1721.93 249.679C1774.97 282.31 1815.8 303.532 1836.81 335.745" stroke="#0D1B36" stroke-width="0.64" stroke-miterlimit="10"/>
<path d="M862.296 752.902C862.296 752.902 847.511 714.329 839.505 671.51C834.987 647.383 832.542 623.98 834.144 599.619C836.235 567.883 844.05 539.297 866.672 523.725C869.977 521.442 873.342 519.568 876.623 517.917C940.764 485.34 987.821 556.193 1024.85 541.442C1056.44 528.847 1065.85 481.2 1087.46 464.407C1092.51 460.478 1098.07 458.514 1104.59 459.591C1137.17 465.031 1168.36 473.776 1192.75 486.394C1197.61 488.914 1203.25 492.601 1209.35 497.192C1235.76 516.977 1268.54 544.776 1309.03 539.425C1341.49 535.13 1356.36 514.729 1366.91 478.684C1373.39 456.694 1377.1 429.545 1382.43 397.201C1382.76 395.159 1383.14 393.122 1383.45 391.088C1392.27 333.91 1389.45 281.694 1401.91 245.309C1407.21 229.828 1415.7 218.461 1428.81 211.744C1471.94 189.623 1486.03 194.301 1538.17 233.46C1590.21 272.629 1595.2 284.714 1644.53 279.466C1692.38 274.37 1681.88 212.435 1729.07 241.146C1781.28 272.896 1822.69 293.996 1843.05 326.164" stroke="#0D1B36" stroke-width="0.64" stroke-miterlimit="10"/>
<path d="M867.465 744.783C867.465 744.783 852.718 706.819 844.094 663.634C839.243 639.322 836.275 614.919 837.501 590.389C839.098 558.36 847.01 529.715 869.856 514.608C873.235 512.393 876.629 510.532 879.947 508.915C945.123 477.048 992.776 548.586 1030.47 535.475C1062.54 524.329 1072.18 476.475 1093.25 460.029C1098.22 456.132 1103.69 454.229 1110.14 455.309C1142.48 460.907 1173.43 469.074 1197.37 481.021C1202.19 483.415 1207.76 487.055 1213.84 491.533C1239.44 510.309 1272.23 537.625 1312.75 532.025C1345.12 527.641 1360.35 507.417 1370.86 471.388C1377.26 449.571 1381.07 422.382 1386.09 389.775C1386.41 387.712 1386.74 385.669 1387.04 383.614C1395.35 325.79 1392.78 273.408 1405.26 237.71C1410.67 222.261 1419.23 210.89 1432.55 204.286C1476.26 182.638 1490.89 188.096 1543.23 227.849C1595.49 267.585 1600.64 279.776 1650.02 274.1C1698.32 268.547 1687.37 205.941 1734.98 234.544C1786.35 265.412 1828.34 286.39 1848.07 318.533" stroke="#0D1B36" stroke-width="0.64" stroke-miterlimit="10"/>
<path d="M871.277 738.712C871.277 738.712 856.569 701.357 847.34 657.778C842.163 633.302 838.664 607.878 839.515 583.179C840.638 550.85 848.618 522.13 871.718 507.503C875.163 505.335 878.593 503.508 881.969 501.916C948.19 470.78 996.422 542.962 1034.8 531.512C1067.33 521.794 1077.25 473.786 1097.72 457.642C1102.58 453.784 1107.98 451.906 1114.32 453.004C1146.44 458.711 1177.14 466.348 1200.64 477.626C1205.42 479.915 1210.92 483.487 1216.97 487.831C1241.74 505.626 1274.57 532.351 1315.1 526.602C1347.38 522.087 1362.96 502.091 1373.43 466.048C1379.77 444.376 1383.66 417.205 1388.38 384.305C1388.67 382.229 1388.99 380.166 1389.26 378.098C1397.07 319.627 1394.73 267.087 1407.25 232.068C1412.76 216.629 1421.39 205.256 1434.93 198.805C1479.26 177.643 1494.43 183.881 1546.95 224.187C1599.43 264.51 1604.71 276.795 1654.16 270.663C1702.9 264.609 1691.52 201.376 1739.54 229.869C1790.09 259.848 1832.63 280.711 1851.72 312.81" stroke="#0D1B36" stroke-width="0.64" stroke-miterlimit="10"/>
<path d="M873.682 734.876C873.682 734.876 858.992 698.137 849.167 654.186C843.656 629.524 839.642 603.121 840.109 578.231C840.738 545.61 848.786 516.817 872.168 502.682C875.658 500.569 879.146 498.768 882.559 497.211C949.794 466.792 998.664 539.644 1037.69 529.862C1070.73 521.586 1080.9 473.412 1100.79 457.581C1105.57 453.756 1110.86 451.896 1117.14 453.039C1149.06 458.846 1179.49 465.962 1202.54 476.57C1207.25 478.741 1212.7 482.258 1218.74 486.49C1242.7 503.275 1275.55 529.439 1316.09 523.518C1348.28 518.844 1364.21 499.124 1374.65 463.069C1380.9 441.549 1384.91 414.36 1389.32 381.217C1389.6 379.119 1389.87 377.03 1390.14 374.962C1397.42 315.875 1395.35 263.16 1407.9 228.8C1413.52 213.392 1422.22 202.016 1435.96 195.706C1480.91 175.03 1496.58 182.035 1549.32 222.907C1602.03 263.787 1607.43 276.195 1656.98 269.619C1706.13 263.094 1694.32 199.212 1742.77 227.588C1792.5 256.708 1835.61 277.427 1854.09 309.493" stroke="#0D1B36" stroke-width="0.64" stroke-miterlimit="10"/>
<path d="M874.582 733.457C874.582 733.457 797.338 542.978 871.084 500.265C944.83 457.552 997.387 539.121 1039.06 530.615C1080.73 522.11 1086.69 449.548 1118.41 455.455C1150.11 461.371 1180.32 467.95 1202.9 477.896C1225.49 487.841 1264.43 530.514 1315.54 522.817C1366.65 515.121 1377.65 470.276 1388.7 380.468C1399.75 290.661 1389.85 215.145 1435.43 194.926C1481 174.707 1497.16 182.507 1550.1 223.953C1603.03 265.399 1608.59 277.914 1658.18 270.89C1707.77 263.865 1695.53 199.376 1744.42 227.635C1793.31 255.894 1836.99 276.47 1854.83 308.491" stroke="#0D1B36" stroke-width="0.64" stroke-miterlimit="10"/>
</g>
</g>
<defs>
<clipPath id="clip0_106_5141">
<rect width="1582.55" height="697.588" fill="white" transform="translate(0 560.822) rotate(-20.7554)"/>
</clipPath>
</defs>
</svg>
