<svg width="754" height="665" viewBox="0 0 754 665" fill="none" xmlns="http://www.w3.org/2000/svg">
<g clip-path="url(#clip0_106_5053)">
<mask id="mask0_106_5053" style="mask-type:luminance" maskUnits="userSpaceOnUse" x="45" y="-3" width="842" height="547">
<path d="M55.4624 437.487C86.0908 518.307 176.437 558.995 257.268 528.362C266.162 524.992 274.587 520.893 282.458 516.167C306.524 541.387 344.239 551.196 378.888 538.065C410.224 526.19 430.98 498.6 435.645 467.666C473.745 480.774 516.476 481.146 557.102 465.75C567.423 461.839 577.162 457.077 586.278 451.578C617.744 467.063 655.318 469.98 690.698 456.571C754.547 432.374 788.494 363.716 770.695 299.185C775.218 298.226 779.718 296.918 784.171 295.231C831.121 277.438 854.763 224.941 836.97 177.991C836.042 175.542 834.996 173.18 833.899 170.864C876.458 150.865 897.118 101.146 880.171 56.4272C862.377 9.4765 809.881 -14.1656 762.93 3.62737C715.98 21.4204 692.338 73.917 710.131 120.868C711.059 123.316 712.093 125.683 713.202 127.994C682.749 142.308 663.533 171.825 661.261 203.857C655.841 203.138 650.347 202.763 644.821 202.743C600.331 132.393 511.162 100.606 430.331 131.239C366.554 155.408 324.649 212.122 316.333 275.323C274.283 230.208 207.581 212.471 146.348 235.676C65.5171 266.309 24.8294 356.656 55.4624 437.487Z" fill="white"/>
</mask>
<g mask="url(#mask0_106_5053)">
<path d="M-23.9742 838.644C-23.9742 838.644 -27.4123 788.683 -11.7581 781.748C3.89152 774.802 18.5515 805.481 38.7362 799.383C58.9328 793.28 68.3121 786.266 63.5095 742.628C58.7234 698.997 53.3064 698.538 48.1574 623.6C43.0085 548.661 39.2532 533.175 77.132 510.639C115.015 488.116 157.091 526.633 204.175 585.83C251.256 645.014 272.566 681.326 295.26 685.545C317.96 689.776 311.017 667.111 318.574 646.596C326.131 626.082 323.241 610.199 343.43 604.112C363.627 598.009 363.161 578.201 364.073 526.317C364.984 474.433 341.749 436.119 367.54 433.262C393.327 430.393 378.952 416.763 439.835 481.258C500.722 545.765 504.96 555.318 543.964 575.193" stroke="#0D1B36" stroke-width="0.64" stroke-miterlimit="10"/>
<path d="M-24.1368 836.839C-24.1368 836.839 -27.6641 787.186 -12.2449 780.066C3.13834 772.96 17.6073 803.135 37.5437 796.925C56.1219 791.078 65.396 784.475 63.0151 748.676C62.8392 746.039 62.6087 743.257 62.31 740.296C58.0613 696.997 53.0803 697.073 48.2799 623.018C43.439 548.965 39.8034 533.323 77.3523 510.967C84.2061 506.888 91.1901 504.817 98.344 504.536C126.108 503.443 155.991 528.875 188.262 566.729C193.324 572.662 198.452 578.912 203.646 585.412C250.299 643.977 271.586 680.009 294.289 684.143C316.928 688.286 310.191 665.764 317.735 645.253C324.779 626.1 322.734 610.926 338.942 603.933C340.004 603.475 341.161 603.051 342.388 602.668C362.404 596.304 361.909 576.274 362.894 524.801C363.097 515.665 362.574 506.969 361.749 498.855C357.743 460.94 345.973 434.916 367.342 432.884C387.696 430.963 383.041 422.556 409.816 449.276C417.296 456.735 426.832 466.325 440.133 480.308C500.763 544.062 505.109 553.793 543.747 573.642" stroke="#0D1B36" stroke-width="0.64" stroke-miterlimit="10"/>
<path d="M-24.0098 833.552C-24.0098 833.552 -27.6261 784.207 -12.4493 776.918C2.67199 769.664 16.9801 799.379 36.6335 793.001C54.9921 787.046 64.1048 780.271 62.006 744.817C61.8512 742.2 61.6538 739.433 61.3973 736.511C57.5809 693.555 53.1365 694.142 48.6847 620.97C44.1398 547.807 40.6358 532.006 77.8383 509.823C84.6321 505.766 91.5801 503.709 98.6695 503.438C126.306 502.407 156.044 527.565 188.063 565.007C193.09 570.884 198.195 577.075 203.355 583.519C249.592 641.459 270.844 677.216 293.551 681.252C316.142 685.304 309.613 662.935 317.125 642.41C324.119 623.344 322.127 608.164 338.166 601.015C339.224 600.546 340.352 600.118 341.575 599.723C361.416 593.082 360.747 572.844 361.955 521.78C362.175 512.652 361.77 503.98 361.038 495.926C357.553 458.335 345.916 432.701 367.384 431.002C387.861 429.405 383.067 421.463 410.099 447.522C417.775 454.92 427.198 463.812 440.655 477.845C501.007 540.867 505.482 550.756 543.758 570.591" stroke="#0D1B36" stroke-width="0.64" stroke-miterlimit="10"/>
<path d="M-23.61 828.885C-23.61 828.885 -27.3199 779.836 -12.381 772.39C2.46181 764.981 16.6 794.211 35.9961 787.698C54.1424 781.617 63.0818 774.674 61.2816 739.574C61.1479 736.976 60.9761 734.241 60.7527 731.333C57.4167 688.704 53.4654 689.831 49.3576 617.531C45.1207 545.253 41.7409 529.308 78.6091 507.293C85.3548 503.254 92.2428 501.22 99.2962 500.963C126.817 499.99 156.381 524.87 188.164 561.907C193.169 567.724 198.239 573.86 203.381 580.256C249.187 637.563 270.407 673.058 293.119 676.996C315.649 680.962 309.325 658.735 316.813 638.219C323.769 619.235 321.83 604.049 337.693 596.761C338.734 596.284 339.862 595.856 341.059 595.43C360.728 588.512 359.952 568.067 361.303 517.416C361.551 508.29 361.253 499.646 360.596 491.646C357.563 454.379 346.121 429.15 367.707 427.764C388.307 426.49 383.381 418.996 410.663 444.412C418.536 451.75 427.857 459.939 441.464 474.039C501.55 536.324 506.141 546.374 544.062 566.18" stroke="#0D1B36" stroke-width="0.64" stroke-miterlimit="10"/>
<path d="M-22.9217 822.914C-22.9217 822.914 -26.7326 774.178 -12.0287 766.547C2.55223 758.99 16.5039 787.728 35.6472 781.091C53.5647 774.877 62.3399 767.791 60.8504 733.04C60.7378 730.461 60.5991 727.741 60.4013 724.865C57.5502 682.573 54.0874 684.228 50.3282 612.812C46.3994 541.419 43.1392 525.32 79.6729 503.472C86.3753 499.464 93.2107 497.436 100.211 497.185C127.605 496.274 157.019 520.868 188.555 557.505C193.52 563.254 198.584 569.337 203.695 575.69C249.2 632.274 270.271 667.592 292.987 671.433C315.456 675.311 309.338 653.226 316.809 632.703C323.716 613.807 321.834 598.626 337.524 591.17C338.56 590.681 339.685 590.282 340.852 589.813C360.11 581.993 359.477 561.96 360.967 511.71C361.243 502.588 361.04 493.976 360.487 486.033C357.909 449.1 346.654 424.254 368.351 423.196C389.074 422.247 384.032 415.209 411.564 439.98C419.646 447.253 428.837 454.736 442.604 468.899C502.397 530.445 507.128 540.648 544.691 560.451" stroke="#0D1B36" stroke-width="0.64" stroke-miterlimit="10"/>
<path d="M-21.9404 815.762C-21.9404 815.762 -25.8524 767.339 -11.3789 759.534C2.92814 751.834 16.7173 780.07 35.5913 773.302C53.292 766.951 61.9103 759.704 60.6956 725.316C60.604 722.756 60.4985 720.051 60.3383 717.202C57.9721 675.248 54.9979 677.432 51.5827 606.888C47.9544 536.397 44.8139 520.142 81.0252 498.458C87.6675 494.472 94.4549 492.462 101.42 492.225C128.698 491.371 157.955 515.695 189.238 551.92C194.181 557.61 199.217 563.62 204.299 569.93C249.419 625.863 270.433 660.887 293.148 664.687C315.579 668.429 309.655 646.531 317.102 626.017C323.96 607.208 322.142 592.017 337.652 584.41C338.671 583.914 339.797 583.515 340.942 583.026C359.948 574.793 359.288 554.689 360.92 504.851C361.225 495.732 361.117 487.153 360.655 479.271C358.534 442.673 347.477 418.205 369.285 417.476C390.142 416.846 384.992 410.247 412.739 434.388C421.017 441.6 430.106 448.38 444.018 462.598C503.538 523.424 508.393 533.772 545.589 553.55" stroke="#0D1B36" stroke-width="0.64" stroke-miterlimit="10"/>
<path d="M-20.6694 807.525C-20.6694 807.525 -24.687 759.403 -10.4395 751.437C3.58915 743.581 17.3705 771.725 35.825 764.429C53.1605 757.585 61.7585 750.538 60.8424 716.503C60.7719 713.964 60.692 711.29 60.5696 708.468C58.6882 666.852 56.1905 669.569 53.1359 599.903C49.8157 530.297 46.7947 513.887 82.6597 492.376C89.242 488.413 95.9934 486.417 102.906 486.185C130.052 485.382 159.152 509.436 190.199 545.256C195.107 550.89 200.125 556.853 205.184 563.102C249.909 618.39 270.863 653.148 293.586 656.862C315.97 660.513 310.243 638.773 317.673 618.252C324.494 599.526 322.717 584.333 338.057 576.57C339.06 576.066 340.186 575.667 341.31 575.159C360.071 566.498 359.393 546.345 361.151 496.913C361.472 487.801 361.466 479.238 361.109 471.413C359.432 435.155 348.572 411.024 370.496 410.675C391.475 410.329 386.247 404.212 414.196 427.728C422.694 434.87 431.641 440.95 445.714 455.23C504.932 515.333 509.927 525.834 546.774 545.593" stroke="#0D1B36" stroke-width="0.64" stroke-miterlimit="10"/>
<path d="M-19.114 798.303C-19.114 798.303 -23.2326 750.493 -9.21551 742.354C4.53922 734.355 18.1808 762.057 36.3433 754.57C53.4392 747.528 61.8957 740.398 61.2617 706.709C61.2124 704.189 61.1656 701.53 61.0807 698.735C59.6797 657.444 57.8327 660.684 54.9645 591.908C52.1025 523.185 49.039 506.627 84.5741 485.295C91.113 481.362 97.7998 479.377 104.676 479.16C131.707 478.414 160.65 502.198 191.444 537.605C196.329 543.18 201.325 549.082 206.354 555.288C250.678 609.918 271.582 644.434 294.31 648.051C316.628 651.603 311.11 630.017 318.524 609.488C325.3 590.861 323.588 575.658 338.747 567.744C339.746 567.228 340.824 566.778 341.958 566.294C360.956 558.257 359.773 536.991 361.674 487.971C362.024 478.862 362.113 470.333 361.859 462.564C360.634 426.629 349.976 402.887 372.012 402.868C393.113 402.846 387.813 397.154 415.952 420.049C424.664 427.137 433.481 432.512 447.71 446.843C506.626 506.222 511.774 516.871 548.254 536.605" stroke="#0D1B36" stroke-width="0.64" stroke-miterlimit="10"/>
<path d="M-17.2654 788.186C-17.2654 788.186 -21.4851 740.69 -7.70298 732.365C5.77785 724.222 19.0767 750.984 37.1501 743.806C54.1884 737.047 62.3289 729.336 61.9816 696.005C61.9534 693.504 61.9442 690.872 61.8805 688.096C60.9717 647.127 59.6225 650.919 57.0863 583.02C54.5443 515.178 51.593 498.481 86.7891 477.305C93.268 473.395 99.9142 471.411 106.73 471.216C133.646 470.528 162.344 494.103 192.962 529.042C197.8 534.565 202.785 540.404 207.795 546.562C251.724 600.545 272.569 634.796 295.305 638.327C317.575 641.787 312.262 620.344 319.652 599.823C326.379 581.284 324.731 566.07 339.709 558.005C340.691 557.482 341.765 557.02 342.883 556.528C361.718 548.209 360.43 526.737 362.461 478.134C362.84 469.028 363.023 460.531 362.857 452.811C362.076 417.215 351.617 393.852 373.775 394.157C395.011 394.454 389.651 389.183 417.972 411.473C426.897 418.509 435.592 423.161 449.974 437.571C508.582 496.244 513.889 507.025 550.019 526.74" stroke="#0D1B36" stroke-width="0.64" stroke-miterlimit="10"/>
<path d="M-15.1163 777.27C-15.1163 777.27 -19.449 730.091 -5.88536 721.588C7.32157 713.302 20.458 739.563 38.262 732.253C55.0835 725.356 63.0553 717.49 63.0066 684.513C62.9994 682.031 63.0114 679.419 62.9898 676.682C62.566 636.051 61.7293 640.362 59.5131 573.343C57.3077 506.389 54.4475 489.534 89.3138 468.538C95.7446 464.646 102.331 462.686 109.111 462.504C135.899 461.878 164.436 485.171 194.818 519.706C199.621 525.173 204.583 530.952 209.571 537.05C253.104 590.387 273.894 624.384 296.634 627.817C318.855 631.186 313.735 609.889 321.109 589.362C327.798 570.905 326.181 555.665 341 547.468C341.978 546.933 343.035 546.464 344.136 545.964C362.81 537.364 361.416 515.685 363.59 467.494C363.997 458.391 364.287 449.922 364.213 442.264C363.889 407.003 353.627 384.018 375.884 384.655C397.238 385.265 391.846 380.418 420.322 402.1C429.468 409.066 438.024 413.029 452.563 427.49C510.862 485.456 516.325 496.357 552.093 516.058" stroke="#0D1B36" stroke-width="0.64" stroke-miterlimit="10"/>
<path d="M-12.678 765.668C-12.678 765.668 -17.1119 718.801 -3.77862 710.125C9.14696 701.712 22.1163 727.46 39.6675 720.026C56.2677 712.98 64.0873 704.966 64.3132 672.351C64.3272 669.889 64.3768 667.303 64.3763 664.586C64.4448 624.276 64.1012 629.128 62.2171 562.985C60.3362 496.924 57.5791 479.906 92.099 459.083C98.4743 455.226 105.016 453.255 111.748 453.091C138.409 452.458 166.776 475.555 196.929 509.668C201.706 515.064 206.65 520.794 211.607 526.849C254.756 579.535 275.474 613.272 298.216 616.635C320.384 619.901 315.466 598.774 322.823 578.239C329.463 559.87 327.899 544.624 342.554 536.284C343.515 535.741 344.572 535.272 345.664 534.748C364.172 525.854 362.68 503.992 364.981 456.207C365.416 447.106 365.801 438.67 365.819 431.074C365.939 396.152 355.871 373.532 378.255 374.506C399.744 375.434 394.328 370.995 422.939 392.091C432.309 398.999 440.719 402.249 455.419 416.772C513.409 474.032 519.031 485.064 554.437 504.752" stroke="#0D1B36" stroke-width="0.64" stroke-miterlimit="10"/>
<path d="M-9.93845 753.484C-9.93845 753.484 -14.4853 706.935 -1.37507 698.069C11.2766 689.513 24.0835 714.76 41.3654 707.195C57.7413 700.028 65.4115 691.837 65.9287 659.592C65.9637 657.149 66.0464 654.579 66.0836 651.888C66.6325 611.904 66.7985 617.304 65.2464 552.037C63.681 486.845 61.0195 469.681 95.2215 449.033C101.549 445.194 108.03 443.246 114.726 443.096C141.272 442.52 169.47 465.351 199.383 499.048C204.124 504.388 209.046 510.059 213.985 516.065C256.733 568.094 277.401 601.588 300.147 604.855C322.255 608.033 317.554 587.044 324.887 566.518C331.478 548.236 329.978 532.979 344.452 524.488C345.409 523.933 346.449 523.457 347.52 522.913C365.878 513.733 364.269 491.668 366.7 444.3C367.164 435.203 367.644 426.799 367.76 419.247C368.329 384.677 358.467 362.419 380.95 363.726C402.562 364.978 397.141 360.925 425.874 381.44C435.487 388.297 443.738 390.838 458.594 405.412C516.251 461.975 522.057 473.129 557.096 492.791" stroke="#0D1B36" stroke-width="0.64" stroke-miterlimit="10"/>
<path d="M-6.89828 740.789C-6.89828 740.789 -11.5537 694.569 1.33358 685.513C13.7039 676.831 26.3558 701.56 43.3683 693.863C59.5229 686.547 67.0408 678.208 67.8327 646.325C67.8963 643.886 68.0046 641.347 68.0675 638.687C69.1087 599.024 69.7798 604.96 68.5477 540.575C67.3235 476.282 64.7576 458.972 98.6206 438.48C104.888 434.664 111.333 432.729 117.965 432.59C144.391 432.06 172.419 454.626 202.097 487.918C206.803 493.203 211.702 498.813 216.618 504.76C258.971 556.142 279.579 589.371 302.334 592.552C324.389 595.626 319.885 574.796 327.201 554.263C333.76 536.075 332.296 520.805 346.601 512.158C347.541 511.596 348.565 511.112 349.62 510.561C367.823 501.082 366.113 478.823 368.674 431.872C369.167 422.777 369.737 414.395 369.962 406.911C370.975 372.68 361.311 350.8 383.921 352.443C405.668 354.015 400.243 350.348 429.103 370.293C438.941 377.092 447.045 378.92 462.063 393.557C519.399 449.417 525.376 460.699 560.053 480.347" stroke="#0D1B36" stroke-width="0.64" stroke-miterlimit="10"/>
<path d="M-3.56086 727.721C-3.56086 727.721 -8.34135 681.823 4.3395 672.584C16.4239 663.763 28.9253 687.986 45.6685 680.158C61.6183 672.7 68.9675 664.205 70.046 632.681C70.1307 630.26 70.2647 627.753 70.3726 625.104C71.9061 585.762 73.0749 592.251 72.1748 528.741C71.2586 465.334 68.8004 447.874 102.329 427.549C108.553 423.763 114.929 421.827 121.529 421.714C147.823 421.234 175.699 443.542 205.136 476.417C209.82 481.642 214.696 487.192 219.57 493.1C261.527 543.836 282.08 576.811 304.839 579.894C326.846 582.878 322.535 562.194 329.839 541.665C336.348 523.565 334.949 508.284 349.073 499.486C349.997 498.916 351.016 498.42 352.066 497.858C370.115 488.08 368.296 465.642 370.979 419.085C371.5 409.993 372.165 401.643 372.482 394.221C373.928 360.334 364.485 338.823 387.195 340.799C409.064 342.695 403.658 339.404 432.617 358.777C442.692 365.513 450.642 366.645 465.833 381.34C522.84 436.515 528.985 447.912 563.312 467.542" stroke="#0D1B36" stroke-width="0.64" stroke-miterlimit="10"/>
<path d="M0.0847334 714.343C0.0847334 714.343 -4.80425 668.774 7.64907 659.333C19.4521 650.386 31.7985 674.091 48.2723 666.132C64.0053 658.536 71.2097 649.877 72.5509 618.72C72.6567 616.319 72.8238 613.826 72.9619 611.221C74.9832 572.188 76.6616 579.225 76.0816 516.596C75.5065 454.089 73.1393 436.47 106.322 416.319C112.485 412.555 118.826 410.633 125.373 410.526C151.552 410.103 179.246 432.151 208.455 464.604C213.104 469.774 217.957 475.264 222.813 481.124C264.362 531.218 284.873 563.935 307.64 566.933C329.599 569.825 325.447 549.273 332.768 528.751C339.195 510.724 337.881 495.451 351.841 486.509C352.76 485.928 353.768 485.436 354.796 484.854C372.691 474.778 370.771 452.146 373.585 406.005C374.134 396.916 374.894 388.599 375.31 381.222C377.205 347.686 367.956 326.541 390.788 328.841C412.792 331.056 407.406 328.143 436.456 346.959C446.772 353.645 454.56 354.057 469.911 368.814C526.578 423.308 532.914 434.811 566.886 454.411" stroke="#0D1B36" stroke-width="0.64" stroke-miterlimit="10"/>
<path d="M4.03196 700.782C4.03196 700.782 -0.977557 655.548 11.2648 645.912C22.7865 636.838 34.9778 660.025 51.1823 651.935C66.6985 644.202 73.7461 635.382 75.374 604.583C75.5009 602.202 75.701 599.724 75.8648 597.15C78.3785 558.439 80.5545 566.028 80.3065 504.275C80.0515 442.649 77.7919 424.88 110.644 404.908C116.76 401.163 123.04 399.263 129.547 399.158C155.606 398.78 183.136 420.575 212.104 452.612C216.719 457.726 221.549 463.156 226.382 468.956C267.536 518.404 287.987 550.856 310.763 553.767C332.656 556.56 328.714 536.162 336.011 515.65C342.388 497.71 341.127 482.431 354.919 473.334C355.821 472.745 356.824 472.241 357.836 471.651C375.589 461.273 373.56 438.461 376.487 392.731C377.066 383.645 377.925 375.372 378.44 368.04C380.767 334.848 371.74 314.071 394.671 316.704C416.794 319.232 411.463 316.682 440.58 334.951C451.133 341.575 458.766 341.29 474.274 356.097C530.601 409.911 537.128 421.52 570.734 441.094" stroke="#0D1B36" stroke-width="0.64" stroke-miterlimit="10"/>
<path d="M8.29544 687.116C8.29544 687.116 3.16542 642.215 15.1968 632.385C26.4417 623.196 38.4855 645.849 54.4131 637.644C69.708 629.762 76.6154 620.789 78.5179 590.353C78.6659 587.991 78.9037 585.54 79.1006 582.981C82.1065 544.591 84.7757 552.72 84.8477 491.848C84.9172 431.115 82.7608 413.183 115.279 393.379C121.339 389.669 127.579 387.771 134.038 387.684C159.964 387.356 187.337 408.88 216.07 440.513C220.657 445.555 225.469 450.937 230.272 456.693C271.025 505.484 291.414 537.698 314.194 540.512C336.039 543.213 332.29 522.962 339.57 502.442C345.91 484.585 344.702 469.3 358.312 460.051C359.21 459.45 360.197 458.939 361.187 458.33C378.781 447.641 376.655 424.647 379.714 379.333C380.321 370.25 381.258 362.003 381.877 354.727C384.641 321.892 375.82 301.476 398.873 304.433C421.119 307.285 415.838 305.087 445.04 322.816C455.842 329.373 463.305 328.384 478.973 343.254C534.948 396.392 541.673 408.09 574.922 427.662" stroke="#0D1B36" stroke-width="0.64" stroke-miterlimit="10"/>
<path d="M12.8524 673.461C12.8524 673.461 7.60188 628.895 19.4177 618.858C30.3813 609.542 42.27 631.678 57.9403 623.337C73.0184 615.317 79.7765 606.168 81.9461 576.11C82.1153 573.768 82.3742 571.336 82.6133 568.816C86.119 530.731 89.2903 539.425 89.6779 479.422C90.0719 419.581 88.0231 401.499 120.195 381.867C126.207 378.175 132.382 376.288 138.793 376.219C164.604 375.949 191.808 397.208 220.3 428.424C224.853 433.41 229.642 438.732 234.427 444.44C274.784 492.585 295.113 524.533 317.902 527.262C339.699 529.872 336.147 509.779 343.41 489.252C349.701 471.481 348.545 456.19 361.992 446.798C362.873 446.19 363.855 445.667 364.829 445.05C382.281 434.058 380.046 410.886 383.219 365.982C383.866 356.897 384.886 348.687 385.609 341.468C388.805 308.977 380.206 288.93 403.359 292.22C425.739 295.392 420.517 293.527 449.766 310.731C460.822 317.233 468.114 315.54 483.939 330.461C539.561 382.922 546.489 394.722 579.371 414.268" stroke="#0D1B36" stroke-width="0.64" stroke-miterlimit="10"/>
<path d="M17.7336 659.904C17.7336 659.904 12.3626 615.671 23.9674 605.44C34.6542 596.009 46.3788 617.603 61.7723 609.148C76.6456 600.986 83.2469 591.676 85.6912 561.981C85.8769 559.646 86.1734 557.242 86.4382 554.753C90.4317 516.977 94.1007 526.224 94.8248 467.109C95.5554 408.156 93.5857 389.92 125.435 370.452C131.387 366.782 137.526 364.909 143.889 364.858C169.58 364.634 196.619 385.639 224.872 416.438C229.389 421.369 234.156 426.631 238.918 432.279C278.867 479.783 299.153 511.473 321.951 514.115C343.683 516.627 340.352 496.683 347.587 476.153C353.829 458.47 352.738 443.168 366.003 433.625C366.868 433.009 367.845 432.474 368.803 431.85C386.108 420.543 383.781 397.2 387.056 352.71C387.731 343.628 388.851 335.463 389.661 328.293C393.294 296.158 384.905 276.484 408.18 280.099C430.683 283.594 425.532 282.06 454.828 298.738C466.133 305.173 473.259 302.788 489.245 317.771C544.515 369.556 551.647 381.457 584.166 400.99" stroke="#0D1B36" stroke-width="0.64" stroke-miterlimit="10"/>
<path d="M22.9285 646.557C22.9285 646.557 17.4415 602.67 28.8308 592.232C39.2408 582.687 50.8179 603.746 65.93 595.164C80.582 586.853 87.043 577.391 89.75 548.063C89.9688 545.743 90.291 543.37 90.5888 540.896C95.0867 503.437 99.2413 513.241 100.293 454.99C101.348 396.929 99.4815 378.531 130.989 359.247C136.893 355.596 142.972 353.745 149.295 353.696C174.87 353.529 201.723 374.262 229.752 404.651C234.247 409.522 238.991 414.725 243.723 420.329C283.276 467.186 303.507 498.623 326.309 501.168C347.992 503.588 344.854 483.791 352.078 463.265C358.27 445.669 357.236 430.373 370.328 420.663C371.184 420.023 372.137 419.497 373.09 418.861C390.248 407.239 387.813 383.717 391.218 339.644C391.922 330.566 393.136 322.433 394.046 315.308C398.116 283.529 389.944 264.212 413.319 268.159C435.956 271.974 430.882 270.754 460.212 286.939C471.771 293.319 478.709 290.223 494.868 305.264C549.778 356.389 557.12 368.375 589.273 387.882" stroke="#0D1B36" stroke-width="0.64" stroke-miterlimit="10"/>
<path d="M28.4274 633.506C28.4274 633.506 22.8244 589.965 33.9936 579.309C44.1194 569.665 55.5397 590.167 70.3991 581.461C84.8417 572.995 91.1625 563.38 94.1367 534.432C94.3766 532.131 94.7319 529.773 95.0554 527.331C100.053 490.176 104.71 500.545 106.081 443.174C107.461 386.006 105.702 367.458 136.871 348.33C142.72 344.713 148.758 342.864 155.032 342.833C180.476 342.716 207.177 363.191 234.965 393.164C239.425 397.98 244.146 403.122 248.86 408.679C288.018 454.889 308.189 486.06 330.999 488.52C352.635 490.848 349.689 471.198 356.901 450.677C363.044 433.168 362.062 417.866 374.986 407.999C375.825 407.352 376.774 406.814 377.71 406.171C394.717 394.222 392.182 370.546 395.701 326.883C396.434 317.807 397.743 309.707 398.756 302.639C403.251 271.22 395.297 252.26 418.794 256.531C441.555 260.67 436.57 259.759 465.94 275.435C477.76 281.743 484.52 277.96 500.835 293.051C555.381 343.505 562.939 355.588 594.742 375.076" stroke="#0D1B36" stroke-width="0.64" stroke-miterlimit="10"/>
<path d="M34.2435 620.857C34.2435 620.857 28.5125 577.666 39.4782 566.799C49.3271 557.041 60.5834 577 75.166 568.18C89.3918 559.577 95.5752 549.781 98.8166 521.211C99.0776 518.93 99.4706 516.599 99.8197 514.188C105.317 477.338 110.46 488.264 112.163 431.769C113.863 375.482 112.239 356.855 143.038 337.84C148.844 334.253 154.813 332.403 161.051 332.386C186.38 332.326 212.911 352.536 240.459 382.092C244.884 386.852 249.583 391.934 254.278 397.443C293.028 443.012 313.157 473.925 335.971 476.287C357.546 478.528 354.806 459.02 362 438.491C368.106 421.065 367.177 405.757 379.924 395.751C380.759 395.092 381.691 394.547 382.607 393.884C399.467 381.62 396.839 357.773 400.472 314.52C401.234 305.447 402.625 297.384 403.743 290.373C408.662 259.314 400.938 240.706 424.546 245.307C447.429 249.77 442.546 249.163 471.937 264.35C484.018 270.587 490.596 266.104 507.072 281.258C561.246 331.057 569.009 343.213 600.462 362.683" stroke="#0D1B36" stroke-width="0.64" stroke-miterlimit="10"/>
<path d="M40.3842 608.702C40.3842 608.702 34.5373 565.858 45.2875 554.784C54.8521 544.927 65.9683 564.336 80.2861 555.396C94.3025 546.639 100.334 536.695 103.838 508.493C104.12 506.231 104.534 503.919 104.933 501.531C110.93 464.986 116.563 476.48 118.598 420.862C120.623 365.468 119.102 346.678 149.566 327.83C155.317 324.279 161.233 322.434 167.424 322.435C192.632 322.421 218.994 342.366 246.306 371.517C250.704 376.205 255.385 381.239 260.045 386.693C298.399 431.616 318.473 462.275 341.292 464.539C362.818 466.689 360.271 447.327 367.453 426.803C373.51 409.465 372.633 394.15 385.212 383.989C386.03 383.322 386.958 382.765 387.856 382.094C404.565 369.504 401.85 345.498 405.585 302.659C406.375 293.589 407.862 285.559 409.078 278.592C414.418 247.882 406.916 229.643 430.635 234.572C453.653 239.354 448.867 239.04 478.267 253.744C490.613 259.921 496.996 254.744 513.641 269.944C567.443 319.087 575.429 331.323 606.52 350.779" stroke="#0D1B36" stroke-width="0.64" stroke-miterlimit="10"/>
<path d="M46.8503 597.152C46.8503 597.152 40.88 554.67 51.4175 543.361C60.7099 533.402 71.6574 552.257 85.6984 543.202C99.5055 534.291 105.408 524.19 109.163 496.359C109.462 494.105 109.914 491.82 110.338 489.463C116.847 453.218 122.958 465.286 125.321 410.532C127.67 356.031 126.257 337.09 156.387 318.41C162.089 314.877 167.958 313.051 174.096 313.058C199.188 313.102 225.381 332.781 252.441 361.52C256.805 366.152 261.462 371.126 266.093 376.536C304.034 420.806 324.065 451.207 346.885 453.402C368.346 455.453 366.02 436.24 373.174 415.714C379.182 398.462 378.37 383.137 390.767 372.825C391.569 372.151 392.497 371.593 393.374 370.903C409.944 357.981 407.124 333.809 410.962 291.384C411.78 282.317 413.361 274.32 414.67 267.414C420.435 237.065 413.162 219.178 436.991 224.435C460.132 229.542 455.468 229.512 484.869 243.748C497.477 249.854 503.677 243.977 520.487 259.251C573.91 307.756 582.126 320.056 612.855 339.498" stroke="#0D1B36" stroke-width="0.64" stroke-miterlimit="10"/>
<path d="M53.6247 586.308C53.6247 586.308 47.531 544.188 57.8604 532.656C66.8686 522.599 77.6714 540.891 91.4476 531.718C105.038 522.669 110.804 512.386 114.814 484.939C115.145 482.7 115.623 480.446 116.068 478.109C123.077 442.169 129.685 454.79 132.369 400.916C135.042 347.307 133.736 328.216 163.516 309.697C169.158 306.186 174.979 304.378 181.081 304.399C206.041 304.493 232.082 323.914 258.896 352.224C263.237 356.797 267.86 361.716 272.472 367.077C310.006 410.706 329.982 440.853 352.818 442.945C374.231 444.905 372.098 425.839 379.24 405.317C385.198 388.153 384.438 372.821 396.667 362.354C397.464 361.667 398.375 361.102 399.237 360.405C415.655 347.156 412.747 322.825 416.699 280.81C417.546 271.745 419.21 263.786 420.63 256.92C426.819 226.931 419.769 209.413 443.709 214.999C466.985 220.425 462.425 220.671 491.839 234.436C504.72 240.466 510.718 233.91 527.709 249.226C580.76 297.076 589.199 309.456 619.561 328.873" stroke="#0D1B36" stroke-width="0.64" stroke-miterlimit="10"/>
<path d="M60.728 576.259C60.728 576.259 54.5183 534.485 64.6322 522.747C73.3727 512.599 84.0143 530.321 97.5136 521.033C110.895 511.83 116.532 501.39 120.793 474.315C121.145 472.095 121.656 469.856 122.144 467.557C129.664 431.917 136.751 445.112 139.766 392.115C142.764 339.398 141.55 320.149 171.011 301.805C176.61 298.325 182.378 296.523 188.427 296.55C213.272 296.701 239.144 315.857 265.718 343.751C270.024 348.268 274.636 353.122 279.214 358.428C316.352 401.411 336.273 431.304 359.113 433.299C380.478 435.167 378.542 416.26 385.651 395.723C391.576 378.654 390.869 363.316 402.917 352.697C403.697 352.003 404.604 351.426 405.444 350.71C421.706 337.121 418.716 312.643 422.77 271.042C423.658 261.976 425.404 254.054 426.928 247.245C433.53 217.621 426.721 200.451 450.772 206.366C474.175 212.128 469.74 212.628 499.148 225.942C512.29 231.901 518.11 224.658 535.257 240.024C587.912 287.228 596.597 299.679 626.605 319.066" stroke="#0D1B36" stroke-width="0.64" stroke-miterlimit="10"/>
<path d="M68.1681 567.099C68.1681 567.099 61.8395 525.699 71.7528 513.721C80.2135 503.487 90.6939 520.639 103.928 511.231C117.1 501.875 122.593 491.269 127.125 464.585C127.499 462.385 128.043 460.161 128.556 457.894C136.588 422.554 144.153 436.322 147.496 384.189C150.819 332.366 149.712 312.966 178.822 294.783C184.361 291.325 190.076 289.529 196.082 289.587C220.807 289.783 246.51 308.674 272.848 336.162C277.12 340.624 281.709 345.418 286.268 350.676C322.999 393.017 342.872 422.64 365.721 424.55C387.025 426.331 385.294 407.566 392.391 387.033C398.267 370.051 397.613 354.707 409.492 343.933C410.268 343.227 411.158 342.643 411.982 341.919C428.1 327.987 425.014 303.366 429.182 262.175C430.098 253.112 431.932 245.239 433.555 238.475C440.57 209.216 433.991 192.398 458.153 198.641C481.691 204.723 477.379 205.478 506.769 218.346C520.184 224.229 525.798 216.296 543.117 231.72C595.393 278.285 604.309 290.8 633.954 310.173" stroke="#0D1B36" stroke-width="0.64" stroke-miterlimit="10"/>
<path d="M75.9255 558.957C75.9255 558.957 69.4735 517.92 79.1742 505.706C87.3672 495.382 97.6864 511.963 110.632 502.445C123.594 492.935 128.959 482.173 133.73 455.865C134.12 453.672 134.706 451.487 135.241 449.239C143.785 414.199 151.823 428.529 155.502 377.284C159.15 326.353 158.146 306.791 186.927 288.788C192.417 285.348 198.085 283.571 204.038 283.634C228.636 283.893 254.181 302.514 280.279 329.586C284.528 333.987 289.082 338.726 293.624 343.936C329.946 385.635 349.776 415 372.634 416.824C393.89 418.514 392.351 399.895 399.436 379.367C405.263 362.472 404.661 347.122 416.372 336.192C417.131 335.479 418.017 334.882 418.824 334.151C434.786 319.88 431.629 295.108 435.887 254.336C436.832 245.276 438.761 237.435 440.483 230.716C447.911 201.822 441.573 185.352 465.846 191.924C489.507 198.329 485.343 199.331 514.708 211.769C528.392 217.563 533.807 208.964 551.295 224.434C603.18 270.365 612.333 282.928 641.616 302.287" stroke="#0D1B36" stroke-width="0.64" stroke-miterlimit="10"/>
<path d="M84.0115 551.898C84.0115 551.898 77.4407 511.236 86.9287 498.787C94.8586 488.384 105.012 504.383 117.697 494.758C130.446 485.082 135.699 474.17 140.708 448.238C141.132 446.06 141.727 443.899 142.311 441.674C151.379 406.929 159.883 421.838 163.89 371.457C167.862 321.418 166.966 301.705 195.408 283.858C200.843 280.453 206.458 278.682 212.371 278.747C236.848 279.051 262.229 297.419 288.087 324.074C292.296 328.408 296.844 333.094 301.351 338.249C337.265 379.307 357.041 408.418 379.915 410.14C401.11 411.742 399.788 393.261 406.845 372.73C412.634 355.918 412.085 340.562 423.619 329.493C424.362 328.772 425.243 328.164 426.034 327.425C441.852 312.81 438.6 287.896 442.96 247.538C443.934 238.481 445.945 230.677 447.771 224.015C455.6 195.491 449.508 179.38 473.887 186.269C497.671 192.998 493.639 194.238 522.99 206.242C536.959 211.956 542.168 202.666 559.821 218.211C611.315 263.508 620.698 276.134 649.631 295.475" stroke="#0D1B36" stroke-width="0.64" stroke-miterlimit="10"/>
<path d="M92.4258 546.033C92.4258 546.033 85.748 505.741 95.0115 493.061C102.662 482.572 112.649 497.989 125.063 488.261C137.602 478.431 142.722 467.349 147.974 441.806C148.419 439.647 149.047 437.501 149.661 435.319C159.241 400.875 168.224 416.357 172.558 366.84C176.855 317.695 176.061 297.819 204.161 280.156C209.548 276.77 215.115 275.017 220.98 275.1C245.342 275.461 270.549 293.552 296.172 319.802C300.346 324.081 304.872 328.707 309.36 333.814C344.867 374.23 364.599 403.083 387.477 404.707C408.624 406.218 407.495 387.883 414.54 367.357C420.28 350.633 419.788 335.282 431.149 324.045C431.887 323.312 432.747 322.684 433.526 321.95C449.183 306.985 445.865 281.931 450.327 241.987C451.341 232.928 453.423 225.167 455.365 218.557C463.603 190.386 457.757 174.635 482.247 181.852C506.165 188.901 502.276 190.375 531.606 201.961C545.844 207.587 550.855 197.631 568.677 213.222C619.767 257.889 629.405 270.57 657.976 289.897" stroke="#0D1B36" stroke-width="0.64" stroke-miterlimit="10"/>
<path d="M101.181 541.466C101.181 541.466 94.3889 501.56 103.431 488.622C110.818 478.054 120.639 492.888 132.776 483.046C145.106 473.061 150.109 461.818 155.601 436.651C156.067 434.511 156.732 432.392 157.38 430.226C167.483 396.077 176.932 412.137 181.598 363.497C186.22 315.244 185.522 295.222 213.295 277.71C218.622 274.347 224.141 272.612 229.965 272.697C254.196 273.108 279.249 290.941 304.632 316.774C308.783 320.993 313.274 325.564 317.744 330.622C352.843 370.397 372.533 398.992 395.403 400.523C416.49 401.947 415.565 383.754 422.593 363.22C428.284 346.583 427.857 331.222 439.037 319.834C439.759 319.094 440.602 318.458 441.371 317.7C456.869 302.384 453.484 277.191 458.036 237.666C459.079 228.61 461.255 220.881 463.285 214.32C471.923 186.519 466.319 171.115 490.924 178.673C514.965 186.046 511.22 187.754 540.524 198.911C555.043 204.444 559.844 193.826 577.835 209.463C628.522 253.501 638.413 266.236 666.63 285.533" stroke="#0D1B36" stroke-width="0.64" stroke-miterlimit="10"/>
<path d="M110.424 538.691C110.424 538.691 103.513 499.159 112.342 485.986C119.465 475.339 129.117 489.579 140.993 479.63C153.109 469.479 158.001 458.086 163.719 433.3C164.214 431.163 164.905 429.076 165.578 426.94C176.205 393.088 186.12 409.726 191.102 361.954C196.04 314.61 195.453 294.409 222.884 277.082C228.168 273.749 233.63 272.008 239.399 272.128C263.514 272.597 288.398 290.164 313.54 315.581C317.657 319.744 322.137 324.25 326.577 329.265C361.268 368.398 380.91 396.723 403.794 398.18C424.827 399.501 424.101 381.467 431.117 360.937C436.758 344.388 436.383 329.02 447.395 317.477C448.112 316.724 448.939 316.082 449.691 315.316C465.04 299.644 461.581 274.328 466.231 235.205C467.302 226.152 469.562 218.461 471.707 211.952C480.734 184.525 475.388 169.476 500.111 177.346C524.275 185.043 520.693 186.964 549.953 197.712C564.752 203.153 569.344 191.873 587.503 207.556C637.786 250.964 647.931 263.755 675.786 283.038" stroke="#0D1B36" stroke-width="0.64" stroke-miterlimit="10"/>
<path d="M120.053 537.553C120.053 537.553 113.04 498.404 121.64 484.988C128.505 474.274 137.982 487.908 149.586 477.856C161.492 467.551 166.275 455.98 172.225 431.586C172.74 429.469 173.465 427.397 174.163 425.293C185.326 391.731 195.696 408.952 201.01 362.056C206.272 315.605 205.793 295.254 232.885 278.082C238.109 274.771 243.523 273.049 249.251 273.17C273.246 273.685 297.961 290.987 322.867 315.999C326.962 320.102 331.407 324.553 335.824 329.508C370.107 368 389.694 396.07 412.594 397.425C433.567 398.659 433.05 380.779 440.045 360.23C445.649 343.763 445.315 328.394 456.162 316.707C456.862 315.947 457.685 315.293 458.421 314.519C473.61 298.497 470.084 273.041 474.824 234.337C475.923 225.287 478.266 217.633 480.522 211.164C489.946 184.095 484.858 169.401 509.68 177.604C533.979 185.621 530.531 187.751 559.767 198.111C574.846 203.459 579.212 191.51 597.556 207.246C647.429 250.041 657.835 262.87 685.323 282.127" stroke="#0D1B36" stroke-width="0.64" stroke-miterlimit="10"/>
<path d="M131.562 537.899C131.562 537.899 124.435 499.136 132.813 485.461C139.415 474.669 148.709 487.713 160.053 477.553C171.746 467.083 176.417 455.362 182.605 431.344C183.142 429.247 183.904 427.201 184.64 425.124C196.327 391.858 207.163 409.657 212.804 363.626C218.391 318.067 218.015 297.553 244.765 280.566C249.941 277.274 255.295 275.574 260.987 275.709C284.866 276.281 309.413 293.317 334.079 317.913C338.138 321.96 342.561 326.351 346.96 331.258C380.823 369.113 400.379 396.921 423.283 398.178C444.208 399.321 443.895 381.583 450.866 361.043C456.426 344.675 456.156 329.295 466.818 317.445C467.502 316.678 468.319 316.011 469.039 315.231C484.063 298.845 480.475 273.262 485.3 234.964C486.441 225.913 488.858 218.312 491.214 211.888C501.026 185.193 496.192 170.843 521.137 179.37C545.563 187.723 542.281 190.037 571.476 200C586.844 205.239 590.993 192.645 609.51 208.439C658.972 250.622 669.64 263.488 696.761 282.72" stroke="#0D1B36" stroke-width="0.64" stroke-miterlimit="10"/>
<path d="M143.554 539.119C143.554 539.119 136.329 500.75 144.473 486.82C150.817 475.962 159.936 488.4 171 478.154C182.479 467.517 187.051 455.642 193.458 432.021C194.028 429.939 194.811 427.913 195.573 425.867C207.795 392.892 219.085 411.274 225.058 366.119C230.97 321.453 230.69 300.793 257.113 283.957C262.233 280.699 267.547 279.001 273.186 279.143C296.933 279.764 321.327 296.543 345.753 320.722C349.773 324.702 354.178 329.045 358.546 333.908C392.002 371.122 411.515 398.671 434.423 399.831C455.287 400.887 455.18 383.29 462.134 362.743C467.644 346.463 467.427 331.077 477.92 319.071C478.599 318.292 479.401 317.618 480.104 316.829C494.962 300.081 491.313 274.37 496.24 236.487C497.409 227.438 499.909 219.875 502.381 213.503C512.578 187.171 508.006 173.187 533.057 182.031C557.606 190.708 554.483 193.223 583.642 202.802C599.29 207.948 603.229 194.692 621.914 210.532C670.961 252.09 681.891 264.995 708.655 284.224" stroke="#0D1B36" stroke-width="0.64" stroke-miterlimit="10"/>
<path d="M155.323 541.055C155.323 541.055 147.996 503.068 155.911 488.896C162.012 477.978 170.94 489.802 181.744 479.449C193.009 468.646 197.481 456.616 204.115 433.377C204.701 431.302 205.522 429.303 206.31 427.288C219.073 394.616 230.812 413.569 237.113 369.278C243.337 325.509 243.172 304.682 269.265 288.027C274.337 284.787 279.586 283.1 285.194 283.266C308.826 283.946 333.046 300.447 357.236 324.221C361.233 328.141 365.615 332.424 369.949 337.232C402.985 373.808 422.467 401.096 445.384 402.17C466.2 403.134 466.285 385.684 473.227 365.141C478.7 348.944 478.536 333.551 488.852 321.406C489.515 320.62 490.312 319.934 490.994 319.126C505.687 302.015 501.992 276.184 506.993 238.712C508.203 229.662 510.774 222.14 513.357 215.809C523.938 189.838 519.636 176.206 544.798 185.378C569.47 194.379 566.512 197.078 595.624 206.277C611.56 211.314 615.282 197.413 634.148 213.294C682.772 254.243 693.963 267.186 720.377 286.398" stroke="#0D1B36" stroke-width="0.64" stroke-miterlimit="10"/>
<path d="M166.866 543.626C166.866 543.626 159.44 506.033 167.117 491.594C172.96 480.609 181.713 491.827 192.245 481.371C203.296 470.403 207.68 458.214 214.517 435.364C215.136 433.304 215.982 431.336 216.803 429.337C230.102 396.956 242.296 416.492 248.928 373.076C255.482 330.213 255.419 309.223 281.162 292.728C286.174 289.511 291.387 287.837 296.931 288.015C320.447 288.751 344.498 304.988 368.447 328.345C372.41 332.209 376.769 336.432 381.085 341.192C413.713 377.127 433.14 404.16 456.061 405.137C476.817 406.014 477.106 388.706 484.025 368.173C489.448 352.062 489.341 336.676 499.484 324.363C500.142 323.565 500.923 322.871 501.588 322.056C516.112 304.57 512.36 278.623 517.463 241.566C518.705 232.53 521.354 225.034 524.041 218.759C535.006 193.151 530.963 179.874 556.252 189.382C581.059 198.702 578.255 201.59 607.323 210.421C623.543 215.337 627.04 200.807 646.087 216.731C694.304 257.078 705.753 270.048 731.812 289.229" stroke="#0D1B36" stroke-width="0.64" stroke-miterlimit="10"/>
<path d="M178.187 546.734C178.187 546.734 170.663 509.534 178.107 494.841C183.703 483.785 192.253 494.394 202.529 483.843C213.366 472.708 217.667 460.372 224.714 437.896C225.354 435.855 226.233 433.902 227.084 431.947C240.919 399.857 253.567 419.975 260.527 377.424C267.393 335.457 267.434 314.305 292.859 297.985C297.827 294.798 302.975 293.136 308.483 293.327C331.867 294.114 355.766 310.092 379.475 333.032C383.403 336.841 387.739 341.004 392.037 345.716C424.249 381.026 443.641 407.785 466.566 408.663C487.274 409.449 487.773 392.295 494.658 371.747C500.032 355.724 499.977 340.331 509.952 327.863C510.594 327.057 511.365 326.339 512.018 325.529C526.365 307.684 522.579 281.613 527.756 244.967C529.039 235.93 531.759 228.476 534.557 222.241C545.894 196.999 542.126 184.084 567.521 193.909C592.451 203.554 589.813 206.626 618.845 215.072C635.353 219.879 638.633 204.704 657.848 220.673C705.631 260.417 717.365 273.416 743.062 292.583" stroke="#0D1B36" stroke-width="0.64" stroke-miterlimit="10"/>
<path d="M189.302 550.276C189.302 550.276 181.697 513.478 188.89 498.523C194.244 487.408 202.603 497.403 212.606 486.749C223.23 475.448 227.443 462.954 234.705 440.863C235.378 438.837 236.283 436.915 237.155 434.979C251.542 403.188 264.616 423.886 271.915 382.194C279.106 341.12 279.254 319.817 304.328 303.658C309.237 300.494 314.349 298.845 319.804 299.042C343.073 299.887 366.797 315.588 390.271 338.123C394.176 341.872 398.478 345.979 402.753 350.632C434.557 385.3 453.906 411.8 476.835 412.581C497.487 413.292 498.186 396.269 505.059 375.725C510.397 359.784 510.394 344.385 520.188 331.766C520.825 330.948 521.568 330.228 522.217 329.405C536.394 311.185 532.562 284.994 537.817 248.772C539.129 239.738 541.932 232.32 544.833 226.142C556.543 201.267 553.057 188.699 578.563 198.852C603.62 208.832 601.151 212.06 630.132 220.155C646.923 224.841 649.979 209.038 669.379 225.06C716.739 264.196 728.747 277.228 754.077 296.369" stroke="#0D1B36" stroke-width="0.64" stroke-miterlimit="10"/>
<path d="M200.183 554.182C200.183 554.182 192.493 517.773 199.441 502.568C204.541 491.398 212.715 500.762 222.455 490.03C232.86 478.552 236.991 465.91 244.455 444.209C245.145 442.19 246.087 440.296 246.997 438.386C261.936 406.893 275.448 428.167 283.079 387.352C290.583 347.175 290.846 325.705 315.59 309.725C320.455 306.591 325.503 304.953 330.922 305.164C354.075 306.066 377.643 321.497 400.864 343.62C404.734 347.314 409.025 351.357 413.27 355.966C444.655 389.997 463.961 416.239 486.906 416.918C507.509 417.537 508.401 400.66 515.258 380.109C520.546 364.256 520.6 348.863 530.225 336.087C530.846 335.262 531.584 334.529 532.212 333.688C546.203 315.085 542.347 288.794 547.687 252.978C549.04 243.942 551.913 236.567 554.931 230.441C567.025 205.928 563.796 193.715 589.414 204.197C614.605 214.497 612.286 217.901 641.224 225.628C658.31 230.188 661.142 213.756 680.71 229.825C727.64 268.369 739.924 281.405 764.892 300.533" stroke="#0D1B36" stroke-width="0.64" stroke-miterlimit="10"/>
<path d="M210.865 558.355C210.865 558.355 203.082 522.352 209.786 506.868C214.644 495.639 222.611 504.383 232.095 493.555C242.286 481.911 246.346 469.117 254.008 447.794C254.731 445.791 255.707 443.911 256.63 442.038C272.122 410.843 286.058 432.697 294.03 392.741C301.862 353.469 302.224 331.824 326.621 316.017C331.426 312.906 336.438 311.281 341.805 311.498C364.826 312.45 388.241 327.624 411.21 349.335C415.053 352.957 419.314 356.956 423.54 361.517C454.505 394.911 473.78 420.89 496.734 421.483C517.277 422.016 518.374 405.281 525.218 384.734C530.457 368.968 530.576 353.564 540.021 340.638C540.625 339.805 541.358 339.061 541.969 338.211C555.779 319.239 551.894 292.835 557.308 257.43C558.689 248.397 561.633 241.064 564.774 234.974C577.224 210.82 574.287 198.976 600.022 209.77C625.336 220.394 623.186 223.955 652.077 231.343C669.448 235.781 672.055 218.721 691.803 234.831C738.31 272.766 750.867 285.836 775.474 304.95" stroke="#0D1B36" stroke-width="0.64" stroke-miterlimit="10"/>
<path d="M221.322 562.696C221.322 562.696 213.457 527.095 219.911 511.349C224.539 500.056 232.298 508.178 241.515 497.26C251.487 485.437 255.476 472.493 263.333 451.576C264.077 449.592 265.091 447.739 266.04 445.897C282.084 415.001 296.458 437.43 304.761 398.35C312.906 359.976 313.388 338.176 337.451 322.537C342.208 319.444 347.16 317.842 352.474 318.065C375.379 319.074 398.621 333.97 421.354 355.277C425.162 358.843 429.4 362.782 433.604 367.283C464.149 400.04 483.393 425.757 506.351 426.252C526.833 426.698 528.147 410.1 534.963 389.551C540.169 373.88 540.329 358.474 549.6 345.38C550.199 344.535 550.916 343.783 551.523 342.922C565.147 323.567 561.233 297.05 566.725 262.069C568.146 253.035 571.161 245.743 574.406 239.709C587.228 215.923 584.573 204.425 610.407 215.552C635.849 226.512 633.862 230.216 662.715 237.248C680.381 241.561 682.751 223.877 702.68 240.028C748.745 277.376 761.596 290.459 785.852 309.555" stroke="#0D1B36" stroke-width="0.64" stroke-miterlimit="10"/>
<path d="M231.567 567.131C231.567 567.131 223.633 531.926 229.825 515.923C234.211 504.571 241.774 512.067 250.723 501.058C260.477 489.058 264.399 475.974 272.454 455.435C273.231 453.466 274.266 451.632 275.253 449.817C291.861 419.216 306.654 442.241 315.292 404.008C323.749 366.531 324.334 344.568 348.075 329.093C352.772 326.023 357.671 324.427 362.953 324.676C385.732 325.747 408.816 340.373 431.309 361.263C435.082 364.774 439.297 368.653 443.483 373.106C473.613 405.238 492.809 430.684 515.772 431.082C536.206 431.436 537.717 414.997 544.516 394.44C549.673 378.856 549.897 363.44 558.987 350.195C559.57 349.343 560.278 348.567 560.861 347.715C574.299 327.977 570.372 301.355 575.933 266.774C577.383 257.742 580.476 250.476 583.837 244.494C597.015 221.067 594.651 209.939 620.608 221.39C646.172 232.674 644.35 236.522 673.161 243.227C691.118 247.402 693.257 229.105 713.366 245.298C759.001 282.054 772.132 295.154 796.022 314.224" stroke="#0D1B36" stroke-width="0.64" stroke-miterlimit="10"/>
<path d="M241.601 571.55C241.601 571.55 233.602 536.754 239.523 520.47C243.683 509.065 251.021 515.933 259.715 504.829C269.25 492.651 273.106 479.427 281.359 459.266C282.157 457.316 283.23 455.51 284.237 453.714C301.41 423.406 316.628 447.012 325.594 409.643C334.369 373.075 335.068 350.945 358.463 335.642C363.116 332.602 367.963 331.013 373.193 331.268C395.851 332.385 418.778 346.741 441.023 367.23C444.774 370.681 448.954 374.505 453.122 378.91C482.832 410.405 501.997 435.589 524.964 435.889C545.337 436.156 547.053 419.859 553.836 399.294C558.944 383.798 559.221 368.375 568.147 354.987C568.713 354.127 569.416 353.339 569.994 352.475C583.246 332.355 579.295 305.633 584.934 271.474C586.424 262.441 589.576 255.221 593.053 249.292C606.587 226.224 604.51 215.454 630.577 227.234C656.265 238.842 654.623 242.84 683.372 249.198C701.619 253.236 703.526 234.327 723.815 250.561C769.008 286.73 782.42 299.847 805.96 318.899" stroke="#0D1B36" stroke-width="0.64" stroke-miterlimit="10"/>
<path d="M251.419 575.872C251.419 575.872 243.351 541.473 249.01 524.931C252.928 513.468 260.058 519.715 268.496 508.515C277.801 496.163 281.614 482.791 290.041 463.017C290.868 461.07 291.966 459.295 293.016 457.538C310.745 427.541 326.385 451.714 335.694 415.217C344.782 379.546 345.596 357.25 368.656 342.114C373.25 339.097 378.049 337.526 383.243 337.794C405.785 338.969 428.543 353.06 450.548 373.132C454.264 376.528 458.434 380.287 462.559 384.653C491.849 415.511 510.984 440.432 533.954 440.635C554.28 440.81 556.2 424.655 562.959 404.1C568.029 388.686 568.363 373.269 577.104 359.718C577.666 358.846 578.34 358.055 578.91 357.167C591.963 336.669 588.012 309.837 593.72 276.078C595.243 267.059 598.473 259.865 602.066 253.988C615.951 231.267 614.181 220.875 640.355 232.971C666.177 244.899 664.688 249.046 693.39 255.064C711.924 258.952 713.604 239.443 734.078 255.731C778.833 291.324 792.534 304.442 815.707 323.468" stroke="#0D1B36" stroke-width="0.64" stroke-miterlimit="10"/>
<path d="M261.019 580.017C261.019 580.017 252.886 546.026 258.278 529.215C261.97 517.7 268.888 523.313 277.063 512.035C286.149 499.505 289.912 486.001 298.521 466.597C299.381 464.665 300.505 462.922 301.576 461.185C319.874 431.493 335.927 456.251 345.572 420.602C354.976 385.84 355.894 363.38 378.619 348.413C383.165 345.414 387.916 343.861 393.045 344.14C415.46 345.377 438.073 359.193 459.825 378.853C463.519 382.189 467.654 385.892 471.756 390.198C500.615 420.424 519.718 445.082 542.71 445.195C562.979 445.296 565.1 429.27 571.847 408.719C576.868 393.393 577.254 377.97 585.826 364.263C586.371 363.384 587.041 362.581 587.594 361.685C600.449 340.809 596.486 313.872 602.267 280.525C603.831 271.505 607.116 264.344 610.836 258.515C625.077 236.153 623.594 226.119 649.879 238.544C675.828 250.808 674.506 255.07 703.171 260.773C721.996 264.523 723.448 244.414 744.098 260.731C788.411 295.737 802.4 308.856 825.216 327.88" stroke="#0D1B36" stroke-width="0.64" stroke-miterlimit="10"/>
<path d="M270.421 583.893C270.421 583.893 262.224 550.311 267.344 533.218C270.819 521.635 277.5 526.624 285.423 515.263C294.275 502.547 298 488.906 306.783 469.89C307.664 467.977 308.821 466.249 309.917 464.543C328.797 435.153 345.247 460.487 355.235 425.71C364.952 391.845 365.985 369.219 388.376 354.419C392.866 351.455 397.564 349.908 402.658 350.201C424.958 351.495 447.397 365.034 468.913 384.29C472.568 387.558 476.684 391.213 480.768 395.471C509.212 425.072 528.28 449.456 551.275 449.47C571.484 449.484 573.814 433.613 580.54 413.042C585.517 397.816 585.968 382.382 594.359 368.524C594.899 367.632 595.553 366.822 596.089 365.919C608.742 344.653 604.782 317.619 610.625 284.687C612.23 275.665 615.585 268.547 619.409 262.774C634.001 240.76 632.809 231.096 659.217 243.844C685.289 256.432 684.127 260.826 712.75 266.202C731.857 269.79 733.086 249.093 753.917 265.452C797.788 299.87 812.07 313.001 834.53 331.995" stroke="#0D1B36" stroke-width="0.64" stroke-miterlimit="10"/>
<path d="M279.609 587.383C279.609 587.383 271.359 554.206 276.2 536.848C279.449 525.213 285.906 529.574 293.574 518.117C302.207 505.224 305.881 491.451 314.846 472.804C315.76 470.907 316.943 469.21 318.072 467.519C337.521 438.435 354.38 464.342 364.696 430.428C374.73 397.473 375.873 374.667 397.935 360.048C402.377 357.102 407.027 355.573 412.068 355.872C434.248 357.212 456.522 370.498 477.798 389.336C481.43 392.544 485.512 396.144 489.578 400.354C517.589 429.323 536.626 453.443 559.638 453.356C579.798 453.278 582.333 437.549 589.035 416.988C593.974 401.843 594.466 386.408 602.688 372.394C603.212 371.496 603.857 370.661 604.381 369.763C616.831 348.107 612.876 320.975 618.792 288.454C620.425 279.436 623.851 272.359 627.803 266.634C642.747 244.967 641.851 235.685 668.369 248.762C694.564 261.674 693.573 266.195 722.148 271.26C741.553 274.694 742.535 253.418 763.565 269.797C806.987 303.645 821.569 316.771 843.668 335.751" stroke="#0D1B36" stroke-width="0.64" stroke-miterlimit="10"/>
<path d="M288.587 590.432C288.587 590.432 280.285 557.659 284.847 540.036C287.878 528.332 294.098 532.069 301.515 520.529C309.913 507.45 313.566 493.548 322.688 475.281C323.636 473.399 324.851 471.717 325.999 470.074C346.021 441.308 363.289 467.787 373.945 434.733C384.279 402.679 385.554 379.714 407.265 365.255C411.647 362.332 416.244 360.809 421.254 361.134C443.306 362.535 465.431 375.535 486.459 393.973C490.056 397.126 494.115 400.666 498.163 404.828C525.759 433.172 544.761 457.017 567.777 456.832C587.877 456.668 590.617 441.08 597.29 420.516C602.18 405.459 602.74 390.025 610.777 375.848C611.297 374.938 611.913 374.1 612.432 373.19C624.668 351.149 620.729 323.914 626.707 291.81C628.385 282.801 631.873 275.742 635.94 270.07C651.223 248.754 650.63 239.838 677.271 253.239C703.589 266.475 702.77 271.123 731.291 275.865C750.978 279.138 751.725 257.278 772.948 273.694C815.92 306.971 830.802 320.094 852.534 339.048" stroke="#0D1B36" stroke-width="0.64" stroke-miterlimit="10"/>
<path d="M297.357 592.928C297.357 592.928 289.013 560.555 293.28 542.659C296.086 530.904 302.077 534 309.243 522.377C317.406 509.112 321.038 495.081 330.334 477.201C331.302 475.338 332.555 473.683 333.724 472.06C354.332 443.607 371.98 470.656 382.987 438.457C393.639 407.313 395.013 384.173 416.405 369.889C420.744 366.996 425.289 365.479 430.246 365.811C452.183 367.269 474.15 379.999 494.926 398.025C498.488 401.123 502.525 404.603 506.55 408.705C533.714 436.416 552.689 460.011 575.709 459.728C595.749 459.476 598.694 444.031 605.355 423.472C610.208 408.497 610.809 393.062 618.677 378.729C619.18 377.811 619.791 376.962 620.29 376.031C632.31 353.605 628.392 326.281 634.439 294.575C636.158 285.565 639.7 278.541 643.888 272.932C659.522 251.964 659.237 243.425 685.972 257.148C712.417 270.72 711.749 275.475 740.237 279.914C760.218 283.02 760.735 260.589 782.138 277.046C824.672 309.748 839.843 322.871 861.213 341.812" stroke="#0D1B36" stroke-width="0.64" stroke-miterlimit="10"/>
<path d="M305.921 594.774C305.921 594.774 297.537 562.801 301.513 544.645C304.105 532.833 309.855 535.293 316.77 523.587C324.715 510.145 328.308 495.977 337.774 478.472C338.771 476.612 340.05 474.988 341.256 473.392C362.449 445.252 380.49 472.866 391.837 441.527C402.789 411.284 404.29 387.973 425.336 373.861C429.615 370.991 434.111 369.492 439.02 369.842C460.83 371.363 482.64 383.823 503.176 401.432C506.715 404.469 510.717 407.894 514.724 411.948C541.461 439.039 560.413 462.354 583.437 461.974C603.433 461.643 606.582 446.34 613.21 425.765C618.014 410.878 618.684 395.444 626.371 380.96C626.858 380.034 627.465 379.173 627.946 378.236C639.752 355.424 635.85 327.997 641.959 296.708C643.718 287.696 647.319 280.718 651.635 275.157C667.603 254.529 667.626 246.367 694.484 260.414C721.052 274.31 720.551 279.18 749.002 283.304C769.277 286.244 769.546 263.234 791.142 279.728C833.215 311.864 848.686 324.983 869.702 343.893" stroke="#0D1B36" stroke-width="0.64" stroke-miterlimit="10"/>
<path d="M314.269 595.906C314.269 595.906 305.845 564.333 309.53 545.916C311.904 534.036 317.418 535.872 324.086 524.095C331.795 510.467 335.372 496.182 344.991 479.045C346.021 477.2 347.325 475.607 348.553 474.03C370.336 446.216 388.758 474.4 400.456 443.915C411.713 414.587 413.341 391.103 434.052 377.16C438.283 374.308 442.72 372.832 447.588 373.183C469.282 374.762 490.931 386.94 511.219 404.149C514.724 407.13 518.715 410.49 522.691 414.501C548.997 440.959 567.929 464.008 590.958 463.529C610.893 463.112 614.247 447.95 620.863 427.38C625.622 412.593 626.34 397.14 633.859 382.501C634.341 381.563 634.927 380.682 635.397 379.749C646.983 356.541 643.114 329.019 649.284 298.146C651.084 289.132 654.751 282.184 659.17 276.679C675.474 256.391 675.809 248.619 702.785 262.978C729.488 277.194 729.142 282.184 757.548 286.008C778.112 288.77 778.144 265.205 799.928 281.724C841.551 313.289 857.318 326.392 877.976 345.3" stroke="#0D1B36" stroke-width="0.64" stroke-miterlimit="10"/>
<path d="M322.419 596.222C322.419 596.222 313.954 565.048 317.356 546.355C319.516 534.419 324.789 535.618 331.205 523.757C338.668 509.949 342.252 495.538 352.024 478.768C353.087 476.938 354.412 475.365 355.67 473.831C378.026 446.335 396.841 475.083 408.89 445.454C420.448 417.027 422.203 393.372 442.568 379.601C446.743 376.784 451.14 375.31 455.956 375.667C477.534 377.303 499.013 389.216 519.061 406.008C522.539 408.918 526.504 412.246 530.453 416.185C556.331 442.023 575.228 464.796 598.273 464.216C618.153 463.723 621.707 448.692 628.311 428.127C633.033 413.422 633.803 397.963 641.141 383.172C641.607 382.227 642.176 381.339 642.641 380.394C654.001 356.805 650.165 329.188 656.392 298.719C658.237 289.716 661.953 282.79 666.505 277.345C683.155 257.392 683.786 250.002 710.873 264.689C737.704 279.241 737.503 284.327 765.877 287.848C786.73 290.432 786.525 266.312 808.496 282.855C849.657 313.854 865.737 326.948 886.028 345.831" stroke="#0D1B36" stroke-width="0.64" stroke-miterlimit="10"/>
<path d="M330.372 595.624C330.372 595.624 321.883 564.857 324.978 545.896C326.937 533.899 331.944 534.471 338.121 522.523C345.349 508.529 348.928 493.996 358.841 477.598C359.937 475.783 361.3 474.237 362.58 472.723C385.537 445.548 404.716 474.858 417.121 446.096C428.98 418.57 430.85 394.748 450.897 381.153C455.025 378.353 459.361 376.902 464.141 377.273C485.587 378.959 506.921 390.597 526.721 406.99C530.164 409.844 534.107 413.112 538.038 417.003C563.484 442.208 582.367 464.727 605.415 464.049C625.247 463.464 629.006 448.575 635.581 428.007C640.253 413.389 641.081 397.936 648.25 382.99C648.711 382.033 649.264 381.137 649.708 380.173C660.837 356.191 657.05 328.487 663.322 298.426C665.195 289.426 668.978 282.529 673.646 277.137C690.631 257.524 691.574 250.523 718.779 265.523C745.732 280.398 745.695 285.587 774.028 288.822C795.171 291.227 794.728 266.552 816.887 283.121C857.591 313.565 873.979 326.639 893.92 345.503" stroke="#0D1B36" stroke-width="0.64" stroke-miterlimit="10"/>
<path d="M338.11 594.022C338.11 594.022 329.592 563.651 332.384 544.434C334.125 532.368 338.896 532.317 344.822 520.285C351.811 506.094 355.394 491.463 365.455 475.421C366.572 473.625 367.969 472.094 369.273 470.611C392.826 443.774 412.38 473.641 425.133 445.722C437.296 419.111 439.293 395.117 459.002 381.677C463.069 378.901 467.369 377.463 472.085 377.845C493.416 379.588 514.588 390.945 534.141 406.937C537.56 409.731 541.468 412.944 545.369 416.791C570.376 441.381 589.235 463.62 612.3 462.839C632.071 462.168 636.04 447.433 642.599 426.857C647.233 412.322 648.114 396.863 655.102 381.766C655.546 380.801 656.095 379.894 656.522 378.922C667.42 354.547 663.677 326.744 670.007 297.087C671.921 288.085 675.769 281.218 680.558 275.89C697.872 256.605 699.14 249.989 726.449 265.334C753.525 280.533 753.65 285.825 781.951 288.757C803.378 290.972 802.701 265.754 825.053 282.359C865.3 312.25 881.996 325.303 901.57 344.141" stroke="#0D1B36" stroke-width="0.64" stroke-miterlimit="10"/>
<path d="M345.658 591.34C345.658 591.34 337.124 561.359 339.601 541.891C341.14 529.765 345.646 529.087 351.333 516.967C358.075 502.594 361.669 487.85 371.879 472.163C373.034 470.394 374.451 468.882 375.777 467.419C399.924 440.919 419.85 471.332 432.958 444.28C445.411 418.575 447.547 394.405 466.913 381.15C470.937 378.403 475.173 376.976 479.852 377.372C501.056 379.177 522.083 390.259 541.371 405.844C544.756 408.582 548.641 411.735 552.532 415.518C577.111 439.487 595.947 461.447 619.016 460.569C638.731 459.823 642.9 445.217 649.442 424.634C654.028 410.187 654.977 394.729 661.78 379.468C662.22 378.492 662.747 377.565 663.163 376.597C673.829 351.83 670.136 323.939 676.51 294.691C678.469 285.699 682.368 278.855 687.288 273.586C704.933 254.629 706.517 248.415 733.945 264.071C761.148 279.607 761.414 284.983 789.687 287.623C811.399 289.647 810.478 263.891 833.029 280.517C872.814 309.841 889.823 322.885 909.035 341.71" stroke="#0D1B36" stroke-width="0.64" stroke-miterlimit="10"/>
<path d="M352.992 587.477C352.992 587.477 344.433 557.903 346.598 538.155C347.936 525.968 352.185 524.646 357.63 512.467C364.136 497.909 367.726 483.043 378.081 467.74C379.269 465.986 380.712 464.506 382.076 463.069C406.817 436.907 427.114 467.865 440.574 441.668C453.327 416.865 455.578 392.528 474.623 379.436C478.586 376.712 482.782 375.287 487.413 375.7C508.501 377.563 529.366 388.364 548.407 403.548C551.769 406.226 555.619 409.324 559.479 413.063C583.62 436.416 602.437 458.109 625.505 457.121C645.172 456.284 649.546 441.82 656.064 421.246C660.605 406.898 661.602 391.422 668.237 376.006C668.66 375.022 669.17 374.087 669.581 373.108C680.005 347.952 676.373 319.97 682.804 291.125C684.803 282.132 688.756 275.322 693.793 270.106C711.78 251.472 713.664 245.651 741.202 261.637C768.528 277.496 768.941 282.967 797.19 285.328C819.187 287.163 818.02 260.868 840.771 277.514C880.1 306.284 897.416 319.308 916.261 338.107" stroke="#0D1B36" stroke-width="0.64" stroke-miterlimit="10"/>
<path d="M360.132 582.341C360.132 582.341 351.557 553.158 353.407 533.159C354.539 520.899 358.526 518.962 363.732 506.695C369.987 491.944 373.597 476.988 384.097 462.029C385.318 460.289 386.782 458.829 388.171 457.424C413.507 431.599 434.164 463.107 447.987 437.761C461.029 413.864 463.419 389.35 482.121 376.443C486.037 373.737 490.172 372.335 494.768 372.762C515.728 374.687 536.437 385.218 555.237 399.985C558.56 402.596 562.392 405.646 566.234 409.337C589.935 432.074 608.74 453.483 631.817 452.409C651.424 451.485 656.007 437.176 662.504 416.582C667.008 402.317 668.062 386.846 674.516 371.279C674.922 370.288 675.428 369.341 675.818 368.342C685.998 342.798 682.423 314.712 688.904 286.288C690.948 277.305 694.963 270.513 700.12 265.361C718.437 247.054 720.638 241.636 748.295 257.933C775.743 274.117 776.319 279.691 804.523 281.753C826.8 283.385 825.409 256.571 848.344 273.23C887.203 301.451 904.834 314.437 923.323 333.235" stroke="#0D1B36" stroke-width="0.64" stroke-miterlimit="10"/>
<path d="M367.071 575.841C367.071 575.841 358.479 547.049 360.014 526.798C360.945 514.477 364.667 511.913 369.634 499.559C375.642 484.627 379.268 469.568 389.899 454.957C391.154 453.233 392.655 451.799 394.054 450.418C419.989 424.942 441 456.989 455.192 432.505C468.522 409.514 471.051 384.825 489.419 372.085C493.28 369.414 497.362 368.018 501.917 368.447C522.762 370.429 543.309 380.678 561.861 395.045C565.161 397.596 568.959 400.591 572.778 404.222C596.035 426.331 614.826 447.484 637.915 446.297C657.465 445.297 662.261 431.114 668.722 410.534C673.176 396.355 674.283 380.879 680.568 365.156C680.97 364.153 681.455 363.187 681.833 362.193C691.77 336.26 688.256 308.082 694.781 280.066C696.879 271.077 700.935 264.324 706.225 259.232C724.872 241.253 727.385 236.224 755.153 252.85C782.729 269.37 783.441 275.016 811.639 276.806C834.208 278.231 832.564 250.895 855.711 267.57C894.113 295.236 912.04 308.207 930.186 326.969" stroke="#0D1B36" stroke-width="0.64" stroke-miterlimit="10"/>
<path d="M374.744 567.114C374.744 567.114 366.147 538.707 367.351 518.198C368.075 505.804 371.533 502.614 376.265 490.183C382.021 475.058 385.676 459.893 396.444 445.642C397.731 443.932 399.258 442.53 400.69 441.164C427.224 416.038 448.59 448.623 463.146 424.989C476.752 402.909 479.425 378.055 497.459 365.484C501.271 362.831 505.306 361.453 509.8 361.905C530.518 363.949 550.919 373.923 569.219 387.878C572.485 390.374 576.26 393.308 580.061 396.891C602.883 418.397 621.658 439.254 644.751 437.969C664.253 436.878 669.241 422.841 675.686 402.253C680.103 388.158 681.267 372.687 687.366 356.801C687.752 355.791 688.22 354.817 688.594 353.811C698.275 327.495 694.835 299.221 701.417 271.608C703.56 262.63 707.666 255.899 713.071 250.859C732.044 233.196 734.874 228.568 762.764 245.518C790.463 262.362 791.321 268.104 819.491 269.602C842.341 270.825 840.461 242.975 863.807 259.671C901.745 286.799 919.987 299.732 937.771 318.481" stroke="#0D1B36" stroke-width="0.64" stroke-miterlimit="10"/>
<path d="M383.07 557.178C383.07 557.178 374.469 529.158 375.346 508.402C375.876 495.93 379.061 492.129 383.554 479.611C389.051 464.31 392.739 449.05 403.646 435.13C404.971 433.448 406.515 432.053 407.976 430.73C435.11 405.953 456.814 439.069 471.754 416.305C485.645 395.119 488.461 370.101 506.16 357.698C509.913 355.068 513.899 353.708 518.353 354.161C538.956 356.263 559.195 365.955 577.248 379.51C580.49 381.946 584.23 384.825 588.013 388.36C610.396 409.249 629.148 429.827 652.257 428.44C671.703 427.274 676.896 413.379 683.324 392.784C687.697 378.788 688.921 363.295 694.844 347.27C695.225 346.247 695.677 345.266 696.034 344.252C705.472 317.548 702.097 289.194 708.72 261.978C710.903 252.998 715.071 246.285 720.601 241.321C739.911 223.969 743.051 219.76 771.052 237.038C798.874 254.206 799.874 260.031 828.024 261.263C851.15 262.271 849.026 233.923 872.58 250.622C910.048 277.201 928.611 290.109 946.027 308.832" stroke="#0D1B36" stroke-width="0.64" stroke-miterlimit="10"/>
<path d="M391.484 546.784C391.484 546.784 382.878 519.149 383.428 498.147C383.752 485.602 386.66 481.179 390.93 468.58C396.176 453.086 399.896 437.731 410.923 424.164C412.281 422.497 413.851 421.133 415.346 419.826C443.078 395.398 465.133 429.04 480.441 407.138C494.608 386.864 497.576 361.665 514.945 349.441C518.637 346.834 522.588 345.488 526.994 345.959C547.469 348.123 567.559 357.529 585.363 370.683C588.567 373.052 592.288 375.882 596.048 379.357C617.992 399.631 636.737 419.937 659.846 418.44C679.244 417.183 684.641 403.43 691.045 382.844C695.38 368.931 696.65 353.448 702.399 337.255C702.764 336.225 703.211 335.232 703.552 334.211C712.735 307.123 709.445 278.668 716.113 251.861C718.341 242.891 722.559 236.2 728.205 231.288C747.841 214.252 751.309 210.44 779.421 228.047C807.37 245.551 808.507 251.448 836.634 252.4C860.047 253.19 857.68 224.344 881.429 241.051C918.433 267.092 937.31 279.963 954.365 298.672" stroke="#0D1B36" stroke-width="0.64" stroke-miterlimit="10"/>
<path d="M399.919 536.011C399.919 536.011 391.308 508.762 391.527 487.501C391.657 474.879 394.292 469.845 398.324 457.159C403.31 441.489 407.063 426.039 418.229 412.803C419.621 411.151 421.216 409.819 422.732 408.53C451.068 384.464 473.461 418.637 489.149 397.593C503.588 378.217 506.711 352.85 523.734 340.798C527.383 338.221 531.269 336.886 535.635 337.359C555.994 339.581 575.934 348.7 593.479 361.459C596.66 363.767 600.351 366.554 604.089 369.969C625.581 389.632 644.331 409.662 667.444 408.067C686.786 406.735 692.384 393.112 698.771 372.518C703.057 358.692 704.391 343.199 709.96 326.855C710.308 325.817 710.738 324.817 711.074 323.783C719.99 296.316 716.786 267.76 723.499 241.362C725.784 232.398 730.035 225.722 735.818 220.881C755.787 204.145 759.569 200.763 787.799 218.682C815.871 236.51 817.137 242.495 845.258 243.175C868.946 243.75 866.335 214.407 890.292 231.118C926.826 256.609 946.024 269.455 962.712 288.139" stroke="#0D1B36" stroke-width="0.64" stroke-miterlimit="10"/>
<path d="M408.355 524.99C408.355 524.99 399.74 498.127 399.632 476.619C399.568 463.92 401.919 458.28 405.728 445.513C410.451 429.655 414.253 414.118 425.539 401.235C426.968 399.609 428.585 398.297 430.121 397.028C459.061 373.323 481.784 408.002 497.856 387.829C512.567 369.352 515.834 343.82 532.539 331.944C536.128 329.39 539.978 328.068 544.291 328.547C564.523 330.831 584.314 339.664 601.611 352.022C604.769 354.271 608.425 357.002 612.144 360.369C633.198 379.416 651.924 399.166 675.041 397.474C694.323 396.055 700.142 382.581 706.501 361.985C710.737 348.246 712.129 332.758 717.524 316.247C717.867 315.197 718.277 314.177 718.596 313.137C727.257 285.286 724.138 256.629 730.879 230.631C733.205 221.666 737.522 215.02 743.413 210.248C763.72 193.823 767.807 190.847 796.148 209.094C824.343 227.246 825.746 233.303 853.859 233.711C877.819 234.061 874.969 204.231 899.133 220.946C935.191 245.904 954.711 258.696 971.054 277.373" stroke="#0D1B36" stroke-width="0.64" stroke-miterlimit="10"/>
<path d="M416.72 513.777C416.72 513.777 408.112 487.296 407.665 465.546C407.395 452.774 409.469 446.511 413.055 433.664C417.515 417.617 421.358 402.01 432.779 389.446C434.241 387.835 435.891 386.538 437.458 385.312C467.006 361.981 490.058 397.167 506.498 377.856C521.477 360.266 524.904 334.577 541.262 322.873C544.803 320.337 548.593 319.038 552.858 319.536C572.975 321.877 592.608 330.44 609.653 342.386C612.776 344.579 616.398 347.255 620.111 350.57C640.718 369.017 659.444 388.479 682.561 386.677C701.787 385.183 707.806 371.839 714.149 351.236C718.348 337.58 719.792 322.086 725.011 305.435C725.338 304.378 725.743 303.346 726.045 302.298C734.446 274.052 731.422 245.318 738.204 219.716C740.574 210.761 744.936 204.126 750.96 199.414C771.588 183.292 775.967 180.796 804.448 199.306C832.736 217.848 834.298 223.926 862.404 224.063C886.647 224.181 883.546 193.87 907.917 210.589C943.511 235.01 963.347 247.765 979.323 266.416" stroke="#0D1B36" stroke-width="0.64" stroke-miterlimit="10"/>
<path d="M424.964 502.5C424.964 502.5 416.359 476.389 415.573 454.396C415.109 441.547 416.898 434.678 420.257 421.739C424.458 405.516 428.351 389.821 439.883 377.586C441.383 376.002 443.053 374.724 444.641 373.518C474.797 350.56 498.174 386.24 515.003 367.811C530.254 351.12 533.841 325.274 549.866 313.739C553.351 311.237 557.088 309.945 561.313 310.444C581.302 312.847 600.797 321.119 617.578 332.658C620.678 334.79 624.266 337.411 627.944 340.67C648.099 358.506 666.814 377.684 689.947 375.78C709.129 374.207 715.349 360.993 721.667 340.398C725.822 326.842 727.33 311.337 732.364 294.523C732.686 293.454 733.063 292.419 733.361 291.359C741.495 262.734 738.572 233.906 745.382 208.706C747.81 199.756 752.217 193.132 758.366 188.495C779.326 172.674 784.015 170.595 812.624 189.441C841.046 208.303 842.721 214.462 870.821 214.327C895.33 214.207 891.999 183.434 916.578 200.156C951.695 224.044 971.846 236.762 987.472 255.395" stroke="#0D1B36" stroke-width="0.64" stroke-miterlimit="10"/>
<path d="M433.05 491.241C433.05 491.241 424.452 465.512 423.327 443.277C422.669 430.35 424.186 422.871 427.306 409.844C431.243 393.432 435.178 377.667 446.845 365.751C448.377 364.182 450.073 362.935 451.683 361.749C482.435 339.169 506.148 375.339 523.362 357.78C538.868 341.981 542.616 315.978 558.318 304.606C561.755 302.123 565.445 300.848 569.621 301.365C589.499 303.838 608.828 311.817 625.361 322.955C628.422 325.02 631.991 327.593 635.651 330.804C655.36 348.041 674.075 366.93 697.213 364.929C716.334 363.268 722.763 350.208 729.061 329.594C733.178 316.12 734.739 300.609 739.592 283.645C739.898 282.568 740.265 281.509 740.551 280.454C748.418 251.449 745.58 222.521 752.447 197.724C754.92 188.785 759.372 182.171 765.642 177.599C786.935 162.076 791.933 160.415 820.665 179.586C849.21 198.771 851.01 205.007 879.103 204.6C903.883 204.253 900.318 173.007 925.099 189.721C959.744 213.087 980.218 225.752 995.477 244.359" stroke="#0D1B36" stroke-width="0.64" stroke-miterlimit="10"/>
<path d="M440.922 480.105C440.922 480.105 432.327 454.745 430.868 432.28C430.028 419.271 431.236 411.196 434.141 398.072C437.807 381.488 441.791 365.635 453.593 354.039C455.163 352.497 456.88 351.27 458.523 350.098C489.883 327.892 513.904 364.549 531.524 347.88C547.293 332.955 551.201 306.795 566.565 295.62C569.943 293.159 573.584 291.903 577.72 292.422C597.471 294.956 616.65 302.649 632.94 313.399C635.978 315.404 639.513 317.921 643.154 321.084C662.4 337.714 681.116 356.315 704.269 354.211C723.335 352.476 729.976 339.542 736.249 318.937C740.317 305.55 741.935 290.045 746.615 272.913C746.916 271.824 747.255 270.762 747.532 269.683C755.12 240.304 752.408 211.273 759.292 186.882C761.817 177.936 766.311 171.361 772.713 166.848C794.34 151.625 799.652 150.394 828.489 169.881C857.157 189.391 859.078 195.691 887.185 195.031C912.244 194.442 908.42 162.731 933.42 179.444C967.589 202.277 988.39 214.9 1003.29 233.493" stroke="#0D1B36" stroke-width="0.64" stroke-miterlimit="10"/>
<path d="M448.529 469.179C448.529 469.179 439.954 444.196 438.14 421.481C437.101 408.383 438.025 399.701 440.711 386.509C444.114 369.737 448.156 353.821 460.064 342.542C461.672 341.026 463.406 339.806 465.078 338.678C497.035 316.85 521.389 353.985 539.397 338.198C555.417 324.152 559.495 297.86 574.532 286.836C577.861 284.394 581.443 283.16 585.543 283.692C605.166 286.289 624.208 293.69 640.238 304.045C643.253 305.99 646.745 308.469 650.372 311.555C669.17 327.586 687.887 345.898 711.04 343.685C730.057 341.858 736.891 329.07 743.153 308.47C747.188 295.178 748.854 279.654 753.357 262.383C753.642 261.287 753.976 260.213 754.237 259.126C761.557 229.368 758.947 200.243 765.859 176.253C768.43 167.319 772.981 160.749 779.508 156.313C801.475 141.372 807.101 140.571 836.049 160.387C864.84 180.221 866.886 186.596 894.985 185.665C920.306 184.826 916.25 152.681 941.46 169.37C975.157 191.682 996.281 204.251 1010.81 222.818" stroke="#0D1B36" stroke-width="0.64" stroke-miterlimit="10"/>
<path d="M455.822 458.578C455.822 458.578 447.249 433.964 445.1 411.02C443.863 397.832 444.507 388.557 446.966 375.272C450.098 358.328 454.194 342.337 466.232 331.365C467.878 329.876 469.633 328.676 471.327 327.568C503.884 306.129 528.548 343.723 546.968 328.837C563.25 315.666 567.488 289.217 582.188 278.389C585.457 275.97 588.998 274.738 593.038 275.293C612.546 277.947 631.421 285.055 647.191 295.013C650.168 296.891 653.642 299.322 657.25 302.36C675.59 317.796 694.307 335.82 717.459 333.497C736.421 331.595 743.472 318.945 749.688 298.334C753.674 285.13 755.409 269.607 759.727 252.173C759.995 251.069 760.325 249.984 760.581 248.885C767.618 218.74 765.126 189.529 772.079 165.936C774.706 157.007 779.291 150.452 785.938 146.08C808.238 131.438 814.173 131.056 843.232 151.2C872.146 171.358 874.3 177.802 902.414 176.618C928.001 175.541 923.703 142.939 949.128 159.615C982.348 181.394 1003.8 193.909 1017.98 212.47" stroke="#0D1B36" stroke-width="0.64" stroke-miterlimit="10"/>
<path d="M462.74 448.366C462.74 448.366 454.182 424.117 451.687 400.947C450.256 387.682 450.615 377.801 452.847 364.424C455.703 347.296 459.851 331.258 472.019 320.594C473.698 319.12 475.478 317.951 477.205 316.858C510.363 295.809 535.351 333.857 554.163 319.865C570.693 307.561 575.116 280.987 589.477 270.315C592.703 267.926 596.179 266.705 600.183 267.274C619.568 270.002 638.301 276.806 653.811 286.369C656.765 288.187 660.204 290.562 663.794 293.553C681.676 308.394 700.405 326.125 723.557 323.692C742.463 321.715 749.714 309.195 755.918 288.589C759.867 275.467 761.655 259.939 765.792 242.353C766.055 241.238 766.352 240.137 766.596 239.043C773.353 208.523 770.976 179.215 777.957 156.022C780.641 147.099 785.271 140.554 792.043 136.258C814.684 121.9 820.925 121.964 850.103 142.42C879.139 162.902 881.406 169.427 909.525 167.966C935.387 166.634 930.831 133.608 956.496 150.262C989.244 171.52 1011.01 183.981 1024.83 202.517" stroke="#0D1B36" stroke-width="0.64" stroke-miterlimit="10"/>
<path d="M469.236 438.671C469.236 438.671 460.693 414.787 457.852 391.391C456.234 378.032 456.289 367.566 458.306 354.092C460.892 336.793 465.093 320.679 477.391 310.322C479.108 308.876 480.921 307.722 482.657 306.652C516.416 285.994 541.722 324.484 560.933 311.397C577.721 299.957 582.296 273.242 596.332 262.762C599.498 260.396 602.939 259.188 606.89 259.763C626.159 262.549 644.743 269.067 659.993 278.234C662.924 279.992 666.321 282.328 669.901 285.254C687.323 299.501 706.048 316.931 729.221 314.408C748.067 312.345 755.584 299.984 761.71 279.353C765.643 266.333 767.483 250.799 771.418 233.043C771.665 231.92 771.957 230.807 772.185 229.705C778.663 198.811 776.399 169.404 783.421 146.608C786.167 137.703 790.837 131.156 797.722 126.941C820.703 112.866 827.259 113.36 856.54 134.161C885.716 154.974 888.074 161.561 916.219 159.843C942.338 158.249 937.538 124.794 963.429 141.431C995.705 162.167 1017.8 174.575 1031.25 193.097" stroke="#0D1B36" stroke-width="0.64" stroke-miterlimit="10"/>
<path d="M475.285 429.571C475.285 429.571 466.757 406.052 463.565 382.419C461.749 368.97 461.524 357.91 463.314 344.343C465.623 326.86 469.887 310.695 482.311 300.634C484.054 299.219 485.888 298.084 487.662 297.042C522.009 276.778 547.646 315.705 567.26 303.537C584.306 292.959 589.051 266.112 602.752 255.8C605.87 253.452 609.251 252.267 613.166 252.855C632.308 255.703 650.754 261.93 665.744 270.702C668.636 272.392 672.015 274.68 675.572 277.546C692.54 291.21 711.273 308.336 734.446 305.703C753.247 303.56 760.953 291.334 767.067 270.707C770.95 257.775 772.859 242.241 776.614 224.334C776.857 223.199 777.12 222.084 777.351 220.953C783.549 189.685 781.416 160.188 788.449 137.785C791.241 128.89 795.956 122.354 802.973 118.198C826.299 104.417 833.152 105.334 862.556 126.459C891.855 147.597 894.322 154.252 922.477 152.27C948.858 150.425 943.817 116.553 969.926 133.149C1001.72 153.381 1024.14 165.719 1037.23 184.215" stroke="#0D1B36" stroke-width="0.64" stroke-miterlimit="10"/>
<path d="M480.807 421.178C480.807 421.178 472.288 398.013 468.755 374.166C466.752 360.623 466.223 348.978 467.798 335.315C469.836 317.66 474.147 301.436 486.697 291.67C488.476 290.282 490.344 289.163 492.139 288.139C527.092 268.277 553.042 307.635 573.054 296.372C590.354 286.646 595.273 259.678 608.633 249.55C611.691 247.224 615.023 246.058 618.886 246.653C637.9 249.562 656.204 255.486 670.939 263.874C673.808 265.505 677.145 267.754 680.691 270.555C697.2 283.624 715.934 300.462 739.118 297.715C757.864 295.497 765.77 283.401 771.867 262.766C775.713 249.917 777.675 234.377 781.249 216.319C781.475 215.177 781.734 214.049 781.948 212.911C787.855 181.272 785.848 151.673 792.905 129.659C795.754 120.77 800.514 114.244 807.644 110.169C831.306 96.6591 838.466 98.0222 867.98 119.476C897.402 140.938 899.973 147.649 928.146 145.427C954.785 143.32 949.504 109.032 975.835 125.598C1007.16 145.309 1029.89 157.597 1042.63 176.075" stroke="#0D1B36" stroke-width="0.64" stroke-miterlimit="10"/>
<path d="M485.759 413.564C485.759 413.564 477.255 390.764 473.375 366.691C471.174 353.059 470.353 340.825 471.717 327.076C473.473 309.254 477.846 292.979 490.529 283.493C492.346 282.131 494.235 281.031 496.051 280.027C531.593 260.56 557.877 300.326 578.288 290.01C595.854 281.13 600.923 254.05 613.96 244.086C616.975 241.791 620.254 240.63 624.069 241.243C642.96 244.227 661.11 249.853 675.598 257.84C678.444 259.411 681.734 261.609 685.274 264.358C701.317 276.848 720.071 293.376 743.254 290.52C761.944 288.227 770.05 276.261 776.136 255.631C779.933 242.869 781.947 227.323 785.352 209.109C785.574 207.955 785.816 206.82 786.013 205.674C791.642 173.661 789.764 143.971 796.845 122.346C799.751 113.463 804.552 106.935 811.807 102.937C835.81 89.7093 843.288 91.5144 872.909 113.285C902.453 135.071 905.12 141.856 933.315 139.365C960.211 136.995 954.682 102.306 981.243 118.827C1012.09 138.033 1035.15 150.251 1047.54 168.699" stroke="#0D1B36" stroke-width="0.64" stroke-miterlimit="10"/>
<path d="M490.105 406.853C490.105 406.853 481.628 384.412 477.386 360.106C474.998 346.38 473.873 333.561 475.022 319.716C476.502 301.71 480.914 285.393 493.735 276.197C495.59 274.863 497.495 273.77 499.337 272.798C535.472 253.737 562.089 293.912 582.892 284.519C600.707 276.477 605.954 249.289 618.661 239.504C621.616 237.232 624.847 236.089 628.622 236.704C647.397 239.745 665.405 245.068 679.625 252.677C682.432 254.18 685.708 256.342 689.221 259.019C704.81 270.927 723.56 287.154 746.748 284.2C765.393 281.828 773.704 270.003 779.757 249.359C783.516 236.679 785.588 221.139 788.812 202.774C789.017 201.613 789.238 200.458 789.436 199.313C794.773 166.929 793.021 137.137 800.131 115.913C803.098 107.047 807.928 100.523 815.32 96.596C839.663 83.6511 847.443 85.8908 877.174 107.99C906.854 130.095 909.613 136.941 937.838 134.205C964.987 131.562 959.215 96.4846 986.01 112.971C1016.38 131.656 1039.77 143.809 1051.79 162.255" stroke="#0D1B36" stroke-width="0.64" stroke-miterlimit="10"/>
<path d="M493.769 401.127C493.769 401.127 485.302 379.04 480.718 354.52C478.131 340.705 476.731 327.304 477.648 313.354C478.845 295.181 483.32 278.813 496.274 269.896C498.167 268.588 500.093 267.515 501.972 266.57C538.7 247.915 565.647 288.488 586.849 280.041C604.937 272.829 610.327 245.545 622.7 235.929C625.594 233.679 628.778 232.555 632.512 233.171C651.165 236.286 669.025 241.294 682.991 248.519C685.775 249.962 689.004 252.074 692.498 254.702C707.621 266.032 726.391 281.95 749.579 278.886C768.164 276.427 776.68 264.745 782.72 244.104C786.431 231.512 788.555 215.966 791.61 197.445C791.798 196.276 792.015 195.11 792.191 193.945C797.242 161.204 795.628 131.304 802.762 110.469C805.798 101.604 810.661 95.095 818.166 91.2489C842.861 78.5821 850.931 81.261 880.786 103.684C910.588 126.113 913.443 133.033 941.69 130.028C969.092 127.11 963.077 91.6447 990.102 108.085C1020 126.266 1043.71 138.348 1055.37 156.768" stroke="#0D1B36" stroke-width="0.64" stroke-miterlimit="10"/>
<path d="M496.728 396.478C496.728 396.478 488.284 374.739 483.346 350.011C480.568 336.089 478.868 322.115 479.571 308.069C480.485 289.729 485.015 273.325 498.098 264.675C500.033 263.407 501.976 262.341 503.876 261.415C541.197 243.167 568.484 284.132 590.07 276.624C608.432 270.242 613.954 242.839 626.019 233.422C628.865 231.19 631.993 230.101 635.686 230.719C654.209 233.925 671.93 238.601 685.64 245.443C688.397 246.813 691.589 248.898 695.072 251.462C709.729 262.213 728.504 277.855 751.706 274.648C770.245 272.138 778.964 260.557 784.98 239.926C788.646 227.434 790.83 211.865 793.705 193.193C793.888 192.012 794.076 190.842 794.248 189.665C799.007 156.554 797.536 126.559 804.681 106.118C807.78 97.2712 812.683 90.7602 820.308 86.9782C845.34 74.5822 853.716 77.7077 883.686 100.471C913.61 123.225 916.558 130.205 944.836 126.956C972.495 123.775 966.225 87.9263 993.486 104.305C1022.9 121.981 1046.94 133.993 1058.24 152.399" stroke="#0D1B36" stroke-width="0.64" stroke-miterlimit="10"/>
<path d="M498.911 393.002C498.911 393.002 490.489 371.611 485.204 346.657C482.24 332.642 480.236 318.083 480.723 303.94C481.366 285.428 485.936 268.982 499.163 260.607C501.136 259.365 503.1 258.319 505.033 257.408C542.953 239.578 570.571 280.911 592.545 274.354C611.175 268.79 616.857 241.3 628.575 232.055C631.361 229.846 634.454 228.77 638.082 229.399C656.477 232.667 674.056 237.04 687.511 243.498C690.245 244.809 693.395 246.855 696.863 249.342C711.046 259.532 729.844 274.835 753.055 271.543C771.537 268.958 780.457 257.507 786.457 236.869C790.085 224.459 792.314 208.9 795.015 190.061C795.183 188.872 795.366 187.691 795.521 186.506C799.989 153.025 798.648 122.939 805.818 102.887C808.973 94.0463 813.917 87.5337 821.672 83.8398C847.055 71.722 855.738 75.2941 885.814 98.3743C915.866 121.464 918.889 128.498 947.205 124.987C975.113 121.52 968.597 85.3118 996.095 101.628C1025.04 118.795 1049.4 130.741 1060.33 149.121" stroke="#0D1B36" stroke-width="0.64" stroke-miterlimit="10"/>
<path d="M500.288 390.805C500.288 390.805 491.876 369.768 486.25 344.6C483.094 330.478 480.796 315.359 481.063 301.107C481.423 282.428 486.032 265.94 499.421 257.846C501.419 256.636 503.417 255.605 505.371 254.713C543.871 237.295 571.855 279.011 594.205 273.41C613.12 268.671 618.944 241.085 630.332 232.02C633.071 229.83 636.098 228.765 639.695 229.419C657.975 232.745 675.4 236.819 688.599 242.893C691.294 244.137 694.418 246.151 697.876 248.574C711.593 258.185 730.406 273.167 753.621 269.777C772.055 267.101 781.172 255.809 787.155 235.163C790.734 222.84 793.028 207.271 795.553 188.292C795.715 187.092 795.866 185.895 796.021 184.711C800.191 150.876 799.004 120.691 806.193 101.016C809.41 92.1926 814.394 85.6783 822.262 82.0652C847.998 70.2256 856.971 74.2368 887.17 97.641C917.356 121.05 920.447 128.155 948.818 124.389C976.966 120.653 970.199 84.0729 997.947 100.322C1026.42 116.996 1051.11 128.86 1061.69 147.222" stroke="#0D1B36" stroke-width="0.64" stroke-miterlimit="10"/>
<path d="M500.804 389.992C500.804 389.992 456.572 280.92 498.801 256.462C541.029 232.004 571.124 278.712 594.986 273.841C618.848 268.971 622.262 227.42 640.426 230.803C658.578 234.191 675.873 237.958 688.805 243.653C701.738 249.348 724.037 273.783 753.304 269.376C782.571 264.969 788.87 239.289 795.199 187.864C801.527 136.439 795.859 93.1966 821.955 81.6186C848.052 70.0406 857.307 74.5074 887.617 98.2403C917.926 121.973 921.109 129.14 949.506 125.117C977.903 121.095 970.894 84.1665 998.891 100.348C1026.89 116.53 1051.9 128.312 1062.12 146.648" stroke="#0D1B36" stroke-width="0.64" stroke-miterlimit="10"/>
</g>
</g>
<defs>
<clipPath id="clip0_106_5053">
<rect width="906.2" height="399.453" fill="white" transform="translate(0 291.138) rotate(-20.7554)"/>
</clipPath>
</defs>
</svg>
