<svg width="166" height="104" viewBox="0 0 166 104" fill="none" xmlns="http://www.w3.org/2000/svg">
<path fill-rule="evenodd" clip-rule="evenodd" d="M129.38 77.4387C127.112 77.4387 124.521 76.4668 122.577 74.5231C121.605 73.5512 121.605 72.2554 122.577 71.2835C123.549 70.3117 124.844 70.3117 125.816 71.2835C127.76 73.2273 131.324 73.2273 133.267 71.2835C134.887 69.3398 134.887 66.1002 133.267 64.1565C131.972 62.8607 130.028 60.9169 127.76 58.6493C123.873 54.4378 118.689 49.2545 116.746 47.9587C111.562 45.3671 106.703 42.7754 101.844 40.1838C96.9843 37.5921 91.801 35.0005 86.9416 32.4088C85.6458 31.7609 84.9979 32.0849 84.674 32.0849C82.4063 32.7328 80.4625 36.6203 79.4907 38.564C78.1948 41.4796 75.6032 43.4233 72.3636 43.4233C68.8001 43.7473 64.9126 42.1275 62.9689 39.2119C61.0252 36.2963 61.0252 33.0567 62.9689 29.8172C68.1522 20.0985 78.5188 4.87258 89.5333 10.0559C97.6322 13.6194 110.59 19.4506 112.534 20.0985C113.506 19.7745 115.45 18.8027 120.633 15.8871L121.281 15.5631C122.577 14.9152 123.873 15.2392 124.521 16.211C125.168 17.5069 124.844 18.8027 123.549 19.4506L122.901 19.7745C114.802 24.6339 112.858 25.2818 111.238 24.3099C108.323 23.3381 94.0687 16.8589 87.5896 13.9433C79.4907 10.3798 69.772 26.5776 66.8564 31.7609C65.8845 33.7046 65.8845 35.3244 66.8564 36.6203C67.8282 38.24 69.772 39.2119 72.0397 38.8879C73.0115 38.8879 74.6313 38.564 75.2792 36.6203H75.6032C77.223 32.7328 79.4907 28.8453 83.3781 27.5495C84.9979 27.2255 86.9416 27.2255 88.8854 28.5214C94.0687 31.113 98.928 33.7046 103.787 36.2963C108.647 38.8879 113.83 41.4796 118.689 44.0712C121.281 45.3671 125.168 49.5785 131 55.4097C132.943 57.6774 135.211 59.6211 136.183 60.9169C136.507 60.9169 136.507 60.9169 136.507 60.9169C139.746 64.8044 139.746 70.6356 136.507 74.5231C134.563 76.4668 131.972 77.4387 129.38 77.4387Z" fill="#9C9C9C"/>
<path fill-rule="evenodd" clip-rule="evenodd" d="M52.2784 28.5213C51.9545 28.5213 51.6305 28.5213 51.3065 28.1974L42.5597 23.662C41.2639 23.338 40.94 21.7183 41.5879 20.7464C42.2358 19.7745 43.5316 19.1266 44.5035 19.7745L51.3065 23.338C54.5461 16.8589 58.7575 13.2954 63.6169 11.9996C70.7439 10.3798 76.2511 14.5912 76.5751 14.9152C77.547 15.5631 77.8709 16.8589 77.223 17.8308C76.2511 18.8027 74.9553 19.1266 73.9835 18.4787C73.9835 18.1548 69.4481 15.2392 64.5887 16.535C60.7013 17.5068 57.1378 21.0704 54.2221 27.2255C54.2221 27.8734 53.5742 28.1974 52.9263 28.5213C52.6024 28.5213 52.6024 28.5213 52.2784 28.5213Z" fill="#9C9C9C"/>
<path fill-rule="evenodd" clip-rule="evenodd" d="M131 60.9168C130.028 60.9168 129.38 60.5929 129.056 59.945C128.408 58.6492 128.732 57.3533 130.028 56.7054L141.69 50.2263C142.662 49.5784 143.958 49.9023 144.606 51.1982C145.254 52.17 144.93 53.4659 143.634 54.1138L131.971 60.5929C131.648 60.9168 131.324 60.9168 131 60.9168Z" fill="#9C9C9C"/>
<path fill-rule="evenodd" clip-rule="evenodd" d="M63.6168 99.4676C61.3491 99.4676 59.4054 98.8197 57.7856 97.1999C56.1659 95.5802 55.5179 93.6364 55.5179 91.6927C55.5179 89.425 56.1659 87.4813 57.7856 85.8615C58.7575 85.2136 60.0533 85.2136 61.0252 85.8615C61.9971 86.8333 61.9971 88.4531 61.0252 89.101C60.3773 89.7489 60.0533 90.7208 60.0533 91.6927C60.0533 92.6646 60.3773 93.3125 61.0252 93.9604C61.6731 94.6083 62.645 95.2562 63.6168 95.2562C64.5887 95.2562 65.5606 94.6083 66.2085 93.9604L73.9834 86.1854C74.6313 85.5375 74.9553 84.8896 74.9553 83.9177C74.9553 82.9459 74.6313 81.974 73.9834 81.3261C73.3355 80.6782 72.3636 80.3542 71.3918 80.3542C70.4199 80.3542 69.448 80.6782 68.8001 81.3261C67.8283 82.298 66.5324 82.298 65.5606 81.3261C64.5887 80.6782 64.5887 79.0584 65.5606 78.0865C67.1804 76.7907 69.1241 75.8188 71.3918 75.8188C73.6595 75.8188 75.6032 76.7907 77.223 78.0865C78.8428 79.7063 79.4907 81.6501 79.4907 83.9177C79.4907 85.8615 78.8428 87.8052 77.223 89.425L69.448 97.1999C67.8283 98.8197 65.8845 99.4676 63.6168 99.4676Z" fill="#9C9C9C"/>
<path fill-rule="evenodd" clip-rule="evenodd" d="M55.194 91.3686C53.2503 91.3686 51.3065 90.7207 49.6868 89.1009C48.067 87.4811 47.4191 85.5374 47.4191 83.2697C47.4191 81.002 48.067 79.0583 49.6868 77.4385L61.3492 66.1C64.5887 63.1844 69.4481 63.1844 72.6876 66.1C75.9272 69.3396 75.9272 74.1989 72.6876 77.4385L61.0252 89.1009C59.4054 90.7207 57.4617 91.3686 55.194 91.3686ZM66.8564 68.3677C66.2085 68.3677 65.2366 68.6917 64.5887 69.3396L52.9263 80.678C51.6305 81.9739 51.6305 84.5655 52.9263 85.8613C54.2221 87.1572 56.4898 87.1572 57.7857 85.8613L69.4481 74.1989C70.7439 72.9031 70.7439 70.6354 69.4481 69.3396C68.8002 68.6917 67.8283 68.3677 66.8564 68.3677Z" fill="#9C9C9C"/>
<path fill-rule="evenodd" clip-rule="evenodd" d="M47.0951 82.9458C45.1513 82.9458 43.2076 82.2979 41.5878 80.6781C40.292 79.3823 39.3201 77.4385 39.3201 75.4948C38.9962 73.2271 39.968 70.9594 41.5878 69.3396L51.3065 59.621C52.9263 58.3251 54.87 57.3533 56.8137 57.3533C59.0814 57.3533 61.0252 58.3251 62.6449 59.621C63.9408 61.2407 64.9126 63.1845 64.9126 65.4522C64.9126 67.3959 64.2647 69.3396 62.6449 70.9594C61.6731 71.9313 60.3773 71.9313 59.4054 70.9594C58.4335 69.9875 58.4335 68.6917 59.4054 67.7199C60.0533 67.0719 60.3773 66.1001 60.3773 65.4522C60.3773 64.4803 60.0533 63.5084 59.4054 62.8605C58.7575 62.2126 57.7856 61.8887 56.8137 61.8887C55.8419 61.8887 55.194 62.2126 54.5461 62.8605L44.8274 72.5792C44.1795 73.2271 43.5316 74.199 43.5316 75.1708C43.8555 76.1427 44.1795 76.7906 44.5034 77.4385H44.8274C45.4753 78.0864 46.1232 78.4104 47.0951 78.4104C48.0669 78.4104 49.0388 78.0864 49.6867 77.4385C50.6586 76.4667 51.9544 76.4667 52.9263 77.4385C53.8981 78.4104 53.8981 79.7062 52.9263 80.6781C51.3065 82.2979 49.3628 82.9458 47.0951 82.9458Z" fill="#9C9C9C"/>
<path fill-rule="evenodd" clip-rule="evenodd" d="M38.9962 74.8469C36.7285 74.8469 34.7848 74.199 33.165 72.5792C29.9255 69.3397 29.9255 64.4803 33.165 61.2408L36.4046 58.0012C39.6441 54.7616 44.5035 54.7616 47.743 58.0012C50.9826 61.2408 50.9826 66.4241 47.743 69.6636C47.0951 70.3115 46.1233 70.6355 45.4753 70.3115C45.7993 70.9594 45.4753 71.9313 44.8274 72.5792C43.2077 74.199 40.94 74.8469 38.9962 74.8469ZM42.2358 60.2689C41.2639 60.2689 40.292 60.5928 39.6441 61.2408L36.4046 64.4803C35.1088 65.7761 35.1088 68.0438 36.4046 69.3397C37.7004 70.9594 40.292 70.9594 41.5879 69.3397C42.2358 68.6917 43.2077 68.6917 43.8556 69.0157C43.5316 68.0438 43.8556 67.072 44.5035 66.4241C45.7993 65.1282 45.7993 62.5366 44.5035 61.2408C43.8556 60.5928 42.8837 60.2689 42.2358 60.2689Z" fill="#9C9C9C"/>
<path fill-rule="evenodd" clip-rule="evenodd" d="M34.7847 65.4522C34.4608 65.4522 34.1368 65.4522 33.8129 65.1283L22.4744 58.6492C21.1786 58.0013 20.8546 56.7054 21.5025 55.7336C22.1505 54.4377 23.4463 54.1138 24.7421 54.7617L36.0806 61.2408C37.0524 61.8887 37.3764 63.1846 36.7285 64.4804C36.4045 65.1283 35.4326 65.4522 34.7847 65.4522Z" fill="#9C9C9C"/>
<path fill-rule="evenodd" clip-rule="evenodd" d="M91.8009 103.031C89.2093 103.031 86.9416 102.059 84.9979 100.116L75.2792 90.7208C74.3073 89.749 74.3073 88.4532 75.2792 87.4813C76.2511 86.5094 77.5469 86.5094 78.5188 87.4813L88.2374 96.876C90.1812 98.8197 93.4207 98.8197 95.3645 96.876C97.3082 94.9323 97.3082 91.6927 95.3645 89.749C94.3926 88.7771 94.3926 87.4813 95.3645 86.5094C96.3363 85.5376 97.6321 85.5376 98.604 86.5094C102.491 90.3969 102.491 96.2281 98.604 100.116C96.6603 102.059 94.0686 103.031 91.8009 103.031Z" fill="#9C9C9C"/>
<path fill-rule="evenodd" clip-rule="evenodd" d="M108.647 99.1436C106.055 99.1436 103.787 98.1717 101.844 96.228L85.9697 80.0302C84.9979 79.0583 84.9979 77.7625 85.9697 76.7906C86.9416 76.1427 88.2374 76.1427 89.2093 76.7906L105.083 92.9884C107.027 95.2561 110.59 95.2561 112.534 92.9884C114.478 91.0447 114.478 87.8051 112.534 85.5374C111.562 84.8895 111.562 83.2697 112.534 82.2979C113.506 81.65 114.802 81.65 115.774 82.2979C117.717 84.2416 118.689 86.8333 118.689 89.4249C118.689 92.0165 117.717 94.6082 115.774 96.228C113.83 98.1717 111.562 99.1436 108.647 99.1436Z" fill="#9C9C9C"/>
<path fill-rule="evenodd" clip-rule="evenodd" d="M122.253 91.6926C119.985 91.6926 117.393 90.7208 115.45 88.777L96.3363 69.6636C95.3645 68.6918 95.3645 67.3959 96.3363 66.4241C97.3082 65.4522 98.604 65.4522 99.5759 66.4241L118.689 85.5375C120.633 87.4812 124.197 87.4812 126.14 85.5375C128.084 83.5937 128.084 80.0302 126.14 78.0865L107.027 58.9731C106.055 58.0012 106.055 56.7054 107.027 55.7335C107.999 54.7617 109.295 54.7617 110.266 55.7335L129.38 74.8469C133.267 78.7344 133.267 84.8896 129.38 88.777C127.436 90.7208 124.844 91.6926 122.253 91.6926Z" fill="#9C9C9C"/>
<path fill-rule="evenodd" clip-rule="evenodd" d="M147.197 59.297C144.93 59.297 142.986 58.0012 142.014 55.7335L119.337 16.5349C118.365 15.2391 118.041 13.6193 118.365 11.9995C118.689 10.3797 119.985 8.75993 121.605 8.11202L133.915 0.984994C135.535 0.0131261 137.155 -0.31083 138.775 0.337082C140.394 0.661038 141.69 1.63291 142.338 3.25268L165.015 42.4513C165.987 44.0711 166.311 45.6909 165.663 47.3107C165.339 48.9305 164.367 50.2263 162.747 50.8742L150.437 58.3252C150.113 58.3252 150.113 58.3252 150.113 58.3252C149.141 58.9731 148.169 59.297 147.197 59.297ZM137.155 4.54851C137.155 4.54851 136.831 4.54851 136.507 4.87246C136.507 4.87246 136.507 4.87246 136.183 4.87246L123.549 11.9995C123.225 12.3234 122.901 12.6474 122.901 12.9714C122.901 13.2953 122.901 13.6193 123.225 13.9432C123.225 13.9432 123.225 13.9432 123.225 14.2672L145.902 53.7898C146.55 54.7617 147.521 54.7617 148.169 54.4377L160.804 46.9867C161.128 46.6628 161.452 46.6628 161.452 46.3388C161.452 46.0149 161.452 45.3669 161.128 45.043L138.451 5.52038C138.451 5.52038 138.451 5.52038 138.451 5.19642C138.127 4.87246 138.127 4.87246 137.803 4.54851C137.479 4.54851 137.479 4.54851 137.155 4.54851Z" fill="#9C9C9C"/>
<path fill-rule="evenodd" clip-rule="evenodd" d="M18.9109 63.5084C17.9391 63.5084 16.9672 63.1844 15.9953 62.5365H15.6714L3.36104 55.0855C1.74126 54.4376 0.445439 53.1418 0.121483 51.198C-0.202472 49.9022 0.121483 48.2824 1.09335 46.9866L23.7703 7.46401C25.39 4.54841 28.9536 3.57654 31.8692 5.19632C31.8692 5.19632 31.8692 5.19632 32.1931 5.19632L44.5034 12.6473C46.1232 13.2952 47.419 14.915 47.743 16.5348C48.0669 17.8306 47.743 19.4504 46.7711 20.7462L24.0942 60.5928C23.1223 62.2125 20.8547 63.5084 18.9109 63.5084ZM17.9391 58.649C18.9109 58.973 19.8828 58.649 20.2067 58.3251L42.8837 18.4785C42.8837 18.1546 42.8837 18.1546 43.2076 18.1546C43.2076 17.8306 43.2076 17.8306 43.2076 17.5066C43.2076 17.1827 42.8837 16.8587 42.5597 16.5348H42.2357L29.9254 9.08379C28.9536 8.75983 27.9817 9.08379 27.6577 9.7317L4.98082 49.5783C4.98082 49.5783 4.98082 49.5783 4.65687 49.9022V50.2262C4.65687 50.5501 4.98082 50.8741 5.30478 51.198H5.62873L17.9391 58.649Z" fill="#9C9C9C"/>
</svg>
