<svg width="136" height="160" viewBox="0 0 136 160" fill="none" xmlns="http://www.w3.org/2000/svg">
<path fill-rule="evenodd" clip-rule="evenodd" d="M68.1374 140.637L13.5944 86.094V25.7599L68.1374 3L122.68 25.7599V86.094L68.1374 140.637Z" stroke="#9C9C9C" stroke-width="5" stroke-linecap="round" stroke-linejoin="round"/>
<path fill-rule="evenodd" clip-rule="evenodd" d="M68.1374 124.072L25.0192 80.9764V32.9202L68.1374 14.9187L111.233 32.9202V80.9764L68.1374 124.072Z" stroke="#9C9C9C" stroke-width="5" stroke-linecap="round" stroke-linejoin="round"/>
<path fill-rule="evenodd" clip-rule="evenodd" d="M101.447 107.305L133.252 139.111L112.355 136.327L115.363 157L83.5576 125.217L101.447 107.305Z" stroke="#9C9C9C" stroke-width="5" stroke-linecap="round" stroke-linejoin="round"/>
<path fill-rule="evenodd" clip-rule="evenodd" d="M34.8056 107.305L3 139.111L23.897 136.327L20.9117 157L52.6948 125.217L34.8056 107.305Z" stroke="#9C9C9C" stroke-width="5" stroke-linecap="round" stroke-linejoin="round"/>
<path fill-rule="evenodd" clip-rule="evenodd" d="M68.1375 35.9502L76.1955 50.9439L92.94 53.9965L81.1784 66.2968L83.4679 83.1535L68.1375 75.7689L52.7846 83.1535L55.0741 66.2968L43.3125 53.9965L60.057 50.9439L68.1375 35.9502Z" stroke="#9C9C9C" stroke-width="5" stroke-linecap="round" stroke-linejoin="round"/>
</svg>
