<svg width="124" height="132" viewBox="0 0 124 132" fill="none" xmlns="http://www.w3.org/2000/svg">
<path fill-rule="evenodd" clip-rule="evenodd" d="M38.9516 85.8904H35.9164C15.9347 85.8904 0 66.6027 0 43.0959V2.10959C0 0.90411 0.758796 0 1.77053 0C2.52932 0 3.54105 0.90411 3.54105 2.10959V43.0959C3.54105 64.4931 17.9582 81.6712 35.9164 81.6712H38.9516C56.9097 81.6712 71.3269 64.4931 71.3269 43.0959V2.10959C71.3269 0.90411 72.3386 0 73.0974 0C74.1091 0 74.8679 0.90411 74.8679 2.10959V43.0959C74.8679 66.6027 58.9332 85.8904 38.9516 85.8904Z" fill="#9C9C9C"/>
<path fill-rule="evenodd" clip-rule="evenodd" d="M37.4339 16.877C22.7638 16.877 8.85253 12.0551 0.758698 3.91809C-9.856e-05 3.01399 -0.253031 1.80851 0.505766 0.904397C1.01163 0.000287015 2.27629 -0.301083 3.03509 0.603027C10.6231 8.13727 23.5226 12.6578 37.4339 12.6578C51.3451 12.6578 64.2447 8.13727 72.0856 0.603027C72.8444 -0.301083 73.8561 0.000287015 74.6149 0.904397C75.1208 1.80851 75.1208 3.01399 74.362 3.61673C66.0152 12.0551 52.3569 16.877 37.4339 16.877Z" fill="#9C9C9C"/>
<path fill-rule="evenodd" clip-rule="evenodd" d="M52.8629 44.6027C48.0572 44.6027 44.0103 39.7808 44.0103 34.0548C44.0103 28.3288 48.0572 23.5068 52.8629 23.5068C57.6686 23.5068 61.7155 28.3288 61.7155 34.0548C61.7155 39.7808 57.6686 44.6027 52.8629 44.6027ZM52.8629 27.726C49.8277 27.726 47.5513 30.7397 47.5513 34.0548C47.5513 37.3698 49.8277 40.3835 52.8629 40.3835C55.6451 40.3835 58.1745 37.3698 58.1745 34.0548C58.1745 30.7397 55.6451 27.726 52.8629 27.726Z" fill="#9C9C9C"/>
<path fill-rule="evenodd" clip-rule="evenodd" d="M22.005 44.6027C17.1993 44.6027 13.1523 39.7808 13.1523 34.0548C13.1523 28.3288 17.1993 23.5068 22.005 23.5068C26.8107 23.5068 30.8576 28.3288 30.8576 34.0548C30.8576 39.7808 26.8107 44.6027 22.005 44.6027ZM22.005 27.726C19.2227 27.726 16.6934 30.7397 16.6934 34.0548C16.6934 37.3698 19.2227 40.3835 22.005 40.3835C25.0402 40.3835 27.3165 37.3698 27.3165 34.0548C27.3165 30.7397 25.0402 27.726 22.005 27.726Z" fill="#9C9C9C"/>
<path fill-rule="evenodd" clip-rule="evenodd" d="M38.4454 75.0411H36.422C30.6045 75.0411 25.7988 69.3151 25.7988 62.3836V51.8357C25.7988 50.6302 26.5576 49.7261 27.5694 49.7261H47.2981C48.3098 49.7261 49.0686 50.6302 49.0686 51.8357V62.3836C49.0686 69.3151 44.2629 75.0411 38.4454 75.0411ZM29.3399 53.9453V62.3836C29.3399 66.9042 32.628 70.822 36.422 70.822H38.4454C42.2394 70.822 45.5275 66.9042 45.5275 62.3836V53.9453H29.3399Z" fill="#9C9C9C"/>
<path fill-rule="evenodd" clip-rule="evenodd" d="M88.0204 132H84.9852C65.0036 132 48.8159 112.712 48.8159 88.9042V81.37C48.8159 80.1645 49.5747 79.2604 50.5864 79.2604C51.5982 79.2604 52.357 80.1645 52.357 81.37V88.9042C52.357 110.301 67.027 127.781 84.9852 127.781H88.0204C105.979 127.781 120.396 110.301 120.396 88.9042V47.9179C120.396 47.0138 121.407 45.8083 122.166 45.8083C123.178 45.8083 123.937 47.0138 123.937 47.9179V88.9042C123.937 112.712 107.749 132 88.0204 132Z" fill="#9C9C9C"/>
<path fill-rule="evenodd" clip-rule="evenodd" d="M86.5029 62.6849C80.9384 62.6849 75.3738 62.0821 70.3152 60.5753C69.3035 60.2739 68.7976 59.3698 68.7976 58.1643C69.0505 56.9588 70.0623 56.3561 71.074 56.6575C75.8797 57.8629 81.1913 58.4657 86.5029 58.4657C100.414 58.4657 113.314 53.9451 121.155 46.4109C121.913 45.5068 122.925 45.8081 123.431 46.7123C124.19 47.6164 124.19 48.8218 123.431 49.726C115.084 57.8629 101.173 62.6849 86.5029 62.6849Z" fill="#9C9C9C"/>
<path fill-rule="evenodd" clip-rule="evenodd" d="M101.679 93.4247C96.8731 93.4247 92.8262 88.6028 92.8262 82.8768C92.8262 77.1508 96.8731 72.3289 101.679 72.3289C106.485 72.3289 110.531 77.1508 110.531 82.8768C110.531 88.6028 106.485 93.4247 101.679 93.4247ZM101.679 76.548C98.8965 76.548 96.3672 79.2604 96.3672 82.8768C96.3672 86.1919 98.8965 89.2056 101.679 89.2056C104.714 89.2056 106.99 86.1919 106.99 82.8768C106.99 79.2604 104.714 76.548 101.679 76.548Z" fill="#9C9C9C"/>
<path fill-rule="evenodd" clip-rule="evenodd" d="M70.8211 93.4247C66.0154 93.4247 62.2214 88.6028 62.2214 82.8768C62.2214 77.1508 66.0154 72.3289 70.8211 72.3289C75.6268 72.3289 79.6738 77.1508 79.6738 82.8768C79.6738 88.6028 75.6268 93.4247 70.8211 93.4247ZM70.8211 76.548C68.0389 76.548 65.7625 79.2604 65.7625 82.8768C65.7625 86.1919 68.0389 89.2056 70.8211 89.2056C73.8563 89.2056 76.1327 86.1919 76.1327 82.8768C76.1327 79.2604 73.8563 76.548 70.8211 76.548Z" fill="#9C9C9C"/>
<path fill-rule="evenodd" clip-rule="evenodd" d="M74.8679 118.137C74.3621 118.137 74.1091 117.836 73.6033 117.534C73.3503 117.233 73.0974 116.63 73.0974 116.027V115.726C73.0974 107.288 79.1678 100.356 86.2499 100.356C93.5849 100.356 99.4024 107.288 99.4024 115.726C99.4024 116.932 98.6436 117.836 97.6318 117.836H86.2499L74.8679 118.137ZM86.2499 104.575C81.6971 104.575 77.6502 108.493 76.8914 113.918L86.2499 113.616H95.8613C94.8496 108.493 91.0556 104.575 86.2499 104.575Z" fill="#9C9C9C"/>
</svg>
