<svg width="108" height="107" viewBox="0 0 108 107" fill="none" xmlns="http://www.w3.org/2000/svg">
<path d="M82.5715 6C77.3648 6 73.1431 9.8806 73.1431 14.6667C73.1431 18.6994 76.1541 22.0593 80.2146 23.0265V46.0833C80.2146 50.2726 76.5197 53.6663 71.9642 53.6663C67.4066 53.6663 63.7139 50.2726 63.7139 46.0833V43.9161H68.4285L59 30.9171V46.0833C59 52.6679 64.805 58 71.9642 58C79.1235 58 84.9285 52.6679 84.9285 46.0833V23.0265C88.9868 22.0593 92 18.6994 92 14.6667C92 9.8806 87.7783 6 82.5715 6ZM82.5715 18.9997C79.9678 18.9997 77.8569 17.06 77.8569 14.6667C77.8569 12.2733 79.9678 10.333 82.5715 10.333C85.1753 10.333 87.2861 12.2733 87.2861 14.6667C87.2861 17.06 85.1753 18.9997 82.5715 18.9997Z" fill="#9C9C9C"/>
<path d="M47.7333 0.00034181V0.0126856C47.6214 0.0232062 47.5101 0.039688 47.4 0.0620605C47.3088 0.0745561 47.2182 0.0910302 47.1284 0.111436C46.9188 0.172612 46.7161 0.255345 46.5236 0.35831C46.3237 0.44542 46.1335 0.552972 45.9558 0.679248C45.8744 0.741248 45.7962 0.807159 45.7212 0.876748C45.6559 0.951962 45.5941 1.03023 45.5361 1.11128C45.3955 1.27118 45.2714 1.44487 45.1658 1.62972C45.1162 1.71801 45.0709 1.80863 45.03 1.90128C44.9742 2.00943 44.9248 2.12071 44.8819 2.23456C44.7909 2.53471 44.7451 2.84672 44.7461 3.16034C44.7398 3.37954 44.7563 3.59879 44.7955 3.81456L46.0422 9.60378C42.211 8.11335 38.1591 7.25522 34.0194 7.24612C15.2502 7.24684 0.000254064 22.831 0 41.8703C0.00940858 48.7107 1.99496 55.3998 5.73984 61.0895C5.96678 61.4389 6.26031 61.7401 6.60365 61.976C6.947 62.2119 7.33345 62.3778 7.74093 62.4643C8.14841 62.5509 8.56895 62.5563 8.97853 62.4803C9.38811 62.4043 9.77872 62.2484 10.128 62.0215C10.4774 61.7946 10.7786 61.501 11.0145 61.1577C11.2504 60.8143 11.4163 60.4279 11.5028 60.0204C11.5894 59.6129 11.5948 59.1924 11.5188 58.7828C11.4428 58.3732 11.2869 57.9826 11.06 57.6333C7.99829 52.9816 6.36475 47.4854 6.35703 41.8703C6.35724 26.1804 18.7332 13.5913 34.0194 13.5908C37.6485 13.5986 41.2085 14.3713 44.5362 15.7756L37.2411 19.5899C37.1432 19.6465 37.0484 19.7083 36.9572 19.775C36.8758 19.837 36.7976 19.9029 36.7226 19.9725C36.6416 20.0305 36.5633 20.0923 36.4881 20.1577C36.4059 20.2317 36.3276 20.31 36.2536 20.3922C36.1868 20.4835 36.125 20.5782 36.0684 20.6761C36.0185 20.7684 35.9732 20.8632 35.9326 20.96C35.8789 21.0481 35.8294 21.1387 35.7845 21.2316C35.7513 21.3248 35.7225 21.4196 35.6981 21.5155C35.6757 21.6256 35.6593 21.7369 35.6487 21.8488C35.6268 21.9548 35.6103 22.062 35.5994 22.1697C35.5951 22.2643 35.5951 22.359 35.5994 22.4536C35.5939 22.5605 35.5939 22.6676 35.5994 22.7746C35.6099 22.8864 35.6264 22.9977 35.6487 23.1078C35.6775 23.1998 35.7104 23.2904 35.7475 23.3794C35.7864 23.493 35.8317 23.6043 35.8833 23.7127C35.9238 23.8095 35.9691 23.9043 36.0191 23.9966C36.065 24.0769 36.1144 24.1551 36.1672 24.2311C36.2401 24.326 36.3185 24.4167 36.4017 24.5027C36.4606 24.5711 36.5224 24.637 36.5869 24.7002C36.6729 24.7834 36.7635 24.8617 36.8584 24.9347C37.1043 25.1124 37.3746 25.2537 37.6608 25.3544C37.7659 25.393 37.8731 25.4259 37.9817 25.4531C38.2877 25.5328 38.6039 25.5661 38.9198 25.5519C39.0276 25.5409 39.1347 25.5245 39.2408 25.5025C39.3361 25.4904 39.4308 25.4739 39.5247 25.4531C39.7338 25.3959 39.9365 25.3173 40.1295 25.2186C40.146 25.2187 40.1624 25.2187 40.1789 25.2186L52.0659 18.9603C52.2508 18.8547 52.4245 18.7306 52.5844 18.59C52.6305 18.5583 52.6758 18.5254 52.7201 18.4913C52.7703 18.4638 52.8197 18.435 52.8683 18.4049C52.8684 18.3884 52.8684 18.372 52.8683 18.3555C52.9328 18.2923 52.9946 18.2264 53.0534 18.158C53.0701 18.1417 53.0865 18.1253 53.1028 18.1086C53.1503 18.0486 53.1956 17.9868 53.2386 17.9235C53.2552 17.9072 53.2717 17.8907 53.288 17.8741C53.3008 17.8414 53.3132 17.8085 53.325 17.7753C53.3591 17.731 53.392 17.6857 53.4237 17.6396C53.4239 17.6231 53.4239 17.6066 53.4237 17.5902C53.4726 17.5099 53.5179 17.4276 53.5595 17.3433C53.5596 17.331 53.5596 17.3186 53.5595 17.3063C53.5959 17.2254 53.6288 17.143 53.6583 17.0594C53.6587 17.0306 53.6587 17.0018 53.6583 16.973C53.6905 16.8919 53.7193 16.8096 53.7447 16.7261C53.7448 16.7097 53.7448 16.6932 53.7447 16.6767C53.7641 16.5992 53.7806 16.521 53.794 16.4422C53.7946 16.4093 53.7946 16.3764 53.794 16.3435C53.8135 16.2659 53.8299 16.1877 53.8434 16.1089C53.8497 15.8897 53.8332 15.6705 53.794 15.4547C53.7778 15.4381 53.7613 15.4216 53.7447 15.4053L53.6583 15.0227C53.6349 14.7874 53.5852 14.5556 53.5101 14.3314L50.992 2.43206C50.9673 2.34029 50.9385 2.24967 50.9056 2.1605C50.8083 1.86138 50.6668 1.57847 50.4859 1.32112C50.1763 0.882385 49.76 0.529782 49.2762 0.296592C49.1832 0.259191 49.0885 0.226237 48.9923 0.197842C48.7801 0.125398 48.5608 0.0757433 48.3381 0.0497168C48.1385 0.0138944 47.936 -0.00264012 47.7333 0.00034181ZM99.1697 44.4255C99.0667 44.4246 98.9637 44.4287 98.8611 44.4378C98.3168 44.4801 97.7927 44.6626 97.34 44.9676C96.8872 45.2726 96.5212 45.6897 96.2775 46.1782C96.0339 46.6667 95.921 47.21 95.9497 47.7552C95.9785 48.3003 96.148 48.8287 96.4417 49.2889C99.2893 53.8362 100.823 59.1405 100.824 64.5458C100.824 80.2357 88.4475 92.8127 73.1614 92.813C69.6591 92.8043 66.2102 92.0873 62.9778 90.7762L69.3348 87.4311C69.5309 87.3393 69.717 87.2276 69.8903 87.0978C70.3708 86.6824 70.7149 86.1318 70.8778 85.5178C70.97 85.2137 71.0157 84.8974 71.0136 84.5797C71.0026 84.4719 70.9861 84.3648 70.9642 84.2588C70.9027 83.73 70.7087 83.2253 70.4001 82.7916C70.0915 82.3579 69.6784 82.0091 69.199 81.7777C68.7157 81.5591 68.185 81.4657 67.6561 81.5061V81.4814C67.2355 81.5067 66.8242 81.6158 66.4464 81.8023L54.4483 88.0977C54.3847 88.1447 54.3229 88.1941 54.2631 88.2458C54.2466 88.2457 54.2302 88.2457 54.2137 88.2458C54.1201 88.3027 54.0294 88.3645 53.9422 88.4309C53.8777 88.4941 53.8159 88.56 53.757 88.6284C53.7404 88.6447 53.7239 88.6612 53.7076 88.6778C53.6434 88.7369 53.5816 88.7987 53.5225 88.863C53.5224 88.8794 53.5224 88.8959 53.5225 88.9123C53.458 88.9755 53.3962 89.0414 53.3373 89.1098C53.3373 89.1222 53.3373 89.1345 53.3373 89.1469C53.2842 89.2269 53.2348 89.3092 53.1892 89.3938C53.1584 89.4545 53.1296 89.5163 53.1028 89.5789C53.0858 89.6115 53.0693 89.6445 53.0534 89.6777C53.0533 89.6941 53.0533 89.7106 53.0534 89.727C53.0023 89.8314 52.957 89.9386 52.9176 90.048C52.8508 90.2322 52.8012 90.4223 52.7695 90.6158C52.7656 90.7063 52.7656 90.7969 52.7695 90.8873C52.7632 91.1065 52.7798 91.3258 52.8189 91.5416C52.8188 91.558 52.8188 91.5745 52.8189 91.5909L55.6209 104.564C55.6456 104.656 55.6745 104.747 55.7073 104.836C55.7341 104.949 55.7671 105.06 55.8061 105.169C55.8466 105.266 55.8919 105.361 55.9419 105.453C56.0482 105.634 56.1723 105.803 56.3122 105.959C56.5342 106.181 56.788 106.368 57.0651 106.515C57.1561 106.585 57.2509 106.651 57.349 106.712C57.7295 106.886 58.1407 106.982 58.5587 106.996C58.6656 107.001 58.7728 107.001 58.8797 106.996C58.975 106.984 59.0697 106.967 59.1636 106.947C59.2713 106.936 59.3784 106.919 59.4845 106.897C59.6983 106.837 59.9052 106.754 60.1017 106.65C60.1943 106.609 60.285 106.564 60.3733 106.515C60.9128 106.179 61.3387 105.689 61.5953 105.107C61.6282 105.018 61.657 104.928 61.6817 104.836C61.7207 104.727 61.7537 104.615 61.7805 104.502C61.8287 104.304 61.8577 104.102 61.8669 103.898C61.8559 103.79 61.8394 103.683 61.8175 103.577C61.8129 103.449 61.8005 103.321 61.7805 103.194L60.3362 96.5161C64.3783 98.2103 68.7059 99.1467 73.112 99.1577C73.1285 99.1578 73.1449 99.1578 73.1614 99.1577C91.9305 99.1572 107.119 83.5851 107.119 64.5458C107.119 57.9591 105.281 51.4915 101.799 45.9314C101.522 45.4803 101.136 45.1059 100.677 44.8428C100.217 44.5797 99.699 44.4362 99.1697 44.4255ZM28.045 57.1642C14.8933 57.1642 4.15984 67.91 4.15984 81.0617C4.15984 94.2134 14.8933 104.897 28.045 104.897C41.1967 104.897 51.9301 94.2134 51.9301 81.0617C51.9301 67.91 41.1967 57.1642 28.045 57.1642ZM27.3414 65.2988H28.9214V69.6808C29.8189 69.6967 30.7322 69.8321 31.6741 70.0758C32.616 70.3147 33.4043 70.5891 34.0441 70.9028V74.0875H33.8589C33.1925 73.5891 32.5015 73.1581 31.7728 72.7791C31.0531 72.3889 30.1032 72.1356 28.9214 72.0384V79.0497C29.1881 79.0975 29.4746 79.1728 29.7855 79.2842C30.0966 79.3639 30.3692 79.4304 30.6001 79.4941C31.9242 79.8412 32.9417 80.4399 33.6614 81.2839C34.3855 82.1243 34.7555 83.2789 34.76 84.7278V84.7402V84.7525C34.7544 86.42 34.2125 87.8148 33.143 88.9247C32.0678 90.0298 30.663 90.6819 28.9214 90.8873V96.7753H27.3414V90.9738C26.1685 90.9631 25.064 90.8265 24.0333 90.5664C23.0025 90.2957 22.11 89.9515 21.3547 89.5295V86.3078H21.5769C21.7459 86.4671 22.0428 86.6893 22.478 86.9744C22.9133 87.2562 23.3405 87.4948 23.7494 87.678C24.2114 87.8834 24.741 88.0734 25.3541 88.2581C25.9761 88.4317 26.6394 88.5349 27.3414 88.5667V81.5308C26.9858 81.4512 26.6559 81.3667 26.3539 81.2839C26.0519 81.2043 25.7724 81.1186 25.5145 81.0247C24.0661 80.5804 23.0348 79.9136 22.4039 79.025C21.7731 78.1253 21.4534 77.027 21.4534 75.7169C21.4534 74.1138 21.9657 72.7608 22.9964 71.6558C24.036 70.5506 25.4843 69.901 27.3414 69.7178V65.2988ZM27.3414 72.0631C26.3906 72.1428 25.5954 72.4547 24.9467 73.0136C24.298 73.555 23.9716 74.3226 23.9716 75.2972C23.9716 76.2829 24.2076 77.0206 24.6875 77.5191C25.1673 78.0175 26.053 78.4298 27.3414 78.7658V72.0631ZM28.9214 81.8147V88.542C29.9877 88.4146 30.7968 88.0757 31.3655 87.5422C31.9431 87.0103 32.2419 86.2204 32.2419 85.1598C32.2419 84.1423 31.9761 83.3922 31.4519 82.9256C30.9365 82.4495 30.0943 82.0854 28.9214 81.8147Z" fill="#9C9C9C"/>
</svg>
