<svg width="1671" height="1174" viewBox="0 0 1671 1174" fill="none" xmlns="http://www.w3.org/2000/svg">
<g clip-path="url(#clip0_114_145)">
<mask id="mask0_114_145" style="mask-type:luminance" maskUnits="userSpaceOnUse" x="66" y="41" width="1656" height="947">
<path d="M75.7737 726.033C117.416 885.398 280.365 980.833 439.754 939.184C457.291 934.602 474.088 928.544 489.963 921.185C530.45 973.861 599.929 1000.1 668.252 982.248C730.043 966.102 774.973 918.032 790.089 860.358C859.629 892.928 940.528 902.304 1020.64 881.371C1040.99 876.053 1060.41 869.007 1078.8 860.434C1135.29 896.162 1205.9 909.314 1275.66 891.084C1401.56 858.186 1479.82 734.967 1459.19 609.071C1467.95 608.171 1476.75 606.606 1485.53 604.312C1578.11 580.121 1633.56 485.437 1609.37 392.856C1608.11 388.029 1606.6 383.34 1604.99 378.729C1689.7 349.466 1738.94 259.44 1715.9 171.261C1691.7 78.6805 1597.02 23.2277 1504.44 47.419C1411.86 71.6104 1356.41 166.294 1380.6 258.875C1381.86 263.702 1383.34 268.397 1384.97 273.002C1324.36 293.947 1281.96 345.983 1271.15 406.221C1261.03 403.76 1250.69 401.935 1240.23 400.776C1170.19 258.436 1007.67 180.108 848.279 221.757C722.519 254.618 631.604 353.587 603.02 471.663C532.49 377.64 409.69 330.495 288.947 362.045C129.559 403.693 34.1251 566.643 75.7737 726.033Z" fill="white"/>
</mask>
<g mask="url(#mask0_114_145)">
<path d="M-156.15 1470.1C-156.15 1470.1 -152.528 1374.73 -121.457 1364.76C-90.3919 1354.77 -68.8363 1415.88 -29.3493 1408.42C10.1613 1400.96 29.3579 1389.57 29.111 1305.9C28.894 1222.25 18.722 1220.28 24.1696 1077.23C29.6171 934.177 25.6431 904.069 101.995 869.05C178.353 834.055 250.27 915.581 327.484 1037.31C404.692 1159.02 437.706 1232.15 479.857 1244.75C522.013 1257.37 513.456 1213.02 531.938 1175.67C550.42 1138.33 548.166 1107.65 587.66 1100.21C627.17 1092.74 630.307 1055.11 642.561 956.978C654.816 858.843 618.559 781.525 668.013 781.345C717.461 781.141 692.986 752.395 795.271 886.965C897.564 1021.56 903.656 1040.52 973.536 1086.1" stroke="#33445C" stroke-width="0.64" stroke-miterlimit="10"/>
<path d="M-156.092 1466.65C-156.092 1466.65 -152.701 1371.84 -122.038 1361.47C-91.4448 1351.13 -70.1489 1411.25 -31.1097 1403.52C5.28191 1396.21 24.1958 1385.58 26.9476 1317.26C27.1493 1312.23 27.2768 1306.91 27.3116 1301.24C28.0457 1218.32 18.5914 1217.46 24.5203 1076.15C30.3719 934.84 26.6561 904.461 102.347 869.717C116.162 863.376 129.817 860.87 143.43 861.788C196.265 865.351 247.732 919.607 301.205 997.887C309.593 1010.16 318.042 1023.04 326.567 1036.41C403.091 1156.86 436.118 1229.46 478.302 1241.9C520.361 1254.34 512.163 1210.29 530.622 1172.96C547.855 1138.09 547.059 1108.92 579.192 1098.96C581.297 1098.31 583.575 1097.74 585.979 1097.26C625.199 1089.26 628.326 1051.21 640.636 953.866C642.873 936.596 643.647 920.011 643.731 904.466C643.832 831.805 626.808 780.103 667.714 780.589C706.675 781.077 699.56 764.202 744.877 820.268C757.537 835.921 773.662 856.028 796.031 885.224C897.987 1018.34 904.249 1037.66 973.439 1083.11" stroke="#33445C" stroke-width="0.64" stroke-miterlimit="10"/>
<path d="M-155.185 1460.44C-155.185 1460.44 -152.026 1366.2 -121.787 1355.47C-91.6607 1344.79 -70.5761 1404 -32.0392 1395.9C3.95817 1388.34 22.6012 1377.35 25.8175 1309.74C26.0552 1304.75 26.2424 1299.47 26.3492 1293.88C27.8328 1211.71 19.2917 1211.92 25.7018 1072.35C31.9339 932.789 28.4999 902.135 103.499 867.646C117.196 861.337 130.78 858.849 144.269 859.774C196.849 863.429 248.097 917.135 301.175 994.584C309.509 1006.74 317.927 1019.51 326.397 1032.77C402.261 1151.94 435.277 1224.01 477.488 1236.27C519.475 1248.53 511.642 1204.82 530.041 1167.45C547.163 1132.74 546.468 1103.57 578.313 1093.27C580.412 1092.6 582.636 1092.02 585.034 1091.52C623.981 1082.96 626.818 1044.47 639.469 947.952C641.737 930.699 642.73 914.184 642.976 898.773C643.999 826.832 627.149 775.894 668.175 777.031C707.302 778.158 699.829 762.136 745.767 817.002C758.813 832.58 774.864 851.341 797.518 880.665C899.097 1012.33 905.571 1031.98 974.078 1077.34" stroke="#33445C" stroke-width="0.64" stroke-miterlimit="10"/>
<path d="M-153.48 1451.68C-153.48 1451.68 -150.558 1357.98 -120.739 1346.9C-91.1084 1335.87 -70.2475 1394.13 -32.1707 1385.72C3.44993 1377.88 21.7985 1366.54 25.509 1299.66C25.7828 1294.71 26.0122 1289.49 26.1787 1283.94C28.5064 1202.48 20.7901 1203.81 27.6753 1065.97C34.3114 928.147 31.1418 897.246 105.473 863.008C119.076 856.724 132.541 854.267 145.959 855.21C198.309 858.95 249.284 912.096 301.997 988.73C310.3 1000.77 318.664 1013.42 327.109 1026.59C402.283 1144.48 435.293 1216.05 477.533 1228.12C519.422 1240.2 511.949 1196.8 530.3 1159.44C547.335 1124.88 546.741 1095.71 578.28 1085.12C580.349 1084.42 582.574 1083.84 584.929 1083.28C623.603 1074.16 626.282 1035.26 639.119 939.548C641.44 922.306 642.63 905.865 643.008 890.572C644.821 819.335 628.259 769.206 669.445 770.958C708.74 772.725 700.925 757.525 747.468 811.222C760.898 826.724 776.9 844.134 799.823 873.614C901.048 1003.83 907.709 1023.81 975.55 1069.04" stroke="#33445C" stroke-width="0.64" stroke-miterlimit="10"/>
<path d="M-150.964 1440.5C-150.964 1440.5 -148.298 1347.38 -118.886 1335.9C-89.7217 1324.54 -69.1143 1381.83 -31.4915 1373.13C3.7226 1364.99 21.7891 1353.35 26.0175 1287.19C26.3273 1282.28 26.6164 1277.1 26.8252 1271.61C30.0032 1190.89 23.1054 1193.32 30.4718 1057.23C37.5121 921.142 34.6006 889.972 108.264 855.984C121.778 849.748 135.143 847.292 148.46 848.237C200.555 852.068 251.305 904.641 303.63 980.466C311.873 992.369 320.235 1004.92 328.632 1018C403.381 1134.46 436.144 1205.66 478.411 1217.55C520.204 1229.46 513.09 1186.36 531.412 1148.99C548.335 1114.58 547.848 1085.43 579.093 1074.49C581.156 1073.77 583.369 1073.24 585.676 1072.59C623.756 1061.68 626.621 1023.59 639.639 928.668C642.013 911.437 643.376 895.078 643.939 879.913C646.549 809.403 630.262 760.037 671.592 762.434C711.053 764.84 702.927 750.479 750.075 803.007C763.913 818.428 779.812 834.474 803.027 864.106C903.845 992.865 910.741 1013.16 977.905 1058.31" stroke="#33445C" stroke-width="0.64" stroke-miterlimit="10"/>
<path d="M-147.653 1427.15C-147.653 1427.15 -145.241 1334.6 -116.231 1322.74C-87.5567 1311.05 -67.1556 1367.36 -30.0165 1358.36C4.8146 1349.92 22.6165 1337.94 27.2918 1272.52C27.6376 1267.65 27.9865 1262.51 28.2611 1257.08C32.2894 1177.09 26.2101 1180.63 34.0517 1046.26C41.4786 911.939 38.8253 880.5 111.845 846.756C125.24 840.551 138.51 838.12 151.757 839.083C203.622 843 254.128 895.03 306.059 970.022C314.27 981.807 322.595 994.219 330.944 1007.21C405.098 1122.35 437.813 1192.99 480.086 1204.8C521.834 1216.44 515.051 1173.74 533.325 1136.38C550.137 1102.13 549.774 1072.97 580.707 1061.7C582.74 1060.97 584.954 1060.44 587.225 1059.75C624.91 1048 627.738 1009.77 640.943 915.661C643.37 898.442 644.906 882.164 645.631 867.134C649.038 797.351 633.049 748.741 674.522 751.783C714.174 754.822 705.754 741.271 753.436 792.648C767.659 807.994 783.507 822.688 806.985 852.453C907.432 979.793 914.533 1000.39 981.007 1045.41" stroke="#33445C" stroke-width="0.64" stroke-miterlimit="10"/>
<path d="M-143.574 1411.8C-143.574 1411.8 -141.423 1319.79 -112.808 1307.59C-84.6304 1295.55 -64.2252 1351.68 -27.774 1341.6C6.46501 1332.14 24.1878 1320.54 29.3574 1255.85C29.7392 1251.03 30.1303 1245.94 30.4708 1240.57C35.3494 1161.33 30.065 1165.97 38.4115 1033.34C46.2425 900.759 43.8474 869.05 116.175 835.563C129.453 829.389 142.652 826.976 155.797 827.94C207.402 831.926 257.665 883.412 309.231 957.589C317.388 969.262 325.688 981.579 334.006 994.448C407.541 1108.29 440.198 1178.41 482.504 1190.06C524.179 1201.52 517.738 1159.16 535.982 1121.78C552.707 1087.68 552.421 1058.53 583.066 1046.93C585.069 1046.18 587.283 1045.65 589.517 1044.91C626.826 1032.31 629.629 993.983 642.99 900.665C645.448 883.464 647.174 867.237 648.084 852.336C652.264 783.286 636.579 735.355 678.197 739.143C718.021 742.744 709.355 730.092 757.547 780.324C772.202 795.582 787.923 808.919 811.693 838.835C911.716 964.744 919.051 985.656 984.866 1030.58" stroke="#33445C" stroke-width="0.64" stroke-miterlimit="10"/>
<path d="M-138.755 1394.64C-138.755 1394.64 -136.859 1303.21 -108.645 1290.62C-80.9574 1278.26 -60.7275 1333.52 -24.791 1323.02C9.03413 1313.14 26.5058 1301.35 32.1397 1237.38C32.5577 1232.59 33.0084 1227.55 33.4148 1222.23C39.1375 1143.7 34.9804 1149.47 43.4994 1018.56C52.0196 887.747 49.5739 855.747 121.24 822.534C134.429 816.408 147.504 814.003 160.578 814.985C211.952 819.056 261.973 869.999 313.144 943.344C321.27 954.898 329.539 967.098 337.809 979.878C410.719 1092.39 443.329 1162.04 485.663 1173.51C527.235 1184.77 521.159 1142.74 539.373 1105.34C555.993 1071.42 555.832 1042.26 586.165 1030.34C588.162 1029.57 590.297 1028.93 592.544 1028.25C630.174 1016.87 632.248 976.334 645.796 883.828C648.307 866.637 650.207 850.492 651.302 835.719C656.272 767.373 640.892 720.222 682.653 724.655C722.644 728.895 713.755 717.034 762.433 766.128C777.503 781.329 793.121 793.302 817.177 823.346C916.775 947.823 924.369 969.047 989.494 1013.84" stroke="#33445C" stroke-width="0.64" stroke-miterlimit="10"/>
<path d="M-133.199 1375.84C-133.199 1375.84 -131.559 1284.98 -103.753 1272C-76.5548 1259.31 -56.7835 1312.72 -21.0783 1302.78C12.5804 1293.43 29.571 1280.47 35.6755 1217.24C36.1294 1212.5 36.6461 1207.51 37.0885 1202.23C43.679 1124.41 40.3528 1131.33 49.3232 1002.14C58.2711 873.068 56.0662 840.829 127.059 807.843C140.129 801.748 153.126 799.337 166.083 800.351C217.226 804.507 266.826 855.004 317.757 927.426C325.805 938.874 334.067 950.949 342.311 963.635C414.602 1074.84 447.154 1143.98 489.521 1155.28C531.02 1166.36 525.304 1124.65 543.471 1087.26C559.98 1053.49 559.943 1024.33 589.964 1012.08C591.931 1011.29 594.06 1010.63 596.277 1009.93C633.658 997.987 635.573 957.036 649.284 865.346C651.849 848.167 653.921 832.103 655.171 817.441C660.915 749.829 645.834 703.433 687.762 708.506C727.943 713.378 718.855 702.303 768.002 750.289C783.487 765.431 799.019 776.011 823.35 806.236C922.506 929.312 930.375 950.818 994.841 995.509" stroke="#33445C" stroke-width="0.64" stroke-miterlimit="10"/>
<path d="M-126.912 1355.59C-126.912 1355.59 -125.55 1265.31 -98.1215 1251.95C-71.4136 1238.93 -51.8485 1291.36 -16.6271 1281.12C16.6486 1271.46 33.351 1258.17 39.9497 1195.67C40.4397 1190.97 40.9924 1186.02 41.5069 1180.83C48.9477 1103.75 46.4873 1111.75 55.8856 984.299C65.2911 856.975 63.2908 824.454 133.622 791.742C146.598 785.671 159.476 783.292 172.362 784.324C223.251 788.572 272.602 838.502 323.168 910.109C331.161 921.445 339.392 933.401 347.606 945.969C419.278 1055.87 451.777 1124.52 494.172 1135.64C535.598 1146.53 530.217 1105.13 548.354 1067.73C564.776 1034.11 564.804 1004.9 594.549 992.379C596.51 991.563 598.609 990.888 600.796 990.165C637.928 977.656 639.684 936.292 653.582 845.413C656.2 828.245 658.469 812.256 659.881 797.729C666.421 730.844 651.639 685.205 693.686 690.929C734.029 696.416 724.795 686.137 774.357 733.003C790.274 748.058 805.685 757.304 830.302 787.657C929.016 909.331 937.155 931.095 1000.94 975.687" stroke="#33445C" stroke-width="0.64" stroke-miterlimit="10"/>
<path d="M-119.937 1334.1C-119.937 1334.1 -118.83 1244.39 -91.8034 1230.65C-65.6029 1217.34 -46.2502 1268.76 -11.4827 1258.23C21.4039 1248.25 37.8478 1234.65 44.8935 1172.89C45.4195 1168.23 46.0381 1163.34 46.5886 1158.19C54.8971 1081.82 53.2616 1090.94 63.1113 965.219C72.9507 839.652 71.1787 806.844 140.818 774.388C153.682 768.373 166.477 765.965 179.268 767.021C229.92 771.23 278.988 820.754 329.206 891.516C337.162 902.71 345.369 914.572 353.534 927.051C424.611 1035.65 457.027 1103.78 499.439 1114.77C540.785 1125.45 535.752 1084.42 553.86 1047C570.17 1013.54 570.299 984.33 599.762 971.499C601.693 970.666 603.792 969.991 605.967 969.22C642.843 956.121 644.453 914.39 658.508 824.304C661.179 807.148 663.621 791.24 665.195 776.848C672.508 710.696 658.019 665.789 700.239 672.176C740.772 678.296 731.41 668.784 781.346 714.567C797.702 729.557 812.979 737.423 837.888 767.926C936.16 888.199 944.576 910.245 1007.67 954.737" stroke="#33445C" stroke-width="0.64" stroke-miterlimit="10"/>
<path d="M-112.274 1311.57C-112.274 1311.57 -111.445 1222.44 -84.8026 1208.3C-59.0921 1194.65 -39.9457 1245.09 -5.66192 1234.26C26.8243 1224 43.0211 1210.04 50.5435 1149.04C51.1056 1144.42 51.7838 1139.56 52.4002 1134.47C61.5529 1058.82 60.7719 1069.08 71.073 945.088C81.334 821.232 79.773 788.166 148.775 755.979C161.544 749.987 174.221 747.61 186.94 748.686C237.362 752.98 286.163 801.966 336.011 871.89C343.912 882.972 352.088 894.716 360.228 907.1C430.68 1014.37 463.049 1082.03 505.489 1092.84C546.739 1103.34 542.088 1062.62 560.148 1025.21C576.348 991.902 576.601 962.686 605.752 949.532C607.677 948.675 609.746 947.983 611.886 947.171C648.536 933.499 649.964 891.36 664.181 802.092C666.906 784.947 669.521 769.12 671.274 754.833C679.367 689.438 665.193 645.258 707.533 652.296C748.233 659.055 738.784 650.274 789.07 694.979C805.894 709.923 821.015 716.413 846.21 747.044C943.993 865.928 952.731 888.244 1015.14 932.612" stroke="#33445C" stroke-width="0.64" stroke-miterlimit="10"/>
<path d="M-103.938 1288.13C-103.938 1288.13 -103.382 1199.6 -77.123 1185.05C-51.9199 1171.11 -32.9622 1220.54 0.837786 1209.41C32.9349 1198.82 48.8733 1184.54 56.8426 1124.29C57.4582 1119.68 58.1786 1114.89 58.8373 1109.86C68.8577 1034.91 68.9251 1046.29 79.6539 924.035C90.3788 801.954 89.0285 768.631 157.356 736.67C170.007 730.71 182.613 728.351 195.208 729.434C245.393 733.79 293.927 782.24 343.41 851.349C351.257 862.318 359.402 873.943 367.512 886.21C437.344 992.171 469.655 1059.32 512.128 1069.96C553.299 1080.27 548.99 1039.88 567.02 1002.45C583.138 969.32 583.463 940.086 612.326 926.603C614.221 925.728 616.26 925.018 618.369 924.189C654.788 909.92 656.063 867.391 670.444 778.94C673.222 761.806 676.004 746.037 677.948 731.902C686.814 667.24 672.939 623.817 715.453 631.518C756.343 638.909 746.807 630.859 797.45 674.509C814.712 689.39 829.699 694.499 855.187 725.282C952.504 842.77 961.542 865.362 1023.27 909.63" stroke="#33445C" stroke-width="0.64" stroke-miterlimit="10"/>
<path d="M-94.9613 1264.04C-94.9613 1264.04 -94.7077 1176.1 -68.8032 1161.16C-44.1137 1146.9 -25.3385 1195.34 7.97766 1183.9C39.7155 1173.01 55.3656 1158.4 63.8055 1098.88C64.4571 1094.31 65.2198 1089.59 65.9618 1084.59C76.85 1010.35 77.7483 1022.88 88.9286 902.348C100.057 782.006 98.9418 748.421 166.602 716.71C179.164 710.798 191.639 708.423 204.17 709.548C254.094 713.972 302.391 761.902 351.504 830.172C359.32 841.024 367.433 852.53 375.471 864.714C444.685 969.371 476.943 1036.03 519.444 1046.49C560.541 1056.61 556.568 1016.54 574.575 979.118C590.582 946.139 591.031 916.897 619.582 903.091C621.447 902.199 623.48 901.466 625.583 900.613C661.77 885.747 662.875 842.859 677.406 755.177C680.238 738.054 683.193 722.366 685.299 708.366C694.914 644.444 681.385 601.764 724.018 610.116C765.076 618.147 755.499 610.815 806.445 653.401C824.17 668.211 839.006 671.969 864.81 702.896C961.644 819.02 970.975 841.863 1032.04 886.026" stroke="#33445C" stroke-width="0.64" stroke-miterlimit="10"/>
<path d="M-85.3386 1239.43C-85.3386 1239.43 -85.3574 1152.09 -59.8431 1136.73C-35.661 1122.16 -17.0746 1169.59 15.7578 1157.85C47.1127 1146.65 62.5219 1131.7 71.385 1072.93C72.0727 1068.4 72.895 1063.71 73.6854 1058.8C85.4352 985.249 87.1881 998.924 98.7962 880.126C110.389 761.559 109.478 727.692 176.446 696.237C188.89 690.357 201.295 688 213.724 689.126C263.418 693.636 311.425 741.035 360.19 808.461C367.952 819.2 376.034 830.588 384.047 842.677C452.618 946.036 484.847 1012.2 527.382 1022.5C568.406 1032.43 564.709 992.643 582.746 955.24C598.582 922.382 599.192 893.174 627.46 879.063C629.319 878.147 631.329 877.42 633.396 876.526C669.351 861.063 670.304 817.785 684.998 730.92C687.883 713.809 691.011 698.202 693.296 684.306C703.69 621.142 690.454 579.194 733.254 588.185C774.502 596.849 764.886 590.235 816.118 631.785C834.31 646.549 848.984 648.909 875.08 679.987C971.406 794.751 981.079 817.834 1041.48 861.868" stroke="#33445C" stroke-width="0.64" stroke-miterlimit="10"/>
<path d="M-75.1073 1214.54C-75.1073 1214.54 -75.4223 1127.8 -50.2683 1112.03C-26.5937 1097.17 -8.19596 1143.58 24.1527 1131.54C55.1246 1120.03 70.2692 1104.75 79.6029 1046.72C80.3266 1042.23 81.2087 1037.57 82.0413 1032.73C94.6589 959.883 97.2427 974.706 109.302 857.635C121.323 740.802 120.646 706.672 186.953 675.491C199.302 669.635 211.588 667.31 223.941 668.43C273.398 673.002 321.144 719.887 369.539 786.475C377.246 797.102 385.297 808.372 393.279 820.343C461.231 922.397 493.401 988.041 535.97 998.18C576.891 1007.91 573.56 968.461 591.549 931.071C607.274 898.369 607.985 869.159 635.965 854.719C637.794 853.786 639.798 853.035 641.835 852.123C677.582 836.057 678.365 792.419 693.191 706.354C696.131 689.254 699.437 673.752 701.901 659.961C713.045 597.536 700.155 556.333 743.075 565.975C784.484 575.254 774.899 569.34 826.369 609.867C845.023 624.561 859.546 625.569 885.928 656.775C981.748 770.18 991.761 793.503 1051.47 837.413" stroke="#33445C" stroke-width="0.64" stroke-miterlimit="10"/>
<path d="M-64.2547 1189.5C-64.2547 1189.5 -64.8658 1103.38 -40.0721 1087.19C-16.8988 1072.06 1.32769 1117.43 33.175 1105.11C63.7579 1093.28 78.6677 1077.68 88.4483 1020.39C89.208 1015.94 90.156 1011.35 91.0483 1006.54C104.534 934.398 107.942 950.345 120.429 835.008C132.884 719.933 132.436 685.515 198.075 654.585C210.312 648.783 222.521 646.453 234.778 647.598C283.975 652.238 331.479 698.58 379.509 764.353C387.178 774.838 395.205 786.013 403.139 797.896C470.466 898.622 502.566 963.804 545.162 973.758C586.01 983.31 583.014 944.173 600.974 906.766C616.611 874.212 617.423 845.002 645.091 830.238C646.914 829.282 648.888 828.513 650.889 827.56C686.398 810.874 687.034 766.869 702.024 681.621C705.017 664.533 708.466 649.094 711.116 635.432C723.016 573.771 710.442 533.294 753.528 543.575C795.104 553.493 785.544 548.255 837.282 587.776C856.422 602.394 870.764 602.034 897.439 633.391C992.728 745.443 1003.1 768.975 1062.13 812.81" stroke="#33445C" stroke-width="0.64" stroke-miterlimit="10"/>
<path d="M-52.8495 1164.55C-52.8495 1164.55 -53.7568 1079.03 -29.3296 1062.41C-6.66373 1046.98 11.374 1091.34 42.7612 1078.72C72.9611 1066.58 87.6239 1050.61 97.8339 994.094C98.6297 989.689 99.6136 985.134 100.578 980.407C114.949 908.948 119.194 926.067 132.103 812.44C144.991 699.122 144.778 664.441 209.725 633.767C221.868 627.99 233.952 625.667 246.115 626.837C295.082 631.563 342.318 677.368 389.977 742.302C397.593 752.675 405.589 763.732 413.498 775.519C480.205 874.941 512.246 939.607 554.877 949.401C595.652 958.77 592.998 919.973 610.927 882.548C626.454 850.151 627.366 820.939 654.752 805.87C656.546 804.896 658.513 804.104 660.484 803.134C695.785 785.845 696.252 741.48 711.374 657.031C714.444 639.947 718.043 624.597 720.878 611.063C733.527 550.141 721.299 510.408 764.505 521.341C806.272 531.891 796.754 527.299 848.69 565.834C868.322 580.399 882.483 578.67 909.443 610.155C1004.2 720.854 1014.94 744.62 1073.28 788.331" stroke="#33445C" stroke-width="0.64" stroke-miterlimit="10"/>
<path d="M-40.8482 1139.85C-40.8482 1139.85 -42.0516 1054.94 -17.9848 1037.91C4.17985 1022.21 22.0165 1065.5 52.9025 1052.61C82.7431 1040.16 97.1412 1023.85 107.798 968.079C108.624 963.692 109.674 959.195 110.68 954.533C125.912 883.759 130.989 902.025 144.355 790.15C157.701 678.583 157.669 643.627 221.972 613.198C233.997 607.452 246.01 605.147 258.078 606.342C306.808 611.129 353.784 656.421 401.072 720.516C408.633 730.777 416.598 741.716 424.476 753.385C490.541 851.508 522.553 915.677 565.217 925.31C605.889 934.478 603.624 896.01 621.5 858.574C636.916 826.331 637.953 797.113 665.027 781.72C666.79 780.729 668.751 779.913 670.693 778.925C705.78 761.01 706.106 716.302 721.338 632.659C724.462 615.587 728.24 600.341 731.23 586.919C744.635 526.76 732.729 487.776 776.102 499.348C818.036 510.538 808.584 506.586 860.717 544.134C880.835 558.622 894.821 555.549 922.074 587.185C1016.3 696.53 1027.4 720.53 1085.06 764.142" stroke="#33445C" stroke-width="0.64" stroke-miterlimit="10"/>
<path d="M-28.2963 1115.61C-28.2963 1115.61 -29.7896 1031.34 -6.08931 1013.87C15.5741 997.891 33.2395 1040.15 63.618 1026.95C93.0695 1014.17 107.233 997.554 118.313 942.528C119.198 938.175 120.29 933.744 121.357 929.117C137.48 859.045 143.364 878.466 157.176 768.294C170.956 658.485 171.151 623.242 234.77 593.093C246.699 587.372 258.594 585.098 270.585 586.288C319.085 591.16 365.764 635.897 412.712 699.172C420.241 709.314 428.175 720.135 436.005 731.715C501.451 828.534 533.41 892.21 576.102 901.66C616.701 910.644 614.772 872.493 632.624 835.063C647.929 802.976 649.073 773.78 675.852 758.035C677.604 756.996 679.517 756.192 681.452 755.181C716.325 736.639 716.481 691.571 731.877 608.745C735.054 591.684 739.004 576.519 742.173 563.202C756.334 503.806 744.768 465.543 788.261 477.767C830.385 489.589 821.017 486.247 873.312 522.868C893.922 537.304 907.698 532.844 935.267 564.625C1028.95 672.648 1040.43 696.851 1097.4 740.339" stroke="#33445C" stroke-width="0.64" stroke-miterlimit="10"/>
<path d="M-15.2279 1092C-15.2279 1092 -17.0111 1008.35 6.31646 990.425C27.4611 974.206 44.9429 1015.37 74.8675 1001.89C103.954 988.779 117.882 971.841 129.392 917.587C130.313 913.276 131.465 908.88 132.573 904.317C149.582 834.924 156.303 855.517 170.543 747.079C184.757 639.028 185.187 603.521 248.131 573.598C259.949 567.932 271.766 565.653 283.663 566.867C331.902 571.808 378.344 616.025 424.921 678.461C432.396 688.492 440.299 699.194 448.104 710.68C512.931 806.194 544.832 869.355 587.558 878.643C628.083 887.445 626.489 849.61 644.318 812.187C659.512 780.255 660.756 751.058 687.248 734.984C688.969 733.927 690.877 733.1 692.782 732.071C727.434 712.879 727.433 667.498 742.961 585.472C746.192 568.422 750.315 553.339 753.67 540.15C768.562 481.524 757.336 443.981 800.996 456.843C843.287 469.304 834.027 466.567 886.501 502.23C907.62 516.583 921.198 510.785 949.053 542.693C1042.18 649.369 1054.05 673.799 1110.36 717.182" stroke="#33445C" stroke-width="0.64" stroke-miterlimit="10"/>
<path d="M-1.64023 1069.21C-1.64023 1069.21 -3.73707 986.2 19.2477 967.831C39.891 951.338 57.1717 991.445 86.5951 977.689C115.298 964.273 129.003 946.964 140.942 893.483C141.9 889.213 143.117 884.875 144.268 880.378C162.162 811.663 169.69 833.411 184.381 726.701C199.023 620.383 199.725 584.754 261.947 554.97C273.676 549.352 285.363 547.056 297.188 548.289C345.197 553.316 391.373 596.996 437.578 658.593C444.999 668.511 452.871 679.095 460.651 690.487C524.836 784.702 556.707 847.365 599.461 856.47C639.89 865.094 638.655 827.57 656.454 790.129C671.56 758.347 672.906 729.149 699.091 712.775C700.806 711.695 702.684 710.85 704.553 709.78C738.991 689.961 738.85 644.238 754.511 563.011C757.795 545.973 762.068 530.977 765.608 517.917C781.232 460.06 770.37 423.231 814.173 436.738C856.631 449.839 847.501 447.699 900.115 482.441C921.743 496.712 935.117 489.551 963.264 521.611C1055.82 626.969 1068.06 651.58 1123.72 694.857" stroke="#33445C" stroke-width="0.64" stroke-miterlimit="10"/>
<path d="M12.4625 1047.42C12.4625 1047.42 10.0757 965.045 32.694 946.241C52.8186 929.505 69.9455 968.539 98.8912 954.504C127.229 940.753 140.676 923.132 153.038 870.401C154.031 866.172 155.285 861.875 156.525 857.43C175.305 789.394 183.646 812.319 198.789 707.337C213.864 602.777 214.794 566.861 276.349 537.327C287.965 531.763 299.552 529.469 311.282 530.727C359.054 535.815 404.963 578.958 450.805 639.741C458.188 649.517 466.036 660.006 473.761 671.285C537.326 764.196 569.145 826.367 611.927 835.288C652.282 843.729 651.383 806.522 669.159 769.087C684.153 737.46 685.6 708.261 711.497 691.558C713.183 690.46 715.054 689.592 716.894 688.505C751.111 668.035 750.836 621.993 766.607 541.572C769.944 524.545 774.39 509.63 778.109 496.675C794.459 439.564 783.943 403.479 827.889 417.631C870.538 431.364 861.533 429.799 914.261 463.626C936.405 477.838 949.55 469.321 978.008 501.502C1069.99 605.544 1082.64 630.351 1137.61 673.529" stroke="#33445C" stroke-width="0.64" stroke-miterlimit="10"/>
<path d="M27.0587 1026.85C27.0587 1026.85 24.3645 945.131 46.6275 925.839C66.2571 908.853 83.1767 946.804 111.621 932.494C139.593 918.41 152.829 900.465 165.591 848.488C166.614 844.277 167.934 840.039 169.216 835.658C188.905 768.296 198.036 792.405 213.624 689.126C229.133 586.323 230.298 550.144 291.184 520.86C302.706 515.322 314.198 513.052 325.828 514.311C373.369 519.484 419.012 562.091 464.458 622.041C471.787 631.705 479.604 642.076 487.281 653.267C550.198 744.855 581.987 806.528 624.785 815.318C665.038 823.559 664.528 786.68 682.25 749.233C697.134 717.762 698.704 688.555 724.29 671.53C725.945 670.414 727.817 669.546 729.62 668.418C763.641 647.292 763.202 600.913 779.082 521.298C782.473 504.282 787.092 489.448 790.972 476.628C808.054 420.286 797.902 384.915 841.991 399.713C884.807 414.085 875.974 413.081 928.8 446.024C951.453 460.153 964.394 450.274 993.15 482.629C1084.54 585.384 1097.62 610.359 1151.9 653.437" stroke="#33445C" stroke-width="0.64" stroke-miterlimit="10"/>
<path d="M42.0965 1007.67C42.0965 1007.67 39.0949 926.619 61.0088 906.861C80.1196 889.631 96.8793 926.486 124.846 911.898C152.436 897.508 165.448 879.192 178.615 827.994C179.698 823.818 181.06 819.645 182.379 815.306C202.952 748.621 212.915 773.879 228.93 672.334C244.873 571.288 246.272 534.846 306.461 505.795C317.865 500.287 329.262 498.042 340.821 499.32C388.102 504.561 433.508 546.648 478.577 605.736C485.875 615.281 493.637 625.54 501.29 636.636C563.564 726.927 595.301 788.108 638.15 796.707C678.33 804.765 678.155 768.202 695.853 730.762C710.626 699.446 712.298 670.239 737.595 652.884C739.244 651.745 741.086 650.859 742.859 649.713C776.659 627.937 776.087 581.24 792.1 502.424C795.544 485.419 800.312 470.673 804.396 457.951C822.21 402.379 812.403 367.752 856.636 383.195C899.642 398.2 890.952 397.74 943.898 429.791C967.084 443.832 979.78 432.626 1008.87 465.097C1099.69 566.535 1113.17 591.707 1166.77 634.662" stroke="#33445C" stroke-width="0.64" stroke-miterlimit="10"/>
<path d="M57.5962 990.071C57.5962 990.071 54.3047 909.651 75.8521 889.458C94.474 872.002 111.044 907.744 138.51 892.881C165.733 878.158 178.535 859.517 192.102 809.075C193.221 804.939 194.642 800.801 196.033 796.544C217.515 730.533 228.267 756.974 244.734 657.157C261.111 557.869 262.715 521.145 322.266 492.362C333.582 486.903 344.878 484.659 356.336 485.938C403.386 491.265 448.525 532.814 493.224 591.064C500.467 600.497 508.222 610.631 515.82 621.616C577.475 710.601 609.159 771.291 652.036 779.705C692.143 787.58 692.31 751.358 709.949 713.883C724.64 682.74 726.413 653.531 751.398 635.853C753.017 634.697 754.853 633.788 756.591 632.601C790.164 610.15 789.463 563.158 805.586 485.148C809.108 468.148 814.025 453.489 818.293 440.896C836.816 386.099 827.396 352.18 871.773 368.268C914.952 383.936 906.445 383.984 959.471 415.181C983.167 429.139 995.665 416.594 1025.04 449.192C1115.24 549.326 1129.18 574.683 1182.11 617.509" stroke="#33445C" stroke-width="0.64" stroke-miterlimit="10"/>
<path d="M73.5538 974.221C73.5538 974.221 69.961 894.486 91.1769 873.799C109.286 856.123 125.666 890.751 152.654 875.609C179.513 860.551 192.073 841.569 206.076 791.923C207.231 787.829 208.712 783.725 210.145 779.533C232.536 714.195 244.078 741.82 260.99 643.707C277.801 546.176 279.64 509.189 338.493 480.639C349.69 475.21 360.885 472.968 372.255 474.295C419.069 479.683 463.941 520.696 508.275 578.131C515.464 587.452 523.188 597.468 530.761 608.357C591.773 696.044 623.422 756.212 666.333 764.466C706.343 772.164 706.87 736.253 724.484 698.784C739.065 667.796 740.938 638.587 765.635 620.579C767.249 619.4 769.054 618.473 770.762 617.268C804.132 594.138 803.28 546.856 819.536 469.645C823.111 452.657 828.184 438.109 832.631 425.621C851.862 371.6 842.806 338.395 887.326 355.128C930.696 371.428 922.372 371.985 975.455 402.333C999.683 416.202 1011.93 402.308 1041.62 435.051C1131.23 533.897 1145.59 559.422 1197.84 602.148" stroke="#33445C" stroke-width="0.64" stroke-miterlimit="10"/>
<path d="M89.9061 960.366C89.9061 960.366 86.0058 881.293 106.867 860.117C124.487 842.215 140.677 875.73 167.14 860.32C193.633 844.928 205.982 825.622 220.361 776.737C221.546 772.661 223.099 768.639 224.568 764.489C247.869 699.822 260.194 728.608 277.563 632.247C294.809 536.473 296.875 499.199 355.067 470.923C366.17 465.519 377.27 463.301 388.539 464.629C435.099 470.11 479.728 510.579 523.691 567.175C530.849 576.378 538.518 586.282 546.067 597.076C606.436 683.465 638.056 743.135 681.001 751.229C720.938 758.743 721.8 723.149 739.391 685.686C753.86 654.854 755.835 625.643 780.244 607.307C781.827 606.109 783.626 605.159 785.304 603.937C818.448 580.132 817.492 532.549 833.833 456.15C837.462 439.174 842.707 424.707 847.334 412.324C867.273 359.078 858.605 326.581 903.268 343.959C946.805 360.898 938.711 361.951 991.833 391.479C1016.59 405.236 1028.6 390.039 1058.6 422.904C1147.6 520.469 1162.39 546.132 1213.96 588.758" stroke="#33445C" stroke-width="0.64" stroke-miterlimit="10"/>
<path d="M106.66 948.632C106.66 948.632 102.459 870.244 122.964 848.579C140.102 830.474 156.096 862.852 182.088 847.187C208.21 831.437 220.377 811.824 235.132 763.701C236.377 759.659 237.942 755.685 239.501 751.587C263.734 687.587 276.825 717.564 294.64 622.906C312.319 528.89 314.62 491.352 372.138 463.302C383.128 457.953 394.128 455.736 405.32 457.059C451.643 462.602 496.011 502.557 539.604 558.315C546.701 567.382 554.369 577.185 561.863 587.868C621.59 672.958 653.157 732.136 696.154 740.039C735.993 747.377 737.239 712.087 754.776 674.613C769.158 643.93 771.233 614.718 795.336 596.082C796.89 594.867 798.683 593.893 800.331 592.654C833.272 568.169 832.164 520.297 848.615 444.704C852.297 427.738 857.692 413.359 862.504 401.104C883.128 348.641 874.853 316.875 919.653 334.875C963.357 352.453 955.464 353.984 1008.65 382.687C1033.96 396.349 1045.72 379.802 1076.02 412.841C1164.4 509.125 1179.62 534.956 1230.53 577.477" stroke="#33445C" stroke-width="0.64" stroke-miterlimit="10"/>
<path d="M123.795 939.225C123.795 939.225 119.316 861.516 139.443 839.369C156.068 821.044 171.866 852.285 197.363 836.37C223.119 820.285 235.069 800.325 250.206 752.986C251.487 748.986 253.112 745.047 254.719 741.037C279.861 677.71 293.742 708.871 312.002 615.917C330.115 523.658 332.645 485.833 389.477 458.064C400.373 452.739 411.278 450.547 422.375 451.895C468.467 457.523 512.563 496.918 555.791 551.86C562.833 560.816 570.471 570.5 577.94 581.088C637.024 664.88 668.563 723.56 711.586 731.279C751.353 738.433 752.934 703.46 770.448 665.992C784.719 635.465 786.901 606.276 810.71 587.287C812.257 586.048 814.014 585.033 815.638 583.8C848.346 558.618 847.141 510.468 863.701 435.68C867.461 418.72 872.981 404.434 878.002 392.302C899.328 340.59 891.446 309.556 936.389 328.201C980.284 346.412 972.616 348.415 1025.84 376.323C1051.68 389.872 1063.2 372.023 1093.81 405.183C1181.56 500.193 1197.25 526.178 1247.47 568.599" stroke="#33445C" stroke-width="0.64" stroke-miterlimit="10"/>
<path d="M141.313 932.347C141.313 932.347 136.539 855.347 156.298 832.664C172.441 814.136 188.043 844.24 213.038 828.052C238.429 811.633 250.192 791.342 265.705 744.765C267.021 740.806 268.712 736.925 270.379 732.951C296.454 670.29 311.101 702.641 329.812 611.414C348.359 520.914 351.1 482.831 407.282 455.282C418.059 449.989 428.87 447.821 439.889 449.164C485.722 454.86 529.58 493.735 572.438 547.839C579.449 556.676 587.032 566.248 594.476 576.742C652.918 659.235 684.427 717.417 727.455 724.958C767.125 731.936 769.065 697.273 786.549 659.788C800.709 629.416 803.016 600.219 826.512 580.908C828.03 579.652 829.757 578.619 831.369 577.338C863.844 551.458 862.541 503.03 879.187 429.055C883 412.106 888.693 397.902 893.87 385.88C915.88 334.95 908.385 304.624 953.478 323.938C997.54 342.788 990.097 345.264 1043.36 372.352C1069.75 385.783 1081.01 366.636 1111.93 399.918C1199.04 493.653 1215.2 519.794 1264.76 562.086" stroke="#33445C" stroke-width="0.64" stroke-miterlimit="10"/>
<path d="M159.39 928.962C159.39 928.962 154.315 852.648 173.719 829.476C189.379 810.746 204.779 839.689 229.303 823.244C254.322 806.468 265.904 785.871 281.768 740.061C283.139 736.113 284.872 732.298 286.581 728.387C313.588 666.393 329.001 699.934 348.134 610.418C367.098 521.705 370.084 483.305 425.581 456.036C436.27 450.791 446.973 448.601 457.881 449.998C503.483 455.78 547.075 494.118 589.561 547.384C596.518 556.108 604.094 565.556 611.49 575.961C669.288 657.156 700.763 714.816 743.831 722.22C783.421 728.991 785.703 694.669 803.163 657.19C817.212 626.973 819.62 597.776 842.828 578.135C844.339 576.855 846.037 575.805 847.619 574.507C879.884 547.923 878.466 499.247 895.215 426.054C899.082 409.116 904.924 394.999 910.31 383.1C932.981 332.958 925.904 303.357 971.157 323.286C1015.39 342.775 1008.21 345.687 1061.47 371.992C1088.41 385.305 1099.4 364.862 1130.63 398.265C1217.11 490.725 1233.74 517.021 1282.61 559.214" stroke="#33445C" stroke-width="0.64" stroke-miterlimit="10"/>
<path d="M177.869 928.76C177.869 928.76 172.522 853.149 191.541 829.471C206.724 810.562 221.916 838.321 245.945 821.626C270.598 804.515 282.01 783.558 298.234 738.539C299.64 734.632 301.433 730.852 303.184 727.007C331.147 665.673 347.303 700.41 366.888 612.622C386.285 525.666 389.506 487.003 444.329 459.961C454.9 454.746 465.508 452.581 476.339 453.973C521.704 459.816 565.029 497.618 607.151 550.068C614.077 558.675 621.598 568.01 628.963 578.297C686.119 658.194 717.541 715.362 760.66 722.576C800.154 729.169 802.801 695.182 820.225 657.661C834.187 627.594 836.671 598.401 859.598 578.455C861.079 577.158 862.77 576.084 864.323 574.768C896.355 547.487 894.839 498.534 911.674 426.152C915.594 409.226 921.586 395.196 927.174 383.396C950.524 334.012 943.863 305.136 989.237 325.717C1033.66 345.839 1026.69 349.175 1079.99 374.738C1107.48 387.932 1118.18 366.176 1149.75 399.718C1235.57 490.933 1252.69 517.354 1300.87 559.423" stroke="#33445C" stroke-width="0.64" stroke-miterlimit="10"/>
<path d="M199.609 931.752C199.609 931.752 193.967 856.85 212.619 832.636C227.319 813.524 242.285 840.129 265.843 823.178C290.124 805.709 301.355 784.445 317.954 740.188C319.397 736.322 321.256 732.6 323.072 728.814C351.968 668.146 368.89 704.074 388.92 617.989C408.751 532.791 412.2 493.841 466.339 467.079C476.814 461.889 487.305 459.755 498.064 461.165C543.199 467.094 586.257 504.359 628.008 555.971C634.879 564.465 642.37 573.682 649.71 583.874C706.2 662.479 737.616 719.142 780.763 726.172C820.184 732.583 823.19 698.905 840.567 661.398C854.424 631.509 857.033 602.31 879.641 582.017C881.093 580.702 882.778 579.604 884.3 578.271C916.094 550.269 914.486 501.061 931.401 429.468C935.398 412.546 941.521 398.634 947.288 386.939C971.299 338.343 965.05 310.169 1010.59 331.388C1055.18 352.173 1048.49 355.892 1101.8 380.696C1129.85 393.741 1140.27 370.718 1172.16 404.405C1257.33 494.375 1274.93 520.922 1322.43 562.868" stroke="#33445C" stroke-width="0.64" stroke-miterlimit="10"/>
<path d="M222.085 936.496C222.085 936.496 216.178 862.321 234.438 837.577C248.662 818.287 263.42 843.707 286.465 826.536C310.375 808.709 321.448 787.133 338.382 743.673C339.884 739.842 341.779 736.161 343.638 732.44C373.49 672.432 391.155 709.557 411.636 625.2C431.901 541.759 435.561 502.551 489.049 476.01C499.412 470.875 509.826 468.735 520.484 470.147C565.358 476.144 608.18 512.888 649.56 563.662C656.371 572.02 663.836 581.143 671.128 591.247C726.975 668.553 758.363 724.718 801.537 731.564C840.861 737.797 844.227 704.431 861.574 666.905C875.319 637.172 878.029 607.972 900.349 587.35C901.795 586.011 903.45 584.896 904.943 583.546C936.497 554.822 934.798 505.36 951.822 434.572C955.873 417.662 962.145 403.838 968.121 392.264C992.787 344.433 986.961 317.008 1032.64 338.849C1077.4 360.272 1070.97 364.404 1124.28 388.472C1152.89 401.399 1163.04 377.079 1195.24 410.887C1279.75 499.589 1297.84 526.261 1344.66 568.131" stroke="#33445C" stroke-width="0.64" stroke-miterlimit="10"/>
<path d="M243.994 942.553C243.994 942.553 237.816 869.08 255.691 843.83C269.468 824.379 283.988 848.597 306.561 831.17C330.1 812.985 341.015 791.096 358.301 748.404C359.833 744.59 361.794 740.968 363.695 737.311C394.51 677.988 412.911 716.285 433.837 633.632C454.513 551.955 458.425 512.454 511.251 486.186C521.52 481.076 531.808 478.944 542.402 480.398C587.046 486.48 629.594 522.664 670.61 572.623C677.39 580.863 684.824 589.867 692.062 599.858C747.242 675.872 778.624 731.534 821.833 738.219C861.084 744.269 864.785 711.219 882.108 673.7C895.766 644.116 898.577 614.915 920.592 593.993C922.007 592.637 923.656 591.499 925.113 590.107C956.428 560.662 954.667 510.963 971.747 440.97C975.875 424.065 982.273 410.334 988.452 398.86C1013.77 351.793 1008.39 325.087 1054.21 347.573C1099.13 369.635 1092.98 374.15 1146.28 397.488C1175.46 410.267 1185.33 384.68 1217.86 418.603C1301.69 506.066 1320.27 532.864 1366.43 574.628" stroke="#33445C" stroke-width="0.64" stroke-miterlimit="10"/>
<path d="M265.346 949.766C265.346 949.766 258.902 877.021 276.38 851.217C289.681 831.587 303.992 854.62 326.07 836.944C349.237 818.401 360.019 796.193 377.61 754.28C379.201 750.502 381.204 746.945 383.165 743.323C414.936 684.66 434.079 724.153 455.457 643.228C476.573 563.331 480.713 523.543 532.842 497.509C542.992 492.429 553.21 490.316 563.679 491.777C608.093 497.945 650.374 533.592 691.019 582.712C697.744 590.84 705.148 599.726 712.36 609.622C766.899 684.338 798.228 739.508 841.464 746.008C880.618 751.882 884.679 719.143 901.955 681.636C915.502 652.207 918.42 623.028 940.14 601.754C941.549 600.375 943.168 599.218 944.595 597.809C975.665 567.619 973.819 517.69 991.008 448.503C995.195 431.633 1001.74 417.965 1008.1 406.619C1034.08 360.317 1029.11 334.336 1075.1 357.485C1120.22 380.18 1114.32 385.084 1167.61 407.716C1197.35 420.322 1206.93 393.499 1239.79 427.537C1322.97 513.779 1342.04 540.678 1387.52 582.313" stroke="#33445C" stroke-width="0.64" stroke-miterlimit="10"/>
<path d="M286.168 957.952C286.168 957.952 279.46 885.933 296.546 859.6C309.394 839.784 323.443 861.622 345.056 843.713C367.851 824.813 378.505 802.309 396.419 761.147C398.046 757.409 400.109 753.887 402.119 750.354C434.846 692.351 454.731 733.041 476.554 653.82C498.08 575.687 502.449 535.611 553.94 509.845C564.002 504.814 574.095 502.707 584.493 504.187C628.646 510.423 670.691 545.55 710.965 593.832C717.636 601.848 725.008 610.615 732.196 620.417C786.074 693.864 817.392 748.506 860.656 754.822C899.737 760.513 904.163 728.108 921.379 690.566C934.815 661.293 937.834 632.113 959.265 610.51C960.645 609.113 962.252 607.909 963.655 606.506C994.462 575.601 992.578 525.429 1009.82 457.036C1014.09 440.171 1020.75 426.597 1027.32 415.35C1053.93 369.818 1049.41 344.58 1095.54 368.35C1140.82 391.684 1135.2 396.971 1188.5 418.867C1218.81 431.325 1228.1 403.235 1261.27 437.395C1343.76 522.404 1363.36 549.416 1408.16 590.952" stroke="#33445C" stroke-width="0.64" stroke-miterlimit="10"/>
<path d="M306.512 966.921C306.512 966.921 299.568 895.646 316.233 868.766C328.635 848.789 342.446 869.425 363.564 851.266C385.987 832.008 396.507 809.185 414.75 768.796C416.437 765.094 418.542 761.637 420.587 758.144C454.301 700.819 474.875 742.695 497.167 665.171C519.127 588.796 523.73 548.457 574.523 522.923C584.467 517.923 594.489 515.835 604.786 517.316C648.709 523.637 690.481 558.204 730.39 605.671C737.03 613.568 744.348 622.224 751.505 631.907C804.74 704.056 836.029 758.199 879.321 764.332C918.311 769.869 923.09 737.751 940.283 700.215C953.631 671.092 956.751 641.91 977.871 619.984C979.244 618.563 980.797 617.348 982.194 615.922C1012.76 584.272 1010.81 533.863 1028.12 466.288C1032.44 449.435 1039.25 435.948 1046 424.83C1073.24 380.068 1069.18 355.543 1115.46 379.958C1160.91 403.955 1155.58 409.571 1208.86 430.791C1239.73 443.077 1248.72 413.75 1282.23 448.049C1364.04 531.819 1384.15 558.951 1428.27 600.363" stroke="#33445C" stroke-width="0.64" stroke-miterlimit="10"/>
<path d="M326.341 976.53C326.341 976.53 319.155 905.975 335.405 878.571C347.336 858.439 360.926 877.844 381.562 859.482C403.607 839.842 414 816.724 432.547 777.115C434.264 773.431 436.435 770.032 438.546 766.598C473.246 709.951 494.533 753.005 517.276 677.209C539.646 602.597 544.501 561.965 594.633 536.705C604.488 531.753 614.386 529.673 624.612 531.172C668.304 537.579 709.833 571.602 749.348 618.237C755.933 626.022 763.244 634.553 770.352 644.148C822.922 715.005 854.181 768.65 897.524 774.592C936.441 779.946 941.556 748.145 958.719 710.592C971.956 681.624 975.183 652.465 996.014 630.209C997.358 628.771 998.905 627.533 1000.27 626.065C1030.55 593.653 1028.58 543.048 1045.97 476.262C1050.36 459.413 1057.3 446.02 1064.27 435.024C1092.16 391.027 1088.52 367.227 1134.94 392.288C1180.58 416.917 1175.5 422.898 1228.77 443.413C1260.22 455.52 1268.92 424.957 1302.74 459.376C1383.85 541.938 1404.48 569.135 1447.92 610.448" stroke="#33445C" stroke-width="0.64" stroke-miterlimit="10"/>
<path d="M345.735 986.605C345.735 986.605 338.291 916.801 354.137 888.82C365.621 868.526 378.944 886.711 399.114 868.117C420.788 848.119 431.076 824.7 449.922 785.847C451.699 782.198 453.929 778.834 456.059 775.471C491.745 719.502 513.721 763.741 536.933 689.643C559.743 616.812 564.821 575.869 614.261 550.866C623.998 545.945 633.824 543.883 643.95 545.383C687.382 551.858 728.674 585.362 767.794 631.164C774.342 638.807 781.605 647.25 788.688 656.75C840.591 726.314 871.845 779.456 915.222 785.237C954.043 790.414 959.517 758.924 976.656 721.377C989.782 692.564 993.133 663.398 1013.65 640.82C1014.97 639.364 1016.51 638.102 1017.84 636.616C1047.86 603.465 1045.85 552.642 1063.29 486.65C1067.74 469.813 1074.81 456.513 1082 445.609C1110.49 402.365 1107.33 379.326 1153.91 405.002C1199.72 430.27 1194.92 436.58 1248.17 456.442C1280.19 468.378 1288.59 436.578 1322.75 471.112C1403.18 552.435 1424.32 579.751 1467.07 620.965" stroke="#33445C" stroke-width="0.64" stroke-miterlimit="10"/>
<path d="M364.67 996.952C364.67 996.952 356.99 927.892 372.416 899.364C383.477 878.902 396.531 895.868 416.212 877.048C437.509 856.668 447.693 832.948 466.826 794.905C468.639 791.296 470.936 787.991 473.108 784.693C509.779 729.401 532.468 774.82 556.131 702.449C579.352 631.382 584.687 590.17 633.46 565.416C643.102 560.52 652.81 558.489 662.835 559.991C706.036 566.551 747.056 599.494 785.812 644.481C792.305 652.013 799.536 660.337 806.589 669.719C857.826 737.991 889.075 790.628 932.479 796.225C971.203 801.225 977.06 770.039 994.145 732.481C1007.19 703.841 1010.62 674.68 1030.84 651.749C1032.15 650.27 1033.66 648.99 1034.99 647.481C1064.73 613.567 1062.69 562.525 1080.2 497.351C1084.72 480.519 1091.92 467.313 1099.29 456.538C1128.42 414.064 1125.72 391.738 1172.41 418.065C1218.4 443.996 1213.89 450.611 1267.13 469.791C1299.74 481.548 1307.82 448.518 1342.3 483.168C1422.02 563.288 1443.71 590.687 1485.81 631.794" stroke="#33445C" stroke-width="0.64" stroke-miterlimit="10"/>
<path d="M383.185 1007.44C383.185 1007.44 375.293 939.113 390.274 910.044C400.888 889.421 413.698 905.162 432.891 886.115C453.809 865.354 463.896 841.355 483.328 804.069C485.2 800.495 487.533 797.231 489.77 793.992C527.452 739.371 550.812 786.005 574.938 715.308C598.569 646.005 604.133 604.505 652.261 579.996C661.785 575.131 671.393 573.101 681.352 574.645C724.3 581.297 765.076 613.697 803.461 657.845C809.9 665.264 817.1 673.47 824.128 682.758C874.705 749.761 905.918 801.876 949.351 807.289C988.001 812.106 994.2 781.261 1011.26 743.685C1024.19 715.201 1027.74 686.033 1047.66 662.778C1048.93 661.281 1050.43 659.954 1051.71 658.458C1081.18 623.782 1079.14 572.538 1096.69 508.134C1101.27 491.313 1108.61 478.171 1116.19 467.519C1145.92 425.798 1143.69 404.232 1190.56 431.198C1236.71 457.768 1232.48 464.689 1285.72 483.24C1318.9 494.796 1326.66 460.558 1361.48 495.323C1440.5 574.234 1462.73 601.723 1504.13 642.707" stroke="#33445C" stroke-width="0.64" stroke-miterlimit="10"/>
<path d="M401.302 1017.85C401.302 1017.85 393.204 950.286 407.728 920.627C417.926 899.861 430.438 914.365 449.165 895.086C469.705 873.943 479.694 849.666 499.425 813.136C501.333 809.604 503.732 806.398 506.006 803.2C544.697 749.251 568.746 797.07 593.317 728.078C617.365 660.562 623.18 618.768 670.617 594.516C680.053 589.699 689.559 587.67 699.418 589.215C742.129 595.929 782.662 627.785 820.659 671.125C827.066 678.426 834.212 686.52 841.216 695.713C891.126 761.424 922.334 813.035 965.794 818.264C1004.35 822.903 1010.91 792.369 1027.93 754.775C1040.75 726.446 1044.41 697.277 1064.04 673.717C1065.29 672.203 1066.78 670.852 1068.05 669.332C1097.24 633.894 1095.18 582.454 1112.8 518.869C1117.45 502.053 1124.89 489.011 1132.68 478.48C1163.01 437.513 1161.26 416.683 1208.27 444.295C1254.59 471.504 1250.67 478.748 1303.85 496.629C1337.61 507.982 1345.06 472.538 1380.22 507.418C1458.52 585.126 1481.27 612.704 1522.01 653.583" stroke="#33445C" stroke-width="0.64" stroke-miterlimit="10"/>
<path d="M419.03 1028.03C419.03 1028.03 410.721 961.206 424.8 931.007C434.551 910.079 446.795 923.363 465.057 903.852C485.196 882.334 495.134 857.767 515.116 822.005C517.078 818.484 519.518 815.344 521.865 812.228C561.548 758.98 586.28 807.961 611.326 740.69C635.784 674.937 641.852 632.85 688.621 608.848C697.938 604.063 707.35 602.058 717.138 603.622C759.618 610.421 799.884 641.741 837.51 684.242C843.864 691.431 851.002 699.4 857.934 708.51C907.177 772.929 938.38 824.036 981.868 829.081C1020.35 833.537 1027.27 803.313 1044.24 765.732C1056.98 737.553 1060.74 708.406 1080.05 684.499C1081.29 682.962 1082.73 681.6 1083.99 680.032C1112.89 643.837 1110.84 592.19 1128.51 529.375C1133.23 512.594 1140.81 499.616 1148.81 489.208C1179.73 448.97 1178.49 428.918 1225.63 457.151C1272.14 484.993 1268.48 492.548 1321.65 509.777C1355.98 520.905 1363.12 484.277 1398.62 519.296C1476.2 595.825 1499.5 623.463 1539.56 664.218" stroke="#33445C" stroke-width="0.64" stroke-miterlimit="10"/>
<path d="M436.381 1037.83C436.381 1037.83 427.867 971.767 441.494 941.003C450.829 919.932 462.798 931.973 480.578 912.259C500.339 890.359 510.209 865.532 530.46 830.509C532.481 827.023 534.964 823.947 537.346 820.873C578.046 768.321 603.443 818.493 628.952 752.895C653.826 688.93 660.122 646.556 706.224 622.805C715.446 618.043 724.764 616.064 734.427 617.634C776.653 624.526 816.7 655.296 853.931 696.965C860.254 704.035 867.338 711.892 874.238 720.884C922.792 784.017 953.99 834.62 997.535 839.497C1035.92 843.801 1043.2 813.864 1060.15 776.289C1072.77 748.265 1076.64 719.117 1095.66 694.881C1096.87 693.326 1098.31 691.94 1099.53 690.355C1128.13 653.405 1126.09 601.555 1143.81 539.535C1148.6 522.759 1156.28 509.857 1164.51 499.565C1196.03 460.08 1195.26 440.765 1242.55 469.643C1289.23 498.147 1285.86 505.955 1339.03 522.579C1373.94 533.505 1380.77 495.693 1416.59 530.804C1493.46 606.131 1517.31 633.827 1556.68 674.507" stroke="#33445C" stroke-width="0.64" stroke-miterlimit="10"/>
<path d="M453.411 1047.08C453.411 1047.08 444.691 981.782 457.862 950.43C466.797 929.184 478.445 939.995 495.765 920.073C515.119 897.773 524.944 872.68 545.447 838.426C547.505 834.981 550.047 831.94 552.471 828.93C594.21 777.067 620.243 828.413 646.227 764.537C671.512 702.335 678.06 659.668 723.493 636.167C732.604 631.46 741.82 629.482 751.413 631.071C793.408 638.047 833.182 668.257 870.049 709.111C876.311 716.045 883.37 723.808 890.245 732.705C938.139 794.57 969.325 844.645 1012.9 849.338C1051.19 853.465 1058.83 823.862 1075.75 786.246C1088.27 758.401 1092.25 729.246 1110.96 704.687C1112.17 703.108 1113.57 701.705 1114.77 700.102C1143.06 662.372 1141.05 610.338 1158.8 549.118C1163.67 532.348 1171.47 519.539 1179.89 509.376C1212.01 470.62 1211.71 452.065 1259.17 481.582C1306.02 510.726 1302.93 518.815 1356.08 534.81C1391.55 545.487 1398.08 506.516 1434.24 541.741C1510.39 615.866 1534.79 643.645 1573.5 684.195" stroke="#33445C" stroke-width="0.64" stroke-miterlimit="10"/>
<path d="M470.113 1055.56C470.113 1055.56 461.211 991.016 473.907 959.105C482.426 937.716 493.776 947.29 510.631 927.135C529.607 904.454 539.364 879.101 560.135 845.585C562.253 842.175 564.838 839.199 567.322 836.224C610.077 785.056 636.768 837.57 663.198 775.398C688.899 714.984 695.693 671.999 740.465 648.772C749.48 644.09 758.602 642.136 768.094 643.727C809.852 650.765 849.366 680.461 885.862 720.477C892.093 727.293 899.097 734.943 905.948 743.746C953.152 804.324 984.333 853.895 1027.96 858.398C1066.18 862.341 1074.17 833.049 1091.04 795.445C1103.48 767.75 1107.54 738.6 1125.96 713.712C1127.14 712.115 1128.53 710.665 1129.71 709.068C1157.69 670.558 1155.7 618.34 1173.51 557.915C1178.44 541.156 1186.36 528.44 1195.01 518.393C1227.73 480.367 1227.91 462.596 1275.51 492.758C1322.53 522.541 1319.74 530.906 1372.86 546.302C1408.93 556.747 1415.11 516.628 1451.64 551.933C1527.05 624.885 1552.02 652.718 1590.05 693.168" stroke="#33445C" stroke-width="0.64" stroke-miterlimit="10"/>
<path d="M486.509 1063.16C486.509 1063.16 477.426 999.369 489.647 966.9C497.766 945.336 508.794 953.68 525.19 933.316C543.759 910.236 553.502 884.634 574.494 851.869C576.672 848.494 579.316 845.553 581.825 842.673C625.602 792.224 652.952 845.905 679.851 785.431C705.939 726.787 713.014 683.526 757.089 660.532C765.986 655.881 775.007 653.928 784.434 655.561C825.939 662.691 865.226 691.814 901.334 731.021C907.51 737.725 914.484 745.257 921.31 753.965C967.854 813.274 999.023 862.317 1042.68 866.636C1080.8 870.402 1089.15 841.421 1105.97 803.806C1118.29 776.265 1122.49 747.132 1140.59 721.898C1141.76 720.277 1143.1 718.816 1144.27 717.195C1171.93 677.911 1169.99 625.503 1187.83 565.878C1192.84 549.148 1200.88 536.479 1209.74 526.554C1243.02 489.263 1243.71 472.246 1291.47 503.048C1338.66 533.469 1336.17 542.11 1389.25 556.884C1425.89 567.079 1431.74 525.807 1468.63 561.221C1543.31 633 1568.85 660.886 1606.18 701.213" stroke="#33445C" stroke-width="0.64" stroke-miterlimit="10"/>
<path d="M502.621 1069.67C502.621 1069.67 493.379 1006.63 505.096 973.583C512.798 951.876 523.523 958.959 539.459 938.387C557.62 914.908 567.349 889.056 588.593 857.06C590.806 853.726 593.516 850.844 596.061 848.005C640.884 798.269 668.84 853.106 696.231 794.324C722.735 737.467 730.033 693.895 773.47 671.169C782.278 666.566 791.199 664.615 800.525 666.248C841.799 673.464 880.843 702.044 916.557 740.418C922.678 747.01 929.621 754.424 936.416 763.013C982.27 821.037 1013.44 869.599 1057.12 873.734C1095.15 877.323 1103.86 848.652 1120.65 811.044C1132.89 783.652 1137.16 754.524 1154.98 728.96C1156.12 727.323 1157.45 725.837 1158.58 724.176C1185.91 684.118 1184.03 631.543 1201.92 572.689C1207.01 555.964 1215.14 543.371 1224.22 533.592C1258.1 497.031 1259.29 480.792 1307.17 512.221C1354.53 543.305 1352.3 552.18 1405.38 566.372C1442.61 576.312 1448.14 533.911 1485.36 569.44C1559.33 640.039 1585.42 667.985 1622.07 708.213" stroke="#33445C" stroke-width="0.64" stroke-miterlimit="10"/>
<path d="M518.475 1074.91C518.475 1074.91 509.076 1012.62 520.294 979.017C527.603 957.16 538 962.988 553.478 942.207C571.26 918.347 580.944 892.228 602.434 860.977C604.701 857.655 607.453 854.837 610.064 852.057C655.933 803.033 684.518 859.021 712.378 801.936C739.268 746.849 746.842 702.978 789.587 680.508C798.278 675.937 807.103 674.01 816.334 675.668C857.354 682.975 896.156 711.012 931.499 748.548C937.589 755.021 944.478 762.323 951.248 770.818C996.418 827.579 1027.6 875.607 1071.31 879.558C1109.27 882.988 1118.34 854.627 1135.07 816.984C1147.2 789.748 1151.6 760.636 1169.1 734.749C1170.21 733.094 1171.54 731.585 1172.64 729.906C1199.64 689.075 1197.81 636.309 1215.74 578.256C1220.9 561.536 1229.14 549.043 1238.45 539.38C1272.89 503.531 1274.59 488.069 1322.64 520.137C1370.16 551.86 1368.22 560.988 1421.3 574.575C1459.13 584.259 1464.31 540.711 1501.88 576.348C1575.09 645.781 1601.75 673.78 1637.73 713.879" stroke="#33445C" stroke-width="0.64" stroke-miterlimit="10"/>
<path d="M534.066 1078.74C534.066 1078.74 524.508 1017.2 535.228 983.052C542.138 961.022 552.213 965.619 567.238 944.654C584.613 920.394 594.289 894.05 615.994 863.527C618.32 860.239 621.115 857.486 623.762 854.747C670.682 806.46 699.873 863.604 728.226 808.211C755.509 754.917 763.359 710.747 805.436 688.527C814.032 683.98 822.739 682.084 831.893 683.737C872.683 691.13 911.235 718.6 946.189 755.327C952.225 761.688 959.106 768.865 965.828 777.272C1010.31 832.747 1041.51 880.265 1085.24 884.031C1123.11 887.284 1132.54 859.234 1149.25 821.597C1161.27 794.54 1165.76 765.404 1182.98 739.188C1184.09 737.509 1185.37 735.959 1186.45 734.286C1213.12 692.657 1211.37 639.719 1229.33 582.466C1234.57 565.751 1242.93 553.328 1252.42 543.794C1287.43 508.656 1289.64 493.996 1337.85 526.679C1385.56 559.035 1383.9 568.421 1436.95 581.433C1475.36 590.838 1480.2 546.19 1518.13 581.912C1590.6 650.173 1617.82 678.201 1653.13 718.224" stroke="#33445C" stroke-width="0.64" stroke-miterlimit="10"/>
<path d="M549.444 1081C549.444 1081 539.728 1020.2 549.967 985.472C556.484 963.291 566.231 966.634 580.797 945.46C597.741 920.807 607.456 894.226 629.376 864.43C631.762 861.177 634.593 858.465 637.288 855.814C685.231 808.246 715.051 866.541 743.896 812.839C771.566 761.315 779.691 716.845 821.077 694.882C829.561 690.39 838.191 688.489 847.244 690.143C887.803 697.621 926.089 724.554 960.672 760.443C966.671 766.662 973.51 773.774 980.195 782.039C1023.99 836.252 1055.18 883.241 1098.97 886.817C1136.74 889.917 1146.52 862.154 1163.21 824.523C1175.14 797.615 1179.74 768.478 1196.64 741.939C1197.72 740.243 1198.98 738.675 1200.05 736.978C1226.36 694.582 1224.7 641.471 1242.68 584.995C1248 568.309 1256.45 555.938 1266.18 546.544C1301.78 512.112 1304.48 498.236 1352.83 531.564C1400.72 564.583 1399.3 574.179 1452.36 586.61C1491.35 595.736 1495.85 549.987 1534.13 585.796C1605.84 652.889 1633.66 680.965 1668.28 720.864" stroke="#33445C" stroke-width="0.64" stroke-miterlimit="10"/>
<path d="M564.638 1081.48C564.638 1081.48 554.793 1021.45 564.504 986.147C570.651 963.81 580.024 965.912 594.154 944.522C610.69 919.47 620.42 892.657 642.532 863.595C644.978 860.377 647.875 857.724 650.606 855.114C699.624 808.277 730.02 867.71 759.364 815.724C787.421 765.97 795.798 721.206 836.546 699.511C844.935 695.043 853.446 693.173 862.429 694.846C902.727 702.392 940.793 728.775 974.989 763.856C980.933 769.963 987.741 776.957 994.401 785.127C1037.51 838.053 1068.72 884.556 1112.54 887.948C1150.23 890.865 1160.38 863.412 1177.01 825.77C1188.83 799.018 1193.54 769.903 1210.15 743.035C1211.22 741.315 1212.45 739.729 1213.49 737.992C1239.44 694.804 1237.89 641.538 1255.87 585.845C1261.25 569.17 1269.81 556.869 1279.75 547.598C1315.92 513.877 1319.13 500.803 1367.64 534.746C1415.7 568.404 1414.57 578.229 1467.61 590.108C1507.18 598.955 1511.35 552.106 1549.98 588C1620.94 653.95 1649.34 682.05 1683.3 721.843" stroke="#33445C" stroke-width="0.64" stroke-miterlimit="10"/>
<path d="M579.626 1080.01C579.626 1080.01 569.647 1020.73 578.836 984.88C584.583 962.369 593.634 963.24 607.306 941.642C623.428 916.167 633.186 889.17 655.507 860.812C657.989 857.635 660.945 855.017 663.719 852.472C713.795 806.394 744.79 866.96 774.621 816.642C803.07 768.681 811.723 723.618 851.797 702.149C860.068 697.713 868.508 695.861 877.366 697.541C917.434 705.173 955.251 730.989 989.058 765.261C994.971 771.25 1001.72 778.131 1008.34 786.213C1050.74 837.884 1081.96 883.852 1125.83 887.054C1163.43 889.793 1173.94 862.675 1190.54 825.015C1202.27 798.413 1207.08 769.297 1223.39 742.105C1224.42 740.368 1225.65 738.759 1226.65 737.004C1252.25 693.025 1250.8 639.58 1268.81 584.664C1274.26 567.994 1282.95 555.763 1293.1 546.638C1329.83 513.605 1333.57 501.326 1382.21 535.945C1430.43 570.241 1429.6 580.295 1482.63 591.592C1522.79 600.136 1526.62 552.212 1565.61 588.214C1635.81 653.022 1664.8 681.144 1698.07 720.814" stroke="#33445C" stroke-width="0.64" stroke-miterlimit="10"/>
<path d="M594.474 1076.46C594.474 1076.46 584.384 1017.92 593.028 981.526C598.406 958.859 607.081 958.488 620.318 936.675C636.008 910.807 645.812 883.596 668.342 855.941C670.89 852.823 673.882 850.246 676.691 847.743C727.826 802.425 759.414 864.1 789.744 815.497C818.556 769.312 827.508 723.944 866.897 702.755C875.079 698.367 883.395 696.523 892.182 698.221C931.996 705.945 969.594 731.211 1002.98 764.657C1008.84 770.533 1015.56 777.297 1022.17 785.254C1063.88 835.662 1095.12 881.097 1139.01 884.114C1176.53 886.7 1187.39 859.869 1203.96 822.192C1215.58 795.744 1220.52 766.645 1236.51 739.107C1237.54 737.346 1238.73 735.696 1239.71 733.947C1264.95 689.177 1263.61 635.576 1281.62 581.443C1287.16 564.802 1295.93 552.624 1306.33 543.638C1343.61 511.294 1347.87 499.84 1396.67 535.074C1445.07 570.033 1444.48 580.273 1497.52 591.013C1538.26 599.255 1541.74 550.26 1581.1 586.341C1650.54 649.982 1680.12 678.152 1712.71 717.723" stroke="#33445C" stroke-width="0.64" stroke-miterlimit="10"/>
<path d="M609.155 1070.63C609.155 1070.63 598.937 1012.85 607.046 975.867C612.055 953.043 620.373 951.4 633.162 929.426C648.446 903.159 658.264 875.716 680.992 848.819C683.6 845.736 686.634 843.224 689.51 840.779C741.703 796.221 773.884 859.005 804.706 812.094C833.905 767.679 843.109 722.017 881.853 701.072C889.917 696.715 898.156 694.866 906.848 696.589C946.432 704.398 983.78 729.098 1016.78 761.735C1022.61 767.493 1029.28 774.144 1035.83 782.013C1076.84 831.165 1108.1 876.089 1152.01 878.898C1189.45 881.301 1200.67 854.781 1217.2 817.116C1228.71 790.848 1233.74 761.723 1249.44 733.856C1250.45 732.078 1251.6 730.41 1252.58 728.638C1277.44 683.083 1276.23 629.32 1294.27 575.964C1299.88 559.328 1308.76 547.226 1319.36 538.363C1357.22 506.701 1361.98 496.054 1410.92 531.933C1459.48 567.531 1459.15 577.983 1512.21 588.188C1553.52 596.127 1556.64 546.062 1596.38 582.223C1665.07 644.721 1695.24 672.914 1727.14 712.361" stroke="#33445C" stroke-width="0.64" stroke-miterlimit="10"/>
<path d="M623.727 1062.34C623.727 1062.34 613.398 1005.3 620.962 967.78C625.595 944.776 633.544 941.915 645.898 919.726C660.744 893.043 670.62 865.433 693.551 839.216C696.218 836.168 699.289 833.697 702.206 831.316C755.457 787.519 788.208 851.418 819.546 806.192C849.108 763.553 858.611 717.586 896.671 696.921C904.64 692.589 912.761 690.77 921.382 692.512C960.711 700.413 997.817 724.569 1030.45 756.367C1036.21 761.99 1042.86 768.547 1049.39 776.321C1089.69 824.216 1120.98 868.6 1164.93 871.249C1202.27 873.475 1213.86 847.289 1230.35 809.583C1241.78 783.464 1246.91 754.362 1262.3 726.172C1263.27 724.376 1264.42 722.685 1265.37 720.871C1289.84 674.531 1288.76 620.583 1306.81 568.034C1312.51 551.427 1321.49 539.371 1332.31 530.654C1370.74 499.68 1376.01 489.859 1425.11 526.353C1473.84 562.59 1473.8 573.27 1526.83 582.9C1568.71 590.512 1571.52 539.419 1611.6 575.641C1679.51 637.002 1710.28 665.189 1741.51 704.56" stroke="#33445C" stroke-width="0.64" stroke-miterlimit="10"/>
<path d="M638.194 1051.43C638.194 1051.43 627.754 995.129 634.773 957.066C639.036 933.906 646.61 929.804 658.529 907.399C672.943 880.323 682.87 852.523 705.981 826.992C708.708 823.979 711.844 821.567 714.774 819.234C769.09 776.22 802.404 841.211 834.264 797.694C864.189 756.831 873.992 710.558 911.384 690.143C919.241 685.866 927.26 684.048 935.804 685.785C974.904 693.771 1011.76 717.361 1044 748.35C1049.74 753.854 1056.33 760.299 1062.83 767.954C1102.41 814.57 1133.73 858.468 1177.72 860.902C1214.97 862.975 1226.94 837.07 1243.36 799.382C1254.68 773.419 1259.91 744.316 1275.01 715.797C1275.98 713.977 1277.09 712.244 1278.01 710.437C1302.1 663.312 1301.16 609.202 1319.21 557.437C1325.01 540.828 1334.07 528.855 1345.12 520.277C1384.11 489.992 1389.89 480.972 1439.14 518.111C1488.04 555.011 1488.24 565.854 1541.32 574.968C1583.79 582.248 1586.23 530.114 1626.7 566.409C1693.86 626.627 1725.2 654.843 1755.78 694.079" stroke="#33445C" stroke-width="0.64" stroke-miterlimit="10"/>
<path d="M654.505 1036.45C654.505 1036.45 643.978 980.879 650.421 942.259C654.308 918.92 661.507 913.575 672.997 890.979C686.974 863.487 696.976 835.49 720.272 810.669C723.059 807.691 726.237 805.343 729.227 803.045C784.607 760.815 818.485 826.898 850.861 785.066C881.125 745.986 891.233 699.43 927.957 679.266C935.72 675.013 943.645 673.22 952.071 674.988C990.916 683.066 1027.55 706.106 1059.4 736.263C1065.08 741.655 1071.64 747.981 1078.11 755.542C1117 800.926 1148.34 844.259 1192.37 846.509C1229.54 848.399 1241.84 822.811 1258.23 785.106C1269.46 759.291 1274.81 730.211 1289.59 701.345C1290.53 699.508 1291.61 697.758 1292.52 695.927C1316.21 648.023 1315.43 593.746 1333.5 542.757C1339.38 526.177 1348.53 514.256 1359.8 505.801C1399.33 476.18 1405.64 467.985 1455.05 505.764C1504.12 543.302 1504.58 554.356 1557.66 562.912C1600.71 569.866 1602.8 516.709 1643.65 553.083C1710.04 612.188 1741.98 640.398 1771.88 679.535" stroke="#33445C" stroke-width="0.64" stroke-miterlimit="10"/>
<path d="M672.3 1019.31C672.3 1019.31 661.685 964.471 667.559 925.317C671.094 901.791 677.901 895.235 688.955 872.424C702.477 844.545 712.561 816.375 736.053 792.211C738.906 789.291 742.115 786.961 745.152 784.751C801.597 743.305 836.008 810.462 868.937 770.356C899.558 733.028 909.971 686.191 946.027 666.277C953.672 662.055 961.502 660.287 969.85 662.05C1008.46 670.213 1044.85 692.686 1076.31 722.035C1081.96 727.309 1088.46 733.522 1094.92 740.989C1133.09 785.116 1164.45 827.915 1208.52 829.975C1245.61 831.712 1258.27 806.434 1274.63 768.711C1285.76 743.076 1291.22 713.965 1305.69 684.8C1306.62 682.939 1307.68 681.171 1308.56 679.323C1331.87 630.634 1331.22 576.219 1349.3 525.989C1355.25 509.415 1364.51 497.54 1376 489.254C1416.11 460.292 1422.92 452.952 1472.47 491.375C1521.71 529.553 1522.42 540.794 1575.52 548.84C1619.14 555.443 1620.86 501.293 1662.11 537.717C1727.72 595.685 1760.28 623.912 1789.48 662.926" stroke="#33445C" stroke-width="0.64" stroke-miterlimit="10"/>
<path d="M690.352 1001.32C690.352 1001.32 679.651 947.211 684.955 907.524C688.115 883.818 694.523 876.025 705.172 853.018C718.256 824.721 728.421 796.379 752.069 772.907C754.981 770.022 758.232 767.757 761.33 765.583C818.838 724.92 853.807 793.145 887.258 754.748C918.218 719.202 928.955 672.053 964.349 652.413C971.875 648.222 979.635 646.473 987.888 648.26C1026.25 656.515 1062.41 678.415 1093.48 706.955C1099.07 712.093 1105.55 718.212 1111.97 725.56C1149.44 768.431 1180.84 810.714 1224.93 812.566C1261.95 814.119 1274.97 789.152 1291.28 751.442C1302.32 725.956 1307.86 696.874 1322.04 667.355C1322.94 665.477 1323.99 663.686 1324.85 661.82C1347.74 612.352 1347.28 557.763 1365.36 508.317C1371.4 491.771 1380.75 479.948 1392.45 471.785C1433.11 443.487 1440.46 436.966 1490.16 476.035C1539.57 514.876 1540.53 526.28 1593.63 533.792C1637.84 540.039 1639.21 484.896 1680.82 521.375C1745.66 578.23 1778.82 606.451 1807.34 645.365" stroke="#33445C" stroke-width="0.64" stroke-miterlimit="10"/>
<path d="M708.522 982.622C708.522 982.622 697.733 929.24 702.462 888.994C705.27 865.102 711.285 856.098 721.499 832.875C734.128 804.192 744.374 775.677 768.219 752.861C771.191 750.012 774.484 747.811 777.618 745.678C836.197 705.822 871.699 775.121 905.696 738.428C936.989 704.641 948.055 657.203 982.758 637.82C990.196 633.677 997.831 631.935 1006.01 633.717C1044.14 642.058 1080.07 663.385 1110.73 691.122C1116.29 696.142 1122.72 702.172 1129.11 709.402C1165.85 751.023 1197.31 792.783 1241.44 794.451C1278.36 795.851 1291.73 771.171 1308.01 733.443C1318.94 708.112 1324.61 679.023 1338.48 649.182C1339.35 647.286 1340.37 645.477 1341.22 643.588C1363.69 593.347 1363.41 538.584 1381.48 489.921C1387.63 473.398 1397.04 461.61 1408.98 453.61C1450.22 425.947 1458.07 420.305 1507.93 459.989C1557.51 499.468 1558.7 511.066 1611.85 518.061C1656.62 523.958 1657.63 467.822 1699.63 504.351C1763.69 560.069 1797.46 588.307 1825.3 627.098" stroke="#33445C" stroke-width="0.64" stroke-miterlimit="10"/>
<path d="M726.746 963.448C726.746 963.448 715.87 910.797 720.03 870.018C722.485 845.94 728.085 835.729 737.892 812.309C750.06 783.216 760.418 754.545 784.419 732.422C787.456 729.631 790.785 727.472 793.955 725.379C853.605 686.332 889.628 756.657 924.177 721.69C955.804 689.662 967.175 641.942 1001.24 622.827C1008.56 618.715 1016.12 616.991 1024.2 618.774C1062.07 627.206 1097.79 647.96 1128.06 674.889C1133.58 679.79 1139.96 685.709 1146.32 692.844C1182.35 733.209 1213.83 774.434 1257.98 775.918C1294.81 777.141 1308.57 752.789 1324.8 715.05C1335.61 689.875 1341.39 660.808 1354.97 630.614C1355.83 628.694 1356.81 626.845 1357.63 624.938C1379.69 573.918 1379.6 518.981 1397.65 471.084C1403.87 454.566 1413.4 442.848 1425.53 435.001C1467.35 407.996 1475.7 403.185 1525.7 443.514C1575.44 483.632 1576.87 495.394 1630.07 501.872C1675.4 507.395 1676.05 450.29 1718.45 486.868C1781.71 541.479 1816.11 569.681 1843.29 608.389" stroke="#33445C" stroke-width="0.64" stroke-miterlimit="10"/>
<path d="M744.871 943.897C744.871 943.897 733.932 891.97 737.498 850.663C739.579 826.405 744.779 814.959 754.181 791.342C765.888 761.838 776.339 733.042 800.53 711.551C803.628 708.795 807.017 706.671 810.235 704.667C870.961 666.45 907.505 737.803 942.577 704.545C974.531 674.251 986.237 626.266 1019.61 607.408C1026.84 603.321 1034.28 601.628 1042.26 603.436C1079.91 611.954 1115.37 632.164 1145.25 658.261C1150.72 663.05 1157.04 668.856 1163.41 675.89C1198.71 715.029 1230.25 755.708 1274.42 756.984C1311.16 758.054 1325.27 733.989 1341.47 696.232C1352.2 671.206 1358.08 642.138 1371.35 611.645C1372.18 609.708 1373.16 607.835 1373.95 605.91C1395.6 554.088 1395.7 499.024 1413.74 451.886C1420.05 435.397 1429.66 423.708 1442.03 416.001C1484.39 389.637 1493.2 385.794 1543.41 426.649C1593.26 467.525 1594.98 479.361 1648.22 485.322C1694.13 490.466 1694.41 432.398 1737.2 469.024C1799.69 522.523 1834.69 550.718 1861.18 589.303" stroke="#33445C" stroke-width="0.64" stroke-miterlimit="10"/>
<path d="M762.781 924.2C762.781 924.2 751.772 872.973 754.746 831.139C756.474 806.695 761.258 794.043 770.248 770.204C781.5 740.314 792.062 711.362 816.397 690.517C819.56 687.82 822.985 685.736 826.239 683.774C888.042 646.388 925.101 718.743 960.732 687.236C993.018 658.7 1005.06 610.451 1037.77 591.843C1044.88 587.81 1052.22 586.119 1060.13 587.922C1097.52 596.531 1132.78 616.163 1162.24 641.433C1167.68 646.103 1173.95 651.798 1180.26 658.72C1214.83 696.608 1246.41 736.747 1290.63 737.833C1327.3 738.743 1341.77 714.965 1357.92 677.221C1368.54 652.374 1374.55 623.298 1387.5 592.459C1388.32 590.498 1389.25 588.613 1390.03 586.665C1411.25 534.07 1411.56 478.85 1429.58 432.478C1435.99 416.011 1445.69 404.351 1458.28 396.813C1501.21 371.084 1510.52 368.096 1560.91 409.614C1610.94 451.123 1612.87 463.135 1666.14 468.579C1712.61 473.325 1712.54 414.336 1755.72 451.011C1817.42 503.403 1853.03 531.592 1878.86 570.071" stroke="#33445C" stroke-width="0.64" stroke-miterlimit="10"/>
<path d="M780.388 904.505C780.388 904.505 769.316 854.003 771.696 811.641C773.073 787.011 777.464 773.147 786.019 749.093C796.81 718.793 807.465 689.715 831.991 669.503C835.214 666.84 838.681 664.822 841.971 662.901C904.827 626.352 942.425 699.705 978.608 669.923C1011.2 643.129 1023.57 594.615 1055.64 576.251C1062.65 572.243 1069.9 570.576 1077.71 572.404C1114.88 581.123 1149.89 600.164 1178.96 624.625C1184.34 629.16 1190.58 634.76 1196.87 641.587C1230.72 678.249 1262.35 717.842 1306.6 718.743C1343.17 719.476 1358.01 696.032 1374.12 658.247C1384.66 633.549 1390.76 604.473 1403.4 573.31C1404.2 571.332 1405.11 569.4 1405.87 567.458C1426.66 514.091 1427.15 458.696 1445.19 413.101C1451.69 396.663 1461.47 385.032 1474.28 377.64C1517.78 352.545 1527.59 350.412 1578.15 392.569C1628.35 434.717 1630.49 446.899 1683.81 451.827C1730.84 456.199 1730.42 396.264 1773.99 432.965C1834.9 484.273 1871.13 512.426 1896.27 550.782" stroke="#33445C" stroke-width="0.64" stroke-miterlimit="10"/>
<path d="M797.565 884.999C797.565 884.999 786.423 835.198 788.216 792.332C789.264 767.51 793.192 752.452 801.359 728.171C811.671 697.49 822.438 668.257 847.154 648.678C850.443 646.074 853.946 644.097 857.296 642.21C921.229 606.492 959.311 680.831 996.083 652.817C1028.99 627.734 1041.71 578.956 1073.09 560.895C1079.99 556.918 1087.14 555.276 1094.88 557.099C1131.79 565.909 1166.57 584.377 1195.26 608.053C1200.61 612.47 1206.8 617.957 1213.06 624.69C1246.15 660.108 1277.84 699.155 1322.15 699.865C1358.63 700.445 1373.84 677.282 1389.91 639.509C1400.33 614.967 1406.54 585.913 1418.89 554.398C1419.68 552.396 1420.54 550.453 1421.28 548.463C1441.62 494.33 1442.37 438.766 1460.36 393.943C1466.96 377.504 1476.81 365.955 1489.86 358.703C1533.93 334.243 1544.25 332.989 1594.94 375.767C1645.31 418.554 1647.67 430.881 1701.06 435.334C1748.67 439.303 1747.86 378.434 1791.84 415.179C1851.96 465.38 1888.82 493.52 1913.27 531.777" stroke="#33445C" stroke-width="0.64" stroke-miterlimit="10"/>
<path d="M814.199 865.839C814.199 865.839 803.017 816.756 804.188 773.345C804.878 748.313 808.39 732.049 816.157 707.594C826.008 676.503 836.898 647.162 861.751 628.204C865.106 625.659 868.639 623.699 872.037 621.901C937.023 587.02 975.638 662.332 1012.97 636.069C1046.18 612.703 1059.24 563.707 1089.97 545.867C1096.77 541.915 1103.81 540.304 1111.47 542.145C1148.13 551.047 1182.71 568.936 1210.99 591.809C1216.31 596.108 1222.42 601.513 1228.67 608.097C1261.04 642.289 1292.79 680.789 1337.11 681.292C1373.52 681.689 1389.07 658.843 1405.11 621.076C1415.46 596.707 1421.76 567.628 1433.8 535.813C1434.56 533.794 1435.41 531.827 1436.13 529.82C1456.04 474.914 1457 419.194 1474.97 375.136C1481.65 358.726 1491.61 347.199 1504.88 340.117C1549.53 316.262 1560.36 315.886 1611.19 359.31C1661.73 402.736 1664.31 415.233 1717.75 419.169C1765.9 422.717 1764.74 360.98 1809.12 397.72C1868.45 446.838 1905.93 474.941 1929.7 513.075" stroke="#33445C" stroke-width="0.64" stroke-miterlimit="10"/>
<path d="M830.168 847.229C830.168 847.229 818.917 798.847 819.501 754.932C819.832 729.69 822.934 712.244 830.29 687.569C839.662 656.096 850.669 626.624 875.707 608.275C879.128 605.788 882.697 603.87 886.131 602.113C952.176 568.093 991.288 644.337 1029.21 619.865C1062.74 598.21 1076.14 548.95 1106.19 531.414C1112.88 527.493 1119.84 525.876 1127.38 527.748C1163.81 536.736 1198.13 554.034 1226 576.105C1231.26 580.268 1237.35 585.578 1243.57 592.068C1275.19 625.04 1307 662.993 1351.35 663.288C1387.66 663.532 1403.59 640.99 1419.55 603.194C1429.78 578.981 1436.22 549.918 1447.94 517.757C1448.67 515.72 1449.52 513.729 1450.23 511.699C1469.68 456.002 1470.88 400.144 1488.85 356.845C1495.64 340.457 1505.65 328.966 1519.14 322.03C1564.37 298.81 1575.69 299.289 1626.67 343.357C1677.37 387.423 1680.15 400.072 1733.66 403.532C1782.37 406.682 1780.84 344.03 1825.63 380.789C1884.17 428.8 1922.27 456.868 1945.38 494.919" stroke="#33445C" stroke-width="0.64" stroke-miterlimit="10"/>
<path d="M845.35 829.282C845.35 829.282 834.052 781.595 834.026 737.182C834.006 711.754 836.691 693.102 843.635 668.206C852.523 636.329 863.636 606.778 888.858 589.038C892.338 586.587 895.95 584.733 899.444 583.011C966.548 549.853 1006.18 627.022 1044.67 604.324C1078.49 584.363 1092.26 534.903 1121.64 517.594C1128.24 513.721 1135.07 512.112 1142.55 514.002C1178.73 523.105 1212.84 539.8 1240.3 561.069C1245.52 565.113 1251.56 570.312 1257.76 576.707C1288.63 608.458 1320.52 645.859 1364.89 645.946C1401.12 646.037 1417.4 623.782 1433.34 585.992C1443.48 561.928 1450.02 532.865 1461.43 500.38C1462.15 498.319 1462.94 496.294 1463.62 494.27C1482.62 437.807 1484.06 381.785 1502 339.252C1508.89 322.887 1518.99 311.425 1532.7 304.658C1578.52 282.043 1590.33 283.43 1641.47 328.114C1692.34 372.819 1695.31 385.643 1748.89 388.581C1798.17 391.304 1796.24 327.795 1841.49 364.562C1899.24 411.49 1937.96 439.521 1960.39 477.449" stroke="#33445C" stroke-width="0.64" stroke-miterlimit="10"/>
<path d="M859.627 812.228C859.627 812.228 848.284 765.235 847.647 720.324C847.292 694.68 849.52 674.859 856.076 649.735C864.485 617.477 875.715 587.795 901.122 570.664C904.668 568.271 908.339 566.452 911.845 564.778C980.009 532.48 1020.15 610.552 1059.21 589.652C1093.35 571.378 1107.44 521.683 1136.16 504.672C1142.64 500.83 1149.41 499.239 1156.78 501.131C1192.73 510.319 1226.62 526.441 1253.66 546.907C1258.86 550.833 1264.82 555.949 1271.01 562.22C1301.13 592.751 1333.08 629.582 1377.51 629.502C1413.64 629.416 1430.39 607.518 1446.19 569.665C1456.28 545.791 1462.92 516.726 1473.98 483.877C1474.67 481.799 1475.45 479.75 1476.11 477.708C1494.65 420.479 1496.33 364.295 1514.26 322.521C1521.27 306.203 1531.45 294.745 1545.35 288.155C1591.75 266.144 1604.08 268.41 1655.34 313.769C1706.41 359.13 1709.54 372.09 1763.22 374.546C1813.04 376.824 1810.74 312.453 1856.42 349.233C1913.38 395.077 1952.72 423.072 1974.47 460.901" stroke="#33445C" stroke-width="0.64" stroke-miterlimit="10"/>
<path d="M872.937 796.211C872.937 796.211 861.547 749.913 860.294 704.48C859.581 678.626 861.399 657.623 867.543 632.278C875.467 599.616 886.827 569.849 912.412 553.304C916.001 550.976 919.708 549.198 923.28 547.582C992.479 516.151 1033.16 595.12 1072.8 576.04C1107.25 559.454 1121.69 509.542 1149.74 492.781C1156.13 488.964 1162.77 487.404 1170.07 489.314C1205.77 498.594 1239.46 514.137 1266.09 533.801C1271.22 537.591 1277.16 542.612 1283.32 548.765C1312.7 578.1 1344.73 614.354 1389.17 614.066C1425.24 613.82 1442.32 592.215 1458.09 554.369C1468.07 530.65 1474.84 501.602 1485.59 468.43C1486.28 466.328 1487.01 464.268 1487.67 462.173C1505.76 404.177 1507.71 347.847 1525.58 306.822C1532.67 290.532 1542.94 279.103 1557.08 272.653C1604.07 251.27 1616.87 254.398 1668.31 300.396C1719.54 346.395 1722.86 359.507 1776.62 361.465C1826.99 363.321 1824.31 298.112 1870.41 334.858C1926.56 379.648 1966.55 407.578 1987.6 445.283" stroke="#33445C" stroke-width="0.64" stroke-miterlimit="10"/>
<path d="M885.102 781.428C885.102 781.428 873.66 735.801 871.803 689.895C870.755 663.825 872.116 641.651 877.872 616.079C885.318 583.037 896.777 553.168 922.54 537.208C926.195 534.939 929.961 533.196 933.57 531.621C1003.83 501.075 1045.02 580.922 1085.23 563.64C1119.99 548.718 1134.78 498.612 1162.15 482.131C1168.42 478.345 1174.97 476.81 1182.17 478.721C1217.61 488.093 1251.09 503.033 1277.32 521.918C1282.42 525.589 1288.29 530.529 1294.44 536.556C1323.07 564.671 1355.16 600.379 1399.65 599.877C1435.62 599.478 1453.06 578.16 1468.8 540.296C1478.69 516.726 1485.56 487.677 1496 454.182C1496.66 452.063 1497.38 449.979 1498.02 447.866C1515.63 389.11 1517.83 332.612 1535.67 292.328C1542.87 276.061 1553.22 264.661 1567.56 258.387C1615.14 237.586 1628.43 241.621 1680 288.264C1731.4 334.903 1734.91 348.144 1788.75 349.649C1839.66 351.061 1836.61 285.013 1883.14 321.748C1938.5 365.456 1979.09 393.355 1999.48 430.955" stroke="#33445C" stroke-width="0.64" stroke-miterlimit="10"/>
<path d="M896.031 768.003C896.031 768.003 884.543 723.071 882.075 676.667C880.669 650.387 881.596 627.037 886.971 601.261C893.913 567.845 905.503 537.892 931.462 522.488C935.182 520.277 938.985 518.575 942.629 517.041C1013.93 487.362 1055.67 568.052 1096.44 552.645C1131.53 539.38 1146.63 489.093 1173.36 472.856C1179.54 469.119 1185.99 467.585 1193.09 469.521C1228.28 479.008 1261.53 493.351 1287.37 511.427C1292.44 514.98 1298.23 519.814 1304.38 525.741C1332.25 552.665 1364.43 587.79 1408.95 587.081C1444.83 586.528 1462.62 565.497 1478.33 527.639C1488.12 504.225 1495.09 475.175 1505.24 441.351C1505.89 439.208 1506.58 437.107 1507.19 434.976C1524.35 375.454 1526.82 318.81 1544.62 279.269C1551.93 263.024 1562.35 251.629 1576.91 245.524C1625.08 225.328 1638.88 230.266 1690.6 277.53C1742.16 324.808 1745.84 338.207 1799.78 339.207C1851.22 340.175 1847.79 273.318 1894.77 310.013C1949.32 352.667 1990.55 380.5 2010.27 417.97" stroke="#33445C" stroke-width="0.64" stroke-miterlimit="10"/>
<path d="M905.629 756.167C905.629 756.167 894.119 711.923 891.011 665.003C889.27 638.508 889.74 613.988 894.726 587.985C901.185 554.164 912.856 524.139 939.017 509.314C942.803 507.162 946.636 505.478 950.322 504.009C1022.66 475.22 1064.95 556.752 1106.28 543.173C1141.67 531.548 1157.13 481.092 1183.19 465.129C1189.25 461.422 1195.61 459.913 1202.64 461.843C1237.6 471.416 1270.64 485.156 1296.05 502.46C1301.06 505.877 1306.83 510.639 1312.94 516.424C1340.07 542.152 1372.31 576.708 1416.85 575.814C1452.66 575.102 1470.81 554.382 1486.47 516.488C1496.17 493.224 1503.24 464.196 1513.08 430.049C1513.7 427.889 1514.36 425.746 1514.96 423.616C1531.65 363.333 1534.37 306.521 1552.15 267.745C1559.57 251.546 1570.05 240.163 1584.85 234.221C1633.61 214.63 1647.9 220.453 1699.76 268.362C1751.51 316.273 1755.35 329.807 1809.39 330.349C1861.38 330.848 1857.56 263.206 1904.99 299.884C1958.75 341.455 2000.6 369.228 2019.64 406.622" stroke="#33445C" stroke-width="0.64" stroke-miterlimit="10"/>
<path d="M913.733 746.06C913.733 746.06 902.171 702.487 898.458 655.093C896.359 628.388 896.425 602.71 900.994 576.462C906.95 542.267 918.751 512.157 945.107 497.888C948.959 495.794 952.828 494.151 956.58 492.741C1029.96 464.843 1072.8 547.194 1114.69 535.489C1150.43 525.493 1166.18 474.885 1191.57 459.172C1197.52 455.496 1203.78 454.011 1210.73 455.937C1245.44 465.625 1278.27 478.738 1303.27 495.263C1308.25 498.563 1313.94 503.219 1320.03 508.909C1346.39 533.447 1378.73 567.419 1423.29 566.318C1459.01 565.429 1477.52 545.019 1493.15 507.132C1502.74 484.023 1509.92 454.994 1519.46 420.518C1520.06 418.34 1520.71 416.174 1521.28 414.002C1537.49 352.983 1540.5 295.996 1558.24 257.962C1565.8 241.78 1576.33 230.431 1591.33 224.665C1640.7 205.673 1655.45 212.387 1707.47 260.935C1759.4 309.485 1763.4 323.177 1817.54 323.214C1870.06 323.244 1865.86 254.818 1913.73 291.455C1966.69 331.973 2009.17 359.68 2027.53 396.951" stroke="#33445C" stroke-width="0.64" stroke-miterlimit="10"/>
<path d="M920.285 737.85C920.285 737.85 908.694 694.942 904.353 647.08C901.914 620.135 901.528 593.311 905.709 566.836C911.162 532.267 923.076 502.102 949.622 488.365C953.546 486.353 957.444 484.728 961.233 483.359C1035.66 456.352 1079.06 539.516 1121.48 529.668C1157.57 521.299 1173.6 470.492 1198.37 455.095C1204.22 451.444 1210.37 450.014 1217.24 451.934C1251.69 461.768 1284.32 474.225 1308.91 489.971C1313.86 493.128 1319.49 497.725 1325.57 503.291C1351.16 526.638 1383.56 560.088 1428.18 558.719C1463.82 557.724 1482.69 537.548 1498.28 499.673C1507.76 476.743 1515.06 447.684 1524.3 412.884C1524.88 410.683 1525.48 408.505 1526.04 406.31C1541.78 344.53 1545.08 287.392 1562.76 250.106C1570.43 233.97 1581.04 222.627 1596.26 217.007C1646.21 198.596 1661.45 206.218 1713.62 255.435C1765.71 304.624 1769.88 318.451 1824.13 318.03C1877.18 317.615 1872.58 248.41 1920.91 284.978C1973.07 324.442 2016.19 352.082 2033.87 389.254" stroke="#33445C" stroke-width="0.64" stroke-miterlimit="10"/>
<path d="M925.126 731.706C925.126 731.706 913.506 689.463 908.555 641.103C905.781 613.942 904.938 585.948 908.731 559.245C913.706 524.296 925.702 494.059 952.467 480.871C956.457 478.918 960.391 477.334 964.24 476C1039.71 449.908 1083.66 533.836 1126.63 525.87C1163.07 519.105 1179.41 468.165 1203.49 453.024C1209.22 449.403 1215.3 447.992 1222.05 449.92C1256.24 459.845 1288.67 471.699 1312.85 486.666C1317.77 489.705 1323.32 494.22 1329.39 499.638C1354.2 521.824 1386.71 554.638 1431.37 553.109C1466.92 551.96 1486.14 532.071 1501.7 494.179C1511.09 471.398 1518.47 442.367 1527.41 407.215C1527.97 404.996 1528.56 402.795 1529.09 400.582C1544.35 338.042 1547.92 280.758 1565.57 244.215C1573.35 228.101 1584.03 216.763 1599.48 211.337C1650.04 193.524 1665.77 202.055 1718.08 251.894C1770.34 301.745 1774.64 315.689 1829.01 314.78C1882.6 313.874 1877.6 243.937 1926.4 280.434C1977.77 318.839 2021.51 346.419 2038.5 383.468" stroke="#33445C" stroke-width="0.64" stroke-miterlimit="10"/>
<path d="M928.182 727.823C928.182 727.823 916.51 686.251 910.955 637.417C907.84 610.016 906.552 580.9 909.95 553.946C914.423 518.622 926.501 488.313 953.516 475.692C957.548 473.804 961.542 472.255 965.426 470.962C1041.92 445.767 1086.48 530.496 1129.97 524.416C1166.78 519.274 1183.41 468.181 1206.83 453.314C1212.46 449.719 1218.42 448.315 1225.1 450.285C1259.07 460.295 1291.26 471.552 1315.04 485.741C1319.89 488.644 1325.4 493.094 1331.46 498.387C1355.51 519.384 1388.12 551.592 1432.8 549.878C1468.27 548.546 1487.84 528.997 1503.37 491.088C1512.65 468.462 1520.16 439.424 1528.79 403.973C1529.34 401.73 1529.87 399.494 1530.41 397.281C1545.17 334.011 1549.05 276.569 1566.66 240.744C1574.55 224.677 1585.32 213.344 1600.96 208.094C1652.13 190.879 1668.32 200.301 1720.8 250.779C1773.25 301.263 1777.67 315.354 1832.19 313.975C1886.29 312.606 1880.89 241.914 1930.17 278.335C1980.75 315.71 2025.12 343.201 2041.45 380.144" stroke="#33445C" stroke-width="0.64" stroke-miterlimit="10"/>
<path d="M929.324 726.387C929.324 726.387 867.636 510.723 952.621 472.943C1037.61 435.163 1085.16 529.78 1131.36 525.393C1177.57 521.005 1192.47 442.96 1226.2 453.056C1259.92 463.158 1291.92 473.806 1315.27 487.222C1338.63 500.637 1375.93 551.466 1432.28 549.053C1488.63 546.64 1505.78 499.256 1528.21 403.09C1550.63 306.923 1548.67 223.831 1600.47 207.185C1652.27 190.54 1668.9 200.883 1721.52 252.006C1774.14 303.129 1778.72 317.355 1833.35 315.494C1887.98 313.633 1882.19 242.233 1931.96 278.578C1981.73 314.923 2026.73 342.324 2042.37 379.143" stroke="#33445C" stroke-width="0.64" stroke-miterlimit="10"/>
</g>
</g>
<defs>
<clipPath id="clip0_114_145">
<rect width="1727.05" height="761.283" fill="white" transform="translate(0.367188 437.451) rotate(-14.644)"/>
</clipPath>
</defs>
</svg>
