<svg width="1671" height="1174" viewBox="0 0 1671 1174" fill="none" xmlns="http://www.w3.org/2000/svg">
<g clip-path="url(#clip0_103_1217)">
<mask id="mask0_103_1217" style="mask-type:luminance" maskUnits="userSpaceOnUse" x="66" y="40" width="1656" height="947">
<path d="M75.7737 725.201C117.416 884.566 280.365 980.001 439.754 938.352C457.291 933.77 474.088 927.712 489.963 920.353C530.45 973.029 599.929 999.269 668.252 981.416C730.043 965.27 774.973 917.2 790.089 859.526C859.629 892.096 940.528 901.472 1020.64 880.539C1040.99 875.221 1060.41 868.175 1078.8 859.602C1135.29 895.33 1205.9 908.482 1275.66 890.252C1401.56 857.354 1479.82 734.135 1459.19 608.239C1467.95 607.339 1476.75 605.774 1485.53 603.48C1578.11 579.289 1633.56 484.605 1609.37 392.024C1608.11 387.197 1606.6 382.508 1604.99 377.897C1689.7 348.634 1738.94 258.608 1715.9 170.429C1691.7 77.8485 1597.02 22.3956 1504.44 46.587C1411.86 70.7783 1356.41 165.462 1380.6 258.042C1381.86 262.87 1383.34 267.565 1384.97 272.17C1324.36 293.115 1281.96 345.151 1271.15 405.389C1261.03 402.928 1250.69 401.103 1240.23 399.944C1170.19 257.604 1007.67 179.276 848.279 220.925C722.519 253.786 631.604 352.755 603.02 470.831C532.49 376.808 409.69 329.663 288.947 361.213C129.559 402.861 34.1251 565.811 75.7737 725.201Z" fill="white"/>
</mask>
<g mask="url(#mask0_103_1217)">
<path d="M-156.15 1469.27C-156.15 1469.27 -152.528 1373.89 -121.457 1363.93C-90.3917 1353.94 -68.8361 1415.05 -29.3491 1407.59C10.1615 1400.12 29.358 1388.74 29.1112 1305.07C28.8942 1221.42 18.7222 1219.45 24.1698 1076.4C29.6173 933.346 25.6433 903.238 101.995 868.219C178.353 833.224 250.27 914.75 327.484 1036.48C404.692 1158.19 437.707 1231.32 479.857 1243.92C522.013 1256.54 513.456 1212.18 531.938 1174.84C550.42 1137.5 548.167 1106.82 587.66 1099.38C627.17 1091.91 630.307 1054.28 642.562 956.147C654.816 858.012 618.559 780.694 668.013 780.514C717.461 780.31 692.986 751.564 795.272 886.134C897.564 1020.73 903.656 1039.69 973.536 1085.27" stroke="#3B95A3" stroke-width="0.64" stroke-miterlimit="10"/>
<path d="M-156.092 1465.81C-156.092 1465.81 -152.701 1371.01 -122.038 1360.64C-91.4448 1350.3 -70.1489 1410.42 -31.1097 1402.69C5.28191 1395.38 24.1958 1384.75 26.9476 1316.43C27.1493 1311.4 27.2768 1306.08 27.3116 1300.41C28.0457 1217.49 18.5914 1216.63 24.5203 1075.32C30.3719 934.009 26.6561 903.63 102.347 868.886C116.162 862.545 129.817 860.039 143.43 860.957C196.265 864.52 247.732 918.775 301.205 997.056C309.593 1009.33 318.042 1022.21 326.567 1035.58C403.091 1156.03 436.118 1228.63 478.302 1241.07C520.361 1253.51 512.163 1209.46 530.622 1172.13C547.855 1137.26 547.059 1108.09 579.192 1098.13C581.297 1097.48 583.575 1096.91 585.979 1096.43C625.199 1088.43 628.326 1050.38 640.636 953.035C642.873 935.765 643.647 919.18 643.731 903.635C643.832 830.974 626.808 779.272 667.714 779.758C706.675 780.246 699.56 763.371 744.877 819.437C757.537 835.09 773.662 855.197 796.031 884.393C897.987 1017.51 904.249 1036.83 973.439 1082.28" stroke="#3B95A3" stroke-width="0.64" stroke-miterlimit="10"/>
<path d="M-155.185 1459.61C-155.185 1459.61 -152.025 1365.37 -121.787 1354.64C-91.6604 1343.96 -70.5758 1403.17 -32.0389 1395.07C3.95848 1387.51 22.6015 1376.52 25.8178 1308.91C26.0555 1303.92 26.2427 1298.64 26.3495 1293.05C27.8331 1210.88 19.292 1211.08 25.7022 1071.52C31.9342 931.957 28.5002 901.303 103.499 866.815C117.197 860.505 130.78 858.018 144.269 858.943C196.849 862.597 248.097 916.304 301.175 993.752C309.51 1005.91 317.927 1018.68 326.398 1031.94C402.261 1151.11 435.277 1223.18 477.489 1235.44C519.475 1247.7 511.643 1203.99 530.041 1166.62C547.163 1131.91 546.468 1102.74 578.313 1092.44C580.412 1091.77 582.637 1091.19 585.034 1090.69C623.981 1082.13 626.818 1043.64 639.47 947.121C641.737 929.868 642.731 913.352 642.976 897.942C643.999 826.001 627.149 775.062 668.175 776.199C707.302 777.327 699.829 761.304 745.768 816.171C758.813 831.748 774.865 850.51 797.519 879.833C899.098 1011.5 905.571 1031.15 974.078 1076.5" stroke="#3B95A3" stroke-width="0.64" stroke-miterlimit="10"/>
<path d="M-153.48 1450.85C-153.48 1450.85 -150.558 1357.15 -120.739 1346.07C-91.1083 1335.04 -70.2474 1393.3 -32.1707 1384.89C3.44999 1377.05 21.7986 1365.71 25.5091 1298.83C25.7829 1293.88 26.0123 1288.66 26.1788 1283.11C28.5065 1201.65 20.7901 1202.98 27.6753 1065.14C34.3115 927.316 31.1419 896.416 105.473 862.178C119.076 855.893 132.541 853.436 145.959 854.38C198.309 858.12 249.284 911.266 301.997 987.899C310.301 999.938 318.664 1012.59 327.109 1025.76C402.283 1143.65 435.293 1215.21 477.533 1227.29C519.422 1239.37 511.949 1195.97 530.3 1158.61C547.335 1124.05 546.741 1094.88 578.28 1084.28C580.349 1083.59 582.574 1083.01 584.929 1082.45C623.603 1073.33 626.282 1034.43 639.12 938.717C641.44 921.476 642.63 905.035 643.008 889.742C644.821 818.505 628.259 768.376 669.445 770.128C708.74 771.894 700.925 756.694 747.468 810.391C760.899 825.894 776.9 843.303 799.823 872.784C901.048 1003 907.709 1022.98 975.55 1068.21" stroke="#3B95A3" stroke-width="0.64" stroke-miterlimit="10"/>
<path d="M-150.964 1439.67C-150.964 1439.67 -148.298 1346.55 -118.886 1335.07C-89.7217 1323.71 -69.1143 1381 -31.4915 1372.3C3.7226 1364.16 21.7891 1352.51 26.0175 1286.36C26.3273 1281.45 26.6164 1276.27 26.8252 1270.78C30.0032 1190.06 23.1054 1192.49 30.4718 1056.4C37.5121 920.311 34.6006 889.141 108.264 855.154C121.778 848.917 135.143 846.462 148.46 847.406C200.555 851.238 251.305 903.811 303.63 979.635C311.873 991.538 320.235 1004.09 328.632 1017.17C403.381 1133.63 436.144 1204.83 478.411 1216.72C520.204 1228.62 513.09 1185.53 531.412 1148.16C548.335 1113.75 547.848 1084.6 579.093 1073.66C581.156 1072.94 583.369 1072.41 585.676 1071.76C623.756 1060.85 626.621 1022.76 639.639 927.837C642.013 910.607 643.376 894.247 643.939 879.083C646.549 808.573 630.262 759.206 671.592 761.604C711.053 764.009 702.927 749.649 750.075 802.177C763.913 817.598 779.812 833.643 803.027 863.275C903.845 992.035 910.741 1012.33 977.905 1057.48" stroke="#3B95A3" stroke-width="0.64" stroke-miterlimit="10"/>
<path d="M-147.653 1426.32C-147.653 1426.32 -145.241 1333.76 -116.231 1321.91C-87.5569 1310.22 -67.1557 1366.53 -30.0166 1357.53C4.81448 1349.09 22.6164 1337.1 27.2917 1271.69C27.6375 1266.82 27.9863 1261.68 28.261 1256.24C32.2893 1176.26 26.21 1179.8 34.0516 1045.42C41.4785 911.109 38.8252 879.669 111.845 845.926C125.24 839.72 138.51 837.289 151.756 838.252C203.621 842.17 254.128 894.199 306.059 969.191C314.27 980.976 322.595 993.388 330.944 1006.38C405.098 1121.52 437.813 1192.16 480.086 1203.97C521.834 1215.61 515.051 1172.91 533.325 1135.55C550.137 1101.3 549.774 1072.14 580.707 1060.87C582.74 1060.14 584.954 1059.61 587.224 1058.92C624.91 1047.17 627.738 1008.94 640.943 914.83C643.37 897.611 644.906 881.333 645.631 866.303C649.038 796.52 633.049 747.91 674.522 750.953C714.174 753.991 705.754 740.441 753.435 791.818C767.659 807.164 783.507 821.857 806.985 851.623C907.432 978.962 914.533 999.557 981.007 1044.58" stroke="#3B95A3" stroke-width="0.64" stroke-miterlimit="10"/>
<path d="M-143.574 1410.97C-143.574 1410.97 -141.423 1318.96 -112.808 1306.76C-84.6303 1294.72 -64.2251 1350.85 -27.7739 1340.77C6.46513 1331.31 24.188 1319.7 29.3575 1255.02C29.7394 1250.2 30.1304 1245.11 30.4709 1239.74C35.3495 1160.5 30.0651 1165.14 38.4116 1032.5C46.2426 899.928 43.8475 868.219 116.176 834.732C129.453 828.557 142.652 826.145 155.797 827.109C207.402 831.095 257.665 882.581 309.231 956.758C317.388 968.431 325.688 980.748 334.006 993.617C407.541 1107.46 440.198 1177.58 482.504 1189.23C524.179 1200.69 517.738 1158.33 535.982 1120.95C552.707 1086.85 552.421 1057.7 583.066 1046.1C585.069 1045.35 587.283 1044.82 589.517 1044.08C626.826 1031.48 629.629 993.152 642.991 899.834C645.448 882.633 647.175 866.406 648.084 851.505C652.264 782.455 636.58 734.524 678.197 738.312C718.021 741.912 709.355 729.261 757.547 779.493C772.202 794.751 787.924 808.088 811.693 838.004C911.716 963.913 919.051 984.825 984.866 1029.74" stroke="#3B95A3" stroke-width="0.64" stroke-miterlimit="10"/>
<path d="M-138.755 1393.81C-138.755 1393.81 -136.859 1302.37 -108.645 1289.79C-80.9574 1277.43 -60.7275 1332.69 -24.791 1322.19C9.0342 1312.31 26.5059 1300.52 32.1398 1236.55C32.5577 1231.76 33.0084 1226.71 33.4148 1221.4C39.1375 1142.87 34.9804 1148.63 43.4995 1017.72C52.0196 886.916 49.574 854.916 121.24 821.703C134.429 815.577 147.504 813.172 160.578 814.154C211.952 818.225 261.973 869.168 313.144 942.513C321.27 954.067 329.539 966.267 337.809 979.047C410.719 1091.56 443.329 1161.21 485.663 1172.68C527.235 1183.93 521.159 1141.91 539.373 1104.51C555.993 1070.59 555.832 1041.43 586.165 1029.51C588.162 1028.74 590.297 1028.1 592.544 1027.42C630.174 1016.04 632.248 975.503 645.796 882.997C648.307 865.806 650.207 849.66 651.302 834.888C656.272 766.542 640.892 719.391 682.653 723.824C722.644 728.063 713.755 716.203 762.433 765.297C777.503 780.498 793.121 792.471 817.177 822.515C916.775 946.992 924.369 968.216 989.494 1013.01" stroke="#3B95A3" stroke-width="0.64" stroke-miterlimit="10"/>
<path d="M-133.199 1375.01C-133.199 1375.01 -131.558 1284.15 -103.752 1271.17C-76.5545 1258.48 -56.7833 1311.89 -21.0781 1301.95C12.5806 1292.6 29.5712 1279.64 35.6757 1216.41C36.1297 1211.66 36.6463 1206.68 37.0887 1201.4C43.6792 1123.58 40.353 1130.49 49.3235 1001.31C58.2714 872.236 56.0665 839.997 127.059 807.011C140.13 800.915 153.127 798.505 166.083 799.519C217.226 803.675 266.827 854.172 317.757 926.594C325.805 938.042 334.067 950.117 342.312 962.803C414.603 1074.01 447.154 1143.15 489.522 1154.45C531.021 1165.53 525.304 1123.81 543.471 1086.43C559.98 1052.66 559.943 1023.5 589.964 1011.25C591.931 1010.46 594.06 1009.8 596.278 1009.1C633.658 997.155 635.573 956.204 649.284 864.514C651.849 847.335 653.921 831.271 655.172 816.609C660.915 748.997 645.834 702.601 687.762 707.674C727.944 712.546 718.856 701.471 768.002 749.457C783.487 764.599 799.019 775.179 823.35 805.404C922.506 928.48 930.375 949.986 994.841 994.676" stroke="#3B95A3" stroke-width="0.64" stroke-miterlimit="10"/>
<path d="M-126.912 1354.76C-126.912 1354.76 -125.55 1264.48 -98.1214 1251.12C-71.4134 1238.1 -51.8484 1290.53 -16.6269 1280.29C16.6488 1270.63 33.3512 1257.34 39.9499 1194.84C40.4399 1190.14 40.9926 1185.19 41.5071 1180C48.9478 1102.92 46.4875 1110.92 55.8858 983.468C65.2913 856.143 63.291 823.623 133.622 790.911C146.598 784.84 159.477 782.461 172.362 783.493C223.251 787.741 272.602 837.671 323.168 909.278C331.161 920.614 339.392 932.57 347.606 945.138C419.278 1055.04 451.777 1123.69 494.172 1134.81C535.598 1145.7 530.217 1104.3 548.354 1066.9C564.776 1033.28 564.804 1004.07 594.549 991.548C596.51 990.732 598.609 990.057 600.796 989.334C637.928 976.825 639.684 935.461 653.582 844.582C656.2 827.414 658.469 811.425 659.881 796.898C666.421 730.013 651.639 684.374 693.687 690.098C734.029 695.585 724.795 685.306 774.357 732.172C790.274 747.227 805.685 756.473 830.302 786.826C929.016 908.5 937.155 930.264 1000.94 974.856" stroke="#3B95A3" stroke-width="0.64" stroke-miterlimit="10"/>
<path d="M-119.937 1333.27C-119.937 1333.27 -118.83 1243.56 -91.8033 1229.82C-65.6028 1216.51 -46.2502 1267.93 -11.4827 1257.4C21.404 1247.42 37.8479 1233.82 44.8936 1172.06C45.4196 1167.4 46.0381 1162.51 46.5886 1157.36C54.8972 1080.98 53.2616 1090.11 63.1113 964.388C72.9508 838.821 71.1788 806.014 140.818 773.558C153.682 767.542 166.477 765.134 179.268 766.191C229.92 770.4 278.988 819.923 329.206 890.686C337.162 901.88 345.369 913.741 353.534 926.221C424.611 1034.82 457.027 1102.95 499.439 1113.94C540.785 1124.62 535.752 1083.59 553.86 1046.17C570.17 1012.71 570.299 983.499 599.762 970.668C601.693 969.835 603.792 969.16 605.967 968.39C642.843 955.29 644.453 913.559 658.508 823.474C661.179 806.317 663.621 790.409 665.195 776.017C672.508 709.865 658.019 664.959 700.239 671.346C740.772 677.466 731.41 667.954 781.346 713.736C797.702 728.727 812.979 736.592 837.888 767.096C936.16 887.368 944.576 909.415 1007.67 953.906" stroke="#3B95A3" stroke-width="0.64" stroke-miterlimit="10"/>
<path d="M-112.273 1310.74C-112.273 1310.74 -111.445 1221.61 -84.8025 1207.47C-59.0919 1193.82 -39.9455 1244.26 -5.66173 1233.43C26.8245 1223.17 43.0213 1209.21 50.5437 1148.21C51.1058 1143.59 51.784 1138.73 52.4004 1133.64C61.5531 1057.98 60.7721 1068.25 71.0732 944.256C81.3342 820.4 79.7731 787.334 148.775 755.147C161.544 749.155 174.221 746.778 186.94 747.854C237.362 752.148 286.163 801.134 336.011 871.058C343.912 882.14 352.088 893.884 360.229 906.268C430.68 1013.53 463.049 1081.2 505.489 1092C546.739 1102.51 542.088 1061.79 560.149 1024.38C576.348 991.07 576.602 961.854 605.752 948.7C607.677 947.843 609.747 947.151 611.886 946.339C648.536 932.667 649.964 890.528 664.181 801.26C666.906 784.115 669.521 768.288 671.274 754.001C679.367 688.606 665.193 644.426 707.533 651.464C748.233 658.223 738.784 649.442 789.07 694.146C805.894 709.091 821.015 715.581 846.21 746.212C943.993 865.096 952.731 887.412 1015.14 931.78" stroke="#3B95A3" stroke-width="0.64" stroke-miterlimit="10"/>
<path d="M-103.937 1287.3C-103.937 1287.3 -103.381 1198.77 -77.1227 1184.22C-51.9196 1170.28 -32.9619 1219.71 0.83803 1208.57C32.9351 1197.99 48.8735 1183.71 56.8428 1123.45C57.4584 1118.84 58.1789 1114.06 58.8375 1109.03C68.858 1034.08 68.9253 1045.46 79.6542 923.204C90.379 801.123 89.0288 767.8 157.356 735.839C170.007 729.879 182.613 727.52 195.208 728.603C245.393 732.959 293.927 781.408 343.411 850.518C351.258 861.487 359.402 873.112 367.512 885.379C437.344 991.34 469.655 1058.49 512.128 1069.13C553.299 1079.44 548.99 1039.05 567.021 1001.62C583.139 968.489 583.463 939.254 612.326 925.771C614.221 924.897 616.26 924.187 618.37 923.358C654.788 909.089 656.064 866.56 670.444 778.109C673.223 760.975 676.004 745.206 677.948 731.071C686.814 666.409 672.939 622.986 715.453 630.686C756.343 638.078 746.807 630.028 797.45 673.678C814.712 688.559 829.699 693.668 855.187 724.451C952.504 841.939 961.542 864.53 1023.27 908.799" stroke="#3B95A3" stroke-width="0.64" stroke-miterlimit="10"/>
<path d="M-94.9614 1263.21C-94.9614 1263.21 -94.7078 1175.27 -68.8033 1160.33C-44.1138 1146.07 -25.3386 1194.51 7.97754 1183.07C39.7154 1172.17 55.3655 1157.57 63.8054 1098.05C64.457 1093.48 65.2197 1088.75 65.9616 1083.76C76.8499 1009.52 77.7482 1022.05 88.9284 901.516C100.057 781.175 98.9416 747.589 166.602 715.878C179.164 709.966 191.639 707.591 204.169 708.716C254.094 713.141 302.391 761.07 351.504 829.341C359.32 840.192 367.433 851.699 375.471 863.883C444.684 968.54 476.942 1035.2 519.444 1045.66C560.541 1055.78 556.568 1015.71 574.575 978.286C590.582 945.308 591.031 916.066 619.582 902.26C621.447 901.368 623.48 900.634 625.583 899.782C661.77 884.916 662.875 842.027 677.406 754.345C680.238 737.223 683.192 721.535 685.298 707.534C694.914 643.613 681.385 600.933 724.018 609.285C765.076 617.316 755.499 609.983 806.445 652.569C824.17 667.379 839.006 671.138 864.81 702.065C961.643 818.188 970.975 841.031 1032.04 885.195" stroke="#3B95A3" stroke-width="0.64" stroke-miterlimit="10"/>
<path d="M-85.3384 1238.6C-85.3384 1238.6 -85.3572 1151.26 -59.8429 1135.89C-35.6608 1121.33 -17.0744 1168.76 15.758 1157.02C47.1129 1145.82 62.5221 1130.87 71.3852 1072.1C72.0728 1067.57 72.8952 1062.88 73.6856 1057.97C85.4354 984.418 87.1883 998.092 98.7963 879.294C110.389 760.727 109.478 726.86 176.446 695.406C188.89 689.525 201.295 687.169 213.724 688.295C263.418 692.804 311.425 740.203 360.191 807.629C367.952 818.368 376.035 829.757 384.048 841.846C452.618 945.205 484.847 1011.36 527.382 1021.66C568.406 1031.6 564.709 991.811 582.746 954.409C598.582 921.551 599.192 892.343 627.461 878.231C629.32 877.316 631.329 876.588 633.396 875.694C669.351 860.232 670.304 816.953 684.998 730.088C687.884 712.977 691.011 697.37 693.296 683.475C703.69 620.31 690.454 578.363 733.254 587.354C774.502 596.017 764.886 589.403 816.118 630.954C834.31 645.717 848.984 648.077 875.08 679.156C971.407 793.92 981.079 817.003 1041.48 861.037" stroke="#3B95A3" stroke-width="0.64" stroke-miterlimit="10"/>
<path d="M-75.1073 1213.71C-75.1073 1213.71 -75.4223 1126.97 -50.2683 1111.19C-26.5937 1096.34 -8.19596 1142.75 24.1527 1130.71C55.1246 1119.2 70.2692 1103.92 79.6029 1045.88C80.3266 1041.4 81.2087 1036.74 82.0413 1031.9C94.6589 959.052 97.2427 973.875 109.302 856.804C121.323 739.971 120.646 705.841 186.953 674.66C199.302 668.804 211.588 666.479 223.941 667.599C273.398 672.171 321.144 719.056 369.539 785.644C377.246 796.271 385.297 807.541 393.279 819.512C461.231 921.566 493.401 987.21 535.97 997.349C576.891 1007.08 573.56 967.63 591.549 930.24C607.274 897.537 607.985 868.328 635.965 853.888C637.794 852.955 639.798 852.204 641.835 851.292C677.582 835.226 678.365 791.588 693.191 705.523C696.131 688.423 699.437 672.921 701.901 659.13C713.045 596.705 700.155 555.502 743.075 565.144C784.484 574.423 774.899 568.509 826.369 609.036C845.023 623.73 859.546 624.738 885.928 655.944C981.748 769.349 991.761 792.672 1051.47 836.582" stroke="#3B95A3" stroke-width="0.64" stroke-miterlimit="10"/>
<path d="M-64.2547 1188.67C-64.2547 1188.67 -64.8659 1102.55 -40.0722 1086.36C-16.8988 1071.23 1.32763 1116.6 33.175 1104.28C63.7578 1092.45 78.6677 1076.85 88.4483 1019.56C89.208 1015.11 90.1559 1010.51 91.0482 1005.7C104.534 933.566 107.942 949.513 120.429 834.177C132.884 719.101 132.436 684.684 198.075 653.753C210.312 647.952 222.521 645.621 234.778 646.767C283.975 651.407 331.479 697.749 379.509 763.521C387.178 774.006 395.205 785.182 403.139 797.064C470.466 897.79 502.565 962.972 545.162 972.927C586.01 982.478 583.014 943.341 600.974 905.934C616.611 873.381 617.423 844.17 645.091 829.407C646.914 828.45 648.888 827.681 650.889 826.729C686.398 810.043 687.034 766.038 702.024 680.79C705.017 663.701 708.466 648.263 711.116 634.601C723.015 572.939 710.442 532.462 753.528 542.743C795.104 552.661 785.544 547.423 837.282 586.945C856.422 601.562 870.764 601.202 897.439 632.559C992.728 744.611 1003.1 768.144 1062.13 811.978" stroke="#3B95A3" stroke-width="0.64" stroke-miterlimit="10"/>
<path d="M-52.8495 1163.72C-52.8495 1163.72 -53.7567 1078.2 -29.3296 1061.58C-6.66367 1046.15 11.3741 1090.51 42.7613 1077.89C72.9612 1065.75 87.6239 1049.78 97.834 993.262C98.6297 988.858 99.6137 984.303 100.578 979.576C114.949 908.116 119.194 925.235 132.103 811.609C144.991 698.291 144.778 663.609 209.726 632.936C221.868 627.159 233.952 624.836 246.115 626.006C295.082 630.731 342.318 676.536 389.978 741.47C397.593 751.843 405.589 762.9 413.498 774.688C480.205 874.109 512.246 938.776 554.877 948.57C595.652 957.938 592.998 919.142 610.927 881.717C626.454 849.319 627.366 820.108 654.752 805.039C656.546 804.064 658.513 803.272 660.484 802.302C695.785 785.013 696.252 740.648 711.374 656.199C714.444 639.116 718.043 623.765 720.878 610.232C733.527 549.309 721.299 509.576 764.505 520.509C806.272 531.06 796.754 526.468 848.69 565.003C868.322 579.567 882.483 577.839 909.443 609.323C1004.2 720.022 1014.94 743.788 1073.28 787.5" stroke="#3B95A3" stroke-width="0.64" stroke-miterlimit="10"/>
<path d="M-40.8484 1139.02C-40.8484 1139.02 -42.0517 1054.11 -17.9849 1037.08C4.17973 1021.38 22.0164 1064.67 52.9023 1051.77C82.743 1039.33 97.1411 1023.02 107.798 967.248C108.624 962.861 109.674 958.365 110.68 953.703C125.912 882.928 130.989 901.195 144.355 789.32C157.701 677.753 157.669 642.797 221.972 612.367C233.996 606.621 246.01 604.317 258.078 605.512C306.808 610.299 353.784 655.59 401.072 719.686C408.633 729.947 416.598 740.885 424.476 752.555C490.541 850.678 522.553 914.846 565.217 924.48C605.889 933.648 603.624 895.179 621.5 857.743C636.916 825.501 637.953 796.282 665.027 780.89C666.79 779.898 668.751 779.082 670.693 778.095C705.779 760.179 706.106 715.471 721.338 631.829C724.462 614.756 728.239 599.51 731.23 586.088C744.634 525.929 732.729 486.946 776.102 498.518C818.035 509.707 808.584 505.755 860.717 543.303C880.834 557.792 894.821 554.718 922.074 586.354C1016.3 695.7 1027.4 719.699 1085.06 763.311" stroke="#3B95A3" stroke-width="0.64" stroke-miterlimit="10"/>
<path d="M-28.2965 1114.78C-28.2965 1114.78 -29.7898 1030.5 -6.0895 1013.04C15.5739 997.06 33.2393 1039.32 63.6178 1026.12C93.0693 1013.34 107.233 996.723 118.313 941.697C119.198 937.344 120.29 932.913 121.357 928.286C137.48 858.214 143.364 877.635 157.176 767.463C170.956 657.654 171.151 622.411 234.77 592.262C246.699 586.54 258.594 584.267 270.585 585.457C319.084 590.329 365.764 635.066 412.711 698.341C420.241 708.483 428.175 719.303 436.005 730.884C501.451 827.703 533.41 891.379 576.102 900.828C616.701 909.813 614.772 871.662 632.624 834.232C647.929 802.145 649.072 772.949 675.852 757.204C677.603 756.165 679.517 755.361 681.452 754.35C716.325 735.808 716.481 690.74 731.876 607.914C735.053 590.853 739.004 575.688 742.173 562.371C756.334 502.975 744.768 464.712 788.261 476.936C830.385 488.758 821.017 485.416 873.312 522.037C893.922 536.472 907.698 532.013 935.267 563.794C1028.95 671.816 1040.43 696.019 1097.4 739.508" stroke="#3B95A3" stroke-width="0.64" stroke-miterlimit="10"/>
<path d="M-15.2278 1091.17C-15.2278 1091.17 -17.011 1007.52 6.31658 989.594C27.4612 973.374 44.943 1014.54 74.8676 1001.06C103.954 987.947 117.882 971.009 129.392 916.756C130.313 912.445 131.465 908.048 132.574 903.486C149.583 834.093 156.303 854.685 170.543 746.248C184.757 638.196 185.187 602.689 248.131 572.767C259.949 567.1 271.766 564.821 283.663 566.036C331.902 570.976 378.344 615.194 424.921 677.63C432.396 687.66 440.299 698.362 448.104 709.848C512.931 805.362 544.832 868.523 587.558 877.812C628.084 886.613 626.49 848.779 644.318 811.355C659.512 779.423 660.756 750.226 687.248 734.152C688.969 733.096 690.877 732.269 692.782 731.24C727.434 712.047 727.433 666.667 742.961 584.64C746.192 567.591 750.315 552.507 753.67 539.318C768.562 480.692 757.337 443.149 800.996 456.011C843.287 468.473 834.027 465.735 886.501 501.399C907.62 515.752 921.198 509.954 949.053 541.862C1042.18 648.538 1054.05 672.968 1110.36 716.351" stroke="#3B95A3" stroke-width="0.64" stroke-miterlimit="10"/>
<path d="M-1.64011 1068.38C-1.64011 1068.38 -3.73695 985.369 19.2478 967.001C39.8912 950.508 57.1718 990.615 86.5952 976.859C115.298 963.443 129.003 946.134 140.943 892.653C141.9 888.383 143.118 884.045 144.268 879.547C162.163 810.833 169.691 832.58 184.381 725.87C199.023 619.552 199.725 583.924 261.947 554.139C273.676 548.521 285.363 546.226 297.188 547.459C345.197 552.485 391.373 596.165 437.579 657.763C444.999 667.681 452.871 678.265 460.652 689.656C524.836 783.872 556.707 846.535 599.461 855.639C639.89 864.264 638.655 826.74 656.454 789.298C671.56 757.516 672.906 728.318 699.092 711.944C700.807 710.864 702.684 710.02 704.554 708.95C738.991 689.131 738.85 643.408 754.511 562.181C757.795 545.142 762.068 530.146 765.608 517.086C781.232 459.229 770.37 422.4 814.173 435.908C856.631 449.008 847.502 446.868 900.115 481.611C921.743 495.881 935.117 488.721 963.264 520.78C1055.82 626.139 1068.06 650.749 1123.72 694.026" stroke="#3B95A3" stroke-width="0.64" stroke-miterlimit="10"/>
<path d="M12.4625 1046.59C12.4625 1046.59 10.0757 964.214 32.694 945.411C52.8186 928.674 69.9455 967.709 98.8912 953.673C127.229 939.923 140.676 922.302 153.038 869.57C154.031 865.341 155.285 861.044 156.525 856.599C175.305 788.564 183.646 811.489 198.789 706.507C213.864 601.946 214.794 566.03 276.349 536.496C287.965 530.933 299.552 528.638 311.282 529.896C359.054 534.984 404.963 578.128 450.805 638.91C458.188 648.686 466.036 659.175 473.761 670.455C537.326 763.366 569.145 825.537 611.927 834.457C652.282 842.899 651.383 805.691 669.159 768.256C684.153 736.629 685.6 707.43 711.497 690.727C713.183 689.63 715.054 688.761 716.894 687.674C751.111 667.205 750.836 621.163 766.607 540.741C769.944 523.714 774.39 508.799 778.109 495.844C794.459 438.733 783.943 402.648 827.889 416.801C870.538 430.534 861.533 428.968 914.261 462.796C936.405 477.007 949.55 468.491 978.008 500.671C1069.99 604.713 1082.64 629.521 1137.61 672.699" stroke="#3B95A3" stroke-width="0.64" stroke-miterlimit="10"/>
<path d="M27.0586 1026.02C27.0586 1026.02 24.3644 944.301 46.6274 925.008C66.257 908.022 83.1766 945.973 111.621 931.664C139.593 917.579 152.829 899.634 165.591 847.658C166.614 843.446 167.934 839.208 169.216 834.828C188.905 767.465 198.036 791.574 213.623 688.296C229.133 585.493 230.298 549.314 291.184 520.03C302.706 514.491 314.198 512.221 325.828 513.48C373.369 518.654 419.012 561.26 464.458 621.21C471.787 630.874 479.604 641.245 487.281 652.436C550.197 744.025 581.987 805.698 624.785 814.487C665.038 822.728 664.528 785.849 682.25 748.403C697.133 716.931 698.704 687.725 724.29 670.699C725.945 669.584 727.817 668.716 729.62 667.587C763.641 646.461 763.202 600.083 779.082 520.467C782.473 503.452 787.092 488.618 790.972 475.797C808.054 419.456 797.902 384.085 841.991 398.882C884.807 413.255 875.974 412.251 928.8 445.193C951.453 459.322 964.394 449.443 993.15 481.799C1084.54 584.554 1097.62 609.529 1151.9 652.607" stroke="#3B95A3" stroke-width="0.64" stroke-miterlimit="10"/>
<path d="M42.0966 1006.84C42.0966 1006.84 39.095 925.788 61.009 906.031C80.1198 888.801 96.8795 925.656 124.846 911.067C152.436 896.678 165.448 878.362 178.616 827.164C179.698 822.987 181.06 818.814 182.379 814.475C202.952 747.791 212.915 773.048 228.93 671.503C244.873 570.458 246.273 534.015 306.462 504.964C317.865 499.456 329.262 497.212 340.821 498.489C388.102 503.731 433.508 545.817 478.577 604.905C485.875 614.451 493.637 624.71 501.29 635.806C563.564 726.096 595.301 787.277 638.15 795.876C678.33 803.934 678.155 767.372 695.853 729.932C710.626 698.616 712.298 669.408 737.595 652.053C739.244 650.914 741.086 650.029 742.86 648.883C776.659 627.107 776.087 580.409 792.1 501.593C795.545 484.589 800.312 469.842 804.396 457.121C822.21 401.548 812.403 366.921 856.636 382.364C899.642 397.369 890.952 396.91 943.898 428.961C967.085 443.001 979.781 431.796 1008.87 464.266C1099.69 565.704 1113.17 590.877 1166.77 633.832" stroke="#3B95A3" stroke-width="0.64" stroke-miterlimit="10"/>
<path d="M57.5964 989.24C57.5964 989.24 54.3048 908.819 75.8523 888.626C94.4742 871.17 111.044 906.912 138.51 892.05C165.734 877.326 178.535 858.686 192.102 808.243C193.221 804.108 194.642 799.969 196.033 795.713C217.516 729.701 228.268 756.143 244.734 656.326C261.112 557.038 262.715 520.314 322.267 491.531C333.582 486.071 344.878 483.827 356.336 485.106C403.386 490.433 448.525 531.983 493.224 590.232C500.467 599.666 508.222 609.8 515.82 620.784C577.475 709.77 609.159 770.459 652.036 778.874C692.143 786.749 692.31 750.527 709.949 713.051C724.64 681.908 726.413 652.7 751.398 635.022C753.018 633.866 754.853 632.956 756.591 631.769C790.164 609.319 789.464 562.326 805.586 484.316C809.108 467.317 814.025 452.658 818.293 440.064C836.816 385.268 827.397 351.349 871.773 367.437C914.952 383.104 906.445 383.153 959.471 414.349C983.167 428.307 995.665 415.763 1025.04 448.361C1115.24 548.494 1129.18 573.852 1182.11 616.677" stroke="#3B95A3" stroke-width="0.64" stroke-miterlimit="10"/>
<path d="M73.5537 973.39C73.5537 973.39 69.9609 893.655 91.1768 872.967C109.286 855.291 125.666 889.919 152.654 874.777C179.513 859.72 192.073 840.738 206.076 791.091C207.231 786.997 208.712 782.894 210.145 778.702C232.536 713.363 244.078 740.989 260.99 642.875C277.801 545.345 279.64 508.358 338.493 479.807C349.69 474.379 360.885 472.136 372.255 473.463C419.069 478.852 463.941 519.864 508.275 577.299C515.464 586.62 523.188 596.636 530.761 607.526C591.773 695.213 623.422 755.381 666.333 763.635C706.343 771.333 706.87 735.421 724.484 697.952C739.065 666.965 740.938 637.755 765.635 619.748C767.248 618.568 769.054 617.641 770.762 616.436C804.132 593.306 803.28 546.024 819.536 468.814C823.111 451.826 828.184 437.278 832.631 424.789C851.862 370.769 842.806 337.563 887.326 354.297C930.696 370.597 922.372 371.154 975.455 401.501C999.683 415.37 1011.93 401.476 1041.62 434.219C1131.23 533.065 1145.59 558.59 1197.84 601.316" stroke="#3B95A3" stroke-width="0.64" stroke-miterlimit="10"/>
<path d="M89.9059 959.535C89.9059 959.535 86.0057 880.462 106.866 859.286C124.487 841.384 140.677 874.899 167.14 859.489C193.633 844.097 205.982 824.791 220.361 775.906C221.546 771.829 223.099 767.808 224.568 763.658C247.869 698.991 260.194 727.777 277.563 631.416C294.809 535.642 296.875 498.368 355.067 470.092C366.17 464.688 377.27 462.47 388.539 463.798C435.099 469.278 479.728 509.748 523.691 566.344C530.849 575.547 538.518 585.45 546.067 596.245C606.436 682.634 638.056 742.304 681.001 750.398C720.938 757.912 721.8 722.318 739.391 684.855C753.86 654.023 755.835 624.812 780.244 606.476C781.827 605.278 783.626 604.328 785.304 603.105C818.447 579.301 817.492 531.718 833.833 455.319C837.462 438.343 842.707 423.876 847.334 411.492C867.273 358.247 858.605 325.75 903.267 343.128C946.804 360.067 938.711 361.12 991.833 390.648C1016.59 404.405 1028.6 389.208 1058.6 422.073C1147.6 519.638 1162.39 545.301 1213.96 587.927" stroke="#3B95A3" stroke-width="0.64" stroke-miterlimit="10"/>
<path d="M106.66 947.801C106.66 947.801 102.459 869.413 122.964 847.748C140.102 829.643 156.096 862.021 182.088 846.355C208.21 830.605 220.377 810.993 235.132 762.869C236.377 758.828 237.942 754.854 239.501 750.755C263.734 686.756 276.825 716.732 294.64 622.074C312.319 528.058 314.62 490.52 372.138 462.471C383.128 457.122 394.128 454.905 405.32 456.228C451.643 461.77 496.011 501.726 539.604 557.483C546.701 566.551 554.369 576.353 561.863 587.036C621.59 672.127 653.157 731.304 696.154 739.208C735.993 746.545 737.239 711.255 754.776 673.781C769.158 643.098 771.233 613.886 795.336 595.251C796.89 594.036 798.683 593.062 800.331 591.822C833.272 567.338 832.164 519.465 848.615 443.872C852.297 426.907 857.692 412.528 862.504 400.273C883.128 347.809 874.853 316.043 919.653 334.043C963.357 351.621 955.464 353.153 1008.65 381.855C1033.96 395.517 1045.72 378.97 1076.02 412.01C1164.4 508.294 1179.62 534.124 1230.53 576.645" stroke="#3B95A3" stroke-width="0.64" stroke-miterlimit="10"/>
<path d="M123.795 938.393C123.795 938.393 119.316 860.684 139.443 838.537C156.068 820.212 171.866 851.453 197.363 835.538C223.119 819.453 235.07 799.493 250.206 752.154C251.487 748.154 253.112 744.215 254.719 740.205C279.861 676.878 293.742 708.039 312.002 615.085C330.115 522.826 332.645 485.001 389.478 457.232C400.373 451.907 411.278 449.715 422.375 451.063C468.468 456.691 512.563 496.086 555.791 551.028C562.834 559.983 570.471 569.668 577.94 580.256C637.024 664.048 668.563 722.728 711.587 730.447C751.353 737.601 752.934 702.628 770.448 665.16C784.719 634.633 786.901 605.444 810.71 586.455C812.257 585.216 814.014 584.201 815.639 582.968C848.346 557.786 847.141 509.636 863.701 434.848C867.461 417.888 872.981 403.602 878.002 391.47C899.328 339.758 891.446 308.724 936.389 327.369C980.284 345.58 972.616 347.583 1025.85 375.491C1051.68 389.04 1063.2 371.191 1093.81 404.351C1181.56 499.361 1197.25 525.346 1247.47 567.767" stroke="#3B95A3" stroke-width="0.64" stroke-miterlimit="10"/>
<path d="M141.313 931.515C141.313 931.515 136.539 854.516 156.298 831.832C172.441 813.305 188.043 843.409 213.038 827.22C238.429 810.801 250.192 790.511 265.705 743.934C267.021 739.974 268.713 736.094 270.379 732.119C296.454 669.458 311.101 701.809 329.812 610.583C348.359 520.082 351.1 482 407.282 454.451C418.06 449.157 428.87 446.99 439.89 448.332C485.722 454.028 529.58 492.904 572.438 547.008C579.449 555.845 587.032 565.417 594.476 575.91C652.918 658.404 684.428 716.585 727.455 724.127C767.125 731.104 769.065 696.442 786.549 658.956C800.709 628.584 803.016 599.388 826.513 580.076C828.03 578.82 829.757 577.787 831.369 576.506C863.844 550.627 862.541 502.199 879.187 428.223C883 411.274 888.693 397.07 893.87 385.049C915.88 334.119 908.386 303.792 953.478 323.106C997.54 341.956 990.097 344.432 1043.36 371.52C1069.75 384.951 1081.01 365.805 1111.93 399.087C1199.04 492.821 1215.2 518.962 1264.76 561.254" stroke="#3B95A3" stroke-width="0.64" stroke-miterlimit="10"/>
<path d="M159.39 928.131C159.39 928.131 154.315 851.817 173.719 828.646C189.379 809.916 204.779 838.859 229.303 822.414C254.322 805.637 265.903 785.04 281.768 739.23C283.139 735.282 284.872 731.467 286.581 727.557C313.588 665.563 329.001 699.104 348.134 609.588C367.098 520.874 370.084 482.475 425.581 455.206C436.27 449.96 446.973 447.77 457.881 449.168C503.483 454.949 547.074 493.288 589.561 546.553C596.518 555.278 604.093 564.726 611.489 575.131C669.288 656.326 700.763 713.986 743.831 721.39C783.421 728.161 785.703 693.838 803.163 656.359C817.212 626.143 819.619 596.945 842.828 577.304C844.339 576.025 846.037 574.974 847.619 573.676C879.884 547.093 878.466 498.417 895.215 425.223C899.082 408.286 904.924 394.169 910.31 382.27C932.981 332.128 925.904 302.527 971.157 322.456C1015.39 341.945 1008.21 344.857 1061.47 371.162C1088.41 384.474 1099.4 364.032 1130.63 397.435C1217.11 489.895 1233.74 516.191 1282.61 558.383" stroke="#3B95A3" stroke-width="0.64" stroke-miterlimit="10"/>
<path d="M177.869 927.929C177.869 927.929 172.522 852.318 191.541 828.64C206.724 809.731 221.916 837.49 245.945 820.795C270.598 803.685 282.01 782.727 298.234 737.709C299.64 733.802 301.433 730.021 303.184 726.176C331.147 664.842 347.303 699.58 366.888 611.791C386.285 524.835 389.506 486.172 444.329 459.13C454.9 453.916 465.508 451.75 476.339 453.143C521.704 458.986 565.029 496.787 607.151 549.238C614.077 557.844 621.598 567.18 628.963 577.466C686.119 657.363 717.541 714.531 760.66 721.745C800.154 728.339 802.801 694.351 820.225 656.831C834.187 626.763 836.671 597.571 859.598 577.625C861.079 576.327 862.77 575.254 864.323 573.938C896.355 546.657 894.839 497.703 911.674 425.322C915.594 408.395 921.586 394.366 927.174 382.565C950.524 333.182 943.863 304.306 989.237 324.886C1033.66 345.008 1026.69 348.345 1079.99 373.908C1107.48 387.102 1118.18 365.345 1149.75 398.887C1235.57 490.102 1252.69 516.524 1300.87 558.593" stroke="#3B95A3" stroke-width="0.64" stroke-miterlimit="10"/>
<path d="M199.609 930.921C199.609 930.921 193.967 856.019 212.618 831.805C227.319 812.693 242.285 839.298 265.842 822.347C290.124 804.878 301.355 783.614 317.954 739.357C319.396 735.491 321.255 731.769 323.072 727.983C351.968 667.315 368.89 703.243 388.92 617.158C408.751 531.96 412.2 493.01 466.338 466.248C476.814 461.058 487.304 458.924 498.064 460.334C543.199 466.263 586.257 503.528 628.008 555.14C634.879 563.634 642.369 572.851 649.71 583.043C706.2 661.648 737.616 718.311 780.763 725.341C820.183 731.752 823.19 698.074 840.567 660.566C854.423 630.678 857.033 601.479 879.641 581.186C881.092 579.871 882.778 578.773 884.3 577.44C916.094 549.438 914.486 500.23 931.4 428.637C935.398 411.715 941.521 397.803 947.288 386.108C971.299 337.512 965.05 309.338 1010.59 330.557C1055.18 351.342 1048.49 355.061 1101.8 379.865C1129.85 392.91 1140.27 369.887 1172.16 403.574C1257.33 493.544 1274.93 520.091 1322.43 562.037" stroke="#3B95A3" stroke-width="0.64" stroke-miterlimit="10"/>
<path d="M222.086 935.665C222.086 935.665 216.179 861.49 234.438 836.746C248.662 817.456 263.42 842.876 286.465 825.705C310.375 807.878 321.448 786.302 338.382 742.842C339.884 739.011 341.779 735.33 343.638 731.609C373.491 671.601 391.155 708.726 411.636 624.369C431.901 540.928 435.561 501.72 489.049 475.179C499.413 470.044 509.826 467.904 520.484 469.316C565.359 475.313 608.18 512.057 649.561 562.831C656.371 571.189 663.836 580.312 671.128 590.415C726.976 667.722 758.363 723.887 801.538 730.733C840.861 736.966 844.227 703.6 861.574 666.074C875.32 636.341 878.03 607.141 900.35 586.519C901.795 585.18 903.45 584.065 904.943 582.714C936.498 553.991 934.798 504.529 951.822 433.741C955.873 416.831 962.145 403.007 968.122 391.433C992.787 343.602 986.961 316.177 1032.64 338.018C1077.4 359.441 1070.97 363.573 1124.28 387.641C1152.89 400.568 1163.04 376.248 1195.24 410.056C1279.75 498.758 1297.84 525.43 1344.66 567.3" stroke="#3B95A3" stroke-width="0.64" stroke-miterlimit="10"/>
<path d="M243.995 941.722C243.995 941.722 237.816 868.25 255.691 843C269.468 823.548 283.988 847.766 306.561 830.339C330.1 812.155 341.015 790.265 358.302 747.573C359.833 743.76 361.794 740.138 363.696 736.481C394.51 677.157 412.911 715.455 433.837 632.802C454.513 551.124 458.425 511.623 511.251 485.356C521.52 480.245 531.809 478.113 542.402 479.567C587.046 485.649 629.595 521.833 670.61 571.792C677.39 580.032 684.825 589.036 692.062 599.028C747.243 675.042 778.625 730.703 821.833 737.388C861.084 743.439 864.785 710.389 882.109 672.87C895.767 643.286 898.578 614.084 920.592 593.163C922.007 591.807 923.656 590.668 925.113 589.276C956.429 559.832 954.667 510.133 971.747 440.14C975.875 423.235 982.273 409.503 988.452 398.029C1013.77 350.962 1008.39 324.256 1054.21 346.742C1099.13 368.804 1092.98 373.319 1146.28 396.658C1175.46 409.436 1185.33 383.85 1217.86 417.773C1301.69 505.236 1320.27 532.033 1366.43 573.798" stroke="#3B95A3" stroke-width="0.64" stroke-miterlimit="10"/>
<path d="M265.346 948.935C265.346 948.935 258.903 876.19 276.38 850.386C289.681 830.756 303.992 853.789 326.07 836.113C349.237 817.57 360.019 795.362 377.61 753.449C379.201 749.671 381.205 746.114 383.166 742.492C414.937 683.829 434.08 723.322 455.457 642.397C476.573 562.5 480.713 522.712 532.842 496.678C542.993 491.598 553.21 489.485 563.679 490.946C608.093 497.114 650.375 532.761 691.02 581.881C697.745 590.009 705.148 598.895 712.361 608.791C766.899 683.507 798.228 738.676 841.464 745.177C880.618 751.051 884.679 718.312 901.955 680.805C915.502 651.376 918.42 622.197 940.14 600.923C941.549 599.544 943.168 598.387 944.595 596.978C975.665 566.788 973.819 516.859 991.008 447.672C995.196 430.802 1001.74 417.134 1008.1 405.788C1034.08 359.486 1029.11 333.505 1075.1 356.654C1120.22 379.349 1114.32 384.253 1167.61 406.885C1197.35 419.491 1206.93 392.668 1239.79 426.706C1322.97 512.948 1342.04 539.847 1387.53 581.482" stroke="#3B95A3" stroke-width="0.64" stroke-miterlimit="10"/>
<path d="M286.168 957.122C286.168 957.122 279.46 885.102 296.546 858.769C309.394 838.954 323.443 860.792 345.056 842.883C367.851 823.982 378.505 801.478 396.419 760.316C398.046 756.579 400.109 753.057 402.118 749.523C434.846 691.52 454.731 732.211 476.554 652.989C498.08 574.856 502.449 534.781 553.94 509.014C564.002 503.983 574.095 501.877 584.493 503.356C628.646 509.592 670.691 544.72 710.965 593.001C717.636 601.017 725.008 609.785 732.196 619.587C786.074 693.034 817.392 747.675 860.656 753.992C899.737 759.682 904.163 727.277 921.379 689.736C934.815 660.463 937.834 631.283 959.265 609.679C960.645 608.282 962.252 607.079 963.655 605.675C994.462 574.771 992.577 524.599 1009.82 456.206C1014.09 439.341 1020.75 425.767 1027.32 414.52C1053.93 368.987 1049.41 343.75 1095.54 367.52C1140.82 390.854 1135.2 396.14 1188.5 418.037C1218.81 430.495 1228.1 402.405 1261.27 436.565C1343.76 521.574 1363.36 548.586 1408.16 590.121" stroke="#3B95A3" stroke-width="0.64" stroke-miterlimit="10"/>
<path d="M306.512 966.089C306.512 966.089 299.568 894.814 316.233 867.934C328.634 847.957 342.446 868.593 363.564 850.434C385.987 831.176 396.507 808.353 414.749 767.964C416.437 764.262 418.542 760.805 420.587 757.312C454.3 699.987 474.875 741.863 497.167 664.339C519.127 587.964 523.73 547.625 574.523 522.091C584.467 517.091 594.489 515.003 604.786 516.484C648.709 522.805 690.481 557.372 730.39 604.839C737.03 612.736 744.348 621.392 751.505 631.075C804.74 703.224 836.029 757.367 879.321 763.5C918.311 769.037 923.09 736.919 940.283 699.383C953.631 670.26 956.751 641.078 977.87 619.152C979.244 617.731 980.797 616.516 982.194 615.09C1012.76 583.44 1010.81 533.031 1028.12 465.456C1032.44 448.603 1039.25 435.116 1046 423.997C1073.24 379.236 1069.18 354.711 1115.46 379.126C1160.91 403.123 1155.58 408.739 1208.86 429.959C1239.73 442.245 1248.72 412.918 1282.23 447.217C1364.04 530.987 1384.15 558.118 1428.27 599.531" stroke="#3B95A3" stroke-width="0.64" stroke-miterlimit="10"/>
<path d="M326.341 975.698C326.341 975.698 319.155 905.144 335.405 877.74C347.336 857.608 360.927 877.012 381.562 858.651C403.608 839.01 414 815.892 432.547 776.284C434.264 772.599 436.435 769.2 438.546 765.766C473.246 709.119 494.533 752.174 517.276 676.377C539.646 601.766 544.502 561.133 594.633 535.874C604.488 530.922 614.386 528.841 624.612 530.341C668.304 536.747 709.833 570.771 749.348 617.405C755.933 625.191 763.244 633.722 770.353 643.317C822.922 714.173 854.181 767.819 897.525 773.761C936.442 779.115 941.556 747.314 958.719 709.76C971.957 680.792 975.183 651.634 996.015 629.378C997.358 627.94 998.905 626.701 1000.27 625.233C1030.55 592.821 1028.58 542.217 1045.97 475.43C1050.36 458.582 1057.3 445.189 1064.27 434.193C1092.16 390.195 1088.52 366.396 1134.94 391.456C1180.58 416.086 1175.5 422.067 1228.77 442.581C1260.22 454.689 1268.92 424.125 1302.74 458.545C1383.85 541.107 1404.48 568.304 1447.92 609.616" stroke="#3B95A3" stroke-width="0.64" stroke-miterlimit="10"/>
<path d="M345.735 985.774C345.735 985.774 338.291 915.97 354.137 887.989C365.621 867.695 378.944 885.88 399.114 867.286C420.788 847.288 431.076 823.869 449.922 785.016C451.699 781.367 453.929 778.003 456.059 774.64C491.745 718.671 513.721 762.91 536.933 688.812C559.743 615.981 564.821 575.038 614.261 550.035C623.998 545.114 633.824 543.052 643.95 544.552C687.382 551.027 728.674 584.531 767.794 630.333C774.342 637.976 781.605 646.419 788.688 655.919C840.591 725.483 871.845 778.625 915.222 784.406C954.043 789.583 959.517 758.093 976.656 720.546C989.782 691.733 993.133 662.567 1013.65 639.989C1014.97 638.533 1016.51 637.271 1017.84 635.785C1047.86 602.634 1045.85 551.811 1063.29 485.819C1067.74 468.981 1074.81 455.682 1082 444.778C1110.49 401.534 1107.33 378.495 1153.91 404.171C1199.72 429.439 1194.92 435.749 1248.17 455.611C1280.19 467.547 1288.59 435.747 1322.75 470.281C1403.18 551.604 1424.32 578.92 1467.07 620.133" stroke="#3B95A3" stroke-width="0.64" stroke-miterlimit="10"/>
<path d="M364.67 996.122C364.67 996.122 356.99 927.062 372.415 898.533C383.477 878.072 396.531 895.038 416.212 876.218C437.509 855.838 447.693 832.117 466.826 794.074C468.639 790.466 470.935 787.161 473.107 783.863C509.779 728.571 532.468 773.99 556.131 701.619C579.352 630.552 584.687 589.339 633.46 564.586C643.102 559.69 652.81 557.659 662.835 559.16C706.036 565.721 747.055 598.664 785.811 643.651C792.305 651.182 799.536 659.506 806.589 668.888C857.825 737.16 889.074 789.797 932.479 795.394C971.202 800.394 977.06 769.209 994.145 731.65C1007.19 703.011 1010.62 673.85 1030.84 650.918C1032.15 649.439 1033.66 648.159 1034.99 646.65C1064.73 612.737 1062.69 561.694 1080.2 496.52C1084.72 479.688 1091.92 466.482 1099.29 455.707C1128.42 413.233 1125.72 390.907 1172.41 417.234C1218.4 443.165 1213.89 449.781 1267.13 468.961C1299.74 480.718 1307.82 447.687 1342.3 482.337C1422.02 562.457 1443.71 589.856 1485.81 630.964" stroke="#3B95A3" stroke-width="0.64" stroke-miterlimit="10"/>
<path d="M383.185 1006.6C383.185 1006.6 375.293 938.283 390.274 909.213C400.888 888.591 413.698 904.331 432.891 885.285C453.809 864.523 463.896 840.525 483.328 803.238C485.2 799.664 487.533 796.4 489.77 793.161C527.452 738.541 550.812 785.175 574.938 714.478C598.569 645.175 604.133 603.675 652.261 579.166C661.785 574.301 671.393 572.27 681.352 573.814C724.3 580.466 765.076 612.866 803.461 657.015C809.9 664.434 817.1 672.64 824.128 681.927C874.705 748.93 905.918 801.046 949.351 806.459C988.001 811.276 994.2 780.43 1011.26 742.854C1024.19 714.37 1027.74 685.202 1047.66 661.948C1048.93 660.451 1050.43 659.124 1051.71 657.627C1081.18 622.951 1079.14 571.707 1096.69 507.304C1101.27 490.483 1108.61 477.341 1116.19 466.688C1145.92 424.967 1143.69 403.401 1190.56 430.367C1236.71 456.938 1232.48 463.859 1285.72 482.41C1318.9 493.965 1326.66 459.727 1361.48 494.492C1440.5 573.404 1462.73 600.892 1504.13 641.876" stroke="#3B95A3" stroke-width="0.64" stroke-miterlimit="10"/>
<path d="M401.302 1017.01C401.302 1017.01 393.204 949.454 407.728 919.796C417.926 899.029 430.438 913.533 449.165 894.254C469.705 873.111 479.694 848.835 499.425 812.305C501.333 808.772 503.732 805.567 506.006 802.368C544.697 748.42 568.746 796.239 593.317 727.246C617.365 659.73 623.18 617.937 670.617 593.684C680.053 588.868 689.559 586.839 699.418 588.383C742.129 595.097 782.662 626.954 820.659 670.294C827.066 677.595 834.212 685.688 841.216 694.881C891.126 760.592 922.334 812.203 965.794 817.432C1004.35 822.072 1010.91 791.537 1027.93 753.944C1040.75 725.615 1044.41 696.446 1064.04 672.886C1065.29 671.372 1066.78 670.021 1068.05 668.5C1097.24 633.062 1095.18 581.623 1112.8 518.037C1117.45 501.221 1124.89 488.179 1132.68 477.649C1163.01 436.681 1161.26 415.852 1208.27 443.463C1254.59 470.672 1250.67 477.916 1303.85 495.797C1337.61 507.151 1345.06 471.706 1380.22 506.586C1458.52 584.295 1481.27 611.873 1522.01 652.751" stroke="#3B95A3" stroke-width="0.64" stroke-miterlimit="10"/>
<path d="M419.03 1027.2C419.03 1027.2 410.721 960.374 424.8 930.175C434.551 909.247 446.795 922.532 465.057 903.021C485.196 881.502 495.134 856.935 515.116 821.174C517.078 817.653 519.519 814.512 521.865 811.396C561.548 758.149 586.28 807.129 611.327 739.858C635.784 674.106 641.852 632.019 688.621 608.017C697.938 603.231 707.35 601.227 717.138 602.79C759.618 609.589 799.885 640.909 837.511 683.411C843.864 690.599 851.002 698.568 857.934 707.679C907.177 772.098 938.381 823.205 981.868 828.249C1020.35 832.706 1027.27 802.482 1044.24 764.901C1056.98 736.721 1060.74 707.575 1080.05 683.668C1081.3 682.13 1082.73 680.768 1083.99 679.2C1112.89 643.006 1110.84 591.358 1128.51 528.544C1133.23 511.763 1140.81 498.784 1148.81 488.376C1179.73 448.138 1178.49 428.086 1225.63 456.319C1272.14 484.161 1268.48 491.717 1321.65 508.946C1355.98 520.073 1363.12 483.445 1398.62 518.464C1476.2 594.994 1499.5 622.631 1539.56 663.386" stroke="#3B95A3" stroke-width="0.64" stroke-miterlimit="10"/>
<path d="M436.381 1037C436.381 1037 427.867 970.937 441.494 940.173C450.828 919.101 462.798 931.142 480.577 911.429C500.339 889.529 510.209 864.702 530.46 829.679C532.481 826.193 534.964 823.117 537.346 820.042C578.046 767.49 603.443 817.662 628.952 752.065C653.826 688.1 660.122 645.726 706.224 621.974C715.446 617.213 724.763 615.233 734.427 616.804C776.653 623.695 816.7 654.465 853.931 696.134C860.254 703.204 867.338 711.062 874.238 720.054C922.792 783.187 953.989 833.789 997.535 838.667C1035.92 842.97 1043.2 813.033 1060.15 775.459C1072.77 747.434 1076.64 718.287 1095.66 694.051C1096.87 692.495 1098.31 691.11 1099.53 689.525C1128.13 652.574 1126.08 600.725 1143.81 538.704C1148.6 521.929 1156.28 509.026 1164.51 498.735C1196.03 459.249 1195.26 439.934 1242.55 468.812C1289.23 497.317 1285.86 505.125 1339.03 521.748C1373.94 532.674 1380.77 494.863 1416.59 529.973C1493.46 605.3 1517.31 632.997 1556.68 673.676" stroke="#3B95A3" stroke-width="0.64" stroke-miterlimit="10"/>
<path d="M453.411 1046.25C453.411 1046.25 444.692 980.951 457.862 949.599C466.797 928.353 478.445 939.164 495.765 919.242C515.119 896.942 524.945 871.849 545.447 837.595C547.505 834.15 550.047 831.109 552.472 828.099C594.211 776.236 620.243 827.582 646.227 763.706C671.512 701.504 678.06 658.837 723.494 635.336C732.604 630.629 741.82 628.651 751.413 630.24C793.408 637.216 833.182 667.426 870.049 708.28C876.311 715.214 883.37 722.977 890.246 731.874C938.139 793.739 969.326 843.813 1012.9 848.507C1051.19 852.633 1058.83 823.031 1075.75 785.415C1088.27 757.57 1092.25 728.415 1110.96 703.856C1112.17 702.277 1113.57 700.874 1114.77 699.271C1143.06 661.54 1141.05 609.507 1158.8 548.287C1163.67 531.517 1171.47 518.708 1179.89 508.545C1212.01 469.789 1211.71 451.234 1259.17 480.751C1306.02 509.894 1302.93 517.984 1356.08 533.979C1391.55 544.656 1398.08 505.685 1434.24 540.91C1510.39 615.034 1534.79 642.814 1573.5 683.364" stroke="#3B95A3" stroke-width="0.64" stroke-miterlimit="10"/>
<path d="M470.113 1054.73C470.113 1054.73 461.212 990.185 473.908 958.274C482.426 936.885 493.776 946.459 510.631 926.304C529.607 903.623 539.364 878.269 560.136 844.754C562.253 841.344 564.838 838.368 567.322 835.393C610.077 784.225 636.768 836.739 663.198 774.567C688.899 714.153 695.693 671.168 740.465 647.941C749.48 643.259 758.602 641.305 768.094 642.896C809.853 649.934 849.366 679.63 885.862 719.646C892.093 726.462 899.097 734.112 905.948 742.915C953.152 803.493 984.333 853.064 1027.96 857.567C1066.18 861.51 1074.17 832.218 1091.04 794.614C1103.48 766.918 1107.54 737.769 1125.96 712.881C1127.14 711.284 1128.53 709.834 1129.71 708.237C1157.69 669.727 1155.7 617.509 1173.51 557.084C1178.44 540.325 1186.36 527.609 1195.01 517.562C1227.73 479.536 1227.91 461.765 1275.51 491.927C1322.53 521.71 1319.74 530.075 1372.86 545.471C1408.93 555.916 1415.11 515.797 1451.64 551.102C1527.05 624.054 1552.02 651.887 1590.05 692.337" stroke="#3B95A3" stroke-width="0.64" stroke-miterlimit="10"/>
<path d="M486.509 1062.33C486.509 1062.33 477.426 998.539 489.647 966.069C497.766 944.506 508.794 952.85 525.19 932.486C543.759 909.406 553.502 883.803 574.494 851.039C576.672 847.664 579.316 844.723 581.825 841.842C625.602 791.394 652.952 845.075 679.851 784.601C705.939 725.957 713.014 682.696 757.089 659.702C765.986 655.051 775.007 653.098 784.434 654.731C825.939 661.861 865.226 690.984 901.334 730.191C907.51 736.895 914.484 744.427 921.31 753.135C967.854 812.444 999.023 861.487 1042.68 865.806C1080.8 869.572 1089.15 840.591 1105.97 802.976C1118.29 775.435 1122.49 746.302 1140.59 721.067C1141.76 719.447 1143.1 717.985 1144.27 716.365C1171.93 677.081 1169.99 624.673 1187.83 565.048C1192.84 548.318 1200.88 535.649 1209.74 525.724C1243.02 488.433 1243.71 471.416 1291.47 502.217C1338.66 532.639 1336.17 541.28 1389.25 556.053C1425.89 566.249 1431.74 524.977 1468.63 560.391C1543.31 632.17 1568.85 660.056 1606.18 700.383" stroke="#3B95A3" stroke-width="0.64" stroke-miterlimit="10"/>
<path d="M502.621 1068.84C502.621 1068.84 493.379 1005.8 505.096 972.752C512.798 951.045 523.522 958.128 539.459 937.556C557.62 914.077 567.348 888.225 588.593 856.229C590.806 852.895 593.516 850.013 596.061 847.174C640.884 797.438 668.84 852.275 696.231 793.493C722.735 736.636 730.033 693.064 773.469 670.338C782.278 665.735 791.198 663.784 800.524 665.417C841.799 672.633 880.843 701.212 916.557 739.587C922.678 746.179 929.621 753.593 936.416 762.182C982.27 820.206 1013.44 868.768 1057.12 872.903C1095.15 876.492 1103.86 847.821 1120.65 810.213C1132.89 782.821 1137.16 753.693 1154.98 728.129C1156.12 726.492 1157.45 725.006 1158.58 723.345C1185.91 683.287 1184.03 630.712 1201.92 571.858C1207.01 555.133 1215.14 542.54 1224.22 532.761C1258.1 496.2 1259.29 479.961 1307.17 511.389C1354.53 542.474 1352.3 551.349 1405.38 565.541C1442.61 575.481 1448.14 533.08 1485.36 568.609C1559.33 639.208 1585.42 667.154 1622.07 707.382" stroke="#3B95A3" stroke-width="0.64" stroke-miterlimit="10"/>
<path d="M518.476 1074.07C518.476 1074.07 509.076 1011.78 520.294 978.186C527.603 956.329 538 962.157 553.478 941.376C571.26 917.516 580.944 891.397 602.434 860.146C604.701 856.824 607.453 854.006 610.064 851.226C655.933 802.202 684.518 858.19 712.378 801.105C739.269 746.018 746.842 702.147 789.587 679.677C798.278 675.106 807.103 673.179 816.334 674.837C857.355 682.144 896.156 710.181 931.499 747.717C937.589 754.19 944.478 761.492 951.248 769.987C996.418 826.748 1027.6 874.776 1071.31 878.727C1109.27 882.157 1118.34 853.796 1135.07 816.153C1147.2 788.917 1151.6 759.805 1169.11 733.918C1170.21 732.263 1171.54 730.754 1172.64 729.075C1199.64 688.244 1197.81 635.478 1215.74 577.425C1220.9 560.705 1229.14 548.212 1238.45 538.549C1272.89 502.699 1274.59 487.238 1322.64 519.306C1370.16 551.029 1368.22 560.157 1421.3 573.744C1459.13 583.428 1464.31 539.88 1501.88 575.517C1575.09 644.95 1601.75 672.949 1637.73 713.048" stroke="#3B95A3" stroke-width="0.64" stroke-miterlimit="10"/>
<path d="M534.066 1077.91C534.066 1077.91 524.508 1016.37 535.228 982.222C542.138 960.191 552.213 964.789 567.238 943.823C584.613 919.563 594.289 893.219 615.994 862.696C618.32 859.408 621.115 856.656 623.762 853.916C670.682 805.629 699.873 862.773 728.226 807.38C755.509 754.087 763.358 709.916 805.436 687.696C814.032 683.15 822.739 681.254 831.893 682.907C872.682 690.299 911.235 717.769 946.189 754.497C952.225 760.858 959.106 768.035 965.828 776.442C1010.31 831.917 1041.51 879.434 1085.24 883.2C1123.11 886.454 1132.54 858.404 1149.25 820.766C1161.27 793.71 1165.76 764.573 1182.98 738.357C1184.08 736.678 1185.37 735.128 1186.45 733.455C1213.12 691.826 1211.37 638.888 1229.33 581.636C1234.57 564.92 1242.92 552.497 1252.42 542.963C1287.43 507.826 1289.64 493.166 1337.85 525.849C1385.56 558.205 1383.9 567.59 1436.95 580.602C1475.36 590.008 1480.2 545.359 1518.13 581.082C1590.6 649.342 1617.82 677.371 1653.13 717.393" stroke="#3B95A3" stroke-width="0.64" stroke-miterlimit="10"/>
<path d="M549.444 1080.16C549.444 1080.16 539.728 1019.37 549.967 984.64C556.484 962.459 566.231 965.803 580.797 944.628C597.741 919.976 607.456 893.394 629.376 863.598C631.762 860.345 634.593 857.634 637.288 854.983C685.231 807.415 715.051 865.709 743.896 812.008C771.566 760.484 779.691 716.014 821.077 694.05C829.561 689.558 838.191 687.657 847.244 689.311C887.803 696.79 926.089 723.722 960.672 759.611C966.671 765.83 973.51 772.943 980.195 781.207C1023.99 835.42 1055.18 882.41 1098.97 885.986C1136.74 889.085 1146.52 861.323 1163.21 823.691C1175.14 796.784 1179.74 767.646 1196.64 741.107C1197.72 739.411 1198.98 737.843 1200.05 736.147C1226.36 693.75 1224.7 640.639 1242.68 584.163C1248 567.477 1256.45 555.107 1266.18 545.713C1301.78 511.28 1304.48 497.404 1352.83 530.733C1400.72 563.751 1399.3 573.348 1452.36 585.778C1491.35 594.905 1495.85 549.156 1534.13 584.964C1605.84 652.058 1633.66 680.134 1668.28 720.033" stroke="#3B95A3" stroke-width="0.64" stroke-miterlimit="10"/>
<path d="M564.637 1080.64C564.637 1080.64 554.793 1020.62 564.504 985.317C570.651 962.98 580.023 965.081 594.154 943.692C610.69 918.64 620.42 891.827 642.532 862.765C644.978 859.547 647.875 856.894 650.606 854.284C699.624 807.446 730.02 866.88 759.364 814.893C787.421 765.139 795.798 720.376 836.546 698.68C844.935 694.213 853.446 692.343 862.428 694.015C902.727 701.562 940.793 727.945 974.989 763.025C980.933 769.132 987.741 776.126 994.401 784.296C1037.51 837.223 1068.72 883.726 1112.54 887.117C1150.23 890.034 1160.38 862.582 1177.01 824.939C1188.83 798.187 1193.54 769.072 1210.15 742.204C1211.22 740.484 1212.45 738.899 1213.49 737.161C1239.44 693.974 1237.89 640.707 1255.87 585.014C1261.25 568.339 1269.81 556.039 1279.75 546.767C1315.92 513.047 1319.13 499.972 1367.64 533.916C1415.7 567.573 1414.57 577.398 1467.61 589.277C1507.18 598.124 1511.35 551.276 1549.98 587.169C1620.94 653.12 1649.34 681.219 1683.3 721.012" stroke="#3B95A3" stroke-width="0.64" stroke-miterlimit="10"/>
<path d="M579.626 1079.18C579.626 1079.18 569.647 1019.9 578.836 984.049C584.584 961.538 593.635 962.409 607.306 940.811C623.428 915.336 633.186 888.339 655.507 859.981C657.989 856.804 660.946 854.186 663.719 851.641C713.796 805.563 744.791 866.129 774.621 815.811C803.07 767.85 811.723 722.787 851.797 701.318C860.068 696.882 868.508 695.03 877.366 696.71C917.435 704.342 955.251 730.158 989.058 764.43C994.972 770.419 1001.73 777.3 1008.34 785.382C1050.74 837.052 1081.96 883.021 1125.83 886.223C1163.43 888.962 1173.94 861.844 1190.54 824.184C1202.27 797.582 1207.08 768.466 1223.39 741.274C1224.42 739.537 1225.65 737.928 1226.65 736.173C1252.25 692.194 1250.8 638.748 1268.81 583.833C1274.26 567.163 1282.95 554.932 1293.1 545.806C1329.83 512.774 1333.57 500.495 1382.21 535.114C1430.43 569.41 1429.6 579.463 1482.63 590.761C1522.79 599.305 1526.62 551.381 1565.61 587.383C1635.81 652.19 1664.8 680.313 1698.07 719.983" stroke="#3B95A3" stroke-width="0.64" stroke-miterlimit="10"/>
<path d="M594.474 1075.63C594.474 1075.63 584.384 1017.08 593.028 980.695C598.406 958.028 607.081 957.657 620.317 935.844C636.008 909.976 645.811 882.765 668.342 855.11C670.889 851.992 673.882 849.415 676.691 846.912C727.826 801.594 759.414 863.269 789.744 814.666C818.556 768.481 827.508 723.113 866.897 701.924C875.079 697.536 883.395 695.692 892.182 697.39C931.996 705.114 969.593 730.38 1002.98 763.826C1008.84 769.702 1015.56 776.466 1022.17 784.423C1063.88 834.831 1095.12 880.266 1139.01 883.283C1176.53 885.869 1187.39 859.038 1203.96 821.361C1215.58 794.913 1220.52 765.814 1236.51 738.276C1237.54 736.515 1238.72 734.865 1239.71 733.116C1264.95 688.346 1263.61 634.745 1281.62 580.612C1287.16 563.971 1295.93 551.793 1306.33 542.807C1343.61 510.463 1347.87 499.009 1396.67 534.243C1445.07 569.202 1444.48 579.442 1497.52 590.182C1538.26 598.424 1541.74 549.429 1581.1 585.51C1650.54 649.151 1680.12 677.321 1712.71 716.892" stroke="#3B95A3" stroke-width="0.64" stroke-miterlimit="10"/>
<path d="M609.155 1069.8C609.155 1069.8 598.937 1012.02 607.046 975.035C612.055 952.211 620.373 950.568 633.162 928.594C648.446 902.327 658.264 874.884 680.992 847.987C683.6 844.904 686.634 842.392 689.51 839.947C741.703 795.389 773.884 858.173 804.706 811.262C833.905 766.847 843.109 721.185 881.853 700.24C889.917 695.883 898.156 694.034 906.848 695.757C946.432 703.566 983.78 728.266 1016.78 760.903C1022.61 766.661 1029.28 773.312 1035.83 781.181C1076.84 830.333 1108.1 875.257 1152.01 878.066C1189.45 880.469 1200.67 853.949 1217.2 816.284C1228.71 790.016 1233.74 760.891 1249.44 733.024C1250.45 731.246 1251.6 729.578 1252.58 727.806C1277.44 682.251 1276.23 628.488 1294.27 575.132C1299.88 558.496 1308.76 546.394 1319.36 537.531C1357.22 505.869 1361.98 495.222 1410.92 531.101C1459.48 566.699 1459.15 577.151 1512.21 587.356C1553.52 595.295 1556.64 545.23 1596.38 581.391C1665.07 643.889 1695.24 672.082 1727.14 711.529" stroke="#3B95A3" stroke-width="0.64" stroke-miterlimit="10"/>
<path d="M623.727 1061.51C623.727 1061.51 613.398 1004.47 620.962 966.949C625.595 943.946 633.544 941.085 645.898 918.895C660.744 892.212 670.62 864.602 693.551 838.385C696.218 835.337 699.289 832.866 702.206 830.486C755.457 786.688 788.208 850.588 819.546 805.361C849.108 762.723 858.611 716.755 896.671 696.091C904.64 691.758 912.761 689.94 921.382 691.681C960.711 699.582 997.817 723.739 1030.45 755.537C1036.21 761.159 1042.86 767.716 1049.39 775.49C1089.69 823.386 1120.98 867.77 1164.93 870.418C1202.27 872.645 1213.86 846.459 1230.35 808.752C1241.78 782.633 1246.91 753.532 1262.3 725.342C1263.27 723.545 1264.42 721.854 1265.37 720.041C1289.84 673.701 1288.76 619.753 1306.81 567.204C1312.51 550.596 1321.49 538.54 1332.31 529.823C1370.74 498.849 1376.01 489.028 1425.11 525.522C1473.84 561.76 1473.8 572.439 1526.83 582.069C1568.71 589.682 1571.52 538.588 1611.6 574.81C1679.51 636.171 1710.28 664.358 1741.51 703.73" stroke="#3B95A3" stroke-width="0.64" stroke-miterlimit="10"/>
<path d="M638.194 1050.6C638.194 1050.6 627.754 994.299 634.773 956.236C639.036 933.076 646.61 928.974 658.529 906.569C672.943 879.493 682.871 851.693 705.981 826.162C708.708 823.149 711.844 820.737 714.774 818.404C769.09 775.39 802.404 840.381 834.265 796.864C864.189 756.001 873.992 709.727 911.384 689.313C919.241 685.036 927.261 683.218 935.805 684.955C974.904 692.941 1011.76 716.531 1044 747.52C1049.74 753.024 1056.33 759.469 1062.83 767.124C1102.41 813.74 1133.73 857.638 1177.72 860.072C1214.97 862.145 1226.94 836.24 1243.36 798.552C1254.68 772.589 1259.91 743.486 1275.01 714.967C1275.98 713.147 1277.09 711.414 1278.01 709.607C1302.1 662.482 1301.16 608.372 1319.21 556.606C1325.01 539.998 1334.07 528.025 1345.12 519.447C1384.11 489.162 1389.89 480.142 1439.14 517.281C1488.04 554.181 1488.24 565.024 1541.32 574.138C1583.79 581.418 1586.23 529.283 1626.7 565.579C1693.86 625.797 1725.2 654.013 1755.78 693.249" stroke="#3B95A3" stroke-width="0.64" stroke-miterlimit="10"/>
<path d="M654.505 1035.62C654.505 1035.62 643.978 980.048 650.421 941.428C654.308 918.088 661.507 912.743 672.997 890.148C686.974 862.655 696.976 834.659 720.272 809.838C723.059 806.859 726.237 804.512 729.227 802.214C784.607 759.984 818.485 826.066 850.861 784.234C881.125 745.154 891.233 698.598 927.957 678.435C935.72 674.182 943.645 672.389 952.071 674.156C990.916 682.234 1027.55 705.275 1059.4 735.432C1065.08 740.824 1071.64 747.15 1078.11 754.711C1117 800.094 1148.34 843.428 1192.37 845.678C1229.54 847.568 1241.84 821.979 1258.23 784.274C1269.46 758.46 1274.81 729.38 1289.59 700.514C1290.53 698.676 1291.61 696.927 1292.52 695.096C1316.21 647.192 1315.43 592.914 1333.5 541.925C1339.38 525.346 1348.53 513.425 1359.8 504.969C1399.33 475.348 1405.64 467.154 1455.05 504.932C1504.12 542.471 1504.58 553.525 1557.66 562.081C1600.71 569.034 1602.8 515.877 1643.65 552.252C1710.04 611.357 1741.98 639.567 1771.88 678.703" stroke="#3B95A3" stroke-width="0.64" stroke-miterlimit="10"/>
<path d="M672.3 1018.48C672.3 1018.48 661.685 963.639 667.559 924.485C671.095 900.96 677.901 894.403 688.955 871.593C702.477 843.713 712.561 815.544 736.054 791.379C738.906 788.459 742.115 786.129 745.153 783.92C801.597 742.473 836.008 809.63 868.937 769.525C899.558 732.197 909.971 685.359 946.028 665.446C953.672 661.224 961.502 659.456 969.851 661.218C1008.47 669.381 1044.85 691.855 1076.31 721.203C1081.96 726.477 1088.46 732.691 1094.92 740.157C1133.09 784.284 1164.45 827.084 1208.52 829.144C1245.61 830.88 1258.27 805.602 1274.63 767.88C1285.76 742.244 1291.22 713.133 1305.69 683.968C1306.62 682.107 1307.68 680.34 1308.56 678.491C1331.87 629.802 1331.22 575.387 1349.3 525.158C1355.25 508.583 1364.51 496.708 1376 488.423C1416.11 459.46 1422.92 452.12 1472.47 490.544C1521.71 528.722 1522.42 539.963 1575.52 548.008C1619.14 554.612 1620.86 500.462 1662.11 536.885C1727.72 594.854 1760.28 623.081 1789.48 662.094" stroke="#3B95A3" stroke-width="0.64" stroke-miterlimit="10"/>
<path d="M690.352 1000.49C690.352 1000.49 679.651 946.38 684.955 906.693C688.115 882.987 694.523 875.194 705.172 852.186C718.256 823.89 728.421 795.548 752.069 772.076C754.981 769.191 758.232 766.926 761.33 764.752C818.838 724.089 853.807 792.314 887.258 753.917C918.218 718.371 928.955 671.222 964.349 651.582C971.875 647.391 979.635 645.642 987.888 647.429C1026.25 655.684 1062.41 677.584 1093.48 706.124C1099.07 711.262 1105.55 717.381 1111.97 724.729C1149.44 767.6 1180.84 809.883 1224.93 811.735C1261.95 813.288 1274.97 788.321 1291.28 750.611C1302.32 725.125 1307.86 696.042 1322.04 666.524C1322.94 664.646 1323.99 662.855 1324.85 660.989C1347.74 611.521 1347.28 556.932 1365.36 507.486C1371.4 490.94 1380.75 479.117 1392.45 470.954C1433.11 442.656 1440.46 436.135 1490.16 475.204C1539.57 514.045 1540.53 525.449 1593.63 532.961C1637.84 539.208 1639.21 484.065 1680.82 520.544C1745.66 577.399 1778.82 605.62 1807.34 644.534" stroke="#3B95A3" stroke-width="0.64" stroke-miterlimit="10"/>
<path d="M708.522 981.79C708.522 981.79 697.733 928.407 702.462 888.162C705.27 864.27 711.285 855.266 721.499 832.043C734.128 803.36 744.374 774.845 768.219 752.029C771.191 749.18 774.484 746.979 777.618 744.846C836.197 704.99 871.699 774.289 905.696 737.596C936.989 703.809 948.055 656.371 982.758 636.988C990.196 632.845 997.831 631.103 1006.01 632.885C1044.14 641.226 1080.07 662.553 1110.73 690.29C1116.29 695.309 1122.72 701.34 1129.11 708.57C1165.85 750.191 1197.31 791.951 1241.44 793.619C1278.36 795.019 1291.73 770.339 1308.01 732.611C1318.94 707.28 1324.61 678.191 1338.48 648.35C1339.35 646.454 1340.37 644.645 1341.22 642.755C1363.69 592.515 1363.41 537.752 1381.48 489.088C1387.63 472.566 1397.04 460.778 1408.98 452.778C1450.22 425.115 1458.07 419.473 1507.93 459.157C1557.51 498.636 1558.7 510.234 1611.85 517.229C1656.62 523.126 1657.63 466.99 1699.63 503.518C1763.69 559.237 1797.46 587.475 1825.3 626.265" stroke="#3B95A3" stroke-width="0.64" stroke-miterlimit="10"/>
<path d="M726.746 962.617C726.746 962.617 715.87 909.966 720.03 869.187C722.486 845.109 728.085 834.898 737.892 811.478C750.06 782.385 760.418 753.714 784.419 731.591C787.456 728.8 790.785 726.641 793.955 724.548C853.605 685.5 889.628 755.826 924.177 720.859C955.804 688.831 967.175 641.111 1001.24 621.995C1008.56 617.883 1016.12 616.16 1024.2 617.943C1062.07 626.375 1097.79 647.129 1128.06 674.058C1133.58 678.959 1139.96 684.878 1146.32 692.013C1182.35 732.378 1213.83 773.603 1257.98 775.087C1294.81 776.31 1308.57 751.958 1324.8 714.219C1335.61 689.044 1341.39 659.977 1354.97 629.783C1355.83 627.863 1356.81 626.014 1357.63 624.107C1379.69 573.087 1379.6 518.15 1397.65 470.252C1403.87 453.735 1413.4 442.017 1425.53 434.17C1467.35 407.165 1475.7 402.354 1525.7 442.683C1575.45 482.801 1576.88 494.563 1630.07 501.041C1675.4 506.564 1676.05 449.459 1718.45 486.037C1781.71 540.648 1816.11 568.85 1843.29 607.558" stroke="#3B95A3" stroke-width="0.64" stroke-miterlimit="10"/>
<path d="M744.871 943.066C744.871 943.066 733.932 891.139 737.498 849.832C739.578 825.574 744.779 814.128 754.181 790.511C765.888 761.007 776.339 732.211 800.53 710.72C803.628 707.964 807.016 705.84 810.235 703.836C870.961 665.619 907.505 736.972 942.577 703.714C974.53 673.42 986.237 625.435 1019.61 606.577C1026.84 602.49 1034.28 600.797 1042.26 602.605C1079.91 611.123 1115.37 631.333 1145.25 657.43C1150.72 662.219 1157.04 668.025 1163.41 675.059C1198.71 714.198 1230.25 754.877 1274.42 756.153C1311.16 757.223 1325.27 733.158 1341.47 695.401C1352.2 670.375 1358.08 641.307 1371.35 610.814C1372.18 608.877 1373.16 607.004 1373.95 605.079C1395.6 553.257 1395.69 498.193 1413.74 451.055C1420.05 434.566 1429.66 422.877 1442.03 415.17C1484.39 388.806 1493.2 384.963 1543.41 425.818C1593.26 466.694 1594.98 478.53 1648.22 484.491C1694.13 489.635 1694.41 431.567 1737.2 468.193C1799.69 521.692 1834.69 549.887 1861.18 588.472" stroke="#3B95A3" stroke-width="0.64" stroke-miterlimit="10"/>
<path d="M762.781 923.369C762.781 923.369 751.772 872.142 754.746 830.308C756.474 805.864 761.258 793.212 770.248 769.373C781.5 739.483 792.062 710.531 816.397 689.686C819.56 686.989 822.985 684.905 826.239 682.943C888.043 645.557 925.101 717.912 960.732 686.405C993.018 657.869 1005.06 609.62 1037.77 591.012C1044.88 586.979 1052.22 585.288 1060.13 587.09C1097.52 595.7 1132.78 615.332 1162.24 640.602C1167.68 645.272 1173.95 650.967 1180.26 657.889C1214.83 695.777 1246.41 735.916 1290.63 737.001C1327.3 737.912 1341.77 714.134 1357.92 676.39C1368.54 651.543 1374.55 622.467 1387.5 591.627C1388.32 589.667 1389.25 587.782 1390.03 585.834C1411.25 533.239 1411.56 478.019 1429.58 431.646C1435.99 415.18 1445.69 403.52 1458.28 395.982C1501.21 370.253 1510.52 367.265 1560.91 408.782C1610.94 450.292 1612.87 462.303 1666.14 467.748C1712.61 472.494 1712.54 413.504 1755.72 450.18C1817.42 502.572 1853.03 530.761 1878.86 569.24" stroke="#3B95A3" stroke-width="0.64" stroke-miterlimit="10"/>
<path d="M780.389 903.675C780.389 903.675 769.316 853.173 771.697 810.811C773.073 786.181 777.464 772.316 786.019 748.263C796.81 717.962 807.466 688.885 831.991 668.672C835.214 666.01 838.681 663.992 841.971 662.07C904.828 625.521 942.425 698.874 978.608 669.093C1011.2 642.298 1023.58 593.785 1055.64 575.421C1062.65 571.413 1069.9 569.746 1077.71 571.573C1114.88 580.292 1149.89 599.333 1178.96 623.794C1184.34 628.329 1190.58 633.929 1196.87 640.756C1230.72 677.418 1262.35 717.011 1306.6 717.912C1343.17 718.645 1358.01 695.202 1374.12 657.416C1384.66 632.719 1390.76 603.642 1403.4 572.479C1404.2 570.501 1405.11 568.569 1405.87 566.627C1426.66 513.26 1427.15 457.866 1445.2 412.27C1451.7 395.832 1461.47 384.201 1474.28 376.809C1517.78 351.715 1527.59 349.582 1578.15 391.738C1628.35 433.887 1630.49 446.068 1683.81 450.996C1730.84 455.368 1730.42 395.433 1773.99 432.134C1834.9 483.442 1871.13 511.595 1896.27 549.951" stroke="#3B95A3" stroke-width="0.64" stroke-miterlimit="10"/>
<path d="M797.565 884.169C797.565 884.169 786.423 834.368 788.217 791.502C789.264 766.68 793.192 751.622 801.359 727.341C811.672 696.66 822.438 667.427 847.154 647.848C850.443 645.244 853.946 643.267 857.296 641.38C921.229 605.662 959.312 680.001 996.083 651.987C1028.99 626.904 1041.71 578.126 1073.09 560.065C1079.99 556.088 1087.14 554.446 1094.88 556.269C1131.79 565.079 1166.57 583.547 1195.26 607.223C1200.61 611.64 1206.8 617.127 1213.06 623.86C1246.15 659.278 1277.84 698.324 1322.15 699.035C1358.63 699.615 1373.84 676.452 1389.91 638.679C1400.33 614.137 1406.54 585.083 1418.89 553.568C1419.68 551.566 1420.54 549.623 1421.28 547.633C1441.62 493.5 1442.37 437.936 1460.36 393.112C1466.96 376.674 1476.82 365.125 1489.86 357.873C1533.93 333.413 1544.25 332.158 1594.94 374.937C1645.31 417.724 1647.67 430.051 1701.07 434.504C1748.67 438.473 1747.86 377.604 1791.84 414.348C1851.96 464.55 1888.82 492.69 1913.27 530.946" stroke="#3B95A3" stroke-width="0.64" stroke-miterlimit="10"/>
<path d="M814.199 865.008C814.199 865.008 803.017 815.925 804.188 772.514C804.878 747.482 808.389 731.218 816.157 706.763C826.008 675.672 836.898 646.331 861.751 627.373C865.106 624.828 868.639 622.868 872.037 621.07C937.023 586.189 975.638 661.501 1012.97 635.238C1046.18 611.872 1059.24 562.876 1089.97 545.036C1096.77 541.084 1103.81 539.473 1111.47 541.314C1148.13 550.216 1182.71 568.105 1210.99 590.978C1216.31 595.277 1222.42 600.682 1228.67 607.266C1261.04 641.458 1292.79 679.958 1337.11 680.461C1373.52 680.858 1389.07 658.012 1405.11 620.245C1415.46 595.876 1421.76 566.797 1433.8 534.982C1434.56 532.963 1435.41 530.996 1436.13 528.989C1456.04 474.083 1457 418.363 1474.97 374.305C1481.65 357.895 1491.61 346.368 1504.88 339.286C1549.53 315.431 1560.36 315.055 1611.19 358.479C1661.73 401.905 1664.31 414.402 1717.75 418.338C1765.9 421.885 1764.74 360.149 1809.12 396.889C1868.45 446.006 1905.93 474.11 1929.7 512.244" stroke="#3B95A3" stroke-width="0.64" stroke-miterlimit="10"/>
<path d="M830.168 846.399C830.168 846.399 818.917 798.017 819.501 754.102C819.832 728.86 822.934 711.414 830.29 686.738C839.662 655.266 850.669 625.794 875.707 607.445C879.128 604.958 882.697 603.039 886.131 601.283C952.176 567.263 991.288 643.507 1029.21 619.035C1062.74 597.38 1076.14 548.12 1106.19 530.584C1112.88 526.663 1119.84 525.046 1127.38 526.918C1163.81 535.906 1198.13 553.204 1226 575.275C1231.26 579.438 1237.35 584.748 1243.57 591.238C1275.19 624.21 1307 662.163 1351.35 662.458C1387.66 662.702 1403.59 640.16 1419.55 602.364C1429.78 578.151 1436.22 549.088 1447.94 516.927C1448.67 514.89 1449.52 512.899 1450.23 510.869C1469.68 455.172 1470.88 399.313 1488.85 356.015C1495.64 339.627 1505.65 328.136 1519.14 321.2C1564.37 297.979 1575.69 298.459 1626.67 342.527C1677.37 386.592 1680.15 399.242 1733.66 402.702C1782.37 405.852 1780.84 343.2 1825.63 379.959C1884.17 427.97 1922.27 456.038 1945.38 494.089" stroke="#3B95A3" stroke-width="0.64" stroke-miterlimit="10"/>
<path d="M845.35 828.451C845.35 828.451 834.052 780.764 834.026 736.351C834.005 710.923 836.691 692.271 843.635 667.374C852.523 635.497 863.636 605.947 888.858 588.207C892.338 585.755 895.949 583.902 899.443 582.18C966.548 549.021 1006.18 626.191 1044.67 603.493C1078.49 583.532 1092.26 534.072 1121.64 516.762C1128.24 512.889 1135.07 511.28 1142.55 513.171C1178.73 522.274 1212.84 538.969 1240.3 560.238C1245.52 564.282 1251.56 569.48 1257.76 575.875C1288.63 607.627 1320.52 645.028 1364.89 645.115C1401.12 645.205 1417.4 622.95 1433.34 585.161C1443.48 561.096 1450.02 532.033 1461.43 499.548C1462.15 497.488 1462.94 495.462 1463.62 493.438C1482.62 436.975 1484.06 380.954 1502 338.421C1508.89 322.056 1518.99 310.593 1532.7 303.827C1578.52 281.211 1590.33 282.599 1641.47 327.283C1692.34 371.987 1695.31 384.812 1748.89 387.75C1798.17 390.473 1796.24 326.964 1841.49 363.73C1899.24 410.658 1937.96 438.689 1960.39 476.618" stroke="#3B95A3" stroke-width="0.64" stroke-miterlimit="10"/>
<path d="M859.628 811.397C859.628 811.397 848.284 764.405 847.647 719.494C847.292 693.85 849.52 674.028 856.076 648.904C864.485 616.647 875.715 586.964 901.122 569.834C904.668 567.441 908.339 565.622 911.846 563.947C980.009 531.65 1020.15 609.721 1059.21 588.821C1093.35 570.548 1107.44 520.853 1136.16 503.841C1142.64 499.999 1149.41 498.409 1156.78 500.3C1192.73 509.489 1226.62 525.611 1253.66 546.077C1258.86 550.003 1264.82 555.119 1271.01 561.389C1301.14 591.921 1333.08 628.751 1377.51 628.672C1413.64 628.585 1430.39 606.687 1446.19 568.834C1456.28 544.96 1462.92 515.896 1473.98 483.047C1474.67 480.969 1475.45 478.92 1476.11 476.878C1494.65 419.649 1496.33 363.464 1514.26 321.691C1521.27 305.372 1531.45 293.915 1545.35 287.324C1591.76 265.313 1604.08 267.58 1655.34 312.938C1706.41 358.299 1709.54 371.259 1763.23 373.715C1813.04 375.993 1810.74 311.622 1856.42 348.402C1913.38 394.246 1952.72 422.242 1974.47 460.07" stroke="#3B95A3" stroke-width="0.64" stroke-miterlimit="10"/>
<path d="M872.937 795.38C872.937 795.38 861.547 749.082 860.294 703.649C859.581 677.795 861.399 656.792 867.543 631.447C875.467 598.785 886.827 569.018 912.412 552.473C916 550.145 919.707 548.367 923.28 546.751C992.479 515.32 1033.16 594.288 1072.8 575.209C1107.25 558.623 1121.69 508.711 1149.74 491.95C1156.13 488.133 1162.77 486.573 1170.07 488.483C1205.77 497.763 1239.46 513.306 1266.09 532.97C1271.22 536.76 1277.16 541.781 1283.32 547.934C1312.7 577.268 1344.73 613.523 1389.17 613.235C1425.24 612.989 1442.32 591.384 1458.09 553.537C1468.07 529.819 1474.84 500.771 1485.59 467.599C1486.28 465.497 1487.01 463.437 1487.67 461.341C1505.76 403.346 1507.71 347.016 1525.58 305.991C1532.67 289.701 1542.93 278.272 1557.08 271.822C1604.07 250.439 1616.87 253.567 1668.31 299.565C1719.54 345.564 1722.86 358.676 1776.62 360.634C1826.99 362.49 1824.31 297.281 1870.41 334.027C1926.56 378.817 1966.55 406.746 1987.6 444.452" stroke="#3B95A3" stroke-width="0.64" stroke-miterlimit="10"/>
<path d="M885.103 780.596C885.103 780.596 873.661 734.969 871.803 689.063C870.755 662.993 872.116 640.819 877.873 615.247C885.318 582.205 896.778 552.336 922.541 536.376C926.195 534.107 929.962 532.364 933.57 530.789C1003.83 500.243 1045.03 580.09 1085.23 562.808C1119.99 547.886 1134.78 497.78 1162.15 481.299C1168.42 477.513 1174.97 475.978 1182.17 477.889C1217.61 487.261 1251.09 502.201 1277.32 521.086C1282.42 524.757 1288.29 529.697 1294.44 535.724C1323.07 563.839 1355.16 599.547 1399.65 599.045C1435.62 598.646 1453.06 577.328 1468.8 539.464C1478.69 515.894 1485.56 486.845 1496 453.35C1496.66 451.231 1497.38 449.147 1498.02 447.034C1515.63 388.278 1517.83 331.78 1535.67 291.496C1542.87 275.229 1553.22 263.829 1567.56 257.555C1615.14 236.754 1628.43 240.789 1680 287.432C1731.4 334.071 1734.91 347.312 1788.75 348.817C1839.66 350.229 1836.61 284.181 1883.14 320.916C1938.5 364.624 1979.09 392.523 1999.48 430.123" stroke="#3B95A3" stroke-width="0.64" stroke-miterlimit="10"/>
<path d="M896.031 767.173C896.031 767.173 884.543 722.24 882.075 675.836C880.669 649.557 881.596 626.207 886.971 600.431C893.913 567.014 905.503 537.061 931.462 521.657C935.182 519.446 938.985 517.745 942.629 516.211C1013.93 486.532 1055.67 567.221 1096.44 551.814C1131.53 538.55 1146.63 488.263 1173.36 472.026C1179.54 468.288 1185.99 466.754 1193.09 468.69C1228.28 478.177 1261.53 492.52 1287.37 510.596C1292.44 514.15 1298.23 518.983 1304.38 524.91C1332.25 551.834 1364.43 586.96 1408.95 586.25C1444.83 585.698 1462.62 564.667 1478.33 526.808C1488.12 503.395 1495.09 474.344 1505.24 440.52C1505.89 438.378 1506.58 436.276 1507.19 434.146C1524.35 374.623 1526.82 317.98 1544.62 278.438C1551.93 262.194 1562.35 250.799 1576.91 244.694C1625.08 224.497 1638.88 229.435 1690.6 276.7C1742.16 323.978 1745.84 337.377 1799.78 338.377C1851.22 339.344 1847.79 272.487 1894.77 309.182C1949.32 351.836 1990.55 379.669 2010.27 417.14" stroke="#3B95A3" stroke-width="0.64" stroke-miterlimit="10"/>
<path d="M905.629 755.336C905.629 755.336 894.119 711.092 891.011 664.173C889.27 637.677 889.74 613.157 894.726 587.154C901.184 553.334 912.856 523.308 939.017 508.483C942.803 506.331 946.636 504.647 950.322 503.178C1022.66 474.39 1064.95 555.922 1106.28 542.342C1141.67 530.718 1157.13 480.261 1183.19 464.298C1189.25 460.591 1195.61 459.082 1202.64 461.013C1237.6 470.585 1270.64 484.325 1296.05 501.629C1301.06 505.047 1306.83 509.809 1312.94 515.594C1340.07 541.322 1372.31 575.877 1416.85 574.983C1452.66 574.271 1470.81 553.551 1486.47 515.658C1496.17 492.393 1503.24 463.366 1513.08 429.219C1513.7 427.058 1514.36 424.915 1514.96 422.785C1531.65 362.502 1534.37 305.69 1552.15 266.914C1559.57 250.716 1570.05 239.332 1584.85 233.391C1633.61 213.799 1647.9 219.622 1699.76 267.532C1751.51 315.442 1755.35 328.976 1809.39 329.518C1861.38 330.017 1857.56 262.375 1904.99 299.054C1958.75 340.624 2000.6 368.397 2019.64 405.792" stroke="#3B95A3" stroke-width="0.64" stroke-miterlimit="10"/>
<path d="M913.733 745.229C913.733 745.229 902.171 701.656 898.458 654.262C896.359 627.557 896.425 601.879 900.994 575.631C906.95 541.436 918.751 511.326 945.107 497.057C948.959 494.963 952.828 493.32 956.58 491.91C1029.96 464.013 1072.8 546.363 1114.69 534.658C1150.43 524.662 1166.18 474.054 1191.57 458.341C1197.52 454.665 1203.78 453.181 1210.73 455.107C1245.44 464.794 1278.27 477.908 1303.27 494.433C1308.25 497.732 1313.94 502.388 1320.03 508.079C1346.39 532.616 1378.73 566.589 1423.29 565.487C1459.01 564.598 1477.52 544.189 1493.15 506.302C1502.74 483.192 1509.92 454.164 1519.46 419.688C1520.06 417.51 1520.71 415.343 1521.28 413.172C1537.49 352.152 1540.5 295.165 1558.24 257.131C1565.8 240.949 1576.33 229.601 1591.33 223.835C1640.7 204.842 1655.45 211.556 1707.47 260.105C1759.4 308.654 1763.4 322.346 1817.54 322.383C1870.06 322.414 1865.86 253.987 1913.73 290.625C1966.69 331.142 2009.17 358.849 2027.53 396.12" stroke="#3B95A3" stroke-width="0.64" stroke-miterlimit="10"/>
<path d="M920.285 737.02C920.285 737.02 908.694 694.112 904.353 646.25C901.914 619.305 901.528 592.481 905.709 566.006C911.162 531.436 923.076 501.272 949.622 487.535C953.546 485.523 957.445 483.898 961.233 482.529C1035.66 455.522 1079.06 538.685 1121.48 528.838C1157.57 520.469 1173.6 469.662 1198.37 454.265C1204.22 450.614 1210.37 449.184 1217.24 451.104C1251.69 460.937 1284.32 473.394 1308.91 489.14C1313.86 492.298 1319.49 496.895 1325.57 502.461C1351.16 525.808 1383.56 559.258 1428.18 557.889C1463.82 556.894 1482.69 536.718 1498.28 498.843C1507.76 475.913 1515.06 446.854 1524.3 412.054C1524.88 409.853 1525.48 407.675 1526.04 405.48C1541.78 343.7 1545.08 286.562 1562.76 249.276C1570.43 233.14 1581.04 221.797 1596.26 216.177C1646.21 197.766 1661.45 205.388 1713.62 254.605C1765.71 303.794 1769.88 317.621 1824.13 317.2C1877.18 316.785 1872.58 247.58 1920.91 284.147C1973.07 323.611 2016.19 351.252 2033.87 388.424" stroke="#3B95A3" stroke-width="0.64" stroke-miterlimit="10"/>
<path d="M925.126 730.876C925.126 730.876 913.506 688.633 908.556 640.273C905.782 613.112 904.939 585.118 908.731 558.415C913.706 523.465 925.702 493.229 952.467 480.041C956.457 478.088 960.392 476.504 964.24 475.17C1039.71 449.078 1083.66 533.006 1126.63 525.04C1163.07 518.275 1179.41 467.334 1203.49 452.194C1209.22 448.573 1215.3 447.162 1222.05 449.09C1256.24 459.014 1288.67 470.869 1312.85 485.836C1317.77 488.875 1323.32 493.39 1329.39 498.808C1354.2 520.994 1386.72 553.808 1431.37 552.279C1466.92 551.13 1486.14 531.241 1501.7 493.349C1511.09 470.568 1518.47 441.537 1527.41 406.385C1527.97 404.166 1528.56 401.965 1529.09 399.752C1544.35 337.212 1547.92 279.928 1565.57 243.384C1573.35 227.271 1584.03 215.933 1599.48 210.507C1650.04 192.694 1665.77 201.225 1718.08 251.064C1770.34 300.915 1774.64 314.859 1829.02 313.95C1882.6 313.043 1877.6 243.107 1926.4 279.604C1977.77 318.008 2021.51 345.589 2038.5 382.638" stroke="#3B95A3" stroke-width="0.64" stroke-miterlimit="10"/>
<path d="M928.182 726.993C928.182 726.993 916.51 685.42 910.955 636.587C907.84 609.186 906.552 580.069 909.951 553.116C914.423 517.792 926.501 487.483 953.516 474.862C957.548 472.974 961.542 471.425 965.426 470.132C1041.92 444.937 1086.48 529.666 1129.97 523.586C1166.78 518.443 1183.41 467.351 1206.83 452.484C1212.46 448.888 1218.42 447.485 1225.1 449.455C1259.07 459.465 1291.26 470.722 1315.04 484.911C1319.89 487.814 1325.41 492.264 1331.47 497.557C1355.51 518.554 1388.12 550.761 1432.8 549.048C1468.27 547.716 1487.84 528.167 1503.37 490.258C1512.65 467.632 1520.16 438.594 1528.79 403.143C1529.34 400.9 1529.87 398.664 1530.41 396.451C1545.17 333.181 1549.05 275.739 1566.66 239.914C1574.55 223.847 1585.32 212.514 1600.96 207.263C1652.13 190.049 1668.32 199.471 1720.8 249.949C1773.25 300.433 1777.67 314.524 1832.19 313.145C1886.29 311.776 1880.89 241.084 1930.18 277.505C1980.75 314.88 2025.12 342.371 2041.45 379.313" stroke="#3B95A3" stroke-width="0.64" stroke-miterlimit="10"/>
<path d="M929.324 725.557C929.324 725.557 867.636 509.893 952.621 472.113C1037.61 434.333 1085.16 528.95 1131.36 524.562C1177.57 520.174 1192.47 442.129 1226.2 452.225C1259.92 462.327 1291.92 472.975 1315.27 486.391C1338.63 499.807 1375.93 550.636 1432.28 548.222C1488.63 545.809 1505.78 498.425 1528.21 402.259C1550.63 306.093 1548.67 223 1600.47 206.355C1652.27 189.71 1668.9 200.052 1721.52 251.175C1774.14 302.298 1778.72 316.524 1833.35 314.663C1887.98 312.802 1882.19 241.402 1931.96 277.747C1981.73 314.092 2026.73 341.493 2042.37 378.313" stroke="#3B95A3" stroke-width="0.64" stroke-miterlimit="10"/>
</g>
</g>
<defs>
<clipPath id="clip0_103_1217">
<rect width="1727.05" height="761.283" fill="white" transform="translate(0.367188 436.619) rotate(-14.644)"/>
</clipPath>
</defs>
</svg>
