<svg width="58" height="71" viewBox="0 0 58 71" fill="none" xmlns="http://www.w3.org/2000/svg">
<path d="M55.7245 63.0977L49.6907 57.0454C51.1111 54.0769 51.436 50.7017 50.6082 47.5166C49.7803 44.3317 47.8527 41.5421 45.1666 39.641C42.4805 37.7399 39.2086 36.8498 35.9296 37.1281C32.6505 37.4066 29.5756 38.8354 27.2482 41.1621C24.9211 43.4888 23.4915 46.5634 23.2123 49.8424C22.9332 53.1214 23.8224 56.3936 25.7229 59.0801C27.6233 61.7667 30.4126 63.6948 33.5973 64.5234C36.7821 65.352 40.1573 65.0279 43.1262 63.6083L49.1771 69.6421C49.607 70.0723 50.1176 70.4138 50.6796 70.6468C51.2415 70.8798 51.8438 70.9998 52.4522 71C53.0605 71.0003 53.663 70.8807 54.2252 70.648C54.7873 70.4155 55.2981 70.0743 55.7284 69.6444C56.1586 69.2144 56.5001 68.7037 56.7331 68.1418C56.9661 67.5799 57.0861 66.9776 57.0863 66.3693C57.0866 65.7608 56.967 65.1585 56.7343 64.5963C56.5018 64.0342 56.1606 63.5233 55.7307 63.0931L55.7245 63.0977ZM29.4729 58.7132C27.9584 57.1985 26.9271 55.2688 26.5093 53.1681C26.0915 51.0673 26.306 48.8898 27.1257 46.9111C27.9454 44.9321 29.3336 43.2408 31.1145 42.0509C32.8954 40.8609 34.9893 40.2258 37.1311 40.2258C39.273 40.2258 41.3669 40.8609 43.1478 42.0509C44.9287 43.2408 46.3169 44.9321 47.1366 46.9111C47.9562 48.8898 48.1708 51.0673 47.7531 53.1681C47.3352 55.2688 46.3039 57.1985 44.7894 58.7132C42.757 60.7418 40.0028 61.8811 37.1311 61.8811C34.2595 61.8811 31.5053 60.7418 29.4729 58.7132ZM53.5307 67.4544C53.241 67.7406 52.8502 67.9012 52.443 67.9012C52.0358 67.9012 51.645 67.7406 51.3554 67.4544L45.8152 61.9265C46.6279 61.2865 47.3623 60.5527 48.0028 59.7405L53.5307 65.2884C53.6741 65.4309 53.788 65.6003 53.8656 65.7871C53.9433 65.9737 53.9832 66.1739 53.9832 66.3761C53.9832 66.5783 53.9433 66.7785 53.8656 66.9651C53.788 67.1518 53.6741 67.3212 53.5307 67.4637V67.4544Z" fill="#9C9C9C"/>
<path d="M27.8483 64.9793H7.73563C6.50474 64.9793 5.32413 64.4903 4.45368 63.6199C3.58325 62.7495 3.09425 61.5689 3.09425 60.338V7.73566C3.09425 6.50469 3.58325 5.32414 4.45368 4.45371C5.32413 3.58329 6.50474 3.09428 7.73563 3.09428H34.6247C34.9471 3.09512 35.2688 3.12985 35.5839 3.19794V12.377C35.5839 13.608 36.073 14.7886 36.9434 15.659C37.8138 16.5294 38.9944 17.0184 40.2253 17.0184H49.3889C49.4653 17.3487 49.5053 17.6865 49.508 18.0256V38.6782C49.508 39.0885 49.6711 39.4821 49.9612 39.7722C50.2513 40.0623 50.6449 40.2253 51.0552 40.2253C51.4655 40.2253 51.8591 40.0623 52.1491 39.7722C52.4392 39.4821 52.6023 39.0885 52.6023 38.6782V18.0256C52.6045 17.0126 52.4064 16.0091 52.02 15.0728C51.6333 14.1363 51.0658 13.2854 50.3497 12.5689L40.1077 2.27895C39.3908 1.55426 38.5366 0.979534 37.5953 0.588281C36.6539 0.197028 35.6441 -0.00293787 34.6247 3.26149e-05H7.73563C5.68476 0.00249255 3.71861 0.818277 2.26843 2.26846C0.818244 3.71864 0.00245993 5.68481 0 7.73566V60.338C0.00245993 62.3888 0.818244 64.3549 2.26843 65.8052C3.71861 67.2553 5.68476 68.0711 7.73563 68.0736H27.8483C28.2586 68.0736 28.6522 67.9105 28.9422 67.6204C29.2323 67.3304 29.3954 66.9368 29.3954 66.5265C29.3954 66.1162 29.2323 65.7226 28.9422 65.4325C28.6522 65.1423 28.2586 64.9793 27.8483 64.9793ZM47.3328 13.9242H40.2253C39.815 13.9242 39.4214 13.7611 39.1313 13.471C38.8412 13.1809 38.6782 12.7874 38.6782 12.377V5.22932L47.3328 13.9242Z" fill="#9C9C9C"/>
<path d="M10.8298 17.0184H27.8482C28.2585 17.0184 28.6521 16.8554 28.9422 16.5653C29.2323 16.2752 29.3954 15.8816 29.3954 15.4713C29.3954 15.061 29.2323 14.6674 28.9422 14.3773C28.6521 14.0873 28.2585 13.9242 27.8482 13.9242H10.8298C10.4195 13.9242 10.026 14.0873 9.73587 14.3773C9.44578 14.6674 9.28271 15.061 9.28271 15.4713C9.28271 15.8816 9.44578 16.2752 9.73587 16.5653C10.026 16.8554 10.4195 17.0184 10.8298 17.0184Z" fill="#9C9C9C"/>
<path d="M41.7725 23.2069H15.4713C15.061 23.2069 14.6674 23.37 14.3773 23.6601C14.0873 23.9501 13.9242 24.3437 13.9242 24.754C13.9242 25.1643 14.0873 25.5579 14.3773 25.848C14.6674 26.1381 15.061 26.3012 15.4713 26.3012H41.7725C42.1828 26.3012 42.5764 26.1381 42.8664 25.848C43.1565 25.5579 43.3196 25.1643 43.3196 24.754C43.3196 24.3437 43.1565 23.9501 42.8664 23.6601C42.5764 23.37 42.1828 23.2069 41.7725 23.2069Z" fill="#9C9C9C"/>
<path d="M43.3195 32.4896C43.3195 32.0793 43.1564 31.6857 42.8663 31.3957C42.5763 31.1056 42.1827 30.9425 41.7724 30.9425H10.8298C10.4195 30.9425 10.026 31.1056 9.73587 31.3957C9.44578 31.6857 9.28271 32.0793 9.28271 32.4896C9.28271 32.8999 9.44578 33.2935 9.73587 33.5836C10.026 33.8737 10.4195 34.0368 10.8298 34.0368H41.7724C42.1827 34.0368 42.5763 33.8737 42.8663 33.5836C43.1564 33.2935 43.3195 32.8999 43.3195 32.4896Z" fill="#9C9C9C"/>
<path d="M21.6597 40.2252C21.6597 39.8149 21.4967 39.4213 21.2066 39.1313C20.9165 38.8412 20.5229 38.6781 20.1126 38.6781H10.8298C10.4195 38.6781 10.026 38.8412 9.73587 39.1313C9.44578 39.4213 9.28271 39.8149 9.28271 40.2252C9.28271 40.6355 9.44578 41.0291 9.73587 41.3192C10.026 41.6093 10.4195 41.7724 10.8298 41.7724H20.1126C20.5229 41.7724 20.9165 41.6093 21.2066 41.3192C21.4967 41.0291 21.6597 40.6355 21.6597 40.2252Z" fill="#9C9C9C"/>
<path d="M10.8298 49.5081H17.0183C17.4286 49.5081 17.8222 49.345 18.1123 49.0549C18.4024 48.7648 18.5655 48.3712 18.5655 47.9609C18.5655 47.5506 18.4024 47.1571 18.1123 46.867C17.8222 46.5769 17.4286 46.4138 17.0183 46.4138H10.8298C10.4195 46.4138 10.026 46.5769 9.73587 46.867C9.44578 47.1571 9.28271 47.5506 9.28271 47.9609C9.28271 48.3712 9.44578 48.7648 9.73587 49.0549C10.026 49.345 10.4195 49.5081 10.8298 49.5081Z" fill="#9C9C9C"/>
<path d="M10.8298 57.2437H18.5655C18.9758 57.2437 19.3694 57.0806 19.6594 56.7905C19.9495 56.5004 20.1126 56.1068 20.1126 55.6965C20.1126 55.2862 19.9495 54.8927 19.6594 54.6026C19.3694 54.3125 18.9758 54.1494 18.5655 54.1494H10.8298C10.4195 54.1494 10.026 54.3125 9.73587 54.6026C9.44578 54.8927 9.28271 55.2862 9.28271 55.6965C9.28271 56.1068 9.44578 56.5004 9.73587 56.7905C10.026 57.0806 10.4195 57.2437 10.8298 57.2437Z" fill="#9C9C9C"/>
<path d="M37.131 55.6966C35.9001 55.6966 34.7195 55.2075 33.8491 54.3371C32.9787 53.4667 32.4896 52.2861 32.4896 51.0552C32.4896 50.6449 32.3266 50.2513 32.0365 49.9612C31.7464 49.6711 31.3528 49.5081 30.9425 49.5081C30.5322 49.5081 30.1386 49.6711 29.8485 49.9612C29.5585 50.2513 29.3954 50.6449 29.3954 51.0552C29.3979 53.1061 30.2137 55.0721 31.6638 56.5224C33.1141 57.9725 35.0801 58.7883 37.131 58.7908C37.5413 58.7908 37.9349 58.6277 38.225 58.3377C38.5151 58.0476 38.6781 57.654 38.6781 57.2437C38.6781 56.8334 38.5151 56.4398 38.225 56.1497C37.9349 55.8596 37.5413 55.6966 37.131 55.6966Z" fill="#9C9C9C"/>
</svg>
