<svg width="57" height="72" viewBox="0 0 57 72" fill="none" xmlns="http://www.w3.org/2000/svg">
<path d="M55.2467 16.1179L40.767 1.6357C39.7281 0.596778 38.2905 0 36.8191 0H14.8881C11.8099 0 9.30684 2.50309 9.30684 5.58121V9.30201H5.58121C2.50309 9.30201 0 11.8051 0 14.8832V66.4188C0 69.4969 2.50309 72 5.58121 72H41.992C45.0701 72 47.5732 69.4969 47.5732 66.4188V62.6811H51.3012C54.3793 62.6811 56.8824 60.178 56.8824 57.0999V20.0634C56.8824 18.5726 56.3026 17.1713 55.2467 16.1179ZM49.4601 16.4779H41.6368C40.9579 16.4779 40.4046 15.9246 40.4046 15.2456V7.42228L49.4601 16.4779ZM43.2242 66.4188C43.2242 67.0977 42.6709 67.651 41.992 67.651H5.58121C4.90228 67.651 4.34899 67.0977 4.34899 66.4188V14.8832C4.34899 14.2043 4.90228 13.651 5.58121 13.651H9.30684V57.0975C9.30684 60.1756 11.8099 62.6787 14.8881 62.6787H43.2242V66.4188ZM51.3012 58.3321H14.8881C14.2091 58.3321 13.6558 57.7788 13.6558 57.0999V5.58121C13.6558 4.90228 14.2091 4.34899 14.8881 4.34899H36.0556V15.2456C36.0556 18.3238 38.5587 20.8268 41.6368 20.8268H52.5334V57.0975C52.5334 57.7788 51.9801 58.3321 51.3012 58.3321Z" fill="#9C9C9C"/>
<path d="M46.3748 26.0406H19.8145C18.6137 26.0406 17.64 27.0143 17.64 28.2151C17.64 29.416 18.6137 30.3896 19.8145 30.3896H46.3772C47.578 30.3896 48.5517 29.416 48.5517 28.2151C48.5517 27.0143 47.5756 26.0406 46.3748 26.0406Z" fill="#9C9C9C"/>
<path d="M19.8145 19.6261H30.4647C31.6655 19.6261 32.6392 18.6524 32.6392 17.4516C32.6392 16.2508 31.6655 15.2771 30.4647 15.2771H19.8145C18.6137 15.2771 17.64 16.2508 17.64 17.4516C17.64 18.6524 18.6137 19.6261 19.8145 19.6261Z" fill="#9C9C9C"/>
<path d="M46.3748 36.8047H19.8145C18.6137 36.8047 17.64 37.7784 17.64 38.9792C17.64 40.18 18.6137 41.1537 19.8145 41.1537H46.3772C47.578 41.1537 48.5517 40.18 48.5517 38.9792C48.5517 37.7784 47.5756 36.8047 46.3748 36.8047Z" fill="#9C9C9C"/>
<path d="M46.3748 47.5682H19.8145C18.6137 47.5682 17.64 48.5419 17.64 49.7427C17.64 50.9435 18.6137 51.9172 19.8145 51.9172H46.3772C47.578 51.9172 48.5517 50.9435 48.5517 49.7427C48.5517 48.5419 47.5756 47.5682 46.3748 47.5682Z" fill="#9C9C9C"/>
</svg>
