<svg width="58" height="71" viewBox="0 0 58 71" fill="none" xmlns="http://www.w3.org/2000/svg">
<path fill-rule="evenodd" clip-rule="evenodd" d="M28.8658 61.9326C28.7411 61.9326 28.6163 61.9326 28.4499 61.891C8.19391 56.5255 7.27885 37.2261 7.27885 37.0182V15.8471C7.27885 15.2648 7.57001 14.6825 8.11072 14.3913C8.94259 13.8922 29.0738 2.5372 49.6626 14.3913C51.5343 15.5144 49.8705 18.3843 47.9988 17.3029C31.3615 7.69479 14.4745 14.932 10.6063 16.8453V36.9766C10.6479 37.9748 11.6878 54.0299 29.3234 58.6468C31.1951 59.1459 30.8207 61.9326 28.8658 61.9326ZM28.8658 71C28.7411 71 28.5747 70.9584 28.4499 70.9168C14.2665 67.1734 7.27885 58.3556 3.90978 51.5759C0.291154 44.2554 0 37.85 0 37.5589V8.65144C0 8.06913 0.291154 7.52841 0.831869 7.23726C1.33099 6.9461 13.4763 0 29.8641 0C39.5138 0 48.6227 2.45401 56.9414 7.23726C57.4405 7.52841 57.7733 8.06913 57.7733 8.65144V37.5589C57.7733 37.85 57.4821 44.2554 53.8635 51.5759C50.4944 58.3556 43.5067 67.1734 29.3234 70.9168C29.157 70.9584 29.0322 71 28.8658 71ZM3.32747 37.5173C3.36907 38.8067 4.74165 60.976 28.8658 67.5893C52.9484 61.0176 54.4042 38.3907 54.4458 37.5173V9.64968C46.8758 5.44874 38.6403 3.32748 29.8641 3.32748C16.7622 3.32748 6.28061 8.15231 3.32747 9.64968V37.5173Z" fill="#9C9C9C"/>
</svg>
