<svg width="58" height="59" viewBox="0 0 58 59" fill="none" xmlns="http://www.w3.org/2000/svg">
<path d="M0 31.4386V32.8037V57.224H13.8922V53.7793L13.9513 53.8006C17.5825 55.0082 22.7757 56.0818 27.908 57.9172L28.2896 58.0463L28.6658 57.9603C30.2787 57.5847 34.6246 56.2445 39.8064 54.5799C44.9882 52.9152 50.8996 50.9487 55.2948 49.4314C57.3981 48.703 58.5292 46.3504 57.7562 44.2614C56.9439 42.1241 54.5876 41.1628 52.5808 41.7788C50.9095 42.291 43.0653 44.7139 37.9147 46.234C37.9633 44.7649 38.3495 43.1762 37.157 42.2408L37.0925 42.1764L37.0119 42.1439C31.2227 38.6902 30.7321 38.2426 22.593 33.9166L22.2114 33.7284L21.7922 33.7714C18.9933 34.0717 14.2381 34.8588 13.8922 34.9162V31.4389L0 31.4386ZM2.75157 34.1905H11.1568V54.4725H2.75157V34.1905ZM21.6686 36.5657C29.1032 40.5253 29.957 41.1298 35.4534 44.4068C36.3448 45.1063 36.5823 45.9655 36.0446 46.739C35.7558 47.1544 35.4535 47.319 35.0342 47.3889C34.6149 47.4642 34.0359 47.3675 33.3736 47.0769C30.8983 45.9329 29.5516 45.2034 26.8171 43.6696L25.6187 42.9981L24.2751 45.3949L25.4736 46.0665C28.2257 47.6101 29.6794 48.4149 32.2396 49.5973H32.2611C33.3071 50.0632 34.4109 50.286 35.4963 50.102C35.9468 50.0267 36.241 49.5672 36.6518 49.3444L36.6948 49.4682L38.0168 49.0916C43.1741 47.5813 51.6617 44.9541 53.3816 44.4269V44.4052C54.0316 44.2061 54.9098 44.5343 55.1712 45.2219C55.4145 45.9116 55.0973 46.5793 54.3919 46.8234C50.0265 48.3304 44.1269 50.2915 38.9627 51.9505C33.928 53.5678 29.6676 54.858 28.3272 55.1857C23.162 53.3921 18.0291 52.261 14.8166 51.1926L13.8922 50.8967V37.6979L14.1233 37.6654C14.1233 37.6654 18.8726 36.8938 21.6686 36.5657Z" fill="#9C9C9C"/>
<path d="M40.3908 0C30.999 0 23.3457 7.65292 23.3457 17.0445C23.3457 26.436 30.999 34.0679 40.3908 34.0679C49.7827 34.0679 57.415 26.436 57.415 17.0445C57.415 7.65292 49.7827 0 40.3908 0ZM40.3908 2.75318C48.2956 2.75318 54.6617 9.13991 54.6617 17.0445C54.6617 24.949 48.2956 31.3148 40.3908 31.3148C32.4861 31.3148 26.099 24.949 26.099 17.0445C26.099 9.13991 32.4861 2.75318 40.3908 2.75318Z" fill="#9C9C9C"/>
<path d="M38.9949 7.84058V9.2326V10.2269H35.2491V18.4116H42.7622V21.0935H36.6357H35.2491V23.8451H36.6357H38.9949V24.8338V26.2203H41.7465V24.8338V23.8451H45.5138V15.6601H38.0007V12.9785H44.1273H45.5138V10.2269H44.1273H41.7465V9.2326V7.84058H38.9949Z" fill="#9C9C9C"/>
</svg>
