<svg width="66" height="66" viewBox="0 0 66 66" fill="none" xmlns="http://www.w3.org/2000/svg">
<path d="M30.8013 35.2016C30.5096 35.2016 30.2298 35.3175 30.0235 35.5238C29.8172 35.7301 29.7013 36.0099 29.7013 36.3017C29.7013 36.5934 29.8172 36.8732 30.0235 37.0795C30.2298 37.2858 30.5096 37.4017 30.8013 37.4017H35.2015C35.4933 37.4017 35.7731 37.2858 35.9794 37.0795C36.1857 36.8732 36.3016 36.5934 36.3016 36.3017V30.8014C36.2991 29.8064 35.9595 28.8416 35.3382 28.0644C34.7169 27.2873 33.8505 26.7436 32.8804 26.5223C33.5327 25.7145 33.943 24.7387 34.064 23.7076C34.185 22.6764 34.0116 21.6321 33.564 20.6954C33.1165 19.7586 32.4129 18.9676 31.5346 18.4139C30.6564 17.8602 29.6394 17.5664 28.6012 17.5664C27.563 17.5664 26.546 17.8602 25.6678 18.4139C24.7896 18.9676 24.086 19.7586 23.6384 20.6954C23.1908 21.6321 23.0175 22.6764 23.1384 23.7076C23.2594 24.7387 23.6698 25.7145 24.322 26.5223C23.352 26.7436 22.4856 27.2873 21.8642 28.0644C21.2429 28.8416 20.9033 29.8064 20.9009 30.8014V36.3017C20.9009 36.5934 21.0168 36.8732 21.2231 37.0795C21.4294 37.2858 21.7092 37.4017 22.0009 37.4017C22.2927 37.4017 22.5725 37.2858 22.7788 37.0795C22.9851 36.8732 23.101 36.5934 23.101 36.3017V30.8014C23.101 30.2179 23.3328 29.6583 23.7454 29.2457C24.158 28.8331 24.7176 28.6013 25.3011 28.6013H31.9014C32.4849 28.6013 33.0445 28.8331 33.4571 29.2457C33.8697 29.6583 34.1015 30.2179 34.1015 30.8014V35.2016H30.8013ZM28.6012 19.801C29.2539 19.801 29.892 19.9945 30.4347 20.3571C30.9774 20.7198 31.4004 21.2352 31.6502 21.8382C31.8999 22.4412 31.9653 23.1048 31.838 23.7449C31.7106 24.3851 31.3963 24.9731 30.9348 25.4347C30.4732 25.8962 29.8852 26.2105 29.245 26.3378C28.6049 26.4652 27.9413 26.3998 27.3383 26.15C26.7353 25.9003 26.2199 25.4773 25.8572 24.9346C25.4946 24.3919 25.3011 23.7538 25.3011 23.1011C25.3011 22.2258 25.6488 21.3864 26.2677 20.7675C26.8866 20.1486 27.726 19.801 28.6012 19.801Z" fill="#9C9C9C"/>
<path d="M5.50019 6.60037C6.10773 6.60037 6.60024 6.10786 6.60024 5.50032C6.60024 4.89278 6.10773 4.40027 5.50019 4.40027C4.89265 4.40027 4.40015 4.89278 4.40015 5.50032C4.40015 6.10786 4.89265 6.60037 5.50019 6.60037Z" fill="#9C9C9C"/>
<path d="M9.90046 6.60037C10.508 6.60037 11.0005 6.10786 11.0005 5.50032C11.0005 4.89278 10.508 4.40027 9.90046 4.40027C9.29292 4.40027 8.80042 4.89278 8.80042 5.50032C8.80042 6.10786 9.29292 6.60037 9.90046 6.60037Z" fill="#9C9C9C"/>
<path d="M14.3006 6.60037C14.9081 6.60037 15.4007 6.10786 15.4007 5.50032C15.4007 4.89278 14.9081 4.40027 14.3006 4.40027C13.6931 4.40027 13.2006 4.89278 13.2006 5.50032C13.2006 6.10786 13.6931 6.60037 14.3006 6.60037Z" fill="#9C9C9C"/>
<path d="M23.101 4.40027C22.8093 4.40027 22.5295 4.51617 22.3232 4.72247C22.1169 4.92876 22.001 5.20857 22.001 5.50032C22.001 5.79207 22.1169 6.07187 22.3232 6.27817C22.5295 6.48447 22.8093 6.60037 23.101 6.60037H38.5017C38.7935 6.60037 39.0733 6.48447 39.2796 6.27817C39.4859 6.07187 39.6017 5.79207 39.6017 5.50032C39.6017 5.20857 39.4859 4.92876 39.2796 4.72247C39.0733 4.51617 38.7935 4.40027 38.5017 4.40027H23.101Z" fill="#9C9C9C"/>
<path d="M44.0019 4.40027C43.7102 4.40027 43.4304 4.51617 43.2241 4.72247C43.0178 4.92876 42.9019 5.20857 42.9019 5.50032C42.9019 5.79207 43.0178 6.07187 43.2241 6.27817C43.4304 6.48447 43.7102 6.60037 44.0019 6.60037H52.8023C53.094 6.60037 53.3738 6.48447 53.5801 6.27817C53.7864 6.07187 53.9023 5.79207 53.9023 5.50032C53.9023 5.20857 53.7864 4.92876 53.5801 4.72247C53.3738 4.51617 53.094 4.40027 52.8023 4.40027H44.0019Z" fill="#9C9C9C"/>
<path d="M11.0004 48.4021C10.7087 48.4021 10.4289 48.518 10.2226 48.7243C10.0163 48.9306 9.90039 49.2104 9.90039 49.5021C9.90039 49.7939 10.0163 50.0737 10.2226 50.28C10.4289 50.4863 10.7087 50.6022 11.0004 50.6022H22.0009C22.2927 50.6022 22.5725 50.4863 22.7788 50.28C22.9851 50.0737 23.101 49.7939 23.101 49.5021C23.101 49.2104 22.9851 48.9306 22.7788 48.7243C22.5725 48.518 22.2927 48.4021 22.0009 48.4021H11.0004Z" fill="#9C9C9C"/>
<path d="M22.0009 52.8024H11.0004C10.7087 52.8024 10.4289 52.9183 10.2226 53.1246C10.0163 53.3309 9.90039 53.6107 9.90039 53.9024C9.90039 54.1942 10.0163 54.474 10.2226 54.6803C10.4289 54.8866 10.7087 55.0025 11.0004 55.0025H22.0009C22.2927 55.0025 22.5725 54.8866 22.7788 54.6803C22.9851 54.474 23.101 54.1942 23.101 53.9024C23.101 53.6107 22.9851 53.3309 22.7788 53.1246C22.5725 52.9183 22.2927 52.8024 22.0009 52.8024Z" fill="#9C9C9C"/>
<path d="M57.2025 14.3007C57.2025 14.009 57.0866 13.7292 56.8803 13.5229C56.674 13.3166 56.3942 13.2007 56.1024 13.2007H51.7022C51.4105 13.2007 51.1307 13.3166 50.9244 13.5229C50.7181 13.7292 50.6022 14.009 50.6022 14.3007V18.7009C50.6022 18.9927 50.7181 19.2725 50.9244 19.4788C51.1307 19.6851 51.4105 19.801 51.7022 19.801H56.1024C56.3942 19.801 56.674 19.6851 56.8803 19.4788C57.0866 19.2725 57.2025 18.9927 57.2025 18.7009V14.3007ZM55.0024 17.6009H52.8023V15.4008H55.0024V17.6009Z" fill="#9C9C9C"/>
<path d="M56.1024 22.001H51.7022C51.4105 22.001 51.1307 22.1169 50.9244 22.3232C50.7181 22.5295 50.6022 22.8093 50.6022 23.101C50.6022 23.3928 50.7181 23.6726 50.9244 23.8789C51.1307 24.0852 51.4105 24.2011 51.7022 24.2011H56.1024C56.3942 24.2011 56.674 24.0852 56.8803 23.8789C57.0866 23.6726 57.2025 23.3928 57.2025 23.101C57.2025 22.8093 57.0866 22.5295 56.8803 22.3232C56.674 22.1169 56.3942 22.001 56.1024 22.001Z" fill="#9C9C9C"/>
<path d="M56.1025 26.4011H53.9024C53.6107 26.4011 53.3309 26.517 53.1246 26.7233C52.9183 26.9296 52.8024 27.2094 52.8024 27.5012C52.8024 27.7929 52.9183 28.0727 53.1246 28.279C53.3309 28.4853 53.6107 28.6012 53.9024 28.6012H56.1025C56.3943 28.6012 56.6741 28.4853 56.8804 28.279C57.0867 28.0727 57.2026 27.7929 57.2026 27.5012C57.2026 27.2094 57.0867 26.9296 56.8804 26.7233C56.6741 26.517 56.3943 26.4011 56.1025 26.4011Z" fill="#9C9C9C"/>
<path d="M65.0349 57.2575L54.9254 47.1481C54.4425 46.6675 53.8227 46.3482 53.151 46.234C52.4794 46.1198 51.7889 46.2162 51.1743 46.51L45.828 41.1638C48.296 37.7086 49.583 33.5491 49.4978 29.3039C49.4126 25.0586 47.9596 20.9542 45.355 17.6008H47.3021C47.5938 17.6008 47.8736 17.4849 48.0799 17.2786C48.2862 17.0723 48.4021 16.7925 48.4021 16.5007C48.4021 16.209 48.2862 15.9292 48.0799 15.7229C47.8736 15.5166 47.5938 15.4007 47.3021 15.4007H43.3749C41.3238 13.4357 38.8739 11.935 36.1916 11.0005H56.1025C56.3942 11.0005 56.674 10.8846 56.8803 10.6783C57.0866 10.472 57.2025 10.1922 57.2025 9.90044C57.2025 9.60868 57.0866 9.32888 56.8803 9.12258C56.674 8.91629 56.3942 8.80039 56.1025 8.80039H19.8009V2.2001H59.4026V48.7761C59.4026 49.0679 59.5185 49.3477 59.7248 49.554C59.9311 49.7603 60.2109 49.8762 60.5027 49.8762C60.7944 49.8762 61.0742 49.7603 61.2805 49.554C61.4868 49.3477 61.6027 49.0679 61.6027 48.7761V1.10005C61.6027 0.808297 61.4868 0.528496 61.2805 0.322197C61.0742 0.115898 60.7944 0 60.5027 0H1.10005C0.808297 0 0.528496 0.115898 0.322197 0.322197C0.115898 0.528496 0 0.808297 0 1.10005V24.2011C0 24.4928 0.115898 24.7726 0.322197 24.9789C0.528496 25.1852 0.808297 25.3011 1.10005 25.3011C1.3918 25.3011 1.6716 25.1852 1.8779 24.9789C2.0842 24.7726 2.2001 24.4928 2.2001 24.2011V11.0005H23.255C21.1557 11.7199 19.1923 12.7872 17.4468 14.1576C17.3329 14.2476 17.2381 14.3592 17.1676 14.486C17.097 14.6129 17.0523 14.7524 17.036 14.8965C17.0196 15.0407 17.0319 15.1867 17.0722 15.3261C17.1125 15.4655 17.18 15.5955 17.2708 15.7087C17.4523 15.9354 17.716 16.0811 18.0045 16.114C18.293 16.147 18.5829 16.0646 18.8108 15.8847C22.0769 13.3146 26.1471 11.9831 30.3006 12.1261C34.4542 12.269 38.4232 13.8772 41.5048 16.6657L40.3168 18.5578C37.9063 16.2595 34.8158 14.8045 31.5086 14.411C28.2014 14.0176 24.8557 14.7068 21.9733 16.3754C19.0909 18.044 16.8271 20.6021 15.5214 23.666C14.2156 26.7299 13.9383 30.1345 14.731 33.3694C15.5237 36.6042 17.3437 39.4949 19.9181 41.608C22.4925 43.721 25.6825 44.9426 29.0098 45.0895C32.3371 45.2365 35.6223 44.3008 38.3729 42.4229C41.1235 40.5449 43.1912 37.8259 44.2659 34.6735C44.3122 34.5363 44.3309 34.3913 44.3211 34.2468C44.3113 34.1023 44.2731 33.9612 44.2088 33.8315C44.1444 33.7017 44.0551 33.586 43.946 33.4907C43.8369 33.3955 43.7102 33.3227 43.5729 33.2765C43.4357 33.2302 43.2907 33.2115 43.1462 33.2213C43.0017 33.2311 42.8606 33.2693 42.7309 33.3336C42.6011 33.398 42.4853 33.4873 42.3901 33.5964C42.2949 33.7055 42.2221 33.8323 42.1759 33.9695C41.2979 36.5797 39.6205 38.8473 37.3814 40.4506C35.1423 42.0539 32.4552 42.9116 29.7013 42.9019C29.3273 42.9019 28.9643 42.9019 28.6013 42.9019V38.5017C28.6013 38.2099 28.4854 37.9301 28.2791 37.7238C28.0728 37.5175 27.793 37.4016 27.5012 37.4016C27.2095 37.4016 26.9297 37.5175 26.7234 37.7238C26.5171 37.9301 26.4012 38.2099 26.4012 38.5017V42.4729C24.1158 41.8934 22.0294 40.7074 20.3623 39.0403C18.6952 37.3732 17.5092 35.2868 16.9297 33.0015H17.6008C17.8925 33.0015 18.1723 32.8856 18.3786 32.6793C18.5849 32.473 18.7008 32.1932 18.7008 31.9014C18.7008 31.6097 18.5849 31.3299 18.3786 31.1236C18.1723 30.9173 17.8925 30.8014 17.6008 30.8014H16.5557C16.5557 30.4383 16.5007 30.0753 16.5007 29.7013C16.4987 27.089 17.2718 24.5348 18.7221 22.362C20.1725 20.1893 22.2349 18.4957 24.6483 17.4958C27.0616 16.4958 29.7174 16.2343 32.2795 16.7446C34.8415 17.2548 37.1945 18.5137 39.0407 20.3619L39.1287 20.4719L36.4666 24.7181C36.3898 24.8408 36.338 24.9775 36.3141 25.1203C36.2902 25.2631 36.2948 25.4092 36.3275 25.5502C36.3602 25.6912 36.4204 25.8244 36.5047 25.9421C36.5889 26.0598 36.6956 26.1598 36.8186 26.2362C36.9413 26.313 37.078 26.3648 37.2208 26.3887C37.3636 26.4125 37.5097 26.408 37.6507 26.3753C37.7918 26.3426 37.925 26.2824 38.0427 26.1981C38.1604 26.1138 38.2603 26.0071 38.3367 25.8841L40.6028 22.265C42.1469 24.5317 42.9467 27.2232 42.8909 29.9653C42.8909 30.2571 43.0068 30.5369 43.2131 30.7432C43.4194 30.9495 43.6992 31.0654 43.9909 31.0654C44.2827 31.0654 44.5625 30.9495 44.7688 30.7432C44.9751 30.5369 45.091 30.2571 45.091 29.9653C45.1676 26.4376 44.0254 22.9914 41.8568 20.2079L43.0779 18.2388C45.2447 20.7739 46.6466 23.8725 47.1204 27.1736C47.5943 30.4747 47.1205 33.8425 45.7543 36.8847C44.3881 39.927 42.1857 42.5185 39.4036 44.3574C36.6215 46.1964 33.3742 47.2071 30.0399 47.2718C26.7056 47.3365 23.4215 46.4527 20.5701 44.7231C17.7188 42.9936 15.4174 40.4895 13.9342 37.5026C12.4509 34.5157 11.8467 31.1688 12.1921 27.8518C12.5374 24.5348 13.818 21.3842 15.8847 18.7668C16.0646 18.5389 16.147 18.249 16.114 17.9605C16.0811 17.672 15.9354 17.4083 15.7087 17.2268C15.5955 17.136 15.4655 17.0685 15.3261 17.0282C15.1867 16.9879 15.0407 16.9756 14.8965 16.992C14.7524 17.0083 14.6129 17.053 14.486 17.1235C14.3592 17.1941 14.2476 17.2889 14.1576 17.4028C11.1475 21.1979 9.63285 25.9648 9.90044 30.8014H5.50024C5.20849 30.8014 4.92869 30.9173 4.72239 31.1236C4.51609 31.3299 4.40019 31.6097 4.40019 31.9014V57.2025H2.2001V28.6013C2.2001 28.3095 2.0842 28.0297 1.8779 27.8234C1.6716 27.6171 1.3918 27.5012 1.10005 27.5012C0.808297 27.5012 0.528496 27.6171 0.322197 27.8234C0.115898 28.0297 0 28.3095 0 28.6013V58.3026C0 58.5943 0.115898 58.8741 0.322197 59.0804C0.528496 59.2867 0.808297 59.4026 1.10005 59.4026H46.576C46.8678 59.4026 47.1476 59.2867 47.3539 59.0804C47.5602 58.8741 47.6761 58.5943 47.6761 58.3026C47.6761 58.0108 47.5602 57.731 47.3539 57.5247C47.1476 57.3184 46.8678 57.2025 46.576 57.2025H28.6013V49.5022C28.9643 49.5022 29.3273 49.5022 29.7013 49.5022C33.8123 49.5062 37.8212 48.2212 41.1638 45.828L46.51 51.1743C46.2162 51.7889 46.1198 52.4794 46.234 53.151C46.3482 53.8227 46.6675 54.4425 47.1481 54.9254L57.2575 65.0349C57.8763 65.6529 58.7151 66 59.5896 66C60.4642 66 61.3029 65.6529 61.9217 65.0349L65.0349 61.9217C65.6529 61.3029 66 60.4642 66 59.5896C66 58.7151 65.6529 57.8763 65.0349 57.2575ZM2.2001 8.80039V2.2001H17.6008V8.80039H2.2001ZM26.4012 57.2025H6.60029V33.0015H10.1974C10.5869 35.3247 11.3878 37.5598 12.5626 39.6017H11.0005C10.7087 39.6017 10.4289 39.7176 10.2226 39.9239C10.0163 40.1302 9.90044 40.41 9.90044 40.7018C9.90044 40.9935 10.0163 41.2733 10.2226 41.4796C10.4289 41.6859 10.7087 41.8018 11.0005 41.8018H14.0476C14.5616 42.4666 15.1125 43.1019 15.6977 43.7049L16.0277 44.0019H11.0005C10.7087 44.0019 10.4289 44.1178 10.2226 44.3241C10.0163 44.5304 9.90044 44.8102 9.90044 45.102C9.90044 45.3937 10.0163 45.6735 10.2226 45.8798C10.4289 46.0861 10.7087 46.202 11.0005 46.202H18.7008C21.0199 47.7508 23.6469 48.7791 26.4012 49.2162V57.2025ZM43.7049 43.7049C43.9689 43.4409 44.1999 43.1549 44.442 42.8909L49.5022 47.9291L47.9291 49.5022L42.9019 44.442C43.1549 44.1999 43.4409 44.0019 43.7049 43.7049ZM63.5058 60.3707L60.3927 63.4838C60.2904 63.5869 60.1687 63.6687 60.0347 63.7246C59.9006 63.7804 59.7568 63.8092 59.6116 63.8092C59.4664 63.8092 59.3226 63.7804 59.1886 63.7246C59.0545 63.6687 58.9329 63.5869 58.8306 63.4838L48.7211 53.3633C48.5163 53.1572 48.4013 52.8784 48.4013 52.5878C48.4013 52.2972 48.5163 52.0184 48.7211 51.8123L51.8343 48.6991C51.9371 48.5972 52.059 48.5165 52.193 48.4618C52.327 48.407 52.4705 48.3793 52.6153 48.3801C52.9039 48.3813 53.1805 48.4959 53.3853 48.6991L63.5058 58.8196C63.709 59.0245 63.8236 59.301 63.8248 59.5896C63.8228 59.7359 63.7916 59.8804 63.733 60.0145C63.6745 60.1486 63.5897 60.2697 63.4838 60.3707H63.5058Z" fill="#9C9C9C"/>
</svg>
