<svg width="336" height="329" viewBox="0 0 336 329" fill="none" xmlns="http://www.w3.org/2000/svg">
<path d="M242.136 281.421C241.289 281.955 240.425 282.516 239.573 283.027C215.172 281.864 191.539 286.335 171.33 303.03C171.285 303.04 171.273 303.091 171.228 303.101C170.354 303.119 169.474 303.114 168.595 303.109C169.144 302.623 169.648 302.147 170.225 301.677C191.566 284.049 216.502 279.767 242.131 281.399L242.136 281.421Z" fill="#B0C9FF"/>
<path d="M254.812 272.404C254.212 272.879 253.607 273.331 253.007 273.806C217.883 266.284 182.883 265.382 156.136 289.541C152.109 293.181 148.744 297.209 145.824 301.511C145.18 301.403 144.548 301.339 143.905 301.231C146.997 296.555 150.636 292.177 154.997 288.244C182.679 263.222 218.785 264.479 254.834 272.399L254.812 272.404Z" fill="#B0C9FF"/>
<path d="M138.087 274.926C147.802 265.139 159.201 259.346 171.609 256.4C199.032 249.888 231.411 257.35 261.577 266.595C261.09 267.043 260.58 267.496 260.093 267.944C217.006 254.786 169.601 245.645 139.322 276.128C133.248 282.248 129.04 289.326 126.002 296.933C125.438 296.759 124.88 296.606 124.338 296.426C127.463 288.585 131.78 281.267 138.104 274.898L138.087 274.926Z" fill="#B0C9FF"/>
<path d="M130.431 253.782C168.341 227.637 219.963 244.538 266.758 261.613C266.321 262.073 265.884 262.533 265.442 262.97C219.249 246.133 168.423 229.683 131.411 255.211C118.168 264.339 112.582 277.016 110.103 290.973C109.545 290.725 109.01 290.472 108.475 290.22C111.03 276.078 116.803 263.191 130.436 253.804L130.431 253.782Z" fill="#B0C9FF"/>
<path d="M114.082 240.33C153.547 211.132 212.603 234.342 264.692 254.814C266.761 255.628 268.831 256.443 270.872 257.24C270.458 257.695 270.043 258.15 269.629 258.604C267.794 257.876 265.936 257.154 264.079 256.431C212.385 236.127 153.798 213.091 115.124 241.721C100.403 252.624 96.8385 267.813 96.8134 284.108C96.2346 283.77 95.6558 283.433 95.077 283.095C95.2488 266.718 99.0554 251.449 114.076 240.307L114.082 240.33Z" fill="#B0C9FF"/>
<path d="M100.845 226.685C139.878 196.165 201.977 221.692 256.765 244.23C263.134 246.849 269.418 249.417 275.509 251.865C275.122 252.337 274.758 252.803 274.371 253.275C268.42 250.913 262.314 248.397 256.102 245.835C201.737 223.482 140.157 198.141 101.91 228.07C85.3099 241.059 84.7516 259.309 87.5191 278.265C86.8634 277.803 86.2301 277.336 85.569 276.852C82.9855 257.971 84.0017 239.85 100.845 226.685Z" fill="#B0C9FF"/>
<path d="M96.3569 175.179C98.1153 173.384 99.9572 171.641 101.926 170.034C101.971 170.023 102.006 169.968 102.028 169.962C104.339 167.894 106.749 165.944 109.309 164.125C119.752 155.805 130.713 148.667 142.484 143.64C181.549 126.956 217.043 131.636 254.618 136.581C268.857 138.448 283.588 140.387 298.726 141.138C301.011 141.261 303.257 141.321 305.471 141.342C305.559 141.914 305.653 142.509 305.741 143.082C303.41 143.066 301.046 143.01 298.644 142.891C283.433 142.134 268.679 140.199 254.385 138.298C217.056 133.39 181.785 128.752 143.144 145.217C142.671 145.424 142.203 145.654 141.73 145.861C178.183 132.48 212.609 139.266 248.886 146.442C264.232 149.471 280.104 152.612 296.124 154.08C299.717 154.414 303.328 154.72 306.968 154.948C307.011 155.532 307.032 156.12 307.076 156.704C303.358 156.446 299.652 156.139 295.986 155.799C279.87 154.33 263.949 151.177 248.575 148.131C209.486 140.411 172.561 133.103 133.092 151.284C132.878 151.382 132.646 151.508 132.432 151.607C169.939 137.263 210.58 147.417 250.108 157.289C262.355 160.365 273.914 163.247 285.482 165.464C292.521 166.808 299.769 168.031 307.127 168.92C307.098 169.497 307.091 170.068 307.039 170.65C299.608 169.755 292.26 168.508 285.148 167.158C273.553 164.924 261.412 161.895 249.674 158.959C207.994 148.53 165.086 137.822 126.17 156.133C129.361 154.972 132.595 153.99 135.899 153.205C170.492 144.992 209.968 156.942 245.865 167.818C258.863 171.76 271.142 175.47 282.637 178.083C290.344 179.839 298.125 181.41 305.849 182.639C305.77 183.204 305.696 183.792 305.594 184.362C297.825 183.144 289.993 181.56 282.236 179.793C270.667 177.173 258.361 173.447 245.335 169.487C199.974 155.753 148.912 140.309 109.646 166.444C149.602 145.416 200.647 163.286 245.898 179.16C266.434 186.347 285.855 193.133 303.246 196.175C303.116 196.728 302.969 197.309 302.839 197.862C285.347 194.797 265.899 187.993 245.335 180.79C198.348 164.307 145.094 145.632 105.108 171.035C103.974 171.756 102.9 172.533 101.848 173.305C100.204 174.883 98.5714 176.505 96.9437 178.15C97.0625 178.051 97.1814 177.951 97.3281 177.869C137.12 149.948 194.789 171.919 245.665 191.278C265.033 198.647 283.464 205.668 299.363 209.325C299.161 209.872 298.986 210.436 298.783 210.983C282.806 207.296 264.403 200.292 245.035 192.924C194.572 173.704 137.349 151.912 98.3085 179.299C92.2228 183.569 87.8532 188.667 84.6316 194.3C84.144 195.246 83.7121 196.228 83.2578 197.214C85.6914 193.763 88.7499 190.544 92.612 187.608C131.662 157.963 192.647 182.496 246.448 204.176C263.619 211.092 280.049 217.687 294.284 221.834C294.031 222.369 293.801 222.899 293.548 223.433C279.285 219.269 262.906 212.687 245.79 205.804C192.412 184.309 131.919 159.944 93.6599 189.022C83.2215 196.962 78.6678 207.185 77.0715 218.463C79.3245 211.35 83.4927 204.804 90.5982 199.128C97.8675 193.341 106.093 189.584 115.017 187.465C153.656 178.291 205.229 199.787 248.237 217.713C262.362 223.596 275.984 229.266 288.222 233.507C287.914 234.008 287.633 234.526 287.325 235.026C275.109 230.78 261.592 225.156 247.569 219.296C195.048 197.408 129.674 170.189 91.6804 200.486C77.2435 211.987 75.2448 226.97 77.1726 243.489C77.6057 232.013 81.5197 221.395 92.3428 212.676C99.6978 206.75 108.008 202.949 117.022 200.809C155.931 191.57 207.863 213.48 251.187 231.734C261.658 236.134 271.845 240.435 281.411 244.124C281.075 244.607 280.716 245.096 280.357 245.585C270.891 241.92 260.838 237.682 250.523 233.34C197.593 211.027 131.682 183.247 93.4474 214.028C73.6911 229.927 78.0262 252.785 83.6083 275.394C83.4361 275.269 83.2639 275.144 83.0916 275.018C82.3974 274.495 81.6925 273.926 80.9929 273.38C80.5106 271.048 80.023 268.695 79.5353 266.341C79.45 265.981 79.3646 265.622 79.2963 265.234C79.5142 267.652 79.7043 270.053 79.8216 272.447C79.2333 271.969 78.6224 271.497 78.0341 271.019C77.6832 265.641 77.0873 260.131 76.4701 254.532C76.0901 251.131 75.7274 247.703 75.4202 244.309C75.4308 244.354 75.419 244.404 75.4072 244.455C75.1862 252.224 74.9534 260.044 74.0957 267.633C73.5801 267.161 73.0528 266.74 72.5373 266.269C73.2651 259.234 73.4645 251.873 73.6875 244.412C73.8471 238.984 73.996 233.511 74.3739 228.102C73.8501 230.696 73.354 233.307 72.8526 235.896C71.2335 244.377 69.5854 252.937 67.2354 261.141C66.7702 260.681 66.3392 260.166 65.874 259.707C68.0106 252.005 69.5696 243.87 71.1416 235.59C72.7672 227.035 74.4389 218.375 76.8402 210.088C74.1532 216.472 71.7219 223.033 69.3249 229.539C66.3897 237.478 63.448 245.49 59.9951 253.148C59.5972 252.673 59.177 252.203 58.7738 251.705C61.9815 244.413 64.8352 236.731 67.7071 228.925C70.9725 220.077 74.2839 211.122 78.2683 202.602C74.2574 209.11 70.4903 215.846 66.7693 222.476C62.533 230.035 58.2677 237.673 53.6195 244.998C53.2613 244.489 52.8978 243.958 52.5396 243.45C57.0057 236.358 61.1616 228.96 65.2608 221.623C68.9647 215.021 72.7028 208.363 76.6687 201.865C73.2553 206.19 69.8975 210.549 66.5846 214.898C60.728 222.533 54.837 230.224 48.6808 237.598C48.3676 237.079 48.0319 236.565 47.7186 236.046C53.7216 228.827 59.5097 221.303 65.2133 213.822C72.2481 204.648 79.3515 195.363 86.9244 186.656C87.0154 186.539 87.1012 186.4 87.1922 186.283C80.1673 193.199 73.2964 200.363 66.51 207.483C59.2246 215.102 51.8825 222.781 44.3254 230.156C44.0347 229.631 43.7214 229.112 43.4531 228.582C50.8741 221.335 58.0803 213.782 65.2522 206.286C75.3691 195.692 85.6444 184.965 96.3966 175.146L96.3569 175.179Z" fill="#B0C9FF"/>
<path d="M260.731 128.623C219.547 126.482 180.649 124.463 138.003 145.464C114.532 157.02 91.4317 177.536 66.9949 199.223C58.1886 207.037 49.3256 214.911 40.3547 222.432C40.1089 221.896 39.8802 221.333 39.6291 220.776C48.4586 213.36 57.1857 205.613 65.8335 197.932C90.3667 176.15 113.546 155.569 137.231 143.914C180.283 122.721 219.4 124.76 260.824 126.915C274.36 127.619 288.321 128.317 302.785 128.231C302.924 128.816 303.108 129.389 303.247 129.974C288.592 130.058 274.44 129.358 260.736 128.646L260.731 128.623Z" fill="#B0C9FF"/>
<path d="M145.49 138.296C120.95 149.347 95.1248 169.489 67.8008 190.817C57.6031 198.771 47.3038 206.796 36.964 214.452C36.7354 213.888 36.5291 213.32 36.323 212.752C46.5214 205.201 56.657 197.286 66.7133 189.437C94.1165 168.042 120.021 147.834 144.758 136.713C186.954 117.718 225.881 116.953 267.054 116.152C277.356 115.938 287.922 115.733 298.748 115.228C298.954 115.797 299.183 116.36 299.389 116.928C288.35 117.436 277.577 117.667 267.107 117.873C226.101 118.681 187.36 119.427 145.49 138.296Z" fill="#B0C9FF"/>
<path d="M151.639 130.093C118.711 143.919 88.0884 163.656 58.4542 182.754C49.8034 188.323 40.9663 194.006 32.0694 199.538C31.9306 198.954 31.7469 198.38 31.6081 197.796C40.3584 192.346 49.0317 186.772 57.5133 181.292C87.1872 162.16 117.894 142.379 150.952 128.499C192.041 111.239 231.126 107.943 272.488 104.438C279.354 103.852 286.36 103.257 293.445 102.596C293.719 103.149 293.993 103.701 294.244 104.259C286.928 104.951 279.692 105.577 272.614 106.165C231.391 109.661 192.446 112.948 151.594 130.103L151.639 130.093Z" fill="#B0C9FF"/>
<path d="M173.242 113.969C132.682 127.755 94.9706 150.838 58.4957 173.128C49.0635 178.905 39.5414 184.704 29.9199 190.384C29.7812 189.8 29.6371 189.193 29.5433 188.598C38.9732 183.011 48.3036 177.305 57.572 171.637C94.1261 149.281 131.927 126.177 172.684 112.321C205.795 101.064 238.151 96.7291 272.421 92.1538C277.141 91.5317 281.946 90.8659 286.756 90.2224C287.074 90.7642 287.438 91.2953 287.757 91.837C282.677 92.5445 277.637 93.2187 272.642 93.8824C238.462 98.4362 206.173 102.755 173.214 113.952L173.242 113.969Z" fill="#B0C9FF"/>
<path d="M175.522 102.671C133.805 116.685 94.4562 139.372 56.4051 161.324C47.0053 166.738 37.5209 172.195 27.9648 177.551C27.8882 176.928 27.8115 176.305 27.7573 175.677C37.1046 170.442 46.3577 165.111 55.5263 159.823C93.6395 137.833 133.073 115.101 174.947 101.051C206.858 90.3397 240.15 84.5481 272.348 78.9452C274.308 78.5986 276.29 78.2467 278.255 77.9226C278.664 78.443 279.067 78.941 279.453 79.4667C277.173 79.8655 274.893 80.2642 272.636 80.6577C240.506 86.2446 207.258 92.0255 175.505 102.699L175.522 102.671Z" fill="#B0C9FF"/>
<path d="M174.414 89.305C132.324 103.549 92.3005 125.993 53.6138 147.669C44.8757 152.569 36.0755 157.508 27.209 162.368C27.2169 161.701 27.1799 161.045 27.1931 160.401C35.7834 155.678 44.2903 150.904 52.7576 146.162C91.5234 124.421 131.609 101.938 173.856 87.6565C204.277 77.3704 236.308 71.1659 267.371 65.2862C267.842 65.7681 268.295 66.2779 268.771 66.7822C237.416 72.7313 205.054 78.943 174.391 89.3103L174.414 89.305Z" fill="#B0C9FF"/>
<path d="M167.991 75.2533C126.581 89.3597 87.5245 111.978 49.7656 133.86C42.6279 138.001 35.4453 142.152 28.207 146.269C28.2942 145.536 28.4091 144.82 28.5241 144.104C35.362 140.201 42.1496 136.286 48.9093 132.354C86.7581 110.45 125.871 87.7711 167.439 73.6273C196.544 63.701 226.391 58.7988 255.508 54.5211C256.124 55.0159 256.734 55.4882 257.333 56.0109C226.769 60.49 197.568 65.2149 167.974 75.2811L167.991 75.2533Z" fill="#B0C9FF"/>
<path d="M142.075 68.1097C107.585 82.2589 74.8038 101.606 43.1011 120.294C39.4161 122.475 35.7085 124.661 31.9785 126.853C32.1899 126.043 32.4515 125.244 32.6853 124.429C35.8736 122.556 39.0619 120.683 42.2276 118.815C73.9925 100.089 106.813 80.7088 141.432 66.5051C176.396 52.1486 209.12 47.964 242.801 45.3094C243.613 45.829 244.397 46.3314 245.187 46.8563C210.856 49.4752 177.578 53.5299 142.075 68.1097Z" fill="#B0C9FF"/>
<path d="M131.946 54.6529C99.6098 68.6707 69.3492 88.1318 40.0715 106.932C39.5747 107.24 39.0608 107.576 38.5693 107.906C39.0012 106.925 39.4385 105.967 39.8982 105.003C68.9843 86.2952 99.0746 67.017 131.259 53.0589C165.917 38.0151 195.228 35.7569 226.222 36.1861C227.476 36.7669 228.735 37.3703 229.972 37.9789C197.781 37.3114 167.702 39.1346 131.941 54.6304L131.946 54.6529Z" fill="#B0C9FF"/>
<path d="M121.082 41.2993C98.0471 51.9925 73.277 71.076 47.041 91.3862C47.8874 89.9505 48.7669 88.5544 49.6689 87.153C74.6039 67.864 98.2164 50.0052 120.332 39.7439C145.311 28.138 166.731 24.5478 187.453 24.6142C191.268 25.1806 195.064 25.8701 198.786 26.7436C174.63 25.2131 150.275 27.7429 121.059 41.3046L121.082 41.2993Z" fill="#B0C9FF"/>
</svg>
