<svg width="336" height="329" viewBox="0 0 336 329" fill="none" xmlns="http://www.w3.org/2000/svg">
<path d="M92.9781 281.421C93.8249 281.955 94.6889 282.516 95.5411 283.027C119.942 281.864 143.575 286.335 163.784 303.03C163.829 303.04 163.841 303.091 163.886 303.101C164.76 303.119 165.64 303.114 166.519 303.109C165.97 302.623 165.466 302.147 164.889 301.677C143.548 284.049 118.612 279.767 92.9834 281.399L92.9781 281.421Z" fill="#B0C9FF"/>
<path d="M80.3023 272.404C80.9019 272.879 81.507 273.331 82.1066 273.806C117.231 266.284 152.231 265.382 178.978 289.541C183.005 293.181 186.37 297.209 189.29 301.511C189.934 301.403 190.566 301.339 191.209 301.231C188.117 296.555 184.478 292.177 180.117 288.244C152.435 263.222 116.329 264.479 80.2798 272.399L80.3023 272.404Z" fill="#B0C9FF"/>
<path d="M197.028 274.926C187.313 265.139 175.913 259.346 163.506 256.4C136.083 249.888 103.704 257.35 73.5372 266.595C74.0244 267.043 74.5342 267.496 75.0214 267.944C118.108 254.786 165.513 245.645 195.792 276.128C201.866 282.248 206.074 289.326 209.112 296.933C209.676 296.759 210.235 296.606 210.776 296.426C207.652 288.585 203.334 281.267 197.01 274.898L197.028 274.926Z" fill="#B0C9FF"/>
<path d="M204.683 253.782C166.773 227.637 115.151 244.538 68.3563 261.613C68.7932 262.073 69.2302 262.533 69.6725 262.97C115.865 246.133 166.691 229.683 203.703 255.211C216.946 264.339 222.532 277.016 225.012 290.973C225.569 290.725 226.104 290.472 226.639 290.22C224.084 276.078 218.311 263.191 204.678 253.804L204.683 253.782Z" fill="#B0C9FF"/>
<path d="M221.032 240.33C181.567 211.132 122.511 234.342 70.422 254.814C68.3527 255.628 66.2833 256.443 64.2419 257.24C64.6563 257.695 65.0708 258.15 65.4853 258.604C67.3202 257.876 69.1777 257.154 71.0351 256.431C122.729 236.127 181.316 213.091 219.99 241.721C234.711 252.624 238.276 267.813 238.301 284.108C238.879 283.77 239.458 283.433 240.037 283.095C239.865 266.718 236.059 251.449 221.038 240.307L221.032 240.33Z" fill="#B0C9FF"/>
<path d="M234.268 226.685C195.236 196.165 133.137 221.692 78.3485 244.23C71.9802 246.849 65.6954 249.417 59.6053 251.865C59.9919 252.337 60.3561 252.803 60.7427 253.275C66.6938 250.913 72.7999 248.397 79.012 245.835C133.377 223.482 194.957 198.141 233.203 228.07C249.804 241.059 250.362 259.309 247.595 278.265C248.251 277.803 248.884 277.336 249.545 276.852C252.128 257.971 251.112 239.85 234.268 226.685Z" fill="#B0C9FF"/>
<path d="M238.757 175.179C236.999 173.384 235.157 171.641 233.188 170.034C233.143 170.023 233.109 169.968 233.086 169.962C230.775 167.894 228.365 165.944 225.805 164.125C215.362 155.805 204.401 148.667 192.63 143.64C153.565 126.956 118.071 131.636 80.4959 136.581C66.2569 138.448 51.5256 140.387 36.3879 141.138C34.1031 141.261 31.8567 141.321 29.6435 141.342C29.555 141.914 29.4612 142.509 29.3727 143.082C31.7037 143.066 34.0677 143.01 36.4702 142.891C51.6807 142.134 66.4346 140.199 80.7293 138.298C118.058 133.39 153.329 128.752 191.97 145.217C192.443 145.424 192.911 145.654 193.384 145.861C156.931 132.48 122.505 139.266 86.2278 146.442C70.8817 149.471 55.0103 152.612 38.9902 154.08C35.3966 154.414 31.7858 154.72 28.1461 154.948C28.1026 155.532 28.0816 156.12 28.0381 156.704C31.7558 156.446 35.4618 156.139 39.1282 155.799C55.2436 154.33 71.1653 151.177 86.5391 148.131C125.628 140.411 162.553 133.103 202.022 151.284C202.236 151.382 202.468 151.508 202.682 151.607C165.175 137.263 124.534 147.417 85.0058 157.289C72.7591 160.365 61.1995 163.247 49.6319 165.464C42.5929 166.808 35.3451 168.031 27.9869 168.92C28.0161 169.497 28.0229 170.068 28.0747 170.65C35.5057 169.755 42.854 168.508 49.9658 167.158C61.5612 164.924 73.7019 161.895 85.4403 158.959C127.12 148.53 170.028 137.822 208.944 156.133C205.753 154.972 202.519 153.99 199.215 153.205C164.622 144.992 125.146 156.942 89.2494 167.818C76.2509 171.76 63.9725 175.47 52.4768 178.083C44.7702 179.839 36.9886 181.41 29.2646 182.639C29.3442 183.204 29.4184 183.792 29.5204 184.362C37.2894 183.144 45.1213 181.56 52.8782 179.793C64.4466 177.173 76.7528 173.447 89.7791 169.487C135.14 155.753 186.202 140.309 225.468 166.444C185.512 145.416 134.467 163.286 89.2158 179.16C68.6796 186.347 49.2595 193.133 31.8683 196.175C31.9982 196.728 32.1452 197.309 32.275 197.862C49.7668 194.797 69.2148 187.993 89.7787 180.79C136.766 164.307 190.02 145.632 230.006 171.035C231.14 171.756 232.214 172.533 233.266 173.305C234.91 174.883 236.543 176.505 238.17 178.15C238.051 178.051 237.933 177.951 237.786 177.869C197.994 149.948 140.325 171.919 89.4491 191.278C70.0807 198.647 51.6496 205.668 35.7507 209.325C35.9533 209.872 36.128 210.436 36.3307 210.983C52.3077 207.296 70.711 200.292 90.0794 192.924C140.542 173.704 197.765 151.912 236.805 179.299C242.891 183.569 247.261 188.667 250.482 194.3C250.97 195.246 251.402 196.228 251.856 197.214C249.423 193.763 246.364 190.544 242.502 187.608C203.452 157.963 142.467 182.496 88.6663 204.176C71.4947 211.092 55.0647 217.687 40.8302 221.834C41.0831 222.369 41.3135 222.899 41.5664 223.433C55.8287 219.269 72.2085 212.687 89.3244 205.804C142.702 184.309 203.195 159.944 241.454 189.022C251.893 196.962 256.446 207.185 258.042 218.463C255.79 211.35 251.621 204.804 244.516 199.128C237.247 193.341 229.021 189.584 220.097 187.465C181.458 178.291 129.885 199.787 86.8767 217.713C72.7525 223.596 59.13 229.266 46.8916 233.507C47.2001 234.008 47.4809 234.526 47.7895 235.026C60.0054 230.78 73.5219 225.156 87.5455 219.296C140.066 197.408 205.441 170.189 243.434 200.486C257.87 211.987 259.869 226.97 257.941 243.489C257.508 232.013 253.594 221.395 242.771 212.676C235.416 206.75 227.106 202.949 218.092 200.809C179.183 191.57 127.251 213.48 83.9274 231.734C73.456 236.134 63.2691 240.435 53.7026 244.124C54.0389 244.607 54.3978 245.096 54.7566 245.585C64.2225 241.92 74.2757 237.682 84.5909 233.34C137.521 211.027 203.432 183.247 241.667 214.028C261.423 229.927 257.088 252.785 251.506 275.394C251.678 275.269 251.85 275.144 252.022 275.018C252.717 274.495 253.422 273.926 254.121 273.38C254.603 271.048 255.091 268.695 255.579 266.341C255.664 265.981 255.749 265.622 255.818 265.234C255.6 267.652 255.41 270.053 255.292 272.447C255.881 271.969 256.492 271.497 257.08 271.019C257.431 265.641 258.027 260.131 258.644 254.532C259.024 251.131 259.387 247.703 259.694 244.309C259.683 244.354 259.695 244.404 259.707 244.455C259.928 252.224 260.161 260.044 261.018 267.633C261.534 267.161 262.061 266.74 262.577 266.269C261.849 259.234 261.65 251.873 261.427 244.412C261.267 238.984 261.118 233.511 260.74 228.102C261.264 230.696 261.76 233.307 262.261 235.896C263.881 244.377 265.529 252.937 267.879 261.141C268.344 260.681 268.775 260.166 269.24 259.707C267.103 252.005 265.544 243.87 263.972 235.59C262.347 227.035 260.675 218.375 258.274 210.088C260.961 216.472 263.392 223.033 265.789 229.539C268.724 237.478 271.666 245.49 275.119 253.148C275.517 252.673 275.937 252.203 276.34 251.705C273.133 244.413 270.279 236.731 267.407 228.925C264.142 220.077 260.83 211.122 256.846 202.602C260.857 209.11 264.624 215.846 268.345 222.476C272.581 230.035 276.846 237.673 281.494 244.998C281.853 244.489 282.216 243.958 282.574 243.45C278.108 236.358 273.952 228.96 269.853 221.623C266.149 215.021 262.411 208.363 258.445 201.865C261.859 206.19 265.217 210.549 268.529 214.898C274.386 222.533 280.277 230.224 286.433 237.598C286.746 237.079 287.082 236.565 287.395 236.046C281.392 228.827 275.604 221.303 269.901 213.822C262.866 204.648 255.763 195.363 248.19 186.656C248.099 186.539 248.013 186.4 247.922 186.283C254.947 193.199 261.818 200.363 268.604 207.483C275.889 215.102 283.232 222.781 290.789 230.156C291.079 229.631 291.393 229.112 291.661 228.582C284.24 221.335 277.034 213.782 269.862 206.286C259.745 195.692 249.47 184.965 238.717 175.146L238.757 175.179Z" fill="#B0C9FF"/>
<path d="M74.3832 128.623C115.567 126.482 154.466 124.463 197.112 145.464C220.582 157.02 243.683 177.536 268.119 199.223C276.926 207.037 285.789 214.911 294.76 222.432C295.005 221.896 295.234 221.333 295.485 220.776C286.656 213.36 277.929 205.613 269.281 197.932C244.748 176.15 221.568 155.569 197.883 143.914C154.832 122.721 115.714 124.76 74.2901 126.915C60.7545 127.619 46.793 128.317 32.329 128.231C32.1903 128.816 32.0065 129.389 31.8677 129.974C46.5222 130.058 60.6743 129.358 74.3779 128.646L74.3832 128.623Z" fill="#B0C9FF"/>
<path d="M189.625 138.296C214.165 149.347 239.99 169.489 267.314 190.817C277.511 198.771 287.811 206.796 298.151 214.452C298.379 213.888 298.585 213.32 298.792 212.752C288.593 205.201 278.458 197.286 268.401 189.437C240.998 168.042 215.094 147.834 190.357 136.713C148.16 117.718 109.234 116.953 68.0603 116.152C57.7583 115.938 47.1931 115.733 36.3665 115.228C36.1603 115.797 35.9317 116.36 35.7255 116.928C46.765 117.436 57.5379 117.667 68.0079 117.873C109.014 118.681 147.755 119.427 189.625 138.296Z" fill="#B0C9FF"/>
<path d="M183.475 130.093C216.403 143.919 247.026 163.656 276.66 182.754C285.311 188.323 294.148 194.006 303.045 199.538C303.184 198.954 303.367 198.38 303.506 197.796C294.756 192.346 286.083 186.772 277.601 181.292C247.927 162.16 217.22 142.379 184.162 128.499C143.074 111.239 103.989 107.943 62.626 104.438C55.7602 103.852 48.7543 103.257 41.669 102.596C41.3954 103.149 41.1218 103.701 40.8707 104.259C48.186 104.951 55.422 105.577 62.5008 106.165C103.723 109.661 142.668 112.948 183.52 130.103L183.475 130.093Z" fill="#B0C9FF"/>
<path d="M161.873 113.969C202.433 127.755 240.144 150.838 276.619 173.128C286.051 178.905 295.573 184.704 305.195 190.384C305.333 189.8 305.478 189.193 305.571 188.598C296.141 183.011 286.811 177.305 277.543 171.637C240.989 149.281 203.187 126.177 162.43 112.321C129.319 101.064 96.9632 96.7291 62.6932 92.1538C57.9732 91.5317 53.1687 90.8659 48.3587 90.2224C48.0402 90.7642 47.6766 91.2953 47.358 91.837C52.4377 92.5445 57.4777 93.2187 62.4728 93.8824C96.6528 98.4362 128.942 102.755 161.9 113.952L161.873 113.969Z" fill="#B0C9FF"/>
<path d="M159.592 102.671C201.309 116.685 240.658 139.372 278.709 161.324C288.109 166.738 297.593 172.195 307.149 177.551C307.226 176.928 307.303 176.305 307.357 175.677C298.01 170.442 288.757 165.111 279.588 159.823C241.475 137.833 202.042 115.101 160.167 101.051C128.256 90.3397 94.964 84.5481 62.7664 78.9452C60.8067 78.5986 58.8243 78.2467 56.8592 77.9226C56.4507 78.443 56.0476 78.941 55.6616 79.4667C57.9414 79.8655 60.2212 80.2642 62.4785 80.6577C94.6086 86.2446 127.856 92.0255 159.61 102.699L159.592 102.671Z" fill="#B0C9FF"/>
<path d="M160.7 89.305C202.79 103.549 242.814 125.993 281.501 147.669C290.239 152.569 299.039 157.508 307.905 162.368C307.897 161.701 307.935 161.045 307.921 160.401C299.331 155.678 290.824 150.904 282.357 146.162C243.591 124.421 203.505 101.938 161.258 87.6565C130.837 77.3704 98.8064 71.1659 67.7431 65.2862C67.2725 65.7681 66.819 66.2779 66.3431 66.7822C97.6986 72.7313 130.06 78.943 160.723 89.3103L160.7 89.305Z" fill="#B0C9FF"/>
<path d="M167.124 75.2533C208.533 89.3597 247.59 111.978 285.349 133.86C292.487 138.001 299.669 142.152 306.907 146.269C306.82 145.536 306.705 144.82 306.59 144.104C299.753 140.201 292.965 136.286 286.205 132.354C248.356 110.45 209.243 87.7711 167.676 73.6273C138.571 63.701 108.724 58.7988 79.607 54.5211C78.9909 55.0159 78.3801 55.4882 77.7811 56.0109C108.346 60.49 137.546 65.2149 167.141 75.2811L167.124 75.2533Z" fill="#B0C9FF"/>
<path d="M193.04 68.1097C227.53 82.2589 260.31 101.606 292.013 120.294C295.698 122.475 299.406 124.661 303.136 126.853C302.924 126.043 302.663 125.244 302.429 124.429C299.241 122.556 296.052 120.683 292.887 118.815C261.122 100.089 228.301 80.7088 193.682 66.5051C158.719 52.1486 125.994 47.964 92.3132 45.3094C91.5013 45.829 90.7172 46.3314 89.9277 46.8563C124.258 49.4752 157.536 53.5299 193.04 68.1097Z" fill="#B0C9FF"/>
<path d="M203.168 54.6529C235.505 68.6707 265.765 88.1318 295.043 106.932C295.54 107.24 296.054 107.576 296.545 107.906C296.113 106.925 295.676 105.967 295.216 105.003C266.13 86.2952 236.04 67.017 203.855 53.0589C169.198 38.0151 139.887 35.7569 108.892 36.1861C107.639 36.7669 106.379 37.3703 105.143 37.9789C137.333 37.3114 167.412 39.1346 203.173 54.6304L203.168 54.6529Z" fill="#B0C9FF"/>
<path d="M214.032 41.2993C237.067 51.9925 261.837 71.076 288.073 91.3862C287.227 89.9505 286.347 88.5544 285.445 87.153C260.51 67.864 236.897 50.0052 214.782 39.7439C189.803 28.138 168.383 24.5478 147.661 24.6142C143.846 25.1806 140.05 25.8701 136.328 26.7436C160.484 25.2131 184.839 27.7429 214.055 41.3046L214.032 41.2993Z" fill="#B0C9FF"/>
</svg>
