<svg width="142" height="27" viewBox="0 0 142 27" fill="none" xmlns="http://www.w3.org/2000/svg">
<path d="M0 0H26.625V26.625H0V0ZM28.8438 0H55.4688V26.625H28.8438V0ZM57.6875 0H84.3125V26.625H57.6875V0ZM86.5312 0H113.156V26.625H86.5312V0ZM115.375 0H142V26.625H115.375V0Z" fill="#00B67A"/>
<path d="M13.3125 17.9443L17.3617 16.9182L19.0535 22.1322L13.3125 17.9443ZM22.6313 11.2049H15.5035L13.3125 4.49316L11.1215 11.2049H3.99377L9.76252 15.365L7.57151 22.0768L13.3403 17.9166L16.8903 15.365L22.6313 11.2049ZM42.1563 17.9443L46.2055 16.9182L47.8973 22.1322L42.1563 17.9443ZM51.475 11.2049H44.3473L42.1563 4.49316L39.9653 11.2049H32.8375L38.6063 15.365L36.4153 22.0768L42.184 17.9166L45.734 15.365L51.475 11.2049ZM71 17.9443L75.0492 16.9182L76.741 22.1322L71 17.9443ZM80.3188 11.2049H73.191L71 4.49316L68.809 11.2049H61.6813L67.45 15.365L65.259 22.0768L71.0278 17.9166L74.5778 15.365L80.3188 11.2049ZM99.8438 17.9443L103.893 16.9182L105.585 22.1322L99.8438 17.9443ZM109.163 11.2049H102.035L99.8438 4.49316L97.6528 11.2049H90.525L96.2938 15.365L94.1028 22.0768L99.8715 17.9166L103.422 15.365L109.163 11.2049ZM128.688 17.9443L132.737 16.9182L134.429 22.1322L128.688 17.9443ZM138.006 11.2049H130.879L128.688 4.49316L126.497 11.2049H119.369L125.138 15.365L122.947 22.0768L128.715 17.9166L132.265 15.365L138.006 11.2049Z" fill="white"/>
</svg>
