<svg width="30" height="29" viewBox="0 0 30 29" fill="none" xmlns="http://www.w3.org/2000/svg">
<path d="M16.4484 0.910389L19.832 7.84054C20.0673 8.32254 20.5222 8.65653 21.0485 8.7337L28.6149 9.84508C29.9403 10.0399 30.4691 11.6858 29.5104 12.6302L24.0354 18.0245C23.6549 18.3996 23.481 18.9404 23.5711 19.4699L24.8633 27.087C25.0898 28.421 23.7044 29.4381 22.5191 28.8088L15.7519 25.2127C15.2813 24.9629 14.7187 24.9629 14.2481 25.2127L7.48088 28.8088C6.29564 29.4388 4.91015 28.421 5.13669 27.087L6.42894 19.4699C6.51905 18.9404 6.34508 18.3996 5.9646 18.0245L0.489608 12.6302C-0.469094 11.6851 0.059694 10.0393 1.38511 9.84508L8.95148 8.7337C9.47776 8.65653 9.93271 8.32254 10.168 7.84054L13.5516 0.910389C14.1436 -0.303463 15.8558 -0.303463 16.4484 0.910389Z" fill="#A7F3FF"/>
</svg>
