<svg width="1664" height="1112" viewBox="0 0 1664 1112" fill="none" xmlns="http://www.w3.org/2000/svg">
<g clip-path="url(#clip0_114_322)">
<mask id="mask0_114_322" style="mask-type:luminance" maskUnits="userSpaceOnUse" x="56" y="35" width="1674" height="909">
<path d="M63.7742 658.673C98.7911 819.625 257.655 921.716 418.63 886.694C436.34 882.84 453.373 877.482 469.539 870.786C507.813 925.091 576.148 954.181 645.151 939.169C707.557 925.592 754.436 879.421 771.924 822.422C840.058 857.839 920.5 870.552 1001.41 852.95C1021.96 848.478 1041.66 842.241 1060.38 834.436C1115.34 872.469 1185.35 888.529 1255.81 873.2C1382.97 845.536 1466.25 725.658 1450.84 599.017C1459.64 598.48 1468.49 597.28 1477.35 595.351C1570.86 575.009 1630.18 482.699 1609.83 389.197C1608.77 384.322 1607.46 379.575 1606.05 374.901C1691.89 349.166 1744.81 261.253 1725.43 172.197C1705.09 78.6949 1612.78 19.3743 1519.28 39.7167C1425.78 60.0591 1366.46 152.368 1386.8 245.87C1387.86 250.746 1389.15 255.498 1390.59 260.166C1329.16 278.587 1284.64 328.825 1271.36 388.565C1261.34 385.687 1251.09 383.437 1240.68 381.846C1176.59 236.732 1017.45 151.75 856.471 186.772C729.46 214.405 634.53 309.53 601.088 426.324C534.506 329.464 413.761 277.282 291.817 303.812C130.842 338.834 28.7521 497.698 63.7742 658.673Z" fill="white"/>
</mask>
<g mask="url(#mask0_114_322)">
<path d="M-198.719 1392.51C-198.719 1392.51 -191.156 1297.37 -159.7 1288.7C-128.248 1280.01 -109.238 1341.96 -69.4761 1336.13C-29.6905 1330.31 -10.0395 1319.72 -6.82639 1236.12C-3.58418 1152.53 -13.6661 1150.14 -2.30786 1007.44C9.05034 864.733 6.3247 834.485 84.0594 802.654C161.799 770.846 230.283 855.276 302.398 980.095C374.507 1104.89 404.469 1179.33 446.062 1193.66C487.66 1208.01 480.945 1163.34 500.955 1126.79C520.966 1090.25 519.983 1059.5 559.75 1053.7C599.535 1047.87 604.226 1010.4 620.527 912.86C636.829 815.316 603.8 736.564 653.22 738.429C702.634 740.27 679.368 710.536 776.002 849.221C872.641 987.929 877.944 1007.13 945.88 1055.55" stroke="#E4C1A9" stroke-width="0.64" stroke-miterlimit="10"/>
<path d="M-198.518 1389.07C-198.518 1389.07 -191.21 1294.48 -160.144 1285.39C-129.15 1276.32 -110.358 1337.27 -71.0328 1331.17C-34.3701 1325.37 -15.0328 1315.53 -9.45814 1247.38C-9.04847 1242.36 -8.7012 1237.05 -8.43193 1231.38C-4.2699 1148.57 -13.6802 1147.31 -1.91334 1006.37C9.77665 865.425 7.32015 834.919 84.3826 803.334C98.4485 797.57 112.195 795.631 125.759 797.111C178.401 802.855 227.581 859.193 277.771 939.618C285.645 952.223 293.553 965.447 301.518 979.16C372.996 1102.67 402.993 1176.57 444.626 1190.74C486.135 1204.92 479.766 1160.57 499.752 1124.03C518.412 1089.9 518.823 1060.73 551.341 1052.1C553.471 1051.54 555.771 1051.06 558.192 1050.68C597.71 1044.31 602.407 1006.42 618.732 909.67C621.682 892.507 623.14 875.969 623.867 860.44C626.973 787.846 612.101 735.484 652.952 737.661C691.859 739.76 685.448 722.605 728.408 780.497C740.41 796.66 755.69 817.417 776.832 847.513C873.196 984.729 878.654 1004.29 945.906 1052.57" stroke="#E4C1A9" stroke-width="0.64" stroke-miterlimit="10"/>
<path d="M-197.355 1382.91C-197.355 1382.91 -190.302 1288.88 -159.645 1279.4C-129.103 1269.98 -110.485 1330.01 -71.6462 1323.51C-35.3669 1317.45 -16.2854 1307.24 -10.2762 1239.82C-9.83222 1234.84 -9.42675 1229.57 -9.08888 1223.99C-4.20861 1141.95 -12.751 1141.81 -0.575431 1002.63C11.4225 863.44 9.25897 832.67 85.6199 801.312C99.5664 795.575 113.241 793.651 126.681 795.133C179.065 800.958 228.048 856.738 277.878 936.315C285.702 948.806 293.585 961.911 301.5 975.509C372.371 1097.72 402.378 1171.1 444.047 1185.08C485.49 1199.07 479.472 1155.07 499.4 1118.5C517.943 1084.52 518.454 1055.35 550.698 1046.38C552.823 1045.79 555.07 1045.3 557.486 1044.9C596.754 1037.96 601.18 999.626 617.811 903.713C620.79 886.568 622.466 870.107 623.349 854.72C627.345 782.883 612.616 731.291 653.56 734.124C692.607 736.868 685.802 720.551 729.433 777.27C741.823 793.374 757.085 812.783 778.508 843.018C874.555 978.776 880.21 998.673 946.783 1046.82" stroke="#E4C1A9" stroke-width="0.64" stroke-miterlimit="10"/>
<path d="M-195.289 1374.22C-195.289 1374.22 -188.495 1280.72 -158.243 1270.89C-128.182 1261.09 -109.748 1320.16 -71.3564 1313.34C-35.442 1306.98 -16.6401 1296.4 -10.1673 1229.73C-9.689 1224.8 -9.24404 1219.6 -8.84797 1214.05C-3.15387 1132.76 -10.9188 1133.77 1.66033 996.335C13.99 858.902 12.1009 827.897 87.7843 796.762C101.635 791.045 115.19 789.147 128.558 790.645C180.708 796.546 229.442 851.755 278.942 930.502C286.74 942.874 294.573 955.864 302.467 969.366C372.701 1090.26 402.724 1163.14 444.428 1176.94C485.782 1190.75 480.11 1147.08 499.991 1110.51C518.44 1076.68 519.052 1047.51 551.002 1038.23C553.098 1037.62 555.345 1037.13 557.722 1036.67C596.74 1029.16 601.025 990.399 617.809 895.303C620.841 878.172 622.71 861.794 623.72 846.53C628.477 775.429 614.002 724.658 655.081 728.111C694.268 731.501 687.089 715.991 731.372 771.567C744.149 787.611 759.418 805.667 781.102 836.071C876.856 970.366 882.685 990.6 948.598 1038.59" stroke="#E4C1A9" stroke-width="0.64" stroke-miterlimit="10"/>
<path d="M-192.314 1363.16C-192.314 1363.16 -185.799 1270.22 -155.937 1259.97C-126.328 1249.82 -108.108 1307.92 -70.1574 1300.79C-34.6369 1294.11 -16.1042 1283.22 -9.14388 1217.3C-8.6313 1212.4 -8.12813 1207.24 -7.69256 1201.76C-1.17943 1121.24 -8.17199 1123.39 4.81581 987.713C17.4773 852.035 15.8572 820.771 90.8631 789.859C104.624 784.186 118.078 782.285 131.345 783.78C183.237 789.762 231.77 844.389 280.915 922.312C288.658 934.546 296.494 947.435 304.343 960.847C374.213 1080.3 404.003 1152.79 445.743 1166.42C487.007 1180.04 481.681 1136.69 501.533 1100.11C519.864 1066.43 520.583 1037.29 552.254 1027.64C554.345 1027.01 556.578 1026.58 558.91 1026.02C597.408 1016.69 601.846 978.755 618.778 884.453C621.863 867.335 623.901 851.046 625.09 835.918C630.614 765.576 616.382 715.578 657.577 719.682C696.905 723.718 689.38 709.034 734.315 763.466C747.505 779.446 762.726 796.136 784.696 826.702C880.103 959.52 886.154 980.082 951.394 1027.97" stroke="#E4C1A9" stroke-width="0.64" stroke-miterlimit="10"/>
<path d="M-188.453 1349.95C-188.453 1349.95 -182.216 1257.58 -152.74 1246.93C-123.608 1236.44 -105.552 1293.54 -68.0728 1286.09C-32.9223 1279.09 -14.6401 1267.86 -7.26397 1202.69C-6.7171 1197.84 -6.15571 1192.71 -5.65674 1187.3C1.67543 1107.55 -4.5448 1110.83 8.84651 976.898C21.8211 843.004 20.4701 811.482 94.8224 780.787C108.463 775.14 121.822 773.26 135.017 774.77C186.676 780.829 234.988 834.902 283.773 911.978C291.49 924.092 299.295 936.838 307.1 950.159C376.429 1068.27 406.195 1140.2 447.943 1153.75C489.174 1167.11 484.162 1124.16 503.966 1087.59C522.18 1054.06 523.023 1024.92 554.396 1014.94C556.458 1014.29 558.691 1013.85 560.988 1013.25C599.127 1003.08 603.533 964.995 620.619 871.511C623.756 854.407 625.964 838.206 627.309 823.219C633.599 753.637 619.634 704.407 660.946 709.162C700.438 713.837 692.586 699.95 738.102 753.255C751.679 769.176 766.906 784.513 789.133 815.223C884.228 946.607 890.471 967.478 955.027 1015.21" stroke="#E4C1A9" stroke-width="0.64" stroke-miterlimit="10"/>
<path d="M-183.743 1334.79C-183.743 1334.79 -177.79 1242.95 -148.694 1231.94C-120.043 1221.07 -101.976 1278 -65.1391 1269.43C-30.5385 1261.4 -12.3508 1250.54 -4.51107 1186.12C-3.92989 1181.32 -3.32899 1176.25 -2.76661 1170.9C5.38458 1091.93 -0.0872363 1096.35 13.7367 964.169C27.0431 832.031 25.9612 800.249 99.6121 769.782C113.133 764.161 126.421 762.297 139.515 763.804C190.911 769.92 239.002 823.44 287.457 899.687C295.124 911.686 302.908 924.337 310.687 937.539C379.451 1054.32 409.18 1125.73 450.969 1139.12C492.134 1152.29 487.45 1109.71 507.224 1073.11C525.345 1039.73 526.265 1010.59 557.363 1000.27C559.396 999.606 561.629 999.17 563.892 998.527C601.69 987.475 606.076 949.297 623.284 856.612C626.451 839.527 628.847 823.385 630.372 808.535C637.404 739.717 623.715 691.178 665.14 696.685C704.781 701.928 696.646 688.929 742.719 741.111C756.731 756.962 771.887 770.938 794.4 801.811C889.13 931.748 895.595 952.946 959.496 1000.55" stroke="#E4C1A9" stroke-width="0.64" stroke-miterlimit="10"/>
<path d="M-178.218 1317.84C-178.218 1317.84 -172.543 1226.56 -143.833 1215.16C-115.658 1203.95 -97.7303 1260 -61.3902 1250.99C-27.1856 1242.52 -9.24114 1231.46 -0.966889 1167.78C-0.35141 1163.01 0.307664 1157.99 0.933448 1152.7C9.89848 1074.47 5.50661 1080.06 19.4316 949.612C33.3535 819.267 32.2332 787.194 105.212 756.973C118.643 751.397 131.805 749.535 144.828 751.058C195.99 757.249 243.861 810.217 291.956 885.615C299.597 897.496 307.355 910.026 315.089 923.138C383.284 1038.57 412.986 1109.51 454.809 1122.72C495.88 1135.68 491.547 1093.44 511.293 1056.83C529.301 1023.63 530.346 994.485 561.146 983.829C563.173 983.138 565.332 982.593 567.606 981.998C605.674 972.189 609.422 931.772 626.784 839.905C630.004 822.833 632.569 806.78 634.274 792.065C642.067 723.983 628.65 676.236 670.192 682.393C709.973 688.282 701.582 676.064 748.188 727.129C762.617 742.94 777.727 755.548 800.52 786.561C894.885 915.05 901.595 936.571 964.812 984.022" stroke="#E4C1A9" stroke-width="0.64" stroke-miterlimit="10"/>
<path d="M-171.89 1299.29C-171.89 1299.29 -166.494 1208.57 -138.175 1196.75C-110.475 1185.2 -92.9295 1239.38 -56.844 1230.93C-22.8274 1222.98 -5.31545 1210.73 3.39851 1147.8C4.04829 1143.08 4.77078 1138.12 5.43086 1132.87C15.2336 1055.39 11.6245 1062.16 25.9291 933.455C40.2067 804.86 39.3368 772.557 111.633 742.534C124.944 736.985 138.03 735.114 150.933 736.663C201.861 742.93 249.331 795.435 297.223 869.901C304.79 881.672 312.546 894.078 320.259 907.094C387.889 1021.2 417.554 1091.62 459.418 1104.67C500.424 1117.45 496.437 1075.53 516.134 1038.93C534.025 1005.88 535.195 976.734 565.696 965.743C567.695 965.032 569.849 964.464 572.093 963.85C609.936 953.464 613.543 912.627 631.034 821.583C634.306 804.525 637.041 788.56 638.897 773.963C647.431 706.645 634.282 659.666 675.964 666.468C715.909 672.998 707.287 661.556 754.407 711.533C769.253 727.303 784.334 738.516 807.394 769.721C901.376 896.792 908.35 918.605 970.912 965.923" stroke="#E4C1A9" stroke-width="0.64" stroke-miterlimit="10"/>
<path d="M-164.77 1279.32C-164.77 1279.32 -159.676 1189.17 -131.719 1176.95C-104.495 1165.05 -87.1151 1218.24 -51.5004 1209.46C-17.8538 1201.19 -0.616256 1188.61 8.56132 1126.43C9.2454 1121.75 10.0022 1116.83 10.7309 1111.66C21.3527 1034.96 18.5637 1042.85 33.224 915.897C47.8864 789.071 47.2326 756.495 118.856 726.719C132.072 721.191 145.038 719.346 157.869 720.91C208.54 727.259 255.784 779.186 303.346 852.823C310.863 864.48 318.593 876.767 326.28 889.663C393.346 1002.44 422.978 1072.37 464.878 1085.23C505.818 1097.83 502.153 1056.24 521.821 1019.62C539.619 986.711 540.855 957.529 571.092 946.245C573.085 945.511 575.21 944.923 577.426 944.291C615.043 933.328 618.508 892.072 636.152 801.845C639.478 784.801 642.406 768.919 644.417 754.463C653.718 687.905 640.835 641.694 682.61 649.152C722.691 656.303 713.89 645.651 761.472 694.526C776.753 710.226 791.768 720.102 815.109 751.446C908.707 877.098 915.94 899.181 977.824 946.371" stroke="#E4C1A9" stroke-width="0.64" stroke-miterlimit="10"/>
<path d="M-156.913 1258.13C-156.913 1258.13 -152.098 1168.54 -124.526 1155.94C-97.7974 1143.71 -80.5877 1195.89 -45.4146 1186.81C-12.1433 1178.2 4.84896 1165.29 14.4424 1103.87C15.1607 1099.24 15.9809 1094.38 16.7439 1089.25C28.2035 1013.29 26.192 1022.34 41.2319 897.132C56.2552 772.08 55.8414 739.227 126.763 709.678C139.865 704.199 152.749 702.323 165.485 703.907C215.919 710.207 262.897 761.717 310.147 834.496C317.633 846.009 325.342 858.2 332.985 871.006C399.51 982.447 429.081 1051.86 471.002 1064.6C511.872 1076.98 508.539 1035.78 528.179 999.137C545.859 966.378 547.196 937.199 577.164 925.598C579.128 924.845 581.253 924.258 583.458 923.578C620.844 912.014 624.178 870.386 641.946 780.958C645.325 763.927 648.422 748.133 650.59 733.819C660.632 668.026 648.012 622.559 689.932 630.686C730.178 638.477 721.217 628.586 769.217 676.394C784.939 692.048 799.878 700.538 823.504 732.046C916.719 856.28 924.215 878.655 985.421 925.718" stroke="#E4C1A9" stroke-width="0.64" stroke-miterlimit="10"/>
<path d="M-148.325 1235.94C-148.325 1235.94 -143.811 1146.91 -116.607 1133.89C-90.3537 1121.32 -73.3094 1172.5 -38.6072 1163.1C-5.72456 1154.2 11.0359 1140.91 21.0742 1080.28C21.8269 1075.68 22.7053 1070.86 23.5317 1065.8C35.805 990.584 34.6002 1000.81 50.0197 877.348C65.3935 754.021 65.201 720.92 135.475 691.613C148.481 686.155 161.245 684.304 173.909 685.904C224.11 692.28 270.844 743.243 317.758 815.168C325.194 826.567 332.877 838.639 340.499 851.349C406.454 961.437 435.998 1030.38 477.954 1042.93C518.734 1055.14 515.772 1014.25 535.364 977.624C552.926 945.015 554.388 915.835 584.058 903.898C586.017 903.121 588.113 902.515 590.283 901.792C627.468 889.647 630.637 847.603 648.533 758.999C651.965 741.982 655.232 726.276 657.574 712.074C668.364 647.07 656.03 602.341 698.043 611.124C738.428 619.56 729.35 610.396 777.745 657.142C793.937 672.769 808.776 679.879 832.683 711.526C925.466 834.351 933.274 857.009 993.796 903.92" stroke="#E4C1A9" stroke-width="0.64" stroke-miterlimit="10"/>
<path d="M-139.026 1212.86C-139.026 1212.86 -134.81 1124.43 -107.972 1110.98C-82.2143 1098.09 -65.3166 1148.26 -31.0852 1138.54C1.42215 1129.29 17.9373 1115.68 28.3914 1055.8C29.1971 1051.22 30.115 1046.47 30.9809 1041.47C44.092 967.002 43.6886 978.38 59.4638 856.668C75.2276 735.135 75.2564 701.785 144.847 672.676C157.734 667.244 170.426 665.409 182.966 667.012C232.928 673.439 279.417 723.854 326 794.95C333.387 806.235 341.044 818.187 348.639 830.778C414.03 939.537 443.537 1007.97 485.534 1020.36C526.243 1032.35 523.608 991.821 543.171 955.173C560.645 922.734 562.178 893.538 591.574 881.26C593.504 880.464 595.57 879.839 597.712 879.098C634.69 866.347 637.722 823.908 655.748 736.127C659.233 719.122 662.664 703.481 665.191 689.439C676.723 625.2 664.656 581.239 706.814 590.691C747.364 599.768 738.169 591.33 786.964 637.037C803.596 652.619 818.359 658.343 842.552 690.153C934.927 811.566 943.023 834.511 1002.87 881.295" stroke="#E4C1A9" stroke-width="0.64" stroke-miterlimit="10"/>
<path d="M-129.062 1189.16C-129.062 1189.16 -125.172 1101.3 -98.6719 1087.45C-73.4137 1074.22 -56.6576 1123.4 -22.897 1113.35C9.26426 1103.77 25.505 1089.83 36.3988 1030.71C37.2388 1026.17 38.1962 1021.48 39.1442 1016.52C53.093 942.789 53.4723 955.348 69.6271 835.382C85.7227 715.603 85.9968 682 154.91 653.114C167.706 647.727 180.269 645.87 192.742 647.512C242.441 653.997 288.715 703.882 334.962 774.125C342.323 785.291 349.954 797.123 357.481 809.629C422.307 917.059 451.781 984.993 493.814 997.201C534.457 1009.01 532.145 968.811 551.683 932.168C569.04 899.879 570.698 870.681 599.796 858.067C601.696 857.253 603.758 856.605 605.894 855.839C642.665 842.483 645.543 799.676 663.687 712.671C667.225 695.68 670.825 680.127 673.508 666.226C685.759 602.757 674.006 559.554 716.258 569.662C756.948 579.383 747.683 571.661 796.824 616.317C813.921 631.848 828.589 636.216 853.092 668.184C945.041 788.212 953.42 811.422 1012.61 858.072" stroke="#E4C1A9" stroke-width="0.64" stroke-miterlimit="10"/>
<path d="M-118.43 1164.97C-118.43 1164.97 -114.837 1077.7 -88.7089 1063.41C-63.9455 1049.86 -47.336 1098.01 -14.0463 1087.64C17.745 1077.75 33.7591 1063.45 45.0448 1005.1C45.9191 1000.6 46.9347 995.948 47.9274 991.076C62.7088 918.069 63.8947 931.804 80.4052 813.587C96.8908 695.601 97.381 661.726 165.593 633.067C178.269 627.706 190.761 625.865 203.133 627.504C252.598 634.064 298.604 683.408 344.539 752.792C351.85 763.843 359.455 775.556 366.961 787.967C431.199 894.072 460.665 961.508 502.737 973.557C543.316 985.181 541.267 945.274 560.835 908.649C578.016 876.474 579.833 847.317 608.661 834.386C610.557 833.548 612.594 832.904 614.697 832.097C651.26 818.134 654.002 774.932 672.275 688.749C675.866 671.772 679.636 656.307 682.493 642.519C695.491 579.838 684.001 537.379 726.392 548.132C767.247 558.494 757.912 551.488 807.382 595.121C824.949 610.625 839.512 613.589 864.3 645.72C955.799 764.369 964.509 787.832 1023.04 834.326" stroke="#E4C1A9" stroke-width="0.64" stroke-miterlimit="10"/>
<path d="M-107.178 1140.52C-107.178 1140.52 -103.906 1053.85 -78.121 1039.13C-53.8523 1025.26 -37.3895 1072.39 -4.5706 1061.7C26.8506 1051.48 42.6143 1036.84 54.3397 979.241C55.2483 974.788 56.3221 970.174 57.3543 965.368C72.9734 893.105 74.9421 908.022 91.8322 791.55C108.673 675.314 109.409 641.185 176.948 612.773C189.529 607.433 201.901 605.617 214.196 607.248C263.422 613.861 309.189 662.68 354.789 731.212C362.05 742.148 369.628 753.742 377.109 766.033C440.782 870.809 470.21 937.728 512.324 949.618C552.807 961.036 551.11 921.479 570.63 884.865C587.694 852.84 589.612 823.686 618.165 810.414C620.032 809.558 622.064 808.89 624.137 808.064C660.518 793.49 663.105 749.921 681.478 664.543C685.122 647.579 689.066 632.227 692.098 618.55C705.814 556.639 694.639 514.938 737.123 526.347C778.113 537.33 768.781 531.024 818.531 573.645C836.562 589.098 851.03 590.706 876.099 622.976C967.148 740.246 976.188 763.963 1034.03 810.305" stroke="#E4C1A9" stroke-width="0.64" stroke-miterlimit="10"/>
<path d="M-95.2995 1115.96C-95.2995 1115.96 -92.3487 1029.88 -66.9069 1014.73C-43.1276 1000.57 -26.7929 1046.66 5.5365 1035.67C36.5825 1025.11 52.1248 1010.14 64.266 953.3C65.2089 948.89 66.3461 944.337 67.4365 939.569C83.8933 868.05 86.6395 884.124 103.885 769.402C121.088 654.94 122.063 620.533 188.925 592.344C201.392 587.053 213.686 585.23 225.886 586.881C274.849 593.551 320.395 641.818 365.665 709.52C372.894 720.314 380.452 731.811 387.888 744.012C450.992 847.435 480.369 913.889 522.517 925.596C562.936 936.829 561.56 897.602 581.051 860.969C598.022 829.09 600.04 799.939 628.296 786.332C630.157 785.451 632.16 784.765 634.199 783.896C670.368 768.692 672.823 724.751 691.325 640.196C695.022 623.246 699.107 607.963 702.319 594.423C716.758 533.305 705.869 492.343 748.494 504.397C789.624 516.026 780.288 510.397 830.348 552.024C848.868 567.421 863.212 567.654 888.567 600.087C979.142 715.984 988.531 739.925 1045.7 786.163" stroke="#E4C1A9" stroke-width="0.64" stroke-miterlimit="10"/>
<path d="M-82.872 1091.5C-82.872 1091.5 -80.2422 1006.02 -55.1486 990.42C-31.8641 975.942 -15.676 1021.01 16.2064 1009.69C46.8825 998.812 62.1929 983.465 74.7313 927.418C75.7084 923.05 76.8799 918.539 78.0389 913.857C95.3522 843.052 98.8863 860.332 116.483 747.336C134.046 634.648 135.266 599.988 201.427 572.026C213.798 566.756 225.968 564.935 238.072 566.607C286.801 573.353 332.103 621.072 377.037 687.921C384.216 698.6 391.748 709.978 399.163 722.083C461.703 824.178 491.042 890.114 533.231 901.662C573.584 912.709 572.536 873.836 591.998 837.185C608.851 805.456 610.97 776.308 638.956 762.384C640.788 761.485 642.787 760.775 644.796 759.887C680.782 744.072 683.083 699.765 701.685 616.014C705.459 599.071 709.689 583.883 713.081 570.478C728.238 510.131 717.664 469.926 760.381 482.636C801.675 494.905 792.356 489.923 842.654 530.573C861.667 545.937 875.887 544.795 901.523 577.368C991.623 691.89 1001.37 716.08 1057.85 762.166" stroke="#E4C1A9" stroke-width="0.64" stroke-miterlimit="10"/>
<path d="M-69.8597 1067.32C-69.8597 1067.32 -67.5509 982.43 -42.8003 966.406C-20.0053 951.634 -3.97441 995.633 27.4186 984.022C57.7485 972.818 72.8084 957.125 85.7626 901.838C86.7689 897.489 88.0038 893.04 89.2023 888.423C107.348 818.339 111.665 836.8 129.646 725.573C147.594 614.654 149.007 579.726 214.514 551.982C226.765 546.738 238.863 544.932 250.872 546.625C299.362 553.423 344.425 600.619 389.023 666.615C396.153 677.179 403.659 688.438 411.047 700.423C472.998 801.194 502.329 866.631 544.559 878.021C584.817 888.863 584.145 850.333 603.553 813.669C620.289 782.091 622.533 752.94 650.221 738.681C652.024 737.763 654.017 737.029 655.997 736.122C691.795 719.673 693.97 675.017 712.648 592.076C716.475 575.147 720.879 560.07 724.422 546.783C740.303 487.23 730.02 447.788 772.877 461.143C814.312 474.057 805.032 469.718 855.568 509.389C875.069 524.697 889.171 522.205 915.092 554.941C1004.72 668.089 1014.82 692.527 1070.63 738.486" stroke="#E4C1A9" stroke-width="0.64" stroke-miterlimit="10"/>
<path d="M-56.3163 1043.62C-56.3163 1043.62 -54.3234 959.351 -29.921 942.877C-7.61558 927.811 8.28737 970.761 39.1856 958.832C69.1403 947.284 83.9788 931.264 97.3249 876.743C98.3894 872.431 99.6638 868.048 100.921 863.469C119.928 794.124 125.004 813.772 143.359 704.266C161.668 595.12 163.321 559.915 228.131 532.422C240.287 527.199 252.266 525.419 264.198 527.104C312.454 533.978 357.244 580.607 401.535 645.769C408.638 656.214 416.118 667.353 423.462 679.248C484.849 778.69 514.148 843.633 556.413 854.84C596.605 865.496 596.255 827.297 615.64 790.637C632.258 759.21 634.608 730.087 662.016 715.463C663.809 714.497 665.754 713.773 667.729 712.843C703.339 695.758 705.359 650.736 724.166 568.617C728.046 551.702 732.62 536.714 736.337 523.539C752.941 464.78 742.968 426.071 785.918 440.082C827.517 453.636 818.296 449.91 869.031 488.662C889.026 503.937 902.975 500.051 929.206 532.945C1018.34 644.749 1028.81 669.406 1083.94 715.213" stroke="#E4C1A9" stroke-width="0.64" stroke-miterlimit="10"/>
<path d="M-42.2824 1020.56C-42.2824 1020.56 -40.6053 936.916 -16.5563 919.968C5.24089 904.637 21.0054 946.492 51.462 934.258C81.0653 922.36 95.6824 906.013 109.426 852.282C110.524 848.013 111.857 843.667 113.153 839.155C133.017 770.524 138.881 791.377 157.592 683.621C176.262 576.25 178.16 540.791 242.288 513.497C254.329 508.324 266.231 506.536 278.067 508.241C326.061 515.172 370.635 561.272 414.59 625.581C421.644 635.911 429.098 646.931 436.421 658.73C497.243 756.843 526.505 821.269 568.81 832.317C608.937 842.787 608.909 804.918 628.27 768.264C644.771 736.988 647.222 707.867 674.355 692.902C676.119 691.918 678.059 691.17 680.005 690.221C715.421 672.478 717.297 627.136 736.203 545.822C740.136 528.921 744.88 514.02 748.777 500.982C766.081 443.021 756.417 405.046 799.508 419.703C841.247 433.902 832.108 430.784 883.063 468.587C903.57 483.801 917.376 478.569 943.888 511.602C1032.52 622.038 1043.37 646.938 1097.84 692.612" stroke="#E4C1A9" stroke-width="0.64" stroke-miterlimit="10"/>
<path d="M-27.7642 998.356C-27.7642 998.356 -26.4268 915.332 -2.70217 897.93C18.6055 882.305 34.213 923.092 64.18 910.564C93.4133 898.346 107.823 881.619 121.963 828.677C123.096 824.451 124.492 820.167 125.828 815.721C146.548 747.805 153.17 769.845 172.261 663.834C191.287 558.212 193.461 522.643 256.862 495.457C268.813 490.329 280.585 488.519 292.349 490.24C340.109 497.247 384.439 542.799 428.058 606.254C435.062 616.471 442.49 627.371 449.792 639.075C510.026 735.864 539.279 799.791 581.62 810.656C621.657 820.945 621.975 783.402 641.307 746.728C657.715 715.598 660.266 686.48 687.107 671.204C688.865 670.195 690.776 669.429 692.688 668.437C727.916 650.059 729.666 604.369 748.672 523.86C752.658 506.972 757.547 492.165 761.624 479.262C779.627 422.101 770.297 384.855 813.504 400.162C855.384 415.006 846.351 412.491 897.483 449.379C918.502 464.532 932.161 457.931 958.958 491.126C1047.08 600.222 1058.29 625.318 1112.11 670.859" stroke="#E4C1A9" stroke-width="0.64" stroke-miterlimit="10"/>
<path d="M-12.7726 977.17C-12.7726 977.17 -11.751 894.766 11.6254 876.913C32.4249 861.023 47.923 900.733 77.4244 887.906C106.306 875.339 120.47 858.29 135.003 806.114C136.17 801.93 137.6 797.689 139.023 793.299C160.6 726.098 167.986 749.348 187.457 645.082C206.843 541.234 209.258 505.388 271.981 478.424C283.818 473.346 295.489 471.532 307.157 473.274C354.678 480.333 398.764 525.338 442.052 587.964C449.025 598.037 456.432 608.842 463.685 620.431C523.354 715.891 552.575 779.325 594.951 790.006C634.923 800.109 635.563 762.897 654.871 726.229C671.161 695.249 673.814 666.135 700.38 650.517C702.109 649.49 704.015 648.7 705.898 647.689C740.932 628.652 742.561 582.638 761.644 502.938C765.682 486.064 770.741 471.345 774.992 458.555C793.69 402.169 784.675 365.68 827.999 381.638C870.043 397.122 861.111 395.186 912.395 431.165C933.932 446.28 947.419 438.314 974.521 471.644C1062.12 579.4 1073.74 604.71 1126.87 650.124" stroke="#E4C1A9" stroke-width="0.64" stroke-miterlimit="10"/>
<path d="M2.66168 957.216C2.66168 957.216 3.34875 875.46 26.3905 857.105C46.7056 840.945 62.0415 879.563 91.0534 866.442C119.584 853.526 133.55 836.144 148.451 784.74C149.647 780.574 151.141 776.394 152.603 772.071C175.061 705.58 183.187 730.046 203.032 627.5C222.779 525.426 225.439 489.326 287.484 462.585C299.226 457.528 310.801 455.735 322.369 457.474C369.656 464.609 413.497 509.066 456.426 570.844C463.349 580.803 470.73 591.488 477.938 602.987C537.014 697.099 566.226 760.034 608.624 770.586C648.501 780.484 649.517 743.615 668.772 706.934C684.944 676.105 687.721 646.988 713.989 631.035C715.689 629.989 717.595 629.199 719.444 628.146C754.308 608.445 755.788 562.088 774.947 483.197C779.038 466.336 784.266 451.706 788.674 439.057C808.071 383.47 799.39 347.71 842.83 364.318C885.014 380.448 876.231 379.08 927.649 414.179C949.698 429.232 963.037 419.897 990.43 453.414C1077.5 559.86 1089.53 585.354 1141.99 630.64" stroke="#E4C1A9" stroke-width="0.64" stroke-miterlimit="10"/>
<path d="M18.4799 938.68C18.4799 938.68 18.8325 857.572 41.5447 838.738C61.3516 822.313 76.573 859.83 105.119 846.41C133.28 833.174 147.038 815.411 162.312 764.801C163.567 760.673 165.1 756.56 166.597 752.279C189.91 686.503 198.819 712.151 219.02 611.355C239.128 511.055 242.033 474.701 303.372 448.164C314.994 443.133 326.474 441.361 337.97 443.115C384.994 450.307 428.62 494.236 471.208 555.137C478.105 564.976 485.436 575.547 492.623 586.95C551.11 679.738 580.29 742.18 622.747 752.543C662.559 762.255 663.897 725.717 683.128 689.041C699.183 658.362 702.061 629.249 728.054 612.955C729.749 611.885 731.626 611.077 733.445 610.005C768.117 589.645 769.476 542.964 788.734 464.877C792.879 448.03 798.252 433.493 802.858 420.951C822.955 366.163 814.589 331.16 858.145 348.419C900.494 365.189 891.83 364.371 943.406 398.584C965.992 413.571 979.14 402.901 1006.86 436.546C1093.41 541.653 1105.84 567.361 1157.61 612.496" stroke="#E4C1A9" stroke-width="0.64" stroke-miterlimit="10"/>
<path d="M34.6942 921.735C34.6942 921.735 34.7309 841.247 57.0949 821.963C76.4227 805.292 91.5005 841.688 119.557 827.974C147.367 814.389 160.928 796.294 176.569 746.455C177.858 742.37 179.449 738.294 181.015 734.098C205.209 669.032 214.858 695.895 235.438 596.844C255.907 498.318 259.028 461.692 319.719 435.396C331.25 430.409 342.629 428.635 354.025 430.386C400.815 437.654 444.197 481.035 486.449 541.082C493.296 550.807 500.625 561.254 507.762 572.543C565.685 664.002 594.832 725.949 637.325 736.13C677.071 745.656 678.736 709.472 697.909 672.759C713.876 642.249 716.855 613.139 742.55 596.51C744.216 595.421 746.087 594.589 747.872 593.474C782.345 572.432 783.589 525.45 802.923 448.173C807.145 431.334 812.664 416.891 817.449 404.485C838.222 350.501 830.213 316.222 873.886 334.131C916.381 351.571 907.879 351.267 959.57 384.63C982.668 399.555 995.674 387.539 1023.68 421.324C1109.66 525.101 1122.53 551.013 1173.65 595.991" stroke="#E4C1A9" stroke-width="0.64" stroke-miterlimit="10"/>
<path d="M51.2933 906.558C51.2933 906.558 51.0007 826.743 73.0539 806.95C91.8787 790.038 106.813 825.314 134.404 811.301C161.862 797.367 175.196 778.92 191.24 729.896C192.564 725.853 194.213 721.814 195.818 717.685C220.892 653.328 231.282 681.407 252.236 584.077C273.066 487.325 276.432 450.446 336.416 424.353C347.828 419.392 359.106 417.615 370.411 419.411C416.962 426.731 460.1 469.564 502.022 528.782C508.819 538.393 516.122 548.72 523.238 559.913C580.572 650.048 609.707 711.473 652.239 721.495C691.896 730.84 693.908 694.981 713.057 658.273C728.906 627.915 731.986 598.807 757.406 581.837C759.067 580.725 760.909 579.873 762.665 578.74C796.963 557.01 798.068 509.733 817.502 433.261C821.777 416.435 827.447 402.109 832.407 389.816C853.855 336.636 846.18 303.085 889.969 321.645C932.628 339.724 924.289 339.937 976.071 372.453C999.705 387.312 1012.52 373.936 1040.83 407.879C1126.28 510.346 1139.57 536.443 1190 581.293" stroke="#E4C1A9" stroke-width="0.64" stroke-miterlimit="10"/>
<path d="M68.2044 893.392C68.2044 893.392 67.5772 814.225 89.2957 793.929C107.641 776.771 122.432 810.927 149.51 796.625C176.616 782.341 189.753 763.563 206.141 715.314C207.494 711.29 209.212 707.336 210.851 703.25C236.806 639.603 247.93 668.874 269.269 573.312C290.46 478.334 294.066 441.177 353.378 415.331C364.694 410.391 375.877 408.634 387.081 410.427C433.374 417.828 476.292 460.108 517.877 518.474C524.648 527.965 531.902 538.177 538.997 549.275C595.743 638.086 624.869 699.012 667.442 708.875C707.034 718.035 709.367 682.506 728.492 645.803C744.224 615.595 747.405 586.491 772.551 569.18C774.182 568.049 776.019 567.174 777.746 566.022C811.846 543.609 812.858 496.027 832.345 420.369C836.673 403.557 842.512 389.319 847.647 377.138C869.77 324.763 862.453 291.935 906.359 311.145C949.158 329.87 941.029 330.587 992.884 362.287C1017.05 377.055 1029.67 362.368 1058.29 396.445C1143.18 497.607 1156.9 523.86 1206.66 568.582" stroke="#E4C1A9" stroke-width="0.64" stroke-miterlimit="10"/>
<path d="M85.4295 882.359C85.4295 882.359 84.4731 803.865 105.857 783.067C123.729 765.686 138.37 798.697 164.988 784.12C191.738 769.464 204.706 750.371 221.438 702.899C222.849 698.912 224.578 695.006 226.304 690.976C253.163 628.033 265.004 658.525 286.717 564.685C308.269 471.48 312.12 434.07 370.749 408.423C381.951 403.532 393.033 401.772 404.16 403.557C450.215 411.01 492.893 452.766 534.143 510.279C540.859 519.632 548.115 529.743 555.161 540.727C611.318 628.214 640.411 688.646 683.044 698.321C722.546 707.3 725.25 672.091 744.322 635.375C759.96 605.312 763.241 576.212 788.095 558.589C789.697 557.439 791.529 556.54 793.227 555.369C827.152 532.268 828.025 484.391 847.588 409.543C851.968 392.744 857.953 378.6 863.268 366.555C886.043 314.989 879.088 282.908 923.106 302.745C966.045 322.115 958.097 323.319 1010.05 354.196C1034.77 368.893 1047.2 352.847 1076.11 387.11C1160.44 486.967 1174.58 513.405 1223.68 557.994" stroke="#E4C1A9" stroke-width="0.64" stroke-miterlimit="10"/>
<path d="M102.939 873.669C102.939 873.669 101.677 795.841 122.702 774.545C140.071 756.924 154.564 788.791 180.697 773.944C207.096 758.938 219.862 739.489 236.943 692.817C238.388 688.873 240.175 685.004 241.946 681.064C269.685 618.831 282.266 650.539 304.354 558.42C326.267 466.989 330.358 429.301 388.29 403.905C399.397 399.036 410.383 397.297 421.415 399.102C467.235 406.631 509.664 447.816 550.583 504.499C557.249 513.738 564.48 523.73 571.505 534.618C627.073 620.781 656.158 680.715 698.826 690.206C738.263 698.999 741.289 664.121 760.337 627.41C775.858 597.498 779.245 568.424 803.819 550.436C805.416 549.263 807.214 548.321 808.888 547.156C842.608 523.348 843.396 475.189 863.034 401.151C867.492 384.36 873.598 370.315 879.116 358.4C902.562 307.615 895.97 276.281 940.104 296.769C983.208 316.779 975.464 318.464 1027.49 348.548C1052.75 363.155 1064.99 345.797 1094.21 380.195C1177.95 478.751 1192.56 505.364 1240.98 549.825" stroke="#E4C1A9" stroke-width="0.64" stroke-miterlimit="10"/>
<path d="M120.726 867.521C120.726 867.521 119.14 790.39 139.82 768.544C156.715 750.699 171.059 781.423 196.703 766.281C222.75 750.927 235.343 731.14 252.768 685.244C254.247 681.342 256.097 677.535 257.927 673.633C286.57 612.104 299.867 645.033 322.335 554.658C344.608 465.002 348.921 427.065 406.195 401.863C417.182 397.019 428.072 395.301 439.027 397.098C484.585 404.684 526.798 445.34 567.382 501.17C574.022 510.289 581.202 520.167 588.206 530.959C643.187 615.799 672.263 675.234 714.943 684.548C754.29 693.159 757.662 658.607 776.681 621.876C792.084 592.116 795.597 563.04 819.872 544.716C821.44 543.524 823.208 542.564 824.872 541.351C858.389 516.836 859.09 468.396 878.78 395.172C883.291 378.395 889.567 364.438 895.236 352.641C919.333 302.665 913.099 272.054 957.355 293.216C1000.6 313.872 993.06 316.038 1045.16 345.306C1070.97 359.816 1083.01 341.152 1112.53 375.684C1195.69 472.941 1210.75 499.727 1258.52 544.032" stroke="#E4C1A9" stroke-width="0.64" stroke-miterlimit="10"/>
<path d="M138.928 864.888C138.928 864.888 137.013 788.43 157.358 766.08C173.779 748.014 187.969 777.569 213.152 762.152C238.843 746.425 251.267 726.324 269.013 681.209C270.545 677.321 272.435 673.581 274.303 669.745C303.851 608.92 317.864 643.07 340.682 554.422C363.298 466.568 367.87 428.325 424.447 403.374C435.344 398.576 446.128 396.83 456.969 398.677C502.292 406.339 544.262 446.448 584.509 501.424C591.099 510.429 598.278 520.182 605.237 530.884C659.629 614.4 688.692 673.312 731.417 682.491C770.694 690.893 774.393 656.694 793.388 619.969C808.674 590.359 812.287 561.286 836.288 542.622C837.851 541.406 839.59 540.427 841.225 539.195C874.562 513.969 875.158 465.276 894.919 392.837C899.483 376.074 905.904 362.211 911.777 350.545C936.502 301.383 930.655 271.515 975.046 293.298C1018.43 314.599 1011.14 317.212 1063.27 345.697C1089.64 360.112 1101.46 340.141 1131.28 374.807C1213.87 470.764 1229.39 497.725 1276.48 541.902" stroke="#E4C1A9" stroke-width="0.64" stroke-miterlimit="10"/>
<path d="M157.399 865.451C157.399 865.451 155.184 789.683 175.165 766.812C191.117 748.547 205.148 776.911 229.847 761.224C255.187 745.147 267.456 724.679 285.527 680.37C287.093 676.525 289.041 672.822 290.95 669.052C321.425 608.927 336.131 644.303 359.329 557.399C382.305 471.32 387.122 432.823 443.017 408.071C453.794 403.298 464.483 401.573 475.246 403.412C520.331 411.126 562.056 450.687 601.973 504.834C608.537 513.72 615.666 523.358 622.599 533.941C676.402 616.133 705.433 674.551 748.217 683.542C787.405 691.763 791.455 657.914 810.416 621.146C825.609 591.682 829.298 562.617 853.03 543.636C854.564 542.401 856.298 541.398 857.904 540.147C891.037 514.214 891.546 465.24 911.36 393.616C915.977 376.866 922.543 363.097 928.614 351.537C953.986 303.162 948.526 274.035 993.009 296.474C1036.56 318.415 1029.46 321.462 1081.66 349.207C1108.58 363.526 1120.17 342.23 1150.32 377.049C1232.3 471.735 1248.31 498.841 1294.71 542.867" stroke="#E4C1A9" stroke-width="0.64" stroke-miterlimit="10"/>
<path d="M178.997 869.338C178.997 869.338 176.457 794.266 196.094 770.844C211.572 752.357 225.425 779.558 249.663 763.595C274.647 747.146 286.747 726.364 305.162 682.831C306.763 679.029 308.774 675.387 310.746 671.679C342.126 612.258 357.548 648.855 381.12 563.672C404.458 479.366 409.514 440.592 464.713 416.092C475.394 411.34 485.964 409.641 496.656 411.495C541.507 419.285 582.987 458.298 622.568 511.593C629.083 520.364 636.185 529.883 643.098 540.37C696.289 621.243 725.335 679.157 768.155 687.965C807.276 696 811.673 662.476 830.586 625.719C845.667 596.429 849.481 567.362 872.909 548.022C874.414 546.768 876.143 545.741 877.719 544.472C910.643 517.808 911.072 468.576 930.932 397.743C935.626 381.002 942.319 367.355 948.565 355.908C974.565 308.346 969.486 279.938 1014.11 303.022C1057.8 325.633 1050.97 329.073 1103.2 356.059C1130.69 370.254 1142.05 347.681 1172.52 382.657C1253.9 476.073 1270.39 503.325 1316.11 547.199" stroke="#E4C1A9" stroke-width="0.64" stroke-miterlimit="10"/>
<path d="M201.258 875.008C201.258 875.008 198.424 800.652 217.691 776.685C232.7 757.999 246.394 784.008 270.13 767.804C294.756 750.982 306.712 729.881 325.429 687.159C327.088 683.393 329.134 679.794 331.145 676.153C363.453 617.431 379.567 655.254 403.519 571.816C427.217 489.284 432.495 450.262 487.035 425.955C497.602 421.253 508.095 419.546 518.686 421.397C563.274 429.244 604.539 467.728 643.785 520.169C650.244 528.802 657.325 538.226 664.193 548.622C716.796 628.171 745.834 685.587 788.689 694.212C827.721 702.066 832.464 668.867 851.348 632.091C866.311 602.952 870.226 573.889 893.38 554.207C894.879 552.93 896.579 551.884 898.126 550.596C930.842 523.202 931.189 473.712 951.125 403.689C955.872 386.961 962.711 373.407 969.161 362.091C995.783 315.321 991.096 287.678 1035.83 311.389C1079.67 334.645 1073.07 338.508 1125.34 364.76C1153.39 378.858 1164.54 354.979 1195.31 390.09C1276.08 482.21 1293.06 509.608 1338.1 553.378" stroke="#E4C1A9" stroke-width="0.64" stroke-miterlimit="10"/>
<path d="M222.898 881.966C222.898 881.966 219.763 808.301 238.667 783.812C253.236 764.946 266.742 789.744 290.017 773.266C314.287 756.07 326.099 734.651 345.135 692.71C346.824 688.963 348.933 685.425 350.983 681.85C384.225 623.852 401.026 662.877 425.352 581.16C449.388 500.407 454.93 461.102 508.797 437.041C519.268 432.36 529.636 430.655 540.161 432.546C584.515 440.469 625.531 478.381 664.446 529.993C670.879 538.507 677.935 547.811 684.753 558.093C736.743 636.323 765.796 693.235 808.692 701.701C847.659 709.369 852.724 676.501 871.584 639.73C886.453 610.736 890.469 581.676 913.33 561.683C914.8 560.386 916.495 559.317 918.008 557.986C950.514 529.862 950.809 480.133 970.769 410.906C975.592 394.186 982.553 380.731 989.201 369.522C1016.45 323.542 1012.17 296.636 1057.02 320.998C1101 344.899 1094.66 349.156 1146.95 374.678C1175.57 388.652 1186.5 363.496 1217.6 398.735C1297.74 489.59 1315.2 517.132 1359.59 560.77" stroke="#E4C1A9" stroke-width="0.64" stroke-miterlimit="10"/>
<path d="M243.933 890.056C243.933 890.056 240.503 817.106 259.032 792.047C273.133 772.984 286.48 796.589 309.27 779.841C333.184 762.272 344.875 740.528 364.184 699.379C365.93 695.67 368.079 692.199 370.188 688.661C404.358 631.362 421.851 671.613 446.557 591.641C470.958 512.686 476.74 473.103 529.901 449.246C540.253 444.591 550.549 442.902 560.949 444.794C605.069 452.793 645.841 490.158 684.42 540.917C690.803 549.316 697.833 558.501 704.63 568.687C756.032 645.594 785.053 702.012 827.984 710.295C866.861 717.782 872.273 685.239 891.085 648.479C905.837 619.636 909.959 590.602 932.54 570.245C934.005 568.924 935.671 567.836 937.154 566.487C969.447 537.608 969.666 487.645 989.702 419.228C994.583 402.545 1001.68 389.16 1008.51 378.087C1036.38 332.898 1032.49 306.734 1077.49 331.765C1121.63 356.306 1115.53 360.962 1167.84 385.778C1197.03 399.604 1207.71 373.199 1239.13 408.567C1318.68 498.175 1336.62 525.84 1380.35 569.32" stroke="#E4C1A9" stroke-width="0.64" stroke-miterlimit="10"/>
<path d="M264.399 899.095C264.399 899.095 260.674 826.86 278.834 801.256C292.491 781.989 305.625 804.389 327.96 787.389C351.517 769.447 363.093 747.403 382.693 707.017C384.474 703.35 386.681 699.916 388.834 696.469C423.932 639.869 442.118 681.347 467.198 603.095C491.937 525.92 497.959 486.059 550.471 462.444C560.732 457.833 570.904 456.146 581.232 458.054C625.089 466.11 665.646 502.946 703.889 552.852C710.222 561.137 717.226 570.202 724.002 580.293C774.797 655.905 803.829 711.795 846.795 719.895C885.607 727.196 891.369 695.002 910.123 658.204C924.758 629.512 928.981 600.482 951.287 579.783C952.723 578.444 954.378 577.308 955.838 575.964C987.898 546.36 988.089 496.153 1008.15 428.531C1013.11 411.857 1020.33 398.571 1027.35 387.605C1055.82 343.212 1052.35 317.808 1097.46 343.466C1141.74 368.653 1135.9 373.702 1188.25 397.784C1218.02 411.484 1228.47 383.803 1260.2 419.305C1339.09 507.652 1357.56 535.452 1400.61 578.804" stroke="#E4C1A9" stroke-width="0.64" stroke-miterlimit="10"/>
<path d="M284.355 908.898C284.355 908.898 280.364 837.396 298.126 811.228C311.343 791.781 324.289 812.971 346.14 795.7C369.34 777.386 380.795 755.017 400.692 715.418C402.531 711.788 404.777 708.421 406.965 705.016C443.02 649.134 461.845 691.825 487.324 615.289C512.423 539.887 518.69 499.773 570.496 476.361C580.638 471.777 590.738 470.105 600.965 472.01C644.589 480.142 684.895 516.407 722.808 565.483C729.115 573.649 736.069 582.599 742.82 592.571C793.026 666.859 822.049 722.25 865.05 730.167C903.778 737.312 909.881 705.419 928.611 668.626C943.153 640.08 947.476 611.052 969.485 590.018C970.915 588.655 972.518 587.506 973.972 586.138C1005.82 555.779 1005.96 505.333 1026.04 438.531C1031.05 421.871 1038.42 408.678 1045.63 397.848C1074.69 354.251 1071.65 329.579 1116.88 355.887C1161.31 381.743 1155.74 387.133 1208.1 410.538C1238.43 424.09 1248.63 395.161 1280.7 430.816C1358.97 517.897 1377.94 545.837 1420.31 589.038" stroke="#E4C1A9" stroke-width="0.64" stroke-miterlimit="10"/>
<path d="M303.769 919.318C303.769 919.318 299.507 848.526 316.876 821.818C329.629 802.196 342.406 822.146 363.783 804.654C386.622 785.942 397.961 763.273 418.13 724.465C419.998 720.855 422.308 717.549 424.559 714.205C461.571 659.041 481.06 702.939 506.918 628.148C532.354 554.525 538.885 514.129 590.019 490.963C600.07 486.423 610.045 484.754 620.201 486.675C663.591 494.883 703.677 530.594 741.23 578.823C747.488 586.874 754.439 595.7 761.145 605.581C810.739 678.55 839.754 733.443 882.814 741.172C921.476 748.13 927.902 716.568 946.603 679.757C961.027 651.361 965.456 622.36 987.19 600.985C988.592 599.604 990.189 598.43 991.61 597.02C1023.21 565.888 1023.33 515.245 1043.47 449.235C1048.55 432.582 1056.04 419.488 1063.45 408.789C1093.14 365.983 1090.49 342.053 1135.83 369.011C1180.42 395.507 1175.09 401.273 1227.47 423.972C1258.39 437.37 1268.35 407.193 1300.72 442.981C1378.35 528.827 1397.84 556.853 1439.52 599.927" stroke="#E4C1A9" stroke-width="0.64" stroke-miterlimit="10"/>
<path d="M322.73 930.187C322.73 930.187 318.178 860.135 335.168 832.833C347.482 813.031 360.041 831.752 380.963 814.008C403.445 794.923 414.693 771.949 435.129 733.909C437.056 730.336 439.423 727.067 441.69 723.796C479.66 669.35 499.788 714.46 526.044 641.385C551.846 569.56 558.612 528.862 609.044 505.924C618.976 501.41 628.88 499.756 638.935 501.674C682.061 509.939 721.933 545.122 759.126 592.503C765.352 600.41 772.259 609.146 778.944 618.931C827.926 690.582 856.956 744.97 900.057 752.54C938.63 759.318 945.401 728.081 964.079 691.275C978.385 663.029 982.939 634.027 1004.37 612.316C1005.75 610.916 1007.34 609.719 1008.73 608.29C1040.09 576.408 1040.19 525.546 1060.35 460.331C1065.49 443.692 1073.1 430.696 1080.73 420.099C1110.99 378.07 1108.78 354.92 1154.26 382.5C1198.99 409.641 1193.94 415.747 1246.32 437.794C1277.81 451.044 1287.52 419.618 1320.22 455.535C1397.22 540.115 1417.22 568.282 1458.23 611.227" stroke="#E4C1A9" stroke-width="0.64" stroke-miterlimit="10"/>
<path d="M341.221 941.309C341.221 941.309 336.403 871.99 352.995 844.124C364.893 824.137 377.234 841.629 397.677 823.638C419.798 804.157 430.954 780.877 451.644 743.658C453.604 740.128 456.036 736.92 458.342 733.715C497.269 679.987 518.06 726.305 544.696 654.974C570.835 584.929 577.871 543.972 627.625 521.256C637.461 516.763 647.245 515.135 657.199 517.05C700.092 525.391 739.714 560.002 776.577 606.554C782.753 614.347 789.634 622.963 796.293 632.629C844.662 702.961 873.708 756.845 916.844 764.232C955.328 770.829 962.469 739.912 981.093 703.093C995.312 675.017 999.943 646.023 1021.1 623.947C1022.47 622.523 1024.03 621.307 1025.42 619.854C1056.54 587.2 1056.61 536.116 1076.8 471.722C1082.01 455.091 1089.75 442.194 1097.56 431.733C1128.42 390.5 1126.64 368.081 1172.21 396.317C1217.09 424.128 1212.3 430.551 1264.71 451.916C1296.8 465.011 1306.24 432.343 1339.26 468.389C1415.6 551.737 1436.14 580.01 1476.5 622.823" stroke="#E4C1A9" stroke-width="0.64" stroke-miterlimit="10"/>
<path d="M359.286 952.548C359.286 952.548 354.226 883.958 370.396 855.533C381.854 835.367 394.002 851.624 413.966 833.387C435.725 813.508 446.795 789.947 467.752 753.496C469.771 750.003 472.237 746.838 474.606 743.694C514.514 690.679 535.926 738.239 562.955 668.6C589.431 600.333 596.707 559.099 645.807 536.601C655.524 532.134 665.207 530.503 675.095 532.457C717.73 540.879 757.132 574.938 793.658 620.636C799.785 628.315 806.64 636.811 813.278 646.381C861.04 715.419 890.072 768.78 933.244 775.985C971.662 782.396 979.131 751.833 997.726 714.995C1011.83 687.069 1016.58 658.073 1037.44 635.662C1038.78 634.219 1040.33 632.955 1041.67 631.513C1072.55 598.085 1072.63 546.801 1092.83 483.178C1098.1 466.561 1105.97 453.734 1113.99 443.403C1145.42 402.948 1144.09 381.308 1189.8 410.189C1234.81 438.645 1230.3 445.385 1282.72 466.122C1315.4 479.039 1324.57 445.152 1357.92 481.327C1433.61 563.438 1454.68 591.822 1494.35 634.483" stroke="#E4C1A9" stroke-width="0.64" stroke-miterlimit="10"/>
<path d="M376.957 963.699C376.957 963.699 371.66 895.861 387.398 866.829C398.445 846.502 410.347 861.51 429.855 843.023C451.253 822.747 462.236 798.904 483.461 763.221C485.514 759.771 488.043 756.667 490.447 753.566C531.336 701.263 553.387 750.036 580.79 682.118C607.609 615.654 615.148 574.137 663.547 551.867C673.174 547.444 682.756 545.81 692.543 547.761C734.939 556.236 774.12 589.741 810.292 634.615C816.393 642.175 823.198 650.557 829.815 660.031C876.965 727.75 906.013 780.608 949.22 787.629C987.548 793.859 995.363 763.622 1013.93 726.765C1027.91 698.99 1032.77 669.997 1053.36 647.269C1054.67 645.808 1056.21 644.52 1057.55 643.053C1088.18 608.853 1088.25 557.371 1108.48 494.569C1113.82 477.96 1121.79 465.237 1130.01 455.037C1162.01 415.359 1161.12 394.475 1206.95 424.006C1252.1 453.108 1247.89 460.183 1300.29 480.248C1333.55 492.988 1342.46 457.882 1376.14 494.186C1451.16 575.066 1472.76 603.561 1511.77 646.089" stroke="#E4C1A9" stroke-width="0.64" stroke-miterlimit="10"/>
<path d="M394.249 974.605C394.249 974.605 388.71 907.496 404.026 877.905C414.634 857.398 426.318 871.178 445.371 852.438C466.383 831.771 477.328 807.636 498.772 772.732C500.878 769.295 503.446 766.258 505.919 763.241C547.771 711.681 570.456 761.642 598.263 695.464C625.418 630.779 633.221 588.979 680.943 566.931C690.45 562.535 699.937 560.922 709.652 562.888C751.814 571.439 790.751 604.396 826.587 648.417C832.638 655.863 839.441 664.12 845.99 673.509C892.527 739.909 921.591 792.263 964.833 799.101C1003.1 805.145 1011.26 775.233 1029.77 738.387C1043.66 710.758 1048.63 681.791 1068.91 658.704C1070.22 657.219 1071.71 655.917 1073.03 654.403C1103.4 619.434 1103.49 567.746 1123.74 505.716C1129.15 489.145 1137.26 476.491 1145.68 466.422C1178.24 427.497 1177.83 407.411 1223.77 437.569C1269.09 467.311 1265.11 474.709 1317.53 494.121C1351.37 506.659 1360.02 470.358 1394.03 506.814C1468.39 586.487 1490.53 615.064 1528.86 657.441" stroke="#E4C1A9" stroke-width="0.64" stroke-miterlimit="10"/>
<path d="M411.18 985.115C411.18 985.115 405.404 918.759 420.292 888.584C430.49 867.917 441.952 880.443 460.531 861.481C481.181 840.417 492.069 816.019 513.751 781.864C515.915 778.464 518.523 775.494 521.03 772.52C563.868 721.696 587.168 772.875 615.368 708.389C642.866 645.507 650.909 603.43 697.953 581.604C707.365 577.229 716.756 575.636 726.346 577.605C768.251 586.236 806.991 618.636 842.468 661.809C848.492 669.135 855.246 677.278 861.768 686.548C907.67 751.634 936.748 803.484 980.055 810.158C1018.23 816.045 1026.74 786.434 1045.23 749.593C1059 722.115 1064.07 693.152 1084.08 669.723C1085.35 668.219 1086.84 666.894 1088.13 665.361C1118.23 629.624 1118.33 577.735 1138.61 516.5C1144.09 499.937 1152.29 487.364 1160.94 477.421C1194.07 439.273 1194.1 419.942 1240.15 450.751C1285.62 481.162 1281.93 488.824 1334.36 507.631C1368.79 519.991 1377.18 482.495 1411.52 519.056C1485.21 597.498 1507.89 626.157 1545.55 668.429" stroke="#E4C1A9" stroke-width="0.64" stroke-miterlimit="10"/>
<path d="M427.813 995.064C427.813 995.064 421.801 929.46 436.257 898.679C446.063 877.821 457.254 889.104 475.383 869.915C495.642 848.435 506.497 823.769 528.398 790.392C530.597 787.035 533.263 784.102 535.809 781.195C579.657 731.102 603.544 783.481 632.148 720.734C659.983 659.631 668.289 617.271 714.656 595.669C723.953 591.343 733.244 589.747 742.762 591.732C784.433 600.439 822.924 632.267 858.07 674.611C864.039 681.798 870.772 689.846 877.274 699.02C922.568 762.812 951.657 814.133 994.999 820.625C1033.09 826.331 1041.94 797.069 1060.4 760.185C1074.06 732.882 1079.25 703.916 1098.96 680.152C1100.23 678.625 1101.69 677.281 1102.96 675.729C1132.78 639.201 1132.92 587.128 1153.19 526.695C1158.75 510.14 1167.08 497.665 1175.91 487.859C1209.6 450.464 1210.07 431.913 1256.26 463.367C1301.87 494.423 1298.44 502.377 1350.89 520.556C1385.89 532.691 1394.03 494.023 1428.7 530.714C1501.72 607.923 1524.95 636.689 1561.95 678.804" stroke="#E4C1A9" stroke-width="0.64" stroke-miterlimit="10"/>
<path d="M444.15 1004.23C444.15 1004.23 437.925 939.37 451.93 908.011C461.325 886.992 472.27 897.027 489.944 877.587C509.841 855.71 520.639 830.781 542.778 798.153C545.035 794.834 547.74 791.967 550.345 789.097C595.18 739.742 619.677 793.314 648.655 732.288C676.832 672.988 685.397 630.322 731.091 608.965C740.293 604.66 749.488 603.086 758.906 605.067C800.338 613.826 838.589 645.131 873.399 686.621C879.343 693.689 886.025 701.622 892.506 710.701C937.165 773.179 966.269 823.997 1009.67 830.3C1047.69 835.82 1056.89 806.884 1075.31 770.01C1088.87 742.852 1094.14 713.895 1113.58 689.79C1114.82 688.244 1116.27 686.852 1117.51 685.305C1147.06 647.985 1147.23 595.73 1167.53 536.093C1173.14 519.552 1181.59 507.175 1190.64 497.494C1224.9 460.853 1225.82 443.105 1272.13 475.21C1317.88 506.911 1314.74 515.154 1367.18 532.733C1402.79 544.661 1410.62 504.832 1445.66 541.617C1518 617.625 1541.79 646.466 1578.11 688.455" stroke="#E4C1A9" stroke-width="0.64" stroke-miterlimit="10"/>
<path d="M460.218 1012.5C460.218 1012.5 453.78 948.387 467.333 916.451C476.337 895.242 487.011 904.034 504.235 884.366C523.742 862.073 534.535 836.895 556.865 805.027C559.18 801.745 561.944 798.916 564.569 796.141C610.395 747.546 635.502 802.312 664.879 743.002C693.369 685.487 702.227 642.556 747.215 621.404C756.297 617.125 765.391 615.547 774.742 617.568C815.916 626.408 853.966 657.13 888.422 697.797C894.316 704.751 900.972 712.564 907.432 721.548C951.483 782.731 980.598 833.021 1024.03 839.141C1061.97 844.48 1071.51 815.869 1089.87 778.982C1103.32 751.974 1108.72 723.039 1127.85 698.575C1129.09 697.005 1130.48 695.599 1131.72 694.029C1160.98 655.922 1161.21 603.479 1181.5 544.643C1187.2 528.134 1195.75 515.808 1205.02 506.258C1239.82 470.375 1241.2 453.402 1287.66 486.151C1333.54 518.498 1330.69 527.029 1383.12 543.984C1419.31 555.686 1426.86 514.692 1462.25 551.601C1533.9 626.406 1558.26 655.325 1593.9 697.161" stroke="#E4C1A9" stroke-width="0.64" stroke-miterlimit="10"/>
<path d="M476.047 1019.67C476.047 1019.67 469.419 956.299 482.493 923.766C491.086 902.396 501.508 909.916 518.282 890.021C537.398 867.313 548.187 841.885 570.736 810.795C573.085 807.556 575.913 804.788 578.573 802.056C625.414 754.216 651.078 810.163 680.877 752.563C709.709 696.851 718.803 653.619 763.142 632.708C772.133 628.473 781.127 626.892 790.377 628.91C831.317 637.826 869.147 667.996 903.243 707.815C909.087 714.654 915.717 722.348 922.151 731.212C965.566 791.082 994.702 840.891 1038.17 846.829C1076.02 851.987 1085.91 823.701 1104.25 786.819C1117.6 759.957 1123.07 731.031 1141.93 706.225C1143.14 704.636 1144.53 703.207 1145.73 701.594C1174.69 662.701 1174.99 610.093 1195.3 552.029C1201.07 535.528 1209.72 523.283 1219.19 513.888C1254.56 478.758 1256.42 462.582 1302.96 495.964C1348.99 528.98 1346.39 537.756 1398.85 554.131C1435.64 565.602 1442.91 523.465 1478.63 560.503C1549.62 634.101 1574.53 663.101 1609.48 704.81" stroke="#E4C1A9" stroke-width="0.64" stroke-miterlimit="10"/>
<path d="M491.671 1025.55C491.671 1025.55 484.855 962.929 497.453 929.823C505.66 908.287 515.807 914.54 532.131 894.417C550.885 871.312 561.641 845.617 584.404 815.281C586.806 812.055 589.673 809.354 592.396 806.683C640.253 759.599 666.498 816.721 696.695 760.837C725.841 706.909 735.222 663.389 778.86 642.705C787.732 638.497 796.629 636.937 805.784 638.975C846.467 647.972 884.076 677.589 917.836 716.555C923.654 723.275 930.234 730.855 936.648 739.623C979.432 798.203 1008.6 847.479 1052.11 853.234C1089.89 858.231 1100.13 830.27 1118.41 793.35C1131.65 766.639 1137.25 737.734 1155.81 712.593C1156.99 710.985 1158.37 709.532 1159.55 707.901C1188.21 668.22 1188.56 615.425 1208.87 558.162C1214.72 541.67 1223.47 529.528 1233.17 520.259C1269.07 485.864 1271.41 470.486 1318.08 504.513C1364.26 538.174 1361.94 547.214 1414.41 562.984C1451.81 574.225 1458.78 530.927 1494.85 568.088C1565.13 640.489 1590.6 669.567 1624.9 711.119" stroke="#E4C1A9" stroke-width="0.64" stroke-miterlimit="10"/>
<path d="M507.09 1030.03C507.09 1030.03 500.085 968.151 512.208 934.473C520.022 912.747 529.899 917.757 545.778 897.431C564.141 873.91 574.898 847.989 597.847 818.389C600.307 815.201 603.213 812.566 605.971 809.938C654.848 763.633 681.651 821.935 712.27 767.762C741.734 715.642 751.403 671.834 794.363 651.373C803.14 647.185 811.918 645.651 820.996 647.681C861.445 656.754 898.828 685.795 932.234 723.936C938.002 730.542 944.58 737.997 950.949 746.674C993.096 803.941 1022.31 852.708 1065.85 858.28C1103.54 863.096 1114.13 835.46 1132.38 798.546C1145.51 772.009 1151.2 743.084 1169.49 717.602C1170.66 715.97 1172.01 714.475 1173.16 712.848C1201.53 672.357 1201.97 619.392 1222.28 562.931C1228.2 546.447 1237.07 534.38 1246.95 525.247C1283.38 491.587 1286.2 477.031 1333.01 511.679C1379.35 545.981 1377.29 555.289 1429.76 570.484C1467.75 581.469 1474.43 537.059 1510.85 574.32C1580.44 645.518 1606.48 674.649 1640.1 716.097" stroke="#E4C1A9" stroke-width="0.64" stroke-miterlimit="10"/>
<path d="M522.361 1032.92C522.361 1032.92 515.167 971.779 526.834 937.499C534.262 915.607 543.863 919.35 559.292 898.796C577.241 874.865 588.046 848.708 611.18 819.844C613.698 816.693 616.639 814.1 619.441 811.563C669.31 766.018 696.694 825.496 727.735 773.033C757.512 722.698 767.469 678.602 809.728 658.368C818.39 654.231 827.091 652.688 836.068 654.715C876.284 663.865 913.423 692.357 946.493 729.645C952.229 736.107 958.768 743.496 965.106 752.03C1006.62 808.008 1035.84 856.247 1079.44 861.63C1117.05 866.289 1127.98 838.955 1146.21 802.046C1159.24 775.655 1165.04 746.732 1183.03 720.915C1184.17 719.265 1185.49 717.75 1186.64 716.1C1214.68 674.828 1215.21 621.693 1235.51 566.009C1241.52 549.557 1250.47 537.546 1260.59 528.563C1297.58 495.632 1300.84 481.879 1347.77 517.178C1394.26 552.149 1392.45 561.679 1444.95 576.293C1483.53 587.024 1489.92 541.5 1526.68 578.861C1595.56 648.862 1622.19 678.064 1655.13 719.361" stroke="#E4C1A9" stroke-width="0.64" stroke-miterlimit="10"/>
<path d="M537.522 1034.03C537.522 1034.03 530.168 973.647 541.33 938.776C548.396 916.712 557.673 919.2 572.676 898.413C590.234 874.066 601.065 847.678 624.359 819.555C626.936 816.441 629.94 813.91 632.777 811.416C683.69 766.645 711.602 827.284 743.071 776.556C773.161 728.004 783.381 683.626 824.992 663.634C833.558 659.517 842.14 658 851.045 660.043C890.998 669.249 927.94 697.184 960.656 733.648C966.342 739.996 972.855 747.265 979.172 755.704C1020.05 810.368 1049.32 858.122 1092.95 863.322C1130.5 867.795 1141.77 840.786 1159.95 803.863C1172.86 777.623 1178.77 748.727 1196.48 722.569C1197.62 720.895 1198.91 719.362 1200.02 717.669C1227.74 675.591 1228.39 622.306 1248.66 567.405C1254.72 550.966 1263.79 539.03 1274.1 530.178C1311.63 497.982 1315.38 485.051 1362.44 520.971C1409.07 556.587 1407.54 566.357 1460.04 580.419C1499.21 590.895 1505.31 544.259 1542.43 581.719C1610.59 650.547 1637.81 679.797 1670.1 720.961" stroke="#E4C1A9" stroke-width="0.64" stroke-miterlimit="10"/>
<path d="M552.558 1033.18C552.558 1033.18 545.039 973.541 555.703 938.103C562.376 915.849 571.383 917.093 585.936 896.079C603.098 871.292 613.964 844.722 637.439 817.311C640.05 814.239 643.112 811.746 645.988 809.318C697.927 765.35 726.391 827.146 758.277 778.104C788.685 731.361 799.194 686.694 840.121 666.901C848.568 662.81 857.078 661.309 865.859 663.354C905.578 672.636 942.295 699.994 974.656 735.634C980.316 741.862 986.779 749.018 993.051 757.366C1033.28 810.745 1062.57 857.966 1106.27 862.978C1143.73 867.27 1155.35 840.61 1173.5 803.669C1186.32 777.574 1192.32 748.682 1209.74 722.188C1210.85 720.495 1212.14 718.938 1213.22 717.226C1240.61 674.343 1241.37 620.884 1261.64 566.759C1267.77 550.329 1276.96 538.468 1287.48 529.77C1325.54 498.285 1329.79 486.171 1376.95 522.771C1423.72 559.033 1422.47 569.043 1474.99 582.523C1514.76 592.721 1520.57 544.996 1558.03 582.579C1625.5 650.235 1653.3 679.532 1684.9 720.544" stroke="#E4C1A9" stroke-width="0.64" stroke-miterlimit="10"/>
<path d="M567.54 1030.25C567.54 1030.25 559.88 971.339 570.021 935.338C576.331 912.913 585.015 912.901 599.142 891.654C615.889 866.457 626.809 839.675 650.463 812.975C653.138 809.965 656.234 807.514 659.145 805.129C712.11 761.964 741.121 824.893 773.434 777.585C804.131 732.632 814.952 687.672 855.183 668.13C863.54 664.084 871.925 662.585 880.634 664.646C920.095 674.009 956.615 700.809 988.592 735.606C994.203 741.72 1000.64 748.756 1006.91 756.979C1046.5 809.069 1075.84 855.757 1119.57 860.586C1156.94 864.721 1168.9 838.363 1187.02 801.403C1199.73 775.459 1205.86 746.588 1222.97 719.735C1224.08 718.018 1225.33 716.418 1226.39 714.712C1253.45 671.023 1254.33 617.413 1274.57 564.071C1280.79 547.673 1290.06 535.868 1300.82 527.32C1339.41 496.546 1344.14 485.277 1391.44 522.499C1438.35 559.43 1437.34 569.637 1489.89 582.561C1530.25 592.48 1535.75 543.671 1573.59 581.349C1640.34 647.807 1668.73 677.176 1699.65 718.06" stroke="#E4C1A9" stroke-width="0.64" stroke-miterlimit="10"/>
<path d="M582.45 1025.03C582.45 1025.03 574.63 966.878 584.262 930.263C590.21 907.666 598.589 906.368 612.276 884.942C628.632 859.329 639.577 832.316 663.398 806.381C666.13 803.409 669.266 801.024 672.24 798.7C726.231 756.339 755.789 820.4 788.524 774.803C819.535 731.634 830.619 686.391 870.197 667.067C878.434 663.047 886.742 661.54 895.355 663.621C934.582 673.06 970.877 699.283 1002.5 733.257C1008.08 739.251 1014.47 746.172 1020.7 754.305C1059.64 805.111 1089.01 851.289 1132.77 855.912C1170.08 859.861 1182.39 833.827 1200.46 796.878C1213.05 771.108 1219.28 742.217 1236.12 715.023C1237.19 713.287 1238.42 711.669 1239.47 709.938C1266.19 665.45 1267.2 611.684 1287.43 559.119C1293.73 542.73 1303.1 531.005 1314.06 522.587C1353.2 492.518 1358.39 482.077 1405.8 519.95C1452.85 557.526 1452.09 567.954 1504.68 580.345C1545.63 589.985 1550.82 540.092 1589.02 577.865C1655.07 643.15 1684.05 672.567 1714.29 713.299" stroke="#E4C1A9" stroke-width="0.64" stroke-miterlimit="10"/>
<path d="M597.352 1017.36C597.352 1017.36 589.391 959.936 598.5 922.759C604.08 899.967 612.14 897.437 625.401 875.777C641.338 849.731 652.347 822.553 676.343 797.306C679.134 794.371 682.304 792.029 685.317 789.772C740.334 748.214 770.415 813.413 803.596 769.521C834.896 728.141 846.292 682.606 885.173 663.533C893.315 659.534 901.503 658.052 910.045 660.149C949.014 669.669 985.089 695.34 1016.38 728.46C1021.91 734.316 1028.27 741.142 1034.48 749.179C1072.76 798.7 1102.19 844.34 1145.99 848.804C1183.21 852.572 1195.87 826.888 1213.91 789.896C1226.41 764.272 1232.74 735.407 1249.28 707.878C1250.33 706.123 1251.55 704.481 1252.56 702.708C1278.93 657.42 1280.09 603.473 1300.29 551.716C1306.67 535.358 1316.15 523.684 1327.32 515.421C1366.99 486.063 1372.66 476.468 1420.21 514.962C1467.4 553.183 1466.92 563.852 1519.51 575.666C1561.04 585.004 1565.95 534.07 1604.5 571.919C1669.82 636.036 1699.4 665.471 1728.97 706.1" stroke="#E4C1A9" stroke-width="0.64" stroke-miterlimit="10"/>
<path d="M612.258 1007.05C612.258 1007.05 604.155 950.366 612.741 912.626C617.959 889.663 625.696 885.877 638.531 863.984C654.053 837.527 665.121 810.162 689.267 785.608C692.117 782.71 695.35 780.43 698.374 778.22C754.422 737.489 785.02 803.802 818.653 761.639C850.242 722.049 861.949 676.22 900.153 657.37C908.181 653.421 916.269 651.936 924.733 654.025C963.469 663.621 999.318 688.715 1030.25 721.011C1035.75 726.747 1042.07 733.459 1048.25 741.377C1085.87 789.59 1115.35 834.744 1159.2 838.996C1196.34 842.608 1209.36 817.219 1227.33 780.243C1239.71 754.769 1246.15 725.908 1262.41 698.038C1263.45 696.259 1264.64 694.574 1265.63 692.807C1291.65 646.718 1292.94 592.616 1313.12 541.641C1319.6 525.286 1329.14 513.697 1340.55 505.584C1380.75 476.937 1386.9 468.164 1434.57 507.308C1481.9 546.198 1481.66 557.041 1534.31 568.341C1576.45 577.371 1581.04 525.382 1619.98 563.32C1684.59 626.264 1714.74 655.752 1743.67 696.219" stroke="#E4C1A9" stroke-width="0.64" stroke-miterlimit="10"/>
<path d="M629.174 992.761C629.174 992.761 620.954 936.799 628.988 898.478C633.838 875.319 641.252 870.277 653.666 848.176C668.767 821.284 679.919 793.725 704.221 769.889C707.129 767.028 710.402 764.814 713.484 762.642C770.563 722.738 801.679 790.165 835.757 749.708C867.612 711.912 879.636 665.814 917.163 647.186C925.094 643.258 933.087 641.794 941.432 643.909C979.91 653.586 1015.56 678.122 1046.13 709.57C1051.59 715.192 1057.88 721.784 1064.04 729.606C1101.01 776.559 1130.54 821.151 1174.43 825.22C1211.5 828.646 1224.85 803.588 1242.78 766.592C1255.07 741.265 1261.61 712.43 1277.57 684.2C1278.58 682.403 1279.74 680.7 1280.73 678.908C1306.37 632.024 1307.84 577.761 1328.01 527.563C1334.57 511.241 1344.2 499.708 1355.8 491.726C1396.53 463.766 1403.17 455.838 1450.98 495.628C1498.45 535.164 1498.46 546.227 1551.13 556.97C1593.86 565.698 1598.15 512.673 1637.46 550.706C1701.35 612.505 1732.1 642.012 1760.35 682.351" stroke="#E4C1A9" stroke-width="0.64" stroke-miterlimit="10"/>
<path d="M647.663 976.372C647.663 976.372 639.325 921.136 646.813 882.258C651.318 858.899 658.39 852.629 670.378 830.295C685.041 802.999 696.281 775.271 720.753 752.098C723.723 749.299 727.026 747.104 730.152 745.022C788.262 705.945 819.867 774.467 854.426 735.758C886.564 699.728 898.906 653.361 935.755 634.955C943.567 631.053 951.464 629.61 959.732 631.716C997.976 641.469 1033.4 665.428 1063.62 696.052C1069.05 701.555 1075.29 708.033 1081.43 715.759C1117.75 761.427 1147.31 805.487 1191.26 809.367C1228.24 812.636 1241.94 787.903 1259.84 750.89C1272.02 725.736 1278.68 696.876 1294.35 668.334C1295.35 666.513 1296.48 664.791 1297.44 662.981C1322.74 615.297 1324.34 560.902 1344.48 511.462C1351.12 495.149 1360.86 483.667 1372.68 475.863C1413.96 448.584 1421.06 441.532 1468.98 481.972C1516.6 522.153 1516.85 533.414 1569.56 543.648C1612.87 552.049 1616.84 498.017 1656.54 536.115C1719.7 596.747 1751.06 626.296 1778.63 666.484" stroke="#E4C1A9" stroke-width="0.64" stroke-miterlimit="10"/>
<path d="M666.444 959.144C666.444 959.144 657.989 904.635 664.93 865.2C669.067 841.646 675.792 834.125 687.383 811.577C701.626 783.846 712.954 755.948 737.553 733.474C740.582 730.713 743.923 728.584 747.108 726.539C806.249 688.289 838.366 757.902 873.377 720.921C905.78 686.686 918.457 640.021 954.634 621.862C962.327 617.985 970.152 616.558 978.325 618.685C1016.31 628.519 1051.54 651.896 1081.4 681.696C1086.77 687.061 1092.99 693.443 1099.1 701.05C1134.77 745.434 1164.39 788.979 1208.37 792.653C1245.29 795.735 1259.33 771.328 1277.19 734.324C1289.27 709.316 1296.02 680.488 1311.41 651.582C1312.38 649.742 1313.5 647.996 1314.43 646.167C1339.36 597.688 1341.15 543.127 1361.26 494.47C1367.98 478.188 1377.81 466.763 1389.83 459.09C1431.63 432.498 1439.24 426.286 1487.29 467.377C1535.05 508.227 1535.53 519.662 1588.28 529.363C1632.2 537.432 1635.84 482.393 1675.91 520.562C1738.34 580.049 1770.31 609.617 1797.2 649.677" stroke="#E4C1A9" stroke-width="0.64" stroke-miterlimit="10"/>
<path d="M685.371 941.208C685.371 941.208 676.799 887.425 683.188 847.41C686.981 823.654 693.364 814.906 704.529 792.126C718.333 763.99 729.75 735.922 754.518 714.112C757.605 711.388 760.986 709.326 764.205 707.324C824.383 669.925 856.988 740.632 892.474 705.376C925.138 672.912 938.156 625.972 973.631 608.041C981.233 604.209 988.933 602.784 997.029 604.902C1034.78 614.813 1069.81 637.608 1099.29 666.589C1104.64 671.834 1110.81 678.125 1116.9 685.613C1151.88 728.718 1181.6 771.743 1225.61 775.234C1262.44 778.16 1276.83 754.053 1294.65 717.031C1306.62 692.174 1313.49 663.344 1328.58 634.102C1329.53 632.244 1330.62 630.479 1331.54 628.626C1356.07 579.357 1358.06 524.629 1378.13 476.755C1384.96 460.501 1394.85 449.112 1407.11 441.613C1449.45 415.679 1457.53 410.366 1505.71 452.078C1553.61 493.574 1554.32 505.211 1607.13 514.397C1651.62 522.141 1654.95 466.095 1695.41 504.329C1757.11 562.648 1789.69 592.259 1815.89 632.167" stroke="#E4C1A9" stroke-width="0.64" stroke-miterlimit="10"/>
<path d="M704.372 922.805C704.372 922.805 695.683 869.749 701.525 829.177C704.975 805.221 710.991 795.251 721.759 772.256C735.12 743.691 746.654 715.473 771.549 694.361C774.699 691.698 778.115 689.679 781.368 687.719C842.582 651.171 875.666 722.926 911.632 689.418C944.556 658.724 957.89 611.515 992.717 593.825C1000.2 590.02 1007.83 588.61 1015.82 590.726C1053.32 600.717 1088.14 622.93 1117.27 651.087C1122.59 656.213 1128.72 662.39 1134.78 669.782C1169.11 711.602 1198.86 754.094 1242.91 757.402C1279.65 760.147 1294.41 736.385 1312.19 699.349C1324.03 674.643 1331.01 645.84 1345.82 616.233C1346.76 614.351 1347.82 612.543 1348.72 610.672C1372.87 560.608 1375.04 505.714 1395.06 458.604C1401.96 442.358 1411.97 431.044 1424.41 423.705C1467.31 398.452 1475.85 393.99 1524.14 436.353C1572.19 478.494 1573.13 490.305 1626.01 498.977C1671.07 506.37 1674.08 449.341 1714.93 487.64C1775.89 544.821 1809.09 574.421 1834.64 614.22" stroke="#E4C1A9" stroke-width="0.64" stroke-miterlimit="10"/>
<path d="M723.29 904.02C723.29 904.02 714.508 851.685 719.779 810.561C722.861 786.41 728.53 775.189 738.901 751.98C751.818 722.986 763.45 694.647 788.51 674.175C791.718 671.549 795.192 669.567 798.49 667.698C860.745 632.025 894.307 704.827 930.725 673.048C963.903 644.102 977.584 596.642 1011.71 579.18C1019.1 575.395 1026.61 574.011 1034.51 576.148C1071.77 586.215 1106.37 607.875 1135.14 635.184C1140.41 640.196 1146.48 646.258 1152.55 653.55C1186.21 694.115 1216.04 736.063 1260.12 739.164C1296.78 741.752 1311.88 718.292 1329.62 681.237C1341.38 656.676 1348.45 627.876 1362.97 597.958C1363.88 596.057 1364.94 594.226 1365.8 592.335C1389.58 541.453 1391.95 486.44 1411.93 440.088C1418.92 423.874 1429.01 412.593 1441.69 405.404C1485.1 380.814 1494.06 377.338 1542.54 420.235C1590.65 463.138 1591.89 475.034 1644.83 483.192C1690.49 490.23 1693.16 432.223 1734.4 470.587C1794.63 526.624 1828.44 556.243 1853.31 595.89" stroke="#E4C1A9" stroke-width="0.64" stroke-miterlimit="10"/>
<path d="M742 885.081C742 885.081 733.118 833.443 737.819 791.767C740.557 767.416 745.86 754.972 755.828 731.526C768.307 702.126 780.057 673.636 805.233 653.815C808.505 651.251 812.013 649.311 815.345 647.484C878.642 612.686 912.677 686.512 949.58 656.505C983.019 629.329 997.046 581.619 1030.49 564.379C1037.77 560.644 1045.17 559.258 1053 561.386C1090 571.534 1124.42 592.607 1152.81 619.073C1158.06 623.965 1164.08 629.914 1170.1 637.091C1203.08 676.376 1232.96 717.787 1277.1 720.7C1313.7 723.126 1329.14 699.966 1346.84 662.922C1358.48 638.536 1365.68 609.734 1379.9 579.456C1380.81 577.531 1381.81 575.686 1382.67 573.772C1406.05 522.1 1408.64 466.939 1428.56 421.352C1435.65 405.165 1445.82 393.915 1458.71 386.905C1502.67 362.973 1512.09 360.372 1560.72 403.938C1609 447.481 1610.42 459.561 1663.43 467.205C1709.66 473.868 1712.03 414.926 1753.66 453.356C1813.14 508.254 1847.55 537.891 1871.77 577.406" stroke="#E4C1A9" stroke-width="0.64" stroke-miterlimit="10"/>
<path d="M760.406 866.131C760.406 866.131 751.432 815.215 755.562 772.987C757.955 748.435 762.916 734.764 772.459 711.085C784.493 681.257 796.342 652.645 821.682 633.464C825.013 630.937 828.56 629.064 831.927 627.28C896.241 593.362 930.773 668.206 968.156 639.947C1001.83 614.523 1016.2 566.562 1048.99 549.54C1056.17 545.825 1063.48 544.46 1071.21 546.609C1107.98 556.857 1142.18 577.329 1170.21 602.972C1175.4 607.725 1181.4 613.578 1187.4 620.66C1219.71 658.69 1249.67 699.557 1293.85 702.287C1330.36 704.532 1346.15 681.722 1363.81 644.635C1375.36 620.394 1382.66 591.595 1396.58 560.981C1397.46 559.038 1398.45 557.145 1399.29 555.236C1422.27 502.774 1425.05 447.448 1444.96 402.637C1452.14 386.482 1462.39 375.265 1475.49 368.41C1519.99 345.135 1529.88 343.41 1578.65 387.621C1627.06 431.809 1628.71 444.068 1681.77 451.197C1728.58 457.51 1730.64 397.609 1772.66 436.081C1831.39 489.863 1866.43 519.49 1889.96 558.853" stroke="#E4C1A9" stroke-width="0.64" stroke-miterlimit="10"/>
<path d="M778.375 847.353C778.375 847.353 769.301 797.134 772.866 754.378C774.939 729.621 779.487 714.738 788.651 690.816C800.223 660.587 812.189 631.825 837.693 613.284C841.087 610.818 844.669 608.988 848.094 607.241C913.449 574.198 948.425 650.047 986.323 623.578C1020.24 599.877 1034.96 551.666 1067.06 534.919C1074.12 531.231 1081.34 529.886 1088.99 532.027C1125.51 542.356 1159.5 562.246 1187.18 587.089C1192.34 591.723 1198.3 597.461 1204.28 604.447C1235.88 641.204 1265.93 681.527 1310.16 684.069C1346.59 686.157 1362.74 663.643 1380.36 626.567C1391.79 602.477 1399.2 573.704 1412.84 542.726C1413.71 540.759 1414.65 538.853 1415.47 536.896C1438.03 483.649 1441.08 428.165 1460.91 384.123C1468.19 367.972 1478.51 356.84 1491.84 350.134C1536.89 327.517 1547.25 326.69 1596.13 371.528C1644.68 416.361 1646.53 428.776 1699.7 435.433C1747.1 441.366 1748.8 380.516 1791.23 419.048C1849.22 471.692 1884.88 501.332 1907.73 540.568" stroke="#E4C1A9" stroke-width="0.64" stroke-miterlimit="10"/>
<path d="M795.787 828.895C795.787 828.895 786.644 779.392 789.609 736.066C791.333 711.084 795.514 694.979 804.287 670.867C815.415 640.209 827.509 611.344 853.125 593.429C856.582 591.025 860.193 589.213 863.662 587.557C930.035 555.394 965.503 632.238 1003.89 607.541C1038.03 585.568 1053.11 537.154 1084.55 520.601C1091.51 516.933 1098.61 515.614 1106.19 517.77C1142.45 528.181 1176.26 547.484 1203.57 571.507C1208.7 576.022 1214.59 581.675 1220.56 588.513C1251.49 624.014 1281.62 663.793 1325.89 666.129C1362.25 668.031 1378.72 645.847 1396.32 608.776C1407.66 584.855 1415.16 556.062 1428.5 524.772C1429.35 522.786 1430.28 520.856 1431.08 518.881C1453.24 464.845 1456.51 409.212 1476.28 365.935C1483.64 349.815 1494.06 338.71 1507.61 332.183C1553.22 310.195 1564.05 310.267 1613.05 355.755C1661.74 401.234 1663.8 413.827 1717.03 419.97C1765 425.505 1766.39 363.773 1809.22 402.317C1866.46 453.846 1902.75 483.476 1924.92 522.56" stroke="#E4C1A9" stroke-width="0.64" stroke-miterlimit="10"/>
<path d="M812.512 810.962C812.512 810.962 803.271 762.157 805.67 718.303C807.045 693.096 810.866 675.794 819.236 651.443C829.902 620.385 842.118 591.393 867.893 574.095C871.413 571.752 875.059 569.983 878.563 568.37C945.958 537.11 981.884 614.906 1020.79 592.023C1055.18 571.774 1070.6 523.109 1101.36 506.831C1108.2 503.19 1115.22 501.862 1122.68 504.045C1158.7 514.531 1192.29 533.234 1219.21 556.438C1224.3 560.815 1230.16 566.372 1236.11 573.114C1266.34 607.365 1296.55 646.601 1340.85 648.73C1377.13 650.475 1393.97 628.611 1411.48 591.508C1422.71 567.738 1430.34 538.967 1443.38 507.317C1444.2 505.312 1445.12 503.359 1445.92 501.359C1467.65 446.514 1471.17 390.753 1490.9 348.234C1498.37 332.142 1508.85 321.074 1522.61 314.702C1568.76 293.371 1580.05 294.318 1629.17 340.457C1678 386.582 1680.25 399.335 1733.58 405.005C1782.11 410.167 1783.17 347.504 1826.41 386.085C1882.91 436.475 1919.82 466.094 1941.34 505.069" stroke="#E4C1A9" stroke-width="0.64" stroke-miterlimit="10"/>
<path d="M828.423 793.658C828.423 793.658 819.107 745.545 820.917 701.169C821.948 675.762 825.402 657.237 833.37 632.649C843.568 601.167 855.894 572.101 881.828 555.419C885.406 553.113 889.091 551.411 892.653 549.835C961.072 519.479 997.478 598.222 1036.87 577.135C1071.49 558.589 1087.3 509.741 1117.37 493.661C1124.12 490.065 1131.01 488.739 1138.4 490.937C1174.17 501.528 1207.57 519.62 1234.12 542.006C1239.18 546.263 1244.99 551.706 1250.92 558.352C1280.45 591.353 1310.77 630.041 1355.1 631.962C1391.29 633.551 1408.48 611.988 1425.97 574.89C1437.1 551.266 1444.83 522.498 1457.57 490.512C1458.38 488.484 1459.25 486.493 1460.02 484.498C1481.34 428.869 1485.09 372.955 1504.77 331.2C1512.34 315.134 1522.9 304.099 1536.88 297.905C1583.59 277.204 1595.34 279.079 1644.59 325.839C1693.56 372.609 1696 385.545 1749.41 390.697C1798.54 395.454 1799.23 331.92 1842.93 370.527C1898.68 419.802 1936.22 449.411 1957.05 488.234" stroke="#E4C1A9" stroke-width="0.64" stroke-miterlimit="10"/>
<path d="M843.393 777.209C843.393 777.209 834.002 729.788 835.223 684.889C835.929 659.252 838.975 639.54 846.564 614.708C856.3 582.826 868.748 553.633 894.841 537.568C898.483 535.324 902.226 533.658 905.799 532.13C975.24 502.679 1012.12 582.344 1052.01 563.076C1086.87 546.23 1103.01 497.16 1132.41 481.351C1139.04 477.78 1145.87 476.471 1153.15 478.666C1188.69 489.333 1221.89 506.842 1248.06 528.409C1253.09 532.547 1258.84 537.905 1264.76 544.426C1293.6 576.177 1324 614.297 1368.39 616.055C1404.49 617.462 1422.13 596.276 1439.48 559.108C1450.55 535.672 1458.39 506.907 1470.8 474.543C1471.58 472.496 1472.44 470.481 1473.18 468.468C1494.07 412.054 1498.07 355.987 1517.71 314.991C1525.39 298.976 1536.04 287.949 1550.2 281.939C1597.48 261.866 1609.69 264.64 1659.04 312.08C1708.19 359.514 1710.78 372.592 1764.32 377.266C1814 381.602 1814.35 317.191 1858.48 355.828C1913.49 403.988 1951.65 433.587 1971.81 472.282" stroke="#E4C1A9" stroke-width="0.64" stroke-miterlimit="10"/>
<path d="M857.354 761.756C857.354 761.756 847.888 715.027 848.515 669.581C848.871 643.72 851.556 622.809 858.743 597.74C868.011 565.434 880.592 536.162 906.839 520.689C910.521 518.512 914.298 516.889 917.934 515.422C988.374 486.879 1025.76 567.462 1066.15 550.038C1101.25 534.891 1117.74 485.619 1146.47 470.032C1153.01 466.482 1159.71 465.198 1166.93 467.409C1202.21 478.157 1235.23 495.079 1261.02 515.828C1265.99 519.827 1271.72 525.09 1277.62 531.491C1305.76 562.016 1336.26 599.563 1380.68 601.114C1416.72 602.359 1434.68 581.48 1452.01 544.317C1462.96 521.032 1470.93 492.288 1483.04 459.589C1483.81 457.518 1484.62 455.489 1485.38 453.423C1505.85 396.225 1510.12 340.024 1529.67 299.773C1537.44 283.791 1548.16 272.796 1562.56 266.935C1610.4 247.515 1623.06 251.169 1672.55 299.254C1721.83 347.333 1724.61 360.571 1778.24 364.75C1828.49 368.688 1828.51 303.423 1873.05 342.044C1927.3 389.118 1966.1 418.677 1985.58 457.221" stroke="#E4C1A9" stroke-width="0.64" stroke-miterlimit="10"/>
<path d="M870.12 747.488C870.12 747.488 860.575 701.427 860.617 655.483C860.648 629.392 862.925 607.294 869.734 581.982C878.539 549.276 891.224 519.906 917.625 505.025C921.37 502.909 925.206 501.324 928.876 499.899C1000.34 472.285 1038.2 553.766 1079.08 538.162C1114.43 524.69 1131.28 475.239 1159.31 459.904C1165.73 456.38 1172.34 455.117 1179.45 457.324C1214.47 468.154 1247.31 484.465 1272.73 504.418C1277.68 508.298 1283.34 513.475 1289.23 519.752C1316.68 549.027 1347.26 586.031 1391.73 587.37C1427.69 588.458 1445.99 567.88 1463.29 530.698C1474.15 507.558 1482.21 478.818 1494.03 445.784C1494.77 443.694 1495.58 441.641 1496.3 439.556C1516.33 381.579 1520.87 325.22 1540.36 285.708C1548.23 269.753 1559.03 258.791 1573.62 253.114C1622.02 234.298 1635.13 238.88 1684.73 287.616C1734.16 336.34 1737.12 349.715 1790.85 353.445C1841.66 356.961 1841.34 290.843 1886.32 329.471C1939.82 375.431 1979.22 404.984 1998.04 443.395" stroke="#E4C1A9" stroke-width="0.64" stroke-miterlimit="10"/>
<path d="M881.594 734.528C881.594 734.528 871.974 689.159 871.427 642.693C871.109 616.377 873.001 593.086 879.437 567.554C887.755 534.454 900.573 505.005 927.147 490.688C930.956 488.632 934.825 487.09 938.53 485.708C1011 459.003 1049.36 541.349 1090.74 527.641C1126.35 515.839 1143.51 466.219 1170.89 451.101C1177.22 447.622 1183.72 446.356 1190.74 448.584C1225.51 459.519 1258.14 475.224 1283.21 494.353C1288.13 498.114 1293.71 503.182 1299.61 509.358C1326.34 537.412 1357.05 573.838 1401.55 574.97C1437.43 575.901 1456.07 555.624 1473.34 518.448C1484.08 495.459 1492.25 466.722 1503.79 433.346C1504.53 431.233 1505.31 429.161 1506 427.058C1525.61 368.296 1530.41 311.803 1549.84 273.031C1557.81 257.103 1568.7 246.149 1583.5 240.651C1632.46 222.464 1646.05 227.968 1695.76 277.331C1745.33 326.701 1748.45 340.24 1802.3 343.47C1853.66 346.563 1852.99 279.622 1898.41 318.228C1951.16 363.101 1991.2 392.615 2009.36 430.869" stroke="#E4C1A9" stroke-width="0.64" stroke-miterlimit="10"/>
<path d="M891.674 723.098C891.674 723.098 882.003 678.416 880.838 631.408C880.194 604.863 881.677 580.384 887.735 554.609C895.586 521.084 908.489 491.567 935.241 477.837C939.112 475.843 943.011 474.319 946.755 473.003C1020.23 447.231 1059.11 530.442 1100.96 518.583C1136.8 508.432 1154.33 458.658 1181.04 443.786C1187.24 440.333 1193.66 439.088 1200.6 441.308C1235.14 452.318 1267.58 467.412 1292.25 485.752C1297.12 489.374 1302.69 494.37 1308.55 500.403C1334.59 527.231 1365.37 563.089 1409.91 564.038C1445.73 564.808 1464.72 544.856 1481.93 507.643C1492.58 484.799 1500.85 456.089 1512.09 422.378C1512.8 420.245 1513.54 418.131 1514.24 416.028C1533.4 356.486 1538.47 299.835 1557.84 261.828C1565.93 245.95 1576.86 235.009 1591.9 229.685C1641.43 212.127 1655.46 218.535 1705.29 268.548C1755.02 318.558 1758.3 332.239 1812.27 335.015C1864.19 337.663 1863.17 269.922 1909.04 308.53C1961.05 352.288 2001.7 381.767 2019.19 419.918" stroke="#E4C1A9" stroke-width="0.64" stroke-miterlimit="10"/>
<path d="M900.189 713.336C900.189 713.336 890.438 669.322 888.688 621.815C887.696 595.046 888.823 569.392 894.473 543.356C901.838 509.436 914.874 479.84 941.798 466.673C945.733 464.74 949.667 463.259 953.474 462.005C1027.95 437.166 1067.34 521.217 1109.68 511.254C1145.8 502.745 1163.63 452.831 1189.65 438.182C1195.74 434.755 1202.06 433.53 1208.92 435.742C1243.21 446.857 1275.47 461.317 1299.76 478.861C1304.6 482.364 1310.1 487.251 1315.95 493.188C1341.27 518.795 1372.17 554.076 1416.74 554.818C1452.47 555.407 1471.8 535.78 1488.99 498.572C1499.52 475.879 1507.9 447.172 1518.86 413.12C1519.55 410.968 1520.28 408.831 1520.94 406.684C1539.67 346.388 1545.03 289.573 1564.33 252.306C1572.55 236.45 1583.54 225.547 1598.77 220.406C1648.88 203.471 1663.34 210.789 1713.31 261.448C1763.18 312.103 1766.62 325.949 1820.71 328.224C1873.18 330.426 1871.81 261.884 1918.13 300.471C1969.37 343.143 2010.67 372.583 2027.47 410.582" stroke="#E4C1A9" stroke-width="0.64" stroke-miterlimit="10"/>
<path d="M907.074 705.404C907.074 705.404 897.267 662.053 894.91 614.053C893.587 587.03 894.311 560.213 899.583 533.933C906.461 499.619 919.612 469.973 946.703 457.345C950.707 455.498 954.669 454.035 958.511 452.823C1033.99 428.917 1073.91 513.804 1116.71 505.719C1153.11 498.85 1171.23 448.75 1196.62 434.39C1202.61 430.983 1208.81 429.809 1215.6 432.012C1249.61 443.261 1281.7 457.057 1305.62 473.806C1310.43 477.165 1315.86 481.992 1321.71 487.804C1346.31 512.19 1377.31 546.951 1421.94 547.428C1457.59 547.908 1477.28 528.529 1494.42 491.331C1504.85 468.813 1513.34 440.08 1524.01 405.692C1524.68 403.517 1525.37 401.366 1526.02 399.196C1544.3 338.12 1549.96 281.166 1569.17 244.644C1577.5 228.839 1588.57 217.944 1604.01 212.958C1654.68 196.628 1669.59 204.874 1719.68 256.207C1769.69 307.507 1773.29 321.495 1827.5 323.317C1880.53 325.097 1878.79 255.76 1925.57 294.295C1976.05 335.882 2017.99 365.282 2034.12 403.153" stroke="#E4C1A9" stroke-width="0.64" stroke-miterlimit="10"/>
<path d="M912.165 699.465C912.165 699.465 902.302 656.777 899.355 608.254C897.707 581.002 898.022 552.997 902.916 526.474C909.332 491.759 922.567 462.045 949.855 449.975C953.923 448.189 957.919 446.769 961.819 445.595C1038.31 422.646 1078.75 508.32 1122.01 502.137C1158.69 496.885 1177.13 446.664 1201.82 432.531C1207.69 429.151 1213.82 427.992 1220.49 430.197C1254.24 441.528 1286.15 454.712 1309.69 470.667C1314.48 473.906 1319.84 478.648 1325.68 484.311C1349.55 507.505 1380.68 541.635 1425.36 541.954C1460.93 542.276 1480.96 523.199 1498.07 485.983C1508.39 463.61 1516.97 434.909 1527.36 400.157C1528.01 397.963 1528.68 395.788 1529.31 393.599C1547.14 331.743 1553.07 274.656 1572.22 238.873C1580.65 223.095 1591.8 212.209 1607.46 207.426C1658.71 191.719 1674.08 200.893 1724.28 252.852C1774.44 304.822 1778.16 318.932 1832.52 320.272C1886.1 321.582 1884 251.498 1931.24 289.982C1980.98 330.478 2023.54 359.844 2038.98 397.563" stroke="#E4C1A9" stroke-width="0.64" stroke-miterlimit="10"/>
<path d="M915.379 695.712C915.379 695.712 905.436 653.692 901.905 604.67C899.926 577.164 899.843 548.019 904.353 521.23C910.282 486.12 923.604 456.337 951.117 444.844C955.224 443.125 959.279 441.742 963.213 440.61C1040.68 418.6 1081.7 505.099 1125.41 500.823C1162.39 497.207 1181.13 446.846 1205.14 432.96C1210.92 429.6 1216.92 428.444 1223.52 430.688C1257.04 442.095 1288.74 454.674 1311.92 469.833C1316.65 472.934 1321.97 477.609 1327.8 483.148C1350.96 505.121 1382.21 538.65 1426.92 538.785C1462.42 538.921 1482.78 520.198 1499.86 482.963C1510.07 460.741 1518.77 432.038 1528.87 396.974C1529.51 394.756 1530.13 392.544 1530.76 390.355C1548.13 327.749 1554.37 270.517 1573.45 235.451C1582 219.724 1593.22 208.846 1609.07 204.246C1660.91 189.163 1676.7 199.246 1727.04 251.851C1777.36 304.461 1781.19 318.722 1835.73 319.599C1889.84 320.468 1887.37 249.613 1935.1 288.041C1984.08 327.475 2027.28 356.777 2042.07 394.364" stroke="#E4C1A9" stroke-width="0.64" stroke-miterlimit="10"/>
<path d="M916.58 694.324C916.58 694.324 863.863 476.294 950.337 442.06C1036.81 407.827 1080.41 504.329 1126.76 501.856C1173.11 499.382 1191.22 422.02 1224.51 433.502C1257.77 444.99 1289.31 456.952 1312.09 471.322C1334.87 485.692 1370.03 538.02 1426.44 537.939C1482.84 537.858 1501.94 491.224 1528.32 396.067C1554.7 300.91 1556.17 217.807 1608.62 203.318C1661.06 188.829 1677.26 199.851 1727.72 253.106C1778.18 306.361 1782.16 320.764 1836.82 321.164C1891.48 321.563 1888.65 249.985 1936.87 288.357C1985.1 326.729 2028.93 355.968 2043.04 393.402" stroke="#E4C1A9" stroke-width="0.64" stroke-miterlimit="10"/>
</g>
</g>
<defs>
<clipPath id="clip0_114_322">
<rect width="1727.05" height="761.283" fill="white" transform="translate(0.365234 367.221) rotate(-12.2741)"/>
</clipPath>
</defs>
</svg>
