<svg width="289" height="66" viewBox="0 0 289 66" fill="none" xmlns="http://www.w3.org/2000/svg">
<path d="M87.024 44.384C83.632 44.384 80.8267 43.264 78.608 41.024C76.3893 38.784 75.28 36.0427 75.28 32.8C75.28 29.5573 76.3893 26.816 78.608 24.576C80.8267 22.336 83.632 21.216 87.024 21.216C89.0933 21.216 90.992 21.7173 92.72 22.72C94.448 23.7013 95.7813 25.0347 96.72 26.72L94.736 27.872C94.032 26.5067 92.9867 25.4187 91.6 24.608C90.2133 23.7973 88.688 23.392 87.024 23.392C84.2293 23.392 81.9467 24.2987 80.176 26.112C78.4053 27.9253 77.52 30.1547 77.52 32.8C77.52 35.4453 78.4053 37.6747 80.176 39.488C81.9467 41.3013 84.2293 42.208 87.024 42.208C88.688 42.208 90.2133 41.8027 91.6 40.992C92.9867 40.1813 94.032 39.0933 94.736 37.728L96.72 38.848C95.8027 40.5333 94.4693 41.8773 92.72 42.88C90.992 43.8827 89.0933 44.384 87.024 44.384ZM102.196 30.656C103.177 28.7147 104.862 27.744 107.252 27.744V29.792C105.801 29.792 104.596 30.2187 103.636 31.072C102.676 31.9253 102.196 33.2693 102.196 35.104V44H100.084V28H102.196V30.656ZM121.979 28H124.219L117.371 45.472C116.752 47.0507 115.867 48.288 114.715 49.184C113.584 50.1013 112.315 50.5067 110.907 50.4V48.416C112.827 48.6293 114.288 47.52 115.291 45.088L115.707 44.096L108.539 28H110.779L116.795 41.408L121.979 28ZM135.347 27.616C137.63 27.616 139.571 28.4267 141.171 30.048C142.793 31.6693 143.603 33.6533 143.603 36C143.603 38.3467 142.793 40.3307 141.171 41.952C139.571 43.5733 137.63 44.384 135.347 44.384C132.51 44.384 130.355 43.2107 128.883 40.864V50.4H126.771V28H128.883V31.136C130.355 28.7893 132.51 27.616 135.347 27.616ZM130.707 40.512C131.923 41.728 133.417 42.336 135.187 42.336C136.958 42.336 138.451 41.728 139.667 40.512C140.883 39.2747 141.491 37.7707 141.491 36C141.491 34.2293 140.883 32.736 139.667 31.52C138.451 30.2827 136.958 29.664 135.187 29.664C133.417 29.664 131.923 30.2827 130.707 31.52C129.491 32.736 128.883 34.2293 128.883 36C128.883 37.7707 129.491 39.2747 130.707 40.512ZM155.283 30.048H150.675V39.744C150.675 40.6187 150.845 41.248 151.187 41.632C151.528 41.9947 152.04 42.1867 152.723 42.208C153.405 42.208 154.259 42.1867 155.283 42.144V44C153.043 44.3413 151.357 44.1813 150.227 43.52C149.117 42.8587 148.562 41.6 148.562 39.744V30.048H145.203V28H148.562V24.16L150.675 23.52V28H155.283V30.048ZM171.242 41.984C169.62 43.584 167.636 44.384 165.29 44.384C162.943 44.384 160.948 43.584 159.306 41.984C157.684 40.3627 156.874 38.368 156.874 36C156.874 33.632 157.684 31.648 159.306 30.048C160.948 28.4267 162.943 27.616 165.29 27.616C167.636 27.616 169.62 28.4267 171.242 30.048C172.884 31.648 173.706 33.632 173.706 36C173.706 38.368 172.884 40.3627 171.242 41.984ZM160.81 40.512C162.026 41.728 163.519 42.336 165.29 42.336C167.06 42.336 168.554 41.728 169.77 40.512C170.986 39.2747 171.594 37.7707 171.594 36C171.594 34.2293 170.986 32.736 169.77 31.52C168.554 30.2827 167.06 29.664 165.29 29.664C163.519 29.664 162.026 30.2827 160.81 31.52C159.594 32.736 158.986 34.2293 158.986 36C158.986 37.7707 159.594 39.2747 160.81 40.512ZM191.32 44L186.072 35.04H179.8V44H177.56V21.6H186.52C188.376 21.6 189.955 22.2613 191.256 23.584C192.579 24.8853 193.24 26.464 193.24 28.32C193.24 29.8347 192.781 31.1893 191.864 32.384C190.968 33.5573 189.816 34.3467 188.408 34.752L193.88 44H191.32ZM179.8 23.712V32.928H186.52C187.757 32.928 188.813 32.48 189.688 31.584C190.563 30.6667 191 29.5787 191 28.32C191 27.04 190.563 25.952 189.688 25.056C188.813 24.16 187.757 23.712 186.52 23.712H179.8ZM203.351 27.616C205.719 27.616 207.628 28.4587 209.079 30.144C210.551 31.808 211.287 33.7813 211.287 36.064C211.287 36.2987 211.265 36.6293 211.223 37.056H197.175C197.388 38.6773 198.071 39.968 199.223 40.928C200.396 41.8667 201.836 42.336 203.543 42.336C204.759 42.336 205.804 42.0907 206.679 41.6C207.575 41.088 208.247 40.4267 208.695 39.616L210.551 40.704C209.847 41.8347 208.887 42.7307 207.671 43.392C206.455 44.0533 205.068 44.384 203.511 44.384C200.993 44.384 198.945 43.5947 197.367 42.016C195.788 40.4373 194.999 38.432 194.999 36C194.999 33.6107 195.777 31.616 197.335 30.016C198.892 28.416 200.897 27.616 203.351 27.616ZM203.351 29.664C201.687 29.664 200.289 30.1653 199.159 31.168C198.049 32.1493 197.388 33.4293 197.175 35.008H209.111C208.897 33.3227 208.247 32.0107 207.159 31.072C206.071 30.1333 204.801 29.664 203.351 29.664ZM225.541 28H227.781L221.221 44H218.661L212.101 28H214.341L219.941 41.792L225.541 28ZM237.101 27.616C239.469 27.616 241.378 28.4587 242.829 30.144C244.301 31.808 245.037 33.7813 245.037 36.064C245.037 36.2987 245.015 36.6293 244.973 37.056H230.925C231.138 38.6773 231.821 39.968 232.973 40.928C234.146 41.8667 235.586 42.336 237.293 42.336C238.509 42.336 239.554 42.0907 240.429 41.6C241.325 41.088 241.997 40.4267 242.445 39.616L244.301 40.704C243.597 41.8347 242.637 42.7307 241.421 43.392C240.205 44.0533 238.818 44.384 237.261 44.384C234.743 44.384 232.695 43.5947 231.117 42.016C229.538 40.4373 228.749 38.432 228.749 36C228.749 33.6107 229.527 31.616 231.085 30.016C232.642 28.416 234.647 27.616 237.101 27.616ZM237.101 29.664C235.437 29.664 234.039 30.1653 232.909 31.168C231.799 32.1493 231.138 33.4293 230.925 35.008H242.861C242.647 33.3227 241.997 32.0107 240.909 31.072C239.821 30.1333 238.551 29.664 237.101 29.664ZM250.508 30.656C251.49 28.7147 253.175 27.744 255.564 27.744V29.792C254.114 29.792 252.908 30.2187 251.948 31.072C250.988 31.9253 250.508 33.2693 250.508 35.104V44H248.396V28H250.508V30.656ZM259.498 32.192C259.498 32.9173 259.818 33.4933 260.458 33.92C261.098 34.3467 261.876 34.6773 262.794 34.912C263.711 35.1467 264.628 35.4133 265.546 35.712C266.463 35.9893 267.242 36.4693 267.882 37.152C268.522 37.8133 268.842 38.688 268.842 39.776C268.842 41.1413 268.298 42.2507 267.21 43.104C266.143 43.9573 264.756 44.384 263.05 44.384C261.514 44.384 260.202 44.0427 259.114 43.36C258.047 42.6773 257.3 41.792 256.874 40.704L258.666 39.648C258.964 40.48 259.498 41.1413 260.266 41.632C261.055 42.1013 261.983 42.336 263.05 42.336C264.095 42.336 264.97 42.1333 265.674 41.728C266.378 41.3013 266.73 40.6507 266.73 39.776C266.73 39.0507 266.41 38.4747 265.77 38.048C265.13 37.6213 264.351 37.2907 263.434 37.056C262.516 36.8213 261.599 36.5653 260.682 36.288C259.764 35.9893 258.986 35.5093 258.346 34.848C257.706 34.1653 257.386 33.28 257.386 32.192C257.386 30.8907 257.898 29.8027 258.922 28.928C259.967 28.0533 261.279 27.616 262.858 27.616C264.159 27.616 265.3 27.9147 266.282 28.512C267.263 29.088 267.988 29.8773 268.458 30.88L266.698 31.904C266.079 30.4107 264.799 29.664 262.858 29.664C261.94 29.664 261.151 29.888 260.49 30.336C259.828 30.7627 259.498 31.3813 259.498 32.192ZM279.288 27.616C281.656 27.616 283.566 28.4587 285.016 30.144C286.488 31.808 287.224 33.7813 287.224 36.064C287.224 36.2987 287.203 36.6293 287.16 37.056H273.112C273.326 38.6773 274.008 39.968 275.16 40.928C276.334 41.8667 277.774 42.336 279.48 42.336C280.696 42.336 281.742 42.0907 282.616 41.6C283.512 41.088 284.184 40.4267 284.632 39.616L286.488 40.704C285.784 41.8347 284.824 42.7307 283.608 43.392C282.392 44.0533 281.006 44.384 279.448 44.384C276.931 44.384 274.883 43.5947 273.304 42.016C271.726 40.4373 270.936 38.432 270.936 36C270.936 33.6107 271.715 31.616 273.272 30.016C274.83 28.416 276.835 27.616 279.288 27.616ZM279.288 29.664C277.624 29.664 276.227 30.1653 275.096 31.168C273.987 32.1493 273.326 33.4293 273.112 35.008H285.048C284.835 33.3227 284.184 32.0107 283.096 31.072C282.008 30.1333 280.739 29.664 279.288 29.664Z" fill="black"/>
<path fill-rule="evenodd" clip-rule="evenodd" d="M30.2843 45.7819C16.5256 45.7819 9.52918 29.0326 19.2995 19.2626C29.0605 9.50163 45.8191 16.4412 45.8191 30.2474C45.8191 38.8327 38.8691 45.7819 30.2843 45.7819ZM30.2843 16.2615C17.8984 16.2615 11.5973 31.3411 20.3943 40.1377C29.1844 48.9274 44.2709 42.6755 44.2709 30.2478C44.2709 22.5189 38.0135 16.2615 30.2846 16.2615H30.2843Z" fill="#0D1B36"/>
<path fill-rule="evenodd" clip-rule="evenodd" d="M55.8189 66C55.407 66 52.6517 63.5443 52.6517 62.8332V57.7074H47.5264C47.0382 57.7074 45.9747 56.6439 45.9747 56.1557V51.03L40.8489 51.0304C40.6434 51.0304 40.4467 50.9487 40.3011 50.8031L34.3252 44.8272C33.9179 44.4199 34.0852 43.7215 34.6326 43.543C38.8625 42.1644 42.2012 38.8253 43.5802 34.5954C43.7599 34.0449 44.4583 33.8834 44.8644 34.2884L65.8103 55.2343C65.995 55.419 66.0732 55.683 66.0209 55.9385L64.4065 63.7654C64.3442 64.0681 64.1077 64.3047 63.8049 64.367L55.8193 65.9992L55.8189 66ZM54.2011 62.5126L56.071 64.3833L62.9927 62.9547L64.4197 56.0357L44.6228 36.238C43.0622 39.9906 40.027 43.0254 36.2748 44.586L41.1699 49.481L46.7494 49.4814C47.1768 49.4814 47.5236 49.8287 47.5236 50.2557V55.8352L47.8473 56.1588H53.4268C53.8542 56.1588 54.2011 56.5061 54.2011 56.9331V62.513V62.5126Z" fill="#0D1B36"/>
<path fill-rule="evenodd" clip-rule="evenodd" d="M19.8473 20.5844C19.6491 20.5844 19.4508 20.5085 19.2999 20.3575L14.2194 15.277C13.4981 14.5566 14.5938 13.4613 15.3142 14.1822L20.3947 19.2627C20.8848 19.7524 20.5294 20.5844 19.8473 20.5844Z" fill="#0D1B36"/>
<path fill-rule="evenodd" clip-rule="evenodd" d="M15.7428 28.4844C15.5446 28.4844 15.3464 28.4085 15.1954 28.2571L8.59542 21.6571L5.16921 25.0834C4.44874 25.8046 3.35313 24.709 4.07437 23.9885L8.048 20.0149C8.33836 19.7245 8.85248 19.7245 9.14284 20.0149L16.2903 27.1627C16.78 27.6524 16.4254 28.4844 15.7428 28.4844Z" fill="#0D1B36"/>
<path fill-rule="evenodd" clip-rule="evenodd" d="M28.3338 16.3901C28.1352 16.3901 27.9374 16.3142 27.7864 16.1632L20.3897 8.76723C20.0869 8.46487 20.0869 7.97475 20.3897 7.67239L24.3633 3.69876C25.0845 2.97752 26.179 4.07313 25.4581 4.7936L22.0327 8.21981L28.8812 15.0684C29.3714 15.5577 29.0163 16.3901 28.3342 16.3901H28.3338Z" fill="#0D1B36"/>
<path fill-rule="evenodd" clip-rule="evenodd" d="M13.3282 16.1001C9.6356 16.1001 9.63521 10.483 13.3282 10.483C17.0219 10.483 17.0219 16.1001 13.3282 16.1001ZM13.3282 12.0312C12.2136 12.0312 11.6441 13.3897 12.4373 14.183C13.5891 15.3347 15.4075 13.5914 14.219 12.4009C13.9809 12.1621 13.665 12.0308 13.3282 12.0308V12.0312Z" fill="#0D1B36"/>
<path fill-rule="evenodd" clip-rule="evenodd" d="M26.3495 5.61705C22.6496 5.61705 22.65 0 26.3495 0C30.0486 0 30.0483 5.61705 26.3495 5.61705ZM26.3495 1.54779C25.2318 1.54779 24.6639 2.90473 25.4579 3.69914C26.6236 4.86522 28.4188 3.09559 27.2403 1.91752C27.0022 1.67942 26.6855 1.54818 26.3491 1.54818L26.3495 1.54779Z" fill="#0D1B36"/>
<path fill-rule="evenodd" clip-rule="evenodd" d="M3.18372 28.7832C-0.509615 28.7832 -0.510002 23.1654 3.18372 23.1654C6.88287 23.1654 6.88287 28.7832 3.18372 28.7832ZM3.18372 24.714C2.06837 24.714 1.49888 26.0725 2.29213 26.8653C3.45859 28.031 5.25338 26.2606 4.07454 25.0829C3.83644 24.8452 3.52015 24.714 3.18334 24.714H3.18372Z" fill="#0D1B36"/>
<path fill-rule="evenodd" clip-rule="evenodd" d="M40.7211 20.6548C40.0385 20.6548 39.6827 19.8229 40.1732 19.3331L45.2537 14.2527C45.975 13.5314 47.0702 14.627 46.3489 15.3475L41.2685 20.428C41.1179 20.5793 40.9193 20.6552 40.7211 20.6552V20.6548Z" fill="#0D1B36"/>
<path fill-rule="evenodd" clip-rule="evenodd" d="M32.8219 16.5503C32.1401 16.5503 31.7843 15.7183 32.2748 15.2286L38.8748 8.62861L35.4486 5.2024C34.727 4.48154 35.8238 3.38632 36.5439 4.10756L40.5175 8.08119C40.8198 8.38355 40.8202 8.87328 40.5175 9.17564L33.3689 16.3234C33.2179 16.4748 33.0197 16.5507 32.8215 16.5507L32.8219 16.5503Z" fill="#0D1B36"/>
<path fill-rule="evenodd" clip-rule="evenodd" d="M44.9159 29.141C44.2333 29.141 43.8776 28.3094 44.3681 27.8193L51.764 20.4233C52.0668 20.1205 52.5569 20.1205 52.8593 20.4233L56.8333 24.3969C57.5549 25.1178 56.4581 26.213 55.7377 25.4918L52.3115 22.0655L45.4637 28.9141C45.3119 29.0651 45.1137 29.141 44.9159 29.141Z" fill="#0D1B36"/>
<path fill-rule="evenodd" clip-rule="evenodd" d="M47.2404 16.1706C43.5482 16.1706 43.5467 10.5527 47.2404 10.5527C50.933 10.5527 50.9338 16.1706 47.2404 16.1706ZM47.2404 12.1013C46.1251 12.1013 45.556 13.4594 46.3492 14.2527C47.5013 15.4044 49.3201 13.6611 48.1312 12.471C47.8935 12.2329 47.5768 12.1017 47.2404 12.1017V12.1013Z" fill="#0D1B36"/>
<path fill-rule="evenodd" clip-rule="evenodd" d="M57.7233 29.1913C54.0312 29.1913 54.0296 23.5735 57.7233 23.5735C61.4155 23.5735 61.4174 29.1913 57.7233 29.1913ZM57.7233 25.1224C56.608 25.1224 56.0393 26.4805 56.8325 27.2738C57.9846 28.4255 59.8031 26.6822 58.6145 25.4918C58.3768 25.2533 58.0601 25.1224 57.7233 25.1224Z" fill="#0D1B36"/>
<path fill-rule="evenodd" clip-rule="evenodd" d="M34.558 6.02549C30.8655 6.02549 30.8651 0.408447 34.5588 0.408447C38.2518 0.408447 38.2525 6.02549 34.558 6.02549ZM34.558 1.95624C33.4435 1.95624 32.874 3.31472 33.6672 4.10759C34.8221 5.26166 36.6366 3.51178 35.4489 2.32519C35.2108 2.08748 34.8945 1.95624 34.558 1.95624Z" fill="#0D1B36"/>
<path fill-rule="evenodd" clip-rule="evenodd" d="M14.6967 46.5396C14.0141 46.5396 13.6591 45.7064 14.1492 45.2171L19.2297 40.137C19.9521 39.4146 21.0454 40.5121 20.3246 41.2326L15.2441 46.3127C15.0923 46.4637 14.8945 46.5396 14.6967 46.5396Z" fill="#0D1B36"/>
<path fill-rule="evenodd" clip-rule="evenodd" d="M24.5018 56.6846C24.3036 56.6846 24.1054 56.6087 23.9548 56.4577L19.9819 52.4841C19.6792 52.1814 19.6792 51.6908 19.9819 51.3885L27.1294 44.2411C27.8514 43.5194 28.9447 44.6166 28.2242 45.3367L21.6246 51.9367L25.05 55.3625C25.5401 55.8522 25.1855 56.6846 24.5018 56.6846Z" fill="#0D1B36"/>
<path fill-rule="evenodd" clip-rule="evenodd" d="M8.18684 40.3689C7.98862 40.3689 7.79041 40.293 7.63942 40.1416L3.66579 36.168C2.94416 35.4463 4.04055 34.3519 4.76063 35.0728L8.18684 38.499L15.0354 31.6512C15.757 30.9296 16.8511 32.0256 16.1302 32.746L8.73426 40.1424C8.58289 40.2934 8.38506 40.3693 8.18684 40.3693V40.3689Z" fill="#0D1B36"/>
<path fill-rule="evenodd" clip-rule="evenodd" d="M13.2584 50.0126C9.55925 50.0126 9.55886 44.3959 13.2584 44.3959C16.9529 44.3959 16.9521 50.0126 13.2584 50.0126ZM13.2584 45.9433C12.1407 45.9433 11.5739 47.3011 12.3676 48.0947C13.5213 49.248 15.3366 47.502 14.1492 46.3131C13.9115 46.0742 13.5948 45.9437 13.2584 45.9437V45.9433Z" fill="#0D1B36"/>
<path fill-rule="evenodd" clip-rule="evenodd" d="M2.77475 36.9914C-0.924399 36.9914 -0.925173 31.3744 2.77397 31.3744C6.47311 31.3744 6.47273 36.9914 2.77475 36.9914ZM2.77475 32.9222C1.65784 32.9222 1.0899 34.2795 1.88393 35.0731C3.05039 36.2392 4.84363 34.47 3.66556 33.2919C3.42824 33.0538 3.11117 32.9226 2.77475 32.9226V32.9222Z" fill="#0D1B36"/>
<path fill-rule="evenodd" clip-rule="evenodd" d="M25.9412 60.1576C22.2432 60.1576 22.2401 54.541 25.9412 54.541C29.6407 54.541 29.6395 60.1576 25.9412 60.1576ZM25.9412 56.0884C24.8204 56.0884 24.2586 57.4484 25.0496 58.2393C26.2152 59.405 28.0097 57.6369 26.8316 56.4577C26.5939 56.2192 26.2776 56.0884 25.9412 56.0884Z" fill="#0D1B36"/>
<path fill-rule="evenodd" clip-rule="evenodd" d="M59.2557 57.0303C59.0579 57.0303 58.8597 56.9544 58.7079 56.8034L45.4584 43.5531C44.7364 42.8311 45.8335 41.737 46.5536 42.4575L59.8032 55.7078C60.2929 56.1976 59.939 57.0303 59.2557 57.0303Z" fill="#0D1B36"/>
<path fill-rule="evenodd" clip-rule="evenodd" d="M30.2841 40.7347C24.5013 40.7347 19.7964 36.0302 19.7964 30.2478C19.7964 24.4651 24.5013 19.7609 30.2841 19.7609C36.0664 19.7609 40.771 24.4659 40.771 30.2478C40.771 36.0302 36.0664 40.7347 30.2841 40.7347ZM30.2841 21.3087C25.3554 21.3087 21.345 25.3187 21.345 30.2478C21.345 35.1765 25.355 39.1858 30.2841 39.1858C35.2124 39.1858 39.222 35.1762 39.222 30.2478C39.222 25.3187 35.2124 21.3087 30.2841 21.3087Z" fill="#0D1B36"/>
<path fill-rule="evenodd" clip-rule="evenodd" d="M30.2329 31.0221H27.6132C27.1857 31.0221 26.8389 30.6752 26.8389 30.2478V24.8022C26.8389 24.3748 27.1857 24.028 27.6132 24.028H30.2329C34.8357 24.028 34.8341 31.0221 30.2329 31.0221ZM28.3874 29.4735C29.696 29.4735 32.1814 29.8002 32.1814 27.525C32.1814 25.2494 29.6968 25.5765 28.3874 25.5765V29.4735Z" fill="#0D1B36"/>
<path fill-rule="evenodd" clip-rule="evenodd" d="M30.2329 36.468H27.6132C27.1857 36.468 26.8389 36.1207 26.8389 35.6937V30.2478C26.8389 29.8204 27.1857 29.4735 27.6132 29.4735H30.2329C34.8357 29.4735 34.8341 36.468 30.2329 36.468ZM28.3874 34.9187C29.6968 34.9187 32.1814 35.2454 32.1814 32.9702C32.1814 30.6946 29.6968 31.0217 28.3874 31.0217V34.9191V34.9187Z" fill="#0D1B36"/>
<path fill-rule="evenodd" clip-rule="evenodd" d="M29.7866 37.6689C28.8137 37.6689 29.0123 36.4947 29.0123 35.6937C29.0123 34.6744 30.5609 34.6748 30.5609 35.6937C30.5609 36.4955 30.7595 37.6689 29.7866 37.6689Z" fill="#0D1B36"/>
<path fill-rule="evenodd" clip-rule="evenodd" d="M29.7866 25.5765C28.8137 25.5765 29.0123 24.4027 29.0123 23.6009C29.0123 22.5816 30.5609 22.5816 30.5609 23.6009C30.5609 24.4035 30.7595 25.5765 29.7866 25.5765Z" fill="#0D1B36"/>
</svg>
